<svg width="305" height="131" viewBox="0 0 305 131" fill="none" xmlns="http://www.w3.org/2000/svg">
<path d="M261.956 101.15V100.01C276.691 100.01 287.781 88.0094 287.781 72.097C287.781 67.1979 286.11 61.1975 283.489 56.8302L284.477 56.2605C287.211 60.8557 288.92 66.9321 288.92 72.135C288.92 88.655 277.337 101.15 261.956 101.15Z" fill="#747D88"/>
<path d="M232.523 68.3751L231.384 68.1853C232.067 63.8938 233.093 60.21 236.055 56.1465L236.966 56.8301C234.498 60.248 233.283 63.3622 232.523 68.3751Z" fill="#747D88"/>
<path d="M236.056 88.7689C234.954 87.2498 234.651 86.5282 234.157 85.237C234.043 84.8952 233.891 84.5534 233.701 84.0977L234.765 83.6799C234.954 84.1357 235.106 84.4775 235.22 84.8192C235.714 86.0725 235.942 86.7181 236.967 88.1233L236.056 88.7689Z" fill="#747D88"/>
<path d="M228.157 69.1347C227.853 69.1347 227.625 68.9068 227.587 68.603C227.549 68.2992 227.777 67.9954 228.119 67.9954L249.424 66.2104H249.462L276.388 67.9954C276.692 68.0334 276.957 68.2992 276.92 68.603C276.882 68.9068 276.616 69.1347 276.312 69.1347L249.424 67.3498L228.195 69.1347H228.157Z" fill="#747D88"/>
<path d="M239.169 85.9585C236.283 85.9585 233.777 84.8572 231.954 82.8064C229.295 79.7682 228.308 74.8692 229.105 68.6029C229.143 68.2991 229.447 68.0712 229.751 68.1092C230.055 68.1472 230.283 68.451 230.245 68.7548C229.485 74.6793 230.359 79.2745 232.827 82.0468C234.422 83.8698 236.625 84.8192 239.207 84.8192C241.638 84.8192 243.537 84.0217 244.904 82.3886C247.334 79.5404 248.056 74.2995 246.993 67.6155C246.955 67.3117 247.145 67.0079 247.448 66.9699C247.752 66.9319 248.056 67.1218 248.094 67.4256C249.233 74.4514 248.398 80.0341 245.739 83.1102C244.144 85.0091 241.942 85.9585 239.169 85.9585Z" fill="#747D88"/>
<path d="M262.488 85.9587C262.298 85.9587 262.146 85.9587 261.957 85.9587C258.349 85.8448 254.931 83.9839 252.804 81.0216C250.981 78.5152 249.272 74.0338 251.323 67.198C251.399 66.8941 251.741 66.7422 252.045 66.8182C252.348 66.8941 252.5 67.2359 252.424 67.5397C250.487 73.9579 252.083 78.0594 253.716 80.376C255.652 83.0724 258.729 84.7434 261.957 84.8194C264.995 84.9333 267.311 84.1738 268.982 82.5028C271.489 80.0342 272.552 75.515 272.4 68.2993C272.4 67.9955 272.628 67.7296 272.97 67.7296C273.312 67.7296 273.54 67.9575 273.54 68.2993C273.729 75.8568 272.552 80.6039 269.818 83.3383C268.033 85.0852 265.564 85.9587 262.488 85.9587Z" fill="#747D88"/>
<path d="M261.994 101.073H261.956C260.817 100.998 234.308 98.9088 228.954 94.5794C226.827 92.8704 226.029 91.4273 226.523 90.212C228.004 86.6801 241.182 87.9714 243.803 88.2372C244.107 88.2752 244.334 88.541 244.296 88.8828C244.259 89.1866 243.993 89.4145 243.651 89.3765C237.461 88.6929 228.384 88.6549 227.549 90.6677C227.283 91.3133 228.042 92.3767 229.637 93.7059C234.688 97.8074 261.728 99.9342 261.994 99.9342C262.298 99.9721 262.526 100.238 262.526 100.542C262.526 100.846 262.26 101.073 261.994 101.073Z" fill="#747D88"/>
<path d="M264.082 64.1595C263.854 64.1595 263.664 64.1215 263.436 64.0076C263.436 64.0076 262.715 63.6278 261.651 63.2101C261.006 62.9822 260.132 63.0962 259.828 63.1721C259.107 63.324 258.385 62.9063 258.233 62.1847C258.081 61.4631 258.499 60.7416 259.183 60.5897C259.373 60.5517 261.044 60.1719 262.563 60.7036C263.816 61.1593 264.651 61.615 264.689 61.653C265.335 61.9948 265.563 62.7923 265.221 63.438C265.031 63.8937 264.575 64.1595 264.082 64.1595Z" fill="#747D88"/>
<path d="M238.257 64.7674C238.029 64.7674 237.84 64.7294 237.612 64.6155C236.966 64.2737 236.738 63.4762 237.08 62.8306C237.156 62.6787 237.84 61.4634 239.055 60.8178C240.004 60.3241 240.726 60.0582 240.764 60.0582C241.447 59.8304 242.207 60.1722 242.473 60.8937C242.701 61.5773 242.359 62.3369 241.637 62.6027C241.637 62.6027 241.03 62.8306 240.27 63.2104C239.852 63.4382 239.473 63.9699 239.435 64.1218C239.207 64.5016 238.751 64.7674 238.257 64.7674Z" fill="#747D88"/>
<path d="M290.971 69.5905C290.363 69.5905 289.717 69.5145 289.072 69.2867L287.97 68.9449C287.667 68.8689 287.515 68.5271 287.591 68.2233C287.667 67.9195 288.008 67.7676 288.312 67.8435L289.414 68.1853C291.806 68.9449 294.351 67.8435 295.452 65.6029L295.908 64.6535L299.478 67.4258C300.047 67.8815 300.807 68.0334 301.528 67.8435C302.25 67.6537 302.82 67.16 303.085 66.4764C303.313 65.9067 303.313 65.2611 303.085 64.6914L295.604 46.6143C293.857 42.4368 291.73 39.5126 286.945 38.9049C286.641 38.867 286.413 38.5631 286.451 38.2593C286.489 37.9555 286.793 37.7276 287.097 37.7656C292.756 38.4492 295.034 42.2089 296.667 46.1586L304.149 64.2357C304.491 65.1092 304.491 66.0206 304.149 66.8941C303.731 67.9195 302.896 68.679 301.832 68.9449C300.769 69.2487 299.667 69.0208 298.794 68.3372L296.288 66.4384C295.224 68.4132 293.173 69.5905 290.971 69.5905Z" fill="#747D88"/>
<path d="M240.461 46.3483C240.271 46.3483 240.119 46.2724 240.005 46.1205C239.816 45.8546 239.854 45.5128 240.119 45.323L249.917 37.8415C253.449 35.1451 262.298 34.1577 266.589 34.6893C266.893 34.7273 267.121 35.0311 267.083 35.335C267.045 35.6388 266.741 35.8666 266.438 35.8287C262.298 35.297 253.791 36.3224 250.601 38.7529L240.803 46.2344C240.689 46.3104 240.575 46.3483 240.461 46.3483Z" fill="#747D88"/>
<path d="M288.54 44.5634C288.502 44.5634 288.464 44.5634 288.464 44.5634L261.5 40.3859C261.196 40.3479 260.968 40.0441 261.006 39.7403C261.044 39.4365 261.348 39.2086 261.652 39.2466L288.615 43.4241C288.919 43.462 289.147 43.7659 289.109 44.0697C289.071 44.3735 288.805 44.5634 288.54 44.5634Z" fill="#747D88"/>
<path d="M272.97 117.859C272.704 117.859 272.476 117.708 272.438 117.442L267.501 100.352C267.425 100.048 267.577 99.7444 267.881 99.6304C268.184 99.5545 268.488 99.7064 268.602 100.01L273.539 117.1C273.615 117.404 273.463 117.708 273.159 117.822C273.083 117.859 273.008 117.859 272.97 117.859Z" fill="#747D88"/>
<path d="M257.284 124.126C246.232 124.126 244.675 122.265 244.523 120.86C243.954 116.112 252.84 100.618 253.22 99.9341C253.372 99.6682 253.714 99.5543 253.98 99.7062C254.245 99.8581 254.359 100.2 254.208 100.466C251.701 104.871 245.245 117.024 245.663 120.67C245.739 121.239 246.84 123.024 258.233 122.948C263.436 122.91 268.639 122.455 270.348 122.303L269.398 114.289C269.36 113.986 269.588 113.682 269.892 113.644C270.196 113.606 270.5 113.834 270.538 114.138L271.601 123.328L271.031 123.404C270.955 123.404 264.613 124.05 258.271 124.088C257.891 124.126 257.587 124.126 257.284 124.126Z" fill="#747D88"/>
<path d="M284.173 122.682C283.907 122.682 283.679 122.531 283.641 122.265L276.615 95.7946C276.539 95.4908 276.729 95.1869 277.033 95.111C277.337 95.035 277.641 95.2249 277.717 95.5287L284.743 121.999C284.818 122.303 284.629 122.606 284.325 122.682C284.287 122.644 284.211 122.682 284.173 122.682Z" fill="#747D88"/>
<path d="M227.397 89.9084L231.537 88.4272L231.916 95.529C231.916 95.529 229.258 94.7315 228.119 93.0984C226.979 91.4654 226.6 91.4654 226.979 90.7059C227.359 89.9463 227.397 89.9084 227.397 89.9084Z" fill="#747D88"/>
<path d="M287.021 57.0958H236.663C234.156 57.0958 232.144 55.083 232.144 52.5765V49.9941C232.144 48.7408 232.637 47.6015 233.549 46.728C234.46 45.8546 235.599 45.4368 236.853 45.4748L280.602 47.2217C280.906 47.2217 281.172 47.4876 281.134 47.8294C281.134 48.1332 280.868 48.399 280.526 48.3611L236.777 46.6141C235.865 46.5761 234.954 46.9179 234.308 47.5635C233.625 48.2091 233.283 49.0826 233.283 49.9941V52.5765C233.283 54.4374 234.802 55.9565 236.663 55.9565H287.021C287.324 55.9565 287.59 56.2223 287.59 56.5261C287.59 56.83 287.324 57.0958 287.021 57.0958Z" fill="#747D88"/>
<path d="M240.309 54.0577C240.005 54.0577 239.739 53.7918 239.739 53.488V48.1712C239.739 47.8674 240.005 47.6016 240.309 47.6016C240.613 47.6016 240.879 47.8674 240.879 48.1712V53.488C240.879 53.7918 240.613 54.0577 240.309 54.0577Z" fill="#747D88"/>
<path d="M272.209 55.1968C271.905 55.1968 271.64 54.931 271.64 54.6272V49.3104C271.64 49.0066 271.905 48.7407 272.209 48.7407C272.513 48.7407 272.779 49.0066 272.779 49.3104V54.6272C272.779 54.931 272.513 55.1968 272.209 55.1968Z" fill="#747D88"/>
<path d="M285.502 43.804C285.464 43.804 285.426 43.804 285.388 43.804C285.084 43.766 284.856 43.4622 284.932 43.1584L291.198 5.82682C291.502 4.07987 290.287 2.82663 288.996 2.33292C287.856 1.91517 286.223 1.99113 285.312 3.54819C284.059 5.71289 282.73 8.06747 281.362 10.46C274.527 22.3469 265.184 38.6011 264.804 39.9303C264.766 40.1962 264.539 40.424 264.235 40.424C263.931 40.424 263.665 40.1582 263.665 39.8544C263.665 39.2088 266.931 33.3223 280.375 9.89038C281.742 7.49782 283.071 5.18121 284.325 2.97853C285.464 0.965742 287.705 0.661925 289.376 1.26956C291.085 1.87719 292.718 3.62415 292.338 6.01671L286.072 43.3483C286.034 43.6141 285.768 43.804 285.502 43.804Z" fill="#747D88"/>
<path d="M282.69 28.0056C282.652 28.0056 282.577 28.0056 282.539 27.9676C282.235 27.8917 282.083 27.5499 282.159 27.2461L286.564 12.5869C286.64 12.2831 286.982 12.1311 287.286 12.2071C287.589 12.2831 287.741 12.6248 287.665 12.9287L283.26 27.5879C283.146 27.8537 282.918 28.0056 282.69 28.0056Z" fill="#747D88"/>
<path d="M280.184 37.9177C280.146 37.9177 280.07 37.9177 280.032 37.8797C279.729 37.8038 279.539 37.5 279.653 37.1961L281.665 29.9045C281.741 29.6007 282.045 29.4108 282.349 29.5248C282.653 29.6007 282.843 29.9045 282.729 30.2083L280.716 37.5C280.678 37.7658 280.45 37.9177 280.184 37.9177Z" fill="#747D88"/>
<path d="M236.891 46.4624C236.549 46.4624 236.321 46.1966 236.321 45.8928L236.815 10.8778C236.853 7.57381 238.486 5.78888 240.119 5.52304C241.524 5.2572 243.461 6.05472 244.524 8.97896L254.512 36.2086C254.626 36.5124 254.474 36.8162 254.171 36.9302C253.867 37.0441 253.563 36.8922 253.449 36.5884L243.461 9.35874C242.739 7.45988 241.524 6.39652 240.309 6.62438C239.17 6.81427 237.992 8.21942 237.954 10.8778L237.461 45.8928C237.461 46.1966 237.195 46.4624 236.891 46.4624Z" fill="#747D88"/>
<path d="M245.74 31.0437C245.474 31.0437 245.246 30.8538 245.17 30.5879L241.258 13.1184C241.182 12.8146 241.372 12.5108 241.676 12.4348C241.98 12.3589 242.284 12.5488 242.36 12.8526L246.271 30.3221C246.347 30.6259 246.157 30.9297 245.853 31.0057C245.815 31.0437 245.778 31.0437 245.74 31.0437Z" fill="#747D88"/>
<path d="M256.677 42.9681C255.044 42.9681 253.601 43.6897 252.576 44.829C251.588 43.6897 250.107 42.9681 248.474 42.9681C245.436 42.9681 243.005 45.4367 243.005 48.4369C243.005 51.475 245.474 53.9056 248.474 53.9056C250.107 53.9056 251.55 53.184 252.576 52.0447C253.563 53.184 255.044 53.9056 256.677 53.9056C259.715 53.9056 262.146 51.4371 262.146 48.4369C262.146 45.3987 259.677 42.9681 256.677 42.9681Z" fill="#EA5045"/>
<path d="M256.677 54.6653C255.158 54.6653 253.715 54.0956 252.576 53.1082C251.437 54.0956 249.993 54.6653 248.474 54.6653C245.018 54.6653 242.246 51.8549 242.246 48.437C242.246 45.0191 245.056 42.2087 248.474 42.2087C249.993 42.2087 251.437 42.7784 252.576 43.7658C253.715 42.7784 255.158 42.2087 256.677 42.2087C260.133 42.2087 262.906 45.0191 262.906 48.437C262.906 51.8549 260.095 54.6653 256.677 54.6653ZM252.576 50.9055L253.146 51.5511C254.057 52.5765 255.31 53.1462 256.677 53.1462C259.26 53.1462 261.387 51.0194 261.387 48.437C261.387 45.8546 259.26 43.7278 256.677 43.7278C255.348 43.7278 254.057 44.2975 253.146 45.3229L252.576 45.9685L252.006 45.3229C251.095 44.2975 249.842 43.7278 248.474 43.7278C245.892 43.7278 243.765 45.8546 243.765 48.437C243.765 51.0194 245.892 53.1462 248.474 53.1462C249.804 53.1462 251.095 52.5765 252.006 51.5511L252.576 50.9055Z" fill="white"/>
<path d="M256.677 53.9056C259.697 53.9056 262.146 51.4571 262.146 48.4369C262.146 45.4166 259.697 42.9681 256.677 42.9681C253.657 42.9681 251.208 45.4166 251.208 48.4369C251.208 51.4571 253.657 53.9056 256.677 53.9056Z" fill="#4E55A2"/>
<path d="M248.474 53.9056C251.495 53.9056 253.943 51.4571 253.943 48.4369C253.943 45.4166 251.495 42.9681 248.474 42.9681C245.454 42.9681 243.005 45.4166 243.005 48.4369C243.005 51.4571 245.454 53.9056 248.474 53.9056Z" fill="#EA5045"/>
<path d="M288.539 119.758C288.387 119.758 288.273 119.72 288.159 119.606C287.931 119.379 287.893 119.037 288.121 118.809C288.159 118.771 291.197 115.353 295.033 111.1C304.907 100.162 301.186 91.2375 300.046 89.1108C298.565 90.0982 293.818 93.5541 287.172 101.643C283.754 105.783 281.893 110.986 281.855 111.062C281.741 111.365 281.437 111.517 281.134 111.403C280.83 111.289 280.678 110.986 280.792 110.682C280.868 110.454 282.767 105.213 286.298 100.922C294.501 90.9716 299.742 87.9715 299.97 87.8195L300.426 87.5537L300.73 87.9715C300.806 88.0854 307.718 98.681 295.869 111.821C292.033 116.075 288.995 119.493 288.957 119.53C288.843 119.682 288.691 119.758 288.539 119.758Z" fill="#747D88"/>
<path d="M297.426 109.504C297.312 109.504 297.236 109.466 297.122 109.428L292.603 106.618L294.198 102.099L287.476 101.605C287.172 101.567 286.944 101.301 286.944 100.997C286.982 100.694 287.248 100.466 287.552 100.466L295.755 101.073L293.97 106.124L297.73 108.441C297.996 108.593 298.072 108.973 297.92 109.239C297.806 109.428 297.616 109.504 297.426 109.504Z" fill="#747D88"/>
<path d="M260.056 77.9835C261.839 77.9835 263.284 76.5382 263.284 74.7554C263.284 72.9726 261.839 71.5273 260.056 71.5273C258.273 71.5273 256.828 72.9726 256.828 74.7554C256.828 76.5382 258.273 77.9835 260.056 77.9835Z" fill="#747D88"/>
<path d="M240.422 77.9835C242.058 77.9835 243.384 76.6573 243.384 75.0213C243.384 73.3853 242.058 72.0591 240.422 72.0591C238.786 72.0591 237.46 73.3853 237.46 75.0213C237.46 76.6573 238.786 77.9835 240.422 77.9835Z" fill="#747D88"/>
<path d="M258.538 95.073C258.235 95.073 257.969 94.8071 257.969 94.5033C257.969 94.1995 258.235 93.9337 258.538 93.9337C263.437 93.9337 264.805 93.5539 267.691 91.3892C267.957 91.1993 268.299 91.2373 268.488 91.5031C268.678 91.769 268.64 92.1108 268.375 92.3006C265.26 94.6173 263.703 95.073 258.538 95.073Z" fill="#747D88"/>
<path d="M265.754 97.5417C265.298 97.5417 264.918 97.4278 264.615 97.162C263.513 96.3645 263.627 94.5795 263.665 94.3517C263.703 94.0478 263.969 93.82 264.273 93.82C264.577 93.858 264.805 94.1238 264.805 94.4276C264.767 94.7694 264.805 95.8328 265.298 96.2125C265.564 96.4024 266.02 96.4024 266.627 96.1366C266.779 96.0606 266.855 95.9847 266.931 95.8328C267.159 95.1872 266.627 93.782 266.362 93.2123C266.21 92.9465 266.324 92.6047 266.589 92.4528C266.855 92.3009 267.197 92.4148 267.349 92.6807C267.463 92.9085 268.488 94.9213 267.995 96.2125C267.843 96.6683 267.501 97.0101 267.045 97.162C266.589 97.4658 266.134 97.5417 265.754 97.5417Z" fill="#747D88"/>
<path d="M247.145 112.163C247.107 112.163 247.069 112.163 247.031 112.163L230.321 108.669L229.409 101.909H252.461C252.765 101.909 253.031 102.175 253.031 102.479C253.031 102.782 252.765 103.048 252.461 103.048H230.7L231.308 107.681L247.258 111.023C247.562 111.099 247.752 111.403 247.714 111.707C247.638 111.973 247.41 112.163 247.145 112.163Z" fill="#747D88"/>
<path d="M230.852 107.985L228.991 107.454L220.826 106.276L214.294 100.352C214.294 100.352 216.573 96.934 219.231 99.9722C221.624 102.707 222.269 103.77 222.269 103.77L230.928 102.137L230.852 107.985Z" fill="#747D88"/>
<path d="M227.89 103.884C227.89 103.884 225.65 103.96 224.434 102.213C224.017 101.605 223.865 100.884 223.865 100.238C223.865 99.4026 224.89 99.0608 225.346 99.7824L227.89 103.884Z" fill="#747D88"/>
<path d="M219.231 100.694L219.801 97.9976C219.801 97.9976 221.51 98.909 221.51 101.188C221.51 103.428 221.396 103.96 221.396 103.96L219.573 103.58L219.231 100.694Z" fill="#747D88"/>
<path d="M43.1699 101.149C27.7891 101.149 16.2061 88.6549 16.2061 72.0969C16.2061 66.894 17.915 60.8177 20.6494 56.2224L21.6368 56.7921C19.0164 61.1594 17.3454 67.1598 17.3454 72.0589C17.3454 87.9713 28.4347 99.9721 43.1699 99.9721V101.149V101.149Z" fill="#747D88"/>
<path d="M72.6015 68.3752C71.804 63.3623 70.6267 60.2481 68.1582 56.8682L69.0696 56.1846C71.9939 60.2102 73.0573 63.9319 73.7409 68.2233L72.6015 68.3752Z" fill="#747D88"/>
<path d="M69.0696 88.7685L68.1582 88.0849C69.1836 86.6798 69.4114 86.0342 69.9051 84.7809C70.0191 84.4391 70.171 84.0594 70.3609 83.6416L71.4242 84.0594C71.2343 84.4771 71.1204 84.8569 70.9685 85.1987C70.4368 86.5279 70.171 87.2494 69.0696 88.7685Z" fill="#747D88"/>
<path d="M76.9685 69.1347H76.9305L55.7013 67.3498L28.8134 69.1347C28.5096 69.1347 28.2438 68.9068 28.2058 68.603C28.1678 68.2992 28.4336 68.0334 28.7375 67.9954L55.7013 66.2104H55.7392L77.0065 67.9954C77.3103 68.0334 77.5381 68.2992 77.5381 68.603C77.5002 68.9068 77.2343 69.1347 76.9685 69.1347Z" fill="#747D88"/>
<path d="M65.9555 85.9585C63.1832 85.9585 60.9805 85.0091 59.3854 83.1482C56.765 80.072 55.9295 74.4894 57.0309 67.4636C57.0688 67.1598 57.3726 66.9319 57.6765 67.0079C57.9803 67.0459 58.2081 67.3497 58.1322 67.6535C57.0688 74.3375 57.7904 79.5783 60.2209 82.4266C61.5881 84.0217 63.5249 84.8572 65.9175 84.8572C68.5 84.8572 70.7026 83.9077 72.2977 82.0848C74.7282 79.3125 75.6397 74.7172 74.8801 68.7928C74.8422 68.489 75.07 68.1852 75.3738 68.1472C75.6777 68.1092 75.9815 68.3371 76.0195 68.6409C76.817 74.9071 75.8296 79.8062 73.1712 82.8444C71.3483 84.8572 68.8418 85.9585 65.9555 85.9585Z" fill="#747D88"/>
<path d="M42.6375 85.9586C39.5613 85.9586 37.0928 85.0851 35.3079 83.3002C32.5735 80.6038 31.3962 75.8187 31.5861 68.2612C31.5861 67.9574 31.852 67.6915 32.1558 67.6915C32.4596 67.6915 32.7254 67.9574 32.7254 68.2612C32.5356 75.4769 33.6369 79.9962 36.1434 82.4647C37.8144 84.1357 40.093 84.8952 43.1692 84.7813C46.3972 84.6673 49.5113 82.9964 51.4102 80.338C53.0812 78.0213 54.6383 73.9198 52.7014 67.5017C52.6255 67.1978 52.7774 66.894 53.0812 66.7801C53.385 66.7041 53.6888 66.8561 53.8028 67.1599C55.8535 74.0337 54.1446 78.4771 52.3217 80.9836C50.1949 83.9458 46.777 85.8067 43.1692 85.9206C42.9793 85.9586 42.8274 85.9586 42.6375 85.9586Z" fill="#747D88"/>
<path d="M43.1309 101.074C42.8271 101.074 42.5992 100.846 42.5612 100.542C42.5233 100.238 42.7891 99.9723 43.0929 99.9343C43.3588 99.8963 70.3985 97.7696 75.4495 93.706C77.0825 92.4148 77.8041 91.3135 77.5382 90.6679C76.7027 88.6551 67.6262 88.731 61.4359 89.3766C61.1321 89.4146 60.8283 89.1868 60.7903 88.8829C60.7523 88.5791 60.9802 88.2753 61.284 88.2373C63.9044 87.9335 77.1205 86.6803 78.5636 90.2121C79.0573 91.4274 78.2598 92.8326 76.1331 94.5795C70.7783 98.8709 44.2702 100.998 43.1309 101.074C43.1689 101.074 43.1689 101.074 43.1309 101.074Z" fill="#747D88"/>
<path d="M41.0044 64.1598C40.5487 64.1598 40.093 63.894 39.8271 63.4762C39.4853 62.8306 39.7132 62.0331 40.3588 61.6913C40.3968 61.6533 41.2323 61.1976 42.4855 60.7419C44.0046 60.1722 45.6756 60.552 45.8655 60.6279C46.5871 60.8178 47.0048 61.5394 46.8149 62.223C46.625 62.9445 45.9035 63.3623 45.2199 63.2104C44.9161 63.1344 44.0426 63.0205 43.397 63.2484C42.3336 63.6281 41.6121 64.0459 41.6121 64.0459C41.4601 64.1218 41.2323 64.1598 41.0044 64.1598Z" fill="#747D88"/>
<path d="M66.8282 64.7673C66.3725 64.7673 65.9167 64.5014 65.6509 64.0837C65.5369 63.9317 65.1952 63.4001 64.7774 63.1722C64.0179 62.7924 63.4102 62.5646 63.4102 62.5646C62.7266 62.3367 62.3469 61.5772 62.6127 60.8556C62.8406 60.172 63.6001 59.7922 64.3217 60.0201C64.3596 60.0201 65.0812 60.2859 66.0306 60.7796C67.2459 61.3873 67.9295 62.6405 68.0055 62.7924C68.3473 63.438 68.1194 64.2356 67.4738 64.5774C67.2839 64.6913 67.056 64.7673 66.8282 64.7673Z" fill="#747D88"/>
<path d="M14.154 69.5904C11.9514 69.5904 9.90061 68.4131 8.79927 66.4003L6.29276 68.2992C5.41929 68.9827 4.31795 69.1726 3.25459 68.9068C2.19122 68.603 1.35574 67.8814 0.937987 66.856C0.596192 65.9826 0.596192 65.0711 0.937987 64.1976L8.4195 46.1205C10.0525 42.1709 12.3311 38.4491 17.9897 37.7275C18.2935 37.6896 18.5974 37.9174 18.6353 38.2212C18.6733 38.5251 18.4455 38.8289 18.1416 38.8668C13.3565 39.4745 11.1918 42.3607 9.48285 46.5762L2.00134 64.6533C1.77348 65.223 1.77348 65.8686 2.00134 66.4383C2.26718 67.1219 2.83683 67.6156 3.5584 67.8055C4.27996 67.9953 5.00154 67.8434 5.60918 67.3877L9.17904 64.6154L9.63475 65.5648C10.7361 67.8055 13.2806 68.9068 15.6731 68.1473L16.7745 67.8055C17.0783 67.7295 17.3821 67.8814 17.496 68.1852C17.572 68.489 17.4201 68.7929 17.1163 68.9068L16.0149 69.2486C15.4073 69.4765 14.7617 69.5904 14.154 69.5904Z" fill="#747D88"/>
<path d="M64.6642 46.3483C64.5503 46.3483 64.4363 46.3104 64.3224 46.2344L54.5243 38.7529C51.3342 36.3224 42.8653 35.297 38.6878 35.8287C38.384 35.8666 38.0802 35.6388 38.0422 35.335C38.0042 35.0311 38.2321 34.7273 38.5359 34.6893C42.8273 34.1577 51.676 35.1451 55.2079 37.8415L65.006 45.323C65.2719 45.5128 65.3098 45.8546 65.12 46.1205C65.006 46.2724 64.8161 46.3483 64.6642 46.3483Z" fill="#747D88"/>
<path d="M16.5842 44.5633C16.3184 44.5633 16.0525 44.3734 16.0146 44.0696C15.9766 43.7658 16.1665 43.462 16.5083 43.424L43.4721 39.2465C43.7759 39.2085 44.0797 39.3984 44.1177 39.7402C44.1556 40.044 43.9657 40.3478 43.6239 40.3858L16.6602 44.5633C16.6222 44.5633 16.5842 44.5633 16.5842 44.5633Z" fill="#747D88"/>
<path d="M32.1559 117.859C32.118 117.859 32.042 117.859 32.004 117.821C31.7002 117.745 31.5103 117.404 31.6242 117.1L36.5613 100.01C36.6372 99.7063 36.979 99.5164 37.2828 99.6303C37.5867 99.7063 37.7766 100.048 37.6626 100.352L32.7256 117.442C32.6117 117.707 32.3838 117.859 32.1559 117.859Z" fill="#747D88"/>
<path d="M47.841 124.126C47.5371 124.126 47.2333 124.126 46.8915 124.126C40.5493 124.05 34.1692 123.442 34.1312 123.442L33.5615 123.366L34.6249 114.176C34.6629 113.872 34.9287 113.644 35.2705 113.682C35.5743 113.72 35.8022 113.986 35.7642 114.328L34.8148 122.341C36.5238 122.493 41.7266 122.948 46.9295 122.986C58.3227 123.1 59.424 121.277 59.5 120.708C59.9177 117.062 53.4616 104.871 50.9551 100.504C50.8032 100.238 50.8791 99.8963 51.1829 99.7444C51.4488 99.5925 51.7906 99.6685 51.9425 99.9723C52.3223 100.618 61.171 116.113 60.6393 120.898C60.4494 122.265 58.8923 124.126 47.841 124.126Z" fill="#747D88"/>
<path d="M20.9516 122.682C20.9137 122.682 20.8377 122.682 20.7997 122.682C20.4959 122.606 20.306 122.303 20.382 121.999L27.4078 95.5287C27.4837 95.2249 27.7875 95.035 28.0913 95.111C28.3952 95.1869 28.585 95.4908 28.5091 95.7946L21.4833 122.265C21.4074 122.493 21.1795 122.682 20.9516 122.682Z" fill="#747D88"/>
<path d="M77.6902 89.9084L73.5507 88.4272L73.1709 95.529C73.1709 95.529 75.8293 94.7315 76.9686 93.0984C78.1079 91.4654 78.4877 91.4654 78.1079 90.7059C77.7282 89.9463 77.6902 89.9084 77.6902 89.9084Z" fill="#747D88"/>
<path d="M68.4616 57.0958H18.1038C17.8 57.0958 17.5342 56.83 17.5342 56.5261C17.5342 56.2223 17.8 55.9565 18.1038 55.9565H68.4616C70.3225 55.9565 71.8416 54.4374 71.8416 52.5765V49.9941C71.8416 49.0826 71.4618 48.2091 70.8162 47.5635C70.1326 46.9179 69.2591 46.5761 68.3476 46.6141L24.56 48.3611C24.2561 48.3611 23.9903 48.1332 23.9523 47.8294C23.9143 47.5256 24.1802 47.2597 24.484 47.2217L68.2337 45.4748C69.487 45.4368 70.6642 45.8546 71.5377 46.728C72.4492 47.6015 72.9429 48.7408 72.9429 49.9941V52.5765C72.9809 55.083 70.9301 57.0958 68.4616 57.0958Z" fill="#747D88"/>
<path d="M64.8158 54.0577C64.5119 54.0577 64.2461 53.7918 64.2461 53.488V48.1712C64.2461 47.8674 64.5119 47.6016 64.8158 47.6016C65.1196 47.6016 65.3854 47.8674 65.3854 48.1712V53.488C65.3854 53.7918 65.1196 54.0577 64.8158 54.0577Z" fill="#747D88"/>
<path d="M32.9144 55.1968C32.6106 55.1968 32.3447 54.931 32.3447 54.6272V49.3104C32.3447 49.0066 32.6106 48.7407 32.9144 48.7407C33.2182 48.7407 33.484 49.0066 33.484 49.3104V54.6272C33.484 54.931 33.2182 55.1968 32.9144 55.1968Z" fill="#747D88"/>
<path d="M19.6228 43.8041C19.357 43.8041 19.0911 43.6143 19.0532 43.3104L12.7869 5.97887C12.4072 3.5863 14.0402 1.83935 15.7492 1.23172C17.4201 0.624083 19.6228 0.9279 20.8001 2.94069C22.0534 5.10539 23.3826 7.422 24.7497 9.81456C38.1937 33.2465 41.4977 39.1329 41.4977 39.7786C41.4977 40.0824 41.2318 40.3482 40.928 40.3482C40.6242 40.3482 40.3963 40.1204 40.3584 39.8545C39.9406 38.5633 30.5982 22.2711 23.7623 10.3842C22.3951 7.99166 21.066 5.67505 19.8127 3.51035C18.9392 1.95328 17.2682 1.87733 16.1289 2.29508C14.7997 2.75081 13.6224 4.00405 13.9263 5.78898L20.1925 43.1206C20.2305 43.4244 20.0406 43.7282 19.7368 43.7662C19.6608 43.8041 19.6608 43.8041 19.6228 43.8041Z" fill="#747D88"/>
<path d="M22.4326 28.0056C22.2048 28.0056 21.9769 27.8537 21.901 27.5879L17.4956 12.9287C17.4197 12.6248 17.5716 12.321 17.8754 12.2071C18.1792 12.1311 18.483 12.2831 18.597 12.5869L23.0023 27.2461C23.0783 27.5499 22.9264 27.8537 22.6225 27.9676C22.5466 28.0056 22.4706 28.0056 22.4326 28.0056Z" fill="#747D88"/>
<path d="M24.9396 37.9176C24.6738 37.9176 24.4459 37.7657 24.4079 37.4998L22.3951 30.2082C22.3192 29.9044 22.4711 29.6006 22.7749 29.5246C23.0787 29.4487 23.3826 29.6006 23.4585 29.9044L25.4713 37.196C25.5472 37.4998 25.3953 37.8036 25.0915 37.8796C25.0156 37.9176 24.9776 37.9176 24.9396 37.9176Z" fill="#747D88"/>
<path d="M68.2344 46.4624C67.9306 46.4624 67.6648 46.1966 67.6648 45.8928L67.1711 10.8778C67.1331 8.21942 65.9558 6.81427 64.8165 6.62438C63.5633 6.39652 62.348 7.45988 61.6644 9.35874L51.6764 36.5884C51.5624 36.8922 51.2586 37.0441 50.9548 36.9302C50.651 36.8162 50.4991 36.5124 50.613 36.2086L60.601 8.97896C61.7024 6.05472 63.6012 5.2572 65.0064 5.52304C66.6014 5.78888 68.2724 7.57381 68.3104 10.8778L68.8041 45.8928C68.8041 46.1966 68.5383 46.4624 68.2344 46.4624Z" fill="#747D88"/>
<path d="M59.3862 31.0435C59.3482 31.0435 59.3102 31.0435 59.2723 31.0435C58.9684 30.9676 58.7786 30.6638 58.8545 30.3599L62.7662 12.8904C62.8421 12.5866 63.1459 12.3967 63.4497 12.4727C63.7536 12.5486 63.9435 12.8525 63.8675 13.1563L59.9558 30.6258C59.8799 30.8916 59.652 31.0435 59.3862 31.0435Z" fill="#747D88"/>
<path d="M51.9785 42.9681C50.3455 42.9681 48.9024 43.6897 47.877 44.829C46.8896 43.6897 45.4085 42.9681 43.7755 42.9681C40.7373 42.9681 38.3068 45.4367 38.3068 48.4369C38.3068 51.475 40.7753 53.9056 43.7755 53.9056C45.4085 53.9056 46.8516 53.184 47.877 52.0447C48.8644 53.184 50.3455 53.9056 51.9785 53.9056C55.0167 53.9056 57.4473 51.4371 57.4473 48.4369C57.4473 45.3987 54.9787 42.9681 51.9785 42.9681Z" fill="#EA5045"/>
<path d="M51.9792 54.6653C50.4601 54.6653 49.017 54.0956 47.8776 53.1082C46.7383 54.0956 45.2952 54.6653 43.7761 54.6653C40.3202 54.6653 37.5479 51.8549 37.5479 48.437C37.5479 45.0191 40.3582 42.2087 43.7761 42.2087C45.2952 42.2087 46.7383 42.7784 47.8776 43.7658C49.017 42.7784 50.4601 42.2087 51.9792 42.2087C55.4351 42.2087 58.2074 45.0191 58.2074 48.437C58.2074 51.8549 55.3971 54.6653 51.9792 54.6653ZM47.8776 50.9055L48.4473 51.5511C49.3588 52.5765 50.612 53.1462 51.9792 53.1462C54.5616 53.1462 56.6884 51.0194 56.6884 48.437C56.6884 45.8546 54.5616 43.7278 51.9792 43.7278C50.65 43.7278 49.3588 44.2975 48.4473 45.3229L47.8776 45.9685L47.308 45.3229C46.3965 44.2975 45.1433 43.7278 43.7761 43.7278C41.1937 43.7278 39.0669 45.8546 39.0669 48.437C39.0669 51.0194 41.1937 53.1462 43.7761 53.1462C45.1053 53.1462 46.3965 52.5765 47.308 51.5511L47.8776 50.9055Z" fill="white"/>
<path d="M51.9785 53.9056C54.9988 53.9056 57.4473 51.4571 57.4473 48.4369C57.4473 45.4166 54.9988 42.9681 51.9785 42.9681C48.9582 42.9681 46.5098 45.4166 46.5098 48.4369C46.5098 51.4571 48.9582 53.9056 51.9785 53.9056Z" fill="#4E55A2"/>
<path d="M43.7755 53.9056C46.7958 53.9056 49.2442 51.4571 49.2442 48.4369C49.2442 45.4166 46.7958 42.9681 43.7755 42.9681C40.7552 42.9681 38.3068 45.4166 38.3068 48.4369C38.3068 51.4571 40.7552 53.9056 43.7755 53.9056Z" fill="#EA5045"/>
<path d="M16.5845 119.758C16.4326 119.758 16.2807 119.682 16.1668 119.568C16.1288 119.53 13.0906 116.112 9.25491 111.859C-2.59397 98.6809 4.31788 88.0853 4.39383 88.0093L4.69765 87.5916L5.15338 87.8574C5.38124 87.9713 10.6601 91.0095 18.8252 100.96C22.357 105.251 24.2559 110.492 24.3319 110.72C24.4458 111.023 24.2939 111.327 23.9901 111.441C23.6863 111.555 23.3824 111.403 23.2685 111.099C23.2685 111.061 21.3696 105.821 17.9517 101.681C11.2677 93.592 6.52055 90.136 5.07742 89.1486C3.90013 91.2753 0.140403 100.048 10.1284 111.137C13.9641 115.391 17.0023 118.809 17.0402 118.847C17.2681 119.075 17.2301 119.454 17.0023 119.644C16.8504 119.72 16.6985 119.758 16.5845 119.758Z" fill="#747D88"/>
<path d="M7.69905 109.505C7.50917 109.505 7.31928 109.391 7.20535 109.239C7.05344 108.973 7.1294 108.631 7.39524 108.441L11.155 106.125L9.37006 101.074L17.5731 100.466C17.8769 100.428 18.1428 100.694 18.1807 100.998C18.2187 101.302 17.9529 101.567 17.6491 101.605L10.9271 102.099L12.5222 106.618L8.00286 109.429C7.88893 109.467 7.77501 109.505 7.69905 109.505Z" fill="#747D88"/>
<path d="M45.0679 77.9835C46.8507 77.9835 48.296 76.5382 48.296 74.7554C48.296 72.9726 46.8507 71.5273 45.0679 71.5273C43.2851 71.5273 41.8398 72.9726 41.8398 74.7554C41.8398 76.5382 43.2851 77.9835 45.0679 77.9835Z" fill="#747D88"/>
<path d="M64.7025 77.9835C66.3384 77.9835 67.6647 76.6573 67.6647 75.0213C67.6647 73.3853 66.3384 72.0591 64.7025 72.0591C63.0665 72.0591 61.7402 73.3853 61.7402 75.0213C61.7402 76.6573 63.0665 77.9835 64.7025 77.9835Z" fill="#747D88"/>
<path d="M46.5873 95.073C41.4224 95.073 39.8653 94.6173 36.7512 92.3006C36.4853 92.1108 36.4473 91.769 36.6372 91.5031C36.8271 91.2373 37.1689 91.1993 37.4347 91.3892C40.321 93.5539 41.6882 93.9337 46.5873 93.9337C46.8911 93.9337 47.1569 94.1995 47.1569 94.5033C47.1569 94.8071 46.8911 95.073 46.5873 95.073Z" fill="#747D88"/>
<path d="M39.3333 97.5416C38.9535 97.5416 38.5358 97.4656 38.0801 97.2757C37.6244 97.0859 37.3205 96.782 37.1306 96.3263C36.6369 94.9971 37.6623 93.0223 37.7763 92.7944C37.9282 92.5286 38.27 92.4147 38.5358 92.5666C38.8016 92.7185 38.9156 93.0603 38.7637 93.3261C38.4219 94.0097 37.9282 95.3009 38.194 95.9465C38.232 96.0985 38.3459 96.1744 38.4978 96.2504C39.1055 96.4782 39.5232 96.5162 39.827 96.3263C40.3207 95.9465 40.3587 94.8832 40.3207 94.5414C40.2828 94.2376 40.5106 93.9717 40.8524 93.9338C41.1562 93.8958 41.4221 94.1236 41.4601 94.4654C41.4601 94.6553 41.574 96.4402 40.5106 97.2757C40.1688 97.4277 39.789 97.5416 39.3333 97.5416Z" fill="#747D88"/>
<path d="M57.9802 112.163C57.7144 112.163 57.4865 111.973 57.4106 111.707C57.3346 111.403 57.5624 111.099 57.8663 111.023L73.8167 107.681L74.4243 103.048H52.6634C52.3596 103.048 52.0938 102.782 52.0938 102.479C52.0938 102.175 52.3596 101.909 52.6634 101.909H75.7155L74.8041 108.669L58.0941 112.163C58.0562 112.163 58.0182 112.163 57.9802 112.163Z" fill="#747D88"/>
<path d="M74.539 102.669L74.3491 103.048L79.476 96.5922L87.9069 93.9338C87.9069 93.9338 89.6918 97.6176 85.7422 98.3772C82.1724 99.0608 80.9191 99.0608 80.9191 99.0608L74.1592 109.125L74.539 102.669Z" fill="#747D88"/>
<path d="M77.9954 103.922C77.9954 103.922 79.0587 101.947 81.1855 101.795C81.945 101.757 82.6286 101.985 83.1982 102.327C83.9198 102.744 83.692 103.808 82.8565 103.846L77.9954 103.922Z" fill="#747D88"/>
<path d="M85.1352 98.0734L87.148 99.9343C87.148 99.9343 85.477 100.922 83.5401 99.7824C81.6033 98.6431 81.1855 98.2633 81.1855 98.2633L82.4388 96.8961L85.1352 98.0734Z" fill="#747D88"/>
<path d="M152.581 130.012C162.125 130.012 169.861 128.822 169.861 127.354C169.861 125.886 162.125 124.695 152.581 124.695C143.038 124.695 135.302 125.886 135.302 127.354C135.302 128.822 143.038 130.012 152.581 130.012Z" fill="#747D88"/>
<path d="M161.355 73.7297H176.926V67.4635H155.089V83.9456H161.355V73.7297Z" fill="#008BFF"/>
<path d="M177.533 83.9456V90.2118H186.534V96.44C186.534 97.3895 185.243 98.4528 183.382 98.4528H171.229V104.719H183.382C188.585 104.719 192.8 100.997 192.8 96.44V83.9456H177.533Z" fill="#008BFF"/>
<path d="M135.53 36.8918H123.757V48.6648H135.53V36.8918Z" fill="#008BFF"/>
<path d="M111.225 30.6257V61.1974H137.087V54.9311H117.491V30.6257H142.556V49.4244H148.822V24.3595H117.491C114.035 24.3595 111.225 27.1698 111.225 30.6257Z" fill="#008BFF"/>
<path d="M135.53 79.9957H123.757V91.7687H135.53V79.9957Z" fill="#008BFF"/>
<path d="M179.394 36.8918H167.621V48.6648H179.394V36.8918Z" fill="#008BFF"/>
<path d="M173.887 54.9308H167.621V61.197H173.887V54.9308Z" fill="#008BFF"/>
<path d="M161.355 54.931V49.4623V30.6636H186.42V49.4623V54.931V61.1972H192.687V30.6256C192.687 27.1697 189.876 24.3594 186.42 24.3594H155.089V61.1972H161.355V54.931Z" fill="#008BFF"/>
<path d="M185.66 73.7295H180.191V79.1982H185.66V73.7295Z" fill="#008BFF"/>
<path d="M191.129 68.2611H185.66V73.7298H191.129V68.2611Z" fill="#008BFF"/>
<path d="M164.963 83.9456V92.1866H155.089V98.7946V104.719H161.355V98.4528H171.229V83.9456H164.963Z" fill="#008BFF"/>
<path d="M148.823 54.9308H142.557V61.197H148.823V54.9308Z" fill="#008BFF"/>
<path d="M111.225 98.4148C111.225 101.871 114.035 104.681 117.491 104.681H148.442V98.4907L117.491 98.4528V73.3878H142.176V91.8067H148.442V67.1216H111.225V98.4148Z" fill="#008BFF"/>
<path d="M102.206 10.1364C102.209 10.6684 101.793 11.0884 101.262 11.0911L88.9955 11.1513C88.4638 11.154 88.0439 10.738 88.0412 10.206C88.0385 9.67401 88.4541 9.25396 88.9858 9.25135L101.252 9.19107C101.746 9.18864 102.204 9.6044 102.206 10.1364Z" fill="#747D88"/>
<path d="M114.207 10.1366C114.209 10.6682 113.794 11.088 113.262 11.0906L105.995 11.1513C105.464 11.154 105.044 10.7383 105.041 10.2066C105.039 9.67491 105.454 9.25511 105.986 9.2525L113.252 9.1918C113.746 9.18937 114.204 9.60488 114.207 10.1366Z" fill="#747D88"/>
<path d="M122.822 15.0222C123.172 15.1679 123.398 15.5109 123.39 15.9222C123.373 16.454 122.956 16.8608 122.413 16.8832L101.535 16.8749C101.006 16.862 100.605 16.4462 100.588 15.8998C100.605 15.368 101.022 14.9612 101.565 14.9388L122.443 14.9471C122.598 14.9701 122.717 14.9785 122.822 15.0222Z" fill="#747D88"/>
</svg>
