<svg width="153" height="212" viewBox="0 0 153 212" fill="none" xmlns="http://www.w3.org/2000/svg">
<path d="M78.955 151.149C63.5743 151.149 51.9912 138.655 51.9912 122.097C51.9912 116.894 53.7002 110.818 56.4345 106.222L57.4219 106.792C54.8015 111.159 53.1305 117.16 53.1305 122.059C53.1305 137.971 64.2199 149.972 78.955 149.972V151.149V151.149Z" fill="#747D88"/>
<path d="M108.387 118.375C107.589 113.362 106.412 110.248 103.943 106.868L104.855 106.185C107.779 110.21 108.842 113.932 109.526 118.223L108.387 118.375Z" fill="#747D88"/>
<path d="M104.855 138.769L103.943 138.085C104.969 136.68 105.197 136.034 105.69 134.781C105.804 134.439 105.956 134.059 106.146 133.642L107.209 134.059C107.02 134.477 106.906 134.857 106.754 135.199C106.222 136.528 105.956 137.249 104.855 138.769Z" fill="#747D88"/>
<path d="M112.755 119.135H112.717L91.4874 117.35L64.5995 119.135C64.2957 119.135 64.0299 118.907 63.9919 118.603C63.9539 118.299 64.2198 118.033 64.5236 117.995L91.4874 116.21H91.5254L112.793 117.995C113.096 118.033 113.324 118.299 113.324 118.603C113.286 118.907 113.02 119.135 112.755 119.135Z" fill="#747D88"/>
<path d="M101.741 135.958C98.9683 135.958 96.7656 135.009 95.1706 133.148C92.5502 130.072 91.7147 124.489 92.816 117.464C92.854 117.16 93.1578 116.932 93.4616 117.008C93.7654 117.046 93.9933 117.35 93.9174 117.653C92.854 124.337 93.5756 129.578 96.0061 132.427C97.3733 134.022 99.3101 134.857 101.703 134.857C104.285 134.857 106.488 133.908 108.083 132.085C110.513 129.312 111.425 124.717 110.665 118.793C110.627 118.489 110.855 118.185 111.159 118.147C111.463 118.109 111.767 118.337 111.805 118.641C112.602 124.907 111.615 129.806 108.956 132.844C107.133 134.857 104.627 135.958 101.741 135.958Z" fill="#747D88"/>
<path d="M78.4226 135.959C75.3465 135.959 72.878 135.085 71.093 133.3C68.3587 130.604 67.1814 125.819 67.3713 118.261C67.3713 117.957 67.6371 117.692 67.9409 117.692C68.2448 117.692 68.5106 117.957 68.5106 118.261C68.3207 125.477 69.422 129.996 71.9285 132.465C73.5995 134.136 75.8782 134.895 78.9543 134.781C82.1824 134.667 85.2965 132.996 87.1954 130.338C88.8664 128.021 90.4234 123.92 88.4866 117.502C88.4106 117.198 88.5626 116.894 88.8664 116.78C89.1702 116.704 89.474 116.856 89.5879 117.16C91.6387 124.034 89.9297 128.477 88.1068 130.984C85.9801 133.946 82.5622 135.807 78.9543 135.921C78.7644 135.959 78.6125 135.959 78.4226 135.959Z" fill="#747D88"/>
<path d="M78.9161 151.074C78.6122 151.074 78.3844 150.846 78.3464 150.542C78.3084 150.238 78.5743 149.972 78.8781 149.934C79.1439 149.896 106.184 147.77 111.235 143.706C112.868 142.415 113.589 141.313 113.323 140.668C112.488 138.655 103.411 138.731 97.2211 139.377C96.9172 139.415 96.6134 139.187 96.5754 138.883C96.5375 138.579 96.7653 138.275 97.0692 138.237C99.6896 137.934 112.906 136.68 114.349 140.212C114.842 141.427 114.045 142.833 111.918 144.58C106.563 148.871 80.0554 150.998 78.9161 151.074C78.954 151.074 78.954 151.074 78.9161 151.074Z" fill="#747D88"/>
<path d="M76.7896 114.16C76.3338 114.16 75.8781 113.894 75.6123 113.476C75.2705 112.831 75.4983 112.033 76.144 111.691C76.1819 111.653 77.0174 111.198 78.2707 110.742C79.7898 110.172 81.4608 110.552 81.6506 110.628C82.3722 110.818 82.79 111.539 82.6001 112.223C82.4102 112.945 81.6886 113.362 81.005 113.21C80.7012 113.134 79.8277 113.02 79.1821 113.248C78.1188 113.628 77.3972 114.046 77.3972 114.046C77.2453 114.122 77.0174 114.16 76.7896 114.16Z" fill="#747D88"/>
<path d="M102.615 114.767C102.16 114.767 101.704 114.501 101.438 114.084C101.324 113.932 100.982 113.4 100.565 113.172C99.805 112.792 99.1973 112.565 99.1973 112.565C98.5137 112.337 98.134 111.577 98.3998 110.856C98.6656 110.134 99.3872 109.792 100.109 110.02C100.147 110.02 100.868 110.286 101.818 110.78C103.033 111.387 103.717 112.641 103.793 112.792C104.134 113.438 103.906 114.236 103.261 114.577C103.071 114.691 102.843 114.767 102.615 114.767Z" fill="#747D88"/>
<path d="M49.9402 119.59C47.7375 119.59 45.6867 118.413 44.5854 116.4L42.0789 118.299C41.2054 118.983 40.1041 119.173 39.0407 118.907C37.9774 118.603 37.1419 117.881 36.7241 116.856C36.3823 115.983 36.3823 115.071 36.7241 114.198L44.2056 96.1205C45.8386 92.1709 48.1173 88.4491 53.7759 87.7275C54.0797 87.6896 54.3835 87.9174 54.4215 88.2212C54.4595 88.5251 54.2316 88.8289 53.9278 88.8668C49.1427 89.4745 46.978 92.3607 45.269 96.5762L37.7875 114.653C37.5596 115.223 37.5596 115.869 37.7875 116.438C38.0533 117.122 38.623 117.616 39.3445 117.805C40.0661 117.995 40.7877 117.843 41.3953 117.388L44.9652 114.615L45.4209 115.565C46.5222 117.805 49.0667 118.907 51.4593 118.147L52.5606 117.805C52.8644 117.73 53.1682 117.881 53.2822 118.185C53.3581 118.489 53.2062 118.793 52.9024 118.907L51.8011 119.249C51.1934 119.476 50.5478 119.59 49.9402 119.59Z" fill="#747D88"/>
<path d="M100.449 96.3483C100.335 96.3483 100.222 96.3104 100.108 96.2344L90.3095 88.7529C87.1194 86.3224 78.6505 85.297 74.473 85.8287C74.1692 85.8666 73.8654 85.6388 73.8274 85.335C73.7894 85.0311 74.0173 84.7273 74.3211 84.6893C78.6125 84.1577 87.4612 85.1451 90.9931 87.8415L100.791 95.323C101.057 95.5128 101.095 95.8546 100.905 96.1205C100.791 96.2724 100.601 96.3483 100.449 96.3483Z" fill="#747D88"/>
<path d="M52.3703 94.5633C52.1045 94.5633 51.8387 94.3734 51.8007 94.0696C51.7627 93.7658 51.9526 93.462 52.2944 93.424L79.2582 89.2465C79.562 89.2085 79.8658 89.3984 79.9038 89.7402C79.9418 90.044 79.7519 90.3478 79.4101 90.3858L52.4463 94.5633C52.4083 94.5633 52.3703 94.5633 52.3703 94.5633Z" fill="#747D88"/>
<path d="M67.9421 167.859C67.9041 167.859 67.8281 167.859 67.7901 167.821C67.4863 167.745 67.2964 167.404 67.4104 167.1L72.3474 150.01C72.4234 149.706 72.7652 149.516 73.069 149.63C73.3728 149.706 73.5627 150.048 73.4487 150.352L68.5117 167.442C68.3978 167.707 68.1699 167.859 67.9421 167.859Z" fill="#747D88"/>
<path d="M83.6251 174.126C83.3213 174.126 83.0175 174.126 82.6757 174.126C76.3335 174.05 69.9533 173.442 69.9154 173.442L69.3457 173.366L70.4091 164.176C70.447 163.872 70.7129 163.644 71.0547 163.682C71.3585 163.72 71.5864 163.986 71.5484 164.328L70.5989 172.341C72.3079 172.493 77.5108 172.948 82.7137 172.986C94.1068 173.1 95.2082 171.277 95.2841 170.708C95.7019 167.062 89.2457 154.871 86.7392 150.504C86.5873 150.238 86.6633 149.896 86.9671 149.744C87.233 149.593 87.5747 149.668 87.7267 149.972C88.1064 150.618 96.9551 166.113 96.4234 170.898C96.2335 172.265 94.6765 174.126 83.6251 174.126Z" fill="#747D88"/>
<path d="M56.7379 172.682C56.7 172.682 56.624 172.682 56.586 172.644C56.2822 172.568 56.0923 172.227 56.2063 171.923L59.4723 160.264C59.5483 159.96 59.8901 159.77 60.1939 159.884C60.4977 159.96 60.6876 160.302 60.5736 160.606L57.3076 172.265C57.1937 172.492 56.9658 172.682 56.7379 172.682Z" fill="#747D88"/>
<path d="M113.476 139.908L109.337 138.427L108.957 145.529C108.957 145.529 111.615 144.731 112.755 143.098C113.894 141.465 114.274 141.465 113.894 140.706C113.514 139.946 113.476 139.908 113.476 139.908Z" fill="#747D88"/>
<path d="M104.248 107.096H53.89C53.5862 107.096 53.3203 106.83 53.3203 106.526C53.3203 106.222 53.5862 105.956 53.89 105.956H104.248C106.109 105.956 107.628 104.437 107.628 102.577V99.9941C107.628 99.0826 107.248 98.2091 106.602 97.5635C105.919 96.9179 105.045 96.5761 104.134 96.6141L60.3461 98.3611C60.0423 98.3611 59.7764 98.1332 59.7385 97.8294C59.7385 97.5256 59.9663 97.2597 60.2701 97.2217L104.02 95.4748C105.273 95.4368 106.45 95.8546 107.324 96.728C108.235 97.6015 108.729 98.7408 108.729 99.9941V102.577C108.767 105.083 106.716 107.096 104.248 107.096Z" fill="#747D88"/>
<path d="M100.602 104.058C100.298 104.058 100.032 103.792 100.032 103.488V98.1712C100.032 97.8674 100.298 97.6016 100.602 97.6016C100.906 97.6016 101.172 97.8674 101.172 98.1712V103.488C101.172 103.792 100.906 104.058 100.602 104.058Z" fill="#747D88"/>
<path d="M68.7005 105.197C68.3967 105.197 68.1309 104.931 68.1309 104.627V99.3104C68.1309 99.0066 68.3967 98.7407 68.7005 98.7407C69.0043 98.7407 69.2702 99.0066 69.2702 99.3104V104.627C69.2702 104.931 69.0043 105.197 68.7005 105.197Z" fill="#747D88"/>
<path d="M55.408 93.8041C55.1421 93.8041 54.8763 93.6143 54.8383 93.3104L48.5721 55.9789C48.1923 53.5863 49.8253 51.8394 51.5343 51.2317C53.2053 50.6241 55.408 50.9279 56.5853 52.9407C57.8385 55.1054 59.1677 57.422 60.5349 59.8146C73.9788 83.2465 77.2828 89.1329 77.2828 89.7786C77.2828 90.0824 77.017 90.3482 76.7132 90.3482C76.4094 90.3482 76.1815 90.1204 76.1435 89.8545C75.7258 88.5633 66.3834 72.2711 59.5475 60.3842C58.1803 57.9917 56.8511 55.675 55.5979 53.5103C54.7244 51.9533 53.0534 51.8773 51.9141 52.2951C50.5849 52.7508 49.4076 54.0041 49.7114 55.789L55.9776 93.1206C56.0156 93.4244 55.8257 93.7282 55.5219 93.7662C55.446 93.8041 55.446 93.8041 55.408 93.8041Z" fill="#747D88"/>
<path d="M58.2176 78.0056C57.9898 78.0056 57.7619 77.8537 57.6859 77.5879L53.2806 62.9287C53.2046 62.6248 53.3565 62.321 53.6604 62.2071C53.9642 62.1311 54.268 62.2831 54.3819 62.5869L58.7873 77.2461C58.8632 77.5499 58.7113 77.8537 58.4075 77.9676C58.3316 78.0056 58.2556 78.0056 58.2176 78.0056Z" fill="#747D88"/>
<path d="M60.7236 87.9176C60.4578 87.9176 60.2299 87.7657 60.1919 87.4998L58.1791 80.2082C58.1032 79.9044 58.2551 79.6006 58.5589 79.5246C58.8627 79.4487 59.1666 79.6006 59.2425 79.9044L61.2553 87.196C61.3313 87.4998 61.1793 87.8036 60.8755 87.8796C60.7996 87.9176 60.7616 87.9176 60.7236 87.9176Z" fill="#747D88"/>
<path d="M104.02 96.4624C103.716 96.4624 103.45 96.1966 103.45 95.8928L102.956 60.8778C102.918 58.2194 101.741 56.8143 100.602 56.6244C99.3484 56.3965 98.1331 57.4599 97.4495 59.3587L87.4615 86.5884C87.3476 86.8922 87.0438 87.0441 86.74 86.9302C86.4362 86.8162 86.2842 86.5124 86.3982 86.2086L96.3862 58.979C97.4875 56.0547 99.3864 55.2572 100.792 55.523C102.387 55.7889 104.058 57.5738 104.096 60.8778L104.589 95.8928C104.589 96.1966 104.323 96.4624 104.02 96.4624Z" fill="#747D88"/>
<path d="M95.1711 81.0435C95.1331 81.0435 95.0952 81.0435 95.0572 81.0435C94.7534 80.9676 94.5635 80.6638 94.6394 80.3599L98.5511 62.8904C98.627 62.5866 98.9308 62.3967 99.2347 62.4727C99.5385 62.5486 99.7284 62.8525 99.6524 63.1563L95.7408 80.6258C95.6648 80.8916 95.437 81.0435 95.1711 81.0435Z" fill="#747D88"/>
<path d="M87.7654 92.9681C86.1324 92.9681 84.6893 93.6897 83.6639 94.829C82.6765 93.6897 81.1954 92.9681 79.5623 92.9681C76.5242 92.9681 74.0936 95.4367 74.0936 98.4369C74.0936 101.475 76.5621 103.906 79.5623 103.906C81.1954 103.906 82.6385 103.184 83.6639 102.045C84.6513 103.184 86.1324 103.906 87.7654 103.906C90.8036 103.906 93.2341 101.437 93.2341 98.4369C93.2341 95.3987 90.7656 92.9681 87.7654 92.9681Z" fill="#EA5045"/>
<path d="M87.7653 104.665C86.2462 104.665 84.8031 104.096 83.6638 103.108C82.5245 104.096 81.0813 104.665 79.5622 104.665C76.1063 104.665 73.334 101.855 73.334 98.437C73.334 95.0191 76.1443 92.2087 79.5622 92.2087C81.0813 92.2087 82.5245 92.7784 83.6638 93.7658C84.8031 92.7784 86.2462 92.2087 87.7653 92.2087C91.2212 92.2087 93.9936 95.0191 93.9936 98.437C93.9936 101.855 91.1833 104.665 87.7653 104.665ZM83.6638 100.906L84.2334 101.551C85.1449 102.577 86.3981 103.146 87.7653 103.146C90.3478 103.146 92.4745 101.019 92.4745 98.437C92.4745 95.8546 90.3478 93.7278 87.7653 93.7278C86.4361 93.7278 85.1449 94.2975 84.2334 95.3229L83.6638 95.9685L83.0941 95.3229C82.1827 94.2975 80.9294 93.7278 79.5622 93.7278C76.9798 93.7278 74.8531 95.8546 74.8531 98.437C74.8531 101.019 76.9798 103.146 79.5622 103.146C80.8914 103.146 82.1827 102.577 83.0941 101.551L83.6638 100.906Z" fill="white"/>
<path d="M87.7652 103.906C90.7855 103.906 93.2339 101.457 93.2339 98.4369C93.2339 95.4166 90.7855 92.9681 87.7652 92.9681C84.7449 92.9681 82.2965 95.4166 82.2965 98.4369C82.2965 101.457 84.7449 103.906 87.7652 103.906Z" fill="#4E55A2"/>
<path d="M79.5623 103.906C82.5826 103.906 85.0311 101.457 85.0311 98.4369C85.0311 95.4166 82.5826 92.9681 79.5623 92.9681C76.5421 92.9681 74.0936 95.4166 74.0936 98.4369C74.0936 101.457 76.5421 103.906 79.5623 103.906Z" fill="#EA5045"/>
<path d="M52.9401 185.063C52.8642 185.063 52.7882 185.063 52.7503 185.025C52.7123 185.025 48.4209 183.392 43.0661 181.417C26.4321 175.265 27.6473 162.656 27.6853 162.542L27.7613 162.011H28.293C28.5588 162.011 34.6351 162.239 46.484 167.214C51.6109 169.378 55.7125 173.138 55.9024 173.29C56.1302 173.518 56.1302 173.86 55.9403 174.087C55.7125 174.315 55.3707 174.315 55.1428 174.125C55.1048 174.087 51.0033 170.328 46.0663 168.277C36.4201 164.213 30.5716 163.378 28.8246 163.188C28.7867 165.619 29.5462 175.151 43.5218 180.316C48.8766 182.291 53.168 183.924 53.244 183.924C53.5478 184.038 53.6997 184.379 53.5858 184.645C53.3959 184.911 53.168 185.063 52.9401 185.063Z" fill="#747D88"/>
<path d="M40.2935 180.126C40.1796 180.126 40.1036 180.088 39.9897 180.05C39.7238 179.898 39.6479 179.556 39.7998 179.253L42.0404 175.455L38.0908 171.809L45.0786 167.442C45.3445 167.29 45.6863 167.366 45.8761 167.632C46.0281 167.897 45.9521 168.239 45.6863 168.429L39.9517 171.999L43.4836 175.265L40.7872 179.86C40.6733 180.012 40.4834 180.126 40.2935 180.126Z" fill="#747D88"/>
<path d="M108.919 165.847L92.5888 160.834C92.2849 160.758 92.133 160.416 92.209 160.112C92.2849 159.808 92.6267 159.656 92.9306 159.732L108.501 164.517L111.274 160.758L92.209 150.276C91.9432 150.124 91.8292 149.782 91.9811 149.516C92.133 149.251 92.4748 149.137 92.7407 149.288L112.945 160.416L108.919 165.847Z" fill="#747D88"/>
<path d="M118.223 164.101L117.805 164.139L125.742 161.936L131.477 155.214C131.477 155.214 128.781 152.1 126.54 155.48C124.527 158.48 124.033 159.619 124.033 159.619L112.185 161.936L118.223 164.101Z" fill="#747D88"/>
<path d="M118.45 160.416C118.45 160.416 120.69 160.188 121.64 158.327C121.982 157.644 122.02 156.922 121.944 156.277C121.83 155.441 120.766 155.251 120.425 156.011L118.45 160.416Z" fill="#747D88"/>
<path d="M126.615 156.124L125.703 153.542C125.703 153.542 124.146 154.681 124.45 156.922C124.754 159.163 124.944 159.656 124.944 159.656L126.691 159.049L126.615 156.124Z" fill="#747D88"/>
<path d="M49.7121 163.568L45.6865 158.099L65.8904 146.972C66.1562 146.82 66.498 146.934 66.6499 147.2C66.8018 147.466 66.6879 147.807 66.4221 147.959L47.3575 158.441L50.1299 162.201L65.7005 157.416C66.0043 157.34 66.3081 157.492 66.4221 157.795C66.498 158.099 66.3461 158.403 66.0423 158.517L49.7121 163.568Z" fill="#747D88"/>
<path d="M40.4074 161.821L40.8251 161.859L32.8879 159.656L27.1533 152.935C27.1533 152.935 29.8497 149.82 32.0904 153.2C34.1031 156.201 34.5968 157.34 34.5968 157.34L46.4457 159.656L40.4074 161.821Z" fill="#747D88"/>
<path d="M38.8125 159.429C38.8125 159.429 36.9516 158.176 37.0276 156.049C37.0656 155.289 37.3694 154.644 37.7492 154.112C38.2429 153.428 39.2682 153.808 39.1923 154.606L38.8125 159.429Z" fill="#747D88"/>
<path d="M32.053 153.846L32.9645 151.264C32.9645 151.264 34.5215 152.403 34.2177 154.644C33.9139 156.884 33.724 157.378 33.724 157.378L31.9771 156.77L32.053 153.846Z" fill="#747D88"/>
<path d="M144.656 82.4105C144.238 82.1446 143.934 82.0687 143.555 81.9927C143.213 81.9168 142.833 81.8408 142.833 81.8408L142.301 84.0055C142.301 84.0055 142.833 84.1574 143.251 84.2334C143.668 84.3093 144.124 84.3093 144.466 84.2334C144.808 84.1195 145.074 83.8916 145.15 83.4738C145.301 83.0561 145.112 82.6383 144.656 82.4105Z" fill="#747D87"/>
<path d="M144.541 86.0185C144.351 85.8666 143.933 85.6007 143.364 85.4488C142.832 85.2969 142.072 85.145 142.072 85.145L141.503 87.5756C141.503 87.5756 142.262 87.7654 142.756 87.8414C143.25 87.9174 143.819 87.9174 144.123 87.8414C144.427 87.7654 144.769 87.6135 144.921 87.0439C145.035 86.4742 144.693 86.1704 144.541 86.0185Z" fill="#747D87"/>
<path d="M142.605 74.967C137.174 74.967 132.73 79.3724 132.73 84.8411C132.73 90.2718 137.136 94.7152 142.605 94.7152C148.035 94.7152 152.479 90.3098 152.479 84.8411C152.479 79.3724 148.073 74.967 142.605 74.967ZM147.276 83.9297C147.2 84.1575 147.01 84.5373 146.744 84.7652C146.478 84.993 145.947 85.1449 145.947 85.1449C145.947 85.1449 146.478 85.3728 146.782 85.7905C147.086 86.1703 147.276 86.74 147.048 87.4995C146.858 88.2591 146.516 88.9426 145.719 89.2465C144.921 89.5503 144.162 89.4743 143.858 89.4364C143.706 89.4364 143.402 89.3604 143.136 89.3224L142.68 91.1453L141.541 90.8795L141.959 89.0946C141.731 89.0566 141.427 88.9806 141.085 88.9047L140.668 90.6896L139.528 90.4238L139.946 88.6388C138.845 88.373 137.743 88.1071 137.743 88.1071L138.313 86.8159C138.313 86.8159 138.769 86.9299 138.997 86.9678C139.225 87.0058 139.339 87.0058 139.452 86.9678C139.566 86.8919 139.604 86.7779 139.642 86.664C139.68 86.5501 140.668 82.2966 140.744 81.9928C140.82 81.689 140.82 81.613 140.706 81.4232C140.592 81.2333 140.288 81.1573 140.136 81.1193C139.946 81.0814 139.49 80.9674 139.49 80.9674L139.756 79.7901C139.756 79.7901 140.82 80.056 141.959 80.3218L142.377 78.4989L143.516 78.7648L143.098 80.5877C143.402 80.6636 143.706 80.7396 143.972 80.7776L144.389 78.9546L145.529 79.2205L145.111 81.0434C145.947 81.3092 146.516 81.6131 146.972 82.1447C147.618 82.8283 147.352 83.7398 147.276 83.9297Z" fill="#747D87"/>
<path d="M6.41962 97.4502L0.836975 107.02L6.41962 104.78V97.4502Z" fill="#747D87"/>
<path d="M6.41959 105.995L0.0394287 108.578L6.41959 112.337V105.995Z" fill="#747D87"/>
<path d="M7.55811 104.78L13.3306 107.324L7.55811 97.4502V104.78Z" fill="#747D87"/>
<path d="M7.55811 106.033V112.337L13.7104 108.729L7.55811 106.033Z" fill="#747D87"/>
<path d="M7.55786 119.059L13.976 109.983L7.55786 113.743V119.059Z" fill="#747D87"/>
<path d="M6.41814 113.742L0 109.983L6.41814 119.059V113.742Z" fill="#747D87"/>
<path d="M37.4459 55.0295L33.6482 48.4595C33.2685 47.8139 32.5849 47.4341 31.8633 47.4341H24.2679C23.5083 47.4341 22.8247 47.8139 22.4829 48.4595L18.6852 55.0295C18.3054 55.6751 18.3054 56.4726 18.6852 57.1183L22.4829 63.6883C22.8627 64.3339 23.5463 64.7137 24.2679 64.7137H31.8633C32.6228 64.7137 33.3064 64.3339 33.6482 63.6883L37.4459 57.1183C37.7877 56.4726 37.7877 55.6751 37.4459 55.0295ZM31.1038 59.5108C30.762 60.1944 30.1923 60.6501 29.5087 60.916C29.3568 60.954 29.2049 61.0299 29.053 61.0679C28.977 61.0679 28.977 61.1059 28.977 61.1818C28.977 61.6376 28.977 62.1313 28.977 62.587C28.977 62.625 28.977 62.6629 28.977 62.7009C28.4833 62.7009 27.9517 62.7009 27.4579 62.7009C27.4579 62.1692 27.4579 61.6755 27.4579 61.1438C26.4326 60.9919 25.4831 60.6501 24.6856 59.9665C25.0274 59.4349 25.3692 58.9412 25.673 58.4475C25.711 58.4854 25.749 58.5234 25.787 58.5234C26.2047 58.8272 26.6604 59.0931 27.1921 59.245C27.6099 59.3589 27.9896 59.3969 28.4074 59.283C28.9011 59.169 29.1669 58.8652 29.1669 58.3715C29.2049 57.9158 28.977 57.6499 28.6352 57.4221C28.3314 57.2322 27.9896 57.0423 27.6858 56.8524C27.1921 56.5866 26.6604 56.3587 26.2047 56.0169C25.749 55.6751 25.3692 55.2954 25.1793 54.7257C24.9515 54.0041 25.0274 53.2826 25.3312 52.599C25.711 51.7635 26.4326 51.3078 27.306 51.0799C27.42 51.0419 27.42 51.0039 27.42 50.928C27.42 50.4343 27.42 49.9786 27.42 49.4849C27.9137 49.4849 28.4074 49.4849 28.9391 49.4849C28.9391 50.0165 28.9391 50.5102 28.9391 51.0419C29.8885 51.1558 30.648 51.6495 31.2557 52.3331C30.8759 52.7509 30.4961 53.2066 30.1164 53.6244C30.0024 53.5104 29.8505 53.3965 29.7366 53.3205C29.2049 52.9408 28.6352 52.7889 27.9896 52.9028C27.6478 52.9788 27.382 53.1686 27.306 53.5104C27.1921 53.8902 27.2681 54.194 27.5719 54.4599C27.8377 54.6877 28.1415 54.8396 28.4454 54.9915C28.9391 55.2194 29.3948 55.4852 29.8885 55.7131C30.2303 55.903 30.5341 56.1688 30.7999 56.4347C31.1797 56.8524 31.3696 57.3461 31.4076 57.8778C31.4456 58.4475 31.3316 59.0171 31.1038 59.5108Z" fill="#747D87"/>
<path d="M74.2454 127.034C73.9416 127.034 73.6758 126.768 73.6758 126.464C73.6758 125.021 74.6632 122.249 78.1951 121.907C82.7523 121.489 84.0815 124.907 84.0815 124.945C84.1955 125.249 84.0436 125.553 83.7397 125.667C83.4359 125.781 83.1321 125.629 83.0182 125.325C82.9802 125.211 81.9548 122.704 78.271 123.046C74.8911 123.35 74.8151 126.35 74.8151 126.464C74.8151 126.768 74.5493 127.034 74.2454 127.034Z" fill="#747D88"/>
<path d="M105.843 126.844C105.539 126.844 105.311 126.616 105.273 126.35C105.273 126.236 104.931 123.616 101.703 123.236C98.7409 122.894 98.0193 125.819 97.9814 125.932C97.9054 126.236 97.6016 126.426 97.2978 126.35C96.994 126.274 96.8041 125.97 96.88 125.667C97.1838 124.261 98.627 121.717 101.817 122.097C105.121 122.477 106.26 124.945 106.374 126.198C106.412 126.502 106.184 126.806 105.881 126.844C105.881 126.844 105.881 126.844 105.843 126.844Z" fill="#747D88"/>
<path d="M90.007 183.81C89.7792 183.81 89.5893 183.696 89.5133 183.506L87.4246 179.328L66.1953 183.81C65.8915 183.886 65.5877 183.696 65.5117 183.354C65.4358 183.012 65.6257 182.746 65.9675 182.67L88.0322 178.037L90.5007 182.974C90.6526 183.24 90.5387 183.582 90.2349 183.734C90.1969 183.772 90.083 183.81 90.007 183.81Z" fill="#747D88"/>
<path d="M88.4866 192.924C88.4106 192.924 88.2967 192.886 88.2207 192.848C87.6891 192.583 81.7266 191.102 78.0808 190.228L77.6631 190.114V184.987L94.525 183.43C94.8288 183.392 95.1326 183.62 95.1326 183.962C95.1706 184.266 94.9427 184.569 94.6009 184.569L78.8024 186.051V189.279C81.081 189.81 88.0309 191.519 88.7524 191.861C89.0183 192.013 89.1322 192.355 89.0183 192.621C88.9043 192.811 88.6765 192.924 88.4866 192.924Z" fill="#747D88"/>
<path d="M92.247 193.912C90.9178 193.912 89.9684 193.684 89.8544 193.684C89.5506 193.608 89.3607 193.304 89.4367 193C89.5126 192.697 89.8164 192.507 90.1203 192.583C90.1582 192.583 94.0699 193.494 96.6523 191.481C98.1714 190.304 98.931 188.291 98.931 185.557C98.931 183.81 96.1966 175.493 95.1712 172.455C95.0573 172.151 95.2092 171.847 95.513 171.733C95.8168 171.619 96.1207 171.771 96.2346 172.075C96.6144 173.214 100.07 183.316 100.07 185.557C100.07 188.671 99.1588 190.988 97.3739 192.393C95.7409 193.608 93.7661 193.912 92.247 193.912Z" fill="#747D88"/>
<path d="M65.8905 193.646C65.2069 193.646 64.5234 193.608 63.8398 193.494C60.6117 192.962 57.9153 191.177 55.7506 188.139C52.3707 183.392 55.5228 173.974 55.6747 173.556C55.7886 173.252 56.0924 173.1 56.3962 173.214C56.7001 173.328 56.852 173.632 56.738 173.936C56.7001 174.012 53.6239 183.202 56.6621 187.456C58.6369 190.228 61.1054 191.861 63.9917 192.355C69.8402 193.304 75.5367 189.278 75.6127 189.24C75.8785 189.051 76.2203 189.127 76.4102 189.354C76.6001 189.62 76.5241 189.962 76.2963 190.152C76.0684 190.304 71.3592 193.646 65.8905 193.646Z" fill="#747D88"/>
<path d="M88.4111 180.088C88.4111 180.088 93.614 177.354 94.3735 177.354C95.1331 177.354 96.4623 180.202 96.4623 180.961C96.4623 181.721 90.1961 183.43 90.1961 183.43L88.4111 180.088Z" fill="#747D88"/>
<path d="M78.2326 185.519C78.2326 185.519 70.2574 183.62 69.1181 185.519C67.9788 187.418 77.0933 189.696 77.0933 189.696L78.2326 185.519Z" fill="#747D88"/>
<path d="M73.6383 182.215C73.5624 182.215 73.4484 182.177 73.3725 182.139L67.7139 179.177C67.448 179.025 67.3341 178.683 67.486 178.417C67.6379 178.151 67.9797 178.037 68.2456 178.189L73.9042 181.151C74.17 181.303 74.2839 181.645 74.132 181.911C74.0181 182.101 73.8282 182.215 73.6383 182.215Z" fill="#747D88"/>
<path d="M78.4232 211.723C87.9664 211.723 95.7028 210.533 95.7028 209.065C95.7028 207.596 87.9664 206.406 78.4232 206.406C68.8799 206.406 61.1436 207.596 61.1436 209.065C61.1436 210.533 68.8799 211.723 78.4232 211.723Z" fill="#747D88"/>
<path d="M82.6392 35.3188H87.7281V33.2681H80.5884V38.6608H82.6392V35.3188Z" fill="#008BFF"/>
<path d="M87.9178 38.661V40.7118H90.88V42.7246C90.88 43.0284 90.4622 43.3702 89.8546 43.3702H85.867V45.4209H89.8546C91.5636 45.4209 92.9308 44.2057 92.9308 42.7246V38.661H87.9178V38.661Z" fill="#008BFF"/>
<path d="M74.1701 23.2802H70.3344V27.1158H74.1701V23.2802Z" fill="#008BFF"/>
<path d="M66.2325 21.2295V31.2175H74.7015V29.1667H68.2833V21.2295H76.4864V27.3818H78.5372V19.1787H68.2833C67.144 19.1787 66.2325 20.0902 66.2325 21.2295Z" fill="#008BFF"/>
<path d="M74.1701 37.3694H70.3344V41.2051H74.1701V37.3694Z" fill="#008BFF"/>
<path d="M88.5251 23.2802H84.6894V27.1158H88.5251V23.2802Z" fill="#008BFF"/>
<path d="M86.7402 29.1666H84.6894V31.2174H86.7402V29.1666Z" fill="#008BFF"/>
<path d="M82.6392 29.1665V27.3815V21.2292H90.8422V27.3815V29.1665V31.2172H92.893V21.2292C92.893 20.0899 91.9815 19.1785 90.8422 19.1785H80.5884V31.2172H82.6392V29.1665Z" fill="#008BFF"/>
<path d="M90.5763 35.3188H88.7914V37.1038H90.5763V35.3188Z" fill="#008BFF"/>
<path d="M92.3605 33.5339H90.5756V35.3189H92.3605V33.5339Z" fill="#008BFF"/>
<path d="M83.8164 38.661V41.3574H80.5884V43.5221V45.4589H82.6392V43.4082H85.8672V38.661H83.8164Z" fill="#008BFF"/>
<path d="M78.5381 29.1666H76.4874V31.2174H78.5381V29.1666Z" fill="#008BFF"/>
<path d="M66.2324 43.4078C66.2324 44.5471 67.1439 45.4585 68.2832 45.4585H78.3851V43.4457H68.2832V35.2047H76.3344V41.2431H78.3851V33.1539H66.2324V43.4078Z" fill="#008BFF"/>
<path d="M78.8028 146.023C77.2078 146.023 76.4103 145.377 76.1064 145.111C75.8786 144.883 75.8786 144.542 76.1064 144.314C76.3343 144.086 76.6761 144.086 76.904 144.314C77.0559 144.466 77.5876 144.921 78.7648 144.921C79.1826 144.921 79.6763 144.655 80.208 144.428C80.8156 144.124 81.4612 143.782 82.1828 143.782C83.474 143.782 84.9931 144.921 85.183 145.035C85.4488 145.225 85.4868 145.567 85.2969 145.833C85.107 146.099 84.7652 146.137 84.4994 145.947C84.1196 145.643 82.9423 144.921 82.1828 144.921C81.765 144.921 81.2713 145.187 80.7397 145.415C80.132 145.719 79.5244 146.023 78.8028 146.023Z" fill="#747D88"/>
<path d="M57.3452 21.2677C57.2693 21.2677 57.1554 21.2297 57.0794 21.1918L51.3828 18.1536C51.117 18.0017 51.003 17.6599 51.155 17.394C51.3069 17.1282 51.6487 17.0143 51.9145 17.1662L57.6111 20.2044C57.8769 20.3563 57.9908 20.6981 57.8389 20.9639C57.763 21.1538 57.5351 21.2677 57.3452 21.2677Z" fill="#747D88"/>
<path d="M79.7523 9.11452C79.4485 9.11452 79.1826 8.84868 79.1826 8.54487V0.569658C79.1826 0.26584 79.4485 0 79.7523 0C80.0561 0 80.3219 0.26584 80.3219 0.569658V8.54487C80.3219 8.84868 80.0561 9.11452 79.7523 9.11452Z" fill="#747D88"/>
<path d="M99.5004 25.8246C99.2346 25.8246 99.0067 25.6347 98.9307 25.3689C98.8548 25.0651 99.0826 24.7613 99.3865 24.6853L109.261 22.7864C109.564 22.7105 109.868 22.9384 109.944 23.2422C110.02 23.546 109.792 23.8498 109.488 23.9258L99.6143 25.8246C99.5763 25.8246 99.5384 25.8246 99.5004 25.8246Z" fill="#747D88"/>
</svg>
