<svg width="84" height="186" viewBox="0 0 84 186" fill="none" xmlns="http://www.w3.org/2000/svg">
<path d="M37.0693 162.34V161.201C51.8045 161.201 62.8938 149.2 62.8938 133.288C62.8938 128.389 61.2228 122.388 58.6024 118.021L59.5898 117.451C62.3242 122.047 64.0331 128.123 64.0331 133.326C64.0331 149.846 52.4501 162.34 37.0693 162.34Z" fill="#747D88"/>
<path d="M7.63663 129.566L6.49731 129.376C7.1809 125.085 8.20631 121.401 11.1685 117.337L12.0799 118.021C9.61142 121.439 8.39617 124.553 7.63663 129.566Z" fill="#747D88"/>
<path d="M11.1688 149.96C10.0675 148.441 9.76367 147.719 9.26996 146.428C9.15603 146.086 9.00409 145.744 8.81421 145.289L9.87759 144.871C10.0675 145.327 10.2194 145.668 10.3333 146.01C10.827 147.263 11.0549 147.909 12.0802 149.314L11.1688 149.96Z" fill="#747D88"/>
<path d="M3.26958 130.325C2.96577 130.325 2.7379 130.098 2.69993 129.794C2.66195 129.49 2.88982 129.186 3.23162 129.186L24.5368 127.401H24.5748L51.5006 129.186C51.8044 129.224 52.0703 129.49 52.0323 129.794C51.9943 130.098 51.7285 130.325 51.4247 130.325L24.5368 128.541L3.30755 130.325H3.26958Z" fill="#747D88"/>
<path d="M14.2827 147.149C11.3964 147.149 8.88993 146.048 7.06702 143.997C4.40862 140.959 3.42121 136.06 4.21873 129.794C4.25671 129.49 4.56051 129.262 4.86433 129.3C5.16814 129.338 5.39603 129.642 5.35805 129.946C4.59851 135.87 5.472 140.465 7.94052 143.238C9.53556 145.061 11.7382 146.01 14.3207 146.01C16.7512 146.01 18.6501 145.213 20.0172 143.58C22.4478 140.731 23.1693 135.49 22.106 128.806C22.068 128.503 22.2579 128.199 22.5617 128.161C22.8655 128.123 23.1693 128.313 23.2073 128.617C24.3466 135.642 23.5112 141.225 20.8528 144.301C19.2577 146.2 17.055 147.149 14.2827 147.149Z" fill="#747D88"/>
<path d="M37.6009 147.149C37.411 147.149 37.2591 147.149 37.0692 147.149C33.4614 147.035 30.0435 145.175 27.9167 142.212C26.0938 139.706 24.3849 135.225 26.4356 128.389C26.5116 128.085 26.8534 127.933 27.1572 128.009C27.461 128.085 27.6129 128.427 27.537 128.73C25.6001 135.149 27.1952 139.25 28.8282 141.567C30.765 144.263 33.8412 145.934 37.0692 146.01C40.1074 146.124 42.424 145.364 44.095 143.693C46.6015 141.225 47.6649 136.706 47.513 129.49C47.513 129.186 47.7408 128.92 48.0826 128.92C48.4244 128.92 48.6523 129.148 48.6523 129.49C48.8422 137.047 47.6648 141.795 44.9305 144.529C43.1456 146.276 40.6771 147.149 37.6009 147.149Z" fill="#747D88"/>
<path d="M44.1706 138.149C44.1326 138.149 44.0947 138.149 44.0567 138.149C43.7529 138.111 43.525 137.807 43.601 137.503C43.7908 136.44 43.4111 135.339 42.4997 134.351C41.5882 133.364 40.221 132.642 38.7019 132.376C35.6258 131.845 32.7775 133.25 32.3597 135.49C32.3217 135.794 32.0179 136.022 31.7141 135.946C31.4103 135.908 31.1824 135.604 31.2584 135.301C31.7521 132.414 35.208 130.591 38.9298 131.237C40.7147 131.541 42.2718 132.376 43.3731 133.554C44.5124 134.769 45.0061 136.25 44.7403 137.655C44.6643 137.921 44.4365 138.149 44.1706 138.149Z" fill="#747D88"/>
<path d="M9.80085 138.756C9.53501 138.756 9.30715 138.566 9.2312 138.301C8.92738 137.009 9.34514 135.642 10.3325 134.503C11.282 133.402 12.6871 132.566 14.2822 132.224C15.8772 131.882 17.4723 132.034 18.8015 132.642C20.1687 133.288 21.1181 134.351 21.3839 135.642C21.4599 135.946 21.27 136.25 20.9662 136.326C20.6623 136.402 20.3585 136.212 20.2826 135.908C20.0927 134.959 19.3711 134.199 18.3457 133.705C17.2444 133.212 15.8772 133.098 14.548 133.364C13.1808 133.667 12.0035 134.351 11.244 135.262C10.4845 136.136 10.1807 137.161 10.4085 138.073C10.4845 138.377 10.2946 138.68 9.99074 138.756C9.87681 138.756 9.83883 138.756 9.80085 138.756Z" fill="#747D88"/>
<path d="M37.1071 162.264H37.0692C35.9298 162.188 9.42176 160.1 4.06698 155.77C1.94026 154.061 1.14273 152.618 1.63643 151.403C3.11754 147.871 16.2956 149.124 18.916 149.428C19.2199 149.466 19.4477 149.732 19.4098 150.074C19.3718 150.416 19.106 150.605 18.7642 150.567C12.5739 149.884 3.49734 149.846 2.66184 151.859C2.396 152.504 3.15554 153.568 4.75059 154.897C9.80155 158.998 36.8413 161.125 37.1071 161.125C37.4109 161.163 37.6388 161.429 37.6388 161.733C37.6388 162.037 37.373 162.264 37.1071 162.264Z" fill="#747D88"/>
<path d="M37.3354 158.201C36.4619 158.201 35.7024 157.821 35.1707 157.1C35.0948 156.986 35.0188 156.872 34.9429 156.758C34.1833 157.327 33.0061 157.707 31.487 156.948C30.4996 156.454 30.2337 155.808 30.1578 155.353C30.0059 154.137 31.2211 153.074 31.373 152.96C31.6009 152.77 31.9806 152.808 32.1705 153.036C32.3604 153.264 32.3225 153.644 32.0946 153.834C31.8667 154.023 31.2211 154.707 31.2971 155.201C31.3351 155.467 31.5629 155.694 31.9806 155.922C33.7656 156.834 34.6011 155.429 34.639 155.391C34.753 155.201 35.0188 155.087 35.2467 155.125C35.4745 155.163 35.6644 155.353 35.7024 155.581C35.7404 155.846 36.0822 157.289 37.7152 157.024C39.4242 156.758 39.1583 153.492 39.1583 153.454C39.1204 153.15 39.3482 152.846 39.6521 152.846C39.9559 152.808 40.2597 153.036 40.2597 153.34C40.2597 153.53 40.6774 157.669 37.9051 158.125C37.7152 158.201 37.5253 158.201 37.3354 158.201Z" fill="#747D88"/>
<path d="M39.0437 124.325C38.7399 124.325 38.4361 124.211 38.1702 123.983C38.1702 123.983 37.5626 123.452 36.6132 122.806C36.0435 122.426 35.132 122.35 34.8662 122.35C34.1446 122.35 33.537 121.781 33.499 121.059C33.499 120.338 34.0687 119.73 34.7903 119.692C34.9801 119.692 36.6891 119.692 38.0563 120.565C39.1956 121.287 39.9172 121.933 39.9172 121.971C40.4868 122.464 40.5248 123.3 40.0311 123.832C39.7653 124.173 39.3855 124.325 39.0437 124.325Z" fill="#747D88"/>
<path d="M13.3716 125.958C13.1437 125.958 12.9539 125.92 12.726 125.806C12.0804 125.465 11.8525 124.667 12.1943 124.021C12.2703 123.869 12.9538 122.654 14.1691 122.009C15.1185 121.515 15.8401 121.249 15.8781 121.249C16.5617 121.021 17.3212 121.363 17.587 122.085C17.8149 122.768 17.4731 123.528 16.7516 123.794C16.7516 123.794 16.1439 124.021 15.3844 124.401C14.9667 124.629 14.5869 125.161 14.5489 125.313C14.321 125.692 13.8653 125.958 13.3716 125.958Z" fill="#747D88"/>
<path d="M66.0835 130.781C65.4759 130.781 64.8303 130.705 64.1847 130.477L63.0833 130.136C62.7795 130.06 62.6276 129.718 62.7036 129.414C62.7795 129.11 63.1213 128.958 63.4251 129.034L64.5265 129.376C66.9191 130.136 69.4635 129.034 70.5648 126.794L71.0206 125.844L74.5904 128.617C75.1601 129.072 75.9196 129.224 76.6412 129.034C77.3627 128.844 77.9324 128.351 78.1983 127.667C78.4261 127.097 78.4261 126.452 78.1983 125.882L70.7167 107.805C68.8938 103.438 64.8683 100.4 60.1971 99.7919C59.8933 99.7539 59.6654 99.4501 59.7034 99.1463C59.7413 98.8425 60.0452 98.6146 60.349 98.6526C65.4379 99.2982 69.8053 102.602 71.7801 107.349L79.2616 125.426C79.6034 126.3 79.6034 127.211 79.2616 128.085C78.8439 129.11 78.0084 129.87 76.945 130.136C75.8816 130.439 74.7803 130.212 73.9068 129.528L71.4004 127.629C70.337 129.604 68.2862 130.781 66.0835 130.781Z" fill="#747D88"/>
<path d="M15.5742 107.539C15.3843 107.539 15.2324 107.463 15.1184 107.311C14.9285 107.045 14.9665 106.704 15.2324 106.514L25.0305 99.0323C28.2586 96.5638 33.5753 95.3105 38.2845 95.8802C38.5883 95.9182 38.8162 96.222 38.7782 96.5258C38.7403 96.8296 38.4365 97.0575 38.1326 97.0195C33.7273 96.4878 28.7522 97.6651 25.7141 99.9438L15.916 107.425C15.8021 107.501 15.6881 107.539 15.5742 107.539Z" fill="#747D88"/>
<path d="M13.1435 106.894C13.1055 106.894 13.1055 106.894 13.0676 106.894C12.7637 106.856 12.5359 106.552 12.5738 106.248L17.0931 69.904C17.5109 66.6 19.3338 65.0429 20.9668 64.929C22.4099 64.853 24.2328 65.8404 24.9924 68.8786L31.5624 96.3361C31.6384 96.6399 31.4485 96.9437 31.1447 97.0197C30.8409 97.0956 30.537 96.9057 30.4611 96.6019L23.8911 69.1444C23.3974 67.1696 22.296 65.9923 21.0428 66.0683C19.8655 66.1442 18.5742 67.3975 18.2325 70.0179L13.7132 106.362C13.6752 106.666 13.4093 106.894 13.1435 106.894Z" fill="#747D88"/>
<path d="M61.1848 104.615C60.9569 104.615 60.729 104.463 60.6531 104.235L45.7281 62.7641C45.1204 61.0931 43.4874 60.5614 42.0822 60.7893C40.9049 60.9792 39.4998 61.8527 39.4618 63.6376C39.12 95.3106 39.4618 100.362 39.6517 101.007C39.7657 101.235 39.7656 101.501 39.5757 101.691C39.3479 101.919 39.0061 101.919 38.7782 101.729C38.4364 101.387 37.9048 100.893 38.3225 63.6376C38.3605 61.321 40.1454 59.9918 41.8923 59.6879C43.6773 59.3841 45.9559 60.1057 46.7914 62.3843L61.7165 103.855C61.8304 104.159 61.6785 104.463 61.3746 104.577C61.2987 104.615 61.2607 104.615 61.1848 104.615Z" fill="#747D88"/>
<path d="M63.6538 105.754C63.6158 105.754 63.5779 105.754 63.5779 105.754L36.6141 101.577C36.3103 101.539 36.0824 101.235 36.1204 100.931C36.1583 100.627 36.4621 100.4 36.7659 100.437L63.7297 104.615C64.0336 104.653 64.2614 104.957 64.2235 105.261C64.1855 105.564 63.9196 105.754 63.6538 105.754Z" fill="#747D88"/>
<path d="M43.9046 166.138C43.6387 166.138 43.4109 165.948 43.3349 165.682L42.5754 161.505C42.5374 161.201 42.7273 160.897 43.0311 160.859C43.3349 160.783 43.6387 161.011 43.6767 161.315L44.4363 165.492C44.4742 165.796 44.2843 166.1 43.9805 166.138C43.9805 166.138 43.9426 166.138 43.9046 166.138Z" fill="#747D88"/>
<path d="M32.398 185.316C21.3467 185.316 19.7896 183.456 19.6377 182.05C19.068 177.303 27.9547 161.809 28.3345 161.125C28.4864 160.859 28.8282 160.745 29.094 160.897C29.3599 161.049 29.4738 161.391 29.3219 161.657C26.8154 166.062 20.3593 178.215 20.777 181.861C20.853 182.43 21.9163 184.215 33.3475 184.139C38.5503 184.101 43.7532 183.645 45.4622 183.494L44.5128 175.48C44.4748 175.177 44.7027 174.873 45.0065 174.835C45.3103 174.797 45.6141 175.025 45.6521 175.328L46.7155 184.519L46.1458 184.595C46.0698 184.595 39.7277 185.241 33.3855 185.278C33.0057 185.316 32.7018 185.316 32.398 185.316Z" fill="#747D88"/>
<path d="M59.2864 183.873C59.0205 183.873 58.7927 183.721 58.7547 183.456L51.7289 156.985C51.653 156.682 51.8428 156.378 52.1466 156.302C52.4505 156.226 52.7543 156.416 52.8303 156.72L59.856 183.19C59.932 183.494 59.7421 183.797 59.4383 183.873C59.4003 183.835 59.3244 183.873 59.2864 183.873Z" fill="#747D88"/>
<path d="M49.3744 176.809C43.9816 176.809 33.386 168.644 32.9302 168.303C32.6644 168.113 32.6264 167.771 32.8163 167.505C33.0062 167.239 33.348 167.201 33.6138 167.391C33.7278 167.467 45.2349 176.354 49.9061 175.632C54.3494 174.949 55.1469 173.316 55.1848 173.316C55.2988 173.05 55.6406 172.898 55.9444 173.012C56.2102 173.126 56.3622 173.467 56.2482 173.733C56.1723 173.961 55.2229 175.974 50.0959 176.734C49.8681 176.809 49.6022 176.809 49.3744 176.809Z" fill="#747D88"/>
<path d="M37.4489 166.518C37.1451 166.518 36.8793 166.29 36.8793 165.948C36.8793 165.644 37.1071 165.379 37.4489 165.379L51.5005 164.999C51.8043 164.999 52.0701 165.227 52.0701 165.568C52.0701 165.872 51.8423 166.138 51.5005 166.138L37.4489 166.518Z" fill="#747D88"/>
<path d="M48.082 166.138C47.8161 166.138 47.5503 165.948 47.5123 165.644L47.1326 162.986C47.0946 162.682 47.3225 162.378 47.6263 162.34C47.9301 162.302 48.2339 162.53 48.2719 162.834L48.6516 165.492C48.6896 165.796 48.4617 166.1 48.1579 166.138C48.1199 166.138 48.12 166.138 48.082 166.138Z" fill="#747D88"/>
<path d="M37.4865 165.91L34.5243 168.872C34.2205 169.176 33.7267 169.29 33.309 169.138C31.9798 168.607 29.2834 167.315 29.8531 165.606C30.3468 164.163 30.9544 163.48 31.3722 163.176C31.562 163.024 31.8279 162.948 32.0558 162.948H34.0306C34.4863 162.948 34.904 162.682 35.0939 162.264L35.6256 161.049C35.9674 160.328 36.9168 160.138 37.4865 160.707C37.7143 160.935 37.8283 161.201 37.8283 161.505V165.113C37.8283 165.379 37.7143 165.682 37.4865 165.91Z" fill="#747D88"/>
<path d="M2.51023 151.099L6.64975 149.618L7.02952 156.72C7.02952 156.72 4.37112 155.922 3.2318 154.289C2.09249 152.656 1.71272 152.656 2.09249 151.897C2.47226 151.137 2.51023 151.099 2.51023 151.099Z" fill="#747D88"/>
<path d="M62.1345 118.287H11.7767C9.27025 118.287 7.25745 116.274 7.25745 113.767V111.185C7.25745 109.932 7.75113 108.792 8.66258 107.919C9.57404 107.045 10.7134 106.628 11.9666 106.666L55.7163 108.413C56.0201 108.413 56.286 108.678 56.248 109.02C56.248 109.324 55.9822 109.552 55.6404 109.552L11.8906 107.805C10.9792 107.767 10.0677 108.109 9.42213 108.754C8.73854 109.4 8.39676 110.274 8.39676 111.185V113.767C8.39676 115.628 9.91586 117.147 11.7767 117.147H62.1345C62.4383 117.147 62.7041 117.413 62.7041 117.717C62.7041 118.021 62.4383 118.287 62.1345 118.287Z" fill="#747D88"/>
<path d="M15.4226 115.248C15.1187 115.248 14.8529 114.983 14.8529 114.679V109.362C14.8529 109.058 15.1187 108.792 15.4226 108.792C15.7264 108.792 15.9922 109.058 15.9922 109.362V114.679C15.9922 114.983 15.7264 115.248 15.4226 115.248Z" fill="#747D88"/>
<path d="M47.3228 116.388C47.019 116.388 46.7532 116.122 46.7532 115.818V110.501C46.7532 110.198 47.019 109.932 47.3228 109.932C47.6266 109.932 47.8925 110.198 47.8925 110.501V115.818C47.8925 116.122 47.6266 116.388 47.3228 116.388Z" fill="#747D88"/>
<path d="M48.8412 86.3859C48.5754 86.3859 48.3475 86.196 48.2716 85.9302L44.9676 71.0051C44.8916 70.7013 45.0815 70.3975 45.3853 70.3216C45.6891 70.2456 45.9929 70.4355 46.0689 70.7393L49.3729 85.6643C49.4489 85.9682 49.259 86.272 48.9552 86.3479C48.9172 86.3859 48.8792 86.3859 48.8412 86.3859Z" fill="#747D88"/>
<path d="M51.4999 96.2598C51.234 96.2598 51.0062 96.0699 50.9302 95.8421L49.1453 88.5125C49.0693 88.2087 49.2592 87.9048 49.563 87.8289C49.8668 87.7529 50.1706 87.9428 50.2466 88.2466L52.0315 95.5762C52.1075 95.88 51.9176 96.1839 51.6138 96.2598C51.5758 96.2598 51.5378 96.2598 51.4999 96.2598Z" fill="#747D88"/>
<path d="M23.7766 90.943C23.4728 90.943 23.2449 90.7152 23.207 90.4493L21.2701 72.638C21.2322 72.3342 21.46 72.0304 21.7638 71.9924C22.0676 71.9544 22.3715 72.1823 22.4094 72.4861L24.3463 90.2974C24.3843 90.6012 24.1564 90.9051 23.8526 90.943C23.8146 90.943 23.7766 90.943 23.7766 90.943Z" fill="#747D88"/>
<path d="M31.7895 104.159C30.1564 104.159 28.7133 104.881 27.688 106.02C26.7005 104.881 25.2194 104.159 23.5864 104.159C20.5482 104.159 18.1177 106.628 18.1177 109.628C18.1177 112.666 20.5862 115.097 23.5864 115.097C25.2194 115.097 26.6626 114.375 27.688 113.236C28.6754 114.375 30.1564 115.097 31.7895 115.097C34.8276 115.097 37.2582 112.628 37.2582 109.628C37.2582 106.59 34.7897 104.159 31.7895 104.159Z" fill="#EA5045"/>
<path d="M31.7902 115.856C30.2711 115.856 28.828 115.287 27.6887 114.299C26.5494 115.287 25.1062 115.856 23.5872 115.856C20.1312 115.856 17.3589 113.046 17.3589 109.628C17.3589 106.21 20.1692 103.4 23.5872 103.4C25.1062 103.4 26.5494 103.969 27.6887 104.957C28.828 103.969 30.2711 103.4 31.7902 103.4C35.2461 103.4 38.0185 106.21 38.0185 109.628C38.0185 113.046 35.2082 115.856 31.7902 115.856ZM27.6887 112.096L28.2584 112.742C29.1698 113.767 30.423 114.337 31.7902 114.337C34.3727 114.337 36.4994 112.21 36.4994 109.628C36.4994 107.045 34.3727 104.919 31.7902 104.919C30.461 104.919 29.1698 105.488 28.2584 106.514L27.6887 107.159L27.1191 106.514C26.2076 105.488 24.9543 104.919 23.5872 104.919C21.0047 104.919 18.878 107.045 18.878 109.628C18.878 112.21 21.0047 114.337 23.5872 114.337C24.9164 114.337 26.2076 113.767 27.1191 112.742L27.6887 112.096Z" fill="white"/>
<path d="M31.7905 115.097C34.8108 115.097 37.2592 112.648 37.2592 109.628C37.2592 106.608 34.8108 104.159 31.7905 104.159C28.7702 104.159 26.3218 106.608 26.3218 109.628C26.3218 112.648 28.7702 115.097 31.7905 115.097Z" fill="#4E55A2"/>
<path d="M23.5864 115.097C26.6067 115.097 29.0551 112.648 29.0551 109.628C29.0551 106.608 26.6067 104.159 23.5864 104.159C20.5661 104.159 18.1177 106.608 18.1177 109.628C18.1177 112.648 20.5661 115.097 23.5864 115.097Z" fill="#EA5045"/>
<path d="M65.2484 182.544C65.0206 182.544 64.8307 182.468 64.7168 182.164C64.5269 181.633 65.0206 181.443 65.3244 181.291C65.5523 181.177 65.97 181.025 66.6536 180.759C68.1727 180.152 70.7551 179.126 74.287 177.759C83.5155 174.189 82.9838 163.138 82.4901 159.264C81.0849 160.821 77.629 163.48 69.6538 164.809C58.8303 166.632 57.9948 176.202 57.9948 176.278C57.9568 176.582 57.691 176.848 57.3872 176.81C57.0833 176.772 56.8555 176.506 56.8555 176.202C56.8555 176.088 57.7669 165.606 69.4639 163.669C80.3254 161.847 82.3002 157.593 82.3381 157.555L83.0597 155.96L83.4395 157.669C83.4775 157.821 86.8195 174.151 74.7427 178.822C69.0082 181.025 66.8435 181.898 66.046 182.24C65.97 182.316 65.894 182.392 65.7801 182.43C65.6282 182.468 65.4383 182.544 65.2484 182.544Z" fill="#747D88"/>
<path d="M78.996 175.974C78.882 175.974 78.7681 175.936 78.6542 175.86L73.983 172.214L76.9072 165.986L70.2612 164.657C69.9574 164.581 69.7675 164.277 69.8055 163.973C69.8814 163.67 70.1853 163.48 70.4891 163.518L78.5402 165.151L75.3881 171.835L79.3378 174.911C79.6036 175.101 79.6416 175.48 79.4517 175.708C79.3378 175.898 79.1479 175.974 78.996 175.974Z" fill="#747D88"/>
<path d="M38.7777 41.8766C47.5659 41.8766 54.6901 34.7524 54.6901 25.9642C54.6901 17.176 47.5659 10.0518 38.7777 10.0518C29.9895 10.0518 22.8652 17.176 22.8652 25.9642C22.8652 34.7524 29.9895 41.8766 38.7777 41.8766Z" fill="#008BFF"/>
<path d="M37.372 32.4962C37.1062 32.4962 36.8403 32.3823 36.6124 32.1924L31.2197 27.0275C30.8019 26.6098 30.7639 25.9262 31.1817 25.4704C31.5994 25.0527 32.283 25.0147 32.7387 25.4325L37.334 29.8378L46.2966 20.8752C46.7144 20.4575 47.398 20.4575 47.8537 20.8752C48.2714 21.293 48.2714 21.9765 47.8537 22.4323L38.1315 32.1164C37.9417 32.3823 37.6378 32.4962 37.372 32.4962Z" fill="white"/>
<path d="M20.8903 4.97945H17.682V1.77244C17.682 1.13103 17.1778 0.627075 16.5361 0.627075C15.8945 0.627075 15.3903 1.13103 15.3903 1.77244V4.97945H12.182C11.5403 4.97945 11.0361 5.48341 11.0361 6.12482C11.0361 6.76622 11.5403 7.27018 12.182 7.27018H15.3903V10.4772C15.3903 11.1186 15.8945 11.6226 16.5361 11.6226C17.1778 11.6226 17.682 11.1186 17.682 10.4772V7.27018H20.8903C21.532 7.27018 22.0361 6.76622 22.0361 6.12482C22.0361 5.48341 21.532 4.97945 20.8903 4.97945Z" fill="#747D88"/>
<path d="M8.09863 24.1798H5.47363V21.5559C5.47363 21.0311 5.06113 20.6188 4.53613 20.6188C4.01113 20.6188 3.59863 21.0311 3.59863 21.5559V24.1798H0.973633C0.448633 24.1798 0.0361328 24.5921 0.0361328 25.1169C0.0361328 25.6417 0.448633 26.054 0.973633 26.054H3.59863V28.6779C3.59863 29.2027 4.01113 29.615 4.53613 29.615C5.06113 29.615 5.47363 29.2027 5.47363 28.6779V26.054H8.09863C8.62363 26.054 9.03613 25.6417 9.03613 25.1169C9.03613 24.5921 8.62363 24.1798 8.09863 24.1798Z" fill="#747D88"/>
<path d="M72.7861 14.3713H69.2861V10.8728C69.2861 10.1731 68.7361 9.62329 68.0361 9.62329C67.3361 9.62329 66.7861 10.1731 66.7861 10.8728V14.3713H63.2861C62.5861 14.3713 62.0361 14.9211 62.0361 15.6208C62.0361 16.3205 62.5861 16.8703 63.2861 16.8703H66.7861V20.3688C66.7861 21.0685 67.3361 21.6183 68.0361 21.6183C68.7361 21.6183 69.2861 21.0685 69.2861 20.3688V16.8703H72.7861C73.4861 16.8703 74.0361 16.3205 74.0361 15.6208C74.0361 14.9211 73.4861 14.3713 72.7861 14.3713Z" fill="#747D88"/>
</svg>
