<svg width="547" height="236" viewBox="0 0 547 236" fill="none" xmlns="http://www.w3.org/2000/svg">
<path d="M151.8 165.5H125.1V199.9H88.1V165.5H0V140L77.2 36.2002H117L45.4 134.7H89.4V104H125.2V134.6H151.9V165.5H151.8Z" fill="#747D88"/>
<path d="M534.8 119.4C542.4 127.7 546.2 138 546.2 150.2C546.2 159.7 543.7 168.4 538.8 176.4C533.8 184.4 526.3 190.8 516.1 195.6C505.9 200.4 493.5 202.8 478.8 202.8C467.3 202.8 456 201.3 445 198.3C433.9 195.3 424.5 191 416.7 185.4L431.4 156.6C437.6 161.3 444.8 164.9 452.9 167.4C461 170 469.4 171.2 477.9 171.2C487.4 171.2 494.8 169.4 500.2 165.7C505.6 162.1 508.3 156.9 508.3 150.2C508.3 136.9 498.1 130.2 477.8 130.2H460.6V105.3L494.1 67.4002H424.8V37.2002H538.8V61.6002L502 103.5C516.2 105.8 527.2 111.2 534.8 119.4Z" fill="#747D88"/>
<path d="M201.4 200.2C206.8 205.5 212.7 210.4 219 214.5C225.3 218.6 232.1 222.2 239.1 224.9C253.2 230.4 268.3 233.1 283.2 232.8C290.7 232.6 298.1 231.7 305.4 230.2C307.2 229.8 309 229.4 310.8 228.9C312.6 228.4 314.4 227.9 316.2 227.3C318 226.7 319.8 226.2 321.5 225.5C323.2 224.8 325 224.2 326.7 223.5C333.6 220.6 340.2 217.1 346.4 213C352.6 208.9 358.4 204.2 363.7 198.9C374.4 188.5 383.1 176 389 162.2C392 155.3 394.3 148.1 395.9 140.8C397.5 133.4 398.3 125.9 398.3 118.4C398.4 103.3 395.4 88.2 389.5 74.3C383.7 60.4 374.9 47.8 364.2 37.3C358.8 32.1 352.9 27.4 346.6 23.3C340.3 19.2 333.7 15.8 326.7 13C312.9 7.4 297.9 4.6 283.1 4.7C268.2 4.8 253.4 7.8 239.7 13.6C232.9 16.5 226.3 20 220.1 24.1C213.9 28.2 208.2 33 202.9 38.2C197.6 43.4 192.9 49.2 188.7 55.3C184.5 61.5 181 68 178.1 74.8C177.4 76.5 176.7 78.3 176 80C175.3 81.7 174.8 83.5 174.2 85.3C173.6 87.1 173.2 88.9 172.6 90.7C172.1 92.5 171.7 94.3 171.3 96.1C169.7 103.4 168.8 110.8 168.7 118.3C168.4 133.3 171 148.4 176.5 162.4C179.2 169.4 182.8 176.2 186.9 182.5C191.2 188.9 196 194.8 201.4 200.2ZM201 200.6C190.2 189.9 181.5 177.1 175.4 163.1C169.3 149.1 165.9 133.8 165.6 118.4C165.3 103 168 87.5 173.8 73.1C179.6 58.7 188.4 45.5 199.3 34.5C210.3 23.5 223.4 14.7 237.8 8.8C252.2 2.9 267.7 0 283.2 0C298.7 0.1 314.1 3.3 328.4 9.3C342.6 15.3 355.5 24.3 366.2 35.3C371.6 40.8 376.4 46.8 380.6 53.2C384.8 59.6 388.3 66.4 391.2 73.5C397 87.7 400 102.9 400 118.2C400 125.8 399.4 133.5 398 141C396.6 148.5 394.5 156 391.7 163.1C386.1 177.4 377.5 190.6 366.7 201.7C355.9 212.7 342.8 221.6 328.4 227.4C326.6 228.1 324.8 228.8 323 229.5C321.2 230.2 319.3 230.7 317.5 231.3C315.6 231.8 313.8 232.3 311.9 232.8C310 233.2 308.1 233.6 306.2 234C298.6 235.4 290.9 236 283.2 235.9C267.8 235.6 252.5 232.2 238.6 226.1C224.6 220 211.8 211.3 201 200.6Z" fill="#747D88"/>
<path d="M234 167.5C237.2 170.7 240.8 173.6 244.6 176.1C248.4 178.5 252.5 180.7 256.7 182.2C265.2 185.4 274.2 186.8 283.2 186.5C287.7 186.4 292.1 185.7 296.4 184.8C297.5 184.5 298.6 184.3 299.6 184C300.7 183.7 301.7 183.4 302.8 183C303.8 182.6 304.9 182.3 305.9 181.9C306.9 181.5 308 181.1 309 180.7C313.1 178.9 317 176.9 320.7 174.4C324.4 171.9 327.9 169.2 331 166.1C337.4 159.9 342.7 152.6 346.3 144.4C348.1 140.3 349.5 136 350.5 131.6C351.5 127.2 352 122.7 352 118.2C352.1 109.2 350.3 100.1 346.7 91.8001C343.2 83.5001 337.8 76.0001 331.4 69.8001C318.4 57.4001 300.7 50.6001 283 50.7001C265.3 50.8001 248 58.2001 235.5 70.7001C222.9 83.0001 215.5 100.3 214.8 118.2C214.5 127.1 215.9 136.2 219.1 144.6C220.7 148.8 222.8 152.9 225.2 156.7C228 160.7 230.9 164.3 234 167.5ZM233.7 167.9C230.4 164.7 227.5 161.1 224.9 157.4C222.3 153.6 220 149.6 218.1 145.4C214.3 137 212.1 127.8 211.8 118.4C211.5 109.1 213 99.6001 216.5 90.8001C220 82.0001 225.3 74.0001 232 67.2001C238.7 60.5001 246.7 55.1001 255.5 51.5001C264.3 47.9001 273.8 46.2001 283.2 46.3001C292.6 46.4001 302.1 48.3001 310.7 52.1001C319.3 55.8001 327.1 61.4001 333.5 68.1001C346.4 81.6001 353.7 99.9001 353.8 118.4C353.8 123 353.5 127.6 352.7 132.2C351.9 136.8 350.7 141.3 349 145.6C345.7 154.3 340.6 162.4 334.1 169.2C327.6 175.9 319.6 181.4 310.8 184.9C309.7 185.4 308.6 185.7 307.5 186.1C306.4 186.5 305.3 186.8 304.1 187.2C303 187.5 301.8 187.8 300.7 188.1C299.6 188.4 298.4 188.6 297.2 188.8C292.6 189.6 287.9 189.9 283.2 189.8C273.8 189.5 264.7 187.2 256.2 183.5C252 181.6 248 179.4 244.2 176.7C240.5 174.1 236.9 171.1 233.7 167.9Z" fill="#747D88"/>
<path d="M287 17.7999C287.9 18.7999 289.4 19.0999 290.6 18.7999C291.8 18.4999 292.8 17.9999 293.7 17.2999C294.6 16.5999 295.4 15.4999 295.5 14.1999C295.6 12.8999 294.9 11.5999 293.9 10.8999C292.9 10.1999 291.7 9.89991 290.6 9.89991C289.5 9.99991 288.4 10.4999 287.7 11.1999C286.9 11.9999 286.4 12.9999 286.1 14.0999C285.7 15.2999 286 16.7999 287 17.7999ZM286.8 17.8999C285.8 16.8999 285 15.6999 284.7 14.0999C284.6 13.2999 284.6 12.4999 284.9 11.6999C285.2 10.8999 285.6 10.1999 286.2 9.59991C287.3 8.39991 289 7.79991 290.7 7.89991C292.3 7.89991 293.9 8.79991 294.8 9.99991C295.7 11.1999 296.2 12.5999 296.3 14.0999C296.4 15.4999 296.1 17.1999 295 18.3999C294 19.5999 292.3 20.2999 290.7 19.9999C289 19.6999 287.8 18.7999 286.8 17.8999Z" fill="#747D88"/>
<path d="M176 129.4C176.9 130.4 178.4 130.7 179.6 130.4C180.8 130.1 181.8 129.6 182.7 128.9C183.6 128.2 184.4 127.1 184.5 125.8C184.6 124.5 183.9 123.2 182.9 122.5C181.9 121.8 180.7 121.5 179.6 121.5C178.5 121.6 177.4 122.1 176.7 122.8C175.9 123.6 175.4 124.6 175.1 125.7C174.7 126.9 175 128.4 176 129.4ZM175.8 129.5C174.8 128.5 174 127.3 173.7 125.7C173.6 124.9 173.6 124.1 173.9 123.3C174.2 122.5 174.6 121.8 175.2 121.2C176.3 120 178 119.4 179.7 119.5C181.3 119.5 182.9 120.4 183.8 121.6C184.7 122.8 185.2 124.2 185.3 125.7C185.4 127.1 185.1 128.8 184 130C183 131.2 181.3 131.9 179.7 131.6C178 131.3 176.8 130.5 175.8 129.5Z" fill="#747D88"/>
<path d="M380.6 121.9C381.5 122.9 383 123.2 384.2 122.9C385.4 122.6 386.4 122.1 387.3 121.4C388.2 120.7 389 119.6 389.1 118.3C389.2 117 388.5 115.7 387.5 115C386.5 114.3 385.3 114 384.2 114C383.1 114.1 382 114.6 381.3 115.3C380.5 116.1 380 117.1 379.7 118.2C379.3 119.5 379.6 121 380.6 121.9ZM380.4 122.1C379.4 121.1 378.6 119.9 378.3 118.3C378.2 117.5 378.2 116.7 378.5 115.9C378.8 115.1 379.2 114.4 379.8 113.8C380.9 112.6 382.6 112 384.3 112.1C385.9 112.1 387.5 113 388.4 114.2C389.3 115.4 389.8 116.8 389.9 118.3C390 119.7 389.7 121.4 388.6 122.6C387.6 123.8 385.9 124.5 384.3 124.2C382.6 123.9 381.4 123 380.4 122.1Z" fill="#747D88"/>
<path d="M316.2 122.1C317.1 123.1 318.6 123.4 319.8 123.1C321 122.8 322 122.3 322.9 121.6C323.8 120.9 324.6 119.8 324.7 118.5C324.8 117.2 324.1 115.9 323.1 115.2C322.1 114.5 320.9 114.2 319.8 114.2C318.7 114.3 317.6 114.8 316.9 115.5C316.1 116.3 315.6 117.3 315.3 118.4C315 119.7 315.2 121.2 316.2 122.1ZM316.1 122.3C315.1 121.3 314.3 120.1 314 118.5C313.9 117.7 313.9 116.9 314.2 116.1C314.5 115.3 314.9 114.6 315.5 114C316.6 112.8 318.3 112.2 320 112.3C321.6 112.3 323.2 113.2 324.1 114.4C325 115.6 325.5 117 325.6 118.5C325.7 119.9 325.4 121.6 324.3 122.8C323.3 124 321.6 124.7 320 124.4C318.3 124.1 317.1 123.2 316.1 122.3Z" fill="#747D88"/>
<path d="M270.9 225.6C271.8 226.6 273.3 226.9 274.5 226.6C275.7 226.3 276.7 225.8 277.6 225.1C278.5 224.4 279.3 223.3 279.4 222C279.5 220.7 278.8 219.4 277.8 218.7C276.8 218 275.6 217.7 274.5 217.7C273.4 217.8 272.3 218.3 271.6 219C270.8 219.8 270.3 220.8 270 221.9C269.7 223.1 270 224.6 270.9 225.6ZM270.8 225.7C269.8 224.7 269 223.5 268.7 221.9C268.6 221.1 268.6 220.3 268.9 219.5C269.2 218.7 269.6 218 270.2 217.4C271.3 216.2 273 215.6 274.7 215.7C276.3 215.7 277.9 216.6 278.8 217.8C279.7 219 280.2 220.4 280.3 221.9C280.4 223.3 280.1 225 279 226.2C278 227.4 276.3 228.1 274.7 227.8C273 227.6 271.8 226.7 270.8 225.7Z" fill="#747D88"/>
<path d="M353.6 50.4001C354.5 51.4001 356 51.7001 357.2 51.4001C358.4 51.1001 359.4 50.6001 360.3 49.9001C361.2 49.2001 362 48.1001 362.1 46.8001C362.2 45.5001 361.5 44.2001 360.5 43.5001C359.5 42.8001 358.3 42.5001 357.2 42.5001C356.1 42.6001 355 43.1001 354.3 43.8001C353.5 44.6001 353 45.6001 352.7 46.7001C352.3 48.0001 352.6 49.5001 353.6 50.4001ZM353.4 50.6001C352.4 49.6001 351.6 48.4001 351.3 46.8001C351.2 46.0001 351.2 45.2001 351.5 44.4001C351.8 43.6001 352.2 42.9001 352.8 42.3001C353.9 41.1001 355.6 40.5001 357.3 40.6001C358.9 40.6001 360.5 41.5001 361.4 42.7001C362.3 43.9001 362.8 45.3001 362.9 46.8001C363 48.2001 362.7 49.9001 361.6 51.1001C360.6 52.3001 358.9 53.0001 357.3 52.7001C355.7 52.4001 354.4 51.5001 353.4 50.6001Z" fill="#747D88"/>
<path d="M211.1 200.3C212 201.3 213.5 201.6 214.7 201.3C215.9 201 216.9 200.5 217.8 199.8C218.7 199.1 219.5 198 219.6 196.7C219.7 195.4 219 194.1 218 193.4C217 192.7 215.8 192.4 214.7 192.4C213.6 192.5 212.5 193 211.8 193.7C211 194.5 210.5 195.5 210.2 196.6C209.9 197.9 210.1 199.3 211.1 200.3ZM211 200.4C210 199.4 209.2 198.2 208.9 196.6C208.8 195.8 208.8 195 209.1 194.2C209.4 193.4 209.8 192.7 210.4 192.1C211.5 190.9 213.2 190.3 214.9 190.4C216.5 190.4 218.1 191.3 219 192.5C219.9 193.7 220.4 195.1 220.5 196.6C220.6 198 220.3 199.7 219.2 200.9C218.2 202.1 216.5 202.8 214.9 202.5C213.2 202.3 212 201.4 211 200.4Z" fill="#747D88"/>
<path d="M206.2 48.6002C207.1 49.6002 208.6 49.9002 209.8 49.6002C211 49.3002 212 48.8002 212.9 48.1002C213.8 47.4002 214.6 46.3002 214.7 45.0002C214.8 43.7002 214.1 42.4002 213.1 41.7002C212.1 41.0002 210.9 40.7002 209.8 40.7002C208.7 40.8002 207.6 41.3002 206.9 42.0002C206.1 42.8002 205.6 43.8002 205.3 44.9002C204.9 46.1002 205.2 47.6002 206.2 48.6002ZM206 48.7002C205 47.7002 204.2 46.5002 203.9 44.9002C203.8 44.1002 203.8 43.3002 204.1 42.5002C204.4 41.7002 204.8 41.0002 205.4 40.4002C206.5 39.2002 208.2 38.6002 209.9 38.7002C211.5 38.7002 213.1 39.6002 214 40.8002C214.9 42.0002 215.4 43.4002 215.5 44.9002C215.6 46.3002 215.3 48.0002 214.2 49.2002C213.2 50.4002 211.5 51.1002 209.9 50.8002C208.3 50.6002 207 49.7002 206 48.7002Z" fill="#747D88"/>
<path d="M352.3 194.8C353.2 195.8 354.7 196.1 355.9 195.8C357.1 195.5 358.1 195 359 194.3C359.9 193.6 360.7 192.5 360.8 191.2C360.9 189.9 360.2 188.6 359.2 187.9C358.2 187.2 357 186.9 355.9 186.9C354.8 187 353.7 187.5 353 188.2C352.2 189 351.7 190 351.4 191.1C351.1 192.3 351.4 193.8 352.3 194.8ZM352.2 194.9C351.2 193.9 350.4 192.7 350.1 191.1C350 190.3 350 189.5 350.3 188.7C350.6 187.9 351 187.2 351.6 186.6C352.7 185.4 354.4 184.8 356.1 184.9C357.7 184.9 359.3 185.8 360.2 187C361.1 188.2 361.6 189.6 361.7 191.1C361.8 192.5 361.5 194.2 360.4 195.4C359.4 196.6 357.7 197.3 356.1 197C354.4 196.7 353.2 195.8 352.2 194.9Z" fill="#747D88"/>
<path d="M327.9 88.8998C327.7 89.3998 326.9 89.8998 326.5 90.2998C325.7 91.1998 325.1 92.5998 323.6 92.0998C324.7 91.1998 325.8 90.1998 326.9 89.1998C327.4 88.6998 327.8 88.2998 328.2 87.7998C328.1 88.0998 328.1 88.3998 327.9 88.8998Z" fill="white"/>
<path d="M268.2 80.3998C267.8 79.8998 267.7 79.1998 267.4 78.6998C266.7 77.3998 265.3 76.2998 266.4 74.8998C266.6 74.6998 266.7 74.4998 266.8 74.2998C267.6 76.8998 268.7 79.2998 270 81.5998C269.4 81.2998 268.8 81.1998 268.2 80.3998Z" fill="white"/>
<path d="M324.9 62.7998L324.8 62.8998L324.9 62.9998C324.9 62.8998 324.9 62.8998 324.9 62.7998C324.9 62.6998 325 62.7998 324.9 62.7998Z" fill="#747D88"/>
<path d="M333.1 69.8998C333.1 69.9998 333.1 69.9998 333.2 70.0998V70.1998C333.2 70.2998 333.2 70.2998 333.2 70.3998C333.2 70.2998 333.1 70.2998 333.1 70.1998C333.1 70.0998 333.1 69.9998 333.1 69.8998C333 69.8998 333 69.8998 333.1 69.8998C332.5 69.2998 332 68.7998 331.4 68.2998C330.5 69.3998 330 71.3998 329.7 72.3998C329.5 73.1998 329.3 74.5998 330 75.2998C330.5 75.7998 331.2 76.0998 331.6 75.3998C331.6 75.3998 331.6 75.2998 331.6 75.3998C330.9 75.9998 330.5 75.4998 330.3 74.7998C330.7 75.0998 331.2 75.1998 331.8 75.0998C333.1 74.7998 333 73.1998 333.3 72.1998C333.4 71.8998 333.6 71.2998 333.7 70.5998C333.6 70.4998 333.5 70.3998 333.4 70.2998C333.4 70.1998 333.3 69.9998 333.1 69.8998ZM331.7 69.1998C331.7 69.2998 331.7 69.2998 331.7 69.1998C331.7 69.2998 331.7 69.2998 331.7 69.1998ZM330.7 71.6998C330.7 71.7998 330.8 71.8998 330.8 71.9998C330.7 71.8998 330.7 71.8998 330.6 71.8998C330.6 71.7998 330.6 71.6998 330.7 71.6998ZM330.4 72.5998C330.5 72.6998 330.5 72.7998 330.5 72.8998C330.4 72.8998 330.4 72.8998 330.3 72.8998C330.3 72.7998 330.3 72.6998 330.4 72.5998ZM330.3 73.8998C330.3 73.7998 330.2 73.7998 330.1 73.7998C330.1 73.6998 330.1 73.5998 330.1 73.5998C330.2 73.9998 330.6 74.2998 330.9 74.5998C330.8 74.3998 330.6 74.1998 330.3 73.8998ZM331.4 69.8998C331.6 70.2998 331.7 70.7998 331.8 71.1998C331.7 70.8998 331.5 70.5998 331.2 70.3998C331.2 70.1998 331.3 69.9998 331.4 69.8998ZM331.4 72.0998C331.4 71.9998 331.4 71.9998 331.3 71.8998C331.4 71.9998 331.4 71.9998 331.4 72.0998ZM331.6 74.3998L331.5 74.4998V74.3998H331.6C331.6 74.3998 331.7 74.3998 331.7 74.2998C331.7 74.2998 331.8 74.1998 331.8 74.0998C331.8 74.0998 331.8 74.1998 331.9 74.1998C331.9 74.1998 331.8 74.1998 331.8 74.2998C331.7 74.3998 331.6 74.3998 331.6 74.3998ZM332.1 73.9998C332.1 73.8998 332 73.7998 332 73.6998C332 73.5998 332 73.3998 332 73.2998C332.1 73.3998 332.1 73.3998 332.2 73.4998C332.3 73.5998 332.3 73.4998 332.4 73.4998C332.3 73.6998 332.2 73.8998 332.1 73.9998ZM332.5 72.9998V73.0998C332.5 73.0998 332.5 73.0998 332.5 72.9998C332.2 72.8998 332.1 72.4998 332 72.0998C332.1 72.2998 332.3 72.4998 332.5 72.5998H332.6C332.6 72.7998 332.6 72.8998 332.5 72.9998ZM333 71.2998C332.9 71.4998 332.9 71.7998 332.8 71.9998C332.6 71.5998 332.5 71.1998 332.4 70.7998C332.4 70.4998 332.3 70.2998 332.2 69.9998C332.3 70.1998 332.4 70.2998 332.5 70.3998L332.6 70.4998V70.5998C332.6 70.6998 332.7 70.7998 332.8 70.6998C332.9 70.7998 332.9 70.7998 333 70.8998C333 71.1998 333 71.1998 333 71.2998Z" fill="#747D88"/>
<path d="M331.7 74.3999C331.7 74.3999 331.6 74.3999 331.6 74.4999C331.6 74.3999 331.7 74.3999 331.7 74.3999Z" fill="#747D88"/>
<path d="M327 74.9001C327.1 74.7001 327.2 74.4001 327.1 74.2001C327.1 74.1001 327 74.1001 326.9 74.1001C326.7 74.2001 326.6 74.6001 326.5 74.8001C326.4 75.2001 326.3 75.6001 326.3 76.0001C326.3 76.6001 326.4 77.4001 326.9 77.7001C327 77.7001 327.1 77.7001 327 77.6001C326.6 77.1001 326.6 76.5001 326.7 75.8001C326.8 75.5001 326.9 75.2001 327 74.9001Z" fill="#747D88"/>
<path d="M328.4 67.7002C327.8 68.8002 327.4 70.1002 327.2 71.3002C327 72.4002 327.3 73.4002 327.3 74.5002C327.3 74.6002 327.4 74.6002 327.4 74.5002C327.5 73.6002 327.4 72.8002 327.5 71.9002C327.7 70.7002 328.3 69.6002 328.8 68.6002C328.8 68.6002 328.8 68.5002 328.9 68.5002C328.4 69.4002 328.1 70.5002 328.1 71.7002C328.1 71.8002 328.2 71.8002 328.3 71.7002C328.7 70.7002 328.9 69.6002 329.4 68.6002C329.5 68.5002 329.6 68.3002 329.7 68.2002C329.6 68.5002 329.5 68.8002 329.5 69.2002C329.5 69.3002 329.6 69.3002 329.7 69.2002C329.8 68.6002 330.3 68.0002 330.7 67.4002C330.3 67.0002 329.8 66.6002 329.3 66.2002C328.9 66.7002 328.6 67.2002 328.4 67.7002Z" fill="#747D88"/>
<path d="M329.6 69.4001C328.9 71.0001 328.5 72.7001 328.2 74.4001C328.1 74.4001 328.1 74.4001 328 74.5001C327.7 75.3001 326.4 78.5001 328.2 78.6001C329.2 78.6001 330 78.0001 330.7 77.5001C331.7 76.8001 333 75.8001 333.4 74.6001C333.4 74.5001 333.3 74.5001 333.3 74.6001C332.7 75.4001 331.6 76.2001 330.8 76.8001C330.2 77.3001 329.5 77.7001 328.8 78.0001C327.5 78.5001 327.7 77.0001 328 75.8001C328.1 76.4001 328.3 76.9001 328.9 77.2001C327.9 75.6001 329.1 73.1001 329.5 71.4001C329.7 70.6001 330.2 69.2001 330.9 68.0001C330.8 67.9001 330.6 67.8001 330.5 67.6001C330.1 68.3001 329.7 69.0001 329.6 69.4001Z" fill="#747D88"/>
<path d="M276.4 67.8998C276.1 68.6998 275.4 69.7998 275.7 70.6998C276.1 71.8998 277 72.7998 278 73.3998C280.1 74.6998 283 74.9998 285.1 73.6998C286.4 72.8998 287.1 71.4998 287.3 69.9998C287.3 69.8998 287.4 69.6998 287.4 69.5998C288.1 68.0998 286.9 65.8998 286 64.7998C284.7 63.2998 281.4 62.0998 280.1 64.0998C280 64.2998 280.2 64.4998 280.4 64.3998C280.9 64.2998 281.4 64.1998 281.9 64.0998C281.8 64.1998 281.8 64.2998 281.9 64.2998C281.2 64.2998 280.6 64.4998 279.9 64.8998C279.8 64.9998 279.8 65.1998 280 65.1998C281.9 65.0998 284 65.1998 285.2 66.3998C284.3 65.7998 283.3 65.3998 282.8 65.3998C282 65.3998 281.2 65.5998 280.5 65.9998H280.4C280.4 65.9998 280.3 65.9998 280.3 66.0998C278.7 67.0998 277.8 68.8998 278.2 70.8998C278.2 71.0998 278.6 71.0998 278.6 70.7998C278.6 70.1998 278.8 69.6998 279 69.1998C279 69.2998 279 69.3998 279.1 69.3998C279.1 69.4998 279.1 69.4998 279.1 69.5998C278.9 69.9998 278.7 70.3998 278.7 70.6998C278.6 71.1998 278.8 71.6998 279.1 72.1998C278.6 71.7998 278.3 71.3998 278.1 70.7998C277.6 69.3998 278.3 67.6998 278.3 66.2998C278.3 66.1998 278.2 66.1998 278.2 66.2998C277.3 67.9998 276.7 69.9998 277.6 71.7998C277.7 71.9998 277.8 72.1998 278 72.3998C277.6 72.0998 277.2 71.6998 277 71.2998C276.3 70.2998 276.7 69.1998 277 68.1998C276.8 67.8998 276.5 67.6998 276.4 67.8998ZM284.3 70.8998C284.3 70.7998 284.3 70.7998 284.4 70.6998C284.5 70.5998 284.6 70.3998 284.8 70.2998C284.6 70.3998 284.4 70.6998 284.3 70.8998C284.3 70.7998 284.3 70.7998 284.3 70.8998ZM284.9 71.4998C284.8 71.5998 284.7 71.6998 284.6 71.7998C284.7 71.5998 284.8 71.3998 285 71.1998C284.9 71.2998 284.9 71.3998 284.9 71.4998ZM284.3 67.2998C284.8 67.5998 285.2 68.0998 285.5 68.4998C285.8 68.8998 285.8 69.3998 285.8 69.7998C285.8 69.6998 285.7 69.5998 285.7 69.4998C285.4 68.6998 284.9 67.9998 284.3 67.3998V67.2998ZM283.5 70.5998C283.6 70.4998 283.6 70.3998 283.7 70.2998C283.7 70.3998 283.6 70.3998 283.6 70.4998C283.4 71.1998 283.6 71.7998 283.9 72.3998C283.9 72.3998 283.9 72.4998 283.8 72.4998V72.5998C283.7 72.5998 283.6 72.6998 283.5 72.6998C283.5 72.6998 283.5 72.5998 283.5 72.4998C283.2 71.8998 283.2 71.2998 283.5 70.5998ZM282.2 70.3998C282.5 69.9998 282.9 69.6998 283.1 69.3998C283.1 69.3998 283.1 69.3998 283.2 69.3998C282.9 69.7998 282.7 70.2998 282.6 70.5998C282.3 71.3998 282.7 72.1998 283.2 72.7998C283 72.7998 282.8 72.7998 282.6 72.7998C282.6 72.6998 282.6 72.6998 282.6 72.5998C282.6 72.5998 282.6 72.4998 282.5 72.4998C282.5 72.4998 282.5 72.4998 282.5 72.3998C282.5 72.3998 282.5 72.3998 282.5 72.2998C282.4 72.1998 282.4 72.0998 282.3 71.9998C282 71.5998 282.1 70.9998 282.2 70.3998ZM282 67.0998C281.9 67.1998 281.7 67.1998 281.6 67.2998C281.7 67.0998 281.9 67.0998 282 67.0998ZM281 71.4998C281.2 71.9998 281.7 72.3998 282.2 72.7998C281.8 72.6998 281.3 72.5998 280.9 72.4998H280.8C280.9 72.0998 280.9 71.7998 281 71.4998ZM280.6 68.1998C280.5 68.3998 280.4 68.4998 280.2 68.6998C280.3 68.4998 280.4 68.3998 280.6 68.1998ZM279.3 71.0998C279.3 71.3998 279.4 71.5998 279.4 71.7998C279.4 71.8998 279.6 71.8998 279.7 71.7998C279.8 71.5998 279.8 71.3998 279.9 71.1998C279.9 71.2998 279.9 71.3998 280 71.4998C280 71.5998 280.1 71.6998 280.2 71.6998C280.2 71.9998 280.3 72.2998 280.4 72.5998C280.4 72.6998 280.5 72.6998 280.5 72.6998V72.7998C280.1 72.6998 279.8 72.5998 279.5 72.3998C279.5 72.3998 279.5 72.2998 279.5 72.1998C279.3 71.8998 279.2 71.4998 279.3 71.0998Z" fill="#747D88"/>
<path d="M283.8 60.7999C285.8 61.1999 287.8 63.3999 288.7 65.1999C290 67.7999 289 70.5999 287.3 72.5999C285.4 74.6999 283.1 76.0999 280.3 76.1999C277.6 76.2999 275.8 73.5999 274.1 71.9999C274 71.8999 274 71.9999 274 72.0999C275 74.4999 278.3 76.2999 280.7 76.7999C283.8 77.3999 286.9 74.7999 288.6 72.4999C290.2 70.4999 290.6 67.5999 289.5 65.2999C288.6 63.1999 286.2 60.4999 283.7 60.5999C283.7 60.5999 283.7 60.7999 283.8 60.7999Z" fill="#747D88"/>
<path d="M273.9 71.3999C272.3 69.1999 274.7 65.5999 276.4 64.0999C278.6 62.1999 281.2 62.1999 283.9 62.1999C284 62.1999 284.1 62.0999 284 61.9999C281.6 59.9999 277.5 62.1999 275.6 63.8999C275 64.4999 274.3 65.1999 273.9 66.0999C274.7 63.8999 276.5 62.1999 278.7 60.5999C278.8 60.4999 278.7 60.3999 278.6 60.4999C276.3 61.3999 274.5 62.5999 273.5 64.7999C272.8 66.2999 272.4 67.9999 273.1 69.5999C273.1 69.5999 273.1 69.6999 273.2 69.6999C273.1 70.1999 273.3 70.7999 273.9 71.3999C273.9 71.3999 273.8 71.3999 273.9 71.3999Z" fill="#747D88"/>
<path d="M291.2 83.5002C291.2 82.2002 290.2 81.1002 289 80.7002C288.2 80.4002 286.2 79.8002 285.6 80.8002C284.8 82.1002 286.7 83.6002 287.9 83.4002C288.1 83.4002 288.1 83.0002 288 82.9002C287.7 82.7002 285.8 81.4002 286.8 81.2002C287.4 81.1002 288.2 81.3002 288.9 81.5002C289.5 81.7002 290.1 82.2002 290.4 82.8002C290.7 83.3002 290.7 84.3002 289.9 84.3002C289.5 84.3002 289 84.0002 288.6 84.0002C288.4 84.0002 288.4 84.2002 288.5 84.3002C289.4 84.9002 291.1 85.0002 291.2 83.5002Z" fill="#747D88"/>
<path d="M294.6 73.1998C294.8 73.0998 295 72.9998 295.2 72.7998C295.1 72.9998 295 73.1998 295 73.3998C295 73.4998 295.1 73.5998 295.2 73.5998C295.7 73.5998 296 73.0998 296.3 72.6998C296.7 72.2998 297.3 71.9998 297.8 71.6998C297.9 71.5998 297.8 71.3998 297.7 71.3998C297.2 71.5998 296.6 71.6998 296.1 71.9998C296.1 71.9998 296 72.0998 295.9 72.0998C296.1 71.8998 296.3 71.6998 296.5 71.3998C297.4 70.5998 298.6 70.0998 299.7 69.7998C299.9 69.6998 299.8 69.4998 299.6 69.4998C299 69.5998 298.3 69.7998 297.6 69.9998C298.3 69.3998 298.9 68.6998 299.8 68.2998C302 67.1998 304.8 68.4998 305.7 70.6998C305.7 70.7998 305.9 70.7998 305.9 70.6998C306.2 68.7998 303.5 67.1998 301.9 67.0998C299.4 66.8998 296.6 68.8998 295.4 70.9998C295.3 71.0998 295.3 71.1998 295.4 71.2998C295 71.6998 294.6 72.1998 294.4 72.7998C294.3 72.9998 294.5 73.1998 294.6 73.1998Z" fill="#747D88"/>
<path d="M290.2 50.2C290.1 50.3 290.1 50.4 290.1 50.5C290.2 50.6 290.2 50.7 290.3 50.8C289.7 50.5 288.7 50.3 288.3 50.9C288.2 51 288.3 51.1 288.4 51.1C288.9 51 289.5 51.2 290 51.4C290.9 51.7 291.2 52.4 291.6 53.2C291.5 53.3 291.5 53.5 291.4 53.6C291.4 53.4 291.3 53.2 291.2 53.1C290.8 52.2 290 51.5 288.9 51.8C288.7 51.8 288.8 52.1 288.9 52.1C289.8 52 290.3 52.6 290.6 53.4C290.7 53.5 290.7 53.7 290.7 53.8C290.4 53.5 290.1 53.1 289.8 52.9C289.5 52.6 289.1 52.6 288.8 52.7C288.7 52.8 288.7 53 288.9 53C289.4 52.9 290 53.9 290.3 54.2C290.4 54.4 290.5 54.5 290.5 54.7C290.5 54.7 290.5 54.7 290.4 54.8C290.3 54.5 290 54.2 289.8 53.9C289.5 53.6 289.1 53.3 288.7 53.4C288.4 53.4 288.5 53.8 288.7 53.9C289.2 54.1 289.8 54.8 289.8 55.3C289.8 55.5 289.7 55.7 289.6 55.9C289.6 55.8 289.6 55.7 289.6 55.6C289.6 55.3 289.4 54.9 289.2 54.7C289.1 54.6 289 54.7 289 54.7C288.9 54.6 288.7 54.5 288.5 54.4C288.4 54.4 288.3 54.5 288.3 54.6C288.2 54.6 288.2 54.7 288.2 54.8C288.2 55.1 288 55.3 287.7 55.5C287.9 55.3 287.9 54.9 287.8 54.7C287.7 54.5 287.4 54.6 287.4 54.8C287.4 55 287.3 55.2 287.1 55.4C286.9 55.6 286.7 55.6 286.6 55.8C286.6 55.8 286.6 55.8 286.6 55.9C286.2 55.6 285.8 55.1 285.6 54.4C285.5 54.2 285.2 54.2 285.2 54.4C285.1 56.2 286.5 57.2 288.2 57.3C289 57.4 289.8 57 290.5 56.6C290.6 56.5 290.7 56.5 290.8 56.4C291.4 55.9 291.9 55.3 292.3 54.8C293.1 53.6 293.4 52 293 50.7C291.8 50.5 290.6 50.4 289.3 50.3C289.6 50.1 289.9 50.1 290.2 50.2ZM287 55.9C286.9 55.9 286.9 55.9 286.8 55.9C286.9 55.9 287 55.9 287 55.9C287.1 55.9 287.1 55.8 287 55.9ZM288.2 55.6C288.1 55.7 287.9 56.1 288.1 56.2C287.9 56.2 287.7 56.2 287.6 56.1C288.1 55.8 288.5 55.2 288.5 54.7C288.6 54.7 288.7 54.8 288.8 54.9C288.6 55.2 288.4 55.4 288.2 55.6ZM289 56.1C289 56.1 289 56 289 56.1C289 56 289 56.1 289 56.1Z" fill="#747D88"/>
<path d="M311.4 75.6C311.4 75.6 311.4 75.5 311.5 75.5C311.5 75.8 311.5 76.1 311.6 76.4C311.9 77.9 313.5 78.6 314.6 79.3C314.7 79.4 314.8 79.2 314.8 79.1C314.6 78.7 314.6 78.8 314.3 78.6C313.5 78.1 312.9 77.7 312.5 76.8C312.2 76.1 312.2 75.3 312.5 74.6C312.7 74.3 312.8 74.1 312.8 73.8C313.3 73.4 313.9 73 314.6 72.9C314.6 73 314.6 73.1 314.6 73.2C314.6 73.3 314.7 73.3 314.7 73.3C314.7 73.3 314.7 73.3 314.6 73.3C313.7 73.4 312.9 74.4 312.9 75.3C312.9 75.4 313 75.4 313 75.4C313.1 75.3 313.2 75.3 313.4 75.2C313.3 75.3 313.2 75.5 313.1 75.7C312.9 76.4 313.4 77.1 313.9 77.5C314.1 77.6 314.2 77.7 314.4 77.8C314.3 77.8 314.3 78 314.4 78.1C314.8 78.3 315.2 78.3 315.5 78.2C315.3 78.4 315.1 78.5 314.8 78.6C314.7 78.6 314.7 78.8 314.8 78.8C315.4 78.8 315.9 78.8 316.3 78.2C316.7 77.6 316.8 76.9 316.7 76.3V76.2V76.3C316.8 76.8 316.8 77.5 316.7 78C316.6 78.5 316.4 78.6 316.4 79.1C316.4 79.2 316.4 79.2 316.5 79.2C317.7 79.2 317.7 76.9 317.6 76.2C317.5 74.9 316.4 73.5 315.1 73C315.3 73 315.6 73 315.8 73.1C317.3 73.5 317.9 75.3 318.5 76.5C318.6 76.6 318.8 76.6 318.8 76.4C318.9 74.5 317.4 72.5 315.5 72.2C313.5 71.8 311.3 73.8 311.2 75.7C311.1 75.7 311.4 75.7 311.4 75.6ZM314 74.7C313.8 74.7 313.7 74.8 313.5 74.9C313.6 74.8 313.8 74.6 313.9 74.5C314 74.5 314 74.5 314.1 74.5C314 74.6 314 74.7 314 74.7ZM314.6 77L314.5 77.1H314.4C314.4 77.1 314.5 77.1 314.5 77V76.9L314.6 77ZM314.6 75.6C314.6 75.5 314.6 75.5 314.6 75.6C314.6 75.5 314.6 75.5 314.6 75.6C314.6 75.6 314.6 75.5 314.6 75.6Z" fill="#747D88"/>
<path d="M297.3 61.7998C298.4 62.3998 300 61.5998 300.9 60.8998C301.3 60.5998 301.7 59.7998 301.4 59.2998C301.1 58.7998 300.4 58.5998 299.8 58.7998C299.6 58.8998 299.6 59.1998 299.8 59.1998C300.2 59.1998 300.9 59.4998 300.7 59.9998C300.5 60.3998 300.1 60.5998 299.8 60.7998C299.8 60.7998 299.8 60.7998 299.7 60.7998C299.9 60.6998 300 60.4998 300.1 60.2998C300.2 60.0998 300.2 59.8998 300.2 59.6998C300.2 59.5998 300 59.4998 299.9 59.5998C299.8 59.6998 299.8 59.6998 299.8 59.7998C299.7 59.8998 299.6 59.9998 299.5 60.0998C299.5 60.0998 299.5 60.0998 299.4 60.0998C299.4 59.8998 299.2 59.7998 299 59.8998C298.7 60.0998 298.5 60.1998 298.2 60.1998C298.2 60.1998 298.2 60.0998 298.2 59.9998C298.1 59.8998 298 59.7998 297.9 59.6998C298 59.6998 298.1 59.6998 298.2 59.7998C298.4 59.8998 298.7 59.5998 298.5 59.3998C298.3 59.2998 298.1 59.1998 297.9 59.1998C297.9 59.0998 297.8 58.9998 297.6 59.0998C298.1 59.0998 298.5 59.2998 298.7 59.2998C298.9 59.3998 299.2 59.1998 299.1 58.8998C298.4 57.7998 296.2 57.8998 295.8 59.1998C295.3 60.2998 296.6 61.3998 297.3 61.7998ZM298.8 60.7998C298.8 60.8998 298.9 60.9998 299 60.9998C298.9 60.9998 298.7 61.0998 298.5 61.0998C298.6 61.0998 298.7 60.8998 298.8 60.7998ZM297.7 60.9998C297.8 60.9998 297.9 60.9998 298.1 61.0998C298.1 61.0998 298.1 61.1998 298 61.1998C297.9 61.1998 297.8 61.0998 297.7 60.9998C297.7 60.9998 297.7 61.0998 297.7 60.9998ZM297.2 60.0998C297.3 60.1998 297.3 60.1998 297.2 60.0998C297.3 60.1998 297.2 60.1998 297.2 60.0998C297.2 60.0998 297.2 60.1998 297.2 60.0998ZM296.6 59.1998C296.5 59.3998 296.4 59.4998 296.4 59.6998C296.4 59.6998 296.4 59.6998 296.3 59.6998C296.3 59.3998 296.4 59.1998 296.6 59.1998Z" fill="#747D88"/>
<path d="M335.3 72.6998C335.2 72.7998 335.4 72.9998 335.5 72.8998C335.6 72.7998 335.7 72.7998 335.8 72.6998C335.7 72.5998 335.5 72.3998 335.4 72.2998C335.4 72.3998 335.4 72.5998 335.3 72.6998Z" fill="#747D88"/>
<path d="M266.7 53.8002C266.7 53.8002 266.7 53.9002 266.6 53.9002C266.6 54.0002 266.6 54.0002 266.6 54.1002C265 59.8002 264.9 65.7002 266.2 71.5002C266.2 71.7002 266.3 71.9002 266.4 72.2002C266.2 72.4002 266.2 72.5002 266.2 73.0002C266.2 74.0002 265.5 74.6002 265.2 75.5002C264.9 76.3002 265.6 77.3002 266 77.9002C266.7 79.0002 267.1 80.3002 267.9 81.3002C268.2 81.7002 268.7 82.0002 269.2 82.2002C270.1 82.6002 270.7 83.0002 271.3 83.5002C272.6 85.5002 274.2 87.5002 276 89.2002C280.3 93.5002 285.7 96.7002 291.6 98.4002C292.1 98.9002 292.5 99.3002 292.9 99.9002C293.1 100.3 293.4 100.8 293.8 101C294.9 101.6 296.1 101.5 297.3 101.4C299.1 101.2 300.8 101.9 302.6 102C303.9 102.1 304.4 100.4 305.3 99.8002C305.4 99.7002 305.5 99.6002 305.5 99.5002C311.7 98.8002 317.7 96.5002 322.7 92.8002C323.5 92.6002 323.7 93.0002 324.4 93.1002C325.3 93.2002 325.9 92.5002 326.4 91.8002C327 91.1002 327.9 90.4002 328.4 89.7002C329 88.8002 329 87.7002 329.3 86.7002C330.3 85.5002 331.2 84.2002 332.1 82.9002C332.6 82.5002 333.1 82.2002 333.8 82.0002C334.4 81.9002 334.8 81.7002 335.3 81.4002C336.4 80.6002 336.5 78.9002 336.7 77.7002C336.9 76.7002 337.4 75.9002 337.9 75.0002C337.7 74.7002 337.5 74.5002 337.3 74.3002C336.9 75.4002 336.2 76.5002 336 77.2002C335.4 78.9002 335.9 80.7002 333.7 81.3002C333.1 81.5002 332.7 81.7002 332.3 82.0002C332.5 81.7002 332.6 81.4002 332.7 81.2002C333 80.7002 333.4 79.9002 333 79.4002C333 79.3002 332.9 79.4002 332.8 79.4002C332.6 80.0002 332.2 80.6002 331.8 81.2002C331.5 81.6002 331.2 82.1002 330.9 82.5002C330.6 82.9002 330.3 83.1002 330.3 83.6002V83.7002C329.1 85.4002 327.8 87.0002 326.3 88.5002C320.6 94.2002 313 97.8002 305 98.6002C304.8 98.6002 304.7 98.6002 304.5 98.6002C303.6 98.6002 302.7 98.4002 301.8 98.6002C301.7 98.6002 301.7 98.8002 301.8 98.8002C302.2 98.9002 302.6 99.1002 303.1 99.2002C303.5 99.3002 304.1 99.3002 304.5 99.4002C304 99.7002 303.7 100.2 303.3 100.8C302.5 101.8 298.9 100.4 297.7 100.5C296.2 100.6 294.5 101 293.6 99.5002C293.1 98.7002 292.7 98.2002 292 98.0002C292.8 98.2002 293.5 98.3002 294.3 98.3002C294.4 98.3002 294.4 98.2002 294.3 98.2002C293.5 97.9002 292.6 97.6002 291.8 97.3002C291.2 97.1002 290.5 96.9002 289.9 96.8002C285 95.1002 280.5 92.2002 276.8 88.5002C267.2 78.9002 264 65.1002 268.5 52.3002C268.6 52.1002 268.7 51.9002 268.8 51.7002C268.2 51.8002 267.7 52.0002 267.1 52.1002C267.2 52.4002 267.2 52.7002 267.2 53.0002C266.8 53.2002 266.7 53.5002 266.7 53.8002ZM326.8 89.2002C327.3 88.7002 327.7 88.3002 328.1 87.8002C328.1 88.1002 328.1 88.4002 327.9 88.9002C327.7 89.4002 326.9 89.9002 326.5 90.3002C325.7 91.2002 325.1 92.6002 323.6 92.1002C324.7 91.2002 325.8 90.2002 326.8 89.2002ZM266.9 74.3002C267.7 76.9002 268.8 79.3002 270.1 81.6002C269.4 81.3002 268.8 81.2002 268.3 80.4002C267.9 79.9002 267.8 79.2002 267.5 78.7002C266.8 77.4002 265.4 76.3002 266.5 74.9002C266.7 74.7002 266.8 74.5002 266.9 74.3002Z" fill="#747D88"/>
<path d="M326.5 90.2998C326.9 89.8998 327.7 89.4998 327.9 88.8998C328.1 88.3998 328.1 88.0998 328.1 87.7998C327.7 88.2998 327.2 88.6998 326.8 89.1998C325.8 90.1998 324.7 91.1998 323.5 92.0998C325.1 92.5998 325.7 91.1998 326.5 90.2998Z" fill="#747D88"/>
<path d="M267.5 78.6998C267.8 79.1998 267.9 79.9998 268.3 80.3998C268.8 81.0998 269.4 81.2998 270.1 81.5998C268.8 79.2998 267.7 76.7998 266.9 74.2998C266.8 74.4998 266.7 74.6998 266.5 74.8998C265.4 76.2998 266.8 77.3998 267.5 78.6998Z" fill="#747D88"/>
<path d="M311.3 91.4999C311.1 91.4999 311 91.4999 310.8 91.4999C311.3 91.3999 311.8 91.3999 312.2 91.3999C312.3 91.3999 312.4 91.1999 312.3 91.1999C312.7 91.1999 313.1 91.2999 313.5 91.3999C313.6 91.3999 313.7 91.1999 313.6 91.1999C313.2 90.8999 312.6 90.6999 312.1 90.6999C312.6 90.6999 313.1 90.6999 313.5 90.9999C313.6 91.0999 313.9 90.9999 313.8 90.7999C313.7 90.5999 313.6 90.4999 313.4 90.3999C313.5 90.3999 313.7 90.4999 313.8 90.4999C314 90.5999 314.1 90.6999 314.3 90.7999C314.3 90.7999 314.9 90.4999 314 90.9999C313.9 90.9999 314 91.1999 314.1 91.0999C314.4 90.9999 314.5 90.9999 314.7 90.9999C314.8 90.9999 314.8 90.9999 314.8 90.8999C314.7 91.0999 314.7 91.2999 314.6 91.4999C314.2 91.7999 313.8 92.1999 313.3 92.3999C313.1 92.4999 313.3 92.7999 313.5 92.6999C314.7 91.9999 315.5 91.7999 315.9 90.3999C316.1 89.6999 315.6 89.0999 315 88.7999C313.3 87.8999 309.8 88.7999 308.2 89.4999C306.9 90.0999 303.9 91.7999 305.3 93.5999C306.4 95.0999 310 94.4999 311.2 93.6999C311.5 93.4999 311.3 93.0999 311 93.1999C309.8 93.4999 308.8 93.7999 307.5 93.6999C306.4 93.6999 305.3 92.5999 306.2 91.5999C306.7 90.9999 307.5 90.6999 308.1 90.2999C309.3 89.6999 310.8 89.3999 312.1 89.1999C312.7 89.0999 313.2 89.0999 313.8 89.0999C314.7 89.0999 315 89.4999 314.8 90.4999C314.8 90.3999 314.8 90.3999 314.7 90.3999C313.9 89.4999 312.7 89.2999 311.6 89.5999C310.2 89.8999 308.4 90.4999 307.7 91.7999C307.6 91.8999 307.7 92.0999 307.8 92.1999C308.4 92.8999 309.6 92.6999 310.5 92.4999C310.7 92.4999 310.9 92.4999 311.1 92.4999C311.4 92.5999 311.5 92.1999 311.2 92.0999C311.3 91.9999 311.3 91.7999 311.1 91.7999C310.7 91.6999 310.2 91.7999 309.8 91.7999C309.7 91.7999 309.6 91.7999 309.5 91.7999C309.6 91.7999 309.7 91.6999 309.8 91.6999C310.3 91.5999 310.9 91.4999 311.4 91.4999C311.5 91.7999 311.5 91.4999 311.3 91.4999Z" fill="#747D88"/>
<path d="M313.8 88.3C314.4 88.2 315.1 88.3 315.7 88.4C316.8 88.7 317.7 89.9 316.8 90.9C316.7 91 316.9 91.2 317 91.1C318.1 90.1 317.5 88.4 316.1 88C314.6 87.5 312.3 87.6 310.8 88.4C310.7 88.5 310.7 88.6 310.8 88.6C311.8 88.8 312.8 88.4 313.8 88.3Z" fill="#747D88"/>
<path d="M295.9 93.1001C295.7 93.1001 295.7 93.4001 295.8 93.5001C296.4 93.9001 297 93.9001 297.3 94.7001C297.6 95.5001 297 96.1001 296.3 96.3001C295.5 96.6001 294.4 96.4001 293.6 96.6001C293.4 96.7001 293.5 97.0001 293.7 96.9001C294.6 96.8001 295.4 97.2001 296.3 97.0001C297 96.9001 297.6 96.5001 298 95.9001C298.7 94.6001 297.4 92.8001 295.9 93.1001Z" fill="#747D88"/>
<path d="M293.5 94.0002C293.3 93.9002 293.1 93.8002 293 93.7002C293.4 93.8002 293.8 93.9002 294.1 94.0002C294.3 94.1002 294.5 93.9002 294.3 93.7002L294.2 93.6002C294.4 93.7002 294.6 93.8002 294.7 93.9002C294.8 94.0002 294.9 93.9002 294.8 93.8002C294.8 93.8002 294.8 93.7002 294.7 93.7002C295.1 94.0002 295.6 94.3002 296 94.6002C296.1 94.7002 296.4 94.5002 296.3 94.3002C295.6 93.3002 294.3 92.6002 293.1 92.4002C292.3 92.2002 290.8 92.3002 290.3 93.1002C289.4 94.4002 292.1 95.9002 293.2 95.7002C293.3 95.7002 293.3 95.5002 293.3 95.5002C293.1 95.3002 292.6 95.0002 292.1 94.7002C292.1 94.7002 292.1 94.7002 292.1 94.6002C292.2 94.6002 292.3 94.7002 292.4 94.7002C292.5 94.8002 292.6 94.7002 292.6 94.6002C292.7 94.6002 292.9 94.6002 293 94.7002C293.1 94.7002 293.2 94.7002 293.2 94.6002C293.3 94.6002 293.3 94.4002 293.2 94.3002C292.9 94.1002 292.6 94.0002 292.3 93.8002C292.7 93.9002 293.1 94.0002 293.5 94.1002C293.5 94.3002 293.6 94.1002 293.5 94.0002Z" fill="#747D88"/>
<path d="M295.7 91.4998C295.8 91.4998 295.8 91.3998 295.8 91.3998C294.3 90.0998 289.9 89.3998 288.8 91.4998C288.7 91.7998 289 92.0998 289.2 91.8998C290.3 91.1998 291.1 90.7998 292.4 90.8998C293.4 90.8998 294.6 91.1998 295.7 91.4998Z" fill="#747D88"/>
<path d="M279.8 87.5998C278.8 86.7998 278.7 85.6998 278.1 84.5998C277.7 83.7998 276.4 83.2998 275.8 82.6998C275.4 82.3998 275.1 82.0998 274.6 82.1998C273.7 82.3998 273.7 83.7998 274 84.4998C274.6 85.6998 275.6 86.7998 276.9 87.1998C277 87.1998 277.2 87.1998 277.3 87.0998C277.4 86.9998 277.5 86.7998 277.6 86.6998C277.7 86.5998 277.6 86.3998 277.5 86.2998C277.4 86.0998 277.2 85.8998 277.1 85.6998C277 85.3998 276.5 85.5998 276.6 85.8998C276.7 86.0998 276.7 86.1998 276.7 86.2998C276.1 86.1998 275.3 85.0998 275 84.6998C274.5 83.9998 274.7 82.8998 275.6 83.5998C276.4 84.1998 277.3 84.5998 277.7 85.5998C278.6 87.8998 280.5 89.0998 282.8 89.9998C282.9 89.9998 282.9 89.8998 282.9 89.8998C281.8 89.0998 280.7 88.3998 279.8 87.5998Z" fill="#747D88"/>
<path d="M305.5 72.9998C306.1 71.4998 303.9 70.2998 302.6 70.2998C300.3 70.2998 298.1 72.1998 297 73.8998C296.9 73.9998 297 74.0998 297.1 74.1998C296.8 74.8998 296.9 75.5998 297.6 76.0998C297.7 76.1998 297.8 76.0998 297.8 75.9998C297.9 75.3998 297.6 74.8998 297.9 74.2998C298.2 73.6998 298.7 73.1998 299.3 72.6998C298.6 73.2998 298.1 74.0998 298.4 74.8998C298.5 74.9998 298.6 74.9998 298.7 74.8998C298.7 74.4998 299.1 74.0998 299.5 73.6998C299.4 73.7998 299.3 73.9998 299.3 74.1998C299.2 74.2998 299.4 74.3998 299.5 74.3998C300 74.1998 300.4 73.6998 300.9 73.4998C301.3 73.2998 302.3 72.8998 302.6 73.3998C302.7 73.5998 302.5 74.1998 302.7 74.2998C302.6 74.3998 302.5 74.4998 302.5 74.5998C302.4 74.6998 302.6 74.8998 302.7 74.7998C303.7 74.1998 304.6 73.3998 304.1 72.0998C304 71.6998 303.7 71.4998 303.4 71.2998C304.1 71.5998 304.6 72.3998 305 72.9998C305.2 73.0998 305.4 73.1998 305.5 72.9998ZM300.5 71.9998C301.1 71.5998 301.7 71.4998 302.2 71.5998C301.6 71.5998 301 71.7998 300.5 71.9998Z" fill="#747D88"/>
<path d="M301.4 69.4C300.7 69.5 300.1 69.9 299.9 70.5C299.9 70.6 299.9 70.8 300.1 70.7C300.6 70.5 301 70.3 301.5 70.1C301.8 70 302.1 70 302.4 70C302.7 70 302.8 70.1 303.1 70C303.2 70 303.2 69.8 303.2 69.7C302.8 69.2 301.9 69.3 301.4 69.4Z" fill="#747D88"/>
<path d="M272.3 55.5002C272.4 54.7002 272 52.5002 273.4 52.6002C273.5 52.6002 273.5 52.5002 273.4 52.5002C273 52.1002 272.4 52.2002 272.1 52.7002C271.4 54.0002 271.6 55.5002 271.1 56.8002C270.7 57.9002 269.9 58.0002 269.4 59.0002C269 59.7002 269 60.5002 268.7 61.3002C268 63.4002 268.8 65.1002 269.5 67.0002C269.6 67.2002 269.9 67.2002 269.9 67.0002C269.8 65.7002 269.4 64.4002 269.2 63.1002C269.1 61.5002 270 59.5002 271 58.5002C271.8 57.8002 272.1 56.5002 272.3 55.5002Z" fill="#747D88"/>
<path d="M272.2 59.8999C272 59.9999 271.9 60.1999 271.8 60.3999C271.7 60.6999 271.5 60.8999 271.3 61.1999C271 61.6999 271 62.1999 271.2 62.6999C271.3 62.7999 271.4 62.6999 271.4 62.5999C271.5 62.0999 271.7 61.5999 271.9 61.0999C272.1 60.7999 272.5 60.2999 272.3 59.8999C272.4 59.8999 272.2 59.8999 272.2 59.8999Z" fill="#747D88"/>
<path d="M324.6 65.1999C325 66.0999 325.1 66.9999 325 67.8999C325 69.1999 324.2 69.9999 323.6 71.0999C323.5 71.2999 323.7 71.3999 323.9 71.3999C325.2 70.6999 325.6 68.9999 325.6 67.5999C325.6 66.8999 325.5 66.0999 325.3 65.4999C325 64.7999 324.3 63.6999 324.8 62.9999L324.7 62.8999C324 63.4999 324.3 64.3999 324.6 65.1999Z" fill="#747D88"/>
<path d="M326.6 84.2998C325.7 85.3998 325.1 86.5998 324 87.4998L323.9 87.5998C324.1 87.1998 324.2 86.8998 324.2 86.3998C324.2 86.1998 323.9 86.1998 323.9 86.3998C323.8 87.7998 322.2 88.6998 321.2 89.3998C320.8 89.6998 320.5 89.8998 320.2 90.1998C319.9 90.2998 319.7 90.4998 319.4 90.5998C318.4 90.9998 317.6 91.5998 316.7 92.2998C315.3 93.4998 313.6 94.3998 312.1 95.3998C311.8 95.5998 312.1 95.9998 312.4 95.8998C313.7 95.1998 315.1 94.4998 316.3 93.5998C317.1 92.9998 317.8 92.3998 318.6 91.7998C318.9 91.5998 319.3 91.3998 319.7 91.2998C319.7 91.3998 319.8 91.4998 319.9 91.3998C320 91.2998 320.2 91.1998 320.3 91.0998C320.7 90.9998 321 90.7998 321.4 90.6998C322.7 90.0998 323.7 88.9998 324.8 87.9998C325.9 86.9998 327 85.8998 327.2 84.3998C327 84.2998 326.7 83.9998 326.6 84.2998Z" fill="#747D88"/>
<path d="M221.1 179.8C225.2 183.8 229.6 187.4 234.3 190.5C239.1 193.6 244.1 196.2 249.4 198.3C260 202.4 271.3 204.2 282.5 204C288.1 203.8 293.7 203.1 299.1 201.9C300.5 201.6 301.8 201.3 303.2 200.9C304.5 200.5 305.9 200.1 307.2 199.7C308.5 199.3 309.9 198.9 311.2 198.4C312.5 197.9 313.8 197.4 315.1 196.9C320.2 194.7 325.1 192.1 329.8 189C334.4 185.9 338.8 182.4 342.8 178.5C350.8 170.8 357.4 161.4 361.9 151.1C364.2 146 365.9 140.6 367.1 135.1C368.3 129.6 368.9 123.9 369 118.3C369.1 107 366.8 95.6 362.4 85.2C358 74.8 351.4 65.4 343.3 57.6C335.2 49.8 325.6 43.7 315.2 39.6C304.8 35.5 293.7 33.4 282.6 33.5C271.5 33.6 260.4 35.9 250.2 40.2C245.1 42.4 240.2 45 235.6 48.1C231 51.2 226.7 54.7 222.8 58.6C207 74.1 197.7 95.9 197 118.4C196.7 129.6 198.5 141 202.6 151.5C204.6 156.8 207.3 161.9 210.3 166.6C213.5 171.4 217.1 175.8 221.1 179.8ZM220.7 180.2C216.6 176.2 213 171.7 209.7 167C206.4 162.3 203.7 157.2 201.3 152C196.7 141.5 194 130 193.7 118.4C193.4 106.8 195.4 95 199.8 84.1C204.1 73.2 210.8 63.2 219.1 54.8C227.4 46.5 237.4 39.8 248.3 35.4C259.2 31 271 28.7 282.7 28.8C294.4 28.9 306.1 31.3 316.8 35.9C327.5 40.5 337.2 47.4 345.3 55.7C349.3 59.9 352.9 64.4 356.1 69.3C359.2 74.2 361.9 79.3 364.1 84.6C368.4 95.3 370.7 106.8 370.8 118.3C370.8 124.1 370.4 129.8 369.3 135.5C368.3 141.2 366.7 146.8 364.6 152.2C360.4 163 354 173 345.9 181.4C337.7 189.8 327.8 196.5 317 200.9C315.6 201.5 314.3 201.9 312.9 202.4C311.5 202.9 310.1 203.3 308.7 203.7C307.3 204.1 305.9 204.4 304.5 204.8C303.1 205.1 301.6 205.4 300.2 205.7C294.5 206.8 288.6 207.1 282.8 207C271.2 206.7 259.7 204 249.2 199.4C243.9 197.1 238.9 194.3 234.2 191C229.2 187.9 224.8 184.3 220.7 180.2Z" fill="#747D88"/>
<path d="M220 100H204.3V141.9H220V100Z" fill="white"/>
<path d="M210.1 111.2C210.1 110.4 209.5 109.8 208.9 109.6C208.3 109.4 207.8 109.3 207.3 109.1C206.8 109 206 108.9 205.5 109.4C205 109.8 204.8 110.6 205 111.2C205.2 111.8 205.6 112.3 206 112.6C206.4 112.9 206.9 113 207.4 113.1C207.9 113.1 208.4 113 209 112.8C209.5 112.6 210.1 112 210.1 111.2ZM210.3 111.2C210.3 112 210.3 112.9 209.8 113.7C209.6 114.1 209.2 114.5 208.7 114.8C208.2 115 207.7 115.2 207.2 115.2C205 115.3 203.2 113.1 203.7 111.2C203.9 110.3 204.3 109.5 204.9 108.9C205.4 108.3 206.2 107.6 207.2 107.4C208.2 107.3 209.3 107.8 209.7 108.6C210.3 109.5 210.3 110.4 210.3 111.2Z" fill="#747D88"/>
<path d="M210.1 132.4C210.1 131.6 209.5 131 208.9 130.8C208.3 130.6 207.8 130.5 207.3 130.3C206.8 130.2 206 130.1 205.5 130.6C205 131 204.8 131.8 205 132.4C205.2 133 205.6 133.5 206 133.8C206.4 134.1 206.9 134.2 207.4 134.3C207.9 134.3 208.4 134.2 209 134C209.5 133.8 210.1 133.1 210.1 132.4ZM210.3 132.4C210.3 133.2 210.3 134.1 209.8 134.9C209.6 135.3 209.2 135.7 208.7 136C208.2 136.2 207.7 136.4 207.2 136.4C205 136.5 203.2 134.3 203.7 132.4C203.9 131.5 204.3 130.7 204.9 130.1C205.4 129.5 206.2 128.8 207.2 128.6C208.2 128.5 209.3 129 209.7 129.8C210.3 130.7 210.3 131.6 210.3 132.4Z" fill="#747D88"/>
<path d="M242 121.2C242 120.4 241.4 119.8 240.8 119.6C240.2 119.4 239.7 119.3 239.2 119.1C238.7 119 237.9 118.9 237.4 119.4C236.9 119.8 236.7 120.6 236.9 121.2C237.1 121.8 237.5 122.3 237.9 122.6C238.3 122.9 238.8 123 239.3 123.1C239.8 123.1 240.3 123 240.9 122.8C241.4 122.6 242.1 122 242 121.2ZM242.2 121.2C242.2 122 242.2 122.9 241.7 123.7C241.5 124.1 241.1 124.5 240.6 124.8C240.1 125 239.6 125.2 239.1 125.2C236.9 125.3 235.1 123.1 235.6 121.2C235.8 120.3 236.2 119.5 236.8 118.9C237.3 118.3 238.1 117.6 239.1 117.4C240.1 117.3 241.2 117.8 241.6 118.6C242.2 119.5 242.2 120.4 242.2 121.2Z" fill="#747D88"/>
<path d="M252 121.2C252 120.4 251.4 119.8 250.8 119.6C250.2 119.4 249.7 119.3 249.2 119.1C248.7 119 247.9 118.9 247.4 119.4C246.9 119.8 246.7 120.6 246.9 121.2C247.1 121.8 247.5 122.3 247.9 122.6C248.3 122.9 248.8 123 249.3 123.1C249.8 123.1 250.3 123 250.9 122.8C251.4 122.6 252.1 122 252 121.2ZM252.2 121.2C252.2 122 252.2 122.9 251.7 123.7C251.5 124.1 251.1 124.5 250.6 124.8C250.1 125 249.6 125.2 249.1 125.2C246.9 125.3 245.1 123.1 245.6 121.2C245.8 120.3 246.2 119.5 246.8 118.9C247.3 118.3 248.1 117.6 249.1 117.4C250.1 117.3 251.2 117.8 251.6 118.6C252.2 119.5 252.2 120.4 252.2 121.2Z" fill="#747D88"/>
<path d="M228.9 133.8V141.8H208.9C204.3 141.8 200.5 138 200.5 133.4V109C200.5 104.4 204.3 100.6 208.9 100.6H228.9V108.6C229.1 108.6 229.3 108.6 229.5 108.7V100H208.9C203.9 100 199.9 104 199.9 109V133.3C199.9 138.3 203.9 142.3 208.9 142.3H229.5V133.7C229.3 133.8 229.1 133.8 228.9 133.8Z" fill="#747D88"/>
<path d="M232.4 129.2V113.3L254.8 116C256.8 116.2 258.3 117.8 258.3 119.8V122.2C258.3 124.2 256.8 125.8 254.9 126L232.4 129.2ZM233 113.9V128.5L254.8 125.4C256.5 125.2 257.7 123.8 257.7 122.1V119.7C257.7 118 256.4 116.6 254.7 116.4L233 113.9Z" fill="#747D88"/>
<path d="M228.6 133.8H225.2C222.9 133.8 221 131.9 221 129.6V112.7C221 110.4 222.9 108.5 225.2 108.5H228.6C230.9 108.5 232.8 110.4 232.8 112.7V129.6C232.7 132 230.9 133.8 228.6 133.8ZM225.1 109.1C223.1 109.1 221.5 110.7 221.5 112.7V129.6C221.5 131.6 223.1 133.2 225.1 133.2H228.5C230.5 133.2 232.1 131.6 232.1 129.6V112.7C232.1 110.7 230.5 109.1 228.5 109.1H225.1Z" fill="#747D88"/>
<path d="M364.3 160.3H340.8C337.3 160.3 334.4 157.4 334.4 153.9V137.6C334.4 134.1 337.3 131.2 340.8 131.2H364.3C367.8 131.2 370.7 134.1 370.7 137.6V154C370.7 157.5 367.8 160.3 364.3 160.3Z" fill="#747D88"/>
<path d="M340.2 131.4H343.7C343.6 130.7 343.5 130.1 343.5 129.4C343.5 123.8 347.4 119.2 352.1 119.2C356.8 119.2 360.7 123.8 360.7 129.4C360.7 130.1 360.6 130.8 360.5 131.4H364.9C365 131.4 365 131.4 365.1 131.4C365.2 130.7 365.2 130 365.2 129.4C365.2 121.3 359.3 114.7 352.1 114.7C344.9 114.7 339 121.3 339 129.4C339 130.1 339.1 130.8 339.2 131.5C339.5 131.4 339.8 131.4 340.2 131.4Z" fill="#747D88"/>
<path d="M355.7 142.7C355.7 140.7 354.1 139.1 352.1 139.1C350.1 139.1 348.5 140.7 348.5 142.7C348.5 144.1 349.3 145.3 350.5 145.9L349.4 151.8H354.8L353.7 145.9C354.9 145.3 355.7 144.1 355.7 142.7Z" fill="white"/>
<path d="M385 106.4C390.1 106.4 394.3 110.6 394.3 115.7V122.5C394.3 127.6 390.1 131.8 385 131.8H318.4C313.3 131.8 309.1 127.6 309.1 122.5V115.7C309.1 110.6 313.3 106.4 318.4 106.4H385V106.4ZM385 101.9H318.4C310.8 101.9 304.6 108.1 304.6 115.7V122.5C304.6 130.1 310.8 136.3 318.4 136.3H385C392.6 136.3 398.8 130.1 398.8 122.5V115.7C398.8 108.1 392.6 101.9 385 101.9Z" fill="#747D88"/>
<path d="M356.7 122.4C355.9 122.4 355.2 121.7 355.2 120.9V113.9C355.2 113.1 355.9 112.4 356.7 112.4C357.5 112.4 358.2 113.1 358.2 113.9V120.9C358.2 121.7 357.5 122.4 356.7 122.4Z" fill="#747D88"/>
<path d="M348.7 122.4C347.9 122.4 347.2 121.7 347.2 120.9V113.9C347.2 113.1 347.9 112.4 348.7 112.4C349.5 112.4 350.2 113.1 350.2 113.9V120.9C350.2 121.7 349.5 122.4 348.7 122.4Z" fill="#747D88"/>
</svg>
