<svg width="567" height="305" viewBox="0 0 567 305" fill="none" xmlns="http://www.w3.org/2000/svg">
<path d="M151.8 160.2H125.1V194.6H88.1V160.2H0V134.7L77.2 30.7998H117L45.4 129.3H89.4V98.6998H125.2V129.3H151.9V160.2H151.8Z" fill="#747D88"/>
<path d="M566.4 160.2H539.7V194.6H502.7V160.2H414.5V134.7L491.7 30.7998H531.5L460 129.3H504V98.6998H539.8V129.3H566.5V160.2H566.4Z" fill="#747D88"/>
<path d="M282.8 2.80021C284.4 2.10021 287 2.90021 288.7 2.80021C292.3 2.60021 296.7 0.800211 298.7 5.20021L298.8 5.30021C294.5 4.80021 290.1 4.50021 285.7 4.50021C283.8 4.50021 281.9 4.60021 279.9 4.70021C280.6 4.10021 281.2 3.50021 282.8 2.80021Z" fill="white"/>
<path d="M188.2 58.2001C190.3 55.2001 191.8 52.5001 195.1 50.7001C196 50.2001 197 49.6001 198 49.1001C193.1 55.8001 189 63.0001 185.8 70.6001C185.6 70.3001 185.5 70.0001 185.3 69.6001C182.7 65.3001 185.8 61.6001 188.2 58.2001Z" fill="white"/>
<path d="M228.5 210.6C225.3 208.7 223.1 207.3 221.3 204C220.4 202.4 219.8 200.7 219.1 199.1C220.6 200.2 222 201.3 223.5 202.4C228.7 206 234.2 209.2 239.9 211.8C235.4 214.1 232.8 213.1 228.5 210.6Z" fill="white"/>
<path d="M391.9 148.1C391.7 149.8 390.4 151.7 389.8 153.4C388.5 157.6 389.1 163 383.7 163.6C383 163.7 382.3 163.9 381.6 164.1C385.4 157 388.4 149.4 390.5 141.7C391.3 143.8 392.2 145.4 391.9 148.1Z" fill="white"/>
<path d="M243.7 33.8998C245.9 32.5998 249.2 29.9998 249.2 27.0998C249.2 24.9998 248.4 22.7998 245.9 23.3998C245.8 23.3998 245.8 23.5998 245.9 23.5998C248.7 23.6998 248.5 25.5998 247.5 27.4998C247.3 25.9998 246.4 24.5998 245 23.7998C241.6 21.7998 238.4 25.0998 235.6 26.6998C233.3 27.9998 222.5 33.4998 226.6 37.5998C230.9 41.9998 239.5 36.2998 243.7 33.8998ZM245.4 26.9998C245.7 27.5998 245.8 28.4998 245.5 29.6998C245.4 29.8998 245.5 30.0998 245.6 30.2998C245.4 30.4998 245.3 30.5998 245.2 30.7998C245.6 29.5998 245.6 28.1998 245.4 26.9998ZM243.2 25.5998C243.7 25.5998 244.1 25.7998 244.5 25.9998C244.4 26.0998 244.3 26.0998 244.3 26.1998C244.2 25.5998 243.5 25.5998 243.2 25.8998C243.1 25.7998 243.2 25.6998 243.2 25.5998ZM243 31.4998C243.1 31.6998 243.2 31.8998 243.4 31.9998C243.2 32.0998 242.9 32.2998 242.7 32.3998C242.8 32.0998 242.9 31.7998 243 31.4998ZM242.2 25.5998C242.1 25.8998 242 26.1998 241.9 26.4998C241.5 26.6998 241.2 26.9998 240.9 27.2998C240.9 26.9998 240.9 26.7998 240.9 26.4998C240.9 26.1998 240.7 26.0998 240.5 25.9998C241 25.7998 241.6 25.6998 242.2 25.5998ZM240.5 32.7998C240.5 32.9998 240.5 33.1998 240.6 33.3998C240.4 33.4998 240.3 33.4998 240.1 33.5998C240.3 33.3998 240.4 33.0998 240.5 32.7998ZM239.5 31.0998C239.4 31.2998 239.3 31.4998 239.2 31.5998V31.6998C239.2 31.4998 239.3 31.2998 239.5 31.0998C239.4 31.0998 239.5 31.0998 239.5 31.0998ZM239 26.7998C239.1 26.6998 239.2 26.5998 239.4 26.5998C239.4 26.6998 239.4 26.6998 239.4 26.7998C239.4 27.7998 238.8 28.7998 238.2 29.6998C238.4 29.0998 238.4 28.3998 238.2 27.6998C238.2 27.5998 238.1 27.4998 238.1 27.4998C238.4 27.2998 238.7 26.9998 239 26.7998ZM236.3 35.4998C235.8 35.6998 235.4 35.8998 234.9 36.0998C235.2 34.7998 236.1 33.6998 236.9 32.4998C236.4 33.3998 236.1 34.4998 236.3 35.4998ZM233.7 32.0998C233.7 31.8998 233.8 31.7998 233.8 31.5998C233.9 31.4998 233.9 31.3998 234 31.3998C234.2 31.0998 234.1 30.7998 233.9 30.6998C233.9 30.3998 233.9 30.1998 233.9 29.8998C234.1 29.7998 234.3 29.6998 234.5 29.4998C235.2 29.0998 235.8 28.6998 236.5 28.3998C236 29.5998 235.5 30.5998 234.7 31.6998C234.2 32.3998 233.8 32.9998 233.4 33.6998C233.6 33.1998 233.7 32.6998 233.7 32.0998ZM232.8 36.4998C232.8 36.4998 232.8 36.5998 232.9 36.5998C232.8 36.5998 232.7 36.5998 232.7 36.6998C232.7 36.5998 232.7 36.5998 232.8 36.4998ZM231.4 31.6998C231.5 31.5998 231.5 31.4998 231.5 31.3998C231.7 31.2998 231.9 31.0998 232.1 30.9998C232.1 31.1998 232 31.3998 231.9 31.5998C231.7 31.7998 231.5 31.9998 231.3 32.2998C231.2 32.4998 231 32.6998 230.9 32.8998C231 32.4998 231.1 32.0998 231.4 31.6998ZM229.8 36.2998C229.8 36.0998 229.8 35.9998 229.9 35.9998C230 35.9998 230 35.9998 230.1 35.9998C230.2 36.1998 230.3 36.2998 230.5 36.3998C230.4 36.6998 230.4 36.8998 230.5 37.0998C230.3 37.0998 230 37.0998 229.8 36.9998C229.8 36.6998 229.9 36.4998 229.8 36.2998ZM229.1 33.3998C229.1 33.4998 229.1 33.4998 229.1 33.5998C228.8 33.9998 228.5 34.4998 228.3 34.9998C228.3 34.8998 228.2 34.6998 228.2 34.5998C228.4 34.0998 228.7 33.7998 229.1 33.3998Z" fill="#747D88"/>
<path d="M260.5 28.7001C260.2 30.6001 258.9 32.0001 257.4 33.1001C256.6 33.7001 255.8 34.3001 254.9 34.8001C254.3 35.2001 253.4 35.4001 253.1 36.1001C253 36.4001 253.1 36.7001 253.4 36.7001C254.2 36.9001 255 36.4001 255.7 36.0001C256.8 35.4001 257.8 34.6001 258.7 33.8001C260.1 32.5001 261.6 30.7001 261.1 28.7001C261 28.4001 260.5 28.4001 260.5 28.7001Z" fill="#747D88"/>
<path d="M217.2 45.9999C217.3 46.1999 217.4 46.2999 217.5 46.3999C223.3 50.6999 230.1 49.1999 236.5 46.9999C240.1 45.7999 243.7 43.9999 246.8 41.8999C249.6 39.9999 251.1 37.2999 253.3 34.9999C253.5 34.7999 253.2 34.4999 253 34.6999C251 36.3999 249.3 38.2999 247.2 39.8999C244.4 41.9999 240.7 43.0999 237.5 44.2999C237.4 44.3999 237.2 44.3999 237.1 44.3999H237C240.1 43.4999 242.9 41.7999 245.6 39.3999C245.8 39.1999 245.6 38.7999 245.3 38.8999C242.2 40.0999 239.7 42.0999 236.4 43.0999C235.9 43.1999 235.4 43.2999 235 43.3999C235.9 42.9999 236.7 42.3999 237.6 41.7999C237.8 41.5999 237.6 41.1999 237.4 41.3999C235.3 42.6999 232.5 42.9999 230 43.1999C233.2 42.5999 236.3 41.5999 237.7 40.9999C242.5 39.0999 247.1 36.2999 251.2 33.2999C251.3 33.4999 251.5 33.5999 251.7 33.4999C254 32.4999 263.7 28.3999 259.8 24.2999C257.8 22.1999 254.7 21.8999 252 21.3999C248.4 20.7999 243.5 20.0999 240.1 21.6999C239.9 21.7999 240.1 21.9999 240.2 21.9999C243.2 21.4999 247.1 22.2999 250.1 22.6999C252.4 22.9999 254.8 23.3999 257 24.3999C260.9 26.1999 257.1 28.7999 254.1 30.7999C255.2 29.4999 255.7 27.8999 255.4 25.8999C255.4 25.7999 255.3 25.8999 255.3 25.8999C254 31.2999 246.1 34.3999 241.7 36.7999C237.2 39.2999 223.9 46.0999 221.7 37.6999C221.6 37.2999 221 37.2999 220.9 37.6999C219.5 41.7999 221.5 43.2999 224.5 43.5999C224.4 43.6999 224.3 43.6999 224.2 43.7999C224 43.9999 223.9 44.1999 224 44.4999C223.9 44.4999 223.9 44.4999 223.8 44.3999C222.7 43.8999 222 45.1999 222.9 45.9999C220.7 45.2999 218.8 43.9999 216.5 42.9999C215.6 42.5999 214.8 43.5999 215.4 44.3999C215.9 44.8999 216.5 45.4999 217.2 45.9999Z" fill="#747D88"/>
<path d="M258.5 198.2C262.4 196.3 264.1 192.3 264.4 188.2C264.4 188 264.1 188 264.1 188.2C263.7 189.6 262.9 191.2 261.7 192.7C261.5 192.6 261.3 192.6 261.2 192.7C260.4 193.5 259.2 194.3 257.8 194.9C257.5 195 257.1 195.1 256.8 195.2C255.5 195.5 254.2 195.6 253.2 195C251.9 194.3 251.6 192.7 251.1 191.4C250.8 188 252.8 183.7 256.7 183.6C256.8 183.6 256.8 183.5 256.7 183.4C255.2 182.7 253.9 183 252.6 183.8C252.5 183.4 252.2 183.1 251.8 183.1C248.7 183.1 246.6 186.6 246.3 189.3C246 192.4 247.1 195.8 249.7 197.7C252.4 199.8 255.5 199.6 258.5 198.2Z" fill="#747D88"/>
<path d="M219.2 137.1C228.6 140 242.6 130.4 237.1 119.9C236.7 119.1 235.4 119.5 235.4 120.4C235.3 123 235.3 125.4 234.4 127.6C234.7 124.2 233.6 120.3 232.5 117.3C232.4 117.1 232 117.1 232.1 117.4C232.2 121.4 233.4 125.5 231.6 129.3C230.9 130.8 229.8 131.8 228.4 132.6C230.3 130.4 231.4 127.4 231.2 124.9C230.6 117.6 222.4 114.3 216.3 116.9C213.9 117.9 212.5 119.6 211.9 121.6C211.1 123 210.7 124.7 210.6 126.7C210 132.1 214.3 135.7 219.2 137.1ZM227.2 122.4C227.5 122.8 227.7 123.3 227.9 123.7C227.8 123.6 227.7 123.6 227.6 123.5C227.5 123.4 227.5 123.3 227.4 123.1C227.4 122.9 227.3 122.7 227.3 122.5C227.2 122.5 227.2 122.4 227.2 122.4ZM223.2 130L223.3 129.9C223.5 129.9 223.7 129.9 224 129.9C223.6 130.1 223.1 130.3 222.6 130.3C222.8 130.3 223 130.2 223.2 130ZM219.1 129.1C218.9 129.2 218.7 129.5 218.6 129.7C218.5 129.5 218.4 129.4 218.3 129.2C218.6 129.2 218.9 129.2 219.1 129.1ZM216.3 119.9L216.4 119.8V119.9C216.3 120 216.2 120 216.1 120.1C216.1 120.1 216.1 120.1 216 120.1C216.2 120 216.2 120 216.3 119.9Z" fill="#747D88"/>
<path d="M219.7 112.4C220.3 112.3 220.3 111.6 219.7 111.5C217.9 111.4 216.1 111.5 214.4 111.9C217.1 110.6 220.1 110 223.2 109.6C223.6 109.5 223.5 109 223.2 108.9C217.5 107 212.1 109.4 207.6 113.2C203.9 116.3 202.3 124.5 205.3 128.5C205.4 128.7 205.6 128.8 205.8 128.8C206.2 129.9 206.6 130.9 207.2 131.7C207.6 132.2 208.5 132.1 208.5 131.3C208.6 127.7 207.1 124.5 207.9 120.8C208.9 115.6 214.8 113 219.7 112.4Z" fill="#747D88"/>
<path d="M347.4 156.3C346.9 156.6 347.2 157.5 347.8 157.3C350.3 156.3 353.9 155.3 355.3 152.8C357.2 149.4 357 145.7 356.2 142.1C354.6 134.8 348.9 128.2 341.7 126.2C337.2 125 332.7 126.7 329.2 129.5C328.8 129.7 328.4 129.9 328.1 130.2C323.4 131.7 321.2 139.3 320.9 143.5C320.5 149.4 324.9 159 332 157.7C332.7 157.6 332.6 156.7 332.2 156.4C330.9 155.4 329.5 154.8 328.3 153.9H328.4C328.7 154 328.9 153.7 328.7 153.4C330.2 154.7 332 155.7 334.1 156.4C334.5 156.5 334.9 155.9 334.5 155.6C330.2 151.9 326 147.2 326 142C326.6 145.1 327.9 148 329.1 149.2C330.8 151 332.9 152.2 335.1 152.8C335.2 152.9 335.3 152.9 335.5 153C335.6 153 335.7 153 335.8 153C341.2 154.3 347.1 152.4 350.4 147.3C350.8 146.7 349.9 146.1 349.4 146.6C348.1 147.7 346.6 148.6 345.1 149.3C345.2 149.1 345.3 148.9 345.4 148.7C345.5 148.6 345.7 148.5 345.8 148.4C347.1 148.1 348.3 147.4 349 146.8C350.3 145.7 350.9 144.4 351.3 142.9C351.5 144.6 351.3 146.4 350.5 148C348.6 151.9 343.6 154.2 340.5 157.1C340.4 157.2 340.5 157.4 340.7 157.4C346.3 155.6 351.6 152.8 353.8 147C354 146.3 354.2 145.7 354.3 145C354.5 146.5 354.5 148 354.2 149.5C353.4 153.3 350.2 154.8 347.4 156.3ZM341.4 131.8V131.7C341.5 131.7 341.6 131.7 341.7 131.6C341.8 131.6 341.9 131.5 341.9 131.5C342.2 131.6 342.4 131.7 342.7 131.9C342.5 131.9 342.4 132.1 342.4 132.2C341.9 134.3 340.5 135.8 338.4 136.5C338.1 136.6 337.7 136.7 337.3 136.7C337.5 136.6 337.8 136.5 337.9 136.4C340 135.6 340.7 133.7 341.4 131.8ZM337.2 131.6C337.6 131.6 338.1 131.6 338.5 131.7C337.9 132 337.2 132.1 336.5 132.1C336.8 132 337 131.8 337.2 131.6ZM331.4 134.2C330.3 136.5 329.8 139.1 329.9 141.6C329.8 141.6 329.6 141.7 329.5 141.8C329.2 140.1 329.3 138.4 329.6 136.7C329.9 135.2 330.7 134.1 331.8 133.3C331.7 133.6 331.5 133.9 331.4 134.2ZM334 147.2C334 147.2 334 147.1 333.9 147.1C334 147.1 334 147.1 334.1 147.1C334.5 147.3 334.8 147.6 335.2 147.8C334.8 147.6 334.4 147.4 334 147.2ZM335.1 134.6C335.1 134.5 335 134.5 335.1 134.6C335.8 134.6 336.6 134.4 337.1 134.3C337.2 134.3 337.2 134.3 337.3 134.2C337.1 134.3 337 134.3 336.8 134.4C336.3 134.5 335.7 134.5 335.1 134.6ZM339.5 147.9C339.5 147.8 339.5 147.8 339.4 147.7C340 147.7 340.6 147.6 341.3 147.6C340.7 147.7 340.1 147.8 339.5 147.9ZM344.3 133.9C344.3 134 344.3 134.1 344.2 134.2C344.2 134.3 344.1 134.3 344.1 134.4C344.1 134.5 344.1 134.5 344.1 134.6C344 135 344 135.3 344 135.7C343.6 137.5 342.1 138.7 340.6 139.7C339.2 139.8 337.7 139.6 336.4 139.9L336.3 139.8C337.7 139.6 339.2 139 340.1 138.5C342.4 137.3 343.2 134.9 343.4 132.4C343.4 132.4 343.4 132.4 343.4 132.3C343.9 132.6 344.3 133 344.7 133.5C344.6 133.5 344.4 133.6 344.3 133.9ZM345.8 134.6C346.6 135.6 347.3 136.8 347.9 137.9C348 138 348 138.1 348.1 138.2C347.3 138.8 346.5 139.4 345.7 139.9C346.5 138.3 346.3 136.4 345.8 134.6ZM350.5 141.3C350.1 142.5 349.3 143.6 348.4 144.4C348.4 144.3 348.4 144.3 348.4 144.2C348.9 143.6 349.4 143 349.7 142.3C349.9 141.9 349.5 141.6 349.2 141.8C348.6 142.1 348 142.4 347.4 142.6C347.6 142.3 347.8 142.1 348 141.8C348.2 141.4 348 141.1 347.8 140.9C348.4 140.2 348.9 139.5 349.3 138.7C349.4 138.5 349.4 138.3 349.3 138.2C349.4 138.1 349.5 138.1 349.5 138C350.1 138.9 350.5 140 350.8 141C350.7 141.1 350.6 141.2 350.5 141.3Z" fill="#747D88"/>
<path d="M331.3 121.4C323.7 122.3 316.6 127.5 313.9 134.8C311.5 141.2 310.7 151.9 316.1 157.1C316.4 157.4 317 157 316.7 156.6C313.3 151.3 313.7 142.4 315.6 136.7C318.4 128.6 326.4 124.5 334.4 123.9C342.9 123.3 350.8 125.4 357 131.3C362.8 136.8 360.9 146.5 361.2 153.4C361.2 153.7 361.5 153.7 361.6 153.5C364.7 146.2 361.5 135.4 357.2 129.2C351.9 121.3 339.9 120.3 331.3 121.4Z" fill="#747D88"/>
<path d="M319.1 154.1C319.9 163.6 333.5 167.6 341.2 167.9C343.8 168 346.7 167.7 349.5 166.9C343 169.9 335.7 169.6 327.7 168.4C327.4 168.4 327.3 168.8 327.6 168.9C334.4 171.8 340.6 173.2 347.8 170.6C352.5 169 357 166.1 358.8 161.3C358.8 161.2 358.8 161.1 358.8 161C359.9 159.4 360.5 157.6 360.6 155.4H360.5C359.1 163.6 346.3 166.1 339.7 165.6C331 164.9 325.5 159.6 319.7 153.8C319.5 153.6 319.1 153.7 319.1 154.1Z" fill="#747D88"/>
<path d="M355.5 110.5C360 109.5 359.2 102.2 356.2 100.1C355.6 99.7001 354.9 100.4 355.1 100.9C355.4 102 356.7 108.9 354 107.1C352.3 106 351.1 103.8 350.3 102.1C349.4 100.3 349.3 98.1001 349.8 96.2001C350.2 94.6001 352.3 92.3001 354.1 93.9001C355.1 94.8001 355.4 96.3001 356.3 97.2001C356.6 97.6001 357.1 97.2001 357 96.8001C356.5 93.3001 353 89.4001 349.5 92.6001C346.6 95.3001 346.6 99.9001 348.1 103.3C349.1 106 352 111.3 355.5 110.5Z" fill="#747D88"/>
<path d="M212.2 91.5999C212.4 91.2999 212 90.9998 211.7 91.1998C208.5 93.8998 204.7 93.3999 201.4 91.3999C199.8 90.3999 198.5 88.9999 197.6 87.3999C196.2 85.0999 196.6 82.6998 196.6 80.1998C196.6 79.4998 195.6 79.0999 195.2 79.7999C190.9 88.6999 206.1 100.7 212.2 91.5999Z" fill="#747D88"/>
<path d="M314.9 109.6C316.7 109.6 318.4 109.3 320.1 108.5C320.5 108.3 320.5 107.6 320.1 107.4C319.4 107.1 318.8 106.9 318.1 106.8C318.8 106.7 319.5 106.4 319.9 106C320.1 105.7 320.2 105.3 319.9 105.1C318.8 104 317.1 104.6 315.6 104.6C313.8 104.7 312 103.9 310.3 103.7C309.9 103.6 309.7 104.4 310.1 104.5C311.7 105.2 313 106.2 314.8 106.6C315 106.6 315.1 106.7 315.3 106.7C314.4 106.7 313.5 106.8 312.6 106.8C309.1 106.7 305.5 105 302.4 103.5C301.9 103.2 301.5 103.9 302 104.2C303.6 105.3 305.4 106.5 307.3 107.4C304.5 107.3 301.7 107.3 299 106.5C291.8 104.1 288.7 95.3001 291.6 88.7001C291.7 88.4001 291.5 88.1001 291.2 88.3001C286.4 91.7001 288.8 100.8 292.1 104.6C297.1 110.2 307.2 112.2 314.4 110.2C314.6 110 314.8 109.8 314.9 109.6Z" fill="#747D88"/>
<path d="M299.8 167.7C303.9 164 303 159 299.6 155C298 153.2 295.7 152.2 293.2 151.7C292.8 151.6 292.4 151.5 292.1 151.5C289.8 151.2 287.4 151.4 285.4 151.7C280.4 152.6 275.8 156.2 274.4 161.1C273.1 165.6 277.3 171.2 281.6 172.2C281.9 172.3 282.3 172 282.4 171.7C283 171.9 283.5 172 284.2 172C284.7 172 285 171.5 284.8 171C283.5 168.9 281.8 167.5 280.7 165.6C281 165.6 281.4 165.5 281.5 165.1C281.6 164.7 281.7 164.4 281.7 164C282.4 165.9 284 168.6 286.3 168C286.6 167.9 286.6 167.5 286.4 167.4C285 166.6 284.3 164.8 283.7 163.5C282.4 160.9 283.4 158.7 284.1 156.2C284.5 156 285 155.9 285.5 155.8C285.2 156.3 284.9 156.9 284.7 157.3C283.6 160.2 283.9 163.4 286.7 165C287.2 165.3 287.8 164.6 287.3 164.2C285.3 162.6 285.5 160.1 286.4 158C286.6 157.6 286.8 157.3 287 156.9C286.8 158.2 286.9 159.6 287 160.8C287.1 162 287.7 162.9 288.8 163.3C289.2 163.4 289.6 162.8 289.2 162.5C288 161.5 288.6 158.3 288.9 156.9C289 156.3 289.3 155.8 289.6 155.3C289.7 155.3 289.8 155.3 289.9 155.3C289.5 156.3 289.4 157.5 289.3 158.6C289.2 160 289.4 161.3 290.6 162.1C291.3 162.6 291.9 161.7 291.6 161.1C291 159.7 291.1 156.9 292.2 155.6C292.7 155 293.4 154.9 294.1 154.8C293.8 155 293.5 155.2 293.3 155.4C292.6 156.2 292.1 157.3 292.2 158.4C292.2 158.7 292.5 158.8 292.7 158.8C292.7 159.3 292.9 159.9 293.2 160.4C293.4 160.8 293.9 160.7 294.1 160.5C294.3 160.6 294.5 160.6 294.7 160.5C295.3 159.9 296.3 159.9 297.2 160.1C296.3 160.3 295.5 160.8 295.2 161.6C294.9 162.3 295.8 162.8 296.2 162.2C296.6 161.6 297.3 161.6 298 161.6C298.7 161.6 299.2 162.1 299.9 161.9C300 161.9 300 161.8 300.1 161.8C300.3 163.4 300 165.1 299 167C298.7 167.6 299.4 168.1 299.8 167.7ZM295.7 155.6C295.7 155.6 295.8 155.6 295.8 155.7C295.7 155.7 295.6 155.7 295.5 155.8C295.5 155.7 295.6 155.7 295.7 155.6ZM294.1 159.7C293.9 159.3 293.9 159 294 158.6C294.8 158.3 295.7 158.3 296.4 158.3C297 158.3 298 158 297.9 157.2C298.3 157.6 298.6 158 298.9 158.5C297.3 158.3 295.2 158.5 294.1 159.7ZM299.2 160.3C299.3 160.3 299.4 160.3 299.5 160.3C299.6 160.3 299.6 160.3 299.7 160.2C299.8 160.4 299.8 160.5 299.9 160.7C299.7 160.5 299.4 160.4 299.2 160.3Z" fill="#747D88"/>
<path d="M309.8 198.3C307.5 198 305.6 199.7 303.4 200.2C302.2 200.5 300.9 200.4 299.6 200.1C302.1 200.1 304.8 199.4 306.6 198.5C307 198.3 307.1 197.5 306.6 197.3C305 196.6 303.2 196.9 301.4 197.1C301.4 196.9 301.3 196.7 301 196.6C299.9 196.4 298.7 195.6 297.7 195.2C297.1 194.9 296.7 194.4 296.5 193.7C297.2 194.4 298.3 195.1 299.3 195.1C299.8 195.1 300.2 195.2 300.7 195.1C301 195.1 301.3 194.8 301.6 194.6C301.8 194.5 301.7 194.2 301.5 194.2C301.1 194.1 300.5 193.5 300.1 193.3C299.5 192.9 299 192.5 298.5 192.1C298.3 192 298.1 191.8 298 191.7C298.1 191.7 298.1 191.7 298.2 191.6C298.3 191.7 298.4 191.8 298.5 191.9C299.2 192.5 300.1 192.6 300.9 192.3C301.1 192.5 301.3 192.7 301.6 192.8C302.1 193.1 302.6 192.3 302.1 192C301.7 191.8 301.5 191.5 301.4 191.1C303.8 191.1 306.5 191.8 308.4 192.9C309 193.3 309.7 192.4 309.2 191.9C308.4 191.1 307.5 190.5 306.6 189.9C306.5 189.5 306.3 189.1 306 189C302.6 187.5 297.9 185.8 294.5 188.2C294.2 188.4 294 188.6 293.8 188.9C292.6 190.1 291.6 191.9 291.4 193.1C291.3 193.6 291.3 194.2 291.4 194.8C291.3 195.3 291.3 195.9 291.4 196.4C292 200.1 295.7 202 299 202.9C302.3 203.8 309.3 203.1 310.4 199.1C310.3 198.8 310.1 198.3 309.8 198.3Z" fill="#747D88"/>
<path d="M290.1 67.2C290.6 66.8 290 66.2 289.5 66.4C289.4 66.5 289.2 66.5 289.1 66.6C289.7 65.9 290.3 65.2 290.7 64.6C293.3 60.8 291.3 56 290.7 52C290.6 51.6 290.1 51.6 290 52C289.7 53.2 289.7 53 290 54.3C290.5 57 291.1 59.3 289.9 62C289 64.1 287.4 65.8 285.3 66.6C284.2 67 283.6 67 282.9 67.6C280.9 67.4 278.9 66.8 277.3 65.7C277.5 65.6 277.7 65.4 277.8 65.1C277.8 64.9 277.8 64.7 277.9 64.5L278 64.6C280.2 66.3 284 65.9 285.9 64.1C286.1 63.9 286 63.7 285.8 63.6C285.4 63.5 285 63.4 284.5 63.4C285.1 63.4 285.7 63.2 286.3 62.9C288.1 61.9 288.7 59.2 288.4 57.4C288.3 56.8 288.1 56.2 287.9 55.7C288.2 55.9 288.6 55.6 288.4 55.2C287.8 53.9 287.1 53.2 286.2 52.8C286.9 52.7 287.7 52.9 288.4 53.4C288.8 53.6 289.2 53.1 288.9 52.8C287.6 51.5 286.6 50.4 284.6 50.9C282.6 51.3 280.9 52.6 279.7 54.3C279.6 54.4 279.5 54.5 279.4 54.7C279.4 54.6 279.5 54.5 279.5 54.5C280.3 53.2 281.8 51.6 283.2 50.8C284.5 50.1 285.2 50.2 286.2 49.2C286.3 49.1 286.3 48.9 286.2 48.8C283.6 46.2 278.8 51.3 277.5 52.9C275.1 55.9 274.4 61.3 276.1 64.9C275.6 64.4 275.2 63.9 274.8 63.3C272.4 59.2 275.1 54.3 276.3 50.3C276.4 49.9 275.9 49.6 275.6 49.9C271.5 53.8 270.3 61.1 273.5 65.8C276.9 70.7 285.7 71.1 290.1 67.2ZM285.8 56.5C286 56.5 286.1 56.6 286.3 56.6C286.3 56.7 286.4 56.8 286.4 56.9C286.3 56.9 286.2 56.9 286.1 56.9C286 56.9 285.9 57 285.8 57.1C285.7 56.9 285.7 56.7 285.8 56.5ZM282.8 59.6V59.7H282.7C282.7 59.7 282.6 59.7 282.6 59.6C282.6 59.7 282.7 59.6 282.8 59.6ZM282.2 62.7C282.7 63 283.2 63.2 283.7 63.3C283.1 63.3 282.5 63.3 282 63.3C281.9 63.2 281.8 63 281.6 62.9C281.8 62.9 282 62.8 282.2 62.7Z" fill="#747D88"/>
<path d="M280.5 120.2C279 120.1 276.5 120.8 276.2 122.5C275.9 124.3 276.8 126.2 278.5 127C279 127.3 279.6 126.6 279.2 126.2C278.2 125.4 277.5 123.3 279.1 122.6C280.3 122.1 281.6 122.5 282.8 122.9C282.9 122.9 282.9 122.9 283 123C282.4 123 281.7 123.1 281.2 123.2C280.7 123.3 280.1 123.8 279.9 124.2C279.7 124.5 279.8 125.1 280.3 125.2C280.6 125.2 280.8 125.1 281 125.1C281.4 125.1 281.9 125.1 282.3 125.2C282.4 125.2 282.4 125.2 282.5 125.2C282.1 125.6 282.3 126.3 283 126.4C284 126.5 284.8 126.9 285.4 127.6C285.4 127.6 285.4 127.6 285.4 127.7C285.3 127.8 285.2 127.9 285.2 128.1C285.2 128.5 285.2 128.9 285.1 129.3C284.9 129.1 284.8 128.9 284.7 128.6C284.5 127.9 283.3 128 283.4 128.8C283.5 129.5 283.7 130 284.1 130.5C283.9 130.8 284 131.2 284.4 131.4C284.4 131.4 284.4 131.4 284.4 131.5C283.5 130.4 282.8 129.2 282.5 128.6C282.2 128 281.2 127.8 281 128.6C280.2 132.3 285 136.8 288.7 135.1C291.6 133.7 291.1 128.5 290.4 126.1C289 122.4 283.7 120.5 280.5 120.2ZM286.8 129.4C286.8 129.4 286.8 129.5 286.9 129.5C286.9 129.5 286.9 129.6 286.9 129.7H286.8C286.8 129.5 286.8 129.4 286.8 129.4ZM285 124.7C285.2 124.5 285.2 124.1 285.1 123.9C285.5 124.1 285.9 124.4 286.3 124.6C285.8 124.6 285.4 124.7 285 124.7ZM286.1 133C286.2 133 286.3 132.9 286.3 132.9C286.7 132.9 287.2 132.8 287.5 132.5C287.5 132.6 287.5 132.6 287.6 132.7C287.2 133.1 286.6 133.2 286.1 133ZM287.6 126.6C287.4 126.3 287.2 126 287 125.7C287.1 125.7 287.3 125.6 287.4 125.6C287.7 125.9 287.9 126.2 288 126.6C287.8 126.6 287.7 126.6 287.6 126.6Z" fill="#747D88"/>
<path d="M393.7 142.7C392.7 140.1 392.1 137.9 392 135.3C393.5 128.1 394.3 120.7 394.3 113.2C394.3 94.7999 389.6 76.5999 380.7 60.4999C380.7 58.4999 380.6 56.5999 381.3 54.5999C381.7 53.2999 382.2 51.5999 381.8 50.1999C380.7 46.5999 377.9 44.1999 375.1 41.8999C370.9 38.3999 368.7 33.2999 365 29.2999C362.4 26.3999 357.7 28.9999 354.5 28.0999C354.1 27.9999 353.8 28.0999 353.5 28.2999C338.7 16.4999 321.1 8.79995 302.5 5.89995C300.4 4.79995 300.9 3.39995 299.5 1.79995C297.6 -0.300055 295.1 -0.100055 292.4 0.199945C289.6 0.499945 286.3 -5.45979e-05 283.6 0.499945C280.3 0.999945 278 3.29995 275.3 4.99995C270.6 5.39995 265.9 6.19995 261.2 7.29995C259.3 6.89995 257.5 6.69995 255.7 5.49995C254.2 4.49995 253 3.89995 251.2 3.59995C247.3 2.89995 243.2 6.49995 240.3 8.49995C236.2 11.4999 230.1 11.2999 226.3 14.4999C223.1 17.1999 224.6 20.8999 222.6 24.1999C222.5 24.3999 222.4 24.5999 222.4 24.7999C214 30.7999 206.6 37.8999 200.3 45.8999C197.8 46.6999 195.2 48.2999 192.9 49.4999C189.8 51.1999 188.1 54.2999 186.2 57.0999C184.6 59.4999 181.9 62.3999 181.8 65.4999C181.6 68.5999 183.5 70.8999 184.4 73.6999C179.5 86.0999 176.9 99.4999 176.9 113.2C176.9 114 176.9 114.7 176.9 115.5C176.3 116.8 175.7 118 174.6 119.1C173.7 120 172.6 121 172.1 122.2C170.5 126.2 172.3 130.1 173.9 133.8C176.2 139.1 175.2 145.4 177.7 150.6C178.9 153.1 182.6 153.3 184.9 154.6C191.9 171.7 203.1 186.5 217.5 198C218.4 200.2 219.2 203.6 219.7 204.7C221.1 207.8 223 210 225.9 211.7C229 213.5 231.7 215.4 235.4 216C238.3 216.5 240.1 213.8 242.6 213.1C256 218.9 270.5 221.8 285.4 221.8C291.1 221.8 296.9 221.3 302.5 220.4C303 220.6 303.4 220.6 304.6 220.6C307.2 220.7 308.8 223.3 311 224.4C313.5 225.6 317 223.4 319.1 222.3C322.2 220.7 326.8 220.1 329.4 217.8C332.1 215.3 333.5 212.1 335.8 209.3C336.6 208.9 337.3 208.5 338.1 208.1C338.2 208.1 338.4 208 338.5 208C338.7 207.9 338.9 207.8 339 207.6C354.4 198.9 367.5 186.5 377 171.5C377.4 170.9 377.7 170.4 378.1 169.8C378.9 169.7 379.2 169.4 380.1 168.5C382.2 166.3 385 166.4 387.6 165.3C389.9 164.3 390.6 160.7 391.1 158.6C392 154.8 393.8 151.1 394.3 147.4C394.8 145.8 394.3 144.2 393.7 142.7ZM331.8 208.2C331.2 208.5 330.5 208.7 329.9 208.9C328.2 209.5 325.4 209.1 324.8 211.2C324.7 211.4 324.9 211.6 325.1 211.5C327.1 211.1 329.2 210.9 331.1 210.4C331.4 210.3 331.6 210.2 331.9 210.2C331.1 211.5 330.3 212.9 329.5 214.3C327.8 217.1 324.1 217.3 321.4 218.4C317.8 219.9 313.8 223.9 310.2 220.5C309.4 219.8 308.6 219.2 307.8 218.9C309.5 218.3 311.1 217.5 312.6 216.6C312.9 216.4 312.8 215.9 312.4 215.9C309.9 215.7 307.3 216.7 305 217.3C304.5 217.4 304 217.5 303.6 217.6V217.5C297.7 218.5 291.6 219 285.6 219C244.8 219 207.3 194.9 190.1 158.4C190.3 156.6 189 154.9 188.3 153.3C187.3 151.1 185.7 148.9 185.1 146.5C185 146.1 184.4 146.1 184.3 146.5C183.7 148.5 184.7 150.1 185.5 151.9C184.6 151.4 183.5 151.1 182.3 150.8C178 149.6 178.2 139.1 177.4 135.3C176.2 129.9 171.6 126.4 176.4 121C176.9 120.4 177.3 119.9 177.6 119.4C177.8 120.6 178 121.8 178.3 123C178.9 125.5 179 128.2 180.4 130.3C180.7 130.8 181.4 130.4 181.2 129.8C180.2 127.5 180.7 124.8 180.3 122.4C180 120.7 180 119 179.9 117.4H180C180 116.1 179.9 114.8 179.9 113.5C179.9 81.3999 194.6 50.9999 219.5 30.9999C219.6 30.9999 219.8 30.9999 220 30.9999C221 30.6999 221.5 30.1999 222.3 29.4999C223.5 28.4999 224.9 27.6999 226.3 26.8999C227.4 26.2999 228.4 25.5999 229.3 24.6999C230.2 23.7999 231 22.1999 232.3 21.7999C232.7 21.6999 232.7 21.0999 232.3 20.8999C229.8 20.1999 227.6 23.0999 225.6 24.1999H225.5C226.1 22.8999 226.3 21.5999 226.4 19.9999C226.7 15.2999 236.8 13.2999 240.6 11.5999C245.6 9.29995 248.3 4.29994 254.4 7.69994C256.1 8.59995 257.4 8.99995 258.8 9.09995V9.19995C257.8 9.49995 256.9 9.79995 256.3 9.99995C254.7 10.4999 252.1 11.0999 251.8 13.0999C251.8 13.2999 252.1 13.3999 252.2 13.2999C254 12.4999 256.1 11.8999 258 11.4999C259.6 11.1999 261.1 10.8999 262.7 10.5999C264.2 10.2999 265.3 10.4999 266.4 9.59995C266.5 9.49995 266.5 9.49995 266.5 9.39995C272.7 8.29994 279.1 7.69994 285.4 7.69994C309.8 7.69994 333.5 16.1999 352.3 31.5999C352.7 31.8999 353.1 32.2999 353.4 32.5999C355.4 34.5999 356.8 36.8999 359.2 38.4999C359.5 38.6999 359.8 38.2999 359.6 38.0999C358.9 36.8999 358.4 35.6999 357.8 34.4999C357.2 33.1999 356 32.0999 355.1 31.0999C356.9 31.3999 358.5 30.9999 360.6 30.6999C364.4 30.1999 369.2 40.8999 372 43.1999C375.5 46.1999 379.9 48.8999 378.6 54.0999C377.9 56.8999 377.8 58.6999 378.7 60.7999C377.4 58.8999 376.1 56.9999 374.5 55.2999C374.4 55.1999 374.2 55.2999 374.3 55.4999C375.4 57.8999 376.4 60.3999 377.7 62.7999C378.6 64.4999 379.4 66.3999 380.7 67.8999C387.4 81.9999 391 97.5999 391 113.4C391.2 153.9 368.5 190.3 331.8 208.2Z" fill="#747D88"/>
<path d="M219 180.6C220.8 173.9 212.1 165.1 207.3 161.9C207 161.7 206.5 162.1 206.8 162.4C208.5 164.7 210.3 166.8 211.9 169.1C211.8 169 211.7 168.9 211.5 168.9C210.5 168 209.2 167.1 208.8 165.8C208.7 165.3 208 165.5 208.1 166C208.2 166.9 208.7 167.8 209.3 168.5C209 168.6 208.8 168.8 209 169.2C208.3 168.2 207.7 167.1 207.1 166.1C206.9 165.8 206.3 165.9 206.3 166.3C206.4 168.6 207.8 170.9 209.3 172.9C209.1 172.7 208.9 172.4 208.7 172.2C207.3 170.6 206.8 168.5 205.6 166.8C205.1 165.4 204.5 164.1 203.8 162.8C203.7 162.6 203.4 162.7 203.4 162.9C203.7 165.4 204.1 167.6 204.8 169.7C204.6 169.8 204.5 169.9 204.6 170.1C204.7 170.4 204.8 170.6 204.9 170.9C203.4 168 202.2 165 201.3 161.7C201.1 161.1 200.4 161.3 200.3 161.8C200.2 162.8 200.2 163.9 200.4 164.9C199.8 163.2 199.3 161.5 198.9 159.6C198.8 159 197.9 159.2 197.9 159.7C197.8 160.2 197.8 160.7 197.9 161.3C197.2 158.5 199.3 156.8 202 158.3C202.3 158.5 202.7 158 202.4 157.7C201 156.3 200.6 154.2 198.1 154.9C196.1 155.4 195.5 157.3 195.4 159C194.8 156 195.4 152.8 199.4 152.4C199.7 152.4 199.8 152 199.5 151.8C194.2 148.4 192.4 156.5 193 160.2C193.5 163.5 196.1 166.4 198.3 168.8C199.1 169.7 199.9 170.7 200.7 171.7C202.1 173.6 203.4 175.3 204.5 176.6C207.1 179.8 216.9 188 219 180.6ZM210.2 178.8C210 178.6 209.8 178.4 209.6 178.2C208.7 177.2 208 176.1 207.3 175C208 176.1 208.8 177.1 209.6 178.1C209.9 178.5 210.3 178.9 210.8 179.2C210.6 179.1 210.4 179 210.2 178.8Z" fill="#747D88"/>
<path d="M219.6 166.7C221.6 170 223.6 174.9 223.8 178.7C223.8 179.4 223.8 180.1 223.8 180.8C223.1 177.6 221.2 174.7 219.7 171.9C217.2 167.4 214.3 163.5 210.3 160.4C210.1 160.3 210 160.5 210.1 160.7C213.8 165.4 217.2 170.3 220 175.7C221.1 177.7 224.8 183.8 220.8 185.4C217.6 186.7 214.5 185.2 211.9 183.5C211.4 183.2 210.9 183.8 211.1 184.3C211.9 186 214.1 187.1 216.5 187.5C216.5 187.6 216.6 187.7 216.6 187.7C220.6 191.3 225.6 185.2 226 181.5C226.6 176.1 222.9 170.5 219.8 166.5C219.7 166.5 219.6 166.6 219.6 166.7Z" fill="#747D88"/>
<path d="M328.1 29.4001C331.2 31.3001 334.1 33.0001 336.7 35.7001C339 38.1001 338.9 42.7001 335 43.0001C332.8 43.2001 330.3 42.3001 328.3 41.7001C324.3 40.5001 320.8 37.9001 317.5 35.4001C316.1 34.4001 314.9 33.3001 313.7 32.1001C311.7 30.3001 312 28.5001 314.6 26.9001C314.5 27.0001 314.4 27.2001 314.4 27.4001C314.2 31.1001 316.3 33.9001 319.3 35.8001C323 38.2001 328 40.5001 332.5 39.4001C333 39.3001 333.3 38.8001 333.3 38.4001C333.4 35.7001 330.6 33.5001 328.2 32.2001C327.7 31.8001 327.3 31.3001 326.9 30.8001C326.5 30.1001 325.5 30.7001 325.8 31.4001C325.4 31.4001 325 31.9001 325.3 32.2001C326.1 33.3001 327.2 34.2001 328.2 35.0001C328.4 35.2001 328.7 35.4001 328.9 35.6001C328.7 35.5001 328.4 35.3001 328.2 35.2001C326.9 34.2001 325.6 33.2001 324.3 32.1001C323.8 31.7001 323.2 32.3001 323.6 32.8001C323.9 33.2001 324.3 33.6001 324.7 33.9001C323.5 33.0001 322.5 32.0001 321.4 31.0001C321.1 30.7001 320.7 31.0001 320.7 31.3001C319.9 30.4001 319.2 29.4001 318.6 28.3001C318.4 27.9001 317.8 28.2001 317.9 28.6001C318.2 30.2001 319 31.7001 320.1 32.9001C319.1 31.9001 318.1 30.7001 317.9 29.3001C317.8 28.8001 317 28.6001 316.9 29.2001C316.8 29.8001 316.8 30.3001 317 30.9001C316.8 30.5001 316.6 30.2001 316.5 29.8001C316.3 29.2001 316.2 28.7001 316.2 28.1001C316.2 28.0001 314.3 27.6001 317.2 28.2001C317.5 28.3001 317.6 27.9001 317.4 27.8001C316.5 27.4001 316.3 27.1001 315.7 26.7001C315.6 26.6001 315.4 26.6001 315.2 26.6001C315.7 26.3001 316.2 26.1001 316.8 25.8001C318.4 25.9001 320 26.2001 321.6 26.5001C322.3 26.6001 322.5 25.7001 321.9 25.5001C317.9 24.4001 315.8 23.2001 311.9 25.2001C309.9 26.3001 309.7 28.6001 310.3 30.5001C312 36.1001 321.4 41.5001 326.2 43.4001C330.3 45.0001 340.2 47.8001 341.3 40.9001C342.1 35.4001 333.3 29.1001 328.8 28.0001C327.8 27.6001 327.3 28.9001 328.1 29.4001Z" fill="#747D88"/>
<path d="M308.3 19.6001C308.2 19.6001 308.2 19.7001 308.3 19.7001V19.6001Z" fill="#231F20"/>
<path d="M305.9 30C308.1 34.4 313.2 39.1 318 40.3C318.3 40.4 318.6 40 318.4 39.7C316.6 37.4 313.8 36.1 311.6 34.2C310.1 33 308.9 31.6 307.9 29.9C306.1 27 306.8 22.5 310.8 22.2C311.3 22.2 311.3 21.4 310.8 21.4C306.2 21.3 304 26.1 305.9 30Z" fill="#747D88"/>
<path d="M206 89.5C207.7 89.8 210 89.4 211.2 88C211.6 87.7 212 87.3 212.2 87C212.8 86.2 213.2 85.3 213.5 84.3C213.5 84.2 213.6 84.1 213.6 83.9C215.2 81.1 216.1 77.6 215.6 74.8C215.4 74 214.3 74.3 214.2 75C214.2 75.1 214.2 75.1 214.2 75.2C213.9 75.2 213.7 75.3 213.6 75.6C213.4 75.5 213.1 75.5 212.9 75.7C212.7 75.6 212.6 75.6 212.4 75.6C212.2 74.9 211.1 74.9 211.1 75.7C211.1 76.1 211.2 76.6 211.3 77C211.3 77.1 211.2 77.2 211.2 77.3V77.4C211 77.3 210.9 77.3 210.7 77.4C210.7 77.2 210.7 77 210.7 76.8C210.7 76.2 209.7 76.2 209.7 76.8C209.7 77.8 209.7 78.7 209.8 79.7C209.7 79.6 209.6 79.6 209.4 79.6C209 78.1 208.8 76.5 209.7 75.3C210.1 74.7 209.2 73.9 208.7 74.5C208.4 74.3 208 74.4 207.9 74.8C207.5 76 207.3 77.2 207.2 78.4C207.2 78.3 207.1 78.2 207.1 78.2C207 77.3 206.9 76.3 206.9 75.3C207 75.3 207 75.3 207.1 75.3C207.8 75.3 208 74.2 207.3 74.1C207.3 74.1 207.3 74.1 207.2 74.1C207.5 73.3 207.9 72.5 208.3 71.8C208.6 71.3 207.8 70.8 207.5 71.3C207.5 71.3 207.5 71.4 207.4 71.4C207.4 71.4 207.4 71.4 207.3 71.4C206.3 71.5 206 72.9 206 73.9C205.9 74.1 205.9 74.2 205.8 74.4C205.5 74.6 205.3 74.9 205.2 75.3C205.2 75 205.3 74.7 205.3 74.4C205.4 74.2 205.6 74.1 205.8 73.9C206.3 73.6 206 72.9 205.5 72.9C205.6 72.4 205.8 72.1 206 72.1C206.7 72.1 206.6 71.1 206 71.1C205.8 71.1 205.6 71.1 205.4 71.1C205.9 70.2 206.4 69.5 206.8 69.5C207.2 69.4 207.4 69 207.3 68.7C208.6 68.1 210 67.8 211.6 67.7C211.7 67.7 211.8 67.5 211.7 67.5C208 65.2 204.2 67.9 202 71C201.5 71.7 201.1 72.5 200.7 73.3C198.7 76.2 199.6 81.7 200.7 84.4C201.6 86.9 203.3 89.1 206 89.5ZM211.7 83.8C211.7 83.9 211.6 83.9 211.6 84C211.5 83.8 211.4 83.7 211.3 83.5C211.4 83.6 211.5 83.7 211.7 83.8ZM209.3 85.7C209.2 85.7 209.1 85.8 209 85.8C208.9 85.7 208.8 85.6 208.8 85.4C209 85.6 209.1 85.7 209.3 85.7ZM207.3 82C207.3 82.3 207.4 82.5 207.5 82.8C207.3 82.4 207.2 82 207 81.6C207.1 81.7 207.2 81.8 207.3 82ZM201.8 79.9C201.8 81.1 202.3 82.3 202.9 83.4C202.8 83.3 202.8 83.2 202.7 83.1C201.8 81.7 201.5 80.3 201.6 78.8C201.7 79.1 201.8 79.5 201.8 79.9Z" fill="#747D88"/>
<path d="M359.9 61.9001C360.4 62.3001 360.9 61.7001 360.9 61.2001C360.6 59.1001 359.1 57.8001 360.2 55.5001C361.3 53.1001 363.8 53.2001 365.8 54.2001C368.2 55.4001 369.9 58.1001 372.2 59.5001C372.8 59.9001 373.3 59.0001 372.7 58.6001C370.6 57.0001 369.7 54.3001 367.5 52.8001C365.6 51.5001 363.7 50.9001 361.5 51.7001C357.1 53.0001 356 59.4001 359.9 61.9001Z" fill="#747D88"/>
<path d="M371.3 62.3999C371 62.1999 370.7 62.4999 370.7 62.7999C370.7 63.5999 371.3 65.2999 371.7 66.9999C371.6 66.9999 371.6 66.9999 371.5 67.0999C371.4 66.7999 371.2 66.3999 371.1 66.0999C371 65.7999 370.6 65.6999 370.4 65.8999C370.2 65.5999 369.9 65.2999 369.7 64.8999C369.5 64.6999 369.3 64.5999 369.1 64.6999C368.8 64.5999 368.4 64.7999 368.5 65.1999C368.7 66.1999 369 67.0999 369.4 67.9999C368.7 66.9999 368 65.8999 367.6 64.8999C367.4 64.4999 366.8 64.7999 366.9 65.1999C367.1 65.7999 367.2 66.3999 367.4 66.9999C366.7 66.0999 366.1 64.9999 365.7 63.8999C365.5 63.2999 364.6 63.3999 364.6 63.9999C364.6 64.1999 364.6 64.3999 364.6 64.5999C364.4 64.0999 364.2 63.4999 364 62.8999C363.9 62.5999 363.6 62.6999 363.5 62.8999C363.5 62.9999 363.4 63.0999 363.4 63.1999C363.1 61.5999 362.9 59.9999 362.6 58.3999C362.5 57.8999 361.6 57.8999 361.5 58.3999C360.9 62.0999 362.1 66.2999 364.2 69.3999C365.6 71.3999 368.9 74.5999 371.7 73.9999C376.5 73.0999 374 64.1999 371.3 62.3999Z" fill="#747D88"/>
<path d="M371.7 79.1C368 78.3 365.4 77.3 362.7 74.5C360.4 72 358.7 68.9 357.1 65.9C357 65.7 356.6 65.8 356.7 66C357.1 71.8 364.9 82.8 371.8 80.8C372.5 80.7 372.6 79.4 371.7 79.1Z" fill="#747D88"/>
<path d="M388.1 115.4C387.9 115.1 387.4 114.8 387 114.8C386.4 114.9 385.9 114.9 385.4 115C384.9 115.1 384.7 115.6 384.6 116C384.5 116.7 384.3 117.4 384.2 118.2C384 119.1 385.2 119.6 385.6 118.8C385.9 118.2 386.1 117.9 386.2 117.6C387.4 119.1 386.8 123.1 386.6 124.7C386.2 127.3 383.4 129.3 382.9 125.7C382.5 122.6 381.4 119.9 382.7 116.9C385.6 110 384.2 103.4 381 96.6998C380.9 96.4998 380.6 96.5998 380.6 96.8998C381.3 100.7 382.1 104.5 382.4 108.4C382.7 112.3 380.7 114.9 379.7 118.4C378.9 121 380.4 124.8 380.7 127.4C380.9 128.8 380.9 130.2 382.2 131C384.7 132.5 387.5 129.6 388.3 127.5C389.8 123.5 389.9 119.1 388.1 115.4Z" fill="#747D88"/>
<path d="M272.6 211.7C272.5 211.7 272.5 211.8 272.6 211.8C272.7 211.8 272.7 211.7 272.6 211.7Z" fill="#231F20"/>
<path d="M258.6 134.9C258.8 134.7 258.9 134.4 259.1 134.2C259.4 133.8 258.9 133.5 258.5 133.6C258.2 133.7 257.4 133.6 257.1 133.2C256.6 132.7 256.4 132.1 256.2 131.5C256 130.9 255.9 130.2 256 129.7C256 129.6 256.3 129.3 256.1 129.4C256.2 129.3 256.6 129.2 256.8 129.1C257.1 129 257.2 128.7 257.2 128.4C258.2 128.3 259.1 128.4 259.9 128.6C260.5 128.7 260.7 127.9 260.2 127.7C258.9 127.2 257.9 126.5 256.5 126.4C255.1 126.3 253.8 127.1 252.8 128C252.3 128.4 252 129 251.8 129.6C251.1 130.5 251 131.5 251.4 132.6C251.4 133 251.4 133.3 251.5 133.7C251.8 135.7 252.7 137.6 254.4 138.7C255.7 139.5 258.1 139.5 259 138.2C259.8 138 260.5 137.4 260.7 136.7C261.7 136.3 262.6 135.5 263.2 134.3C263.4 133.9 262.9 133.4 262.5 133.8C261.6 134.7 260 135 258.6 134.9ZM253.8 131.4C253.8 131.4 253.8 131.5 253.9 131.5C253.9 131.5 253.8 131.5 253.8 131.4Z" fill="#747D88"/>
<path d="M319.9 94.6001C319.9 94.2001 319.5 94.0001 319.2 94.3001C317.8 95.5001 317.3 97.0001 315.4 97.7001C313.5 98.4001 311.3 98.4001 309.2 98.1001V98.0001C312 98.2001 314.7 97.5001 315.8 95.2001C316 94.8001 315.5 94.5001 315.2 94.7001C314.3 95.4001 312.5 95.6001 310.8 95.6001C311.3 95.5001 311.8 95.3001 312.4 95.1001C312.8 94.9001 312.6 94.3001 312.3 94.2001C310.7 93.6001 309 93.8001 307.4 93.2001C306.1 92.7001 303.2 91.4001 303.6 89.6001C303.7 89.0001 305.5 88.3001 305.3 87.5001C305.8 87.4001 306.2 87.4001 306.6 87.3001C307 87.2001 307 86.6001 306.6 86.5001C303.2 85.6001 299.6 85.6001 297.8 89.2001C297.3 90.3001 297.3 91.4001 297.5 92.5001C296.5 90.3001 297.3 87.6001 297.6 85.5001C297.7 85.1001 297.3 84.4001 296.7 84.6001C292.1 86.5001 294.3 93.8001 297 96.5001C301.8 101.4 310.5 102 316.8 100.7C317.2 100.6 317.3 100.1 317.1 99.9001C318.9 98.9001 320.3 97.3001 319.9 94.6001ZM305 97.3001C303.2 96.9001 301.8 95.9001 300.7 94.5001C301.9 95.7001 303.6 96.7001 305.2 97.4001C305.1 97.4001 305.1 97.3001 305 97.3001Z" fill="#747D88"/>
<path d="M299.2 99.2002C298.4 98.7002 297.7 98.1002 297.1 97.4002C296.6 96.9002 296.3 96.3002 295.6 96.1002C295.3 96.0002 295 96.2002 294.9 96.5002C294.3 98.3002 296.5 100.1 297.8 100.9C299.5 102 301.5 102.6 303.4 101.9C303.7 101.8 303.9 101.2 303.5 101C302 100.4 300.5 100 299.2 99.2002Z" fill="#747D88"/>
<path d="M359.8 173C357.1 176 355.5 179.7 352.9 182.7C349.9 186.4 343.5 188.7 339.1 188.6C336 188.6 332.5 190.8 330.1 192.4C328.1 193.8 324.3 199.3 321.6 196.2C321.5 196.1 321.3 196.2 321.3 196.3C321.2 198.1 322.6 199.1 324.5 198.6C328.7 197.5 331.4 193.7 335.4 191.9C338.7 190.4 340.6 191.9 343.6 190.9C346 190.1 347.8 188.6 350 187.5C355.8 184.5 357.7 179.1 360.6 173.6C361 173.2 360.3 172.6 359.8 173Z" fill="#747D88"/>
<path d="M347.1 179C345.9 180 344.3 180.7 342.8 181.1C341.6 181.4 339.9 181.6 339.4 182.9C339.3 183.2 339.5 183.4 339.7 183.5C340.4 183.7 340.9 183.4 341.6 183.2C342.5 182.9 343.4 182.7 344.3 182.4C346 181.9 347 181 347.6 179.4C347.8 178.9 347.3 178.8 347.1 179Z" fill="#747D88"/>
<path d="M192.7 122.3C192.4 122.2 192.1 122.4 192 122.7C191.2 124.9 189.8 128.1 191.8 130.1C192.3 130.6 193 130 192.8 129.4C192.6 128.6 192.5 127.8 192.3 127C192.1 125.2 192.8 125.3 194.3 127.3C194.4 128.4 194.3 129.5 194.4 130.6C194.5 131.8 194.5 133 194.5 134.2C194.5 137.6 190.7 133.1 190.2 132.2C188.1 128.7 189.6 125.8 189.1 122.1C188.8 120.2 188.4 119 187.6 117.3C185.8 113.8 186.7 110.6 187.5 107C187.6 106.6 187.1 106.5 186.9 106.8C186.1 109 184.5 112.3 185.2 114.8C186 117.3 187.4 119.5 187.7 122.1C187.9 123.7 186.9 125.7 187.1 127.3C187.7 130.9 189.5 136.8 193.6 137.9C198.1 139.2 197.4 123.5 192.7 122.3Z" fill="#747D88"/>
<path d="M253.8 49.7C254.4 49.5 254.3 48.7999 253.8 48.5999C249.6 47.1999 245 50.1 242 53C240.5 54.4 239.1 56.3 238.3 58.2C237.4 60.4 236.5 64.4 233.6 64.6C233.4 64.6 233.3 64.9 233.6 65C236.8 65.7 238.3 62.9 239.4 60.3C240.5 57.7 242.1 55.5999 244.2 53.5999C247 50.7999 250.2 50.7 253.8 49.7Z" fill="#747D88"/>
<path d="M275.7 15.6C280 15.1 283.7 13.9 288.1 14.2C288.3 14.2 288.5 14.2 288.7 14.2C287.6 14.6 286.5 15.2 285.6 16.2C285.2 16.6 285.8 17.2 286.3 16.9C289.5 14.1 294.9 15.5 298.6 16.3C300.1 16.6 301.3 16.7 302.5 16.6C303.3 16.9 304.2 17.2 305.1 17.6C308.2 18.9 311.1 19.5 314.4 19.8C320 20.2 325.4 21.8 330.9 22.9C332 23.1 332.4 21.6 331.3 21.3C327.1 19.9 322.4 18.5 318 17.9C315.1 17.6 312.2 17.4 309.4 16.8C308.2 16.5 307 16.1 305.9 15.6C306.1 15.4 306.1 15 305.8 15C305.3 14.9 304.8 14.9 304.3 14.9C303.2 14.4 302.2 13.9 301.2 13.5C297.1 11.9 292.5 12.2 288.2 11.9C283.7 11.6 279.2 11.7 275.4 14.4C274.8 14.6 274.9 15.7 275.7 15.6Z" fill="#747D88"/>
<path d="M300.9 213.7C296 212.4 292 209.9 286.9 209.3C281.1 208.7 274.1 209.6 268.7 206.9C268.3 206.7 267.9 207.2 268.2 207.5C272.2 211.1 277.8 210.4 282.9 210.8C286.9 211.1 290.9 211.3 294.3 213.5C296.3 214.8 298.6 214.9 300.9 214.4C301.4 214.5 301.3 213.8 300.9 213.7Z" fill="#747D88"/>
<path d="M284.5 215.1C279.4 213.3 274.6 212.2 269.2 211.7C265.1 211.3 260.6 211.6 256.8 209.9C256.4 209.7 252 207.5 254.8 206.3C257.5 205.2 260.1 206 261.9 208C261 208.1 260 208.1 259.1 208.2C258.9 208.2 258.8 208.5 258.9 208.6C260 210 261.8 209.6 263.5 209.6C264.2 209.6 264.6 208.9 264.2 208.3C262.2 204.9 259.7 204.2 255.8 204.8C253.5 205.1 250.5 206.2 252.4 208.8C254.6 211.9 260.3 212.6 263.6 212.9C267.6 213.4 271.5 213.5 275.5 214.2C278.6 214.7 281.4 215.6 284.5 215.4C284.7 215.3 284.7 215.1 284.5 215.1Z" fill="#747D88"/>
<path d="M244 168.8C244.6 169.5 245.6 168.5 245 167.8C242.7 165 239.9 163.2 236.5 162.1C233.6 161.2 231.2 160.5 229.5 157.8C228.4 156.2 227.8 154.2 226.8 152.5C226.6 152.2 226.2 152.4 226.3 152.7C227 156 228.2 159.4 231 161.4C232.5 162.5 234.5 162.9 236.2 163.5C239.3 164.5 241.6 166.4 244 168.8Z" fill="#747D88"/>
<path d="M260.1 168.8C258.7 165.9 252.7 161.1 249.4 163C246.4 164.7 251.1 168.4 252.7 168.7C253.7 168.9 254.1 167.4 253.1 167.2C252 166.9 248.5 163.8 251.5 164.2C253.2 164.5 254.9 165.9 256.1 166.9C256.7 167.4 261.7 172.9 257.1 173.1C255.5 173.2 253.6 172.3 252.2 171.7C248.1 170.3 243.5 170.2 240 167.3C238.4 166 237.4 165.1 235.3 165.2C235 165.2 235 165.6 235.2 165.7C238.7 167.1 241.2 170.1 244.8 171.4C248.3 172.7 252.3 173.7 255.9 174.6C260.3 175.8 261.8 172.3 260.1 168.8Z" fill="#747D88"/>
<path d="M240.4 99.5C240.6 99.2 240.3 98.9 240 98.9C238.7 98.8 237.7 99.1 236.5 98.2C235.4 97.3 234.8 95.6 234.7 94.3C234.5 91.6 236.9 87.9 239.7 87.6C240.3 87.5 240.3 86.8 239.7 86.7C235.5 86.2 232.7 91.1 233 94.8C233.2 97.7 237.5 103.3 240.4 99.5Z" fill="#747D88"/>
<path d="M365.8 279.9L366.9 279.1C366.9 279.1 367.5 279.3 367.5 279.7L366.4 280.4L365.8 279.9Z" fill="#747D88"/>
<path d="M367.1 280.5L357.9 275L349.8 287.1L357.9 293.2L367.1 280.5Z" fill="#747D88"/>
<path d="M364.1 282C361.4 285.3 359.3 289 357.9 293C357.8 293.7 359 293.6 359.5 293.3C360 293 360.4 292.5 360.7 292C362.2 289.7 363.8 287.4 365.3 285.1C366 284.1 366.7 283 367.2 281.9C368.5 279.1 364.9 281 364.1 282Z" fill="#747D88"/>
<path d="M361.2 287.1C360 288.8 359.1 290.7 358.5 292.6C358.4 292.9 358.8 293 358.9 292.7C359.5 290.8 360.4 289 361.6 287.3C361.7 287.1 361.3 286.9 361.2 287.1Z" fill="#747D88"/>
<path d="M362.2 285.8C362 286.1 361.8 286.3 361.6 286.6C361.5 286.8 361.8 287.1 361.9 286.8C362.1 286.5 362.3 286.2 362.5 286C362.7 285.8 362.4 285.6 362.2 285.8Z" fill="#747D88"/>
<path d="M365.9 281.8C365.4 281.7 365.3 282.5 365.8 282.5C366.3 282.6 366.4 281.9 365.9 281.8Z" fill="#747D88"/>
<path d="M365.1 282.8C364.6 282.7 364.5 283.5 365 283.5C365.5 283.5 365.6 282.8 365.1 282.8Z" fill="#747D88"/>
<path d="M345.9 278C346.4 277.5 346.3 276.7 346.4 276.1C346.4 276 346.5 275.8 346.4 275.7C346.4 275.6 346.2 275.5 346.1 275.5C346 275.5 345.9 275.6 345.9 275.7C345.8 275.9 345.7 276.2 345.6 276.4C345.4 276.1 345 275.7 344.7 275.4C344.6 275.3 344.6 275.3 344.5 275.3C344.4 275.3 344.3 275.5 344.3 275.7C344.3 275.9 344.4 276.2 344.6 276.4C344.4 276.1 344.1 275.9 343.8 275.8C343.7 275.8 343.6 275.8 343.6 275.8C343.6 275.9 343.6 275.9 343.6 276C343.7 276.3 343.9 276.5 344.1 276.7C343.9 276.6 343.7 276.5 343.5 276.5C343.4 276.5 343.2 276.6 343.3 276.7C343.3 276.7 343.3 276.8 343.4 276.8C343.7 277 344 277.3 344.3 277.5C344.2 277.5 344.1 277.5 344 277.5C343.9 277.5 343.8 277.6 343.8 277.7L343.9 277.8C344.5 278.1 345.3 278.7 345.9 278C345.9 278.1 345.9 278.1 345.9 278Z" fill="#747D88"/>
<path d="M352.8 281.5C352.4 281.7 352 281.8 351.5 281.8C351.4 281.8 351.3 281.8 351.3 281.8C351.2 281.8 351.1 281.8 351 281.8C350.1 281.8 349.1 281.5 348.1 281.1C348 281.1 347.9 281 347.8 281C347 280.6 346.2 280.1 345.4 279.6C345.3 279.5 345.2 279.5 345.2 279.4C345.1 279.4 345.1 279.3 345 279.3C345 278.4 345.8 277.7 346.7 277.4C346.8 277.5 346.8 277.5 346.9 277.6C347 277.7 347.1 277.7 347.1 277.8C347.9 278.4 348.8 278.8 349.7 279C349.8 279 349.8 279 349.9 279C350.2 279.1 350.5 279.1 350.8 279.1C350.9 279.1 351.1 279.1 351.2 279.1C351.3 279.1 351.5 279.1 351.6 279.1C352.2 279 352.7 278.9 353.2 278.7C353.9 278.4 354.5 278.1 355 277.6C355 279.1 354.2 280.8 352.8 281.5Z" fill="#747D88"/>
<path d="M352.2 279.5C352 279.4 351.8 279.3 351.7 279.1C352.3 279 352.8 278.9 353.3 278.7C353.3 279.2 352.8 279.6 352.2 279.5Z" fill="#747D88"/>
<path opacity="0.1" d="M352.8 281.5C352.4 281.7 352 281.8 351.5 281.8C351.5 280.8 351.4 279.7 351.3 279.1C352.7 279.1 354.1 278.5 355 277.6C355 279.1 354.2 280.8 352.8 281.5Z" fill="#747D88"/>
<path d="M351.3 281.8C351.2 281.8 351.1 281.8 351 281.8C350.3 281.1 349.1 280.8 348.1 281.1C348 281.1 347.9 281 347.8 281C348.3 280.7 349 280.7 349.6 280.9C349.6 280.3 349.7 279.6 349.8 279C349.9 279 349.9 279 350 279C349.9 279.6 349.8 280.3 349.8 280.9C350.4 281.1 350.9 281.4 351.3 281.8Z" fill="#747D88"/>
<path d="M347.2 277.701C346.5 278.201 345.9 278.8 345.5 279.5C345.4 279.4 345.3 279.4 345.3 279.3C345.8 278.6 346.4 278 347 277.5C347 277.6 347.1 277.701 347.2 277.701Z" fill="#747D88"/>
<path d="M362.3 281.2C362.3 281.2 360.7 285.8 358.2 289.5C357.7 290.3 357.1 291.1 356.5 291.7C356.5 291.8 356.4 291.8 356.4 291.9C356.2 292.1 356 292.3 355.8 292.5L355.7 292.6C355.4 292.8 355.2 293 354.9 293.2C354.8 293.3 354.6 293.4 354.5 293.5C354.2 293.7 354 293.8 353.9 294C353.8 294.1 353.6 294.3 353.5 294.4C353.3 294.8 353.1 295.1 353.1 295.5C353.1 295.6 353.1 295.6 353.1 295.7C352.9 297.7 354.3 299.9 354.3 299.9L352.8 300.5L351.8 300.9C351.8 300.9 349.7 297.6 349.5 295.9C349.5 295.8 349.5 295.8 349.5 295.7C349.5 295.5 349.5 295.4 349.5 295.2C349.7 294.6 349.9 294.1 350 293.6C350.1 293.4 350.1 293.3 350.2 293.1C350.7 292 351.1 291.3 351.3 290.9C351.4 290.8 351.4 290.7 351.4 290.7C350.5 290.3 350 289.4 349.9 289.1C349.9 289.1 349.8 289.1 349.7 289C349.3 288.9 348.2 288.5 347.2 288.4C347 288.4 346.8 288.4 346.7 288.4C346.4 288.4 346.1 288.5 345.9 288.6C345.8 288.6 345.8 288.7 345.7 288.8L345.6 288.9C344.8 290.1 343.9 293.6 343.9 293.6L342.6 293.2L341.3 292.8C341.3 292.8 342 286.7 343.7 285.6C343.7 285.6 343.8 285.5 343.9 285.5C344.7 285.2 345.9 285.3 346.9 285.4C347.1 285.4 347.2 285.5 347.4 285.5C347.6 285.5 347.8 285.6 348 285.6C348.4 285.7 348.8 285.8 349 285.9C349.1 285.9 349.2 286 349.2 286L349.6 285.4L349.7 285.2L350.4 284.2L354.9 277.7L362.3 281.2Z" fill="#747D88"/>
<path opacity="0.1" d="M358.2 289.5C357.7 290.3 357.1 291.101 356.5 291.701C356.5 291.801 356.4 291.8 356.4 291.9C356.2 292.1 356 292.3 355.8 292.5L355.7 292.6C355.4 292.8 355.2 293.001 354.9 293.201C354.3 292.601 353.5 292.2 352.7 292C351.6 293.2 351.2 294.9 351.4 296.5C351.5 297.3 351.8 298.1 352.1 298.9C352.3 299.4 352.5 299.9 352.7 300.4L351.7 300.8C351.7 300.8 349.6 297.5 349.4 295.8C349.4 295.7 349.4 295.7 349.4 295.6C349.4 295.4 349.4 295.3 349.4 295.1C349.6 294.5 349.8 294 349.9 293.5C350 293.3 350 293.2 350.1 293C350.6 291.9 351 291.2 351.2 290.8C351.3 290.7 351.3 290.6 351.3 290.6C350.4 290.2 349.9 289.3 349.8 289C349.8 289 349.7 289 349.6 288.9C349.2 288.8 348.1 288.4 347.1 288.3C346.9 288.3 346.7 288.3 346.6 288.3C346.3 288.3 346 288.4 345.8 288.5C345.7 288.5 345.7 288.601 345.6 288.701L345.5 288.8C344.7 290 343.8 293.5 343.8 293.5L342.5 293.1C342.8 291.6 343.3 290.1 343.9 288.6C344.1 288.2 344.2 287.8 344.5 287.6C344.8 287.4 345.1 287.301 345.5 287.201C346.3 287.101 347.3 287.1 348.1 287.3C348.1 286.7 348 286.1 347.9 285.5C348.3 285.6 348.7 285.7 348.9 285.8C349 285.8 349.1 285.9 349.1 285.9L349.5 285.3L349.6 285.1L350 284.5C350.9 286.5 354.5 289 358.2 289.5Z" fill="#747D88"/>
<path d="M356.4 277.6C356.4 277.5 356.2 277.5 356.2 277.6C356.3 278.7 356.3 279.7 355.7 280.7C355.2 281.6 354.6 282.3 354 283.1C353.9 283.2 354.1 283.3 354.2 283.2C354.9 282.3 355.7 281.5 356.1 280.5C356.5 279.6 356.5 278.6 356.4 277.6Z" fill="#747D88"/>
<path d="M361.8 280.7C361.3 280.9 360.8 281 360.3 281.2C359.9 281.4 359.6 281.7 359.4 282.1C358.7 283.1 358.1 284.2 357.5 285.3C357.4 285.4 357.6 285.5 357.7 285.4C358.2 284.5 358.7 283.6 359.3 282.7C359.6 282.2 359.9 281.7 360.4 281.4C360.9 281.2 361.4 281 361.9 280.9C362 280.9 361.9 280.7 361.8 280.7Z" fill="#747D88"/>
<path d="M357.8 279.3C356.4 282.5 354.4 285.4 352 288C351.9 288.1 352.1 288.2 352.1 288.1C354.5 285.6 356.5 282.6 357.9 279.4C358.1 279.3 357.9 279.2 357.8 279.3Z" fill="#747D88"/>
<path d="M358.3 282.9L357.8 284L359.4 284.9L360 284L358.3 282.9Z" fill="#747D88"/>
<path d="M355.1 281L354.5 280.6C354.4 280.5 354.3 280.7 354.4 280.8L355 281.201C355.1 281.201 355.2 281 355.1 281Z" fill="#747D88"/>
<path d="M354.9 281.4L354.3 281C354.2 280.9 354.1 281.1 354.2 281.2L354.8 281.6C354.9 281.6 355 281.4 354.9 281.4Z" fill="#747D88"/>
<path d="M347.2 288.4C347 288.4 346.8 288.4 346.7 288.4C346.8 287.4 346.9 286.4 346.9 285.4C347.1 285.4 347.2 285.5 347.4 285.5C347.4 286.5 347.3 287.5 347.2 288.4Z" fill="#747D88"/>
<path d="M353.8 294.001C353.7 294.101 353.5 294.301 353.4 294.401C352.2 294.101 351.1 293.801 349.9 293.601C350 293.401 350 293.301 350.1 293.101C351.3 293.401 352.6 293.701 353.8 294.001Z" fill="#747D88"/>
<path d="M349.9 289.201C349.9 289.101 349.9 289.101 349.9 289.201C349.9 289.201 349.8 289.101 349.7 289.101C349.8 288.601 349.9 288.201 349.8 287.701C349.6 287.101 349.3 286.5 349.1 285.9C349.1 285.8 349 285.801 349 285.701C348.9 285.601 349.1 285.501 349.2 285.601C349.3 285.701 349.3 285.8 349.4 285.9C349.7 286.5 350 287.101 350.1 287.701C350.1 288.201 350 288.701 349.9 289.201Z" fill="#747D88"/>
<path d="M355.7 292.4L355.6 292.5C355.1 291.9 354.4 291.6 353.6 291.3C352.9 291.1 352 290.7 351.2 290.9C351.3 290.8 351.3 290.7 351.3 290.7C352.1 290.6 353 290.9 353.6 291.2C354.5 291.5 355.2 291.9 355.7 292.4Z" fill="#747D88"/>
<path d="M356.5 291.7C356.5 291.8 356.4 291.8 356.4 291.9C356 291.6 355.6 291.3 355.3 291C354.6 290.4 353.9 289.8 353.2 289.2C352 288 350.8 286.7 349.8 285.4L349.9 285.2C350.9 286.5 351.9 287.6 353 288.7C353.6 289.3 354.3 289.9 355 290.4C355.4 290.7 355.7 291 356.1 291.3C356.2 291.5 356.3 291.6 356.5 291.7Z" fill="#747D88"/>
<path d="M345.6 288.8L345.5 288.9C344.8 287.9 344.2 286.7 343.7 285.6C343.8 285.6 343.8 285.5 343.9 285.5C344.3 286.6 344.9 287.6 345.5 288.5C345.5 288.6 345.6 288.7 345.6 288.8Z" fill="#747D88"/>
<path d="M353 295.801C351.8 296.001 350.6 296.001 349.4 295.901C349.4 295.801 349.4 295.801 349.4 295.701C350.6 295.801 351.8 295.701 353 295.601H353.1C353 295.601 353 295.701 353 295.801Z" fill="#747D88"/>
<path d="M353.8 282.3L359.1 285.7L357 287.9C356.6 288.3 355.9 288.3 355.5 288L352.8 285.6C352.4 285.2 352.3 284.6 352.6 284.2L353.8 282.3Z" fill="#747D88"/>
<path d="M354.3 283.6L357 285.5C357.2 285.7 357.2 286 357 286.2L356.2 286.9C356 287 355.8 287 355.7 286.9L353.4 285.1C353.2 285 353.2 284.7 353.3 284.6L353.7 283.9C353.8 283.6 354.1 283.5 354.3 283.6Z" fill="#747D88"/>
<path d="M356 287.801C356.2 287.501 356.8 287.801 356.6 288.101C356.3 288.501 355.8 289.001 355.9 289.501C356.1 290.001 356.6 290.401 357.1 290.701C357.5 290.901 357.1 291.501 356.8 291.301C356.2 290.901 355.6 290.401 355.3 289.701C355 288.901 355.6 288.301 356 287.801Z" fill="#747D88"/>
<path d="M355.9 288C356 288.1 356.2 288.2 356.4 288.3C356.5 288.3 356.4 288.4 356.4 288.4C356.1 288.3 355.9 288.2 355.9 288C355.7 288 355.8 288 355.9 288Z" fill="#747D88"/>
<path d="M355.4 288.601C355.6 288.701 355.8 288.801 356 288.801C356.1 288.801 356 288.901 356 288.901C355.8 288.901 355.6 288.801 355.4 288.601C355.3 288.701 355.4 288.601 355.4 288.601Z" fill="#747D88"/>
<path d="M355.2 289.4C355.3 289.3 355.4 289.4 355.5 289.4C355.6 289.4 355.8 289.4 355.9 289.4C356 289.4 356 289.5 355.9 289.5C355.8 289.5 355.7 289.5 355.6 289.5H355.5C355.4 289.5 355.4 289.5 355.2 289.4C355.3 289.5 355.3 289.5 355.2 289.4C355.2 289.5 355.2 289.5 355.2 289.4C355.2 289.5 355.2 289.4 355.2 289.4Z" fill="#747D88"/>
<path d="M355.5 290.201C355.7 290.101 355.8 289.901 356 289.801C356.1 289.801 356.1 289.901 356 289.901C355.9 290.001 355.7 290.101 355.5 290.201C355.5 290.301 355.5 290.201 355.5 290.201Z" fill="#747D88"/>
<path d="M356 290.701C356.1 290.701 356.1 290.701 356 290.701C356.1 290.601 356.2 290.501 356.2 290.501C356.3 290.401 356.3 290.301 356.4 290.301C356.4 290.301 356.5 290.301 356.5 290.401C356.4 290.501 356.299 290.601 356.299 290.701C356.199 290.701 356.1 290.801 356 290.701C356 290.901 356 290.801 356 290.701C356 290.801 356 290.801 356 290.701C356 290.801 356 290.801 356 290.701Z" fill="#747D88"/>
<path d="M356.6 291.2C356.6 291.1 356.6 291.1 356.6 291.2C356.6 291.1 356.6 291.1 356.6 291.2C356.7 291.1 356.7 291 356.7 291C356.8 290.9 356.8 290.8 356.9 290.8C356.9 290.7 357 290.8 357 290.8L356.8 291.1C356.8 291.2 356.7 291.2 356.7 291.3C356.6 291.3 356.6 291.3 356.6 291.2C356.6 291.2 356.5 291.2 356.6 291.2C356.5 291.2 356.6 291.2 356.6 291.2Z" fill="#747D88"/>
<path d="M353.1 284.9C353.3 284.6 352.9 284.3 352.7 284.5C352.5 284.8 352.2 285.4 351.7 285.3C351.2 285.3 350.8 284.9 350.5 284.7C350.2 284.5 349.9 284.9 350.1 285.1C350.5 285.5 351.1 285.9 351.7 285.9C352.4 285.9 352.7 285.3 353.1 284.9Z" fill="#747D88"/>
<path d="M352.9 285.1C352.8 285 352.6 284.9 352.5 284.8C352.5 284.8 352.4 284.8 352.4 284.9C352.6 284.9 352.7 285 352.9 285.1C352.9 285.2 353 285.1 352.9 285.1Z" fill="#747D88"/>
<path d="M352.5 285.6C352.4 285.5 352.3 285.3 352.2 285.2H352.1C352.2 285.3 352.3 285.5 352.5 285.6Z" fill="#747D88"/>
<path d="M351.9 285.9C351.9 285.8 351.9 285.7 351.9 285.7C351.9 285.6 351.9 285.5 351.8 285.4H351.7C351.7 285.5 351.7 285.6 351.7 285.6V285.7C351.8 285.7 351.9 285.8 351.9 285.9C351.8 285.8 351.8 285.8 351.9 285.9Z" fill="#747D88"/>
<path d="M351.3 285.8C351.4 285.6 351.4 285.5 351.5 285.3C351.5 285.3 351.4 285.2 351.4 285.3C351.3 285.5 351.3 285.6 351.3 285.8C351.2 285.8 351.2 285.9 351.3 285.8Z" fill="#747D88"/>
<path d="M350.7 285.5C350.7 285.4 350.8 285.3 350.8 285.3C350.9 285.2 350.9 285.2 351 285.1C351 285.1 351 285 350.9 285.1C350.8 285.2 350.8 285.3 350.7 285.4C350.7 285.4 350.6 285.5 350.7 285.5C350.6 285.6 350.6 285.6 350.7 285.5C350.6 285.6 350.6 285.6 350.7 285.5C350.7 285.6 350.7 285.6 350.7 285.5Z" fill="#747D88"/>
<path d="M350.2 285.2C350.2 285.2 350.3 285.1 350.2 285.2C350.3 285.1 350.3 285.1 350.3 285C350.4 284.9 350.4 284.9 350.5 284.8C350.5 284.8 350.5 284.7 350.4 284.7L350.2 284.9C350.2 285.1 350.1 285.1 350.2 285.2C350.1 285.2 350.1 285.2 350.2 285.2Z" fill="#747D88"/>
<path d="M344.6 286.301C344.4 286.401 344.2 286.501 344 286.601C343.8 286.701 343.7 286.701 343.5 286.801C343.3 286.901 343.1 286.801 343 286.601C343 286.601 342.9 286.501 342.9 286.401C342.8 286.201 342.9 285.901 343 285.701C343.2 285.301 343.6 285.101 344 284.901C344.3 284.801 344.5 284.801 344.8 285.001C344.9 285.101 344.9 285.101 345 285.201C345.1 285.401 345.2 285.701 345 285.901C344.9 286.101 344.7 286.201 344.6 286.301Z" fill="#747D88"/>
<path d="M343.9 286.501C343.7 286.601 343.6 286.601 343.4 286.701C343.2 286.801 343 286.701 342.9 286.501C342.8 286.301 342.9 286.001 343 285.801C343.2 285.401 343.6 285.201 344 285.001C344.3 284.901 344.5 284.901 344.8 285.101C344.9 285.201 344.9 285.201 345 285.301C345.1 285.501 345.1 285.701 345 285.901C344.9 286.101 344.8 286.201 344.6 286.201C344.3 286.301 344.1 286.401 343.9 286.501Z" fill="#747D88"/>
<path opacity="0.5" d="M344.3 285.3C344.4 285.4 344.5 285.201 344.4 285.101C344.2 285.001 344 285.101 343.8 285.201C343.5 285.301 343.3 285.501 343.1 285.701C343 285.801 343.2 285.9 343.3 285.8C343.4 285.6 344 285.1 344.3 285.3Z" fill="#747D88"/>
<path opacity="0.5" d="M343.2 286.2C343.2 286.1 343.2 286.1 343.2 286C343.2 286 343.2 285.9 343.1 285.9C343 285.9 343 285.9 343 286C343 286.1 343 286.1 343 286.2C343 286.2 343 286.3 343.2 286.2C343.1 286.3 343.1 286.3 343.2 286.2Z" fill="#747D88"/>
<path d="M350.3 295.3C350.3 295.5 350.3 295.7 350.3 296C350.3 296.2 350.3 296.4 350.2 296.5C350.1 296.7 350 296.8 349.8 296.9C349.7 296.9 349.7 296.9 349.6 296.9C349.4 296.9 349.2 296.7 349.1 296.5C348.9 296.1 348.8 295.701 348.8 295.201C348.8 294.901 349 294.7 349.3 294.6C349.4 294.6 349.5 294.6 349.5 294.5C349.8 294.5 350 294.6 350.2 294.8C350.3 294.9 350.3 295.1 350.3 295.3Z" fill="#747D88"/>
<path d="M350.1 295.9C350.1 296.1 350.1 296.3 350 296.4C349.9 296.6 349.8 296.7 349.6 296.8C349.4 296.8 349.2 296.6 349.1 296.4C348.9 296 348.8 295.6 348.8 295.1C348.8 294.8 349 294.6 349.3 294.5C349.4 294.5 349.5 294.5 349.5 294.4C349.7 294.4 349.9 294.5 350 294.7C350.1 294.8 350.1 295 350.1 295.2C350.1 295.5 350.1 295.7 350.1 295.9Z" fill="#747D88"/>
<path opacity="0.5" d="M349.2 295C349.3 294.9 349.2 294.8 349.1 294.8C348.9 294.9 348.9 295.2 348.9 295.4C348.9 295.7 348.9 296 349.1 296.2C349.2 296.3 349.3 296.2 349.3 296.1C349.1 295.9 348.9 295.2 349.2 295Z" fill="#747D88"/>
<path opacity="0.5" d="M349.5 296.5C349.4 296.5 349.4 296.4 349.3 296.4H349.2V296.5C349.3 296.5 349.3 296.6 349.4 296.6H349.5C349.6 296.6 349.6 296.5 349.5 296.5Z" fill="#747D88"/>
<path d="M343 297C343 297 340.9 296.8 338.5 295.7C338.5 295.7 338.5 295.6 338.5 295.5C338.5 295.5 338.5 295.4 338.5 295.3C338.6 294.8 339.1 293.9 340.6 294.3H340.7V294.2L341.1 292.1L343.9 292.9L342.9 296.6V296.8L343 297Z" fill="#747D88"/>
<path d="M343.1 296.7C342.9 296.7 342.6 296.7 342.4 296.6C342 296.5 341.5 296.5 341.1 296.4C340.2 296.2 339.4 295.9 338.6 295.5C338.6 295.5 338.6 295.4 338.6 295.3C339.4 295.7 340.1 296 341 296.2C341.3 296.3 341.7 296.3 342 296.4C342.3 295.4 342.9 293.6 343.2 292.6H343.3C343 293.6 342.4 295.4 342.1 296.4C342.2 296.4 342.3 296.4 342.4 296.4C342.6 296.4 342.9 296.5 343.2 296.5L343.1 296.7Z" fill="#747D88"/>
<path d="M342.1 295.5C341.7 295.1 341.2 294.7 340.7 294.4H340.8V294.3C341.3 294.6 341.7 295 342.1 295.4C342.3 295.4 342.2 295.5 342.1 295.5Z" fill="#747D88"/>
<path d="M342.8 295.1C342.7 295 342.6 294.8 342.4 294.8C342.2 294.8 342.1 294.8 341.9 294.9C341.8 295 341.6 295.1 341.6 295.3V295.4C341.6 295.6 341.6 295.7 341.7 295.9C341.8 296 341.9 296.2 342.1 296.2C342.3 296.2 342.4 296.2 342.6 296.1C342.7 296 342.9 295.9 342.9 295.7V295.6C342.9 295.4 342.9 295.2 342.8 295.1Z" fill="#747D88"/>
<path d="M342.6 295.2C342.5 295.1 342.4 295 342.3 295C342.2 295 342.1 295 342 295C341.9 295.1 341.8 295.2 341.8 295.3C341.8 295.4 341.8 295.5 341.8 295.6C341.9 295.7 342 295.8 342.1 295.8C342.2 295.8 342.3 295.8 342.4 295.8C342.5 295.7 342.6 295.6 342.6 295.5C342.7 295.4 342.7 295.3 342.6 295.2Z" fill="#747D88"/>
<path opacity="0.5" d="M340.2 294.4C339.5 294.3 338.8 294.7 338.7 295.4C338.7 295.7 339.1 295.7 339.1 295.5C339.2 295 339.6 294.7 340.1 294.8C340.4 294.8 340.5 294.4 340.2 294.4Z" fill="#747D88"/>
<path opacity="0.5" d="M340.8 294.4C340.6 294.4 340.5 294.4 340.5 294.5C340.5 294.6 340.5 294.7 340.7 294.7H340.8C340.9 294.7 341 294.7 341 294.5C341 294.6 340.9 294.5 340.8 294.4Z" fill="#747D88"/>
<path d="M355.7 302.8C355.7 302.8 354 304 351.5 304.8C351.5 304.8 351.5 304.7 351.4 304.6C351.4 304.6 351.4 304.5 351.3 304.5C351.1 304 350.8 303.1 352.2 302.3C352.2 302.3 352.3 302.3 352.3 302.2L352.2 302.1L351.1 300.2L353.7 298.9L355.4 302.3L355.5 302.4L355.7 302.8Z" fill="#747D88"/>
<path d="M355.6 302.5C355.4 302.7 355.2 302.8 355 302.9C354.6 303.2 354.3 303.4 353.9 303.6C353.1 304 352.3 304.4 351.4 304.6C351.4 304.6 351.4 304.5 351.3 304.5C352.1 304.3 352.9 304 353.6 303.6C353.9 303.4 354.2 303.3 354.5 303.1C354.1 302.1 353.3 300.4 352.9 299.5L353 299.4C353.4 300.3 354.2 302 354.6 303C354.7 303 354.7 302.9 354.8 302.9C355 302.8 355.2 302.6 355.4 302.4L355.6 302.5Z" fill="#747D88"/>
<path d="M354 302.3C353.4 302.3 352.8 302.3 352.2 302.3C352.2 302.3 352.3 302.3 352.3 302.2L352.2 302.1C352.8 302 353.4 302 354 302.1C354.2 302.1 354.1 302.3 354 302.3Z" fill="#747D88"/>
<path d="M354.3 301.601C354.2 301.501 354 301.601 353.8 301.601C353.7 301.701 353.5 301.801 353.5 302.001C353.5 302.201 353.5 302.301 353.5 302.501V302.601C353.6 302.701 353.7 302.901 353.9 302.901C354 303.001 354.2 302.901 354.4 302.901C354.5 302.801 354.7 302.701 354.7 302.501C354.7 302.301 354.7 302.201 354.7 302.001V301.901C354.6 301.701 354.5 301.601 354.3 301.601Z" fill="#747D88"/>
<path d="M354.3 301.7C354.2 301.7 354.1 301.7 354 301.7C353.9 301.8 353.8 301.8 353.8 302C353.8 302.1 353.8 302.2 353.8 302.3C353.8 302.4 353.9 302.5 354.1 302.5C354.2 302.5 354.3 302.5 354.4 302.5C354.5 302.4 354.6 302.4 354.6 302.2C354.6 302.1 354.6 302 354.6 301.9C354.5 301.9 354.4 301.8 354.3 301.7Z" fill="#747D88"/>
<path opacity="0.5" d="M351.9 302.801C351.3 303.201 351.1 304.001 351.5 304.601C351.6 304.801 352 304.601 351.9 304.401C351.6 304.001 351.8 303.401 352.2 303.201C352.3 303.001 352.1 302.601 351.9 302.801Z" fill="#747D88"/>
<path opacity="0.5" d="M352.4 302.4C352.3 302.5 352.2 302.6 352.3 302.7C352.4 302.8 352.5 302.8 352.6 302.8C352.7 302.7 352.7 302.6 352.7 302.5C352.6 302.4 352.5 302.3 352.4 302.4Z" fill="#747D88"/>
<path d="M363.4 292C362.9 291.5 362.1 291.5 361.5 291.3C361.4 291.3 361.2 291.2 361.1 291.2C361 291.2 360.9 291.3 360.9 291.5C360.9 291.6 361 291.7 361.1 291.7C361.3 291.8 361.5 291.9 361.8 292C361.4 292.2 361.1 292.5 360.8 292.8C360.7 292.8 360.7 292.9 360.7 293C360.7 293.1 360.9 293.2 361 293.2C361.2 293.2 361.5 293.1 361.7 293C361.4 293.1 361.2 293.4 361 293.7C361 293.8 360.9 293.9 361 293.9C361 293.9 361.1 293.9 361.2 293.9C361.5 293.8 361.7 293.7 361.9 293.5C361.7 293.7 361.7 293.9 361.6 294.1C361.6 294.2 361.6 294.4 361.7 294.4C361.7 294.4 361.8 294.4 361.8 294.3C362.1 294 362.3 293.8 362.6 293.5C362.5 293.6 362.5 293.7 362.6 293.8C362.6 293.9 362.7 294 362.8 294C362.9 294 362.9 293.9 362.9 293.9C363.3 293.3 363.9 292.6 363.4 292Z" fill="#747D88"/>
<path d="M366.3 290.2C366.3 290.3 366.2 290.3 366.2 290.4C365.9 291.1 365.3 291.8 364.7 292.2C364.6 292.3 364.5 292.3 364.4 292.4C364.2 292.5 363.9 292.6 363.6 292.7C362.7 292.4 362.2 291.9 362.3 291.2C362.4 291.1 362.5 291 362.7 290.9C362.8 290.8 362.9 290.8 363 290.7C363.6 290.2 364.3 289.6 364.3 288.6C364.3 288.5 364.3 288.5 364.3 288.4C364.1 287.4 363.3 286 361.2 284.1C360.7 283.6 361.7 281.4 362.4 281.3C363.9 282.4 365.1 283.9 366 285.5C366.2 285.8 366.3 286.2 366.4 286.5C366.4 286.6 366.4 286.6 366.5 286.7C366.8 287.6 366.9 288.6 366.7 289.5C366.5 289.7 366.4 289.9 366.3 290.2Z" fill="#747D88"/>
<path d="M366.3 290.2C366.3 290.3 366.2 290.3 366.2 290.4C365.8 289.9 365.6 289.3 365.5 288.7C365.1 288.7 364.6 288.7 364.2 288.7C364.2 288.6 364.2 288.6 364.2 288.5C364.7 288.5 365.1 288.5 365.6 288.5C365.6 287.9 365.8 287 366.3 286.6C366.3 286.7 366.3 286.7 366.4 286.8C365.9 287.3 365.8 288.4 365.9 289.1C365.9 289.4 366.1 289.8 366.3 290.2Z" fill="#747D88"/>
<path d="M364.7 292.2C364.6 292.3 364.5 292.3 364.4 292.4C364.1 292.2 363.7 291.9 363.4 291.7C363.1 291.5 362.8 291.2 362.6 290.9C362.7 290.8 362.8 290.8 362.9 290.7C363.1 291.1 363.5 291.4 363.9 291.6C364.2 291.8 364.5 292 364.7 292.2Z" fill="#747D88"/>
<path d="M355.4 276.9L355 277.7C355 277.7 358.2 281.2 362.3 281.2L362.6 280.5L355.4 276.9Z" fill="#747D88"/>
<path d="M361.1 280.4C360.8 280.2 360.5 280.7 360.8 280.9C361.2 281.1 361.4 280.6 361.1 280.4Z" fill="#747D88"/>
<path d="M360.2 280.1C359.9 279.9 359.6 280.4 359.9 280.6C360.3 280.7 360.5 280.2 360.2 280.1Z" fill="#747D88"/>
<path d="M366 271.5C366 271.4 365.9 271.4 365.9 271.3C365.8 271.2 365.8 271.1 365.7 271.1C365.7 271 365.6 271 365.6 270.9C365.1 270.3 364.4 269.7 363.6 269.3C363.4 269.2 363.3 269.2 363.1 269.1C362.9 269 362.6 268.9 362.4 268.9C362 268.8 361.6 268.7 361.2 268.7C361 268.7 360.9 268.7 360.7 268.7C360.6 268.7 360.5 268.7 360.4 268.7C358.4 268.9 356.5 270.1 355.6 272C355 273.2 354.8 274.6 355.1 275.9C355.2 276.2 355.3 276.6 355.4 276.9C355.4 276.9 358 279.2 362.6 280.4C364.2 280 365.6 278.9 366.3 277.3C367.3 275.4 367.1 273.2 366 271.5Z" fill="#747D88"/>
<path d="M363.2 269.1C362.3 269 361.4 269.1 360.5 269.4C360.4 269.4 360.3 269.2 360.5 269.2C361.2 269 361.8 268.9 362.5 268.9C362.7 268.9 362.9 269 363.2 269.1Z" fill="#747D88"/>
<path d="M366 271.5C364.8 270.7 363.3 270.2 362 270.9C361.8 271 361.7 270.7 361.9 270.6C363.2 269.9 364.4 270.2 365.6 270.8C365.6 270.9 365.7 270.9 365.7 271C365.8 271.1 365.8 271.2 365.9 271.2C366 271.4 366 271.4 366 271.5Z" fill="#747D88"/>
<path d="M364.8 275.4C364.7 275.5 364.7 275.7 364.6 275.8C363.3 278.2 360 279 357.2 277.6C356.8 277.4 356.5 277.2 356.2 277C355.8 276.7 355.4 276.3 355.1 275.9C354.8 274.6 355 273.3 355.6 272C355.8 271.7 356 271.3 356.2 271C357.2 269.6 358.8 268.8 360.4 268.7C360.5 268.7 360.6 268.7 360.7 268.7C360.9 268.7 361 268.7 361.2 268.7C361.5 268.8 361.7 268.9 362 269C362.1 269.1 362.3 269.1 362.4 269.2C364.7 270.6 365.7 273.2 364.8 275.4Z" fill="#747D88"/>
<path d="M365 274.8C364.7 274.7 364.3 274.7 364.1 274.9C363.8 275.1 363.6 275.3 363.5 275.6C363.4 275.9 363.4 276.2 363.6 276.5L363.7 276.6C363.8 276.9 364.1 277.1 364.4 277.2C364.7 277.3 365.1 277.3 365.3 277.1C365.6 276.9 365.8 276.7 365.9 276.4C366 276.1 366 275.8 365.8 275.5L365.7 275.4C365.6 275.1 365.3 274.9 365 274.8Z" fill="#747D88"/>
<path d="M364.9 275.1C364.7 275 364.4 275 364.2 275.1C364 275.2 363.8 275.4 363.8 275.6C363.7 275.8 363.7 276 363.8 276.3V276.4C363.9 276.6 364.1 276.8 364.3 276.8C364.5 276.9 364.8 276.9 365 276.8C365.2 276.7 365.4 276.5 365.4 276.3C365.5 276.1 365.5 275.9 365.4 275.6V275.5C365.3 275.4 365.1 275.2 364.9 275.1Z" fill="#747D88"/>
<path d="M364.6 275.7C363.3 278.1 360 278.9 357.2 277.5C356.8 277.3 356.5 277.1 356.2 276.9C356 275.6 356.2 274.2 356.8 272.9C357.9 270.7 360 269.4 362.2 269.2C362.3 269.2 362.3 269.2 362.4 269.2C364.9 270.7 365.8 273.5 364.6 275.7Z" fill="#0F102E"/>
<path opacity="0.1" d="M364.8 275.4C363 275.6 361 275.2 359.3 274.1C357.9 273.3 356.9 272.2 356.3 271C357.3 269.6 358.9 268.8 360.5 268.7C360.6 268.7 360.7 268.7 360.8 268.7C361 268.7 361.1 268.7 361.3 268.7C361.6 268.8 361.8 268.9 362.1 269C362.2 269.1 362.4 269.1 362.5 269.2C364.7 270.6 365.7 273.2 364.8 275.4Z" fill="white"/>
<path opacity="0.5" d="M359.8 269.4L359.9 270C359.9 270 357.5 271 356.9 272.9L356 272.8C356 272.7 357.2 269.7 359.8 269.4Z" fill="white"/>
<path opacity="0.5" d="M360.5 269.3L360.6 269.8C360.6 269.8 361.3 269.7 362 269.7C362 269.7 361.2 269.2 360.5 269.3Z" fill="white"/>
<path d="M356.8 291L363.2 282.3L357.5 291.4L356.8 291Z" fill="#0F102E"/>
<path d="M365.5 280.9C365.5 280.9 378.8 272.8 375.2 262.8C371.7 253.1 362.3 249.1 346.3 255.6C336.6 259.5 319.2 252.9 325.5 236.6" stroke="#747D88" stroke-width="0.5" stroke-miterlimit="10"/>
</svg>
