<svg width="174" height="67" viewBox="0 0 174 67" fill="none" xmlns="http://www.w3.org/2000/svg">
<path d="M102.921 53.4792L105.871 56.4292C110.296 51.5125 113 44.875 113 37.5C113 23.9792 104.15 12.6708 91.8583 9.22917L88.6625 12.6708C86.9417 12.425 85.2208 12.1792 83.5 12.1792C83.2542 12.1792 82.7625 12.1792 82.5167 12.1792L86.2042 8C85.2208 8 84.4833 8 83.5 8C67.275 8 54 21.275 54 37.5C54 39.4667 54.2458 41.4333 54.4917 43.1542L58.1792 38.975C58.425 41.1875 58.6708 43.1542 59.4083 45.1208L56.2125 48.5625C60.6375 59.3792 71.2083 67 83.5 67C90.875 67 97.5125 64.2958 102.429 60.1167L99.4792 57.1667C100.954 55.9375 101.937 54.9542 102.921 53.4792ZM92.35 42.6625H88.6625V50.5292C88.6625 53.4792 86.45 55.6917 83.5 55.6917C80.55 55.6917 78.3375 53.4792 78.3375 50.5292V41.4333C78.3375 40.6958 78.8292 40.2042 79.5667 40.2042C80.3042 40.2042 80.7958 40.6958 80.7958 41.4333V50.5292C80.7958 52.0042 82.025 53.2333 83.5 53.2333C84.975 53.2333 86.2042 52.0042 86.2042 50.5292V40.2042H92.35C93.0875 40.2042 93.5792 40.6958 93.5792 41.4333C93.5792 42.1708 92.8417 42.6625 92.35 42.6625ZM80.7958 34.7958H70.4708C68.9958 34.7958 67.7667 36.025 67.7667 37.5C67.7667 38.975 68.9958 40.2042 70.4708 40.2042C71.2083 40.2042 71.7 40.6958 71.7 41.4333C71.7 42.1708 71.2083 42.6625 70.4708 42.6625C67.5208 42.6625 65.3083 40.45 65.3083 37.5C65.3083 34.55 67.5208 32.3375 70.4708 32.3375H78.3375V30.6167C78.3375 29.8792 78.8292 29.3875 79.5667 29.3875C80.3042 29.3875 80.7958 29.8792 80.7958 30.6167V34.7958V34.7958ZM96.5292 42.6625C95.7917 42.6625 95.3 42.1708 95.3 41.4333C95.3 40.6958 95.7917 40.2042 96.5292 40.2042C98.0042 40.2042 99.2333 38.975 99.2333 37.5C99.2333 36.025 98.0042 34.7958 96.5292 34.7958H86.2042V24.4708C86.2042 22.9958 84.975 21.7667 83.5 21.7667C82.025 21.7667 80.7958 22.9958 80.7958 24.4708C80.7958 25.2083 80.3042 25.7 79.5667 25.7C78.8292 25.7 78.3375 25.2083 78.3375 24.4708C78.3375 21.5208 80.55 19.3083 83.5 19.3083C86.45 19.3083 88.6625 21.5208 88.6625 24.4708V32.3375H96.5292C99.4792 32.3375 101.692 34.55 101.692 37.5C101.692 40.45 99.4792 42.6625 96.5292 42.6625Z" fill="#FF542E"/>
<path d="M171.096 53.1042L171.946 53.9542C173.221 52.5375 174 50.625 174 48.5C174 44.6042 171.45 41.3458 167.908 40.3542L166.987 41.3458C166.492 41.275 165.996 41.2042 165.5 41.2042C165.429 41.2042 165.288 41.2042 165.217 41.2042L166.279 40C165.996 40 165.783 40 165.5 40C160.825 40 157 43.825 157 48.5C157 49.0667 157.071 49.6333 157.142 50.1292L158.204 48.925C158.275 49.5625 158.346 50.1292 158.558 50.6958L157.637 51.6875C158.912 54.8042 161.958 57 165.5 57C167.625 57 169.538 56.2208 170.954 55.0167L170.104 54.1667C170.529 53.8125 170.812 53.5292 171.096 53.1042ZM168.05 49.9875H166.987V52.2542C166.987 53.1042 166.35 53.7417 165.5 53.7417C164.65 53.7417 164.012 53.1042 164.012 52.2542V49.6333C164.012 49.4208 164.154 49.2792 164.367 49.2792C164.579 49.2792 164.721 49.4208 164.721 49.6333V52.2542C164.721 52.6792 165.075 53.0333 165.5 53.0333C165.925 53.0333 166.279 52.6792 166.279 52.2542V49.2792H168.05C168.262 49.2792 168.404 49.4208 168.404 49.6333C168.404 49.8458 168.192 49.9875 168.05 49.9875ZM164.721 47.7208H161.746C161.321 47.7208 160.967 48.075 160.967 48.5C160.967 48.925 161.321 49.2792 161.746 49.2792C161.958 49.2792 162.1 49.4208 162.1 49.6333C162.1 49.8458 161.958 49.9875 161.746 49.9875C160.896 49.9875 160.258 49.35 160.258 48.5C160.258 47.65 160.896 47.0125 161.746 47.0125H164.012V46.5167C164.012 46.3042 164.154 46.1625 164.367 46.1625C164.579 46.1625 164.721 46.3042 164.721 46.5167V47.7208V47.7208ZM169.254 49.9875C169.042 49.9875 168.9 49.8458 168.9 49.6333C168.9 49.4208 169.042 49.2792 169.254 49.2792C169.679 49.2792 170.033 48.925 170.033 48.5C170.033 48.075 169.679 47.7208 169.254 47.7208H166.279V44.7458C166.279 44.3208 165.925 43.9667 165.5 43.9667C165.075 43.9667 164.721 44.3208 164.721 44.7458C164.721 44.9583 164.579 45.1 164.367 45.1C164.154 45.1 164.012 44.9583 164.012 44.7458C164.012 43.8958 164.65 43.2583 165.5 43.2583C166.35 43.2583 166.987 43.8958 166.987 44.7458V47.0125H169.254C170.104 47.0125 170.742 47.65 170.742 48.5C170.742 49.35 170.104 49.9875 169.254 49.9875Z" fill="#FF542E"/>
<path d="M24.875 41.125L26.375 42.625C28.625 40.125 30 36.75 30 33C30 26.125 25.5 20.375 19.25 18.625L17.625 20.375C16.75 20.25 15.875 20.125 15 20.125C14.875 20.125 14.625 20.125 14.5 20.125L16.375 18C15.875 18 15.5 18 15 18C6.75 18 0 24.75 0 33C0 34 0.125 35 0.25 35.875L2.125 33.75C2.25 34.875 2.375 35.875 2.75 36.875L1.125 38.625C3.375 44.125 8.75 48 15 48C18.75 48 22.125 46.625 24.625 44.5L23.125 43C23.875 42.375 24.375 41.875 24.875 41.125ZM19.5 35.625H17.625V39.625C17.625 41.125 16.5 42.25 15 42.25C13.5 42.25 12.375 41.125 12.375 39.625V35C12.375 34.625 12.625 34.375 13 34.375C13.375 34.375 13.625 34.625 13.625 35V39.625C13.625 40.375 14.25 41 15 41C15.75 41 16.375 40.375 16.375 39.625V34.375H19.5C19.875 34.375 20.125 34.625 20.125 35C20.125 35.375 19.75 35.625 19.5 35.625ZM13.625 31.625H8.375C7.625 31.625 7 32.25 7 33C7 33.75 7.625 34.375 8.375 34.375C8.75 34.375 9 34.625 9 35C9 35.375 8.75 35.625 8.375 35.625C6.875 35.625 5.75 34.5 5.75 33C5.75 31.5 6.875 30.375 8.375 30.375H12.375V29.5C12.375 29.125 12.625 28.875 13 28.875C13.375 28.875 13.625 29.125 13.625 29.5V31.625V31.625ZM21.625 35.625C21.25 35.625 21 35.375 21 35C21 34.625 21.25 34.375 21.625 34.375C22.375 34.375 23 33.75 23 33C23 32.25 22.375 31.625 21.625 31.625H16.375V26.375C16.375 25.625 15.75 25 15 25C14.25 25 13.625 25.625 13.625 26.375C13.625 26.75 13.375 27 13 27C12.625 27 12.375 26.75 12.375 26.375C12.375 24.875 13.5 23.75 15 23.75C16.5 23.75 17.625 24.875 17.625 26.375V30.375H21.625C23.125 30.375 24.25 31.5 24.25 33C24.25 34.5 23.125 35.625 21.625 35.625Z" fill="#FF542E"/>
<path d="M152.558 20.0417L153.858 21.3417C155.808 19.175 157 16.25 157 13C157 7.04167 153.1 2.05833 147.683 0.541667L146.275 2.05833C145.517 1.95 144.758 1.84167 144 1.84167C143.892 1.84167 143.675 1.84167 143.567 1.84167L145.192 0C144.758 0 144.433 0 144 0C136.85 0 131 5.85 131 13C131 13.8667 131.108 14.7333 131.217 15.4917L132.842 13.65C132.95 14.625 133.058 15.4917 133.383 16.3583L131.975 17.875C133.925 22.6417 138.583 26 144 26C147.25 26 150.175 24.8083 152.342 22.9667L151.042 21.6667C151.692 21.125 152.125 20.6917 152.558 20.0417ZM147.9 15.275H146.275V18.7417C146.275 20.0417 145.3 21.0167 144 21.0167C142.7 21.0167 141.725 20.0417 141.725 18.7417V14.7333C141.725 14.4083 141.942 14.1917 142.267 14.1917C142.592 14.1917 142.808 14.4083 142.808 14.7333V18.7417C142.808 19.3917 143.35 19.9333 144 19.9333C144.65 19.9333 145.192 19.3917 145.192 18.7417V14.1917H147.9C148.225 14.1917 148.442 14.4083 148.442 14.7333C148.442 15.0583 148.117 15.275 147.9 15.275ZM142.808 11.8083H138.258C137.608 11.8083 137.067 12.35 137.067 13C137.067 13.65 137.608 14.1917 138.258 14.1917C138.583 14.1917 138.8 14.4083 138.8 14.7333C138.8 15.0583 138.583 15.275 138.258 15.275C136.958 15.275 135.983 14.3 135.983 13C135.983 11.7 136.958 10.725 138.258 10.725H141.725V9.96667C141.725 9.64167 141.942 9.425 142.267 9.425C142.592 9.425 142.808 9.64167 142.808 9.96667V11.8083V11.8083ZM149.742 15.275C149.417 15.275 149.2 15.0583 149.2 14.7333C149.2 14.4083 149.417 14.1917 149.742 14.1917C150.392 14.1917 150.933 13.65 150.933 13C150.933 12.35 150.392 11.8083 149.742 11.8083H145.192V7.25833C145.192 6.60833 144.65 6.06667 144 6.06667C143.35 6.06667 142.808 6.60833 142.808 7.25833C142.808 7.58333 142.592 7.8 142.267 7.8C141.942 7.8 141.725 7.58333 141.725 7.25833C141.725 5.95833 142.7 4.98333 144 4.98333C145.3 4.98333 146.275 5.95833 146.275 7.25833V10.725H149.742C151.042 10.725 152.017 11.7 152.017 13C152.017 14.3 151.042 15.275 149.742 15.275Z" fill="#FF542E"/>
</svg>
