<svg width="57" height="48" viewBox="0 0 57 48" fill="none" xmlns="http://www.w3.org/2000/svg">
<path d="M49.0992 8.69922C48.9992 8.49922 48.9992 8.39922 48.8992 8.29922C48.7992 8.19922 48.7992 7.99922 48.6992 7.89922C48.5992 7.79922 48.4992 7.69922 48.3992 7.59922C48.2992 7.49922 48.1992 7.39922 47.9992 7.29922C47.8992 7.19922 47.6992 7.09922 47.5992 7.09922C47.3992 6.99922 47.2992 6.89922 47.1992 6.89922C46.9992 6.79922 46.8992 6.79922 46.7992 6.69922C46.6992 6.69922 46.5992 6.59922 46.5992 6.59922L46.3992 6.49922L46.1992 6.39922C46.1992 6.39922 46.0992 6.29922 45.9992 6.19922C45.8992 6.09922 45.8992 6.09922 45.8992 5.99922C45.7992 5.89922 45.7992 5.79922 45.7992 5.79922C45.7992 5.69922 45.7992 5.59922 45.7992 5.49922C45.7992 5.39922 45.8992 5.29922 45.8992 5.29922C45.9992 5.19922 45.9992 5.09922 45.9992 5.09922C45.9992 5.09922 46.0992 4.99922 46.1992 4.89922C46.2992 4.79922 46.3992 4.79922 46.4992 4.79922C46.5992 4.69922 46.6992 4.69922 46.7992 4.69922C46.8992 4.69922 46.8992 4.69922 46.9992 4.69922C47.0992 4.69922 47.0992 4.69922 47.1992 4.69922C47.2992 4.69922 47.3992 4.69922 47.4992 4.79922C47.5992 4.79922 47.6992 4.89922 47.7992 4.89922C47.8992 4.89922 47.9992 4.99922 47.9992 4.99922C48.0992 4.99922 48.1992 5.09922 48.1992 5.09922L48.4992 5.19922L48.5992 4.89922L48.6992 4.09922V3.89922L48.4992 3.79922C48.3992 3.79922 48.2992 3.69922 48.2992 3.69922C48.1992 3.69922 48.1992 3.59922 48.0992 3.59922C47.9992 3.59922 47.8992 3.49922 47.7992 3.49922C47.6992 3.49922 47.5992 3.39922 47.4992 3.39922H47.3992V2.89922V2.69922H47.0992H46.3992H46.0992V2.99922V3.79922H45.9992C45.7992 3.89922 45.6992 3.89922 45.4992 3.99922C45.2992 4.09922 45.1992 4.19922 45.0992 4.29922C44.9992 4.39922 44.8992 4.49922 44.7992 4.69922C44.6992 4.79922 44.5992 4.99922 44.5992 5.09922C44.4992 5.29922 44.4992 5.39922 44.3992 5.59922C44.2992 5.79922 44.2992 5.99922 44.2992 6.09922C44.2992 6.29922 44.2992 6.39922 44.3992 6.49922C44.4992 6.59922 44.4992 6.79922 44.5992 6.89922C44.6992 6.99922 44.7992 7.19922 44.7992 7.29922C44.8992 7.39922 44.9992 7.49922 45.0992 7.59922C45.1992 7.69922 45.2992 7.79922 45.4992 7.89922C45.5992 7.99922 45.7992 8.09922 45.8992 8.09922C46.0992 8.19922 46.1992 8.29922 46.2992 8.29922C46.4992 8.39922 46.5992 8.39922 46.6992 8.49922C46.7992 8.49922 46.8992 8.59922 46.8992 8.59922L47.0992 8.69922C47.1992 8.79922 47.1992 8.79922 47.2992 8.79922C47.3992 8.89922 47.3992 8.89922 47.4992 8.99922C47.5992 9.09922 47.5992 9.09922 47.5992 9.19922C47.5992 9.29922 47.6992 9.39922 47.6992 9.49922C47.6992 9.59922 47.6992 9.69922 47.6992 9.79922C47.6992 9.89922 47.5992 9.99922 47.5992 9.99922C47.5992 9.99922 47.4992 10.0992 47.3992 10.1992C47.2992 10.2992 47.2992 10.2992 47.1992 10.3992C47.0992 10.4992 46.9992 10.4992 46.9992 10.4992C46.8992 10.4992 46.7992 10.5992 46.6992 10.5992C46.5992 10.5992 46.5992 10.5992 46.4992 10.5992C46.3992 10.5992 46.2992 10.5992 46.2992 10.5992C46.1992 10.5992 46.0992 10.5992 45.9992 10.5992C45.8992 10.5992 45.7992 10.4992 45.6992 10.4992C45.5992 10.4992 45.4992 10.3992 45.3992 10.3992C45.2992 10.3992 45.1992 10.2992 45.0992 10.2992C44.9992 10.2992 44.9992 10.1992 44.8992 10.1992C44.7992 10.1992 44.7992 10.0992 44.6992 10.0992L44.3992 9.89922L44.2992 10.2992L44.1992 11.1992V11.3992L44.3992 11.4992C44.5992 11.3992 44.6992 11.4992 44.8992 11.5992C44.9992 11.6992 45.1992 11.6992 45.2992 11.6992C45.3992 11.7992 45.5992 11.7992 45.6992 11.7992C45.8992 11.8992 45.9992 11.8992 46.0992 11.8992H46.1992V12.6992V12.9992H46.4992H47.1992H47.4992V12.6992V11.8992H47.5992C47.7992 11.7992 47.8992 11.7992 48.0992 11.6992C48.2992 11.5992 48.3992 11.4992 48.4992 11.3992C48.5992 11.2992 48.6992 11.1992 48.7992 10.9992C48.8992 10.8992 48.9992 10.6992 49.0992 10.5992C49.1992 10.3992 49.1992 10.2992 49.2992 10.0992C49.3992 9.89922 49.3992 9.79922 49.3992 9.59922C49.0992 8.99922 49.0992 8.89922 49.0992 8.69922Z" fill="#C69B15"/>
<path d="M43.1006 16.1009C42.8006 15.7009 42.3006 15.7009 41.9006 15.9009L33.5006 22.6009L22.6006 18.1009C22.3006 18.0009 22.0006 18.0009 21.8006 18.2009L10.2006 26.5009C9.80059 26.8009 9.70061 27.3009 10.0006 27.6009C10.2006 27.9009 10.4006 28.0009 10.7006 28.0009C10.9006 28.0009 11.0006 27.9009 11.2006 27.8009L22.5006 19.7009L33.4006 24.2009C33.7006 24.3009 34.0006 24.3009 34.2006 24.1009L43.0006 17.1009C43.3006 17.1009 43.3006 16.5009 43.1006 16.1009Z" fill="#EA5045"/>
<path d="M32.2996 30.3992H36.7996V33.8992L39.9996 33.4992V28.7992C39.9996 27.8992 39.2996 27.1992 38.3996 27.1992H30.6996C29.7996 27.1992 29.0996 27.8992 29.0996 28.7992V34.7992L32.2996 34.3992V30.3992Z" fill="#6d7177"/>
<path d="M20.2 29.2H24.7V35.4L27.8 35V27.6C27.8 26.7 27.1 26 26.2 26H18.6C17.7 26 17 26.7 17 27.6V36.4L20.2 36V29.2Z" fill="#6d7177"/>
<path d="M55.2 43.9H52.1V32L48.9 32.4V43.8H44.4V33L41.2 33.4V43.9H39.9V33.5L36.7 33.9V43.8H32.2V34.4L29 34.8V43.8H27.8V35L24.6 35.4V43.8H20.1V36L16.9 36.4V43.9H15.6V36.6L12.4 37V43.9H7.89999V37.5L4.69998 37.9V43.9H1.59998C0.699976 43.9 0 44.6 0 45.5C0 46.4 0.699976 47.1 1.59998 47.1H55.1C56 47.1 56.7 46.4 56.7 45.6C56.7 45.2 56.6 44.8 56.3 44.4C56.1 44 55.7 43.9 55.2 43.9Z" fill="#4E55A2"/>
<path d="M44.5004 22.1004H49.0004V32.4004L52.2004 32.0004V20.5004C52.2004 19.6004 51.5004 18.9004 50.6004 18.9004H43.0004C42.1004 18.9004 41.4004 19.6004 41.4004 20.5004V33.3004L44.6004 32.9004V22.1004H44.5004Z" fill="#C69B15"/>
<path d="M8.00079 34.1004H12.5008V36.9004L15.7008 36.5004V32.5004C15.7008 31.6004 15.0008 30.9004 14.1008 30.9004H6.40079C5.50079 30.9004 4.80078 31.6004 4.80078 32.5004V37.9004L8.00079 37.5004V34.1004Z" fill="#6d7177"/>
<path d="M46.6992 1.7C49.9992 1.7 52.5992 4.4 52.5992 7.6C52.5992 8.3 52.4992 9 52.1992 9.6L53.5992 10.4C53.9992 9.5 54.1992 8.5 54.1992 7.5C54.1992 3.3 50.7992 0 46.5992 0C44.1992 0 41.9992 1.1 40.6992 2.9L42.0992 3.7C43.2992 2.5 44.8992 1.7 46.6992 1.7Z" fill="#4E55A2"/>
<path d="M52.2992 9.60039C51.4992 11.9004 49.2992 13.4004 46.6992 13.4004C43.3992 13.4004 40.7992 10.7004 40.7992 7.50039C40.7992 6.00039 41.2992 4.70039 42.1992 3.70039L40.7992 2.90039C39.7992 4.20039 39.1992 5.80039 39.1992 7.60039C39.1992 11.8004 42.5992 15.1004 46.6992 15.1004C49.7992 15.1004 52.4992 13.2004 53.6992 10.4004L52.2992 9.60039Z" fill="white"/>
</svg>
