<svg width="284" height="113" viewBox="0 0 284 113" fill="none" xmlns="http://www.w3.org/2000/svg">
<path d="M256.1 8.90806C253.4 8.90806 234.4 9.40806 237.1 9.00806C238 8.80806 238.9 8.70806 239.6 8.50806L266.6 1.60806C270.3 0.608062 274.1 3.30806 274.2 7.10806C274.2 7.20806 274.2 7.30806 274.2 7.50806V9.00806H256.1V8.90806Z" fill="#747D88"/>
<path d="M279.4 24.6074C281.7 24.6074 283.6 26.4074 283.6 28.8074C283.6 31.2074 281.8 33.0074 279.4 33.0074H278.2V24.6074H279.4Z" fill="#747D88"/>
<path d="M271.1 34.2074C268.1 34.2074 265.7 31.7074 265.7 28.8074C265.7 25.9074 268.2 23.4074 271.1 23.4074H279.8V17.5074C279.8 14.0074 277 11.1074 273.4 11.1074H238.8C235.3 11.1074 232.4 13.9074 232.4 17.5074V40.3074C232.4 43.8074 235.2 46.7074 238.8 46.7074H273.5C277 46.7074 279.9 43.9074 279.9 40.3074V34.3074L271.1 34.2074Z" fill="#747D88"/>
<path d="M272.2 27.1074C271.3 27.1074 270.6 27.8074 270.6 28.7074C270.6 29.6074 271.3 30.3074 272.2 30.3074C273.1 30.3074 273.8 29.6074 273.8 28.7074C273.8 27.8074 273.1 27.1074 272.2 27.1074Z" fill="#747D88"/>
<path d="M271.1 24.6074C268.8 24.6074 266.9 26.4074 266.9 28.8074C266.9 31.2074 268.7 33.0074 271.1 33.0074H279.8V24.6074H271.1ZM272.2 31.6074C270.6 31.6074 269.3 30.3074 269.3 28.7074C269.3 27.1074 270.6 25.8074 272.2 25.8074C273.8 25.8074 275.1 27.1074 275.1 28.7074C275.1 30.3074 273.8 31.6074 272.2 31.6074Z" fill="#747D88"/>
<path d="M41.4995 66.6079C39.4995 66.6079 25.9995 67.0079 27.8995 66.7079C28.4995 66.6079 29.1995 66.5079 29.6995 66.3079L49.0995 61.3079C51.6995 60.6079 54.4995 62.5079 54.5995 65.3079C54.5995 65.4079 54.5995 65.4079 54.5995 65.6079V66.7079H41.4995V66.6079Z" fill="#747D88"/>
<path d="M58.3004 77.8086C59.9004 77.8086 61.3004 79.1086 61.3004 80.8086C61.3004 82.5086 60.0004 83.8086 58.3004 83.8086H57.4004V77.8086H58.3004Z" fill="#747D88"/>
<path d="M52.3 84.7074C50.2 84.7074 48.4 82.9074 48.4 80.8074C48.4 78.7074 50.2 76.9074 52.3 76.9074H58.5V72.7074C58.5 70.2074 56.5 68.1074 53.9 68.1074H29.1C26.6 68.1074 24.5 70.1074 24.5 72.7074V89.1074C24.5 91.6074 26.5 93.7074 29.1 93.7074H54C56.5 93.7074 58.6 91.7074 58.6 89.1074V84.8074L52.3 84.7074Z" fill="#747D88"/>
<path d="M53.1 79.6074C52.5 79.6074 52 80.1074 52 80.7074C52 81.3074 52.5 81.8074 53.1 81.8074C53.7 81.8074 54.2 81.3074 54.2 80.7074C54.2 80.1074 53.8 79.6074 53.1 79.6074Z" fill="#747D88"/>
<path d="M52.2998 77.8086C50.6998 77.8086 49.2998 79.1086 49.2998 80.8086C49.2998 82.5086 50.5998 83.8086 52.2998 83.8086H58.4998V77.8086H52.2998ZM53.0998 82.8086C51.9998 82.8086 50.9998 81.9086 50.9998 80.7086C50.9998 79.6086 51.8998 78.6086 53.0998 78.6086C54.1998 78.6086 55.1998 79.5086 55.1998 80.7086C55.1998 81.9086 54.2998 82.8086 53.0998 82.8086Z" fill="#747D88"/>
<path d="M11.3996 3.70763C10.0996 3.70763 0.99958 4.00763 2.29958 3.70763C2.69958 3.60763 3.09958 3.60763 3.49958 3.40763L16.4996 0.107628C18.2996 -0.392372 20.0996 0.907628 20.1996 2.80763C20.1996 2.80763 20.1996 2.90763 20.1996 3.00763V3.70763H11.3996V3.70763Z" fill="#747D88"/>
<path d="M22.6 11.307C23.7 11.307 24.6 12.207 24.6 13.307C24.6 14.407 23.7 15.307 22.6 15.307H22V11.207H22.6V11.307Z" fill="#747D88"/>
<path d="M18.6 15.907C17.2 15.907 16 14.707 16 13.307C16 11.907 17.2 10.707 18.6 10.707H22.8V7.80703C22.8 6.10703 21.4 4.70703 19.7 4.70703H3.1C1.4 4.80703 0 6.10703 0 7.80703V18.807C0 20.507 1.4 21.907 3.1 21.907H19.8C21.5 21.907 22.9 20.507 22.9 18.807V15.907H18.6Z" fill="#747D88"/>
<path d="M19.2004 12.5078C18.8004 12.5078 18.4004 12.8078 18.4004 13.3078C18.4004 13.7078 18.7004 14.1078 19.2004 14.1078C19.6004 14.1078 20.0004 13.8078 20.0004 13.3078C19.9004 12.8078 19.6004 12.5078 19.2004 12.5078Z" fill="#747D88"/>
<path d="M18.5996 11.307C17.4996 11.307 16.5996 12.207 16.5996 13.307C16.5996 14.407 17.4996 15.307 18.5996 15.307H22.7996V11.207H18.5996V11.307ZM19.1996 14.607C18.3996 14.607 17.7996 14.007 17.7996 13.207C17.7996 12.407 18.3996 11.807 19.1996 11.807C19.9996 11.807 20.5996 12.407 20.5996 13.207C20.5996 14.007 19.8996 14.607 19.1996 14.607Z" fill="#747D88"/>
<circle cx="141.5" cy="58.5" r="52.5" fill="white"/>
<path d="M94.8996 57.0082C94.8996 31.5082 115.7 10.7082 141.2 10.7082C146.1 10.7082 150.8 11.5082 155.2 12.9082L162.7 5.8082C156.1 3.0082 148.8 1.4082 141.2 1.4082C110.6 1.4082 85.5996 26.4082 85.5996 57.0082C85.5996 63.5082 86.6996 69.7082 88.7996 75.5082L96.2996 68.4082C95.3996 64.8082 94.8996 61.0082 94.8996 57.0082Z" fill="#FBBC05"/>
<path d="M141.2 103.408C119.7 103.408 101.4 88.5078 96.2998 68.5078L88.7998 75.6078C96.4998 97.2078 117.1 112.708 141.2 112.708C146.8 112.708 152.3 111.808 157.5 110.308L146.5 103.208C144.8 103.208 143 103.408 141.2 103.408Z" fill="#FF542E"/>
<path d="M196.8 57.0086C196.8 34.0086 182.7 14.2086 162.7 5.80859L155.2 12.9086C173.9 18.9086 187.5 36.4086 187.5 57.0086C187.5 80.7086 169.5 100.409 146.5 103.009L157.5 110.109C180.2 103.209 196.8 82.0086 196.8 57.0086Z" fill="#4E55A2"/>
<path d="M144.8 46.9082C144.8 45.0082 143.2 43.4082 141.3 43.4082C139.4 43.4082 137.8 45.0082 137.8 46.9082V54.4082H130.3C128.4 54.4082 126.8 56.0082 126.8 57.9082C126.8 59.8082 128.4 61.4082 130.3 61.4082H134.8L144.8 48.7082V46.9082Z" fill="#FBBC05"/>
<path d="M152.3 54.407H144.8V48.707L134.8 61.407H137.9V68.907C137.9 70.807 139.5 72.407 141.4 72.407C143.3 72.407 144.9 70.807 144.9 68.907V61.407H152.4C154.3 61.407 155.9 59.807 155.9 57.907C155.8 56.007 154.2 54.407 152.3 54.407Z" fill="#4E55A2"/>
</svg>
