<svg width="46" height="43" viewBox="0 0 46 43" fill="none" xmlns="http://www.w3.org/2000/svg">
<path d="M3.95101 8.11598L7.65102 10.316C8.35102 10.716 8.55101 11.616 8.25101 12.216C7.85101 12.916 7.05102 13.116 6.35102 12.716L2.65102 10.516C1.95102 10.116 1.75101 9.21598 2.05101 8.61598C2.45101 7.91598 3.25101 7.71598 3.95101 8.11598Z" fill="#C69B15"/>
<path d="M1.05097 16.7159L4.95096 15.8159C5.75096 15.6159 6.55096 16.1159 6.75096 16.8159C6.95096 17.6159 6.55096 18.3159 5.75096 18.5159L1.85097 19.4159C1.05097 19.6159 0.250967 19.1159 0.0509668 18.4159C-0.149033 17.7159 0.250967 16.9159 1.05097 16.7159Z" fill="white"/>
<path d="M9.65058 2.11475C10.4506 1.91475 11.2506 2.41475 11.4506 3.11475L12.6506 7.01475C12.8506 7.81475 12.4506 8.51475 11.6506 8.71475C10.8506 8.91475 10.0506 8.41475 9.85057 7.71475L8.65058 3.81475C8.45058 3.11475 8.85058 2.31475 9.65058 2.11475Z" fill="#EA5045"/>
<path d="M42.6508 24.5152L42.4508 24.4152C42.7508 22.7152 41.8508 20.9152 40.2508 19.9152L36.3508 17.6152L33.5508 19.1152L38.9508 22.2152C39.6508 22.6152 39.9508 23.5152 39.5508 24.1152L35.5508 31.3152C35.1508 32.0152 34.3508 32.2152 33.6508 31.8152L27.2508 28.1152L31.7508 20.0152L26.9508 22.6152L24.6508 26.7152C23.6508 26.2152 22.5508 25.8152 21.4508 25.6152L17.0508 28.0152C19.5508 27.9152 22.2508 28.5152 24.5508 29.8152L25.8508 30.5152L22.4508 36.5152C21.3508 38.5152 22.1508 41.1152 24.2508 42.3152C26.3508 43.5152 28.9508 42.9152 30.0508 40.9152L33.5508 34.7152C34.8508 35.0152 36.1508 34.6152 37.0508 33.8152L37.2508 33.9152C40.0508 35.5152 43.5508 34.7152 45.0508 32.0152C46.5508 29.7152 45.5508 26.2152 42.6508 24.5152ZM27.5508 39.7152C27.1508 40.4152 26.3508 40.6152 25.6508 40.2152C24.9508 39.8152 24.6508 38.9152 25.0508 38.3152L28.4508 32.3152L30.9508 33.8152L27.5508 39.7152ZM42.5508 30.8152C41.8508 32.1152 40.0508 32.6152 38.6508 31.7152L41.3508 26.9152C42.7508 27.8152 43.2508 29.5152 42.5508 30.8152Z" fill="#4E55A2"/>
<path d="M20.4514 3.7157C20.8514 3.0157 21.6514 2.8157 22.3514 3.2157C23.0514 3.61571 23.3514 4.5157 22.9514 5.1157L19.9514 10.4157L26.4514 8.1157C26.4514 8.0157 26.3514 7.8157 26.3514 7.7157L25.8514 5.9157C26.5514 4.0157 25.7514 1.7157 23.7514 0.615705C21.6514 -0.584295 19.0514 0.0157046 17.9514 2.0157L11.6514 13.4157L15.8514 11.9157L20.4514 3.7157Z" fill="#EA5045"/>
<path d="M15.0507 25.5148L23.9507 9.51484C25.1507 12.5148 27.2507 15.2148 30.0507 17.1148L26.8507 22.8148L31.6507 20.2148L32.5507 18.6148L33.5507 19.2148L36.3507 17.7148L32.6507 15.5148C29.8507 13.9148 27.5507 11.2148 26.5507 8.21484L20.0507 10.5148L10.9507 26.9148C10.5507 27.6148 9.7507 27.8148 9.0507 27.4148C8.3507 27.0148 8.0507 26.1148 8.4507 25.5148L15.9507 12.0148L11.7507 13.5148L5.85071 24.0148C4.75071 26.0148 5.55071 28.6148 7.65071 29.8148C9.55071 30.9148 11.8507 30.5148 13.1507 28.9148L14.9507 28.5148C15.6507 28.3148 16.3507 28.2148 17.0507 28.2148L21.4507 25.8148C19.2507 25.2148 17.1507 25.1148 15.0507 25.5148Z" fill="#6d7177"/>
</svg>
