<svg width="43" height="42" viewBox="0 0 43 42" fill="none" xmlns="http://www.w3.org/2000/svg">
<path d="M1.28145 34.5551C1.58145 34.5551 1.88145 34.4551 2.18145 34.1551L6.18145 30.1551C6.68145 29.6551 6.68145 28.8551 6.18145 28.4551C5.68145 27.9551 4.88145 27.9551 4.48145 28.4551L0.481445 32.4551C-0.0185547 32.9551 -0.0185547 33.7551 0.481445 34.1551C0.581445 34.4551 0.881445 34.5551 1.28145 34.5551Z" fill="#C69B15"/>
<path d="M9.78086 32.1543C9.28086 31.6543 8.48086 31.6543 8.08086 32.1543L0.380859 39.8543C-0.119141 40.3543 -0.119141 41.1543 0.380859 41.5543C0.580859 41.7543 0.980859 41.9543 1.28086 41.9543C1.58086 41.9543 1.88086 41.8543 2.18086 41.5543L9.78086 33.8543C10.2809 33.4543 10.2809 32.6543 9.78086 32.1543Z" fill="#EA5045"/>
<path d="M11.6816 35.8555L7.68164 39.8555C7.18164 40.3555 7.18164 41.1555 7.68164 41.5555C7.98164 41.8555 8.28164 41.9555 8.58164 41.9555C8.88164 41.9555 9.18164 41.8555 9.48164 41.5555L13.4816 37.5555C13.9816 37.0555 13.9816 36.2555 13.4816 35.8555C12.9816 35.3555 12.1816 35.3555 11.6816 35.8555Z" fill="#4E55A2"/>
<path d="M23.6816 5.55466C29.4816 2.55466 35.4816 2.45466 38.6816 2.55466C39.0816 2.55466 39.3816 2.95466 39.4816 3.35466C39.6816 6.45466 39.4816 12.3547 36.5816 18.0547L38.7816 19.2547C41.9816 13.0547 42.0816 6.55466 41.9816 3.15466C41.8816 1.45466 40.5816 0.154658 38.8816 0.0546575C35.4816 -0.145342 28.9816 0.0546575 22.6816 3.25466C20.8816 4.15466 18.9816 5.55466 17.1816 7.15466L19.4816 8.45466C20.7816 7.25466 22.1816 6.25466 23.6816 5.55466Z" fill="#4E55A2"/>
<path d="M36.4811 18.0539C36.4811 18.1539 36.3811 18.1539 36.3811 18.2539C34.8811 21.1539 32.2811 24.2539 29.2811 26.7539C27.2811 28.4539 25.3811 29.5539 23.5811 30.4539L11.3811 18.3539C12.4811 16.0539 13.8811 14.1539 15.0811 12.6539C16.3811 11.1539 17.7811 9.75391 19.2811 8.45391L16.9811 7.25391C15.6811 8.45391 14.3811 9.75391 13.1811 11.1539L13.0811 11.2539L6.98114 11.6539C5.98114 11.7539 5.08114 12.2539 4.48114 13.0539L0.281139 19.3539C-0.0188612 20.0539 -0.118861 20.8539 0.181139 21.5539C0.481139 22.2539 1.08114 22.7539 1.88114 22.8539L7.08114 23.6539C7.08114 23.7539 7.08114 23.8539 6.98114 23.9539C6.78114 24.9539 7.18114 26.0539 7.88114 26.7539L15.0811 33.9539C15.6811 34.5539 16.4811 34.9539 17.3811 34.9539C17.5811 34.9539 17.7811 34.9539 17.8811 34.9539C17.9811 34.9539 18.0811 34.9539 18.1811 34.8539L18.9811 40.0539C19.0811 40.8539 19.5811 41.4539 20.2811 41.7539C20.5811 41.8539 20.8811 41.9539 21.1811 41.9539C21.5811 41.9539 22.0811 41.8539 22.3811 41.5539L28.6811 37.3539C29.4811 36.7539 30.0811 35.8539 30.0811 34.8539L30.5811 28.7539L30.6811 28.6539C33.8811 25.9539 36.6811 22.5539 38.3811 19.3539C38.3811 19.3539 38.3811 19.2539 38.4811 19.2539L36.4811 18.0539ZM7.58114 21.2539L2.58114 20.4539L6.58114 14.3539C6.68114 14.1539 6.98114 14.0539 7.18114 13.9539L11.1811 13.6539C9.58114 16.1539 8.38114 18.7539 7.58114 21.2539ZM17.5811 32.5539C17.3811 32.5539 17.0811 32.5539 16.8811 32.3539L9.68114 25.1539C9.48114 24.9539 9.38114 24.7539 9.48114 24.4539C9.68114 23.1539 9.98114 21.9539 10.4811 20.8539L21.2811 31.6539C19.7811 32.0539 18.5811 32.3539 17.5811 32.5539ZM27.8811 34.7539C27.8811 35.0539 27.7811 35.2539 27.4811 35.3539L21.3811 39.3539L20.5811 34.3539C23.1811 33.5539 25.6811 32.3539 28.0811 30.7539L27.8811 34.7539Z" fill="#6d7177"/>
<path d="M26.0814 10.6543C26.7814 9.9543 27.7814 9.5543 28.6814 9.5543C29.5814 9.5543 30.5814 9.9543 31.2814 10.6543C31.9814 11.3543 32.3814 12.2543 32.3814 13.2543C32.3814 14.2543 31.9814 15.1543 31.2814 15.8543C30.8814 16.2543 30.4814 16.4543 30.0814 16.6543L32.0814 18.3543C32.3814 18.1543 32.6814 17.8543 32.9814 17.5543C34.1814 16.3543 34.7814 14.8543 34.7814 13.2543C34.7814 11.6543 34.1814 10.0543 32.9814 8.9543C30.5814 6.5543 26.6814 6.5543 24.2814 8.9543C23.7814 9.4543 23.2814 10.1543 22.9814 10.7543L24.9814 12.4543C25.2814 11.7543 25.5814 11.1543 26.0814 10.6543Z" fill="#EA5045"/>
<path d="M30.0811 16.6539C28.7811 17.1539 27.1811 16.9539 26.0811 15.8539C25.3811 15.1539 24.9811 14.2539 24.9811 13.2539C24.9811 12.9539 24.9811 12.7539 25.0811 12.4539L23.0811 10.7539C22.7811 11.5539 22.5811 12.3539 22.5811 13.2539C22.5811 14.8539 23.1811 16.4539 24.3811 17.5539C25.5811 18.7539 27.1811 19.3539 28.6811 19.3539C29.8811 19.3539 31.0811 19.0539 32.0811 18.3539L30.0811 16.6539Z" fill="white"/>
</svg>
