<svg width="238" height="76" viewBox="0 0 238 76" fill="none" xmlns="http://www.w3.org/2000/svg">
<path d="M97.3393 62.1468H122.023L118.447 71.6674H114.778V74.8487H149.703V71.6674H146.034L142.458 62.1468H167.142C170.648 62.1468 173.481 59.3139 173.481 55.8075V11.3393C173.481 7.83296 170.648 5 167.142 5H97.3393C93.833 5 91 7.83296 91 11.3393V55.7843C91 59.2907 93.833 62.1468 97.3393 62.1468ZM142.667 71.6674H121.861L125.437 62.1468H139.114L142.667 71.6674ZM170.369 55.7843C170.369 57.5491 168.953 58.9656 167.188 58.9656H97.3393C95.5745 58.9656 94.1581 57.5491 94.1581 55.7843V49.2592H170.346L170.369 55.7843ZM94.1813 11.3393C94.1813 9.57453 95.5978 8.15805 97.3625 8.15805H167.188C168.953 8.15805 170.369 9.57453 170.369 11.3393V46.1011H94.1813V11.3393Z" fill="#4D8FF1"/>
<path d="M132.263 56.4602C133.559 56.4602 134.609 55.4101 134.609 54.1149C134.609 52.8196 133.559 51.7695 132.263 51.7695C130.968 51.7695 129.918 52.8196 129.918 54.1149C129.918 55.4101 130.968 56.4602 132.263 56.4602Z" fill="#007AFF"/>
<path fill-rule="evenodd" clip-rule="evenodd" d="M35.1862 6.43439C34.1599 6.31842 33.1163 6.35203 32.0886 6.53929C29.9637 6.92644 28.0073 7.95196 26.4801 9.47919C24.9529 11.0064 23.9274 12.9628 23.5402 15.0877C23.1531 17.2125 23.4227 19.4049 24.3131 21.3726C24.6778 22.1784 24.5051 23.1259 23.8797 23.7513L9.19595 38.435C8.74909 38.8819 8.49805 39.488 8.49805 40.1199C8.49805 40.7519 8.74909 41.358 9.19595 41.8048C9.64282 42.2517 10.2489 42.5027 10.8809 42.5027C11.5128 42.5027 12.1189 42.2517 12.5658 41.8048L27.2495 27.1211C27.8749 26.4956 28.8224 26.323 29.6282 26.6877C31.5959 27.5781 33.7883 27.8477 35.9131 27.4606C38.038 27.0734 39.9944 26.0479 41.5216 24.5207C43.0488 22.9934 44.0743 21.037 44.4615 18.9122C44.6488 17.8844 44.6824 16.8409 44.5664 15.8146L39.1009 21.2801C38.3065 22.0588 37.2383 22.4949 36.1259 22.4949C35.0134 22.4949 33.9453 22.0587 33.1509 21.28L33.1357 21.2651L29.7207 17.85C28.942 17.0556 28.5059 15.9874 28.5059 14.8749C28.5059 13.7625 28.9421 12.6944 29.7208 11.8999L29.7357 11.8848L35.1862 6.43439ZM31.3268 2.35812C34.3015 1.81611 37.3709 2.19356 40.1257 3.44017C40.7612 3.72777 41.2151 4.30898 41.3402 4.99527C41.4652 5.68156 41.2455 6.38551 40.7522 6.87878L32.7561 14.8749L36.1259 18.2447L44.122 10.2486C44.6153 9.75531 45.3192 9.53555 46.0055 9.6606C46.6918 9.78564 47.273 10.2396 47.5606 10.8751C48.8072 13.6299 49.1847 16.6992 48.6427 19.674C48.1006 22.6488 46.6649 25.3878 44.5268 27.5259C42.3887 29.664 39.6497 31.0997 36.6749 31.6417C34.1941 32.0937 31.6475 31.9063 29.2724 31.1085L15.571 44.81C14.3271 46.0539 12.64 46.7527 10.8809 46.7527C9.12172 46.7527 7.43464 46.0539 6.19075 44.81C4.94686 43.5661 4.24805 41.8791 4.24805 40.1199C4.24805 38.3608 4.94686 36.6737 6.19075 35.4298L19.8922 21.7283C19.0945 19.3532 18.907 16.8067 19.359 14.3258C19.9011 11.3511 21.3368 8.6121 23.4749 6.47398C25.613 4.33587 28.352 2.90014 31.3268 2.35812Z" fill="#DEDEDE"/>
<path d="M213.068 33.8899C213.068 24.4483 219.191 16.4366 227.771 13.3566C225.37 12.495 222.785 12 220.071 12C207.696 12 197.668 21.8083 197.668 33.8899C197.668 45.9716 207.696 55.78 220.071 55.78C222.785 55.78 225.37 55.285 227.771 54.4233C219.191 51.3433 213.068 43.3316 213.068 33.8899Z" fill="#DEDEDE"/>
<path d="M61.4998 47.2344C56.3969 47.2344 52.2344 51.3969 52.2344 56.4998C52.2344 61.6027 56.3969 65.7652 61.4998 65.7652C66.6027 65.7652 70.7652 61.6027 70.7652 56.4998C70.7652 51.3815 66.6027 47.2344 61.4998 47.2344Z" fill="#FFB275"/>
<path d="M61.499 44.5058C60.497 44.5058 59.6953 43.6888 59.6953 42.7021V39.8038C59.6953 38.8017 60.5124 38 61.499 38C62.4857 38 63.3028 38.8171 63.3028 39.8038V42.7021C63.3028 43.7042 62.5011 44.5058 61.499 44.5058Z" fill="#FFB275"/>
<path d="M61.499 68.4961C60.497 68.4961 59.6953 69.3132 59.6953 70.2999V73.1982C59.6953 74.2003 60.5124 75.0019 61.499 75.0019C62.4857 75.0019 63.3028 74.1849 63.3028 73.1982V70.2999C63.3028 69.2978 62.5011 68.4961 61.499 68.4961Z" fill="#FFB275"/>
<path d="M69.9811 48.0203C69.2719 47.3112 69.2719 46.1703 69.9811 45.4612L72.0315 43.4108C72.7407 42.7016 73.8815 42.7016 74.5907 43.4108C75.2998 44.1199 75.2998 45.2608 74.5907 45.97L72.5403 48.0203C71.8311 48.7295 70.6903 48.7295 69.9811 48.0203Z" fill="#FFB275"/>
<path d="M53.0203 64.9811C52.3112 64.2719 51.1704 64.2719 50.4612 64.9811L48.4108 67.0315C47.7016 67.7407 47.7016 68.8815 48.4108 69.5907C49.1199 70.2998 50.2607 70.2998 50.9699 69.5907L53.0203 67.5403C53.7295 66.8311 53.7295 65.6903 53.0203 64.9811Z" fill="#FFB275"/>
<path d="M73.4961 56.499C73.4961 55.497 74.3132 54.6953 75.2998 54.6953H78.1982C79.2002 54.6953 80.0019 55.5124 80.0019 56.499C80.0019 57.4857 79.1848 58.3028 78.1982 58.3028H75.2998C74.2977 58.3028 73.4961 57.5011 73.4961 56.499Z" fill="#FFB275"/>
<path d="M49.5059 56.499C49.5059 55.497 48.6887 54.6953 47.7021 54.6953H44.8037C43.8016 54.6953 43 55.5124 43 56.499C43 57.4857 43.8171 58.3028 44.8037 58.3028H47.7021C48.7041 58.3028 49.5059 57.5011 49.5059 56.499Z" fill="#FFB275"/>
<path d="M69.9811 64.9811C70.6903 64.2719 71.8311 64.2719 72.5403 64.9811L74.5907 67.0315C75.2998 67.7407 75.2998 68.8815 74.5907 69.5907C73.8815 70.2998 72.7407 70.2998 72.0315 69.5907L69.9811 67.5403C69.2719 66.8311 69.2719 65.6903 69.9811 64.9811Z" fill="#FFB275"/>
<path d="M53.0203 48.0203C53.7295 47.3112 53.7295 46.1703 53.0203 45.4612L50.9699 43.4108C50.2607 42.7016 49.1199 42.7016 48.4108 43.4108C47.7016 44.1199 47.7016 45.2608 48.4108 45.97L50.4612 48.0203C51.1704 48.7295 52.3112 48.7295 53.0203 48.0203Z" fill="#FFB275"/>
</svg>
