<svg width="257" height="132" viewBox="0 0 257 132" fill="none" xmlns="http://www.w3.org/2000/svg">
<path d="M178.935 49.9387H172.897V38.8286C172.897 17.8159 155.99 0.90918 135.219 0.90918C114.448 0.90918 97.5411 17.8159 97.5411 38.5871V49.6972H91.2615C88.3632 49.6972 86.1895 51.8709 86.1895 54.7692V120.706C86.1895 126.502 90.7784 131.091 96.575 131.091H173.38C179.177 131.091 183.766 126.502 183.766 120.706V55.0108C184.007 52.1125 181.833 49.9387 178.935 49.9387ZM108.41 38.5871C108.41 23.8541 120.486 11.7778 135.219 11.7778C149.952 11.7778 162.028 23.8541 162.028 38.5871V49.6972H108.41V38.5871ZM134.011 64.1887C148.986 64.1887 161.062 76.265 161.062 91.2395C161.062 106.214 148.986 118.29 134.011 118.29C119.037 118.29 106.961 106.214 106.961 91.2395C106.961 76.265 119.037 64.1887 134.011 64.1887Z" fill="#747D88"/>
<path d="M124.35 100.659C124.833 101.142 125.557 101.383 126.282 101.383C127.006 101.383 127.731 101.142 128.214 100.659L134.011 94.8623L139.807 100.659C140.29 101.142 141.015 101.383 141.739 101.383C142.464 101.383 143.189 101.142 143.672 100.659C144.638 99.6928 144.638 97.7606 143.672 96.7945L137.875 90.9979L143.672 85.2013C144.638 84.2352 144.638 82.303 143.672 81.3369C142.705 80.3708 140.773 80.3708 139.807 81.3369L134.011 87.1335L128.214 81.3369C127.248 80.3708 125.316 80.3708 124.35 81.3369C123.383 82.303 123.383 84.2352 124.35 85.2013L130.146 90.9979L124.35 96.7945C123.383 98.0021 123.383 99.6928 124.35 100.659Z" fill="#747D88"/>
<path d="M206.579 37.5867C206.484 36.6338 206.388 35.7762 206.388 35.0139C206.388 23.1985 216.107 13.4794 227.923 13.4794C233.449 13.4794 238.595 15.671 242.406 19.1965L240.501 21.1023C240.024 21.5787 239.929 22.1504 240.024 22.7221C240.215 23.2938 240.691 23.675 241.263 23.8655C241.549 23.9608 252.507 27.4864 251.84 27.2958C252.697 27.5817 254.031 26.6288 253.745 25.3901C253.65 25.1043 251.268 12.9077 251.363 13.67C251.268 13.0983 250.791 12.6218 250.22 12.4313C249.648 12.2407 249.076 12.4313 248.6 12.9077L246.98 14.5276C242.025 9.85857 235.165 7 227.828 7C212.391 7 199.623 19.673 199.623 35.2045V35.2998C199.623 36.2527 199.623 36.9197 199.718 37.4914C199.814 38.2537 200.29 38.8254 201.052 38.9207L204.483 39.5877C205.721 39.5877 206.769 38.6348 206.579 37.5867Z" fill="#FF5F66"/>
<path d="M254.793 31.2024L251.363 30.5354C250.22 30.3448 249.267 31.2024 249.362 32.3458C249.457 33.2987 249.553 34.2515 249.553 34.9185C249.553 46.7339 239.834 56.453 228.018 56.453C222.492 56.453 217.346 54.2615 213.535 50.7359L215.44 48.8302C215.917 48.3538 216.012 47.7821 215.917 47.2103C215.726 46.6386 215.25 46.2575 214.678 46.0669C214.392 45.9716 203.434 42.4461 204.101 42.6366C203.53 42.5414 202.958 42.7319 202.577 43.1131C202.196 43.4942 202.005 44.0659 202.1 44.6376C202.196 44.9235 204.578 57.0248 204.483 56.2625C204.578 56.8342 205.054 57.3106 205.626 57.5012C206.293 57.6918 206.865 57.5012 207.246 57.0248L208.866 55.4049C213.821 60.0739 220.681 63.0277 228.018 63.0277C243.454 63.0277 256.223 50.3548 256.223 34.8232V34.7279C256.223 33.9657 256.223 33.2987 256.127 32.5364C256.032 31.9647 255.46 31.3929 254.793 31.2024Z" fill="#FF5F66"/>
<path d="M3.43028 43.3995C3.33499 42.9231 3.33499 42.4466 3.33499 42.0655C3.33499 36.0625 8.28984 31.0124 14.3881 31.0124C17.2467 31.0124 19.8194 32.1558 21.8204 33.9662L20.8675 34.9191C20.677 35.1096 20.5817 35.4908 20.677 35.7766C20.7722 36.0625 21.0581 36.2531 21.344 36.3484C21.5345 36.3484 27.0611 38.1588 26.7752 38.1588C27.2517 38.3493 27.9187 37.8729 27.7281 37.2059C27.7281 37.0154 26.4894 30.8218 26.4894 31.2029C26.3941 30.9171 26.2035 30.6312 25.9177 30.5359C25.6318 30.4406 25.3459 30.5359 25.0601 30.7265L24.2025 31.5841C21.6298 29.2019 18.1043 27.7727 14.3881 27.7727C6.47942 27.5821 0 34.0615 0 42.0655C0 42.5419 0 42.9231 0 43.2089C0 43.5901 0.285857 43.8759 0.666999 43.9712L2.38214 44.3523C3.04914 44.4476 3.52556 43.9712 3.43028 43.3995Z" fill="#FF5F66"/>
<path d="M28.1082 40.1599L26.3931 39.7788C25.8214 39.6835 25.345 40.1599 25.345 40.7317C25.4402 41.2081 25.4402 41.6845 25.4402 42.0657C25.4402 48.0686 20.4854 53.1188 14.3871 53.1188C11.5286 53.1188 8.95585 51.9753 6.95485 50.1649L7.9077 49.2121C8.09828 49.0215 8.19356 48.6404 8.09828 48.3545C8.00299 48.0686 7.71713 47.8781 7.43128 47.7828C7.24071 47.7828 1.71415 45.9724 2 45.9724C1.71415 45.8771 1.42829 45.9724 1.23772 46.1629C1.04715 46.3535 0.951861 46.6394 1.04715 46.9252C1.04715 47.1158 2.28586 53.2141 2.28586 52.9282C2.38114 53.2141 2.57171 53.4999 2.85757 53.5952C3.23871 53.6905 3.52457 53.5952 3.71514 53.4046L4.57271 52.5471C7.14542 54.9292 10.671 56.4538 14.3871 56.4538C22.2958 56.4538 28.7752 49.9744 28.7752 42.0657V41.9704C28.7752 41.5892 28.7752 41.2081 28.7752 40.8269C28.7752 40.5411 28.4894 40.1599 28.1082 40.1599Z" fill="#FF5F66"/>
<path d="M28.2036 102.382C28.1083 101.715 28.1083 101.048 28.1083 100.381C28.1083 91.5194 35.4453 84.1824 44.3068 84.1824C48.4994 84.1824 52.3108 85.8975 55.1694 88.4702L53.7401 89.8995C53.4543 90.1854 53.2637 90.6618 53.4543 91.1382C53.6448 91.5194 53.9307 91.9005 54.4071 91.9958C54.693 92.0911 62.8875 94.6638 62.3158 94.5685C62.9828 94.7591 63.9357 94.0921 63.7451 93.1392C63.6498 92.8534 61.8394 83.8012 61.9347 84.2777C61.8394 83.8012 61.5535 83.4201 61.0771 83.3248C60.696 83.2295 60.2195 83.3248 59.8384 83.6107L58.5997 84.8494C54.8835 81.3238 49.7381 79.2275 44.2116 79.2275C32.5867 79.2275 22.9629 88.7561 22.9629 100.476V100.571C22.9629 101.238 22.9629 101.81 23.0582 102.191C23.1535 102.763 23.5346 103.144 24.011 103.335L26.5837 103.811C27.5366 103.906 28.2989 103.239 28.2036 102.382Z" fill="#FF5F66"/>
<path d="M64.4118 97.6184L61.8391 97.1419C60.9815 96.9514 60.2192 97.7136 60.3145 98.4759C60.4098 99.2382 60.4098 99.9052 60.4098 100.477C60.4098 109.338 53.0728 116.675 44.2113 116.675C40.0187 116.675 36.2073 114.96 33.3487 112.388L34.778 110.958C35.0639 110.672 35.2544 110.196 35.0639 109.72C34.8733 109.338 34.5874 108.957 34.111 108.862C33.8251 108.767 25.6306 106.194 26.2023 106.289C25.8212 106.194 25.3447 106.385 25.0589 106.67C24.773 106.956 24.6777 107.433 24.6777 107.814C24.773 108.1 26.5834 117.152 26.4882 116.58C26.5834 117.057 26.8693 117.438 27.3457 117.533C27.8222 117.628 28.2986 117.533 28.5844 117.247L29.8232 116.008C33.5393 119.534 38.6847 121.726 44.3066 121.726C55.9314 121.726 65.5552 112.197 65.5552 100.477V100.382C65.5552 99.8099 65.5552 99.3335 65.4599 98.7618C65.3647 98.1901 64.9835 97.7136 64.4118 97.6184Z" fill="#FF5F66"/>
</svg>
