<svg width="161" height="126" viewBox="0 0 161 126" fill="none" xmlns="http://www.w3.org/2000/svg">
<rect width="161" height="126" rx="14" fill="#4D4D4D"/>
<rect x="8" y="8" width="145" height="110" rx="13" stroke="#FF5F66" stroke-width="2" stroke-linecap="round" stroke-dasharray="5 8"/>
<path d="M154 19L154 108" stroke="#FF0000" stroke-width="4" stroke-linecap="round"/>
<mask id="mask0" mask-type="alpha" maskUnits="userSpaceOnUse" x="106" y="19" width="46" height="88">
<rect x="106" y="19" width="46" height="87.975" fill="#C4C4C4"/>
</mask>
<g mask="url(#mask0)">
<path d="M217.986 105.42H126.037C114.911 105.42 105.904 96.4981 105.904 85.4774V40.7456C105.904 29.7249 114.911 20.8027 126.037 20.8027H217.986C229.112 20.8027 238.119 29.7249 238.119 40.7456V85.4774C238.119 96.4981 229.112 105.42 217.986 105.42Z" fill="white"/>
<path d="M164.201 36.2314H119.057V79.1365H164.201V36.2314Z" fill="#A1D7FF"/>
<path d="M139.282 65.5645C134.084 65.5645 133.063 71.3012 132.987 79.1214H134.435L135.288 71.0446L143.915 71.8447L144.601 79.1214H147.771C147.344 70.5011 147.42 65.5645 139.282 65.5645Z" fill="#EA5045"/>
<path d="M135.289 71.0449L134.435 79.1368H144.616L143.93 71.8602L135.289 71.0449Z" fill="#FAA9A4"/>
<path d="M153.075 54.9971C153.075 54.9971 160.467 60.5527 157.967 64.6741C155.452 68.7955 155.315 63.6022 155.315 63.6022L150.667 63.6777L153.075 54.9971Z" fill="#4E55A2"/>
<path d="M149.706 65.5046C148.411 70.6224 142.94 73.6871 137.499 72.3284C132.058 70.9697 128.781 65.7462 130 60.5982C131.234 55.3898 136.767 52.4157 142.208 53.7744C147.649 55.1331 151.017 60.3868 149.706 65.5046Z" fill="#EA5045"/>
<path d="M136.944 62.2433C137.444 60.529 136.806 58.8411 135.52 58.4734C134.234 58.1056 132.787 59.1972 132.287 60.9116C131.788 62.6259 132.425 64.3137 133.711 64.6815C134.997 65.0492 136.444 63.9576 136.944 62.2433Z" fill="white"/>
<path d="M145.241 53.5473C145.241 53.5473 147.542 49.0484 150.575 45.4101C153.608 41.7718 158.104 37.8164 158.104 37.8164C158.104 37.8164 160.131 40.866 157.982 47.4784C155.833 54.0907 153.136 61.0504 152.145 63.1186C151.154 65.1869 150.834 66.1984 150.834 66.1984C150.834 66.1984 151.718 61.156 149.463 58.0612C147.222 54.9664 145.241 53.5473 145.241 53.5473Z" fill="#EA5045"/>
<path d="M135.345 61.8929C135.695 61.116 135.398 60.2305 134.683 59.915C133.968 59.5996 133.105 59.9737 132.756 60.7506C132.406 61.5274 132.703 62.4129 133.418 62.7284C134.133 63.0438 134.996 62.6697 135.345 61.8929Z" fill="#4E55A2"/>
<path d="M145.425 64.7844C145.888 62.957 144.934 61.1445 143.293 60.7361C141.652 60.3277 139.946 61.478 139.483 63.3054C139.019 65.1328 139.973 66.9453 141.614 67.3538C143.255 67.7622 144.961 66.6118 145.425 64.7844Z" fill="white"/>
<path d="M143.452 64.1962C143.672 63.331 143.069 62.4353 142.105 62.1955C141.142 61.9558 140.183 62.4628 139.964 63.328C139.744 64.1932 140.347 65.0889 141.311 65.3287C142.274 65.5684 143.233 65.0614 143.452 64.1962Z" fill="#4E55A2"/>
<path d="M147.542 64.6287C147.481 64.6287 147.405 64.6136 147.344 64.5834C147.283 64.5532 140.501 60.9299 137.514 60.1147C134.481 59.2844 130.396 58.4239 130.351 58.4088C130.137 58.3635 129.985 58.1521 130.031 57.9257C130.076 57.7143 130.29 57.5634 130.518 57.6086C130.564 57.6237 134.679 58.4843 137.727 59.3146C140.806 60.16 147.451 63.7077 147.725 63.8587C147.923 63.9644 148 64.2059 147.893 64.4022C147.832 64.5532 147.695 64.6287 147.542 64.6287Z" fill="#4E55A2"/>
<path d="M142.696 68.7648C142.101 68.7648 141.476 68.6289 140.806 68.3572C137.163 66.8475 137.864 64.0848 138.428 61.8505C138.032 63.028 137.498 64.1603 136.523 64.9453C135.593 65.6851 134.298 65.9266 133.139 65.5643C131.951 65.202 131.067 64.2961 130.67 63.028C130.152 61.3523 130.945 58.2423 130.975 58.1216C131.036 57.9102 131.25 57.7743 131.478 57.8347C131.692 57.8951 131.829 58.1065 131.768 58.3329C131.753 58.3631 130.991 61.3523 131.448 62.8016C131.768 63.8131 132.454 64.5226 133.383 64.8094C134.283 65.0812 135.288 64.9 136.02 64.3263C137.041 63.5111 137.514 62.1373 137.91 60.7937C138.017 60.4314 138.382 60.2351 138.763 60.3408C139.16 60.4465 139.51 60.839 139.403 61.307C139.343 61.5485 139.282 61.8052 139.221 62.0618C138.657 64.2961 138.123 66.3946 141.11 67.6325C142.223 68.0854 143.183 68.1005 143.961 67.6476C145.728 66.6512 146.155 63.7225 146.155 63.6923C146.186 63.4658 146.384 63.3149 146.612 63.3451C146.841 63.3752 146.993 63.5715 146.963 63.798C146.948 63.9338 146.475 67.1494 144.372 68.3421C143.869 68.6289 143.305 68.7648 142.696 68.7648Z" fill="#4E55A2"/>
<path d="M144.144 71.8452C144.144 71.8452 140.684 68.2673 136.371 67.1954C132.058 66.1235 130.091 64.8101 128.918 63.693C127.744 62.5758 127.5 62.7268 127.836 63.8439C128.171 64.9611 128.522 66.9086 131.463 69.2939C134.405 71.6792 136.676 72.1472 136.676 72.1472C136.676 72.1472 139.48 73.0681 141.08 72.8265C142.696 72.5699 144.144 71.8452 144.144 71.8452Z" fill="#FAA9A4"/>
<path d="M128.872 66.4247C128.872 66.4247 128.811 66.5454 129.741 66.168C130.671 65.7755 130.808 65.0961 130.808 65.0961C130.808 65.0961 129.406 64.2205 128.918 63.6921C128.43 63.1638 127.943 62.6203 127.577 62.8467C127.409 62.9524 127.577 63.9488 127.775 64.5527C127.958 65.1263 128.872 66.4247 128.872 66.4247Z" fill="#5B1A19"/>
<g opacity="0.36">
<g opacity="0.36">
<path opacity="0.36" d="M157.541 39.5977C157.541 39.5977 152.16 44.8513 150.225 47.6744C148.289 50.4975 145.973 54.1057 145.973 54.1057L147.817 56.3702L148.335 55.3134V56.9892L149.249 57.0043L148.914 57.3968L149.371 57.7893L148.945 58.1214L150.575 60.9898C150.575 60.9898 151.932 62.2881 153.624 56.9892C155.315 51.6902 157.541 39.5977 157.541 39.5977Z" fill="#FAA9A4"/>
</g>
</g>
<path d="M140.897 53.4569C140.897 53.4569 138.261 48.2636 136.782 45.8331C135.304 43.4025 133.353 37.9676 133.063 37.4694C132.774 36.9712 131.341 40.1416 130.793 44.7461C130.244 49.3506 130.884 53.4418 131.128 54.9515C131.372 56.4612 131.859 56.9896 131.859 56.9896C131.859 56.9896 135.35 54.7553 136.477 54.4231C137.605 54.0759 140.897 53.4569 140.897 53.4569Z" fill="#EA5045"/>
<g opacity="0.36">
<g opacity="0.36">
<path opacity="0.36" d="M137.24 53.7285C137.24 53.7285 133.658 43.3872 133.109 41.3944C132.576 39.4016 132.53 38.7676 132.53 38.7676C132.53 38.7676 131.158 43.3872 131.097 46.8746C131.037 50.3619 132.103 56.7026 132.103 56.7026L134.694 54.6796L133.978 54.4079L134.908 54.0153L134.816 53.5775L135.792 53.8191L137.24 53.7285Z" fill="#FAA9A4"/>
</g>
</g>
<path d="M135.03 61.4729C135.45 61.4729 135.792 61.162 135.792 60.7784C135.792 60.3949 135.45 60.084 135.03 60.084C134.609 60.084 134.268 60.3949 134.268 60.7784C134.268 61.162 134.609 61.4729 135.03 61.4729Z" fill="white"/>
<path d="M143.791 63.6148C143.926 63.0811 143.553 62.5283 142.957 62.3799C142.361 62.2316 141.768 62.544 141.633 63.0776C141.497 63.6113 141.871 64.1642 142.467 64.3125C143.063 64.4608 143.655 64.1485 143.791 63.6148Z" fill="white"/>
<path d="M138.063 59.0879L137.224 60.7334L139.77 61.3675L139.632 59.4804L138.063 59.0879Z" fill="#F47B2B"/>
<path d="M154.457 65.7071C156.049 65.1931 156.892 63.414 156.339 61.7334C155.787 60.0527 154.047 59.107 152.455 59.621C150.862 60.1351 150.019 61.9142 150.572 63.5948C151.125 65.2754 152.864 66.2212 154.457 65.7071Z" fill="#4E55A2"/>
<path d="M131.6 54.3327C131.6 54.3327 133.231 48.7167 139.998 48.3695C145.485 48.0827 147.801 49.1696 147.801 49.1696L145.089 54.0459C145.089 54.0459 142.482 52.506 139.739 52.6419C136.996 52.7929 131.6 54.3327 131.6 54.3327Z" fill="#4E55A2"/>
<path d="M142.955 53.1251C142.955 53.1251 144.631 51.7211 148.091 53.4119C151.551 55.1028 153.578 60.0243 153.578 60.0243L152.435 61.7907L142.955 53.1251Z" fill="#4E55A2"/>
<path d="M131.235 57.7595C131.235 57.7595 129.528 57.533 129.68 56.129C129.832 54.725 133.947 51.6151 138.703 51.766C143.458 51.917 151.353 56.1592 152.313 62.1828C153.288 68.2065 149.752 65.6702 149.752 65.6702C149.752 65.6702 149.829 62.7565 148.533 60.6128C147.238 58.469 143.961 53.5777 138.535 54.0004C133.338 54.408 131.235 57.7595 131.235 57.7595Z" fill="#1E2754"/>
<path d="M131.57 57.1401C131.494 57.1401 131.433 57.0948 131.418 57.0193L130.747 54.9058C130.716 54.8152 130.762 54.7246 130.854 54.7095C130.945 54.6793 131.037 54.7246 131.052 54.8152L131.722 56.9287C131.753 57.0193 131.707 57.1099 131.616 57.125C131.616 57.125 131.585 57.1401 131.57 57.1401Z" fill="#4E55A2"/>
<path d="M133.749 54.9671C133.673 54.9671 133.597 54.9067 133.582 54.8312L133.399 53.2762C133.384 53.1857 133.445 53.1102 133.536 53.0951C133.627 53.08 133.704 53.1404 133.719 53.231L133.902 54.7859C133.917 54.8765 133.856 54.952 133.765 54.9671C133.765 54.9671 133.765 54.9671 133.749 54.9671Z" fill="#4E55A2"/>
<path d="M136.889 54.1662C136.813 54.1662 136.737 54.1058 136.721 54.0152L136.554 52.2036C136.538 52.113 136.615 52.0376 136.706 52.0225C136.798 52.0225 136.874 52.0828 136.889 52.1734L137.057 53.985C137.057 54.0756 136.996 54.1511 136.889 54.1662C136.904 54.1662 136.904 54.1662 136.889 54.1662Z" fill="#4E55A2"/>
<path d="M140.044 53.9698C140.029 53.9698 140.029 53.9698 140.013 53.9698C139.922 53.9547 139.861 53.8792 139.876 53.7886L140.12 52.1431C140.135 52.0525 140.211 51.9921 140.303 52.0072C140.394 52.0223 140.455 52.0978 140.44 52.1884L140.196 53.8339C140.196 53.9094 140.12 53.9698 140.044 53.9698Z" fill="#4E55A2"/>
<path d="M143.519 55.193C143.488 55.193 143.473 55.193 143.443 55.1779C143.366 55.1326 143.336 55.042 143.382 54.9665L144.174 53.5172C144.22 53.4417 144.311 53.4115 144.387 53.4568C144.464 53.5021 144.494 53.5927 144.448 53.6682L143.656 55.1175C143.625 55.1628 143.564 55.193 143.519 55.193Z" fill="#4E55A2"/>
<path d="M146.415 57.1558C146.384 57.1558 146.354 57.1407 146.323 57.1256C146.247 57.0803 146.232 56.9746 146.277 56.8991L147.192 55.5102C147.238 55.4347 147.344 55.4196 147.421 55.4649C147.497 55.5102 147.512 55.6159 147.466 55.6914L146.552 57.0803C146.521 57.1256 146.46 57.1558 146.415 57.1558Z" fill="#4E55A2"/>
<path d="M148.503 59.7219C148.472 59.7219 148.442 59.7068 148.411 59.6917C148.335 59.6464 148.32 59.5408 148.381 59.4653L149.508 57.9405C149.554 57.865 149.661 57.8499 149.737 57.9103C149.813 57.9556 149.829 58.0613 149.768 58.1368L148.64 59.6615C148.594 59.6917 148.548 59.7219 148.503 59.7219Z" fill="#4E55A2"/>
<path d="M149.92 63.6018C149.889 63.6018 149.859 63.5867 149.828 63.5716C149.752 63.5263 149.722 63.4206 149.783 63.3452L151.261 61.0051C151.307 60.9297 151.413 60.8995 151.49 60.9599C151.566 61.0051 151.596 61.1108 151.535 61.1863L150.057 63.5263C150.027 63.5716 149.981 63.6018 149.92 63.6018Z" fill="#4E55A2"/>
<path d="M152.694 60.477C152.633 60.477 152.587 60.4468 152.557 60.4015C152.541 60.3864 151.322 58.2729 150.697 57.5935C147.466 54.1062 146.384 52.9286 141.736 51.7813C137.91 50.8302 134.511 51.9926 134.481 52.0077C134.39 52.0379 134.298 51.9926 134.268 51.9171C134.237 51.8265 134.283 51.736 134.359 51.7058C134.39 51.6907 137.88 50.498 141.812 51.4642C146.552 52.6418 147.649 53.8344 150.926 57.3822C151.581 58.0917 152.785 60.16 152.831 60.2505C152.877 60.326 152.846 60.4317 152.77 60.477C152.755 60.4619 152.724 60.477 152.694 60.477Z" fill="#1E2754"/>
<path d="M143.762 59.5862C143.549 59.9485 142.833 59.9334 142.162 59.5409C141.492 59.1484 140.425 58.4992 141.4 57.8501C141.812 57.5783 141.934 58.3785 142.619 58.771C143.29 59.1484 143.976 59.2239 143.762 59.5862Z" fill="#F4DED3"/>
<path d="M137.773 56.1289C137.651 56.4459 137.224 56.0081 136.462 55.8723C135.746 55.7515 135.03 55.7968 135.38 55.1778C135.548 54.891 136.142 54.8306 136.813 55.0872C137.453 55.3439 137.895 55.8119 137.773 56.1289Z" fill="#F4DED3"/>
<path d="M135.35 68.5234C135.35 68.5234 136.477 69.2632 137.971 69.4292C139.465 69.6104 140.653 69.4594 140.653 69.4594C140.653 69.4594 140.455 70.7427 139.373 71.0295C138.291 71.3163 137.407 71.2711 136.477 70.8182C135.151 70.2143 135.35 68.5234 135.35 68.5234Z" fill="#5B1A19"/>
<path d="M135.746 68.7344C135.746 68.7344 135.731 69.61 135.807 69.7006C135.914 69.8062 136.523 69.9572 136.523 69.9572L135.929 70.0327C135.929 70.0327 135.502 70.8328 137.468 71.2253C138.2 71.3763 139.038 71.3461 139.434 70.6668C139.83 69.9874 139.907 69.5043 139.907 69.5043C139.907 69.5043 138.733 69.5496 137.697 69.3835C136.676 69.2326 135.746 68.7344 135.746 68.7344Z" fill="white"/>
<path d="M136.721 69.9424L136.752 70.1386L138.047 70.3349L136.721 69.9424Z" fill="#F3D9CD"/>
<path d="M138.626 71.9197C138.626 71.9197 139.678 71.4517 140.272 71.1347C140.638 70.9384 141.004 70.1836 141.004 70.1836C141.004 70.1836 140.73 71.1649 140.44 71.331C140.135 71.497 138.626 71.9197 138.626 71.9197Z" fill="#E08D80"/>
<path d="M145.561 87.6962H120.033C119.606 87.6962 119.271 87.3641 119.271 86.9414C119.271 86.5187 119.606 86.1865 120.033 86.1865H145.561C145.988 86.1865 146.323 86.5187 146.323 86.9414C146.323 87.3641 145.988 87.6962 145.561 87.6962Z" fill="black"/>
<path d="M132.804 94.8066H120.033C119.606 94.8066 119.271 94.4744 119.271 94.0517C119.271 93.629 119.606 93.2969 120.033 93.2969H132.789C133.216 93.2969 133.551 93.629 133.551 94.0517C133.551 94.4744 133.216 94.8066 132.804 94.8066Z" fill="black"/>
</g>
</svg>
