<svg width="161" height="126" viewBox="0 0 161 126" fill="none" xmlns="http://www.w3.org/2000/svg">
<rect width="161" height="126" rx="14" fill="#E6E6E6"/>
<rect x="8" y="8" width="145" height="110" rx="13" stroke="#00C853" stroke-width="2" stroke-linecap="round" stroke-dasharray="5 8"/>
<path d="M114.772 95H45.2277C36.8127 95 30 88.2517 30 79.9163V46.0837C30 37.7483 36.8127 31 45.2277 31H114.772C123.187 31 130 37.7483 130 46.0837V79.9163C130 88.2517 123.187 95 114.772 95Z" fill="white"/>
<path d="M74.0923 42.6699H39.9482V75.1209H74.0923V42.6699Z" fill="#A1D7FF"/>
<path d="M55.2449 64.8555C51.3141 64.8555 50.5418 69.1945 50.4841 75.1092H51.5792L52.2248 69.0003L58.7493 69.6055L59.268 75.1092H61.6657C61.3429 68.5893 61.4006 64.8555 55.2449 64.8555Z" fill="#EA5045"/>
<path d="M52.2249 69L51.5793 75.1203H59.2796L58.7609 69.6166L52.2249 69Z" fill="#FAA9A4"/>
<path d="M65.6773 56.8633C65.6773 56.8633 71.2681 61.0652 69.3776 64.1825C67.4756 67.2997 67.3718 63.3718 67.3718 63.3718L63.856 63.4288L65.6773 56.8633Z" fill="#4E55A2"/>
<path d="M63.1298 64.8107C62.15 68.6815 58.0117 70.9995 53.8964 69.9718C49.7811 68.9442 47.3027 64.9934 48.2249 61.0997C49.1586 57.1604 53.3431 54.911 57.4584 55.9386C61.5736 56.9663 64.1212 60.9399 63.1298 64.8107Z" fill="#EA5045"/>
<path d="M53.4768 62.3431C53.8548 61.0465 53.3727 59.7699 52.4001 59.4917C51.4276 59.2136 50.3327 60.0392 49.9548 61.3358C49.5769 62.6325 50.0589 63.9091 51.0315 64.1872C52.0041 64.4654 53.0989 63.6397 53.4768 62.3431Z" fill="white"/>
<path d="M59.7522 55.7671C59.7522 55.7671 61.4928 52.3644 63.7868 49.6126C66.0807 46.8608 69.4813 43.8691 69.4813 43.8691C69.4813 43.8691 71.0144 46.1757 69.3891 51.1769C67.7637 56.1781 65.7234 61.442 64.9741 63.0063C64.2248 64.5707 63.9827 65.3357 63.9827 65.3357C63.9827 65.3357 64.6513 61.5219 62.9453 59.1812C61.2508 56.8404 59.7522 55.7671 59.7522 55.7671Z" fill="#EA5045"/>
<path d="M52.2678 62.0784C52.5319 61.4908 52.3076 60.821 51.7667 60.5824C51.2259 60.3439 50.5733 60.6268 50.3091 61.2144C50.045 61.802 50.2693 62.4717 50.8101 62.7103C51.351 62.9489 52.0036 62.666 52.2678 62.0784Z" fill="#4E55A2"/>
<path d="M59.8912 64.2664C60.2418 62.8842 59.52 61.5134 58.279 61.2045C57.038 60.8956 55.7477 61.7656 55.3971 63.1478C55.0465 64.5299 55.7682 65.9008 57.0092 66.2097C58.2502 66.5186 59.5405 65.6486 59.8912 64.2664Z" fill="white"/>
<path d="M58.3991 63.8214C58.5651 63.1671 58.1091 62.4896 57.3805 62.3082C56.652 62.1269 55.9268 62.5104 55.7608 63.1647C55.5948 63.8191 56.0508 64.4966 56.7794 64.678C57.5079 64.8593 58.2331 64.4758 58.3991 63.8214Z" fill="#4E55A2"/>
<path d="M61.4928 64.1477C61.4467 64.1477 61.3891 64.1363 61.343 64.1134C61.2968 64.0906 56.1672 61.3502 53.9078 60.7336C51.6138 60.1056 48.5245 59.4547 48.4899 59.4433C48.3285 59.409 48.2133 59.2492 48.2479 59.0779C48.2824 58.9181 48.4438 58.8039 48.6167 58.8381C48.6513 58.8495 51.7637 59.5004 54.0692 60.1284C56.3977 60.7678 61.4236 63.4512 61.6311 63.5653C61.781 63.6453 61.8386 63.828 61.7579 63.9764C61.7118 64.0906 61.6081 64.1477 61.4928 64.1477Z" fill="#4E55A2"/>
<path d="M57.8271 67.2759C57.3775 67.2759 56.9049 67.1731 56.3977 66.9676C53.6426 65.8257 54.1729 63.7362 54.5994 62.0462C54.2997 62.9369 53.8962 63.7932 53.1585 64.387C52.4553 64.9465 51.4755 65.1292 50.5994 64.8552C49.7003 64.5811 49.0317 63.896 48.732 62.9369C48.34 61.6694 48.9395 59.3172 48.9625 59.2259C49.0086 59.066 49.17 58.9633 49.3429 59.0089C49.5043 59.0546 49.6081 59.2145 49.5619 59.3858C49.5504 59.4086 48.974 61.6694 49.3199 62.7656C49.5619 63.5306 50.0807 64.0673 50.7838 64.2842C51.464 64.4898 52.2248 64.3527 52.7781 63.9188C53.5504 63.3023 53.9078 62.2632 54.2075 61.2469C54.2882 60.9729 54.5648 60.8245 54.853 60.9044C55.1527 60.9843 55.4179 61.2812 55.3372 61.6352C55.291 61.8179 55.2449 62.012 55.1988 62.2061C54.7723 63.896 54.3689 65.4832 56.6282 66.4195C57.4697 66.762 58.1959 66.7734 58.7838 66.4309C60.121 65.6773 60.4438 63.4621 60.4438 63.4393C60.4668 63.268 60.6167 63.1538 60.7896 63.1767C60.9625 63.1995 61.0778 63.3479 61.0547 63.5192C61.0432 63.622 60.6859 66.0541 59.0951 66.9561C58.7147 67.1731 58.2882 67.2759 57.8271 67.2759Z" fill="#4E55A2"/>
<path d="M58.9223 69.6058C58.9223 69.6058 56.3056 66.8996 53.0434 66.0889C49.7811 65.2782 48.2941 64.2848 47.4065 63.4399C46.5189 62.5949 46.3344 62.7091 46.5881 63.554C46.8417 64.399 47.1068 65.872 49.3316 67.6761C51.5564 69.4802 53.2739 69.8341 53.2739 69.8341C53.2739 69.8341 55.395 70.5307 56.6053 70.348C57.8272 70.1539 58.9223 69.6058 58.9223 69.6058Z" fill="#FAA9A4"/>
<path d="M47.3719 65.5068C47.3719 65.5068 47.3258 65.5982 48.0289 65.3127C48.7321 65.0158 48.8359 64.502 48.8359 64.502C48.8359 64.502 47.7753 63.8397 47.4065 63.4401C47.0376 63.0404 46.6687 62.6294 46.392 62.8007C46.2652 62.8806 46.392 63.6342 46.5419 64.0909C46.6802 64.5248 47.3719 65.5068 47.3719 65.5068Z" fill="#5B1A19"/>
<g opacity="0.36">
<g opacity="0.36">
<path opacity="0.36" d="M69.0549 45.2158C69.0549 45.2158 64.9858 49.1894 63.5218 51.3247C62.0578 53.4599 60.3057 56.1889 60.3057 56.1889L61.7005 57.9016L62.0924 57.1024V58.3698L62.784 58.3812L62.5304 58.6781L62.8763 58.975L62.5535 59.2262L63.7869 61.3957C63.7869 61.3957 64.8129 62.3776 66.0924 58.3698C67.3719 54.3619 69.0549 45.2158 69.0549 45.2158Z" fill="#FAA9A4"/>
</g>
</g>
<path d="M56.467 55.6984C56.467 55.6984 54.4728 51.7704 53.3546 49.9321C52.2365 48.0937 50.761 43.9831 50.5419 43.6063C50.3229 43.2295 49.2393 45.6274 48.8244 49.11C48.4094 52.5926 48.8935 55.6869 49.078 56.8288C49.2624 57.9706 49.6313 58.3703 49.6313 58.3703C49.6313 58.3703 52.271 56.6803 53.1241 56.4291C53.9771 56.1665 56.467 55.6984 56.467 55.6984Z" fill="#EA5045"/>
<g opacity="0.36">
<g opacity="0.36">
<path opacity="0.36" d="M53.7004 55.9035C53.7004 55.9035 50.9915 48.0819 50.5765 46.5747C50.173 45.0675 50.1385 44.5879 50.1385 44.5879C50.1385 44.5879 49.101 48.0819 49.0549 50.7196C49.0088 53.3572 49.8157 58.1529 49.8157 58.1529L51.7753 56.6229L51.2336 56.4173L51.9367 56.1205L51.8676 55.7893L52.6053 55.972L53.7004 55.9035Z" fill="#FAA9A4"/>
</g>
</g>
<path d="M52.029 61.7614C52.3473 61.7614 52.6054 61.5263 52.6054 61.2362C52.6054 60.9461 52.3473 60.7109 52.029 60.7109C51.7107 60.7109 51.4526 60.9461 51.4526 61.2362C51.4526 61.5263 51.7107 61.7614 52.029 61.7614Z" fill="white"/>
<path d="M58.6555 63.3815C58.7579 62.9778 58.4755 62.5597 58.0248 62.4475C57.5741 62.3353 57.1257 62.5716 57.0233 62.9752C56.9209 63.3788 57.2033 63.797 57.654 63.9092C58.1047 64.0214 58.5531 63.7851 58.6555 63.3815Z" fill="white"/>
<path d="M54.323 59.957L53.689 61.2016L55.614 61.6812L55.5103 60.2539L54.323 59.957Z" fill="#F47B2B"/>
<path d="M66.7226 64.9647C67.9272 64.5759 68.5647 63.2303 68.1466 61.9591C67.7285 60.688 66.413 59.9727 65.2084 60.3615C64.0039 60.7503 63.3663 62.0959 63.7844 63.367C64.2026 64.6382 65.518 65.3535 66.7226 64.9647Z" fill="#4E55A2"/>
<path d="M49.4353 56.3602C49.4353 56.3602 50.6687 52.1126 55.7869 51.8499C59.9367 51.633 61.6889 52.4551 61.6889 52.4551L59.637 56.1432C59.637 56.1432 57.6658 54.9786 55.5909 55.0813C53.516 55.1955 49.4353 56.3602 49.4353 56.3602Z" fill="#4E55A2"/>
<path d="M58.0232 55.4469C58.0232 55.4469 59.2912 54.385 61.9079 55.6638C64.5246 56.9427 66.0578 60.6651 66.0578 60.6651L65.1932 62.001L58.0232 55.4469Z" fill="#4E55A2"/>
<path d="M49.1587 58.9521C49.1587 58.9521 47.8676 58.7809 47.9829 57.719C48.0981 56.6571 51.2105 54.3049 54.8071 54.4191C58.4036 54.5332 64.3748 57.7418 65.101 62.2977C65.8388 66.8537 63.1644 64.9354 63.1644 64.9354C63.1644 64.9354 63.2221 62.7316 62.2422 61.1102C61.2624 59.4888 58.784 55.7893 54.6803 56.109C50.7494 56.4173 49.1587 58.9521 49.1587 58.9521Z" fill="#1E2754"/>
<path d="M66.4843 64.3535C66.4958 64.0452 66.5304 63.7483 66.565 63.4514C66.5881 63.1545 66.6226 62.8691 66.6111 62.5836C66.6111 62.4466 66.5996 62.3096 66.5765 62.1726C66.5765 62.1383 66.565 62.1041 66.5535 62.0812L66.5189 61.9784C66.4958 61.9099 66.4728 61.8414 66.4497 61.7729C66.4036 61.6359 66.346 61.4989 66.2884 61.3619C66.2307 61.2248 66.1616 61.0992 66.0693 60.9736C66.2077 61.0421 66.3229 61.1563 66.4382 61.2705C66.542 61.3847 66.6342 61.5217 66.7149 61.6587C66.7495 61.7272 66.7956 61.7958 66.8186 61.8643L66.8647 61.967C66.8763 62.0127 66.8993 62.047 66.9108 62.0926C66.9569 62.2525 66.98 62.4238 66.98 62.5836C66.98 62.9033 66.9339 63.2116 66.8417 63.5085C66.761 63.8054 66.6572 64.0909 66.4843 64.3535Z" fill="#1E2754"/>
<path d="M49.4123 58.4841C49.3547 58.4841 49.3086 58.4498 49.297 58.3927L48.7898 56.7942C48.7668 56.7256 48.8014 56.6571 48.8705 56.6457C48.9397 56.6229 49.0088 56.6571 49.0204 56.7256L49.5276 58.3242C49.5506 58.3927 49.5161 58.4612 49.4469 58.4727C49.4469 58.4727 49.4238 58.4841 49.4123 58.4841Z" fill="#4E55A2"/>
<path d="M51.0606 56.8405C51.003 56.8405 50.9453 56.7948 50.9338 56.7377L50.7955 55.5616C50.7839 55.4931 50.83 55.436 50.8992 55.4246C50.9684 55.4132 51.026 55.4589 51.0375 55.5274L51.1759 56.7035C51.1874 56.772 51.1413 56.8291 51.0721 56.8405C51.0721 56.8405 51.0721 56.8405 51.0606 56.8405Z" fill="#4E55A2"/>
<path d="M53.4353 56.2347C53.3776 56.2347 53.32 56.189 53.3085 56.1205L53.1817 54.7503C53.1701 54.6818 53.2278 54.6247 53.2969 54.6133C53.3661 54.6133 53.4237 54.659 53.4353 54.7275L53.5621 56.0977C53.5621 56.1662 53.5159 56.2233 53.4353 56.2347C53.4468 56.2347 53.4468 56.2347 53.4353 56.2347Z" fill="#4E55A2"/>
<path d="M55.8214 56.0867C55.8099 56.0867 55.8099 56.0867 55.7984 56.0867C55.7292 56.0753 55.6831 56.0182 55.6946 55.9497L55.8791 54.7051C55.8906 54.6366 55.9482 54.5909 56.0174 54.6023C56.0866 54.6138 56.1327 54.6708 56.1211 54.7394L55.9367 55.984C55.9367 56.041 55.8791 56.0867 55.8214 56.0867Z" fill="#4E55A2"/>
<path d="M58.4496 57.0118C58.4265 57.0118 58.415 57.0118 58.3919 57.0004C58.3343 56.9662 58.3113 56.8976 58.3458 56.8405L58.9453 55.7444C58.9798 55.6873 59.049 55.6645 59.1066 55.6987C59.1643 55.733 59.1873 55.8015 59.1528 55.8586L58.5533 56.9547C58.5303 56.989 58.4842 57.0118 58.4496 57.0118Z" fill="#4E55A2"/>
<path d="M60.6398 58.4954C60.6167 58.4954 60.5937 58.484 60.5706 58.4726C60.513 58.4383 60.5015 58.3584 60.5361 58.3013L61.2277 57.2508C61.2623 57.1937 61.343 57.1823 61.4006 57.2165C61.4582 57.2508 61.4698 57.3307 61.4352 57.3878L60.7435 58.4383C60.7205 58.4726 60.6744 58.4954 60.6398 58.4954Z" fill="#4E55A2"/>
<path d="M62.2191 60.4375C62.196 60.4375 62.1729 60.426 62.1499 60.4146C62.0923 60.3804 62.0807 60.3004 62.1268 60.2433L62.9799 59.0901C63.0144 59.033 63.0951 59.0216 63.1528 59.0672C63.2104 59.1015 63.2219 59.1814 63.1758 59.2385L62.3228 60.3918C62.2882 60.4146 62.2536 60.4375 62.2191 60.4375Z" fill="#4E55A2"/>
<path d="M63.2911 63.3712C63.2681 63.3712 63.245 63.3597 63.222 63.3483C63.1643 63.3141 63.1413 63.2341 63.1874 63.177L64.3055 61.4072C64.3401 61.3501 64.4208 61.3273 64.4784 61.3729C64.5361 61.4072 64.5591 61.4871 64.513 61.5442L63.3949 63.3141C63.3718 63.3483 63.3372 63.3712 63.2911 63.3712Z" fill="#4E55A2"/>
<path d="M65.3891 61.0084C65.343 61.0084 65.3084 60.9856 65.2854 60.9513C65.2739 60.9399 64.3517 59.3413 63.879 58.8275C61.4352 56.1898 60.6168 55.2992 57.1009 54.4314C54.2076 53.7121 51.637 54.5913 51.6139 54.6027C51.5448 54.6255 51.4756 54.5913 51.4525 54.5342C51.4295 54.4657 51.4641 54.3972 51.5217 54.3743C51.5448 54.3629 54.1845 53.4608 57.1586 54.1916C60.7436 55.0823 61.5736 55.9843 64.052 58.6676C64.5476 59.2043 65.4583 60.7686 65.4929 60.8371C65.5275 60.8942 65.5044 60.9741 65.4468 61.0084C65.4352 60.997 65.4122 61.0084 65.3891 61.0084Z" fill="#1E2754"/>
<path d="M58.6341 60.3343C58.4728 60.6084 57.931 60.597 57.4238 60.3001C56.9166 60.0032 56.1097 59.5122 56.8474 59.0212C57.1586 58.8157 57.2509 59.4209 57.7696 59.7177C58.2768 60.0032 58.7955 60.0603 58.6341 60.3343Z" fill="#F4DED3"/>
<path d="M54.1038 57.7193C54.0116 57.9591 53.6889 57.628 53.1125 57.5252C52.5707 57.4338 52.0289 57.4681 52.2941 56.9999C52.4209 56.783 52.8704 56.7373 53.3776 56.9314C53.8618 57.1255 54.1961 57.4795 54.1038 57.7193Z" fill="#F4DED3"/>
<path d="M52.2711 67.0938C52.2711 67.0938 53.1241 67.6532 54.2538 67.7789C55.3835 67.9159 56.2826 67.8017 56.2826 67.8017C56.2826 67.8017 56.1328 68.7723 55.3143 68.9892C54.4959 69.2062 53.8273 69.1719 53.1241 68.8293C52.1213 68.3726 52.2711 67.0938 52.2711 67.0938Z" fill="#5B1A19"/>
<path d="M52.5708 67.2539C52.5708 67.2539 52.5592 67.9162 52.6169 67.9847C52.6976 68.0646 53.1587 68.1788 53.1587 68.1788L52.7091 68.2359C52.7091 68.2359 52.3863 68.8411 53.8734 69.1379C54.4267 69.2521 55.0607 69.2293 55.3604 68.7155C55.6601 68.2016 55.7177 67.8362 55.7177 67.8362C55.7177 67.8362 54.8301 67.8705 54.0463 67.7449C53.2739 67.6307 52.5708 67.2539 52.5708 67.2539Z" fill="white"/>
<path d="M53.3086 68.167L53.3316 68.3154L54.3115 68.4639L53.3086 68.167Z" fill="#F3D9CD"/>
<path d="M54.7495 69.6627C54.7495 69.6627 55.5449 69.3088 55.9945 69.069C56.2711 68.9205 56.5478 68.3496 56.5478 68.3496C56.5478 68.3496 56.3403 69.0918 56.1213 69.2174C55.8907 69.343 54.7495 69.6627 54.7495 69.6627Z" fill="#E08D80"/>
<path d="M120.04 48.561H81.6657C81.0317 48.561 80.5129 48.0472 80.5129 47.4192C80.5129 46.7912 81.0317 46.2773 81.6657 46.2773H120.04C120.674 46.2773 121.193 46.7912 121.193 47.4192C121.193 48.0472 120.686 48.561 120.04 48.561Z" fill="black"/>
<path d="M100.859 55.8003H81.6657C81.0317 55.8003 80.5129 55.2864 80.5129 54.6584C80.5129 54.0304 81.0317 53.5166 81.6657 53.5166H100.859C101.493 53.5166 102.012 54.0304 102.012 54.6584C102.012 55.2864 101.493 55.8003 100.859 55.8003Z" fill="black"/>
<path d="M59.9943 81.595H40.686C40.3632 81.595 40.1096 81.3438 40.1096 81.024C40.1096 80.7043 40.3632 80.4531 40.686 80.4531H59.9943C60.3171 80.4531 60.5707 80.7043 60.5707 81.024C60.5707 81.3438 60.3171 81.595 59.9943 81.595Z" fill="black"/>
<path d="M50.3459 86.9729H40.686C40.3632 86.9729 40.1096 86.7217 40.1096 86.402C40.1096 86.0823 40.3632 85.8311 40.686 85.8311H50.3344C50.6572 85.8311 50.9108 86.0823 50.9108 86.402C50.9108 86.7217 50.6572 86.9729 50.3459 86.9729Z" fill="black"/>
<path d="M119.291 81.595H95.9826C95.6599 81.595 95.4062 81.3438 95.4062 81.024C95.4062 80.7043 95.6599 80.4531 95.9826 80.4531H119.291C119.614 80.4531 119.867 80.7043 119.867 81.024C119.867 81.3438 119.614 81.595 119.291 81.595Z" fill="black"/>
<path d="M120.225 67.8352H81.6657C81.343 67.8352 81.0894 67.584 81.0894 67.2643C81.0894 66.9446 81.343 66.6934 81.6657 66.6934H120.225C120.548 66.6934 120.801 66.9446 120.801 67.2643C120.801 67.584 120.548 67.8352 120.225 67.8352Z" fill="black"/>
<path d="M107.637 86.9729H95.9826C95.6599 86.9729 95.4062 86.7217 95.4062 86.402C95.4062 86.0823 95.6599 85.8311 95.9826 85.8311H107.637C107.96 85.8311 108.213 86.0823 108.213 86.402C108.213 86.7217 107.96 86.9729 107.637 86.9729Z" fill="black"/>
</svg>
