<svg width="161" height="126" viewBox="0 0 161 126" fill="none" xmlns="http://www.w3.org/2000/svg">
<rect width="161" height="126" rx="14" fill="#4D4D4D"/>
<rect x="8" y="8" width="145" height="110" rx="13" stroke="#FF5F66" stroke-width="2" stroke-linecap="round" stroke-dasharray="5 8"/>
<g clip-path="url(#clip0)">
<path d="M67.0602 91.1984L52.1323 81.1729L49.7043 82.9234L67.3811 104.401L67.0602 91.1984Z" fill="#EA5045"/>
<path d="M52.4638 81.7221L50.0287 77.9643C50.0287 77.9643 49.8219 74.9267 48.9556 74.9837C48.0856 75.0408 48.7559 78.4848 48.7559 78.4848C48.7559 78.4848 47.8753 74.0781 46.7558 74.6949C45.6363 75.3117 47.9181 78.9768 47.9181 78.9768C47.9181 78.9768 46.4991 77.3297 46.0926 77.7932C45.2833 78.7202 50.0287 83.3158 50.0287 83.3158L52.4638 81.7221Z" fill="black"/>
<path d="M51.5226 80.2676C51.5226 80.2676 52.2606 78.6846 52.2 77.8147C52.143 76.9447 50.8381 77.0339 50.8987 77.9038C50.9272 78.3388 50.5529 79.2372 50.5814 79.6686C50.6099 80.1036 51.5226 80.2676 51.5226 80.2676Z" fill="black"/>
<path d="M65.299 110.092H95.308C95.2331 108.986 95.1511 107.863 95.0656 106.719C93.4505 85.0561 96.0353 72.4492 77.7704 72.4492C65.9657 72.4492 65.003 87.5482 65.3239 106.719C65.3418 107.863 65.3311 108.986 65.299 110.092Z" fill="#EA5045"/>
<path d="M91.6605 98.6859L104.763 96.0547L105.932 97.9479L87.6816 107.653L91.6605 98.6859Z" fill="#EA5045"/>
<path d="M104.378 96.34L107.12 94.4539C107.12 94.4539 108.125 92.4288 108.706 92.7141C109.284 93.0028 107.843 95.1741 107.843 95.1741C107.843 95.1741 109.704 92.4003 110.296 93.1419C110.888 93.8835 108.278 95.7481 108.278 95.7481C108.278 95.7481 109.722 95.0208 109.868 95.4558C110.161 96.3221 105.594 98.1262 105.594 98.1262L104.378 96.34Z" fill="black"/>
<path d="M105.44 95.6095C105.44 95.6095 105.387 94.3117 105.672 93.7341C105.961 93.1566 106.827 93.588 106.542 94.1655C106.399 94.4543 106.399 95.1781 106.257 95.4669C106.111 95.7557 105.44 95.6095 105.44 95.6095Z" fill="black"/>
<path d="M105.162 51.2539C105.162 51.2539 119.851 62.3919 114.874 70.6633C109.897 78.9348 109.612 68.5135 109.612 68.5135L100.385 68.6775L105.162 51.2539Z" fill="#4E55A2"/>
<path d="M98.4811 72.3203C95.8998 82.5883 85.0507 88.7099 74.2443 85.9967C63.4379 83.2836 56.9348 72.798 59.352 62.4872C61.7978 52.0445 72.7825 46.0976 83.5889 48.8108C94.3917 51.5275 101.059 62.0523 98.4811 72.3203Z" fill="#EA5045"/>
<path d="M73.105 65.7854C74.0969 62.3498 72.8367 58.9686 70.2903 58.2334C67.7438 57.4982 64.8754 59.6874 63.8834 63.123C62.8915 66.5586 64.1517 69.9398 66.6982 70.675C69.2446 71.4102 72.113 69.221 73.105 65.7854Z" fill="white"/>
<path d="M89.6035 48.3442C89.6035 48.3442 94.1885 39.3097 100.189 32.0223C106.189 24.7348 115.127 16.7949 115.127 16.7949C115.127 16.7949 119.149 22.8987 114.885 36.1794C110.621 49.4601 105.269 63.3933 103.301 67.5326C101.337 71.6683 100.695 73.7183 100.695 73.7183C100.695 73.7183 102.435 63.6107 97.9784 57.4C93.5182 51.1821 89.6035 48.3442 89.6035 48.3442Z" fill="#EA5045"/>
<path d="M69.9453 65.0799C70.6358 63.5294 70.0465 61.7608 68.6291 61.1296C67.2117 60.4984 65.5029 61.2436 64.8125 62.7941C64.122 64.3446 64.7113 66.1132 66.1287 66.7444C67.5461 67.3756 69.2549 66.6304 69.9453 65.0799Z" fill="#4E55A2"/>
<path d="M89.9355 70.8785C90.8549 67.2197 88.964 63.5912 85.7119 62.774C82.4599 61.9568 79.0783 64.2604 78.1589 67.9192C77.2395 71.5779 79.1304 75.2064 82.3825 76.0236C85.6345 76.8408 89.0161 74.5373 89.9355 70.8785Z" fill="white"/>
<path d="M86.0255 69.6947C86.4607 67.9627 85.267 66.17 83.3594 65.6906C81.4517 65.2112 79.5524 66.2267 79.1172 67.9587C78.6819 69.6907 79.8756 71.4833 81.7833 71.9627C83.6909 72.4421 85.5902 71.4266 86.0255 69.6947Z" fill="#4E55A2"/>
<path d="M94.1707 70.5771C94.0423 70.5771 93.9104 70.545 93.7892 70.4808C93.6537 70.4095 80.2018 63.1719 74.2585 61.5212C68.251 59.8527 60.1114 58.1306 60.0294 58.1164C59.5909 58.0237 59.3128 57.5958 59.4055 57.1573C59.4982 56.7188 59.926 56.4442 60.3646 56.5334C60.4466 56.5512 68.636 58.2804 74.6935 59.9632C80.8115 61.6638 94.0031 68.7588 94.5593 69.0582C94.9514 69.2686 95.0976 69.7606 94.8873 70.1528C94.7375 70.4237 94.4594 70.5771 94.1707 70.5771Z" fill="#4E55A2"/>
<path d="M84.5407 78.8665C83.3713 78.8665 82.1199 78.592 80.7936 78.0394C73.556 75.0267 74.9501 69.4684 76.0767 64.9975C75.2888 67.3649 74.2334 69.6395 72.3011 71.1904C70.4614 72.6665 67.8872 73.1442 65.5912 72.4383C63.2203 71.7074 61.4804 69.8962 60.6925 67.3364C59.655 63.9707 61.2451 57.7493 61.3128 57.4855C61.4234 57.0541 61.8654 56.7938 62.2968 56.9043C62.7282 57.0148 62.9885 57.4569 62.878 57.8883C62.8637 57.9489 61.3378 63.9279 62.2398 66.8586C62.8637 68.8908 64.2257 70.3205 66.0689 70.8874C67.8623 71.44 69.866 71.0692 71.2921 69.9248C73.3172 68.299 74.2584 65.5395 75.0535 62.8477C75.2674 62.1203 75.984 61.7424 76.7541 61.9421C77.5456 62.1489 78.2337 62.9261 78.0198 63.8673C77.9093 64.3558 77.7809 64.8585 77.6526 65.3683C76.5259 69.8392 75.4599 74.0605 81.4175 76.5384C83.6209 77.4547 85.5247 77.4689 87.0792 76.5812C90.5732 74.5846 91.4288 68.709 91.436 68.6519C91.4966 68.2099 91.9066 67.8997 92.3487 67.9639C92.7908 68.0245 93.101 68.4309 93.0368 68.873C92.9976 69.1475 92.0706 75.5864 87.8849 77.9823C86.8617 78.5742 85.7422 78.8665 84.5407 78.8665Z" fill="#4E55A2"/>
<path d="M87.4038 85.0274C87.4038 85.0274 80.5335 77.8469 71.9661 75.6935C63.3987 73.54 59.509 70.9089 57.1737 68.6663C54.8384 66.4237 54.3536 66.7161 55.031 68.9551C55.7084 71.1941 56.3858 75.0909 62.2222 79.8684C68.0585 84.6459 72.5864 85.5765 72.5864 85.5765C72.5864 85.5765 78.1626 87.4233 81.3464 86.9491C84.5337 86.482 87.4038 85.0274 87.4038 85.0274Z" fill="#FAA9A4"/>
<path d="M57.0881 74.1575C57.0881 74.1575 56.974 74.4106 58.8244 73.6369C60.6747 72.8597 60.9314 71.4978 60.9314 71.4978C60.9314 71.4978 58.147 69.7436 57.1736 68.6705C56.2003 67.5973 55.2305 66.5277 54.4997 66.9627C54.1538 67.1695 54.5068 69.1767 54.8847 70.3711C55.2626 71.5655 57.0881 74.1575 57.0881 74.1575Z" fill="#5B1A19"/>
<g opacity="0.36">
<path opacity="0.36" d="M114.022 20.3711C114.022 20.3711 103.344 30.8923 99.4937 36.5646C95.6432 42.237 91.0439 49.4532 91.0439 49.4532L94.6984 53.9918L95.7394 51.874L95.7287 55.2361L97.5542 55.2574L96.8839 56.0347L97.7788 56.8262L96.9409 57.4929L100.189 63.258C100.189 63.258 102.877 65.857 106.253 55.2503C109.63 44.6436 114.022 20.3711 114.022 20.3711Z" fill="#FAA9A4"/>
</g>
<path d="M80.9576 48.1516C80.9576 48.1516 75.7131 37.7267 72.7967 32.8565C69.8803 27.9863 66.0012 17.073 65.4165 16.0997C64.8318 15.1263 62.001 21.4512 60.9207 30.6995C59.8404 39.9479 61.0954 48.1302 61.5767 51.1465C62.0616 54.1663 63.0314 55.2394 63.0314 55.2394C63.0314 55.2394 69.9516 50.7686 72.1906 50.0911C74.4332 49.4102 80.9576 48.1516 80.9576 48.1516Z" fill="#EA5045"/>
<g opacity="0.36">
<path opacity="0.36" d="M73.6952 48.7152C73.6952 48.7152 66.5753 27.9795 65.5057 23.9863C64.4397 19.9932 64.3434 18.7275 64.3434 18.7275C64.3434 18.7275 61.6053 27.9759 61.4983 34.9853C61.3913 41.9946 63.5091 54.6799 63.5091 54.6799L68.6503 50.6333L67.2277 50.0843L69.0781 49.307L68.8856 48.43L70.8322 48.9184L73.6952 48.7152Z" fill="#FAA9A4"/>
</g>
<path d="M69.3134 64.2528C70.1542 64.2528 70.8358 63.6239 70.8358 62.8481C70.8358 62.0723 70.1542 61.4434 69.3134 61.4434C68.4726 61.4434 67.791 62.0723 67.791 62.8481C67.791 63.6239 68.4726 64.2528 69.3134 64.2528Z" fill="white"/>
<path d="M86.7225 68.5451C86.9912 67.4757 86.2539 66.3688 85.0757 66.0727C83.8975 65.7767 82.7245 66.4036 82.4558 67.4729C82.1871 68.5423 82.9244 69.6492 84.1026 69.9453C85.2808 70.2413 86.4538 69.6145 86.7225 68.5451Z" fill="white"/>
<path d="M75.3424 59.457L73.6846 62.7656L78.7473 64.0349L78.4585 60.2378L75.3424 59.457Z" fill="#F47B2B"/>
<path d="M107.902 72.7402C111.064 71.7099 112.737 68.1398 111.637 64.7661C110.538 61.3925 107.084 59.4928 103.922 60.5231C100.759 61.5534 99.0872 65.1236 100.186 68.4972C101.286 71.8709 104.74 73.7706 107.902 72.7402Z" fill="#4E55A2"/>
<path d="M62.5037 49.9309C62.5037 49.9309 65.7267 38.6789 79.1678 37.9765C90.0741 37.4061 94.6661 39.5737 94.6661 39.5737L89.2861 49.3569C89.2861 49.3569 84.1236 46.2587 78.6723 46.5439C73.2174 46.8291 62.5037 49.9309 62.5037 49.9309Z" fill="#4E55A2"/>
<path d="M85.0542 47.5028C85.0542 47.5028 88.3842 44.7005 95.2616 48.0875C102.139 51.471 106.154 61.354 106.154 61.354L103.872 64.8801L85.0542 47.5028Z" fill="#4E55A2"/>
<path d="M61.7942 56.7975C61.7942 56.7975 58.4072 56.3519 58.7031 53.5282C58.9991 50.7045 67.185 44.483 76.6294 44.7861C86.0739 45.0891 101.74 53.5816 103.672 65.6573C105.605 77.7329 98.5987 72.6631 98.5987 72.6631C98.5987 72.6631 98.7485 66.8303 96.1779 62.5341C93.6073 58.2379 87.1078 48.4369 76.3299 49.2676C65.9549 50.0663 61.7942 56.7975 61.7942 56.7975Z" fill="#1E2754"/>
<path d="M107.28 71.1151C107.323 70.2951 107.416 69.5072 107.487 68.7228C107.558 67.942 107.626 67.1684 107.623 66.4232C107.619 66.0489 107.594 65.6816 107.53 65.3429C107.516 65.2538 107.491 65.1754 107.473 65.0934L107.391 64.8188C107.334 64.637 107.277 64.4516 107.212 64.2698C107.088 63.9061 106.952 63.5425 106.788 63.1895C106.628 62.833 106.45 62.4836 106.218 62.1484C106.592 62.3303 106.899 62.6297 107.177 62.9364C107.448 63.2537 107.69 63.5959 107.893 63.9596C107.997 64.1414 108.093 64.3268 108.175 64.5158L108.303 64.801C108.343 64.908 108.385 65.0149 108.414 65.1255C108.542 65.5604 108.585 65.9918 108.592 66.4161C108.603 67.2646 108.46 68.0846 108.243 68.8726C108.008 69.6498 107.715 70.4163 107.28 71.1151Z" fill="#1E2754"/>
<path d="M62.461 55.539C62.322 55.539 62.1972 55.4498 62.1508 55.3108L60.8317 51.0824C60.7782 50.9112 60.8745 50.7294 61.0456 50.6759C61.2167 50.6224 61.3986 50.7187 61.452 50.8898L62.7712 55.1183C62.8247 55.2894 62.7284 55.4712 62.5573 55.5247C62.5252 55.5318 62.4931 55.539 62.461 55.539Z" fill="#4E55A2"/>
<path d="M66.7821 51.1821C66.6217 51.1821 66.4826 51.0609 66.4612 50.8968L66.0869 47.7844C66.0655 47.6061 66.1903 47.4457 66.3685 47.4243C66.5432 47.4029 66.7072 47.5277 66.7286 47.7059L67.103 50.8184C67.1244 50.9967 66.9996 51.1571 66.8213 51.1785C66.807 51.1821 66.7963 51.1821 66.7821 51.1821Z" fill="#4E55A2"/>
<path d="M73.0214 49.585C72.8574 49.585 72.7148 49.4567 72.7005 49.2891L72.3761 45.6454C72.3618 45.4671 72.4902 45.3103 72.6684 45.296C72.8503 45.2817 73.0036 45.4101 73.0178 45.5884L73.3423 49.2321C73.3565 49.4103 73.2282 49.5672 73.0499 49.5815C73.0392 49.585 73.0321 49.585 73.0214 49.585Z" fill="#4E55A2"/>
<path d="M79.2712 49.1815C79.2569 49.1815 79.2391 49.1815 79.2248 49.178C79.0465 49.153 78.9253 48.989 78.9503 48.8107L79.4245 45.52C79.4494 45.3417 79.6099 45.2205 79.7917 45.2454C79.9699 45.2704 80.0912 45.4344 80.0662 45.6127L79.592 48.9034C79.5671 49.0674 79.428 49.1815 79.2712 49.1815Z" fill="#4E55A2"/>
<path d="M86.163 51.6457C86.1131 51.6457 86.0596 51.635 86.0097 51.6065C85.8528 51.5209 85.7922 51.3248 85.8778 51.168L87.4394 48.248C87.525 48.0911 87.7175 48.0305 87.8779 48.1161C88.0348 48.2016 88.0954 48.3977 88.0098 48.5546L86.4482 51.4746C86.3912 51.5851 86.2771 51.6457 86.163 51.6457Z" fill="#4E55A2"/>
<path d="M91.9176 55.5855C91.857 55.5855 91.7964 55.5677 91.7429 55.5356C91.5931 55.4394 91.5504 55.2397 91.6466 55.09L93.4471 52.2912C93.5433 52.1415 93.743 52.0987 93.8927 52.195C94.0425 52.2912 94.0853 52.4909 93.989 52.6406L92.1885 55.4394C92.1279 55.5321 92.0245 55.5855 91.9176 55.5855Z" fill="#4E55A2"/>
<path d="M96.0672 60.719C95.9995 60.719 95.9353 60.6976 95.8783 60.6548C95.7357 60.5514 95.7036 60.3482 95.807 60.202L98.0495 57.1359C98.1529 56.9932 98.3561 56.9612 98.5023 57.0646C98.6449 57.1679 98.677 57.3712 98.5736 57.5173L96.3311 60.5835C96.2633 60.6726 96.1671 60.719 96.0672 60.719Z" fill="#4E55A2"/>
<path d="M98.8982 68.5057C98.8412 68.5057 98.7806 68.4914 98.7271 68.4558C98.5773 68.3595 98.531 68.1598 98.6237 68.0101L101.561 63.3289C101.658 63.1791 101.857 63.1328 102.007 63.2255C102.157 63.3218 102.203 63.5214 102.111 63.6712L99.1727 68.3524C99.1121 68.4522 99.0052 68.5057 98.8982 68.5057Z" fill="#4E55A2"/>
<path d="M104.407 62.2345C104.293 62.2345 104.186 62.1775 104.125 62.0705C104.1 62.0277 101.672 57.7886 100.424 56.4267C94.0138 49.4387 91.8568 47.0856 82.6334 44.7682C75.0286 42.8572 68.2831 45.2031 68.2153 45.2281C68.0478 45.2887 67.8624 45.1996 67.8018 45.032C67.7411 44.8644 67.8303 44.679 67.9978 44.6184C68.0656 44.5935 75.0001 42.1833 82.7902 44.1407C92.199 46.5045 94.3917 48.8968 100.898 55.9917C102.196 57.4071 104.581 61.5749 104.681 61.7496C104.77 61.903 104.717 62.1026 104.56 62.1917C104.517 62.2203 104.46 62.2345 104.407 62.2345Z" fill="#1E2754"/>
<path d="M86.6657 60.4452C86.2485 61.169 84.8224 61.1297 83.4854 60.3561C82.1449 59.5824 80.0414 58.2668 81.9773 56.9726C82.7902 56.4271 83.0469 58.0422 84.3875 58.8159C85.7244 59.5895 87.0864 59.7214 86.6657 60.4452Z" fill="#F4DED3"/>
<path d="M74.754 53.5144C74.5044 54.1383 73.6701 53.2755 72.1442 53.0117C70.7359 52.7692 69.2991 52.8762 69.9872 51.6212C70.3081 51.0329 71.5024 50.9117 72.8216 51.4358C74.1372 51.9599 75.0036 52.8905 74.754 53.5144Z" fill="#F4DED3"/>
<path d="M69.9587 78.374C69.9587 78.374 72.1977 79.8465 75.1712 80.1959C78.1446 80.5453 80.487 80.2636 80.487 80.2636C80.487 80.2636 80.0877 82.8449 77.9414 83.4225C75.7951 84.0001 74.0374 83.8967 72.187 83.0125C69.5594 81.7575 69.9587 78.374 69.9587 78.374Z" fill="#5B1A19"/>
<path d="M70.7253 78.8096C70.7253 78.8096 70.6896 80.553 70.8607 80.7348C71.0711 80.9559 72.2868 81.2625 72.2868 81.2625L71.1174 81.4051C71.1174 81.4051 70.2832 83.0095 74.18 83.8045C75.6418 84.104 77.2996 84.0612 78.084 82.6957C78.8684 81.3302 79.0074 80.3605 79.0074 80.3605C79.0074 80.3605 76.665 80.4389 74.6257 80.118C72.5863 79.7972 70.7253 78.8096 70.7253 78.8096Z" fill="white"/>
<path d="M72.679 81.2119L72.7253 81.6005L75.3101 82.0034L72.679 81.2119Z" fill="#F3D9CD"/>
<path d="M76.4583 85.177C76.4583 85.177 78.5618 84.25 79.7205 83.6119C80.4371 83.2161 81.168 81.708 81.168 81.708C81.168 81.708 80.6332 83.6867 80.0556 84.0076C79.4745 84.3249 76.4583 85.177 76.4583 85.177Z" fill="#E08D80"/>
<path d="M91.7676 84.9951L99.4365 98.1154L93.1153 100.173L91.7676 84.9951Z" fill="#EA5045"/>
<path d="M89.3289 110.091L86.9829 85.0555L69.8481 83.4404L67.0422 110.091H89.3289Z" fill="#FAA9A4"/>
<path d="M66.1403 110.092L66.0939 86.832L59.384 110.092H66.1403Z" fill="#EA5045"/>
</g>
<defs>
<clipPath id="clip0">
<rect width="95.3073" height="94.0916" fill="white" transform="translate(46 16)"/>
</clipPath>
</defs>
</svg>
