<svg width="161" height="126" viewBox="0 0 161 126" fill="none" xmlns="http://www.w3.org/2000/svg">
<rect width="161" height="126" rx="14" fill="#E6E6E6"/>
<rect x="8" y="8" width="145" height="110" rx="13" stroke="#00C853" stroke-width="2" stroke-linecap="round" stroke-dasharray="5 8"/>
<path d="M63.2989 110.368H93.3968C93.3222 109.259 93.2411 108.13 93.1536 106.986C91.5323 85.2604 94.1263 72.6143 75.8057 72.6143C63.9669 72.6143 63.0006 87.7572 63.3216 106.986C63.3411 108.134 63.3314 109.259 63.2989 110.368Z" fill="#EA5045"/>
<path d="M64.0545 98.0204L50.9123 95.4102L49.7417 97.3136L68.0689 107.006L64.0545 98.0204Z" fill="#EA5045"/>
<path d="M51.295 95.6946L48.542 93.8075C48.542 93.8075 47.5271 91.7776 46.9467 92.0662C46.3662 92.3548 47.8157 94.5306 47.8157 94.5306C47.8157 94.5306 45.9447 91.7549 45.3513 92.5007C44.7579 93.2465 47.3812 95.111 47.3812 95.111C47.3812 95.111 45.9317 94.3846 45.7858 94.8191C45.494 95.6882 50.079 97.4878 50.079 97.4878L51.295 95.6946Z" fill="black"/>
<path d="M50.2313 94.9656C50.2313 94.9656 50.2832 93.6653 49.9946 93.0848C49.706 92.5044 48.8337 92.9389 49.1256 93.5194C49.2715 93.8079 49.2715 94.5343 49.4142 94.8261C49.5568 95.1147 50.2313 94.9656 50.2313 94.9656Z" fill="black"/>
<path d="M87.4011 110.368L85.047 85.2609L67.8612 83.6396L65.0466 110.368H87.4011Z" fill="#FAA9A4"/>
<path d="M103.28 51.3564C103.28 51.3564 118.015 62.5272 113.021 70.8218C108.028 79.1163 107.742 68.6654 107.742 68.6654L98.4878 68.8308L103.28 51.3564Z" fill="#4E55A2"/>
<path d="M96.5779 72.4872C93.9903 82.7857 83.1049 88.9272 72.2681 86.2034C61.4313 83.4797 54.9072 72.9639 57.3294 62.6265C59.7841 52.1529 70.8024 46.1865 81.6392 48.9103C92.476 51.6341 99.1655 62.1888 96.5779 72.4872Z" fill="#EA5045"/>
<path d="M71.1323 65.9341C72.1274 62.4877 70.8627 59.0957 68.3075 58.358C65.7524 57.6203 62.8744 59.8162 61.8793 63.2626C60.8843 66.709 62.149 70.101 64.7041 70.8387C67.2593 71.5764 70.1373 69.3805 71.1323 65.9341Z" fill="white"/>
<path d="M87.677 48.4404C87.677 48.4404 92.275 39.3806 98.2933 32.0685C104.312 24.7565 113.277 16.7959 113.277 16.7959C113.277 16.7959 117.311 22.9179 113.034 36.2385C108.757 49.5591 103.387 63.5347 101.416 67.682C99.4444 71.8293 98.7991 73.8851 98.7991 73.8851C98.7991 73.8851 100.547 63.7487 96.0753 57.5165C91.6038 51.2842 87.677 48.4404 87.677 48.4404Z" fill="#EA5045"/>
<path d="M67.9588 65.2246C68.6516 63.6689 68.0608 61.8945 66.6391 61.2614C65.2175 60.6283 63.5034 61.3763 62.8106 62.9321C62.1178 64.4878 62.7086 66.2622 64.1302 66.8953C65.5519 67.5284 67.2659 66.7804 67.9588 65.2246Z" fill="#4E55A2"/>
<path d="M88.0111 71.0404C88.9328 67.3724 87.036 63.7344 83.7744 62.9148C80.5127 62.0952 77.1214 64.4043 76.1997 68.0723C75.278 71.7403 77.1748 75.3783 80.4365 76.1979C83.6981 77.0175 87.0894 74.7084 88.0111 71.0404Z" fill="white"/>
<path d="M84.0881 69.8546C84.5249 68.1161 83.3276 66.3169 81.4137 65.8359C79.4998 65.355 77.5941 66.3744 77.1572 68.1129C76.7204 69.8514 77.9177 71.6506 79.8316 72.1316C81.7455 72.6125 83.6512 71.5931 84.0881 69.8546Z" fill="#4E55A2"/>
<path d="M92.2554 70.7361C92.1257 70.7361 91.9927 70.7037 91.8727 70.6388C91.7366 70.5643 78.2474 63.3073 72.2842 61.6503C66.2562 59.9772 58.0946 58.2521 58.0135 58.2327C57.5758 58.1386 57.2937 57.7106 57.3877 57.2728C57.4818 56.8351 57.9098 56.5562 58.3475 56.647C58.4286 56.6632 66.6421 58.4013 72.7187 60.0874C78.857 61.793 92.0835 68.9073 92.6445 69.2088C93.0368 69.4229 93.186 69.9125 92.972 70.3081C92.8261 70.5837 92.544 70.7361 92.2554 70.7361Z" fill="#4E55A2"/>
<path d="M82.599 79.054C81.4252 79.054 80.1703 78.7783 78.8409 78.2239C71.5839 75.2018 72.9782 69.6277 74.1099 65.1432C73.3187 67.5168 72.2616 69.8028 70.3226 71.356C68.4775 72.8379 65.8997 73.3146 63.5909 72.6077C61.2109 71.8781 59.4663 70.059 58.6751 67.4941C57.6375 64.1153 59.2296 57.8766 59.2977 57.6139C59.4112 57.1794 59.8522 56.92 60.2867 57.0335C60.7212 57.1437 60.9806 57.588 60.8671 58.0225C60.8509 58.0841 59.3204 64.0797 60.2251 67.0207C60.8509 69.0603 62.2161 70.4935 64.0676 71.0642C65.8672 71.6187 67.8744 71.2458 69.3076 70.0979C71.3375 68.4701 72.2843 65.6977 73.0788 62.9999C73.2928 62.2703 74.0094 61.8909 74.7844 62.0919C75.5788 62.2995 76.2695 63.0777 76.0522 64.0245C75.9387 64.5142 75.8123 65.0168 75.6826 65.5291C74.5509 70.0136 73.4841 74.2452 79.4602 76.7323C81.6717 77.6532 83.5848 77.6661 85.1445 76.7744C88.6562 74.764 89.5025 68.8819 89.5123 68.8236C89.5739 68.3793 89.9824 68.068 90.4267 68.1297C90.8709 68.1913 91.179 68.5998 91.1206 69.0441C91.0817 69.3164 90.1511 75.7789 85.9519 78.1817C84.9272 78.7589 83.8053 79.054 82.599 79.054Z" fill="#4E55A2"/>
<path d="M85.4717 85.2311C85.4717 85.2311 78.578 78.0292 69.9883 75.8697C61.3987 73.7101 57.4946 71.0706 55.1534 68.8203C52.8123 66.5699 52.3226 66.865 53.0036 69.1121C53.6845 71.3592 54.3622 75.2665 60.2184 80.0591C66.0713 84.8517 70.6109 85.7855 70.6109 85.7855C70.6109 85.7855 76.2044 87.6371 79.3983 87.1636C82.5923 86.6902 85.4717 85.2311 85.4717 85.2311Z" fill="#FAA9A4"/>
<path d="M55.0628 74.3294C55.0628 74.3294 54.9493 74.5855 56.8041 73.8041C58.6621 73.0258 58.9183 71.6575 58.9183 71.6575C58.9183 71.6575 56.1264 69.8967 55.1504 68.8202C54.1743 67.7436 53.1983 66.6703 52.4655 67.1081C52.1185 67.3156 52.4752 69.326 52.8514 70.5258C53.2275 71.7256 55.0628 74.3294 55.0628 74.3294Z" fill="#5B1A19"/>
<g opacity="0.36">
<path opacity="0.36" d="M112.169 20.3818C112.169 20.3818 101.458 30.9365 97.5963 36.624C93.7343 42.3115 89.1201 49.5523 89.1201 49.5523L92.7843 54.1049L93.8284 51.981L93.8186 55.3533L95.6507 55.376L94.9762 56.1542L95.8745 56.9486L95.0314 57.6166L98.2902 63.3982C98.2902 63.3982 100.985 66.0052 104.373 55.3662C107.762 44.7273 112.169 20.3818 112.169 20.3818Z" fill="#FAA9A4"/>
</g>
<path d="M79.0062 48.2461C79.0062 48.2461 73.7467 37.7887 70.8219 32.9054C67.897 28.0188 64.0059 17.075 63.419 16.099C62.8321 15.1229 59.9948 21.4655 58.9086 30.7425C57.8223 40.0196 59.0837 48.2234 59.5668 51.252C60.0499 54.2806 61.026 55.3539 61.026 55.3539C61.026 55.3539 67.9651 50.8694 70.2123 50.1884C72.4626 49.5075 79.0062 48.2461 79.0062 48.2461Z" fill="#EA5045"/>
<g opacity="0.36">
<path opacity="0.36" d="M71.7201 48.8108C71.7201 48.8108 64.5767 28.016 63.5066 24.0081C62.4365 20.0003 62.3425 18.7324 62.3425 18.7324C62.3425 18.7324 59.596 28.0063 59.489 35.0362C59.382 42.0662 61.5059 54.7901 61.5059 54.7901L66.6616 50.7304L65.2349 50.1791L67.0929 49.4009L66.8984 48.5222L68.8504 49.0118L71.7201 48.8108Z" fill="#FAA9A4"/>
</g>
<path d="M67.3263 64.3943C68.1698 64.3943 68.8536 63.7628 68.8536 62.9838C68.8536 62.2048 68.1698 61.5732 67.3263 61.5732C66.4828 61.5732 65.7991 62.2048 65.7991 62.9838C65.7991 63.7628 66.4828 64.3943 67.3263 64.3943Z" fill="white"/>
<path d="M84.788 68.6993C85.0577 67.626 84.3176 66.5149 83.1348 66.2177C81.9521 65.9205 80.7747 66.5497 80.505 67.623C80.2352 68.6963 80.9754 69.8073 82.1581 70.1045C83.3409 70.4018 84.5183 69.7726 84.788 68.6993Z" fill="white"/>
<path d="M73.3739 59.582L71.7104 62.9024L76.7851 64.1768L76.4998 60.3667L73.3739 59.582Z" fill="#F47B2B"/>
<path d="M106.03 72.907C109.202 71.8734 110.88 68.2928 109.777 64.9094C108.675 61.5261 105.21 59.6213 102.037 60.6549C98.8653 61.6885 97.1874 65.2691 98.2898 68.6524C99.3921 72.0357 102.857 73.9406 106.03 72.907Z" fill="#4E55A2"/>
<path d="M60.4973 50.029C60.4973 50.029 63.7302 38.7447 77.2129 38.0378C88.1502 37.4639 92.7547 39.6397 92.7547 39.6397L87.359 49.4518C87.359 49.4518 82.1838 46.3454 76.7135 46.6307C71.2433 46.9161 60.4973 50.029 60.4973 50.029Z" fill="#4E55A2"/>
<path d="M83.1145 47.5945C83.1145 47.5945 86.4544 44.7864 93.3514 48.1781C100.248 51.5699 104.276 61.4858 104.276 61.4858L101.986 65.0234L83.1145 47.5945Z" fill="#4E55A2"/>
<path d="M59.7873 56.9164C59.7873 56.9164 56.3891 56.4689 56.6842 53.6381C56.9793 50.8073 65.1928 44.5653 74.6644 44.8701C84.136 45.175 99.8497 53.69 101.789 65.8011C103.728 77.9122 96.7011 72.8278 96.7011 72.8278C96.7011 72.8278 96.8503 66.9782 94.2724 62.6688C91.6945 58.3594 85.1769 48.531 74.3661 49.3644C63.9573 50.1653 59.7873 56.9164 59.7873 56.9164Z" fill="#1E2754"/>
<path d="M105.404 71.2778C105.45 70.4542 105.537 69.663 105.612 68.8783C105.683 68.0968 105.751 67.3219 105.745 66.5696C105.742 66.1967 105.719 65.827 105.651 65.4833C105.638 65.3957 105.612 65.3147 105.592 65.2304L105.508 64.9548C105.45 64.7699 105.395 64.5851 105.327 64.4068C105.2 64.0436 105.067 63.6772 104.902 63.3237C104.743 62.967 104.565 62.6168 104.331 62.2764C104.707 62.4612 105.012 62.7595 105.294 63.0676C105.566 63.3853 105.81 63.7291 106.014 64.0922C106.114 64.2738 106.212 64.4586 106.299 64.6499L106.426 64.9353C106.465 65.0423 106.507 65.1526 106.536 65.2596C106.666 65.6941 106.708 66.1286 106.714 66.5534C106.727 67.4062 106.581 68.2265 106.361 69.0145C106.137 69.8089 105.842 70.5742 105.404 71.2778Z" fill="#1E2754"/>
<path d="M60.4553 55.6554C60.3159 55.6554 60.1894 55.5679 60.1473 55.4285L58.8243 51.1871C58.7724 51.0153 58.8665 50.8337 59.0383 50.7818C59.2102 50.7299 59.3918 50.824 59.4436 50.9958L60.7666 55.2372C60.8185 55.409 60.7245 55.5906 60.5526 55.6425C60.5169 55.649 60.4845 55.6554 60.4553 55.6554Z" fill="#4E55A2"/>
<path d="M64.7874 51.2845C64.6253 51.2845 64.4859 51.1645 64.4664 50.9992L64.0903 47.8766C64.0676 47.6982 64.194 47.5361 64.3724 47.5166C64.5507 47.4972 64.7129 47.6236 64.7323 47.7987L65.1085 50.9214C65.1312 51.0997 65.0047 51.2618 64.8264 51.2813C64.8134 51.2845 64.8004 51.2845 64.7874 51.2845Z" fill="#4E55A2"/>
<path d="M71.0456 49.6829C70.8802 49.6829 70.7376 49.5564 70.7214 49.3878L70.3971 45.7334C70.3809 45.555 70.5138 45.3961 70.6922 45.3832C70.8705 45.367 71.0294 45.4999 71.0424 45.6782L71.3666 49.3327C71.3828 49.511 71.2499 49.6699 71.0716 49.6829C71.0651 49.6829 71.0553 49.6829 71.0456 49.6829Z" fill="#4E55A2"/>
<path d="M77.3135 49.2807C77.2973 49.2807 77.2811 49.2807 77.2681 49.2775C77.0897 49.2515 76.9665 49.0862 76.9925 48.9111L77.4691 45.6133C77.4951 45.435 77.6604 45.315 77.8355 45.3377C78.0139 45.3637 78.1371 45.529 78.1112 45.7041L77.6345 49.0018C77.6118 49.164 77.4724 49.2807 77.3135 49.2807Z" fill="#4E55A2"/>
<path d="M84.2267 51.751C84.1748 51.751 84.1229 51.738 84.0743 51.7121C83.9154 51.6278 83.8571 51.43 83.9414 51.2743L85.5075 48.3463C85.5918 48.1874 85.7896 48.129 85.9453 48.2133C86.1042 48.2976 86.1625 48.4954 86.0782 48.6511L84.5121 51.5792C84.4537 51.6894 84.3402 51.751 84.2267 51.751Z" fill="#4E55A2"/>
<path d="M89.9954 55.7009C89.9338 55.7009 89.8754 55.6847 89.8203 55.6491C89.6712 55.5518 89.6258 55.3507 89.723 55.2016L91.5292 52.3967C91.6264 52.2476 91.8275 52.2022 91.9766 52.2995C92.1258 52.3967 92.1712 52.5978 92.0739 52.7469L90.2678 55.5518C90.2094 55.6491 90.1024 55.7009 89.9954 55.7009Z" fill="#4E55A2"/>
<path d="M94.1589 60.8499C94.094 60.8499 94.0259 60.8304 93.9675 60.7883C93.8216 60.6813 93.7924 60.4802 93.8962 60.3343L96.1466 57.2571C96.2536 57.1112 96.4546 57.082 96.6005 57.1858C96.7465 57.2928 96.7756 57.4938 96.6719 57.6397L94.4215 60.717C94.3567 60.8045 94.2594 60.8499 94.1589 60.8499Z" fill="#4E55A2"/>
<path d="M96.9993 68.6614C96.9409 68.6614 96.8793 68.6452 96.8275 68.6128C96.6751 68.5188 96.6297 68.3177 96.7237 68.1653L99.6712 63.47C99.7652 63.3176 99.9663 63.2722 100.119 63.3663C100.271 63.4603 100.316 63.6613 100.222 63.8138L97.2749 68.509C97.2133 68.6063 97.1063 68.6614 96.9993 68.6614Z" fill="#4E55A2"/>
<path d="M102.525 62.3678C102.411 62.3678 102.304 62.3094 102.243 62.2057C102.217 62.1635 99.7848 57.9125 98.5331 56.5473C92.1031 49.5368 89.9403 47.1762 80.6891 44.8513C73.0723 42.9382 66.2952 45.289 66.2271 45.3117C66.0585 45.3701 65.8737 45.2826 65.8121 45.1139C65.7505 44.9453 65.8413 44.7605 66.0099 44.6989C66.078 44.6729 73.0333 42.254 80.848 44.219C90.2872 46.5893 92.4857 48.9888 99.0098 56.1031C100.31 57.5201 102.703 61.6998 102.807 61.8782C102.894 62.0338 102.843 62.2316 102.687 62.3192C102.635 62.3548 102.58 62.3678 102.525 62.3678Z" fill="#1E2754"/>
<path d="M84.7326 60.5745C84.3143 61.3009 82.8843 61.262 81.5419 60.487C80.1994 59.712 78.0885 58.3923 80.0276 57.0952C80.8447 56.5505 81.1009 58.1685 82.4433 58.9435C83.7858 59.7152 85.1509 59.8482 84.7326 60.5745Z" fill="#F4DED3"/>
<path d="M72.7836 53.6259C72.5339 54.255 71.6973 53.386 70.1636 53.1233C68.753 52.8834 67.3101 52.9871 68.0007 51.729C68.325 51.1389 69.5215 51.0189 70.8413 51.5409C72.161 52.063 73.0333 52.9969 72.7836 53.6259Z" fill="#F4DED3"/>
<path d="M67.9748 78.5576C67.9748 78.5576 70.2187 80.033 73.2019 80.3864C76.1851 80.7399 78.5328 80.4545 78.5328 80.4545C78.5328 80.4545 78.1307 83.0454 75.9776 83.6258C73.8245 84.2062 72.0638 84.0992 70.209 83.214C67.5728 81.9526 67.9748 78.5576 67.9748 78.5576Z" fill="#5B1A19"/>
<path d="M68.7433 78.9961C68.7433 78.9961 68.7076 80.7439 68.8795 80.9254C69.0903 81.1459 70.3095 81.454 70.3095 81.454L69.1357 81.5967C69.1357 81.5967 68.2991 83.2082 72.2096 84.0059C73.6753 84.3042 75.3387 84.2621 76.1267 82.8937C76.9146 81.5286 77.0541 80.5525 77.0541 80.5525C77.0541 80.5525 74.7064 80.6336 72.6571 80.3093C70.6078 79.9851 68.7433 78.9961 68.7433 78.9961Z" fill="white"/>
<path d="M70.7021 81.4053L70.7508 81.7976L73.3416 82.1965L70.7021 81.4053Z" fill="#F3D9CD"/>
<path d="M74.4893 85.38C74.4893 85.38 76.597 84.4494 77.761 83.8074C78.4809 83.4085 79.2137 81.8975 79.2137 81.8975C79.2137 81.8975 78.6787 83.8819 78.0983 84.2029C77.5178 84.5272 74.4893 85.38 74.4893 85.38Z" fill="#E08D80"/>
<path d="M65.3873 83.9863L57.6926 97.1448L64.0352 99.2103L65.3873 83.9863Z" fill="#EA5045"/>
<path d="M92.4607 94.7637L99.7911 110.217H93.1871L92.4607 94.7637Z" fill="#EA5045"/>
<path d="M24.9677 95.0889H47.6561C50.9517 95.0889 53.6238 92.4168 53.6238 89.1213V77.9765C53.6238 74.6809 50.9517 72.0088 47.6561 72.0088H24.9677C21.6721 72.0088 19 74.6809 19 77.9765V89.1213C19 92.4168 21.6721 95.0889 24.9677 95.0889Z" fill="white" stroke="#00C853" stroke-width="2"/>
<path d="M34.3874 76.8545H23.2458V87.5421H34.3874V76.8545Z" fill="#A1D7FF"/>
<path d="M28.2362 84.1602C26.9554 84.1602 26.7025 85.5901 26.6863 87.5389H27.043L27.2537 85.5253L29.3841 85.7263L29.5527 87.5389H30.3342C30.224 85.3923 30.2467 84.1602 28.2362 84.1602Z" fill="#EA5045"/>
<path d="M27.2503 85.5283L27.0396 87.5387H29.5493L29.3807 85.7294L27.2503 85.5283Z" fill="#FAA9A4"/>
<path d="M31.6411 81.5273C31.6411 81.5273 33.4667 82.9119 32.8473 83.9398C32.228 84.9677 32.1923 83.6739 32.1923 83.6739L31.0444 83.6934L31.6411 81.5273Z" fill="#4E55A2"/>
<path d="M30.811 84.1475C30.49 85.4218 29.1411 86.1838 27.7986 85.8466C26.4562 85.5093 25.6488 84.2058 25.9471 82.925C26.2519 81.628 27.617 80.8886 28.9595 81.2259C30.3019 81.5631 31.1288 82.8699 30.811 84.1475Z" fill="#EA5045"/>
<path d="M27.6596 83.3357C27.7828 82.909 27.626 82.489 27.3094 82.3976C26.9928 82.3062 26.6363 82.578 26.5131 83.0047C26.3899 83.4314 26.5467 83.8514 26.8633 83.9429C27.1799 84.0343 27.5364 83.7624 27.6596 83.3357Z" fill="white"/>
<path d="M29.7051 81.1674C29.7051 81.1674 30.2758 80.0454 31.0216 79.1407C31.7674 78.2361 32.8763 77.2471 32.8763 77.2471C32.8763 77.2471 33.3757 78.0058 32.8472 79.6563C32.3186 81.3068 31.6506 83.0384 31.4074 83.5507C31.1642 84.063 31.0832 84.3192 31.0832 84.3192C31.0832 84.3192 31.3004 83.0643 30.746 82.2926C30.1947 81.5208 29.7051 81.1674 29.7051 81.1674Z" fill="#EA5045"/>
<path d="M27.2642 83.243C27.3502 83.05 27.2766 82.8297 27.1 82.751C26.9233 82.6723 26.7104 82.765 26.6244 82.9581C26.5384 83.1511 26.612 83.3714 26.7887 83.4501C26.9653 83.5288 27.1783 83.4361 27.2642 83.243Z" fill="#4E55A2"/>
<path d="M29.7479 83.9652C29.8622 83.5102 29.6269 83.0589 29.2222 82.9572C28.8176 82.8555 28.3968 83.142 28.2825 83.597C28.1681 84.052 28.4035 84.5033 28.8081 84.605C29.2128 84.7067 29.6336 84.4203 29.7479 83.9652Z" fill="white"/>
<path d="M29.2619 83.8197C29.316 83.6044 29.167 83.3813 28.929 83.3215C28.6911 83.2618 28.4544 83.3879 28.4002 83.6032C28.3461 83.8186 28.4951 84.0416 28.7331 84.1014C28.971 84.1612 29.2078 84.0351 29.2619 83.8197Z" fill="#4E55A2"/>
<path d="M30.2728 83.9301C30.2565 83.9301 30.2403 83.9269 30.2241 83.9172C30.2079 83.9074 28.5347 83.0092 27.7987 82.805C27.0529 82.5974 26.0412 82.3834 26.0314 82.3802C25.9763 82.3672 25.9439 82.3153 25.9536 82.2602C25.9666 82.2051 26.0185 82.1727 26.0736 82.1824C26.0833 82.1856 27.1015 82.3996 27.8538 82.6072C28.6125 82.8179 30.2533 83.6999 30.3214 83.7388C30.37 83.7648 30.3895 83.8264 30.3636 83.875C30.3441 83.9107 30.3117 83.9301 30.2728 83.9301Z" fill="#4E55A2"/>
<path d="M29.0761 84.9587C28.9302 84.9587 28.7745 84.9231 28.6092 84.855C27.711 84.4821 27.8828 83.7914 28.0223 83.2337C27.925 83.5288 27.792 83.8109 27.5521 84.0022C27.3219 84.187 27.0041 84.2454 26.7187 84.1578C26.4237 84.067 26.2064 83.8433 26.1091 83.5255C25.9794 83.1072 26.1772 82.3355 26.1869 82.3031C26.1999 82.2479 26.255 82.2155 26.3102 82.2317C26.3653 82.2447 26.3977 82.2998 26.3815 82.3549C26.3783 82.3614 26.1902 83.104 26.3037 83.4704C26.3815 83.7233 26.5501 83.9017 26.7803 83.9698C27.0041 84.0378 27.2505 83.9925 27.4289 83.8498C27.6818 83.6487 27.7985 83.305 27.8958 82.971C27.9217 82.8802 28.0125 82.8348 28.1066 82.8575C28.2038 82.8835 28.2914 82.9808 28.2622 83.0975C28.2492 83.1591 28.233 83.2207 28.2168 83.2823C28.0774 83.8368 27.9444 84.3621 28.6837 84.6702C28.9561 84.7836 29.1961 84.7869 29.3874 84.6766C29.8219 84.427 29.9289 83.7006 29.9289 83.6909C29.9354 83.6358 29.9873 83.5969 30.0424 83.6066C30.0975 83.6131 30.1364 83.6649 30.1267 83.7201C30.1235 83.7525 30.0067 84.5534 29.4879 84.8517C29.3647 84.9231 29.2285 84.9587 29.0761 84.9587Z" fill="#4E55A2"/>
<path d="M29.4329 85.7233C29.4329 85.7233 28.5801 84.8316 27.5133 84.5625C26.4497 84.2966 25.9665 83.9691 25.6747 83.6902C25.3861 83.4113 25.3245 83.447 25.4088 83.7259C25.4931 84.0047 25.5774 84.4879 26.3038 85.0813C27.0301 85.6747 27.5911 85.7914 27.5911 85.7914C27.5911 85.7914 28.285 86.0216 28.6806 85.9633C29.0762 85.9049 29.4329 85.7233 29.4329 85.7233Z" fill="#FAA9A4"/>
<path d="M25.6682 84.3742C25.6682 84.3742 25.6552 84.4067 25.8854 84.3094C26.1156 84.2121 26.1481 84.0435 26.1481 84.0435C26.1481 84.0435 25.8011 83.8262 25.6811 83.6933C25.5611 83.5603 25.4379 83.4274 25.3471 83.4825C25.305 83.5085 25.3471 83.7581 25.3958 83.9073C25.4412 84.0532 25.6682 84.3742 25.6682 84.3742Z" fill="#5B1A19"/>
<g opacity="0.36">
<g opacity="0.36">
<path opacity="0.36" d="M32.7403 77.6904C32.7403 77.6904 31.4141 78.9972 30.9341 79.7008C30.4542 80.4045 29.8835 81.3027 29.8835 81.3027L30.3375 81.8669L30.4672 81.6042V82.0225L30.6942 82.0258L30.6099 82.1231L30.7201 82.2203L30.6164 82.3047L31.0185 83.0213C31.0185 83.0213 31.3524 83.3455 31.7707 82.0258C32.189 80.706 32.7403 77.6904 32.7403 77.6904Z" fill="#FAA9A4"/>
</g>
</g>
<path d="M28.632 81.1415C28.632 81.1415 27.9802 79.8477 27.617 79.2413C27.2538 78.6349 26.7739 77.2795 26.6994 77.1596C26.628 77.0396 26.2746 77.8243 26.1416 78.9722C26.0087 80.12 26.1643 81.1382 26.2227 81.5144C26.2811 81.8905 26.4043 82.0235 26.4043 82.0235C26.4043 82.0235 27.2636 81.469 27.5424 81.3847C27.8213 81.3004 28.632 81.1415 28.632 81.1415Z" fill="#EA5045"/>
<g opacity="0.36">
<g opacity="0.36">
<path opacity="0.36" d="M27.7304 81.2124C27.7304 81.2124 26.8452 78.6378 26.7122 78.1384C26.5793 77.6423 26.5663 77.4834 26.5663 77.4834C26.5663 77.4834 26.2258 78.6313 26.2129 79.5035C26.1999 80.3758 26.4625 81.9517 26.4625 81.9517L27.1013 81.4491L26.923 81.381L27.1532 81.2837L27.1338 81.1767L27.377 81.2383L27.7304 81.2124Z" fill="#FAA9A4"/>
</g>
</g>
<path d="M27.1856 83.1451C27.2895 83.1451 27.3737 83.0667 27.3737 82.97C27.3737 82.8733 27.2895 82.7949 27.1856 82.7949C27.0818 82.7949 26.9976 82.8733 26.9976 82.97C26.9976 83.0667 27.0818 83.1451 27.1856 83.1451Z" fill="white"/>
<path d="M29.344 83.6777C29.3776 83.544 29.2866 83.4059 29.1407 83.3692C28.9948 83.3325 28.8493 83.4112 28.8157 83.545C28.7821 83.6787 28.8731 83.8168 29.019 83.8535C29.1649 83.8901 29.3104 83.8115 29.344 83.6777Z" fill="white"/>
<path d="M27.9348 82.5479L27.7273 82.9564L28.3564 83.1153L28.3207 82.6451L27.9348 82.5479Z" fill="#F47B2B"/>
<path d="M31.9811 84.1979C32.3744 84.0697 32.5826 83.6263 32.4462 83.2074C32.3097 82.7885 31.8802 82.5529 31.4868 82.681C31.0935 82.8092 30.8853 83.2527 31.0218 83.6715C31.1583 84.0904 31.5878 84.3261 31.9811 84.1979Z" fill="#4E55A2"/>
<path d="M26.3394 81.3643C26.3394 81.3643 26.7414 79.9668 28.4114 79.8792C29.7668 79.8079 30.3375 80.077 30.3375 80.077L29.6695 81.293C29.6695 81.293 29.0275 80.9071 28.3498 80.9428C27.6721 80.9785 26.3394 81.3643 26.3394 81.3643Z" fill="#4E55A2"/>
<path d="M29.1409 81.0638C29.1409 81.0638 29.5559 80.7168 30.4087 81.1351C31.2615 81.5566 31.7609 82.7823 31.7609 82.7823L31.4788 83.2201L29.1409 81.0638Z" fill="#4E55A2"/>
<path d="M26.2519 82.2176C26.2519 82.2176 25.8303 82.1625 25.8692 81.8123C25.9049 81.4621 26.9231 80.6871 28.0969 80.726C29.2707 80.7649 31.2163 81.8188 31.4562 83.3201C31.6962 84.8214 30.8272 84.1891 30.8272 84.1891C30.8272 84.1891 30.8466 83.4628 30.5256 82.931C30.2078 82.396 29.3972 81.18 28.0612 81.2837C26.7674 81.381 26.2519 82.2176 26.2519 82.2176Z" fill="#1E2754"/>
<path d="M31.9037 83.9953C31.9102 83.8948 31.9199 83.7943 31.9296 83.697C31.9394 83.5997 31.9459 83.5025 31.9459 83.4117C31.9459 83.3663 31.9426 83.3209 31.9329 83.2787C31.9296 83.269 31.9296 83.2593 31.9264 83.2463L31.9167 83.2106C31.9102 83.1879 31.9037 83.1652 31.894 83.1425C31.8778 83.0971 31.8615 83.0517 31.8421 83.0096C31.8226 82.9642 31.7999 82.922 31.7708 82.8799C31.8161 82.9026 31.8551 82.9383 31.8907 82.9772C31.9232 83.0161 31.9556 83.0582 31.9815 83.1036C31.9945 83.1263 32.0075 83.149 32.0172 83.1717L32.0334 83.2074C32.0366 83.2204 32.0431 83.2333 32.0464 83.2463C32.0626 83.3014 32.0691 83.3533 32.0691 83.4052C32.0691 83.5122 32.0529 83.6127 32.0269 83.71C31.9945 83.8138 31.9556 83.911 31.9037 83.9953Z" fill="#1E2754"/>
<path d="M26.3329 82.0592C26.3167 82.0592 26.3005 82.0495 26.294 82.03L26.1286 81.5047C26.1222 81.482 26.1351 81.4626 26.1546 81.4529C26.1773 81.4464 26.1967 81.4593 26.2065 81.4788L26.3718 82.0041C26.3783 82.0268 26.3653 82.0463 26.3459 82.056C26.3427 82.0592 26.3394 82.0592 26.3329 82.0592Z" fill="#4E55A2"/>
<path d="M26.8711 81.5211C26.8516 81.5211 26.8322 81.5048 26.8322 81.4854L26.7868 81.0995C26.7835 81.0768 26.7998 81.0574 26.8225 81.0541C26.8452 81.0509 26.8646 81.0671 26.8679 81.0898L26.9133 81.4757C26.9165 81.4984 26.9003 81.5178 26.8776 81.5211C26.8743 81.5211 26.8743 81.5211 26.8711 81.5211Z" fill="#4E55A2"/>
<path d="M27.6461 81.3193C27.6267 81.3193 27.6072 81.3031 27.6072 81.2836L27.5683 80.8297C27.565 80.807 27.5813 80.7875 27.604 80.7875C27.6267 80.7843 27.6461 80.8005 27.6461 80.8232L27.685 81.2772C27.6883 81.2999 27.672 81.3193 27.6493 81.3193H27.6461Z" fill="#4E55A2"/>
<path d="M28.4244 81.2709C28.4212 81.2709 28.4212 81.2709 28.4179 81.2709C28.3952 81.2676 28.3823 81.2482 28.3855 81.2255L28.4439 80.8169C28.4471 80.7942 28.4666 80.7812 28.4893 80.7812C28.512 80.7845 28.5249 80.8039 28.5217 80.8266L28.4633 81.2352C28.4601 81.2547 28.4439 81.2709 28.4244 81.2709Z" fill="#4E55A2"/>
<path d="M29.2806 81.576C29.2741 81.576 29.2676 81.576 29.2612 81.5728C29.2417 81.563 29.2352 81.5371 29.2449 81.5176L29.4395 81.1545C29.4492 81.135 29.4752 81.1285 29.4946 81.1383C29.5141 81.148 29.5206 81.1739 29.5108 81.1934L29.3163 81.5566C29.3066 81.5695 29.2936 81.576 29.2806 81.576Z" fill="#4E55A2"/>
<path d="M29.9939 82.0655C29.9874 82.0655 29.9776 82.0623 29.9712 82.059C29.9517 82.0461 29.9485 82.0234 29.9582 82.0039L30.1819 81.657C30.1949 81.6375 30.2176 81.6343 30.2371 81.644C30.2565 81.657 30.2598 81.6797 30.25 81.6991L30.0263 82.0461C30.0198 82.059 30.0068 82.0655 29.9939 82.0655Z" fill="#4E55A2"/>
<path d="M30.5094 82.7039C30.4997 82.7039 30.4932 82.7007 30.4867 82.6975C30.4673 82.6845 30.4641 82.6585 30.477 82.6423L30.7559 82.2597C30.7689 82.2402 30.7948 82.237 30.811 82.25C30.8305 82.2629 30.8337 82.2889 30.8207 82.3051L30.5419 82.6877C30.5354 82.6975 30.5224 82.7039 30.5094 82.7039Z" fill="#4E55A2"/>
<path d="M30.8627 83.6705C30.8562 83.6705 30.8465 83.6673 30.84 83.6641C30.8206 83.6511 30.8141 83.6284 30.8271 83.6089L31.1935 83.0285C31.2064 83.0091 31.2291 83.0026 31.2486 83.0155C31.2681 83.0285 31.2745 83.0512 31.2616 83.0707L30.8952 83.6511C30.8887 83.6641 30.8757 83.6705 30.8627 83.6705Z" fill="#4E55A2"/>
<path d="M31.5469 82.8923C31.534 82.8923 31.521 82.8858 31.5113 82.8728C31.508 82.8663 31.2065 82.341 31.0508 82.1724C30.2531 81.3034 29.9873 81.0116 28.8394 80.723C27.8958 80.4863 27.0559 80.7781 27.0495 80.7814C27.03 80.7878 27.0041 80.7781 26.9976 80.7554C26.9911 80.736 27.0008 80.71 27.0235 80.7035C27.0332 80.7003 27.8925 80.402 28.8621 80.6452C30.0327 80.9402 30.305 81.2353 31.1124 82.1173C31.2746 82.2924 31.5696 82.8112 31.5826 82.8339C31.5923 82.8534 31.5859 82.8793 31.5664 82.889C31.5599 82.889 31.5534 82.8923 31.5469 82.8923Z" fill="#1E2754"/>
<path d="M29.3419 82.6687C29.29 82.7595 29.1116 82.753 28.9463 82.659C28.7809 82.5649 28.5183 82.3996 28.7582 82.2374C28.8587 82.1693 28.8912 82.3704 29.0565 82.4677C29.2219 82.5649 29.3938 82.5811 29.3419 82.6687Z" fill="#F4DED3"/>
<path d="M27.8601 81.8087C27.8276 81.8865 27.7239 81.7795 27.5358 81.7471C27.3607 81.7179 27.1824 81.7309 27.2667 81.5752C27.3056 81.5007 27.4547 81.4877 27.6201 81.5525C27.7855 81.6141 27.8925 81.7309 27.8601 81.8087Z" fill="#F4DED3"/>
<path d="M27.2666 84.8994C27.2666 84.8994 27.5455 85.081 27.9152 85.1264C28.2848 85.1685 28.5766 85.1361 28.5766 85.1361C28.5766 85.1361 28.528 85.4571 28.2589 85.5285C27.993 85.5998 27.7725 85.5868 27.5455 85.4766C27.2147 85.3177 27.2666 84.8994 27.2666 84.8994Z" fill="#5B1A19"/>
<path d="M27.3586 84.9502C27.3586 84.9502 27.3554 85.1675 27.3748 85.1901C27.4008 85.2161 27.5532 85.255 27.5532 85.255L27.4072 85.2712C27.4072 85.2712 27.3035 85.4723 27.7866 85.5695C27.9682 85.6052 28.1757 85.602 28.273 85.4333C28.3703 85.2647 28.3865 85.1448 28.3865 85.1448C28.3865 85.1448 28.0947 85.1545 27.8417 85.1156C27.5888 85.0734 27.3586 84.9502 27.3586 84.9502Z" fill="white"/>
<path d="M27.6038 85.25L27.6102 85.2986L27.9313 85.3505L27.6038 85.25Z" fill="#F3D9CD"/>
<path d="M28.074 85.7428C28.074 85.7428 28.3366 85.6261 28.4793 85.5482C28.5701 85.4996 28.6576 85.3115 28.6576 85.3115C28.6576 85.3115 28.5928 85.558 28.5182 85.5969C28.4469 85.639 28.074 85.7428 28.074 85.7428Z" fill="#E08D80"/>
<path d="M49.3746 78.7933H36.8549C36.6474 78.7933 36.4788 78.6247 36.4788 78.4172C36.4788 78.2096 36.6474 78.041 36.8549 78.041H49.3746C49.5821 78.041 49.7507 78.2096 49.7507 78.4172C49.7507 78.6247 49.5821 78.7933 49.3746 78.7933Z" fill="black"/>
<path d="M43.1164 81.1761H36.8549C36.6474 81.1761 36.4788 81.0075 36.4788 80.8C36.4788 80.5924 36.6474 80.4238 36.8549 80.4238H43.1164C43.3239 80.4238 43.4925 80.5924 43.4925 80.8C43.4925 81.0075 43.3239 81.1761 43.1164 81.1761Z" fill="black"/>
<path d="M29.786 89.675H23.4857C23.3819 89.675 23.2976 89.5907 23.2976 89.4869C23.2976 89.3831 23.3819 89.2988 23.4857 89.2988H29.7828C29.8866 89.2988 29.9709 89.3831 29.9709 89.4869C29.9741 89.5907 29.8898 89.675 29.786 89.675Z" fill="black"/>
<path d="M26.6377 91.4425H23.4891C23.3853 91.4425 23.301 91.3582 23.301 91.2545C23.301 91.1507 23.3853 91.0664 23.4891 91.0664H26.6377C26.7414 91.0664 26.8257 91.1507 26.8257 91.2545C26.8257 91.3582 26.7414 91.4425 26.6377 91.4425Z" fill="black"/>
<path d="M49.1316 89.675H41.5277C41.4239 89.675 41.3396 89.5907 41.3396 89.4869C41.3396 89.3831 41.4239 89.2988 41.5277 89.2988H49.1316C49.2353 89.2988 49.3196 89.3831 49.3196 89.4869C49.3196 89.5907 49.2353 89.675 49.1316 89.675Z" fill="black"/>
<path d="M49.4363 85.1418H36.8551C36.7513 85.1418 36.667 85.0575 36.667 84.9537C36.667 84.8499 36.7513 84.7656 36.8551 84.7656H49.4363C49.5401 84.7656 49.6244 84.8499 49.6244 84.9537C49.6244 85.0575 49.5401 85.1418 49.4363 85.1418Z" fill="black"/>
<path d="M45.328 91.4425H41.5277C41.4239 91.4425 41.3396 91.3582 41.3396 91.2545C41.3396 91.1507 41.4239 91.0664 41.5277 91.0664H45.328C45.4318 91.0664 45.5161 91.1507 45.5161 91.2545C45.5161 91.3582 45.4318 91.4425 45.328 91.4425Z" fill="black"/>
</svg>
