<svg width="24" height="24" viewBox="0 0 24 24" xmlns="http://www.w3.org/2000/svg">
<path fill-rule="evenodd" clip-rule="evenodd" d="M1.33997 19.9901H22.67C23.41 19.9901 24 19.3901 24 18.6601C24 17.9201 23.4 17.3301 22.67 17.3301H1.33997C0.599966 17.3301 0.00994873 17.9301 0.00994873 18.6601C-5.12693e-05 19.4001 0.599966 19.9901 1.33997 19.9901ZM1.33997 13.3301H22.67C23.41 13.3301 24 12.7301 24 12.0001C24 11.2601 23.4 10.6701 22.67 10.6701H1.33997C0.599966 10.6701 0.00994873 11.2701 0.00994873 12.0001C-5.12693e-05 12.7301 0.599966 13.3301 1.33997 13.3301ZM0 5.33013C0 6.07013 0.599956 6.66013 1.32996 6.66013H22.66C23.4 6.66013 23.99 6.06013 23.99 5.33013C23.99 4.59013 23.39 4.00012 22.66 4.00012H1.32996C0.599956 3.99012 0 4.59013 0 5.33013Z" fill="black"/>
</svg>
