<svg width="22" height="20" viewBox="0 0 22 20" fill="none" xmlns="http://www.w3.org/2000/svg">
<path d="M21.1275 10.6654C21.3347 10.2464 21.3347 9.75475 21.1275 9.33575C20.9451 8.96681 20.6249 8.77335 20.4591 8.68004C20.2806 8.57956 20.0517 8.47663 19.8236 8.374L3.03979 0.821339C2.80636 0.716251 2.57364 0.611481 2.37733 0.54348C2.1971 0.481049 1.83423 0.366981 1.43247 0.47877C0.978451 0.6051 0.610198 0.937457 0.438128 1.37619C0.285863 1.76442 0.362246 2.13705 0.40593 2.32272C0.453519 2.52497 0.533965 2.76721 0.614657 3.01019L2.23914 7.90451C2.36993 8.29858 2.43533 8.49562 2.55695 8.64131C2.66434 8.76996 2.80234 8.86956 2.95827 8.93096C3.13486 9.00049 3.34246 9.00049 3.75768 9.00049H11.0014C11.5537 9.00049 12.0014 9.4482 12.0014 10.0005C12.0014 10.5528 11.5537 11.0005 11.0014 11.0005H3.77658C3.36242 11.0005 3.15534 11.0005 2.97907 11.0697C2.82342 11.1309 2.68558 11.2301 2.57818 11.3583C2.45656 11.5035 2.39082 11.6998 2.25935 12.0926L0.621794 16.9841C0.54023 17.2276 0.458982 17.4702 0.41078 17.6727C0.366592 17.8583 0.288935 18.2316 0.440784 18.6208C0.612263 19.0604 0.980553 19.3936 1.435 19.5205C1.83742 19.6328 2.20112 19.5183 2.3814 19.4558C2.57811 19.3877 2.8114 19.2827 3.0456 19.1772L19.8235 11.6272C20.0517 11.5245 20.2806 11.4216 20.4591 11.3211C20.6249 11.2278 20.9451 11.0343 21.1275 10.6654Z" fill="#007AFF"/>
</svg>
