<svg width="24" height="24" viewBox="0 0 24 24" fill="none" xmlns="http://www.w3.org/2000/svg">
<path d="M16.9999 16.5715C16.068 16.5715 15.6021 16.5715 15.2345 16.4192C14.7445 16.2163 14.3551 15.8269 14.1521 15.3368C13.9999 14.9693 13.9999 14.5034 13.9999 13.5715V10.4286C13.9999 9.49674 13.9999 9.0308 14.1521 8.66326C14.3551 8.1732 14.7445 7.78385 15.2345 7.58086C15.6021 7.42862 16.068 7.42862 16.9999 7.42862M16.9999 16.5715C17.9318 16.5715 18.3977 16.5715 18.7652 16.4192C19.2553 16.2163 19.6446 15.8269 19.8476 15.3368C19.9999 14.9693 19.9999 14.5034 19.9999 13.5715V10.4286C19.9999 9.49674 19.9999 9.0308 19.8476 8.66326C19.6446 8.1732 19.2553 7.78385 18.7652 7.58086C18.3977 7.42862 17.9318 7.42862 16.9999 7.42862M16.9999 16.5715L17 19.5M16.9999 7.42862V4.5M6.99988 18.8572C6.068 18.8572 5.60205 18.8572 5.23451 18.705C4.74445 18.502 4.35511 18.1126 4.15212 17.6226C3.99988 17.255 3.99988 16.7891 3.99988 15.8572L3.99988 8.14291C3.99988 7.21103 3.99988 6.74508 4.15212 6.37754C4.35511 5.88749 4.74445 5.49814 5.23451 5.29515C5.60205 5.14291 6.068 5.14291 6.99988 5.14291M6.99988 18.8572C7.93176 18.8572 8.3977 18.8572 8.76525 18.705C9.2553 18.502 9.64465 18.1126 9.84764 17.6226C9.99988 17.255 9.99988 16.7891 9.99988 15.8572V8.14291C9.99988 7.21103 9.99988 6.74508 9.84764 6.37754C9.64465 5.88749 9.2553 5.49814 8.76525 5.29515C8.3977 5.14291 7.93176 5.14291 6.99988 5.14291M6.99988 18.8572L7 22M6.99988 5.14291L7 2" stroke="black" stroke-width="2" stroke-linecap="round"/>
</svg>
