<svg width="53" height="50" viewBox="0 0 53 50" fill="none" xmlns="http://www.w3.org/2000/svg">
<path d="M27.6368 24.2634C30.6841 23.5439 32.571 20.4903 31.8515 17.4431C31.132 14.3958 28.0784 12.5089 25.0312 13.2284C21.9839 13.948 20.097 17.0015 20.8165 20.0487C21.536 23.096 24.5896 24.9829 27.6368 24.2634Z" fill="#6d7177"/>
<path d="M28.0166 25.9297H24.9825C19.3909 25.9297 14.8495 30.4516 14.8301 36.0433H38.1691C38.1496 30.4516 33.618 25.9297 28.0166 25.9297ZM30.5742 29.8876L26.2176 34.2345C26.0328 34.429 25.78 34.5165 25.5271 34.5165C25.284 34.5165 25.0409 34.429 24.8561 34.2442L22.4444 31.9297C22.0554 31.5602 22.0457 30.9476 22.4153 30.5586C22.7848 30.1696 23.4072 30.1599 23.7864 30.5294L25.5077 32.1826L29.1835 28.5067C29.5628 28.1275 30.1755 28.1275 30.5547 28.5067C30.9534 28.886 30.9534 29.5083 30.5742 29.8876Z" fill="#6d7177"/>
<path d="M13.75 0.796875H9C4.58172 0.796875 1 4.3786 1 8.79688V12.8986M39.25 0.796875H44C48.4183 0.796875 52 4.3786 52 8.79687V12.8986M52 37.102V41.2037C52 45.6219 48.4183 49.2037 44 49.2037H39.25M13.75 49.2037H9C4.58172 49.2037 1 45.6219 1 41.2037V37.102" stroke="#6d7177"/>
</svg>
