<svg width="196" height="100" viewBox="0 0 196 100" fill="none" xmlns="http://www.w3.org/2000/svg">
<path d="M154.453 85.1965L107.947 4.62263C104.361 -1.54088 95.3956 -1.54088 91.8096 4.62263L45.3031 85.1965C41.7171 91.36 46.1996 99.0924 53.3717 99.0924H146.385C153.557 99.2045 157.927 91.36 154.453 85.1965ZM94.9474 33.7592C94.9474 31.1817 97.0766 29.1646 99.542 29.1646C102.007 29.1646 104.137 31.2938 104.137 33.7592V55.4996C104.137 58.0771 102.007 60.0942 99.542 60.0942C97.0766 60.0942 94.9474 57.965 94.9474 55.4996V33.7592ZM99.542 81.6105C95.956 81.6105 93.1544 78.6968 93.1544 75.2228C93.1544 71.6368 96.068 68.8352 99.542 68.8352C103.128 68.8352 105.93 71.7488 105.93 75.2228C106.042 78.6968 103.128 81.6105 99.542 81.6105Z" fill="#747D88"/>
<path d="M192.667 68.9468H170.254C169.021 68.9468 167.9 68.2744 167.34 67.2658C166.78 66.2573 166.78 64.9125 167.34 63.9039L178.547 44.5169C179.107 43.5083 180.228 42.8359 181.46 42.8359C182.693 42.8359 183.814 43.5083 184.374 44.5169L195.58 63.9039C196.141 64.9125 196.141 66.2573 195.58 67.2658C194.908 68.2744 193.899 68.9468 192.667 68.9468ZM180.452 45.5255L169.245 64.9125C168.909 65.4728 169.133 65.809 169.245 66.0331C169.357 66.2573 169.581 66.5935 170.254 66.5935H192.667C193.227 66.5935 193.563 66.2573 193.675 66.0331C193.787 65.809 194.011 65.4728 193.675 64.9125L182.469 45.5255C182.133 44.9651 181.684 44.9651 181.46 44.9651C181.236 44.9651 180.676 45.0772 180.452 45.5255Z" fill="#747D88"/>
<path d="M181.347 63.5665C182.244 63.5665 182.916 62.8941 182.916 61.9976C182.916 61.1011 182.244 60.4287 181.347 60.4287C180.451 60.4287 179.778 61.1011 179.778 61.9976C179.778 62.8941 180.451 63.5665 181.347 63.5665Z" fill="#747D88"/>
<path d="M181.348 58.2993C180.676 58.2993 180.228 57.851 180.228 57.1787V51.9117C180.228 51.2393 180.676 50.791 181.348 50.791C182.021 50.791 182.469 51.2393 182.469 51.9117V57.1787C182.469 57.851 182.021 58.2993 181.348 58.2993Z" fill="#747D88"/>
<path d="M19.9757 67.6021H3.05403C2.15752 67.6021 1.26101 67.1539 0.812754 66.3694C0.364499 65.585 0.364499 64.5764 0.812754 63.792L9.3296 49.1116C9.77786 48.3272 10.5623 47.8789 11.5709 47.8789C12.4674 47.8789 13.3639 48.3272 13.8122 49.1116L22.329 63.792C22.7773 64.5764 22.7773 65.585 22.329 66.3694C21.6566 67.1539 20.8722 67.6021 19.9757 67.6021ZM10.7864 50.0081L2.26958 64.6885C2.04546 65.0247 2.15752 65.3609 2.26958 65.585C2.38165 65.697 2.60577 66.0332 3.05403 66.0332H19.9757C20.4239 66.0332 20.648 65.697 20.7601 65.585C20.8722 65.4729 20.9842 65.1367 20.7601 64.6885L12.2433 50.0081C12.0191 49.6719 11.6829 49.5599 11.4588 49.5599C11.3468 49.5599 11.0106 49.5599 10.7864 50.0081Z" fill="#747D88"/>
<path d="M11.4582 63.5694C12.1306 63.5694 12.5789 63.0091 12.5789 62.4488C12.5789 61.7764 12.0185 61.3281 11.4582 61.3281C10.7858 61.3281 10.3376 61.8884 10.3376 62.4488C10.2255 63.0091 10.7858 63.5694 11.4582 63.5694Z" fill="#747D88"/>
<path d="M11.458 59.6469C11.0098 59.6469 10.5615 59.3107 10.5615 58.7504V54.8282C10.5615 54.3799 10.8977 53.9316 11.458 53.9316C12.0184 53.9316 12.3545 54.2678 12.3545 54.8282V58.7504C12.2425 59.3107 11.9063 59.6469 11.458 59.6469Z" fill="#747D88"/>
<path d="M57.6293 28.9407H43.6213C42.8369 28.9407 42.1645 28.4924 41.8283 27.9321C41.4921 27.2597 41.4921 26.4753 41.8283 25.8029L48.8883 13.7C49.2245 13.0276 49.8969 12.6914 50.6814 12.6914C51.4658 12.6914 52.1382 13.1397 52.4744 13.7L59.4223 25.8029C59.7585 26.4753 59.7585 27.2597 59.4223 27.9321C58.9741 28.6045 58.3017 28.9407 57.6293 28.9407ZM50.009 14.3724L42.949 26.4753C42.7248 26.8114 42.8369 27.0356 42.949 27.1476C43.061 27.2597 43.1731 27.4838 43.5093 27.4838H57.6293C57.9655 27.4838 58.1896 27.2597 58.1896 27.1476C58.3017 27.0356 58.4138 26.8114 58.1896 26.4753L51.1296 14.3724C50.9055 14.0362 50.6814 14.0362 50.5693 14.0362C50.4572 14.0362 50.121 14.0362 50.009 14.3724Z" fill="#747D88"/>
<path d="M50.5701 25.5796C51.1304 25.5796 51.5787 25.1314 51.5787 24.5711C51.5787 24.0108 51.1304 23.5625 50.5701 23.5625C50.0098 23.5625 49.5615 24.0108 49.5615 24.5711C49.5615 25.2435 50.0098 25.5796 50.5701 25.5796Z" fill="#747D88"/>
<path d="M50.5689 22.329C50.2327 22.329 49.8965 21.9928 49.8965 21.6566V18.4068C49.8965 18.0706 50.2327 17.7344 50.5689 17.7344C50.9051 17.7344 51.2413 18.0706 51.2413 18.4068V21.6566C51.2413 22.1049 50.9051 22.329 50.5689 22.329Z" fill="#747D88"/>
</svg>
