<svg width="245" height="161" viewBox="0 0 245 161" fill="none" xmlns="http://www.w3.org/2000/svg">
<path d="M107.642 160.739H158.909C158.782 158.85 158.643 156.928 158.494 154.978C155.733 117.973 160.151 96.4321 128.945 96.4321C108.78 96.4321 107.134 122.225 107.681 154.978C107.714 156.933 107.697 158.85 107.642 160.739Z" fill="#EA5045"/>
<path d="M108.929 139.706L86.5434 135.26L84.5496 138.502L115.767 155.011L108.929 139.706Z" fill="#EA5045"/>
<path d="M87.1955 135.746L82.5063 132.532C82.5063 132.532 80.7775 129.074 79.7889 129.566C78.8002 130.057 81.2691 133.764 81.2691 133.764C81.2691 133.764 78.0822 129.036 77.0714 130.306C76.0607 131.576 80.529 134.752 80.529 134.752C80.529 134.752 78.0601 133.515 77.8115 134.255C77.3145 135.735 85.1243 138.801 85.1243 138.801L87.1955 135.746Z" fill="black"/>
<path d="M85.3837 134.504C85.3837 134.504 85.472 132.289 84.9805 131.3C84.4889 130.312 83.0032 131.052 83.5003 132.04C83.7488 132.532 83.7488 133.769 83.9918 134.266C84.2348 134.758 85.3837 134.504 85.3837 134.504Z" fill="black"/>
<path d="M148.696 160.739L144.686 117.973L115.413 115.211L110.619 160.739H148.696Z" fill="#FAA9A4"/>
<path d="M175.744 60.2222C175.744 60.2222 200.841 79.2496 192.335 93.3779C183.83 107.506 183.344 89.705 183.344 89.705L167.58 89.9867L175.744 60.2222Z" fill="#4E55A2"/>
<path d="M164.327 96.2169C159.92 113.759 141.378 124.22 122.92 119.58C104.461 114.941 93.3484 97.0288 97.4742 79.4209C101.655 61.5809 120.423 51.4182 138.882 56.0577C157.34 60.6972 168.735 78.6752 164.327 96.2169Z" fill="#EA5045"/>
<path d="M120.985 85.0525C122.68 79.1821 120.526 73.4045 116.173 72.148C111.821 70.8914 106.919 74.6316 105.224 80.502C103.529 86.3724 105.683 92.15 110.036 93.4066C114.388 94.6631 119.29 90.9229 120.985 85.0525Z" fill="white"/>
<path d="M149.166 55.2569C149.166 55.2569 156.998 39.8251 167.249 27.3702C177.5 14.9154 192.771 1.35596 192.771 1.35596C192.771 1.35596 199.642 11.7838 192.357 34.4731C185.072 57.1624 175.926 80.9674 172.568 88.0315C169.209 95.0957 168.11 98.5974 168.11 98.5974C168.11 98.5974 171.087 81.3319 163.471 70.7163C155.854 60.1007 149.166 55.2569 149.166 55.2569Z" fill="#EA5045"/>
<path d="M115.579 83.846C116.759 81.1961 115.753 78.1737 113.332 77.0953C110.91 76.017 107.99 77.2911 106.81 79.941C105.63 82.591 106.637 85.6134 109.058 86.6918C111.48 87.7701 114.399 86.496 115.579 83.846Z" fill="#4E55A2"/>
<path d="M149.735 93.7522C151.305 87.5043 148.074 81.3077 142.518 79.9116C136.963 78.5156 131.186 82.4487 129.616 88.6966C128.046 94.9444 131.277 101.141 136.833 102.537C142.388 103.933 148.165 100 149.735 93.7522Z" fill="white"/>
<path d="M143.053 91.7323C143.797 88.7711 141.758 85.7064 138.498 84.8872C135.238 84.068 131.992 85.8045 131.248 88.7657C130.504 91.7269 132.543 94.7915 135.803 95.6107C139.063 96.4299 142.309 94.6935 143.053 91.7323Z" fill="#4E55A2"/>
<path d="M156.965 93.234C156.744 93.234 156.517 93.1788 156.313 93.0683C156.081 92.9413 133.105 80.5804 122.947 77.758C112.68 74.9081 98.7778 71.9697 98.6398 71.9366C97.8941 71.7764 97.4136 71.0473 97.5738 70.3017C97.734 69.5561 98.463 69.0811 99.2086 69.2357C99.3467 69.2633 113.337 72.2238 123.687 75.0958C134.143 78.0011 156.672 90.119 157.628 90.6326C158.296 90.9971 158.55 91.8311 158.185 92.505C157.937 92.9745 157.456 93.234 156.965 93.234Z" fill="#4E55A2"/>
<path d="M140.517 107.401C138.517 107.401 136.38 106.932 134.115 105.987C121.755 100.84 124.129 91.3452 126.057 83.7066C124.709 87.7495 122.909 91.6434 119.606 94.289C116.463 96.8131 112.072 97.625 108.14 96.421C104.086 95.1783 101.114 92.0797 99.7667 87.7109C97.9992 81.9557 100.711 71.3291 100.827 70.8817C101.02 70.1416 101.772 69.6997 102.512 69.893C103.252 70.0808 103.694 70.8375 103.5 71.5776C103.473 71.6826 100.866 81.895 102.407 86.9045C103.473 90.3786 105.798 92.8199 108.952 93.7919C112.017 94.7364 115.436 94.1012 117.877 92.146C121.335 89.3734 122.948 84.651 124.301 80.0557C124.665 78.813 125.886 78.1668 127.206 78.5092C128.559 78.8627 129.736 80.1883 129.365 81.8011C129.172 82.6351 128.957 83.4912 128.736 84.3638C126.808 92.0024 124.991 99.2102 135.17 103.446C138.937 105.015 142.196 105.037 144.853 103.518C150.834 100.094 152.276 90.0748 152.292 89.9754C152.397 89.2187 153.093 88.6885 153.85 88.7934C154.607 88.8984 155.131 89.5943 155.032 90.351C154.966 90.8149 153.38 101.823 146.228 105.915C144.482 106.898 142.571 107.401 140.517 107.401Z" fill="#4E55A2"/>
<path d="M145.41 117.923C145.41 117.923 133.668 105.656 119.037 101.977C104.406 98.2989 97.7557 93.803 93.768 89.9699C89.7802 86.1368 88.9462 86.6394 90.1061 90.467C91.266 94.2946 92.4203 100.95 102.395 109.113C112.365 117.277 120.097 118.867 120.097 118.867C120.097 118.867 129.625 122.021 135.065 121.215C140.505 120.408 145.41 117.923 145.41 117.923Z" fill="#FAA9A4"/>
<path d="M93.6135 99.3543C93.6135 99.3543 93.4202 99.7906 96.5795 98.4595C99.7443 97.134 100.181 94.8032 100.181 94.8032C100.181 94.8032 95.4251 91.8041 93.7626 89.9704C92.1002 88.1367 90.4377 86.3085 89.1894 87.0541C88.5985 87.4076 89.206 90.832 89.8467 92.8756C90.4874 94.9191 93.6135 99.3543 93.6135 99.3543Z" fill="#5B1A19"/>
<g opacity="0.36">
<path opacity="0.36" d="M190.883 7.46484C190.883 7.46484 172.64 25.4429 166.061 35.1306C159.483 44.8183 151.624 57.1516 151.624 57.1516L157.865 64.9061L159.643 61.2884L159.627 67.0326L162.748 67.0712L161.599 68.3968L163.129 69.75L161.693 70.8878L167.243 80.7356C167.243 80.7356 171.833 85.1763 177.605 67.0547C183.377 48.933 190.883 7.46484 190.883 7.46484Z" fill="#FAA9A4"/>
</g>
<path d="M134.397 54.9256C134.397 54.9256 125.438 37.1133 120.456 28.7953C115.474 20.4719 108.846 1.83105 107.847 0.168568C106.847 -1.49391 102.014 9.30947 100.164 25.1113C98.3137 40.9132 100.462 54.8869 101.285 60.0456C102.108 65.2042 103.771 67.0324 103.771 67.0324C103.771 67.0324 115.59 59.3938 119.418 58.234C123.251 57.0741 134.397 54.9256 134.397 54.9256Z" fill="#EA5045"/>
<g opacity="0.36">
<path opacity="0.36" d="M121.986 55.8865C121.986 55.8865 109.818 20.4662 107.996 13.6396C106.173 6.81289 106.013 4.65332 106.013 4.65332C106.013 4.65332 101.335 20.4497 101.152 32.424C100.97 44.3983 104.588 66.0713 104.588 66.0713L113.37 59.1563L110.94 58.2173L114.104 56.8917L113.773 55.395L117.098 56.229L121.986 55.8865Z" fill="#FAA9A4"/>
</g>
<path d="M114.502 82.4312C115.939 82.4312 117.104 81.3555 117.104 80.0286C117.104 78.7016 115.939 77.626 114.502 77.626C113.066 77.626 111.901 78.7016 111.901 80.0286C111.901 81.3555 113.066 82.4312 114.502 82.4312Z" fill="white"/>
<path d="M144.245 89.7637C144.704 87.9355 143.444 86.0431 141.429 85.5368C139.414 85.0306 137.409 86.1023 136.95 87.9305C136.49 89.7587 137.751 91.6511 139.765 92.1574C141.78 92.6636 143.786 91.5919 144.245 89.7637Z" fill="white"/>
<path d="M124.803 74.2349L121.969 79.8906L130.613 82.0612L130.127 75.5715L124.803 74.2349Z" fill="#F47B2B"/>
<path d="M180.426 96.9315C185.83 95.171 188.688 89.072 186.81 83.3091C184.932 77.5462 179.03 74.3017 173.626 76.0622C168.223 77.8228 165.365 83.9217 167.243 89.6846C169.121 95.4475 175.023 98.6921 180.426 96.9315Z" fill="#4E55A2"/>
<path d="M102.87 57.9631C102.87 57.9631 108.377 38.7423 131.342 37.5383C149.972 36.5607 157.815 40.2667 157.815 40.2667L148.624 56.9799C148.624 56.9799 139.809 51.6887 130.492 52.1747C121.174 52.6608 102.87 57.9631 102.87 57.9631Z" fill="#4E55A2"/>
<path d="M141.395 53.8153C141.395 53.8153 147.083 49.0322 158.831 54.8095C170.579 60.5868 177.439 77.4767 177.439 77.4767L173.54 83.5025L141.395 53.8153Z" fill="#4E55A2"/>
<path d="M101.661 69.6948C101.661 69.6948 95.8726 68.9326 96.3752 64.1108C96.8778 59.289 110.868 48.6569 127.001 49.1761C143.135 49.6952 169.9 64.1992 173.203 84.8283C176.506 105.457 164.537 96.7971 164.537 96.7971C164.537 96.7971 164.791 86.8332 160.4 79.4929C156.009 72.1526 144.908 55.4118 126.493 56.8312C108.764 58.1955 101.661 69.6948 101.661 69.6948Z" fill="#1E2754"/>
<path d="M179.361 94.1571C179.438 92.7542 179.588 91.4066 179.715 90.0699C179.836 88.7389 179.952 87.4188 179.941 86.1374C179.936 85.5023 179.897 84.8726 179.781 84.2872C179.759 84.138 179.715 83.9999 179.681 83.8563L179.538 83.3869C179.438 83.072 179.345 82.7572 179.229 82.4534C179.013 81.8348 178.787 81.2107 178.505 80.6087C178.234 80.0011 177.931 79.4046 177.533 78.8247C178.174 79.1395 178.693 79.6477 179.173 80.1724C179.637 80.7136 180.052 81.2991 180.4 81.9177C180.571 82.227 180.736 82.5418 180.886 82.8677L181.101 83.3537C181.167 83.536 181.239 83.7238 181.289 83.906C181.51 84.6462 181.581 85.3863 181.593 86.1098C181.615 87.5624 181.366 88.9598 180.99 90.3019C180.609 91.6551 180.107 92.9586 179.361 94.1571Z" fill="#1E2754"/>
<path d="M102.799 67.5463C102.561 67.5463 102.346 67.3972 102.274 67.1597L100.02 59.9354C99.932 59.6426 100.092 59.3333 100.385 59.245C100.678 59.1566 100.987 59.3168 101.075 59.6095L103.329 66.8338C103.417 67.1266 103.257 67.4359 102.964 67.5242C102.903 67.5353 102.848 67.5463 102.799 67.5463Z" fill="#4E55A2"/>
<path d="M110.178 60.101C109.901 60.101 109.664 59.8967 109.631 59.615L108.99 54.2961C108.951 53.9924 109.167 53.7162 109.471 53.6831C109.774 53.6499 110.051 53.8653 110.084 54.1636L110.724 59.4824C110.763 59.7862 110.548 60.0623 110.244 60.0955C110.222 60.101 110.2 60.101 110.178 60.101Z" fill="#4E55A2"/>
<path d="M120.837 57.3724C120.556 57.3724 120.313 57.157 120.285 56.8698L119.733 50.6452C119.705 50.3414 119.932 50.0708 120.235 50.0487C120.539 50.0211 120.81 50.2475 120.832 50.5513L121.384 56.7759C121.412 57.0797 121.185 57.3503 120.882 57.3724C120.871 57.3724 120.854 57.3724 120.837 57.3724Z" fill="#4E55A2"/>
<path d="M131.514 56.6877C131.486 56.6877 131.458 56.6877 131.436 56.6822C131.133 56.638 130.923 56.3563 130.967 56.0581L131.779 50.441C131.823 50.1372 132.105 49.9328 132.403 49.9715C132.707 50.0157 132.917 50.2974 132.872 50.5956L132.06 56.2127C132.022 56.4889 131.784 56.6877 131.514 56.6877Z" fill="#4E55A2"/>
<path d="M143.289 60.8961C143.201 60.8961 143.112 60.874 143.03 60.8298C142.759 60.6862 142.66 60.3493 142.803 60.0842L145.471 55.0968C145.614 54.8261 145.951 54.7267 146.217 54.8703C146.487 55.0139 146.587 55.3508 146.443 55.6159L143.775 60.6034C143.676 60.7912 143.483 60.8961 143.289 60.8961Z" fill="#4E55A2"/>
<path d="M153.115 67.6231C153.01 67.6231 152.911 67.5955 152.817 67.5347C152.563 67.369 152.485 67.0266 152.651 66.7725L155.727 61.995C155.893 61.7409 156.236 61.6636 156.49 61.8293C156.744 61.995 156.821 62.3374 156.655 62.5915L153.579 67.369C153.48 67.5347 153.297 67.6231 153.115 67.6231Z" fill="#4E55A2"/>
<path d="M160.207 76.3942C160.096 76.3942 159.98 76.3611 159.881 76.2893C159.632 76.107 159.583 75.7646 159.759 75.516L163.593 70.2745C163.775 70.026 164.117 69.9763 164.366 70.153C164.614 70.3353 164.664 70.6777 164.487 70.9263L160.654 76.1678C160.544 76.3169 160.378 76.3942 160.207 76.3942Z" fill="#4E55A2"/>
<path d="M165.045 89.6998C164.946 89.6998 164.841 89.6722 164.752 89.617C164.493 89.4568 164.415 89.1144 164.575 88.8548L169.596 80.8572C169.756 80.5976 170.099 80.5203 170.358 80.6804C170.618 80.8406 170.695 81.1831 170.535 81.4426L165.514 89.4402C165.409 89.6059 165.227 89.6998 165.045 89.6998Z" fill="#4E55A2"/>
<path d="M174.457 78.9792C174.263 78.9792 174.081 78.8798 173.976 78.703C173.932 78.6312 169.79 71.3903 167.658 69.065C156.705 57.1239 153.021 53.103 137.264 49.1429C124.29 45.8842 112.746 49.8885 112.63 49.9272C112.343 50.0266 112.028 49.8774 111.923 49.5902C111.818 49.303 111.973 48.9882 112.26 48.8833C112.376 48.8391 124.223 44.7188 137.534 48.0658C153.612 52.1033 157.357 56.1905 168.47 68.3084C170.684 70.722 174.761 77.8414 174.937 78.1452C175.086 78.4103 174.998 78.7472 174.733 78.8963C174.645 78.9571 174.551 78.9792 174.457 78.9792Z" fill="#1E2754"/>
<path d="M144.151 75.9246C143.438 77.1618 141.003 77.0955 138.716 75.7755C136.429 74.4554 132.834 72.2075 136.137 69.9982C137.529 69.0703 137.965 71.8264 140.251 73.1464C142.538 74.4609 144.863 74.6874 144.151 75.9246Z" fill="#F4DED3"/>
<path d="M123.798 64.0883C123.372 65.1598 121.947 63.6796 119.335 63.2322C116.932 62.8235 114.475 63.0003 115.651 60.8573C116.203 59.852 118.241 59.6477 120.489 60.5369C122.737 61.4262 124.223 63.0168 123.798 64.0883Z" fill="#F4DED3"/>
<path d="M115.607 106.557C115.607 106.557 119.429 109.07 124.51 109.672C129.592 110.274 133.59 109.788 133.59 109.788C133.59 109.788 132.905 114.201 129.238 115.189C125.571 116.178 122.572 115.996 119.412 114.488C114.922 112.339 115.607 106.557 115.607 106.557Z" fill="#5B1A19"/>
<path d="M116.916 107.303C116.916 107.303 116.855 110.28 117.148 110.589C117.507 110.965 119.584 111.489 119.584 111.489L117.584 111.732C117.584 111.732 116.159 114.477 122.82 115.836C125.317 116.344 128.15 116.272 129.492 113.942C130.834 111.616 131.072 109.954 131.072 109.954C131.072 109.954 127.073 110.092 123.582 109.54C120.092 108.987 116.916 107.303 116.916 107.303Z" fill="white"/>
<path d="M120.252 111.406L120.335 112.074L124.748 112.753L120.252 111.406Z" fill="#F3D9CD"/>
<path d="M126.703 118.178C126.703 118.178 130.293 116.592 132.276 115.499C133.502 114.819 134.75 112.246 134.75 112.246C134.75 112.246 133.839 115.626 132.85 116.173C131.862 116.725 126.703 118.178 126.703 118.178Z" fill="#E08D80"/>
<path d="M111.199 115.802L98.0925 138.215L108.896 141.734L111.199 115.802Z" fill="#EA5045"/>
<path d="M157.314 134.161L169.8 160.483H158.552L157.314 134.161Z" fill="#EA5045"/>
<path d="M86.1074 133.213H47.4615C43.6173 133.213 40.5 130.096 40.5 126.252V107.269C40.5 103.424 43.6173 100.307 47.4615 100.307H86.1074C89.9516 100.307 93.0689 103.424 93.0689 107.269V126.252C93.0689 130.096 89.9516 133.213 86.1074 133.213Z" fill="white" stroke="#00C853" stroke-width="3"/>
<path d="M63.5065 105.357H44.5288V123.562H63.5065V105.357Z" fill="#A1D7FF"/>
<path d="M53.0292 117.801C50.8476 117.801 50.4168 120.237 50.3892 123.556H50.9967L51.3557 120.127L54.9845 120.469L55.2717 123.556H56.6028C56.415 119.9 56.4536 117.801 53.0292 117.801Z" fill="#EA5045"/>
<path d="M51.35 120.131L50.991 123.556H55.2659L54.9787 120.474L51.35 120.131Z" fill="#FAA9A4"/>
<path d="M58.8285 113.316C58.8285 113.316 61.9381 115.675 60.8832 117.426C59.8282 119.177 59.7675 116.973 59.7675 116.973L57.8123 117.006L58.8285 113.316Z" fill="#4E55A2"/>
<path d="M57.4146 117.78C56.8678 119.95 54.5701 121.248 52.2835 120.674C49.9969 120.099 48.6216 117.879 49.1298 115.697C49.6489 113.488 51.9742 112.229 54.2608 112.803C56.5474 113.378 57.9558 115.603 57.4146 117.78Z" fill="#EA5045"/>
<path d="M52.0469 116.397C52.2568 115.67 51.9897 114.954 51.4505 114.799C50.9112 114.643 50.3039 115.106 50.0941 115.833C49.8842 116.56 50.1513 117.275 50.6905 117.431C51.2298 117.587 51.8371 117.124 52.0469 116.397Z" fill="white"/>
<path d="M55.531 112.703C55.531 112.703 56.5031 110.792 57.7734 109.251C59.0438 107.71 60.9327 106.026 60.9327 106.026C60.9327 106.026 61.7833 107.318 60.883 110.13C59.9827 112.941 58.8449 115.89 58.4307 116.763C58.0164 117.636 57.8784 118.072 57.8784 118.072C57.8784 118.072 58.2484 115.934 57.304 114.62C56.365 113.305 55.531 112.703 55.531 112.703Z" fill="#EA5045"/>
<path d="M51.3733 116.239C51.5197 115.91 51.3944 115.535 51.0935 115.401C50.7925 115.267 50.4299 115.424 50.2834 115.753C50.137 116.082 50.2623 116.457 50.5632 116.591C50.8642 116.725 51.2268 116.567 51.3733 116.239Z" fill="#4E55A2"/>
<path d="M55.6039 117.469C55.7986 116.694 55.3977 115.926 54.7085 115.752C54.0192 115.579 53.3025 116.067 53.1078 116.842C52.913 117.617 53.3139 118.386 54.0032 118.559C54.6924 118.732 55.4091 118.245 55.6039 117.469Z" fill="white"/>
<path d="M54.7762 117.221C54.8683 116.854 54.6145 116.474 54.2092 116.372C53.804 116.27 53.4007 116.485 53.3085 116.852C53.2163 117.219 53.4702 117.599 53.8754 117.701C54.2807 117.802 54.684 117.588 54.7762 117.221Z" fill="#4E55A2"/>
<path d="M56.4978 117.409C56.4701 117.409 56.4425 117.403 56.4149 117.387C56.3873 117.37 53.5373 115.84 52.2836 115.492C51.0132 115.139 49.29 114.774 49.2734 114.769C49.1795 114.746 49.1243 114.658 49.1409 114.564C49.163 114.47 49.2513 114.415 49.3452 114.432C49.3618 114.437 51.0961 114.802 52.3775 115.155C53.6699 115.514 56.4646 117.016 56.5806 117.083C56.6635 117.127 56.6966 117.232 56.6524 117.315C56.6193 117.375 56.564 117.409 56.4978 117.409Z" fill="#4E55A2"/>
<path d="M54.4596 119.159C54.2111 119.159 53.946 119.099 53.6643 118.983C52.1344 118.348 52.4271 117.171 52.6646 116.221C52.4989 116.724 52.2724 117.204 51.8637 117.53C51.4716 117.845 50.9303 117.944 50.4443 117.795C49.9416 117.641 49.5716 117.259 49.4059 116.718C49.185 116.006 49.5219 114.691 49.5385 114.636C49.5605 114.542 49.6544 114.487 49.7483 114.514C49.8422 114.537 49.8975 114.63 49.8698 114.724C49.8643 114.735 49.544 116 49.7373 116.624C49.8698 117.055 50.1571 117.359 50.5492 117.475C50.9303 117.591 51.3501 117.514 51.6538 117.271C52.0847 116.928 52.2835 116.343 52.4492 115.774C52.4934 115.619 52.648 115.542 52.8082 115.58C52.9739 115.625 53.123 115.79 53.0733 115.989C53.0512 116.094 53.0236 116.199 52.996 116.304C52.7585 117.248 52.532 118.143 53.7913 118.668C54.2553 118.861 54.664 118.867 54.9899 118.679C55.73 118.254 55.9122 117.016 55.9122 117C55.9233 116.906 56.0116 116.84 56.1055 116.856C56.1994 116.867 56.2657 116.956 56.2491 117.05C56.2436 117.105 56.0448 118.469 55.1611 118.977C54.9512 119.099 54.7192 119.159 54.4596 119.159Z" fill="#4E55A2"/>
<path d="M55.0673 120.463C55.0673 120.463 53.6147 118.944 51.7976 118.486C49.986 118.033 49.163 117.475 48.666 117C48.1744 116.525 48.0695 116.586 48.2131 117.061C48.3567 117.536 48.5003 118.359 49.7375 119.37C50.9747 120.38 51.9302 120.579 51.9302 120.579C51.9302 120.579 53.1121 120.971 53.786 120.872C54.4598 120.773 55.0673 120.463 55.0673 120.463Z" fill="#FAA9A4"/>
<path d="M48.6546 118.166C48.6546 118.166 48.6325 118.221 49.0247 118.055C49.4168 117.89 49.4721 117.602 49.4721 117.602C49.4721 117.602 48.8811 117.232 48.6767 117.006C48.4724 116.779 48.2625 116.553 48.1078 116.647C48.036 116.691 48.1078 117.116 48.1907 117.37C48.268 117.619 48.6546 118.166 48.6546 118.166Z" fill="#5B1A19"/>
<g opacity="0.36">
<g opacity="0.36">
<path opacity="0.36" d="M60.7011 106.782C60.7011 106.782 58.4422 109.008 57.6247 110.207C56.8073 111.405 55.8352 112.935 55.8352 112.935L56.6085 113.896L56.8294 113.449V114.161L57.216 114.167L57.0724 114.332L57.2602 114.498L57.0834 114.642L57.7683 115.862C57.7683 115.862 58.3372 116.415 59.0497 114.167C59.7622 111.919 60.7011 106.782 60.7011 106.782Z" fill="#FAA9A4"/>
</g>
</g>
<path d="M53.7032 112.659C53.7032 112.659 52.593 110.455 51.9744 109.422C51.3558 108.39 50.5384 106.081 50.4114 105.877C50.2898 105.672 49.6878 107.009 49.4614 108.964C49.2349 110.919 49.5 112.654 49.5994 113.294C49.6989 113.935 49.9087 114.161 49.9087 114.161C49.9087 114.161 51.3724 113.217 51.8474 113.073C52.3224 112.93 53.7032 112.659 53.7032 112.659Z" fill="#EA5045"/>
<g opacity="0.36">
<g opacity="0.36">
<path opacity="0.36" d="M52.1674 112.78C52.1674 112.78 50.6596 108.395 50.4332 107.544C50.2067 106.699 50.1846 106.429 50.1846 106.429C50.1846 106.429 49.6047 108.384 49.5826 109.87C49.5605 111.355 50.0079 114.04 50.0079 114.04L51.0959 113.184L50.7922 113.068L51.1843 112.902L51.1512 112.72L51.5654 112.825L52.1674 112.78Z" fill="#FAA9A4"/>
</g>
</g>
<path d="M51.2395 116.072C51.4165 116.072 51.5599 115.939 51.5599 115.774C51.5599 115.609 51.4165 115.476 51.2395 115.476C51.0626 115.476 50.9192 115.609 50.9192 115.774C50.9192 115.939 51.0626 116.072 51.2395 116.072Z" fill="white"/>
<path d="M54.9156 116.977C54.9729 116.749 54.8178 116.514 54.5693 116.451C54.3208 116.389 54.073 116.523 54.0158 116.751C53.9585 116.978 54.1136 117.214 54.362 117.276C54.6105 117.339 54.8584 117.205 54.9156 116.977Z" fill="white"/>
<path d="M52.5153 115.056L52.1619 115.752L53.2334 116.023L53.1726 115.222L52.5153 115.056Z" fill="#F47B2B"/>
<path d="M59.4075 117.866C60.0775 117.647 60.4321 116.892 60.1996 116.179C59.9672 115.465 59.2356 115.064 58.5656 115.282C57.8957 115.5 57.541 116.256 57.7735 116.969C58.0059 117.683 58.7375 118.084 59.4075 117.866Z" fill="#4E55A2"/>
<path d="M49.7979 113.04C49.7979 113.04 50.4827 110.66 53.3272 110.511C55.6359 110.389 56.608 110.848 56.608 110.848L55.4702 112.919C55.4702 112.919 54.3766 112.262 53.2222 112.322C52.0679 112.383 49.7979 113.04 49.7979 113.04Z" fill="#4E55A2"/>
<path d="M54.5698 112.526C54.5698 112.526 55.2768 111.935 56.7294 112.648C58.182 113.366 59.0326 115.454 59.0326 115.454L58.5521 116.199L54.5698 112.526Z" fill="#4E55A2"/>
<path d="M49.649 114.493C49.649 114.493 48.931 114.399 48.9972 113.802C49.058 113.206 50.7923 111.886 52.7917 111.952C54.7911 112.018 58.105 113.813 58.5137 116.371C58.9224 118.928 57.4422 117.851 57.4422 117.851C57.4422 117.851 57.4754 116.614 56.9286 115.708C56.3873 114.797 55.0065 112.725 52.7309 112.902C50.5272 113.068 49.649 114.493 49.649 114.493Z" fill="#1E2754"/>
<path d="M59.276 117.52C59.2871 117.348 59.3036 117.177 59.3202 117.011C59.3368 116.846 59.3478 116.68 59.3478 116.525C59.3478 116.448 59.3423 116.371 59.3257 116.299C59.3202 116.282 59.3202 116.266 59.3147 116.244L59.2981 116.183C59.2871 116.144 59.276 116.106 59.2594 116.067C59.2318 115.99 59.2042 115.912 59.1711 115.841C59.1379 115.763 59.0993 115.691 59.0496 115.62C59.1269 115.658 59.1932 115.719 59.2539 115.785C59.3092 115.852 59.3644 115.923 59.4086 116.001C59.4307 116.039 59.4528 116.078 59.4693 116.117L59.4969 116.177C59.5025 116.2 59.5135 116.222 59.519 116.244C59.5466 116.338 59.5577 116.426 59.5577 116.514C59.5577 116.697 59.5301 116.868 59.4859 117.034C59.4307 117.21 59.3644 117.376 59.276 117.52Z" fill="#1E2754"/>
<path d="M49.7871 114.222C49.7595 114.222 49.7319 114.206 49.7208 114.173L49.4392 113.278C49.4281 113.239 49.4502 113.206 49.4833 113.189C49.522 113.178 49.5551 113.2 49.5717 113.234L49.8534 114.128C49.8644 114.167 49.8423 114.2 49.8092 114.217C49.8037 114.222 49.7982 114.222 49.7871 114.222Z" fill="#4E55A2"/>
<path d="M50.7036 113.305C50.6705 113.305 50.6374 113.278 50.6374 113.245L50.56 112.587C50.5545 112.549 50.5821 112.516 50.6208 112.51C50.6594 112.504 50.6926 112.532 50.6981 112.571L50.7754 113.228C50.781 113.267 50.7533 113.3 50.7147 113.305C50.7092 113.305 50.7092 113.305 50.7036 113.305Z" fill="#4E55A2"/>
<path d="M52.0239 112.963C51.9907 112.963 51.9576 112.935 51.9576 112.902L51.8913 112.129C51.8858 112.09 51.9134 112.057 51.9521 112.057C51.9907 112.051 52.0239 112.079 52.0239 112.118L52.0902 112.891C52.0957 112.93 52.0681 112.963 52.0294 112.963H52.0239Z" fill="#4E55A2"/>
<path d="M53.3493 112.88C53.3438 112.88 53.3438 112.88 53.3383 112.88C53.2996 112.874 53.2775 112.841 53.2831 112.803L53.3825 112.107C53.388 112.068 53.4211 112.046 53.4598 112.046C53.4985 112.051 53.5206 112.085 53.515 112.123L53.4156 112.819C53.4101 112.852 53.3825 112.88 53.3493 112.88Z" fill="#4E55A2"/>
<path d="M54.8079 113.399C54.7968 113.399 54.7858 113.399 54.7747 113.394C54.7416 113.377 54.7305 113.333 54.7471 113.3L55.0785 112.681C55.0951 112.648 55.1393 112.637 55.1724 112.654C55.2055 112.67 55.2166 112.714 55.2 112.748L54.8686 113.366C54.8521 113.388 54.83 113.399 54.8079 113.399Z" fill="#4E55A2"/>
<path d="M56.0227 114.233C56.0116 114.233 55.9951 114.228 55.984 114.222C55.9509 114.2 55.9454 114.162 55.9619 114.128L56.343 113.537C56.3651 113.504 56.4038 113.499 56.4369 113.515C56.4701 113.537 56.4756 113.576 56.459 113.609L56.0779 114.2C56.0669 114.222 56.0448 114.233 56.0227 114.233Z" fill="#4E55A2"/>
<path d="M56.901 115.321C56.8844 115.321 56.8734 115.316 56.8623 115.31C56.8292 115.288 56.8237 115.244 56.8458 115.216L57.3208 114.564C57.3429 114.531 57.387 114.526 57.4147 114.548C57.4478 114.57 57.4533 114.614 57.4312 114.642L56.9562 115.294C56.9452 115.31 56.9231 115.321 56.901 115.321Z" fill="#4E55A2"/>
<path d="M57.5029 116.967C57.4919 116.967 57.4753 116.961 57.4643 116.956C57.4311 116.934 57.4201 116.895 57.4422 116.862L58.0663 115.873C58.0884 115.84 58.127 115.829 58.1602 115.851C58.1933 115.873 58.2044 115.912 58.1823 115.945L57.5581 116.934C57.5471 116.956 57.525 116.967 57.5029 116.967Z" fill="#4E55A2"/>
<path d="M58.6682 115.641C58.6461 115.641 58.624 115.63 58.6074 115.608C58.6019 115.597 58.0882 114.702 57.8231 114.415C56.4644 112.935 56.0115 112.438 54.0563 111.946C52.4491 111.543 51.0185 112.04 51.0075 112.046C50.9744 112.057 50.9302 112.04 50.9191 112.002C50.9081 111.968 50.9247 111.924 50.9633 111.913C50.9799 111.908 52.4435 111.4 54.095 111.814C56.0888 112.316 56.5528 112.819 57.9281 114.321C58.2042 114.62 58.7068 115.503 58.7289 115.542C58.7455 115.575 58.7345 115.619 58.7013 115.636C58.6903 115.636 58.6792 115.641 58.6682 115.641Z" fill="#1E2754"/>
<path d="M54.9126 115.261C54.8242 115.415 54.5205 115.404 54.2388 115.244C53.9571 115.084 53.5097 114.802 53.9184 114.526C54.0896 114.41 54.1449 114.752 54.4266 114.918C54.7082 115.084 55.001 115.111 54.9126 115.261Z" fill="#F4DED3"/>
<path d="M52.3885 113.797C52.3333 113.929 52.1566 113.747 51.8362 113.692C51.538 113.642 51.2342 113.664 51.3778 113.399C51.4441 113.272 51.6981 113.25 51.9798 113.36C52.2615 113.465 52.4438 113.664 52.3885 113.797Z" fill="#F4DED3"/>
<path d="M51.3776 119.06C51.3776 119.06 51.8526 119.369 52.4822 119.447C53.1119 119.518 53.609 119.463 53.609 119.463C53.609 119.463 53.5261 120.01 53.0677 120.132C52.6148 120.253 52.2392 120.231 51.8526 120.043C51.2892 119.773 51.3776 119.06 51.3776 119.06Z" fill="#5B1A19"/>
<path d="M51.5343 119.146C51.5343 119.146 51.5288 119.517 51.5619 119.555C51.6061 119.599 51.8657 119.666 51.8657 119.666L51.6171 119.693C51.6171 119.693 51.4404 120.036 52.2633 120.201C52.5726 120.262 52.9261 120.257 53.0918 119.969C53.2575 119.682 53.2851 119.478 53.2851 119.478C53.2851 119.478 52.788 119.494 52.3572 119.428C51.9264 119.356 51.5343 119.146 51.5343 119.146Z" fill="white"/>
<path d="M51.9521 119.657L51.9632 119.74L52.51 119.828L51.9521 119.657Z" fill="#F3D9CD"/>
<path d="M52.7532 120.496C52.7532 120.496 53.2006 120.297 53.4436 120.165C53.5982 120.082 53.7474 119.762 53.7474 119.762C53.7474 119.762 53.6369 120.181 53.5099 120.248C53.3883 120.32 52.7532 120.496 52.7532 120.496Z" fill="#E08D80"/>
<path d="M89.0349 108.66H67.7098C67.3563 108.66 67.0691 108.373 67.0691 108.02C67.0691 107.666 67.3563 107.379 67.7098 107.379H89.0349C89.3883 107.379 89.6756 107.666 89.6756 108.02C89.6756 108.373 89.3883 108.66 89.0349 108.66Z" fill="black"/>
<path d="M78.3751 112.719H67.7098C67.3563 112.719 67.0691 112.432 67.0691 112.079C67.0691 111.725 67.3563 111.438 67.7098 111.438H78.3751C78.7286 111.438 79.0158 111.725 79.0158 112.079C79.0158 112.432 78.7286 112.719 78.3751 112.719Z" fill="black"/>
<path d="M55.6691 127.196H44.9375C44.7608 127.196 44.6172 127.053 44.6172 126.876C44.6172 126.699 44.7608 126.556 44.9375 126.556H55.6636C55.8403 126.556 55.9839 126.699 55.9839 126.876C55.9895 127.053 55.8459 127.196 55.6691 127.196Z" fill="black"/>
<path d="M50.3062 130.206H44.9431C44.7664 130.206 44.6228 130.063 44.6228 129.886C44.6228 129.709 44.7664 129.565 44.9431 129.565H50.3062C50.4829 129.565 50.6265 129.709 50.6265 129.886C50.6265 130.063 50.4829 130.206 50.3062 130.206Z" fill="black"/>
<path d="M88.6206 127.196H75.6687C75.492 127.196 75.3484 127.053 75.3484 126.876C75.3484 126.699 75.492 126.556 75.6687 126.556H88.6206C88.7974 126.556 88.941 126.699 88.941 126.876C88.941 127.053 88.7974 127.196 88.6206 127.196Z" fill="black"/>
<path d="M89.14 119.475H67.71C67.5333 119.475 67.3896 119.331 67.3896 119.154C67.3896 118.978 67.5333 118.834 67.71 118.834H89.14C89.3168 118.834 89.4604 118.978 89.4604 119.154C89.4604 119.331 89.3168 119.475 89.14 119.475Z" fill="black"/>
<path d="M82.1419 130.206H75.6687C75.492 130.206 75.3484 130.063 75.3484 129.886C75.3484 129.709 75.492 129.565 75.6687 129.565H82.1419C82.3187 129.565 82.4623 129.709 82.4623 129.886C82.4623 130.063 82.3187 130.206 82.1419 130.206Z" fill="black"/>
<path fill-rule="evenodd" clip-rule="evenodd" d="M244.214 88.415L244.198 88.4L231.14 67.175C230.724 66.515 230.154 65.96 229.46 65.585C228.766 65.21 227.98 65 227.194 65C226.392 65 225.621 65.195 224.928 65.585C224.234 65.975 223.648 66.515 223.247 67.175L224.558 67.955L223.232 67.19L210.174 88.4L210.158 88.415C209.758 89.09 209.542 89.87 209.542 90.65C209.542 91.43 209.742 92.21 210.143 92.885C210.544 93.56 211.114 94.13 211.808 94.535C212.502 94.94 213.288 95.15 214.105 95.15H240.236H240.252C241.053 95.135 241.855 94.925 242.549 94.535C243.243 94.13 243.828 93.575 244.214 92.885C244.599 92.195 244.83 91.43 244.815 90.65C244.83 89.855 244.615 89.09 244.214 88.415ZM241.547 91.4C241.408 91.625 241.223 91.82 240.992 91.955C240.76 92.09 240.498 92.165 240.236 92.165H214.136C213.874 92.165 213.612 92.09 213.38 91.955C213.149 91.82 212.949 91.64 212.825 91.4C212.687 91.175 212.625 90.92 212.625 90.65C212.625 90.395 212.702 90.14 212.825 89.915L225.868 68.72C226.007 68.495 226.192 68.315 226.423 68.195C226.654 68.075 226.916 68 227.178 68C227.44 68 227.703 68.06 227.934 68.195C228.165 68.315 228.35 68.495 228.489 68.72L241.531 89.915C241.67 90.14 241.732 90.395 241.732 90.65C241.747 90.92 241.67 91.175 241.547 91.4Z" fill="#FBBC05"/>
<path fill-rule="evenodd" clip-rule="evenodd" d="M227.178 83.165C228.026 83.165 228.72 82.49 228.72 81.665V75.665C228.72 74.84 228.026 74.165 227.178 74.165C226.33 74.165 225.637 74.84 225.637 75.665V81.665C225.637 82.49 226.33 83.165 227.178 83.165Z" fill="#FBBC05"/>
<path fill-rule="evenodd" clip-rule="evenodd" d="M227.194 86.165H227.178C226.33 86.165 225.637 86.84 225.637 87.665C225.637 88.49 226.33 89.165 227.178 89.165H227.194C228.042 89.165 228.735 88.49 228.735 87.665C228.735 86.84 228.042 86.165 227.194 86.165Z" fill="#FBBC05"/>
<path fill-rule="evenodd" clip-rule="evenodd" d="M17.6175 86.2075L17.61 86.2L11.2575 75.5875C11.055 75.2575 10.7775 74.98 10.44 74.7925C10.1025 74.605 9.71999 74.5 9.33749 74.5C8.94749 74.5 8.57249 74.5975 8.23499 74.7925C7.89749 74.9875 7.61249 75.2575 7.41749 75.5875L8.05499 75.9775L7.40998 75.595L1.05748 86.2L1.05 86.2075C0.854995 86.545 0.75 86.935 0.75 87.325C0.75 87.715 0.847488 88.105 1.04249 88.4425C1.23749 88.78 1.51498 89.065 1.85248 89.2675C2.18998 89.47 2.57249 89.575 2.96999 89.575H15.6825H15.69C16.08 89.5675 16.47 89.4625 16.8075 89.2675C17.145 89.065 17.43 88.7875 17.6175 88.4425C17.805 88.0975 17.9175 87.715 17.91 87.325C17.9175 86.9275 17.8125 86.545 17.6175 86.2075ZM16.32 87.7C16.2525 87.8125 16.1625 87.91 16.05 87.9775C15.9375 88.045 15.81 88.0825 15.6825 88.0825H2.98499C2.85749 88.0825 2.72999 88.045 2.61749 87.9775C2.50499 87.91 2.40748 87.82 2.34748 87.7C2.27998 87.5875 2.25 87.46 2.25 87.325C2.25 87.1975 2.28748 87.07 2.34748 86.9575L8.6925 76.36C8.76 76.2475 8.84999 76.1575 8.96249 76.0975C9.07499 76.0375 9.20248 76 9.32998 76C9.45748 76 9.58499 76.03 9.69749 76.0975C9.80999 76.1575 9.89998 76.2475 9.96748 76.36L16.3125 86.9575C16.38 87.07 16.41 87.1975 16.41 87.325C16.4175 87.46 16.38 87.5875 16.32 87.7Z" fill="#FBBC05"/>
<path fill-rule="evenodd" clip-rule="evenodd" d="M9.33008 83.5825C9.74258 83.5825 10.0801 83.245 10.0801 82.8325V79.8325C10.0801 79.42 9.74258 79.0825 9.33008 79.0825C8.91758 79.0825 8.58008 79.42 8.58008 79.8325V82.8325C8.58008 83.245 8.91758 83.5825 9.33008 83.5825Z" fill="#FBBC05"/>
<path fill-rule="evenodd" clip-rule="evenodd" d="M9.33759 85.0825H9.33008C8.91758 85.0825 8.58008 85.42 8.58008 85.8325C8.58008 86.245 8.91758 86.5825 9.33008 86.5825H9.33759C9.75009 86.5825 10.0876 86.245 10.0876 85.8325C10.0876 85.42 9.75009 85.0825 9.33759 85.0825Z" fill="#FBBC05"/>
<path fill-rule="evenodd" clip-rule="evenodd" d="M65.4688 39.0773L65.4584 39.0665L56.6355 23.7373C56.3542 23.2607 55.9688 22.8598 55.5001 22.589C55.0313 22.3182 54.5001 22.1665 53.9688 22.1665C53.4271 22.1665 52.9063 22.3073 52.4376 22.589C51.9688 22.8707 51.573 23.2607 51.3021 23.7373L52.1876 24.3007L51.2917 23.7482L42.4688 39.0665L42.4584 39.0773C42.1876 39.5648 42.0417 40.1282 42.0417 40.6915C42.0417 41.2548 42.1771 41.8182 42.448 42.3057C42.7188 42.7932 43.1042 43.2048 43.573 43.4973C44.0417 43.7898 44.573 43.9415 45.1251 43.9415H62.7813H62.7917C63.3334 43.9307 63.8751 43.779 64.3438 43.4973C64.8126 43.2048 65.2084 42.804 65.4688 42.3057C65.7292 41.8073 65.8855 41.2548 65.8751 40.6915C65.8855 40.1173 65.7397 39.5648 65.4688 39.0773ZM63.6667 41.2332C63.573 41.3957 63.448 41.5365 63.2917 41.634C63.1355 41.7315 62.9584 41.7857 62.7813 41.7857H45.1459C44.9688 41.7857 44.7917 41.7315 44.6355 41.634C44.4792 41.5365 44.3438 41.4065 44.2605 41.2332C44.1667 41.0707 44.1251 40.8865 44.1251 40.6915C44.1251 40.5073 44.1771 40.3232 44.2605 40.1607L53.073 24.8532C53.1667 24.6907 53.2917 24.5607 53.448 24.474C53.6042 24.3873 53.7813 24.3332 53.9584 24.3332C54.1355 24.3332 54.3126 24.3765 54.4688 24.474C54.6251 24.5607 54.7501 24.6907 54.8438 24.8532L63.6563 40.1607C63.7501 40.3232 63.7917 40.5073 63.7917 40.6915C63.8021 40.8865 63.7501 41.0707 63.6667 41.2332Z" fill="#FBBC05"/>
<path fill-rule="evenodd" clip-rule="evenodd" d="M53.9584 35.2856C54.5313 35.2856 55.0001 34.7981 55.0001 34.2023V29.869C55.0001 29.2731 54.5313 28.7856 53.9584 28.7856C53.3855 28.7856 52.9167 29.2731 52.9167 29.869V34.2023C52.9167 34.7981 53.3855 35.2856 53.9584 35.2856Z" fill="#FBBC05"/>
<path fill-rule="evenodd" clip-rule="evenodd" d="M53.9688 37.4521H53.9584C53.3855 37.4521 52.9167 37.9396 52.9167 38.5355C52.9167 39.1313 53.3855 39.6188 53.9584 39.6188H53.9688C54.5418 39.6188 55.0105 39.1313 55.0105 38.5355C55.0105 37.9396 54.5418 37.4521 53.9688 37.4521Z" fill="#FBBC05"/>
</svg>
