<svg width="193" height="164" viewBox="0 0 193 164" fill="none" xmlns="http://www.w3.org/2000/svg">
<path d="M115.396 155.271C111.25 154.462 107.63 155.124 107.31 156.75C106.99 158.376 110.09 160.35 114.236 161.162C118.382 161.971 122.002 161.309 122.322 159.683C122.642 158.057 119.542 156.082 115.396 155.271Z" fill="white"/>
<path d="M117.634 163.164C116.419 163.164 115.146 163.031 113.919 162.79C109.518 161.932 105.06 159.575 105.678 156.431C105.85 155.561 106.59 154.019 109.621 153.465C111.347 153.149 113.513 153.213 115.718 153.642C120.12 154.501 124.577 156.858 123.96 160.001C123.512 162.27 120.776 163.164 117.634 163.164ZM109.056 157.09C109.523 157.689 111.339 158.902 114.556 159.53C117.773 160.159 119.914 159.716 120.576 159.339C120.109 158.741 118.293 157.528 115.076 156.899C111.859 156.273 109.718 156.714 109.056 157.09Z" fill="white"/>
<path d="M73.395 159.212C77.6197 159.212 81.0445 157.455 81.0445 155.288C81.0445 153.12 77.6197 151.363 73.395 151.363C69.1704 151.363 65.7456 153.12 65.7456 155.288C65.7456 157.455 69.1704 159.212 73.395 159.212Z" fill="white"/>
<path d="M73.3951 160.874C68.0841 160.874 64.0801 158.473 64.0801 155.287C64.0801 152.102 68.0841 149.701 73.3951 149.701C78.706 149.701 82.7101 152.102 82.7101 155.287C82.7101 158.473 78.706 160.874 73.3951 160.874ZM73.3951 153.024C69.6858 153.024 67.414 154.49 67.414 155.287C67.414 156.085 69.6858 157.55 73.3951 157.55C77.1044 157.55 79.3761 156.085 79.3761 155.287C79.3761 154.49 77.1072 153.024 73.3951 153.024Z" fill="white"/>
<path d="M52.9692 120.131C57.1939 120.131 60.6187 118.374 60.6187 116.206C60.6187 114.038 57.1939 112.281 52.9692 112.281C48.7446 112.281 45.3198 114.038 45.3198 116.206C45.3198 118.374 48.7446 120.131 52.9692 120.131Z" fill="#FBB03B"/>
<path d="M72.6728 104.055C72.993 102.428 69.892 100.452 65.7463 99.6428C61.6007 98.8331 57.9803 99.4959 57.66 101.123C57.3397 102.75 60.4408 104.726 64.5865 105.535C68.7321 106.345 72.3525 105.682 72.6728 104.055Z" fill="#FBB03B"/>
<path d="M81.3897 150.352C85.6143 150.352 89.0391 148.595 89.0391 146.427C89.0391 144.259 85.6143 142.502 81.3897 142.502C77.165 142.502 73.7402 144.259 73.7402 146.427C73.7402 148.595 77.165 150.352 81.3897 150.352Z" fill="#FBB03B"/>
<path d="M97.8926 151.365C102.117 151.365 105.542 149.608 105.542 147.441C105.542 145.273 102.117 143.516 97.8926 143.516C93.6679 143.516 90.2432 145.273 90.2432 147.441C90.2432 149.608 93.6679 151.365 97.8926 151.365Z" fill="#FBB03B"/>
<path d="M107.266 151.456C111.49 151.456 114.915 149.699 114.915 147.532C114.915 145.364 111.49 143.607 107.266 143.607C103.041 143.607 99.6162 145.364 99.6162 147.532C99.6162 149.699 103.041 151.456 107.266 151.456Z" fill="#FBB03B"/>
<path d="M68.9688 149.795C73.1934 149.795 76.6182 148.038 76.6182 145.87C76.6182 143.703 73.1934 141.946 68.9688 141.946C64.7441 141.946 61.3193 143.703 61.3193 145.87C61.3193 148.038 64.7441 149.795 68.9688 149.795Z" fill="#FBB03B"/>
<path d="M122.751 125.222C126.976 125.222 130.4 123.464 130.4 121.297C130.4 119.129 126.976 117.372 122.751 117.372C118.526 117.372 115.102 119.129 115.102 121.297C115.102 123.464 118.526 125.222 122.751 125.222Z" fill="#FBB03B"/>
<path d="M118.107 120.313C122.332 120.313 125.757 118.556 125.757 116.389C125.757 114.221 122.332 112.464 118.107 112.464C113.883 112.464 110.458 114.221 110.458 116.389C110.458 118.556 113.883 120.313 118.107 120.313Z" fill="#FBB03B"/>
<path d="M116.242 108.858C120.466 108.858 123.891 107.824 123.891 106.548C123.891 105.272 120.466 104.238 116.242 104.238C112.017 104.238 108.592 105.272 108.592 106.548C108.592 107.824 112.017 108.858 116.242 108.858Z" fill="#FBB03B"/>
<path d="M116.244 113.289C120.469 113.289 123.894 112.255 123.894 110.979C123.894 109.704 120.469 108.669 116.244 108.669C112.019 108.669 108.595 109.704 108.595 110.979C108.595 112.255 112.019 113.289 116.244 113.289Z" fill="#FBB03B"/>
<path d="M113.211 105.176C116.522 105.176 119.206 103.799 119.206 102.099C119.206 100.4 116.522 99.022 113.211 99.022C109.9 99.022 107.216 100.4 107.216 102.099C107.216 103.799 109.9 105.176 113.211 105.176Z" fill="#FBB03B"/>
<path d="M44.8081 141.278C49.0328 141.278 52.4575 139.521 52.4575 137.353C52.4575 135.185 49.0328 133.428 44.8081 133.428C40.5835 133.428 37.1587 135.185 37.1587 137.353C37.1587 139.521 40.5835 141.278 44.8081 141.278Z" fill="#FBB03B"/>
<path d="M49.9019 132.509C54.1265 132.509 57.5513 130.752 57.5513 128.584C57.5513 126.416 54.1265 124.659 49.9019 124.659C45.6772 124.659 42.2524 126.416 42.2524 128.584C42.2524 130.752 45.6772 132.509 49.9019 132.509Z" fill="#FBB03B"/>
<path d="M43.8848 136.472C48.1094 136.472 51.5342 134.715 51.5342 132.548C51.5342 130.38 48.1094 128.623 43.8848 128.623C39.6601 128.623 36.2354 130.38 36.2354 132.548C36.2354 134.715 39.6601 136.472 43.8848 136.472Z" fill="#FBB03B"/>
<path d="M52.3213 126.401C56.546 126.401 59.9707 124.644 59.9707 122.477C59.9707 120.309 56.546 118.552 52.3213 118.552C48.0966 118.552 44.6719 120.309 44.6719 122.477C44.6719 124.644 48.0966 126.401 52.3213 126.401Z" fill="#FBB03B"/>
<path d="M66.2265 114.119C66.7696 111.36 63.8491 108.467 59.7035 107.657C55.5578 106.847 51.7568 108.427 51.2138 111.187C50.6707 113.946 53.5912 116.838 57.7368 117.648C61.8825 118.458 65.6835 116.878 66.2265 114.119Z" fill="#FBB03B"/>
<path d="M76.2539 99.5267C80.4786 99.5267 83.9033 98.4925 83.9033 97.2167C83.9033 95.941 80.4786 94.9067 76.2539 94.9067C72.0293 94.9067 68.6045 95.941 68.6045 97.2167C68.6045 98.4925 72.0293 99.5267 76.2539 99.5267Z" fill="#FBB03B"/>
<path d="M80.0799 100.901C80.6661 99.0416 77.0648 96.2592 72.0363 94.6863C67.0077 93.1134 62.4561 93.3457 61.8699 95.2051C61.2838 97.0644 64.885 99.8468 69.9136 101.42C74.9422 102.993 79.4938 102.76 80.0799 100.901Z" fill="#FBB03B"/>
<path d="M60.7656 109.409C64.9903 109.409 68.415 107.93 68.415 106.105C68.415 104.28 64.9903 102.8 60.7656 102.8C56.541 102.8 53.1162 104.28 53.1162 106.105C53.1162 107.93 56.541 109.409 60.7656 109.409Z" fill="#FBB03B"/>
<path d="M86.4569 95.7606C86.771 94.1649 83.6649 92.215 79.5193 91.4054C75.3736 90.5957 71.7583 91.2329 71.4442 92.8286C71.1301 94.4242 74.2362 96.3741 78.3819 97.1838C82.5275 97.9935 86.1429 97.3563 86.4569 95.7606Z" fill="#FBB03B"/>
<path d="M136.726 148.468C140.8 141.364 135.767 132.733 129.764 123.837C118.372 106.955 105.458 87.4142 92.8095 89.2423C73.6373 92.0093 52.5214 111.384 41.4074 132.694C38.3543 138.547 36.8361 143.876 41.2822 148.471H136.726V148.468Z" fill="#FBB03B"/>
<path d="M61.1443 119.69C60.9162 119.69 60.6855 119.682 60.4547 119.663C58.4137 119.494 56.6341 118.61 55.6943 117.3C55.5608 117.115 55.6053 116.854 55.7916 116.721C55.9779 116.588 56.2393 116.633 56.3728 116.818C57.1597 117.915 58.7502 118.691 60.5242 118.837C61.8616 118.948 63.1435 118.702 64.1334 118.142C65.0705 117.61 65.6266 116.865 65.6961 116.037C65.7156 115.81 65.9158 115.638 66.1465 115.658C66.3746 115.677 66.547 115.877 66.5275 116.106C66.4357 117.214 65.7322 118.192 64.5477 118.862C63.5856 119.402 62.3983 119.69 61.1443 119.69Z" fill="#FFD17B"/>
<path d="M122.942 109.171C123.027 108.101 120.866 107.058 118.117 106.843C115.367 106.628 113.07 107.321 112.985 108.391C112.901 109.462 115.061 110.504 117.811 110.72C120.56 110.935 122.858 110.242 122.942 109.171Z" fill="#D68F32"/>
<path d="M62.7454 122.361C62.7454 122.361 57.7181 122.303 54.1562 125.192C50.5942 128.08 45.0664 143.023 45.0664 143.023L60.596 144.145L66.1016 133.905L62.7454 122.361Z" fill="#F4DED3"/>
<path d="M97.9004 132.373C97.9004 132.373 98.9877 141.948 88.6021 143.264C78.2166 144.577 59.0388 144.239 59.0388 144.239L55.3545 138.024L61.4607 133.071L57.743 127.723L62.8844 122.297C62.8844 122.297 68.8404 120.665 78.8756 124.299C86.1524 126.933 97.9004 132.373 97.9004 132.373Z" fill="#E85F5B"/>
<path d="M85.4214 103.656L75.8922 114.253L71.0234 112.461L69.939 115.425L76.5596 119.585L85.5826 115.057L85.4214 103.656Z" fill="#EA5045"/>
<path d="M87.5176 99.5704C87.5176 99.5704 77.2934 112.073 78.6392 123.557C80.5828 140.161 88.641 142.931 88.641 142.931L93.9213 121.344L90.5874 99.479L87.5176 99.5704Z" fill="#EA5045"/>
<path d="M106.679 139.838C106.679 139.838 111.595 143.4 110.702 145.627C109.807 147.853 118.302 144.735 117.854 138.503C117.406 132.271 108.019 122.474 108.467 115.793C108.914 109.113 111.595 96.646 111.595 96.646C111.595 96.646 114.278 89.9681 107.571 95.7541C100.867 101.543 97.7365 126.033 100.42 130.93C103.103 135.83 106.679 139.838 106.679 139.838Z" fill="#EA5045"/>
<path d="M87.682 103.548C87.682 103.548 79.8741 113.802 80.8612 123.557C81.8594 133.384 88.6775 137.275 92.2533 139.056C95.8292 140.837 100.033 139.61 101.538 138.724C103.609 137.505 106.454 140.059 106.454 140.059C106.454 140.059 101.421 127.985 101.983 117.796C102.48 108.794 110.475 96.8672 110.475 96.8672L88.5718 97.7591L87.682 103.548Z" fill="#FAA9A4"/>
<path d="M143.48 63.1367C143.48 63.1367 158.779 83.9127 148.775 93.0086C138.77 102.105 142.557 88.0314 142.557 88.0314L130.081 84.5747L143.48 63.1367Z" fill="#4E55A2"/>
<path d="M126.065 88.6962C118.488 101.423 101.443 105.301 87.9959 97.3573C74.5489 89.4136 69.9998 72.7756 77.3712 59.9295C84.8371 46.9171 101.993 43.3247 115.44 51.2684C128.887 59.2121 133.645 75.9692 126.065 88.6962Z" fill="#EA5045"/>
<path d="M119.851 49.7617C119.851 49.7617 126.802 37.2673 135.18 27.2629C143.664 17.1283 156.585 6.42041 156.585 6.42041C156.585 6.42041 162.049 15.0676 155.676 33.5032C149.303 51.9387 141.381 71.2523 138.503 76.9719C135.625 82.6942 134.663 85.536 134.663 85.536C134.663 85.536 137.405 71.4656 131.332 62.6522C125.264 53.8416 119.851 49.7617 119.851 49.7617Z" fill="#EA5045"/>
<path d="M115.137 82.9067C117.836 78.3728 116.744 72.7592 112.697 70.3684C108.65 67.9775 103.18 69.7148 100.481 74.2487C97.7816 78.7826 98.874 84.3962 102.921 86.787C106.968 89.1778 112.437 87.4406 115.137 82.9067Z" fill="#CE3C3C"/>
<path d="M94.7907 68.6132C97.0835 64.7622 96.2493 60.0494 92.9274 58.087C89.6055 56.1245 85.0538 57.6555 82.761 61.5066C80.4681 65.3576 81.3023 70.0704 84.6242 72.0328C87.9461 73.9953 92.4978 72.4643 94.7907 68.6132Z" fill="#CE3C3C"/>
<path d="M121.294 84.2539C121.116 84.2539 120.938 84.1874 120.804 84.0517C120.651 83.8993 105.422 68.8097 98.0451 64.2035C90.6209 59.5669 80.3493 54.0108 80.2464 53.9554C79.91 53.7726 79.7849 53.3544 79.9684 53.0164C80.1519 52.6813 80.5718 52.5567 80.911 52.7367C81.0139 52.7921 91.3216 58.3676 98.7847 63.0291C106.295 67.7184 121.157 82.4452 121.789 83.0712C122.061 83.3398 122.061 83.7802 121.791 84.0489C121.65 84.1846 121.472 84.2539 121.294 84.2539Z" fill="#4E55A2"/>
<path d="M107.432 91.8791C105.055 91.8791 102.652 90.9069 100.269 88.9708C92.025 82.2818 96.0346 75.5624 99.2573 70.1613C99.6355 69.5271 99.9942 68.9288 100.331 68.3305C100.411 68.1865 100.342 68.0286 100.269 67.9206C100.136 67.7239 99.9525 67.6464 99.8941 67.6464C99.8913 67.6492 99.8857 67.6575 99.8774 67.6713C97.5778 71.2028 95.0086 74.7813 91.1463 76.349C88.2128 77.54 84.7203 77.1688 82.0315 75.3879C79.2592 73.5488 77.7132 70.5574 77.6771 66.9623C77.6326 62.1623 82.1928 54.562 82.3874 54.2407C82.5848 53.9139 83.013 53.8086 83.3412 54.0053C83.6693 54.2019 83.7749 54.6285 83.5775 54.9553C83.533 55.0301 79.0257 62.5389 79.0646 66.9484C79.0952 70.0699 80.4187 72.6569 82.7989 74.2357C85.1096 75.7673 88.1071 76.0886 90.6208 75.0694C94.1104 73.654 96.5323 70.2666 98.7123 66.9207C99.1628 66.2283 100.005 66.0648 100.764 66.5219C101.568 67.0066 102.077 68.0729 101.543 69.0146C101.195 69.624 100.837 70.2306 100.453 70.8704C97.1969 76.3241 93.8324 81.9633 101.148 87.8989C103.856 90.0953 106.542 90.9041 109.131 90.2975C114.851 88.9597 118.424 81.2459 118.46 81.1684C118.619 80.8194 119.03 80.667 119.38 80.8249C119.731 80.9828 119.884 81.3927 119.725 81.7417C119.57 82.0852 115.83 90.1535 109.451 91.6464C108.778 91.7987 108.105 91.8791 107.432 91.8791Z" fill="#4E55A2"/>
<path d="M107.813 101.141C107.813 101.141 99.7189 88.9513 89.058 82.6556C78.3972 76.36 74.218 71.2802 71.9768 67.3444C69.7356 63.4085 68.9626 63.608 68.9793 66.8791C68.996 70.1502 68.3481 75.6398 74.2847 84.3674C80.2213 93.0949 85.9382 96.1444 85.9382 96.1444C85.9382 96.1444 92.6978 100.839 97.1718 101.476C101.646 102.113 107.813 101.141 107.813 101.141Z" fill="#FAA9A4"/>
<path d="M69.6635 74.662C69.6635 74.662 69.4077 74.9584 72.2078 74.6537C75.0078 74.3518 75.9004 72.6262 75.9004 72.6262C75.9004 72.6262 72.8584 69.164 71.9798 67.3415C71.1011 65.5163 70.2224 63.6938 69.0657 63.9874C68.5207 64.1258 68.1926 66.9538 68.2204 68.707C68.2454 70.4603 69.6635 74.662 69.6635 74.662Z" fill="#5B1A19"/>
<g opacity="0.36">
<path opacity="0.36" d="M154.936 11.3896C154.936 11.3896 139.646 25.7786 134.079 33.5921C128.512 41.4056 121.844 51.3573 121.844 51.3573L126.835 57.8081L128.356 54.8805L128.242 59.578L130.803 59.6611L129.838 60.7275L131.073 61.8575L129.875 62.766L134.262 70.9174C134.262 70.9174 137.958 74.6289 143.007 59.9048C148.057 45.1808 154.936 11.3896 154.936 11.3896Z" fill="#FAA9A4"/>
</g>
<path d="M112.171 49.3352C112.171 49.3352 109.287 33.2789 107.316 25.59C105.344 17.9012 104.49 1.7396 104.096 0.202377C103.701 -1.33484 97.3638 6.01057 92.2058 17.9704C87.0478 29.9303 85.4656 41.3888 84.9067 45.6265C84.3478 49.8643 85.2265 51.6868 85.2265 51.6868C85.2265 51.6868 96.3211 48.4544 99.605 48.4378C102.892 48.4212 112.171 49.3352 112.171 49.3352Z" fill="#EA5045"/>
<g opacity="0.36">
<path opacity="0.36" d="M102.177 47.1944C102.177 47.1944 100.895 16.5802 101.059 10.8052C101.223 5.03026 101.601 3.29639 101.601 3.29639C101.601 3.29639 94.2188 14.5915 91.2742 23.9422C88.3267 33.2929 86.0967 51.1302 86.0967 51.1302L94.6276 47.7566L92.9314 46.4521L95.7315 46.1502L95.8204 44.8982L98.2423 46.3302L102.177 47.1944Z" fill="#FAA9A4"/>
</g>
<path d="M100.097 62.2422L96.5405 66.0118L102.841 69.7344L103.973 64.5328L100.097 62.2422Z" fill="#F47B2B"/>
<path d="M138.572 93.0192C143.237 92.8992 146.916 88.7841 146.787 83.8279C146.659 78.8716 142.772 74.951 138.107 75.0709C133.441 75.1909 129.763 79.3059 129.892 84.2622C130.02 89.2185 133.906 93.1391 138.572 93.0192Z" fill="#4E55A2"/>
<path d="M86.6421 44.3664C86.6421 44.3664 95.0312 33.2652 113.839 34.9908C121.48 35.6915 126.677 38.6745 126.677 38.6745L119.918 49.665C119.918 49.665 117.193 48.0613 109.743 46.2692C102.294 44.4772 86.6421 44.3664 86.6421 44.3664Z" fill="#4E55A2"/>
<path d="M111.99 41.2532C111.99 41.2532 123.285 34.4949 131.432 54.9469C135.397 64.9042 140.772 77.0607 140.772 77.0607L136.289 80.8747L111.99 41.2532Z" fill="#4E55A2"/>
<path d="M82.9409 53.282C82.9409 53.282 78.5642 51.3348 80.0908 47.6704C81.6173 44.0061 95.1171 38.9346 107.697 43.1031C120.276 47.2744 137.949 64.8901 135.717 81.8383C133.484 98.7864 126.093 89.2003 126.093 89.2003C126.093 89.2003 128.626 81.445 126.888 74.6646C125.15 67.8842 120.332 52.1658 105.503 48.9833C91.2271 45.92 82.9409 53.282 82.9409 53.282Z" fill="#1E2754"/>
<path d="M138.383 90.591C138.864 89.5718 139.348 88.5719 139.804 87.5637C140.021 87.0568 140.252 86.5583 140.444 86.0459C140.647 85.539 140.83 85.0266 140.972 84.5114C141.122 83.9962 141.233 83.4755 141.275 82.9631C141.292 82.8329 141.286 82.7083 141.292 82.5809L141.278 82.1737C141.264 81.9023 141.253 81.6281 141.231 81.3566C141.183 80.8138 141.119 80.2709 141.008 79.7336C140.903 79.1962 140.764 78.6617 140.538 78.1465C140.919 78.5703 141.175 79.0937 141.392 79.62C141.6 80.1518 141.759 80.7057 141.865 81.268C141.92 81.5478 141.97 81.8303 141.998 82.1156L142.043 82.5421C142.048 82.6944 142.062 82.8468 142.056 82.9963C142.048 83.6001 141.931 84.179 141.776 84.7357C141.612 85.2925 141.409 85.8298 141.175 86.3505C140.93 86.8657 140.68 87.3753 140.385 87.86C139.807 88.8378 139.154 89.7629 138.383 90.591Z" fill="#1E2754"/>
<path d="M84.4701 51.7034C84.3171 51.7034 84.1948 51.5815 84.192 51.4292L84.1114 45.2416C84.1086 45.0892 84.2309 44.9618 84.3867 44.9618C84.5396 44.9535 84.6647 45.0809 84.6675 45.236L84.7481 51.4237C84.7509 51.576 84.6286 51.7034 84.4729 51.7034C84.4701 51.7034 84.4701 51.7034 84.4701 51.7034Z" fill="#4E55A2"/>
<path d="M92.0222 47.5903C92.0055 47.5903 91.9916 47.5903 91.9749 47.5875C91.8248 47.5626 91.7219 47.4185 91.7469 47.269L92.4893 42.9481C92.5144 42.7986 92.659 42.6961 92.8091 42.721C92.9593 42.7459 93.0621 42.89 93.0371 43.0395L92.2947 47.3604C92.2725 47.4961 92.1557 47.5903 92.0222 47.5903Z" fill="#4E55A2"/>
<path d="M101.054 47.9366C101.034 47.9366 101.017 47.9338 100.998 47.931C100.848 47.9006 100.75 47.7538 100.781 47.6042L101.804 42.5937C101.835 42.4441 101.982 42.3472 102.132 42.3777C102.283 42.4081 102.38 42.5549 102.349 42.7045L101.326 47.715C101.298 47.8479 101.181 47.9366 101.054 47.9366Z" fill="#4E55A2"/>
<path d="M117.904 55.9352C117.835 55.9352 117.763 55.9075 117.71 55.8549C117.601 55.7469 117.598 55.5724 117.707 55.4644L120.974 52.1767C121.083 52.0686 121.258 52.0659 121.366 52.1739C121.475 52.2819 121.477 52.4564 121.369 52.5644L118.102 55.8521C118.046 55.9075 117.974 55.9352 117.904 55.9352Z" fill="#4E55A2"/>
<path d="M124.066 63.5056C123.988 63.5056 123.91 63.4724 123.854 63.4087C123.754 63.2923 123.768 63.1178 123.885 63.0181L127.425 59.988C127.542 59.8883 127.717 59.9022 127.817 60.0185C127.917 60.1348 127.903 60.3093 127.786 60.409L124.247 63.4391C124.194 63.4834 124.13 63.5056 124.066 63.5056Z" fill="#4E55A2"/>
<path d="M127.592 72.0363C127.508 72.0363 127.425 71.9975 127.369 71.9283C127.278 71.8064 127.3 71.6319 127.422 71.5405L131.665 68.3276C131.788 68.2362 131.963 68.2584 132.055 68.3802C132.146 68.5021 132.124 68.6766 132.002 68.768L127.759 71.9809C127.709 72.0197 127.65 72.0363 127.592 72.0363Z" fill="#4E55A2"/>
<path d="M128.284 83.5976C128.206 83.5976 128.131 83.5671 128.076 83.5034C127.976 83.3899 127.987 83.2126 128.101 83.1129L133.923 78.011C134.037 77.9112 134.215 77.9223 134.315 78.0359C134.415 78.1494 134.404 78.3267 134.29 78.4264L128.468 83.5284C128.415 83.5754 128.351 83.5976 128.284 83.5976Z" fill="#4E55A2"/>
<path d="M138.203 77.3871C138.078 77.3871 137.964 77.3013 137.933 77.1739C137.916 77.1074 136.345 70.4406 135.202 68.1029C129.36 56.1514 127.392 52.1241 115.872 45.3188C106.37 39.7045 96.2963 40.1615 96.1962 40.1643C96.0433 40.1698 95.9126 40.0563 95.9042 39.9012C95.8959 39.7488 96.0127 39.6186 96.1684 39.6103C96.2713 39.6048 106.504 39.1395 116.155 44.8424C127.82 51.7336 129.805 55.7968 135.703 67.8591C136.874 70.2522 138.411 76.7695 138.475 77.0465C138.511 77.196 138.417 77.3428 138.267 77.3788C138.247 77.3871 138.225 77.3871 138.203 77.3871Z" fill="#1E2754"/>
<path d="M111.792 55.9467C112.696 55.2016 114.551 55.9467 115.933 57.6141C117.315 59.2787 119.439 62.0291 116.261 62.7797C114.923 63.0954 115.377 60.8575 113.992 59.1929C112.613 57.5282 110.889 56.6918 111.792 55.9467Z" fill="#F4DED3"/>
<path d="M100.1 51.6565C100.039 52.5955 98.5486 51.8033 96.3992 52.1163C94.4167 52.4044 92.5426 53.1605 92.9179 51.1995C93.0931 50.28 94.6363 49.6014 96.6189 49.7288C98.6015 49.8562 100.159 50.7176 100.1 51.6565Z" fill="#F4DED3"/>
<path d="M106.771 87.6077C105.336 87.6077 103.737 87.4277 102.297 86.8516C98.34 85.2673 98.8294 80.5282 98.8349 80.4811C98.8683 80.1764 99.1436 79.9576 99.4495 79.9936C99.7553 80.0269 99.9722 80.3011 99.9388 80.6057C99.9222 80.7664 99.5468 84.561 102.711 85.8268C106.115 87.1895 110.736 86.0594 110.78 86.0484C111.078 85.9736 111.381 86.1536 111.453 86.45C111.528 86.7463 111.348 87.0482 111.05 87.1203C110.928 87.1507 109.059 87.6077 106.771 87.6077Z" fill="#1E2754"/>
<path d="M87.2648 73.0971C86.2693 73.0971 85.0653 72.8589 83.7473 72.1055C80.6886 70.3578 80.9556 66.6934 80.9695 66.5383C80.9945 66.2336 81.2642 66.0121 81.5701 66.0315C81.876 66.0564 82.104 66.3251 82.0789 66.627C82.0678 66.7571 81.8648 69.7485 84.3034 71.1417C87.2175 72.8063 89.403 71.5045 89.4948 71.4491C89.7562 71.2885 90.0982 71.3688 90.2595 71.6264C90.4207 71.884 90.3457 72.2246 90.0871 72.3853C90.012 72.4351 88.9276 73.0971 87.2648 73.0971Z" fill="#1E2754"/>
<path d="M91.6137 94.4027C91.2883 94.4027 90.9157 94.3085 90.4875 94.0675C88.2575 92.8184 86.9589 90.7161 86.9033 90.6275C86.8227 90.4973 86.8644 90.3256 86.9979 90.248C87.1286 90.1677 87.301 90.2092 87.3788 90.3394C87.3927 90.3588 88.6579 92.4084 90.76 93.5828C91.7249 94.1229 92.2031 93.7462 92.8065 93.2643C93.371 92.8156 94.0773 92.2561 95.1895 92.871C95.8763 93.2532 96.4463 93.3557 96.8857 93.1812C97.4029 92.9735 97.5808 92.4223 97.5808 92.4167C97.6253 92.27 97.781 92.1896 97.9284 92.2339C98.0758 92.2783 98.1592 92.4306 98.1147 92.5774C98.1036 92.6106 97.8672 93.3834 97.0998 93.6936C96.4964 93.9374 95.7651 93.8238 94.9198 93.3557C94.1329 92.9181 93.7214 93.2449 93.1541 93.6964C92.7426 94.026 92.2699 94.4027 91.6137 94.4027Z" fill="#5B1A19"/>
<path d="M91.0659 95.8978C94.0801 96.7896 95.1284 94.6514 95.1284 94.6514C95.1284 94.6514 94.8336 97.014 93.1013 97.3186C91.3718 97.6205 91.0659 95.8978 91.0659 95.8978Z" fill="#E08D80"/>
<path d="M114.74 42.7984C113.897 42.5075 113.013 42.6156 112.293 43.02C111.979 42.2583 111.353 41.6268 110.508 41.3359C108.945 40.7958 107.241 41.6212 106.698 43.1751C106.156 44.7317 106.985 46.4295 108.545 46.9696C109.387 47.2605 110.271 47.1524 110.992 46.7481C111.306 47.5097 111.931 48.1412 112.777 48.4321C114.339 48.9722 116.044 48.1468 116.586 46.5929C117.128 45.0363 116.303 43.3385 114.74 42.7984Z" fill="#EA5045"/>
<path d="M112.643 48.8227C111.862 48.5541 111.211 48.0084 110.802 47.2994C110.04 47.6068 109.192 47.6317 108.411 47.3631C106.634 46.7482 105.692 44.8121 106.309 43.0422C106.926 41.2723 108.87 40.3334 110.647 40.9483C111.428 41.217 112.079 41.7626 112.485 42.4717C113.246 42.1642 114.097 42.1393 114.876 42.408C116.653 43.0228 117.595 44.9589 116.978 46.7288C116.361 48.4987 114.417 49.4376 112.643 48.8227ZM111.2 46.161L111.378 46.5931C111.659 47.2744 112.22 47.8035 112.913 48.0444C114.256 48.5097 115.727 47.7979 116.194 46.4601C116.661 45.1223 115.946 43.6571 114.603 43.1918C113.908 42.9508 113.141 43.0228 112.496 43.3829L112.087 43.6128L111.909 43.1807C111.628 42.4994 111.066 41.9703 110.374 41.7294C109.031 41.264 107.56 41.9759 107.093 43.3137C106.626 44.6515 107.34 46.1167 108.684 46.582C109.379 46.823 110.146 46.7509 110.791 46.3909L111.2 46.161Z" fill="white"/>
<path d="M113.758 48.5953C115.41 48.5953 116.75 47.261 116.75 45.615C116.75 43.9691 115.41 42.6348 113.758 42.6348C112.106 42.6348 110.766 43.9691 110.766 45.615C110.766 47.261 112.106 48.5953 113.758 48.5953Z" fill="#4E55A2"/>
<path d="M109.526 47.1329C111.179 47.1329 112.518 45.7986 112.518 44.1526C112.518 42.5067 111.179 41.1724 109.526 41.1724C107.874 41.1724 106.534 42.5067 106.534 44.1526C106.534 45.7986 107.874 47.1329 109.526 47.1329Z" fill="#EA5045"/>
<path d="M108.092 106.121L116.703 117.469L121.706 116.084L122.54 119.131L115.594 122.729L106.979 117.469L108.092 106.121Z" fill="#EA5045"/>
<path d="M91.3022 143.389L79.2622 139.965L79.5681 144.438L98.0868 146.529L96.6632 143.516L91.3022 143.389Z" fill="#EA5045"/>
<path d="M86.8616 145.33L75.5056 143.876C75.5056 143.876 70.2642 136.243 77.6523 135.93C85.0431 135.614 86.8616 145.33 86.8616 145.33Z" fill="black"/>
<path d="M85.3432 142.746L93.6433 144.04L96.4211 140.165L79.4733 128.54L78.4751 133.983C77.969 138.284 81.0305 142.189 85.3432 142.746Z" fill="#EA5045"/>
<path d="M112.257 146.252L96.5715 146.488C93.9188 146.252 94.2163 145.261 94.525 143.956L93.916 142.377L110.586 134.351L112.257 146.252Z" fill="#EA5045"/>
<path d="M121.705 116.084V119.372C121.705 119.372 125.434 119.671 127.817 117.743C128.715 117.018 134.048 118.995 134.048 118.995C134.048 118.995 137.274 118.871 133.645 116.863C131.387 115.613 128.556 116.032 128.556 116.032L129.204 113.589C129.204 113.589 135.65 114.572 137.263 114.974C138.875 115.375 140.596 112.761 132.26 112.207C127.416 111.885 123.718 114.55 123.718 114.55L121.705 116.084Z" fill="black"/>
<path d="M127.539 115.804L133.095 115.533L129.085 105.564C129.085 105.564 126.666 105.966 127.472 108.376C128.279 110.785 131.429 114.428 131.429 114.428H127.75L127.539 115.804Z" fill="black"/>
<path d="M126.14 108.531C126.14 108.531 127.016 106.897 128.156 109.736C128.963 111.744 124.124 114.555 124.124 114.555L123.374 114.979L126.14 111.342V108.531Z" fill="black"/>
<path d="M125.039 113.04C124.797 112.677 123.496 113.173 123.096 113.871C122.751 114.469 121.466 115.998 121.705 116.361C121.947 116.724 123.638 115.86 124.311 115.417C124.984 114.973 125.281 113.403 125.039 113.04Z" fill="black"/>
<path d="M71.4239 112.769L70.7287 115.982C70.7287 115.982 67.0194 115.491 65.098 113.107C64.3723 112.206 58.7416 113.023 58.7416 113.023C58.7416 113.023 55.6162 112.223 59.5869 111.024C62.056 110.276 64.7365 111.281 64.7365 111.281L64.8923 108.816C64.8923 108.816 60.8854 108.115 59.2254 108.171C57.5654 108.223 57.9296 106.246 61.9254 106.764C66.7386 107.387 69.7805 110.849 69.7805 110.849L71.4239 112.769Z" fill="black"/>
<path d="M65.7795 111.267L61.147 109.988L65.988 101.684C65.988 101.684 68.2681 102.584 66.9696 104.77C65.671 106.955 63.4994 109.365 63.4994 109.365L65.8629 109.872L65.7795 111.267Z" fill="black"/>
<path d="M68.6879 104.454C68.6879 104.454 68.1791 102.673 66.4635 105.207C65.2511 106.999 69.3831 110.763 69.3831 110.763L70.0282 111.337L68.0929 107.201L68.6879 104.454Z" fill="black"/>
<path d="M68.81 109.093C69.1214 108.789 70.2892 109.548 70.5367 110.315C70.748 110.971 71.6795 112.738 71.3681 113.04C71.0567 113.345 69.5857 112.146 69.0213 111.57C68.4513 110.993 68.4958 109.395 68.81 109.093Z" fill="black"/>
<path d="M97.1806 139.054L106.293 131.479L107.755 135.473L92.665 144.466L92.5815 141.217L97.1806 139.054Z" fill="#EA5045"/>
<path d="M101.774 139.037L111.053 133.431C111.053 133.431 112.652 124.809 106.129 127.365C99.6053 129.922 101.774 139.037 101.774 139.037Z" fill="black"/>
<path d="M81.417 131.86L81.6951 129.37L88.0849 131.032C90.5485 131.863 93.2123 133.387 93.7907 135.575L95.1281 140.624L81.417 131.86Z" fill="#EA5045"/>
<path d="M47.1992 144.3C51.4239 144.3 54.8486 142.543 54.8486 140.375C54.8486 138.207 51.4239 136.45 47.1992 136.45C42.9746 136.45 39.5498 138.207 39.5498 140.375C39.5498 142.543 42.9746 144.3 47.1992 144.3Z" fill="#FBB03B"/>
<path d="M107.822 145.383C112.046 145.383 115.471 144.348 115.471 143.073C115.471 141.797 112.046 140.763 107.822 140.763C103.597 140.763 100.172 141.797 100.172 143.073C100.172 144.348 103.597 145.383 107.822 145.383Z" fill="#FBB03B"/>
<path d="M40.1285 144.732C40.1285 144.732 37.3646 140.58 46.5767 140.58C55.7888 140.58 62.237 136.428 67.1503 140.026C72.0637 143.624 76.6683 145.837 76.6683 145.837C76.6683 145.837 88.6444 140.854 96.6275 141.962C104.611 143.07 109.382 142.931 109.382 142.931C109.382 142.931 121.489 139.932 123.633 139.61C135.678 137.81 130.356 148.191 130.356 148.191L60.3935 148.052L40.1285 144.732Z" fill="#FBB03B"/>
<path d="M47.9917 150.285C52.2164 150.285 55.6412 148.528 55.6412 146.36C55.6412 144.193 52.2164 142.436 47.9917 142.436C43.7671 142.436 40.3423 144.193 40.3423 146.36C40.3423 148.528 43.7671 150.285 47.9917 150.285Z" fill="#FBB03B"/>
<path d="M42.1162 145.8C46.3409 145.8 49.7657 144.043 49.7657 141.876C49.7657 139.708 46.3409 137.951 42.1162 137.951C37.8916 137.951 34.4668 139.708 34.4668 141.876C34.4668 144.043 37.8916 145.8 42.1162 145.8Z" fill="#FBB03B"/>
<path d="M46.0187 147.574C50.1119 146.533 53.0963 144.387 52.6845 142.78C52.2727 141.174 48.6205 140.715 44.5273 141.756C40.434 142.797 37.4496 144.944 37.8614 146.55C38.2733 148.157 41.9254 148.615 46.0187 147.574Z" fill="#FBB03B"/>
<path d="M122.598 159.679C122.918 158.052 119.817 156.076 115.672 155.267C111.526 154.457 107.906 155.12 107.585 156.747C107.265 158.374 110.366 160.35 114.512 161.159C118.657 161.969 122.278 161.306 122.598 159.679Z" fill="#FBB03B"/>
<path d="M63.7885 148.972C64.1088 147.345 61.0077 145.369 56.862 144.56C52.7164 143.75 49.096 144.413 48.7757 146.04C48.4554 147.667 51.5565 149.642 55.7022 150.452C59.8479 151.262 63.4682 150.599 63.7885 148.972Z" fill="#FBB03B"/>
<path d="M88.2158 150.822C92.4405 150.822 95.8653 149.065 95.8653 146.898C95.8653 144.73 92.4405 142.973 88.2158 142.973C83.9912 142.973 80.5664 144.73 80.5664 146.898C80.5664 149.065 83.9912 150.822 88.2158 150.822Z" fill="#FBB03B"/>
<path d="M73.6734 159.212C77.898 159.212 81.3228 157.455 81.3228 155.287C81.3228 153.12 77.898 151.363 73.6734 151.363C69.4487 151.363 66.0239 153.12 66.0239 155.287C66.0239 157.455 69.4487 159.212 73.6734 159.212Z" fill="#FBB03B"/>
<path d="M130.351 150.72C134.575 150.72 138 148.963 138 146.795C138 144.628 134.575 142.871 130.351 142.871C126.126 142.871 122.701 144.628 122.701 146.795C122.701 148.963 126.126 150.72 130.351 150.72Z" fill="#FBB03B"/>
<path d="M54.315 156.789C58.5396 156.789 61.9644 155.032 61.9644 152.864C61.9644 150.696 58.5396 148.939 54.315 148.939C50.0903 148.939 46.6655 150.696 46.6655 152.864C46.6655 155.032 50.0903 156.789 54.315 156.789Z" fill="#FBB03B"/>
<path d="M133.126 146.912C137.35 146.912 140.775 145.155 140.775 142.987C140.775 140.819 137.35 139.062 133.126 139.062C128.901 139.062 125.476 140.819 125.476 142.987C125.476 145.155 128.901 146.912 133.126 146.912Z" fill="#FBB03B"/>
<path d="M128.401 135.282C132.626 135.282 136.051 133.524 136.051 131.357C136.051 129.189 132.626 127.432 128.401 127.432C124.177 127.432 120.752 129.189 120.752 131.357C120.752 133.524 124.177 135.282 128.401 135.282Z" fill="#FBB03B"/>
<path d="M118.777 150.9C123.002 150.9 126.427 149.143 126.427 146.975C126.427 144.807 123.002 143.05 118.777 143.05C114.553 143.05 111.128 144.807 111.128 146.975C111.128 149.143 114.553 150.9 118.777 150.9Z" fill="#FBB03B"/>
<path d="M62.9434 151.089C67.168 151.089 70.5928 149.331 70.5928 147.164C70.5928 144.996 67.168 143.239 62.9434 143.239C58.7187 143.239 55.2939 144.996 55.2939 147.164C55.2939 149.331 58.7187 151.089 62.9434 151.089Z" fill="#FBB03B"/>
<path d="M134.579 125.726C134.661 124.41 132.179 123.185 129.035 122.99C125.892 122.795 123.276 123.704 123.194 125.02C123.112 126.336 125.594 127.561 128.738 127.756C131.881 127.951 134.496 127.042 134.579 125.726Z" fill="#D68F32"/>
<path d="M77.7224 98.7836C79.8321 98.3405 81.3904 97.263 81.2028 96.3769C81.0152 95.4908 79.1529 95.1316 77.0432 95.5747C74.9334 96.0178 73.3752 97.0953 73.5627 97.9814C73.7503 98.8675 75.6126 99.2267 77.7224 98.7836Z" fill="#D68F32"/>
<path d="M64.5974 146.959C63.5102 146.959 62.3507 146.762 61.1995 146.349C58.7192 145.46 56.7255 143.71 55.9998 141.776C55.9191 141.56 56.0276 141.322 56.2445 141.242C56.4614 141.162 56.7005 141.27 56.7811 141.486C57.4234 143.197 59.2253 144.762 61.4831 145.568C64.9394 146.804 68.4207 145.953 69.2438 143.668C69.3217 143.452 69.5608 143.341 69.7777 143.419C69.9946 143.496 70.1058 143.735 70.0279 143.951C69.3383 145.859 67.175 146.959 64.5974 146.959Z" fill="#FFD17B"/>
<path d="M48.0555 146.673C47.3493 146.673 46.6207 146.582 45.8978 146.396C43.7289 145.842 41.9688 144.563 41.193 142.973C41.0595 142.699 41.1736 142.366 41.4488 142.234C41.7241 142.101 42.0578 142.214 42.1912 142.491C42.8169 143.773 44.3407 144.859 46.1703 145.325C47.5522 145.676 48.937 145.646 50.0715 145.236C51.1309 144.851 51.8316 144.183 52.0457 143.352C52.1208 143.056 52.4239 142.879 52.7214 142.954C53.0189 143.028 53.1969 143.33 53.1218 143.627C52.8131 144.823 51.8649 145.765 50.4496 146.277C49.7183 146.54 48.9036 146.673 48.0555 146.673Z" fill="#F8FFD8"/>
<path d="M87.2207 149.136C84.4456 149.136 82.1572 147.693 81.9375 145.682C81.9125 145.455 82.0794 145.25 82.3074 145.225C82.5354 145.2 82.7411 145.366 82.7662 145.593C82.958 147.357 85.3076 148.554 88.0048 148.263C89.7733 148.072 91.3443 147.26 92.1034 146.144C92.2313 145.953 92.4927 145.903 92.6818 146.033C92.8736 146.161 92.9237 146.421 92.793 146.61C91.8865 147.942 90.1292 148.87 88.0938 149.088C87.8018 149.119 87.5099 149.136 87.2207 149.136Z" fill="#FFD17B"/>
<path d="M48.5338 124.283C47.7858 124.283 47.1157 124.169 46.5874 123.942C46.3761 123.851 46.2787 123.607 46.3705 123.396C46.4623 123.186 46.7069 123.089 46.9183 123.18C47.8025 123.56 49.2818 123.54 50.7722 123.128C51.9011 122.818 52.8994 122.325 53.5862 121.743C54.1784 121.242 54.4565 120.735 54.3508 120.355C54.2897 120.134 54.4203 119.907 54.64 119.846C54.8625 119.785 55.0905 119.915 55.1516 120.134C55.3491 120.848 54.9848 121.643 54.1256 122.374C53.3498 123.034 52.2376 123.585 50.9946 123.928C50.141 124.164 49.2985 124.283 48.5338 124.283Z" fill="#FFD17B"/>
<path d="M81.7708 102.931C81.5122 102.931 81.248 102.914 80.9811 102.875C79.5324 102.676 78.295 101.973 77.6722 100.992C77.5498 100.798 77.6055 100.541 77.8001 100.419C77.9947 100.297 78.2533 100.355 78.3757 100.546C78.8623 101.311 79.9022 101.887 81.0951 102.05C82.8663 102.294 84.4986 101.543 84.6571 100.408C84.6876 100.18 84.899 100.023 85.127 100.053C85.355 100.084 85.5135 100.294 85.4829 100.521C85.2855 101.942 83.6922 102.931 81.7708 102.931Z" fill="#FFD17B"/>
<path d="M77.0799 105.93C76.496 105.93 75.8537 105.833 75.1891 105.626C73.8906 105.224 72.8228 104.487 72.3335 103.656C72.1777 103.393 72.2667 103.052 72.5337 102.9C72.7978 102.745 73.1398 102.834 73.2928 103.099C73.6348 103.681 74.5079 104.26 75.5172 104.573C77.0438 105.044 78.423 104.778 78.5954 104.235C78.6871 103.944 78.9985 103.781 79.2905 103.872C79.5825 103.964 79.7465 104.274 79.6575 104.565C79.385 105.44 78.384 105.93 77.0799 105.93Z" fill="#F8FFD8"/>
<path d="M40.3005 140.209C39.483 140.209 38.774 140.12 38.2818 139.948C38.0649 139.873 37.9509 139.635 38.026 139.419C38.1011 139.203 38.3402 139.09 38.5571 139.164C39.1966 139.389 40.3728 139.439 41.6297 139.303C43.6706 139.079 44.7189 138.514 44.8413 138.297C44.8329 138.081 44.9942 137.896 45.2111 137.871C45.4391 137.846 45.6448 138.009 45.6699 138.237C45.795 139.369 43.2452 139.959 41.7214 140.126C41.232 140.184 40.751 140.209 40.3005 140.209Z" fill="#FFD17B"/>
<path d="M128.204 141.69C133.795 141.69 138.328 139.364 138.328 136.494C138.328 133.625 133.795 131.298 128.204 131.298C122.612 131.298 118.08 133.625 118.08 136.494C118.08 139.364 122.612 141.69 128.204 141.69Z" fill="#FBB03B"/>
<path d="M125.606 137.541C123.835 137.541 122.242 137.065 121.255 136.223C121.08 136.073 121.06 135.813 121.21 135.639C121.36 135.464 121.622 135.445 121.797 135.594C122.729 136.389 124.419 136.81 126.21 136.691C127.561 136.602 128.807 136.226 129.716 135.633C130.553 135.087 130.99 134.431 130.948 133.786C130.934 133.556 131.106 133.359 131.337 133.345C131.568 133.326 131.765 133.503 131.779 133.733C131.843 134.691 131.27 135.614 130.172 136.331C129.143 137.001 127.756 137.425 126.263 137.522C126.043 137.533 125.823 137.541 125.606 137.541Z" fill="#FFD17B"/>
<path d="M111.131 147.903C109.396 147.903 107.822 147.354 106.818 146.377C106.654 146.216 106.651 145.953 106.81 145.79C106.971 145.626 107.235 145.623 107.399 145.781C108.367 146.723 110.071 147.205 111.843 147.039C114.543 146.784 116.603 145.139 116.436 143.374C116.414 143.147 116.584 142.942 116.812 142.923C117.04 142.901 117.245 143.07 117.265 143.297C117.476 145.518 115.079 147.568 111.92 147.867C111.654 147.889 111.389 147.903 111.131 147.903Z" fill="#FFD17B"/>
<path d="M116.664 126.861C115.432 126.861 114.32 126.545 113.6 125.975C113.361 125.784 113.319 125.438 113.511 125.197C113.703 124.958 114.05 124.917 114.292 125.108C114.918 125.604 116.052 125.839 117.254 125.726C119.144 125.548 120.387 124.612 120.318 123.886C120.29 123.582 120.512 123.313 120.818 123.283C121.124 123.255 121.394 123.476 121.424 123.781C121.566 125.26 119.778 126.598 117.359 126.828C117.126 126.85 116.892 126.861 116.664 126.861Z" fill="#F8FFD8"/>
<path d="M99.7222 148.645C98.9047 148.645 98.0372 148.504 97.1724 148.208C95.1982 147.529 93.6605 146.208 93.0599 144.671C92.9487 144.385 93.0905 144.064 93.3769 143.953C93.6633 143.842 93.9858 143.984 94.097 144.269C94.5725 145.488 95.8905 146.598 97.5367 147.161C100.028 148.017 102.508 147.404 103.064 145.801C103.165 145.513 103.482 145.358 103.771 145.457C104.06 145.557 104.216 145.873 104.116 146.161C103.571 147.731 101.81 148.645 99.7222 148.645Z" fill="#F8FFD8"/>
<path d="M113.801 104.169C112.838 104.169 111.963 103.861 111.398 103.313C111.234 103.152 111.231 102.889 111.39 102.726C111.551 102.562 111.815 102.559 111.979 102.717C112.446 103.171 113.281 103.404 114.151 103.321C114.813 103.257 115.413 103.027 115.841 102.673C116.225 102.354 116.417 101.98 116.381 101.612C116.359 101.385 116.528 101.18 116.756 101.161C116.984 101.138 117.19 101.307 117.21 101.535C117.271 102.183 116.973 102.811 116.373 103.31C115.816 103.77 115.055 104.069 114.229 104.146C114.087 104.163 113.942 104.169 113.801 104.169Z" fill="#FFD17B"/>
<path d="M45.9979 22.9918C45.3083 22.9918 44.7466 22.4351 44.7466 21.7455V17.8982C44.7466 17.2113 45.3055 16.6519 45.9979 16.6519C46.6874 16.6519 47.2491 17.2086 47.2491 17.8982V21.7455C47.2491 22.4351 46.6902 22.9918 45.9979 22.9918Z" fill="#CCCCCC"/>
<path d="M53.9698 24.7646C53.8085 24.7646 53.6445 24.7342 53.4888 24.6677C52.852 24.4018 52.5517 23.6733 52.8187 23.0391L56.642 13.9321C56.9089 13.2978 57.6402 12.9987 58.277 13.2646C58.9137 13.5305 59.214 14.2589 58.9471 14.8932L55.121 24.0002C54.9236 24.4766 54.4592 24.7646 53.9698 24.7646Z" fill="#CCCCCC"/>
<path d="M57.7156 29.5671C57.2929 29.5671 56.8786 29.3538 56.6451 28.966C56.2891 28.3761 56.4782 27.6116 57.0677 27.2571L61.9866 24.2962C62.5789 23.9417 63.3463 24.13 63.7022 24.7172C64.0581 25.3072 63.8691 26.0716 63.2796 26.4262L58.3607 29.387C58.1577 29.5089 57.9352 29.5671 57.7156 29.5671Z" fill="#CCCCCC"/>
<path d="M61.3526 37.7709C60.7353 37.7709 60.1986 37.3167 60.1152 36.6907C60.0235 36.0094 60.5045 35.3834 61.1885 35.292L68.749 34.2866C69.433 34.1952 70.0614 34.6743 70.1532 35.3557C70.2449 36.0371 69.7639 36.663 69.0799 36.7544L61.5194 37.7598C61.4638 37.7682 61.4082 37.7709 61.3526 37.7709Z" fill="#CCCCCC"/>
<path d="M4.34472 59.0154C3.81919 59.0154 3.34927 58.6415 3.25195 58.1069C3.14072 57.5059 3.54113 56.9298 4.1473 56.819L9.80304 55.7914C10.4064 55.6806 10.9848 56.0795 11.096 56.6805C11.2072 57.2816 10.8068 57.8577 10.2007 57.9685L4.54492 58.996C4.47819 59.0099 4.41146 59.0154 4.34472 59.0154Z" fill="#CCCCCC"/>
<path d="M8.53788 51.6176C8.45447 51.6176 8.36827 51.6093 8.28207 51.5872L0.857868 49.8505C0.260039 49.712 -0.10978 49.1138 0.0292496 48.521C0.16828 47.9255 0.768889 47.5572 1.36394 47.6956L8.78814 49.4323C9.38597 49.5708 9.75579 50.169 9.61676 50.7618C9.49997 51.2742 9.04395 51.6176 8.53788 51.6176Z" fill="#CCCCCC"/>
<path d="M122.795 151.601C126.797 151.498 130.007 150.058 129.963 148.383C129.92 146.709 126.64 145.434 122.638 145.537C118.636 145.64 115.426 147.081 115.47 148.756C115.513 150.43 118.793 151.704 122.795 151.601Z" fill="#D68F32"/>
<path d="M127.447 143.876C131.18 143.876 134.207 142.871 134.207 141.632C134.207 140.393 131.18 139.389 127.447 139.389C123.714 139.389 120.688 140.393 120.688 141.632C120.688 142.871 123.714 143.876 127.447 143.876Z" fill="#F8FFD8"/>
<path d="M73.6931 109.913C72.8756 109.913 72.1666 109.825 71.6744 109.653C71.4575 109.578 71.3435 109.34 71.4186 109.124C71.4937 108.908 71.7328 108.794 71.9497 108.869C72.5892 109.094 73.7654 109.146 75.0222 109.008C77.0632 108.783 78.1115 108.218 78.2338 108.002C78.2255 107.786 78.3868 107.601 78.6036 107.576C78.8317 107.551 79.0374 107.714 79.0624 107.941C79.1181 108.432 78.6926 108.858 77.8028 109.215C77.091 109.501 76.1373 109.72 75.114 109.83C74.6218 109.886 74.1408 109.913 73.6931 109.913Z" fill="#FFD17B"/>
<path d="M123.51 132.55C126.196 132.55 128.374 131.584 128.374 130.393C128.374 129.201 126.196 128.235 123.51 128.235C120.824 128.235 118.647 129.201 118.647 130.393C118.647 131.584 120.824 132.55 123.51 132.55Z" fill="#F8FFD8"/>
<path d="M148.449 133.846L140.049 129.306L139.768 121.055L137.055 128.838L129.739 129.096L135.753 132.652L134.029 139.718L138.792 133.389L148.449 133.846Z" fill="white"/>
<path d="M38.3877 112.215L47.4636 113.652L50.3721 121.042L50.3304 113.12L56.8787 110.556L50.2831 109.248L49.574 102.293L47.2912 109.55L38.3877 112.215Z" fill="white"/>
<path d="M55.8861 53.9304L30.7133 63.0152C27.4016 64.209 23.734 62.5001 22.5328 59.2013L18.8708 49.1359C17.6723 45.8372 19.388 42.1838 22.6996 40.9873L47.8724 31.9025C51.1841 30.7087 54.8517 32.4177 56.0529 35.7164L59.715 45.7818C60.9134 49.0805 59.195 52.7366 55.8861 53.9304ZM23.2836 42.5993C20.8645 43.4718 19.6076 46.1446 20.4863 48.5543L24.1483 58.6196C25.0242 61.0293 27.7075 62.2812 30.1266 61.406L55.2994 52.3212C57.7185 51.4487 58.9753 48.7759 58.0967 46.3662L54.4346 36.3009C53.5587 33.8912 50.8755 32.6392 48.4563 33.5145L23.2836 42.5993Z" fill="#FBB03B"/>
<path d="M37.0169 44.1949C37.1587 44.5827 37.2226 44.9566 37.2087 45.3111C37.1948 45.6656 37.1225 45.998 36.9891 46.311C36.8556 46.624 36.6693 46.9093 36.4302 47.1724C36.191 47.4355 35.9157 47.6682 35.6015 47.8759L35.6182 47.923C36.5692 47.7069 37.3561 47.7346 37.9817 48.0033C38.6074 48.272 39.055 48.7761 39.3248 49.5184C39.5027 50.0086 39.5806 50.4961 39.5555 50.9753C39.5305 51.4572 39.3887 51.917 39.1329 52.3546C38.8771 52.795 38.5017 53.1994 38.0068 53.5733C37.5118 53.9472 36.8862 54.2685 36.1326 54.54C35.5265 54.7588 34.9397 54.9139 34.3697 55.008C33.7997 55.1022 33.2464 55.1299 32.7097 55.0911L31.9756 53.0748C32.2509 53.1135 32.5345 53.1329 32.8237 53.1329C33.1129 53.1329 33.3993 53.1191 33.6801 53.0886C33.961 53.0609 34.2307 53.0166 34.4893 52.9557C34.7507 52.8975 34.9898 52.8282 35.2095 52.7479C35.6516 52.5873 36.0019 52.4155 36.2661 52.2272C36.5303 52.0389 36.7193 51.8394 36.8417 51.6289C36.9612 51.4184 37.0224 51.1941 37.0224 50.9614C37.0224 50.7288 36.9751 50.4878 36.8862 50.2413C36.8028 50.0114 36.6804 49.8203 36.5164 49.6679C36.3523 49.5156 36.141 49.4131 35.8824 49.3605C35.621 49.3079 35.3068 49.3079 34.937 49.3577C34.5671 49.4104 34.1306 49.5267 33.6273 49.7095L32.8265 49.9975L32.2203 48.3329L33.0072 48.0504C33.4799 47.8787 33.8581 47.6959 34.1389 47.4992C34.4226 47.3026 34.6311 47.0976 34.7646 46.8816C34.898 46.6683 34.9703 46.4495 34.9759 46.2279C34.9815 46.0063 34.9453 45.7847 34.8647 45.5659C34.7201 45.1671 34.481 44.9012 34.1501 44.7655C33.8192 44.6297 33.3854 44.6602 32.846 44.8541C32.5985 44.9427 32.3788 45.0507 32.1842 45.1754C31.9895 45.3 31.8144 45.433 31.6586 45.5742C31.5029 45.7155 31.3667 45.8567 31.2471 46.0008C31.1275 46.1448 31.0219 46.2833 30.9301 46.4135L29.1533 45.2668C29.3118 45.0314 29.4926 44.7987 29.6983 44.5743C29.9041 44.35 30.1377 44.134 30.399 43.9262C30.6604 43.7185 30.9524 43.5246 31.2777 43.3446C31.6003 43.1645 31.9589 43.0039 32.3482 42.8626C32.9016 42.6632 33.4299 42.5413 33.9276 42.497C34.4253 42.4527 34.8786 42.4859 35.2845 42.5967C35.6905 42.7075 36.0436 42.8959 36.3384 43.1618C36.6359 43.4249 36.8611 43.7711 37.0169 44.1949Z" fill="#FBB03B"/>
<path d="M42.5254 47.1002L38.2266 43.9039L40.8904 42.9428L43.5542 45.07L44.2466 41.7297L46.9104 40.7686L45.6341 45.9757L50.1609 49.2967L47.4887 50.2605L44.6108 47.9755L43.8628 51.5706L41.199 52.5317L42.5254 47.1002Z" fill="#FBB03B"/>
<path d="M22.4437 104.179L4.24187 97.784C1.84777 96.9419 0.588162 94.319 1.43346 91.9342L4.01108 84.658C4.85638 82.2733 7.48961 81.0185 9.88371 81.8578L28.0855 88.2532C30.4796 89.0952 31.7392 91.7182 30.8967 94.1029L28.3191 101.379C27.4738 103.767 24.8378 105.021 22.4437 104.179ZM9.47218 83.0211C7.72318 82.4062 5.79623 83.323 5.17893 85.0679L2.60132 92.3441C1.98402 94.0863 2.9044 96.0058 4.65618 96.6206L22.858 103.016C24.607 103.631 26.5339 102.714 27.1512 100.969L29.7289 93.693C30.3461 91.9508 29.4258 90.0314 27.674 89.4165L9.47218 83.0211Z" fill="#FBB03B"/>
<path d="M16.393 90.1613C16.2929 90.4438 16.1594 90.6792 15.9898 90.8703C15.8202 91.0615 15.6255 91.2138 15.4086 91.3274C15.1918 91.4409 14.9554 91.5157 14.7024 91.5545C14.4493 91.5933 14.188 91.596 13.9182 91.5683L13.9043 91.6016C14.5328 91.9145 14.961 92.2885 15.1862 92.7233C15.4114 93.1582 15.4309 93.6429 15.239 94.1802C15.1139 94.5347 14.9332 94.8422 14.6996 95.097C14.466 95.3546 14.1741 95.5457 13.832 95.6731C13.4872 95.8005 13.0924 95.8559 12.6447 95.8393C12.1971 95.8227 11.7021 95.7174 11.1571 95.5263C10.7178 95.3712 10.3201 95.1912 9.95867 94.9834C9.59719 94.7757 9.27742 94.5403 8.99658 94.2744L9.51377 92.8147C9.65002 92.9615 9.79739 93.1028 9.96145 93.2329C10.1227 93.3659 10.2896 93.4878 10.4592 93.5986C10.6288 93.7093 10.7984 93.8091 10.9708 93.8949C11.1432 93.9808 11.31 94.05 11.4685 94.1082C11.7883 94.219 12.0636 94.2827 12.2972 94.2993C12.5307 94.3159 12.7281 94.291 12.8922 94.2273C13.0563 94.1636 13.1925 94.0666 13.2982 93.9365C13.4038 93.8063 13.49 93.6512 13.554 93.4739C13.6124 93.3077 13.6318 93.1443 13.6124 92.9864C13.5929 92.8286 13.5206 92.6735 13.401 92.5239C13.2815 92.3743 13.1035 92.2303 12.8755 92.0918C12.6475 91.9533 12.3472 91.8204 11.9829 91.6902L11.4046 91.488L11.83 90.2832L12.3973 90.4826C12.7393 90.6017 13.034 90.6709 13.2815 90.6903C13.529 90.7097 13.7403 90.6903 13.9127 90.6322C14.0851 90.574 14.2241 90.4854 14.3298 90.3635C14.4354 90.2416 14.5161 90.1031 14.5717 89.9425C14.6746 89.6544 14.6634 89.3968 14.5411 89.1697C14.4187 88.9426 14.1629 88.7626 13.7736 88.6241C13.5957 88.5604 13.4233 88.5216 13.2565 88.5022C13.0896 88.4828 12.9311 88.4773 12.781 88.4856C12.6308 88.4939 12.489 88.5105 12.3555 88.5354C12.2221 88.5604 12.1025 88.5908 11.9885 88.6213L11.5241 87.1727C11.7216 87.1118 11.9273 87.0675 12.1442 87.037C12.3611 87.0065 12.5919 86.9927 12.831 86.9955C13.0702 86.9982 13.3232 87.0232 13.5873 87.0702C13.8515 87.1173 14.124 87.1893 14.4048 87.2891C14.8053 87.4303 15.1556 87.602 15.4531 87.8042C15.7507 88.0064 15.987 88.2308 16.1622 88.4773C16.3374 88.7238 16.4486 88.9897 16.4903 89.2722C16.5348 89.5603 16.5014 89.8566 16.393 90.1613Z" fill="#FBB03B"/>
<path d="M18.131 94.2909L17.1995 90.5518L19.1264 91.2276L19.6353 93.6262L21.5539 92.0807L23.4808 92.7565L20.3805 95.0776L21.3815 98.9912L19.449 98.3126L18.8928 95.7284L16.8269 97.3903L14.8999 96.7145L18.131 94.2909Z" fill="#FBB03B"/>
<path d="M188.498 102.795L166.137 108.774C163.195 109.561 160.161 107.819 159.371 104.889L156.961 95.9477C156.171 93.0173 157.92 89.9955 160.862 89.2089L183.223 83.2289C186.165 82.4423 189.199 84.1845 189.989 87.1149L192.399 96.0557C193.189 98.9861 191.437 102.008 188.498 102.795ZM161.246 90.6381C159.096 91.2142 157.817 93.4217 158.395 95.5627L160.806 104.503C161.385 106.645 163.601 107.919 165.75 107.343L188.112 101.363C190.261 100.786 191.54 98.579 190.962 96.4379L188.551 87.4971C187.973 85.3561 185.757 84.082 183.607 84.6581L161.246 90.6381Z" fill="#FBB03B"/>
<path d="M172.96 93.0204C173.052 93.3667 173.08 93.6907 173.044 93.9954C173.005 94.3001 172.918 94.5826 172.779 94.8402C172.64 95.0978 172.46 95.3332 172.234 95.5409C172.009 95.7487 171.753 95.9315 171.467 96.0866L171.478 96.1281C172.312 96.0118 172.988 96.0921 173.508 96.3691C174.028 96.6461 174.376 97.1142 174.553 97.7734C174.67 98.2082 174.701 98.6348 174.642 99.0475C174.584 99.4602 174.428 99.8452 174.178 100.205C173.925 100.565 173.572 100.887 173.119 101.172C172.665 101.457 172.104 101.687 171.431 101.867C170.891 102.011 170.374 102.103 169.876 102.141C169.379 102.18 168.901 102.163 168.439 102.091L167.955 100.299C168.189 100.355 168.433 100.391 168.684 100.413C168.934 100.435 169.181 100.443 169.423 100.438C169.668 100.435 169.902 100.416 170.132 100.382C170.36 100.349 170.574 100.308 170.769 100.255C171.161 100.15 171.478 100.028 171.717 99.8839C171.956 99.7427 172.137 99.5848 172.257 99.4103C172.376 99.2358 172.443 99.0502 172.46 98.848C172.476 98.6458 172.454 98.4353 172.396 98.2193C172.34 98.0143 172.248 97.8398 172.12 97.6986C171.993 97.5546 171.817 97.4521 171.595 97.3856C171.375 97.3191 171.103 97.297 170.78 97.3136C170.458 97.333 170.071 97.3994 169.626 97.5213L168.914 97.7124L168.517 96.2334L169.215 96.0478C169.635 95.9342 169.974 95.8041 170.232 95.6545C170.491 95.5049 170.686 95.3443 170.816 95.1698C170.947 94.9953 171.025 94.8125 171.047 94.6214C171.069 94.4303 171.053 94.2364 171 94.0425C170.905 93.688 170.719 93.4415 170.444 93.3002C170.168 93.1589 169.793 93.1534 169.312 93.2808C169.092 93.339 168.895 93.4165 168.717 93.5079C168.539 93.6021 168.378 93.7046 168.233 93.8126C168.089 93.9206 167.961 94.0342 167.847 94.1505C167.733 94.2668 167.633 94.3776 167.544 94.4829L166.098 93.3639C166.251 93.1728 166.426 92.9872 166.618 92.8072C166.812 92.6299 167.029 92.461 167.268 92.3003C167.51 92.1397 167.774 91.9956 168.066 91.8627C168.358 91.7297 168.678 91.619 169.026 91.5275C169.518 91.3946 169.982 91.3281 170.413 91.3281C170.847 91.3281 171.233 91.3891 171.575 91.5137C171.917 91.6383 172.207 91.8267 172.443 92.0787C172.69 92.3308 172.857 92.6438 172.96 93.0204Z" fill="#FBB03B"/>
<path d="M177.492 95.931L174.025 92.8621L176.391 92.2279L178.529 94.2581L179.375 91.4302L181.741 90.7959L180.256 95.1887L183.913 98.3823L181.538 99.0165L179.227 96.8367L178.315 99.8779L175.949 100.512L177.492 95.931Z" fill="#FBB03B"/>
</svg>
