<svg width="12" height="12" viewBox="0 0 12 12" fill="none" xmlns="http://www.w3.org/2000/svg">
<path fill-rule="evenodd" clip-rule="evenodd" d="M11.355 3.575L8.425 0.645C8.33 0.55 8.20501 0.5 8.07001 0.5H3.93001C3.79501 0.5 3.67001 0.555 3.57501 0.645L0.645004 3.575C0.550004 3.67 0.5 3.795 0.5 3.93V8.07C0.5 8.205 0.555004 8.33 0.645004 8.425L3.57501 11.355C3.67001 11.45 3.79501 11.5 3.93001 11.5H8.07001C8.20501 11.5 8.33 11.445 8.425 11.355L11.355 8.425C11.45 8.33 11.5 8.205 11.5 8.07V3.93C11.5 3.795 11.45 3.67 11.355 3.575ZM10.5 7.86L7.86501 10.495H4.14L1.505 7.86V4.135L4.14 1.5H7.86501L10.5 4.135V7.86Z" fill="#FBBC05"/>
<path fill-rule="evenodd" clip-rule="evenodd" d="M6 6.5C6.275 6.5 6.5 6.275 6.5 6V4C6.5 3.725 6.275 3.5 6 3.5C5.725 3.5 5.5 3.725 5.5 4V6C5.5 6.275 5.725 6.5 6 6.5Z" fill="#FBBC05"/>
<path fill-rule="evenodd" clip-rule="evenodd" d="M6.005 7.5H6C5.725 7.5 5.5 7.725 5.5 8C5.5 8.275 5.725 8.5 6 8.5H6.005C6.28 8.5 6.505 8.275 6.505 8C6.505 7.725 6.28 7.5 6.005 7.5Z" fill="#FBBC05"/>
</svg>
