<svg width="12" height="12" viewBox="0 0 12 12" fill="none" xmlns="http://www.w3.org/2000/svg">
<path d="M3.28955 9V2.60156H5.0957C5.65234 2.60156 6.14453 2.72461 6.57227 2.9707C7 3.2168 7.32959 3.56689 7.56104 4.021C7.79541 4.4751 7.91406 4.99658 7.91699 5.58545V5.99414C7.91699 6.59766 7.7998 7.12646 7.56543 7.58057C7.33398 8.03467 7.00146 8.3833 6.56787 8.62646C6.13721 8.86963 5.63477 8.99414 5.06055 9H3.28955ZM4.1333 3.2959V8.31006H5.021C5.67139 8.31006 6.17676 8.10791 6.53711 7.70361C6.90039 7.29932 7.08203 6.72363 7.08203 5.97656V5.60303C7.08203 4.87646 6.91064 4.3125 6.56787 3.91113C6.22803 3.50684 5.74463 3.30176 5.11768 3.2959H4.1333Z" fill="#F79319"/>
<rect x="0.5" y="0.5" width="10" height="10" rx="2.5" stroke="#F79319"/>
</svg>
