<svg width="189" height="73" viewBox="0 0 189 73" fill="none" xmlns="http://www.w3.org/2000/svg">
<path d="M122.572 72.9323H65.5806C59.211 72.9323 54.0566 67.736 54.0566 61.4083V23.9449C54.0566 17.6172 59.211 12.4629 65.5806 12.4629H122.572C128.941 12.4629 134.096 17.6172 134.096 23.9869V34.6727H132.001V23.9449C132.001 18.7487 127.768 14.5163 122.572 14.5163H65.5806C60.3843 14.5582 56.1519 18.7906 56.1519 23.9449V61.4083C56.1519 66.6046 60.3843 70.837 65.5806 70.837H122.572C127.768 70.837 132.001 66.6046 132.001 61.4083V51.3929H134.096V61.4083C134.096 67.736 128.941 72.9323 122.572 72.9323Z" fill="#747D88"/>
<path d="M56.1519 48.4602H54.0566V23.9456C54.0566 17.6598 58.6243 12.5054 64.2396 12.4216L111.425 0.35289C114.694 -0.485217 118.172 0.185268 120.896 2.19672C123.536 4.16627 125.128 7.14155 125.296 10.4102C125.296 10.6197 125.296 10.7873 125.296 10.9968V13.4693H123.2V10.9968C123.2 10.8292 123.2 10.6616 123.2 10.494C123.075 7.89585 121.776 5.46534 119.638 3.87294C117.417 2.23863 114.61 1.69386 111.928 2.36434L64.533 14.5588H64.4073C59.8396 14.5588 56.1519 18.7912 56.1519 23.9456V48.4602Z" fill="#747D88"/>
<path d="M133.089 51.6033H118.758C113.813 51.6033 109.748 47.5804 109.748 42.5936C109.748 37.6488 113.771 33.584 118.758 33.584H133.089C138.034 33.584 142.099 37.6069 142.099 42.5936C142.057 47.5804 138.034 51.6033 133.089 51.6033ZM118.758 35.6793C114.944 35.6793 111.843 38.7802 111.843 42.5936C111.843 46.407 114.944 49.508 118.758 49.508H133.089C136.903 49.508 140.004 46.407 140.004 42.5936C140.004 38.7802 136.903 35.6793 133.089 35.6793H118.758Z" fill="#747D88"/>
<path d="M120.602 47.3282C118.003 47.3282 115.908 45.2329 115.908 42.6348C115.908 40.0367 118.003 37.9414 120.602 37.9414C123.2 37.9414 125.295 40.0367 125.295 42.6348C125.295 45.2329 123.2 47.3282 120.602 47.3282ZM120.602 39.9948C119.177 39.9948 118.003 41.1681 118.003 42.5929C118.003 44.0177 119.177 45.191 120.602 45.191C122.026 45.191 123.2 44.0177 123.2 42.5929C123.2 41.1681 122.026 39.9948 120.602 39.9948Z" fill="#747D88"/>
<path d="M169.99 7.97603C168.178 7.97603 155.555 8.32667 157.367 8.03447C157.951 7.91759 158.536 7.85915 159.062 7.68383L177.061 3.06703C179.516 2.42419 182.029 4.1774 182.146 6.74878C182.146 6.80722 182.146 6.86566 182.146 6.98254V7.97603H169.99Z" fill="#747D88"/>
<path d="M185.535 18.3789C187.054 18.3789 188.34 19.6062 188.34 21.184C188.34 22.7619 187.113 23.9892 185.535 23.9892H184.717V18.3789H185.535Z" fill="#747D88"/>
<path d="M179.983 24.8072C177.996 24.8072 176.36 23.1709 176.36 21.1839C176.36 19.1969 177.996 17.5606 179.983 17.5606H185.769V13.6451C185.769 11.3074 183.899 9.37891 181.503 9.37891H158.477C156.139 9.37891 154.211 11.249 154.211 13.6451V28.8396C154.211 31.1772 156.081 33.1057 158.477 33.1057H181.561C183.899 33.1057 185.827 31.2356 185.827 28.8396V24.8656H179.983V24.8072Z" fill="#747D88"/>
<path d="M180.743 20.0742C180.159 20.0742 179.691 20.5417 179.691 21.1261C179.691 21.7106 180.159 22.1781 180.743 22.1781C181.328 22.1781 181.795 21.7106 181.795 21.1261C181.795 20.5417 181.328 20.0742 180.743 20.0742Z" fill="#747D88"/>
<path d="M179.983 18.3789C178.463 18.3789 177.178 19.6062 177.178 21.184C177.178 22.7619 178.405 23.9892 179.983 23.9892H185.768V18.3789H179.983ZM180.743 23.0541C179.691 23.0541 178.814 22.1775 178.814 21.1256C178.814 20.0737 179.691 19.1971 180.743 19.1971C181.795 19.1971 182.671 20.0737 182.671 21.1256C182.671 22.1775 181.795 23.0541 180.743 23.0541Z" fill="#747D88"/>
<path d="M27.6572 46.3599C26.3582 46.3599 17.3066 46.6113 18.6057 46.4018C19.0247 46.318 19.4438 46.2761 19.8209 46.1503L32.7278 42.8398C34.4878 42.3789 36.2897 43.636 36.3735 45.4799C36.3735 45.5218 36.3735 45.5637 36.3735 45.6475V46.3599H27.6572Z" fill="#747D88"/>
<path d="M38.8035 53.8184C39.893 53.8184 40.8149 54.6984 40.8149 55.8298C40.8149 56.9613 39.9349 57.8413 38.8035 57.8413H38.2168V53.8184H38.8035Z" fill="#747D88"/>
<path d="M34.822 58.4282C33.3973 58.4282 32.2239 57.2549 32.2239 55.8301C32.2239 54.4053 33.3973 53.232 34.822 53.232H38.9707V50.4243C38.9707 48.7481 37.6297 47.3652 35.9116 47.3652H19.4009C17.7247 47.3652 16.3418 48.7062 16.3418 50.4243V61.3197C16.3418 62.9959 17.6828 64.3788 19.4009 64.3788H35.9535C37.6297 64.3788 39.0126 63.0378 39.0126 61.3197V58.4701H34.822V58.4282Z" fill="#747D88"/>
<path d="M35.3656 55.0332C34.9466 55.0332 34.6113 55.3684 34.6113 55.7875C34.6113 56.2066 34.9466 56.5418 35.3656 56.5418C35.7847 56.5418 36.1199 56.2066 36.1199 55.7875C36.1199 55.3684 35.7847 55.0332 35.3656 55.0332Z" fill="#747D88"/>
<path d="M34.822 53.8184C33.7325 53.8184 32.8105 54.6984 32.8105 55.8298C32.8105 56.9613 33.6906 57.8413 34.822 57.8413H38.9706V53.8184H34.822ZM35.3668 57.1708C34.6125 57.1708 33.9839 56.5422 33.9839 55.7879C33.9839 55.0336 34.6125 54.405 35.3668 54.405C36.1211 54.405 36.7496 55.0336 36.7496 55.7879C36.7496 56.5422 36.1211 57.1708 35.3668 57.1708Z" fill="#747D88"/>
<path d="M7.58998 4.52086C6.71866 4.52086 0.647575 4.6895 1.51889 4.54897C1.79996 4.49275 2.08103 4.46465 2.33399 4.38032L10.9909 2.15988C12.1714 1.8507 13.38 2.69391 13.4362 3.93061C13.4362 3.95872 13.4362 3.98683 13.4362 4.04304V4.52086H7.58998Z" fill="#747D88"/>
<path d="M15.0654 9.52344C15.7961 9.52344 16.4145 10.1137 16.4145 10.8726C16.4145 11.6315 15.8243 12.2217 15.0654 12.2217H14.6719V9.52344H15.0654Z" fill="#747D88"/>
<path d="M12.3951 12.6155C11.4395 12.6155 10.6525 11.8285 10.6525 10.8729C10.6525 9.91727 11.4395 9.13028 12.3951 9.13028H15.1777V7.24711C15.1777 6.12284 14.2783 5.19531 13.1259 5.19531H2.0518C0.927527 5.19531 0 6.09473 0 7.24711V14.5549C0 15.6792 0.89942 16.6067 2.0518 16.6067H13.154C14.2783 16.6067 15.2058 15.7073 15.2058 14.5549V12.6436H12.3951V12.6155Z" fill="#747D88"/>
<path d="M12.7598 10.3379C12.4788 10.3379 12.2539 10.5627 12.2539 10.8438C12.2539 11.1249 12.4788 11.3497 12.7598 11.3497C13.0409 11.3497 13.2658 11.1249 13.2658 10.8438C13.2658 10.5627 13.0409 10.3379 12.7598 10.3379Z" fill="#747D88"/>
<path d="M12.396 9.52344C11.6652 9.52344 11.0469 10.1137 11.0469 10.8726C11.0469 11.6315 11.6371 12.2217 12.396 12.2217H15.1786V9.52344H12.396ZM12.7614 11.772C12.2555 11.772 11.8339 11.3504 11.8339 10.8445C11.8339 10.3385 12.2555 9.91693 12.7614 9.91693C13.2673 9.91693 13.6889 10.3385 13.6889 10.8445C13.6889 11.3504 13.2673 11.772 12.7614 11.772Z" fill="#747D88"/>
</svg>
