<svg width="264" height="93" viewBox="0 0 264 93" fill="none" xmlns="http://www.w3.org/2000/svg">
<path d="M131.5 0C105.925 0 85 20.925 85 46.5C85 72.075 105.925 93 131.5 93C157.075 93 178 72.075 178 46.5C178 20.925 157.075 0 131.5 0ZM151.65 39.1375L129.562 61.225C128.787 62 127.625 62.3875 126.85 62.3875C126.075 62.3875 124.913 62 124.138 61.225L112.125 49.6C110.575 48.05 110.575 45.725 112.125 44.175C113.675 42.625 116 42.625 117.55 44.175L126.85 53.0875L146.225 33.7125C147.775 32.1625 150.1 32.1625 151.65 33.7125C153.2 35.2625 153.2 37.5875 151.65 39.1375Z" fill="#00C853"/>
<path d="M252.516 55.9993H220.478C216.898 55.9993 214 53.0782 214 49.521V28.4606C214 24.9034 216.898 22.0059 220.478 22.0059H252.516C256.097 22.0059 258.995 24.9034 258.995 28.4842V34.4913H257.817V28.4606C257.817 25.5395 255.438 23.1602 252.516 23.1602H220.478C217.557 23.1837 215.178 25.563 215.178 28.4606V49.521C215.178 52.4421 217.557 54.8214 220.478 54.8214H252.516C255.438 54.8214 257.817 52.4421 257.817 49.521V43.8908H258.995V49.521C258.995 53.0782 256.097 55.9993 252.516 55.9993Z" fill="#747D88"/>
<path d="M215.178 42.2424H214V28.4612C214 24.9276 216.568 22.0301 219.724 21.9829L246.25 15.1984C248.088 14.7272 250.043 15.1042 251.574 16.2349C253.058 17.3421 253.954 19.0147 254.048 20.8522C254.048 20.97 254.048 21.0642 254.048 21.182V22.5719H252.87V21.182C252.87 21.0878 252.87 20.9935 252.87 20.8993C252.799 19.4387 252.069 18.0724 250.867 17.1772C249.619 16.2585 248.041 15.9522 246.533 16.3291L219.889 23.1844H219.819C217.251 23.1844 215.178 25.5637 215.178 28.4612V42.2424Z" fill="#747D88"/>
<path d="M258.428 44.0086H250.371C247.592 44.0086 245.307 41.7471 245.307 38.9438C245.307 36.164 247.568 33.8789 250.371 33.8789H258.428C261.208 33.8789 263.493 36.1404 263.493 38.9438C263.469 41.7471 261.208 44.0086 258.428 44.0086ZM250.371 35.0568C248.228 35.0568 246.485 36.8 246.485 38.9438C246.485 41.0875 248.228 42.8308 250.371 42.8308H258.428C260.572 42.8308 262.315 41.0875 262.315 38.9438C262.315 36.8 260.572 35.0568 258.428 35.0568H250.371Z" fill="#747D88"/>
<path d="M251.41 41.607C249.949 41.607 248.771 40.4291 248.771 38.9685C248.771 37.508 249.949 36.3301 251.41 36.3301C252.87 36.3301 254.048 37.508 254.048 38.9685C254.048 40.4291 252.87 41.607 251.41 41.607ZM251.41 37.4844C250.609 37.4844 249.949 38.144 249.949 38.945C249.949 39.7459 250.609 40.4055 251.41 40.4055C252.211 40.4055 252.87 39.7459 252.87 38.945C252.87 38.144 252.211 37.4844 251.41 37.4844Z" fill="#747D88"/>
<path d="M48.2377 82.9337H25.5813C23.0491 82.9337 21 80.868 21 78.3524V63.4591C21 60.9436 23.0491 58.8945 25.5813 58.8945H48.2377C50.7699 58.8945 52.819 60.9436 52.819 63.4758V67.7239H51.986V63.4591C51.986 61.3934 50.3035 59.7108 48.2377 59.7108H25.5813C23.5155 59.7275 21.833 61.4101 21.833 63.4591V78.3524C21.833 80.4182 23.5155 82.1007 25.5813 82.1007H48.2377C50.3035 82.1007 51.986 80.4182 51.986 78.3524V74.3709H52.819V78.3524C52.819 80.868 50.7699 82.9337 48.2377 82.9337Z" fill="#747D88"/>
<path d="M21.833 73.2045H21V63.4588C21 60.96 22.8158 58.9109 25.0482 58.8776L43.8064 54.0797C45.1058 53.7466 46.4885 54.0131 47.5714 54.8127C48.6209 55.5957 49.2539 56.7785 49.3206 58.0779C49.3206 58.1612 49.3206 58.2279 49.3206 58.3112V59.2941H48.4876V58.3112C48.4876 58.2445 48.4876 58.1779 48.4876 58.1113C48.4376 57.0784 47.9212 56.1122 47.0716 55.4791C46.1886 54.8294 45.0725 54.6128 44.0063 54.8794L25.1648 59.7272H25.1148C23.299 59.7272 21.833 61.4098 21.833 63.4588V73.2045Z" fill="#747D88"/>
<path d="M52.4198 74.4545H46.7223C44.7566 74.4545 43.1406 72.8552 43.1406 70.8727C43.1406 68.907 44.7399 67.291 46.7223 67.291H52.4198C54.3856 67.291 56.0015 68.8903 56.0015 70.8727C55.9848 72.8552 54.3856 74.4545 52.4198 74.4545ZM46.7223 68.124C45.2064 68.124 43.9736 69.3568 43.9736 70.8727C43.9736 72.3887 45.2064 73.6215 46.7223 73.6215H52.4198C53.9358 73.6215 55.1685 72.3887 55.1685 70.8727C55.1685 69.3568 53.9358 68.124 52.4198 68.124H46.7223Z" fill="#747D88"/>
<path d="M47.4537 72.7551C46.4208 72.7551 45.5879 71.9221 45.5879 70.8893C45.5879 69.8564 46.4208 69.0234 47.4537 69.0234C48.4866 69.0234 49.3195 69.8564 49.3195 70.8893C49.3195 71.9221 48.4866 72.7551 47.4537 72.7551ZM47.4537 69.8397C46.8873 69.8397 46.4208 70.3062 46.4208 70.8726C46.4208 71.439 46.8873 71.9055 47.4537 71.9055C48.0201 71.9055 48.4866 71.439 48.4866 70.8726C48.4866 70.3062 48.0201 69.8397 47.4537 69.8397Z" fill="#747D88"/>
<path d="M20.2333 29.537H3.40315C1.52214 29.537 0 28.0024 0 26.1338V15.0705C0 13.2018 1.52214 11.6797 3.40315 11.6797H20.2333C22.1143 11.6797 23.6364 13.2018 23.6364 15.0828V18.2385H23.0177V15.0705C23.0177 13.536 21.7678 12.2861 20.2333 12.2861H3.40315C1.86864 12.2984 0.618755 13.5483 0.618755 15.0705V26.1338C0.618755 27.6683 1.86864 28.9182 3.40315 28.9182H20.2333C21.7678 28.9182 23.0177 27.6683 23.0177 26.1338V23.1762H23.6364V26.1338C23.6364 28.0024 22.1143 29.537 20.2333 29.537Z" fill="#747D88"/>
<path d="M0.618755 22.3108H0V15.0714C0 13.2151 1.34889 11.693 3.00715 11.6682L16.9415 8.10421C17.9068 7.85671 18.9339 8.05471 19.7383 8.64872C20.5179 9.23035 20.9882 10.109 21.0377 11.0742C21.0377 11.1361 21.0377 11.1856 21.0377 11.2475V11.9776H20.4189V11.2475C20.4189 11.198 20.4189 11.1485 20.4189 11.099C20.3818 10.3317 19.9982 9.61397 19.367 9.14372C18.7112 8.66109 17.882 8.50022 17.09 8.69822L3.09377 12.2994H3.05665C1.70776 12.2994 0.618755 13.5493 0.618755 15.0714V22.3108Z" fill="#747D88"/>
<path d="M23.3402 23.2393H19.1079C17.6477 23.2393 16.4473 22.0513 16.4473 20.5786C16.4473 19.1184 17.6353 17.918 19.1079 17.918H23.3402C24.8005 17.918 26.0008 19.106 26.0008 20.5786C25.9885 22.0513 24.8005 23.2393 23.3402 23.2393ZM19.1079 18.5367C17.9818 18.5367 17.066 19.4525 17.066 20.5786C17.066 21.7047 17.9818 22.6205 19.1079 22.6205H23.3402C24.4663 22.6205 25.3821 21.7047 25.3821 20.5786C25.3821 19.4525 24.4663 18.5367 23.3402 18.5367H19.1079Z" fill="#747D88"/>
<path d="M19.6516 21.9771C18.8844 21.9771 18.2656 21.3583 18.2656 20.5911C18.2656 19.8238 18.8844 19.2051 19.6516 19.2051C20.4189 19.2051 21.0376 19.8238 21.0376 20.5911C21.0376 21.3583 20.4189 21.9771 19.6516 21.9771ZM19.6516 19.8115C19.2309 19.8115 18.8844 20.158 18.8844 20.5787C18.8844 20.9995 19.2309 21.346 19.6516 21.346C20.0724 21.346 20.4189 20.9995 20.4189 20.5787C20.4189 20.158 20.0724 19.8115 19.6516 19.8115Z" fill="#747D88"/>
</svg>
