<svg width="230" height="92" viewBox="0 0 230 92" fill="none" xmlns="http://www.w3.org/2000/svg">
<path d="M219.247 26.9286C219.006 26.9286 218.764 26.8078 218.522 26.687L212.722 22.6995V16.7786C212.722 16.0536 213.206 15.5703 213.931 15.5703C214.656 15.5703 215.139 16.0536 215.139 16.7786V21.4911L219.851 24.7536C220.456 25.1161 220.576 25.8411 220.214 26.4453C219.972 26.687 219.61 26.9286 219.247 26.9286Z" fill="#6d7177"/>
<path d="M215.5 9.41667C222.146 9.41667 227.583 14.8542 227.583 21.5C227.583 28.1458 222.146 33.5833 215.5 33.5833C208.854 33.5833 203.417 28.1458 203.417 21.5C203.417 14.8542 208.854 9.41667 215.5 9.41667ZM215.5 7C207.525 7 201 13.525 201 21.5C201 29.475 207.525 36 215.5 36C223.475 36 230 29.475 230 21.5C230 13.525 223.475 7 215.5 7Z" fill="#6d7177"/>
<path d="M38.326 74.3703C38.176 74.3703 38.026 74.2953 37.876 74.2203L34.276 71.7453V68.0703C34.276 67.6203 34.576 67.3203 35.026 67.3203C35.476 67.3203 35.776 67.6203 35.776 68.0703V70.9953L38.701 73.0203C39.076 73.2453 39.151 73.6953 38.926 74.0703C38.776 74.2203 38.551 74.3703 38.326 74.3703Z" fill="#6d7177"/>
<path d="M36 63.5C40.125 63.5 43.5 66.875 43.5 71C43.5 75.125 40.125 78.5 36 78.5C31.875 78.5 28.5 75.125 28.5 71C28.5 66.875 31.875 63.5 36 63.5ZM36 62C31.05 62 27 66.05 27 71C27 75.95 31.05 80 36 80C40.95 80 45 75.95 45 71C45 66.05 40.95 62 36 62Z" fill="#6d7177"/>
<path d="M12.5843 35.7435C12.4176 35.7435 12.251 35.6602 12.0843 35.5768L8.08429 32.8268V28.7435C8.08429 28.2435 8.41762 27.9102 8.91762 27.9102C9.41762 27.9102 9.75096 28.2435 9.75096 28.7435V31.9935L13.001 34.2435C13.4176 34.4935 13.501 34.9935 13.251 35.4102C13.0843 35.5768 12.8343 35.7435 12.5843 35.7435Z" fill="#6d7177"/>
<path d="M10 23.6667C14.5833 23.6667 18.3333 27.4167 18.3333 32C18.3333 36.5833 14.5833 40.3333 10 40.3333C5.41667 40.3333 1.66667 36.5833 1.66667 32C1.66667 27.4167 5.41667 23.6667 10 23.6667ZM10 22C4.5 22 0 26.5 0 32C0 37.5 4.5 42 10 42C15.5 42 20 37.5 20 32C20 26.5 15.5 22 10 22Z" fill="#6d7177"/>
<path d="M120 0C94.7 0 74 20.7 74 46C74 71.3 94.7 92 120 92C145.3 92 166 71.3 166 46C166 20.7 145.3 0 120 0ZM133.417 54.05C134.95 55.5833 134.95 57.8833 133.417 59.4167C132.65 60.1833 131.5 60.5667 130.733 60.5667C129.967 60.5667 128.817 60.1833 128.05 59.4167L120 51.3667L111.95 59.4167C111.183 60.1833 110.033 60.5667 109.267 60.5667C108.117 60.5667 107.35 60.1833 106.583 59.4167C105.05 57.8833 105.05 55.5833 106.583 54.05L114.633 46L106.583 37.95C105.05 36.4167 105.05 34.1167 106.583 32.5833C108.117 31.05 110.417 31.05 111.95 32.5833L120 40.6333L128.05 32.5833C129.583 31.05 131.883 31.05 133.417 32.5833C134.95 34.1167 134.95 36.4167 133.417 37.95L125.367 46L133.417 54.05Z" fill="#6d7177"/>
</svg>
