<svg width="230" height="93" viewBox="0 0 230 93" fill="none" xmlns="http://www.w3.org/2000/svg">
<path d="M119.5 0C93.925 0 73 20.925 73 46.5C73 72.075 93.925 93 119.5 93C145.075 93 166 72.075 166 46.5C166 20.925 145.075 0 119.5 0ZM139.65 39.1375L117.562 61.225C116.787 62 115.625 62.3875 114.85 62.3875C114.075 62.3875 112.913 62 112.138 61.225L100.125 49.6C98.575 48.05 98.575 45.725 100.125 44.175C101.675 42.625 104 42.625 105.55 44.175L114.85 53.0875L134.225 33.7125C135.775 32.1625 138.1 32.1625 139.65 33.7125C141.2 35.2625 141.2 37.5875 139.65 39.1375Z" fill="#00C853"/>
<path d="M219.247 24.9286C219.006 24.9286 218.764 24.8078 218.522 24.687L212.722 20.6995V14.7786C212.722 14.0536 213.206 13.5703 213.931 13.5703C214.656 13.5703 215.139 14.0536 215.139 14.7786V19.4911L219.852 22.7536C220.456 23.1161 220.577 23.8411 220.214 24.4453C219.972 24.687 219.61 24.9286 219.247 24.9286Z" fill="#6d7177"/>
<path d="M215.5 7.41667C222.146 7.41667 227.583 12.8542 227.583 19.5C227.583 26.1458 222.146 31.5833 215.5 31.5833C208.854 31.5833 203.417 26.1458 203.417 19.5C203.417 12.8542 208.854 7.41667 215.5 7.41667ZM215.5 5C207.525 5 201 11.525 201 19.5C201 27.475 207.525 34 215.5 34C223.475 34 230 27.475 230 19.5C230 11.525 223.475 5 215.5 5Z" fill="#6d7177"/>
<path d="M38.3259 72.3703C38.1759 72.3703 38.0259 72.2953 37.8759 72.2203L34.2759 69.7453V66.0703C34.2759 65.6203 34.5759 65.3203 35.0259 65.3203C35.4759 65.3203 35.7759 65.6203 35.7759 66.0703V68.9953L38.7009 71.0203C39.0759 71.2453 39.1509 71.6953 38.9259 72.0703C38.7759 72.2203 38.5509 72.3703 38.3259 72.3703Z" fill="#6d7177"/>
<path d="M36 61.5C40.125 61.5 43.5 64.875 43.5 69C43.5 73.125 40.125 76.5 36 76.5C31.875 76.5 28.5 73.125 28.5 69C28.5 64.875 31.875 61.5 36 61.5ZM36 60C31.05 60 27 64.05 27 69C27 73.95 31.05 78 36 78C40.95 78 45 73.95 45 69C45 64.05 40.95 60 36 60Z" fill="#6d7177"/>
<path d="M12.5842 33.7435C12.4176 33.7435 12.2509 33.6602 12.0842 33.5768L8.08423 30.8268V26.7435C8.08423 26.2435 8.41756 25.9102 8.91756 25.9102C9.41756 25.9102 9.7509 26.2435 9.7509 26.7435V29.9935L13.0009 32.2435C13.4176 32.4935 13.5009 32.9935 13.2509 33.4102C13.0842 33.5768 12.8342 33.7435 12.5842 33.7435Z" fill="#6d7177"/>
<path d="M10 21.6667C14.5833 21.6667 18.3333 25.4167 18.3333 30C18.3333 34.5833 14.5833 38.3333 10 38.3333C5.41667 38.3333 1.66667 34.5833 1.66667 30C1.66667 25.4167 5.41667 21.6667 10 21.6667ZM10 20C4.5 20 0 24.5 0 30C0 35.5 4.5 40 10 40C15.5 40 20 35.5 20 30C20 24.5 15.5 20 10 20Z" fill="#6d7177"/>
</svg>
