<svg width="230" height="93" viewBox="0 0 230 93" fill="none" xmlns="http://www.w3.org/2000/svg">
<path d="M219.248 34.9286C219.006 34.9286 218.764 34.8078 218.523 34.687L212.723 30.6995V24.7786C212.723 24.0536 213.206 23.5703 213.931 23.5703C214.656 23.5703 215.139 24.0536 215.139 24.7786V29.4911L219.852 32.7536C220.456 33.1161 220.577 33.8411 220.214 34.4453C219.973 34.687 219.61 34.9286 219.248 34.9286Z" fill="#6d7177"/>
<path d="M215.5 17.4167C222.146 17.4167 227.583 22.8542 227.583 29.5C227.583 36.1458 222.146 41.5833 215.5 41.5833C208.854 41.5833 203.417 36.1458 203.417 29.5C203.417 22.8542 208.854 17.4167 215.5 17.4167ZM215.5 15C207.525 15 201 21.525 201 29.5C201 37.475 207.525 44 215.5 44C223.475 44 230 37.475 230 29.5C230 21.525 223.475 15 215.5 15Z" fill="#6d7177"/>
<path d="M38.3254 82.3703C38.1754 82.3703 38.0254 82.2953 37.8754 82.2203L34.2754 79.7453V76.0703C34.2754 75.6203 34.5754 75.3203 35.0254 75.3203C35.4754 75.3203 35.7754 75.6203 35.7754 76.0703V78.9953L38.7004 81.0203C39.0754 81.2453 39.1504 81.6953 38.9254 82.0703C38.7754 82.2203 38.5504 82.3703 38.3254 82.3703Z" fill="#6d7177"/>
<path d="M36 71.5C40.125 71.5 43.5 74.875 43.5 79C43.5 83.125 40.125 86.5 36 86.5C31.875 86.5 28.5 83.125 28.5 79C28.5 74.875 31.875 71.5 36 71.5ZM36 70C31.05 70 27 74.05 27 79C27 83.95 31.05 88 36 88C40.95 88 45 83.95 45 79C45 74.05 40.95 70 36 70Z" fill="#6d7177"/>
<path d="M12.584 43.7435C12.4173 43.7435 12.2507 43.6602 12.084 43.5768L8.08398 40.8268V36.7435C8.08398 36.2435 8.41732 35.9102 8.91732 35.9102C9.41732 35.9102 9.75065 36.2435 9.75065 36.7435V39.9935L13.0007 42.2435C13.4173 42.4935 13.5007 42.9935 13.2507 43.4102C13.084 43.5768 12.834 43.7435 12.584 43.7435Z" fill="#6d7177"/>
<path d="M10 31.6667C14.5833 31.6667 18.3333 35.4167 18.3333 40C18.3333 44.5833 14.5833 48.3333 10 48.3333C5.41667 48.3333 1.66667 44.5833 1.66667 40C1.66667 35.4167 5.41667 31.6667 10 31.6667ZM10 30C4.5 30 0 34.5 0 40C0 45.5 4.5 50 10 50C15.5 50 20 45.5 20 40C20 34.5 15.5 30 10 30Z" fill="#6d7177"/>
<path fill-rule="evenodd" clip-rule="evenodd" d="M115 9.5C94.5655 9.5 78 26.0655 78 46.5C78 66.9345 94.5655 83.5 115 83.5C135.435 83.5 152 66.9345 152 46.5C152 26.0655 135.435 9.5 115 9.5ZM69 46.5C69 21.0949 89.5949 0.5 115 0.5C140.405 0.5 161 21.0949 161 46.5C161 71.9051 140.405 92.5 115 92.5C89.5949 92.5 69 71.9051 69 46.5Z" fill="#6d7177" fill-opacity="0.3"/>
<path d="M113 0H116V10H113V0Z" fill="#FF5F66"/>
</svg>
