<svg width="256" height="133" viewBox="0 0 256 133" fill="none" xmlns="http://www.w3.org/2000/svg">
<path d="M230.116 31.7959C229.461 31.7959 228.923 32.3339 228.923 32.9889C228.923 33.5971 229.391 34.1117 229.999 34.1819C230.701 34.2521 231.309 33.6907 231.309 32.9889C231.309 32.3339 230.771 31.7959 230.116 31.7959Z" fill="#747D88"/>
<path d="M254.116 34.2048C250.794 34.2048 248.104 31.5147 248.104 28.193C248.104 27.538 247.566 27 246.911 27H213.296C212.641 27 212.103 27.538 212.103 28.193C212.103 31.5147 209.413 34.2048 206.091 34.2048C205.436 34.2048 204.898 34.7428 204.898 35.3978V55.0005C204.898 70.2756 214.84 83.96 229.764 88.4279C229.881 88.4513 229.998 88.4747 230.115 88.4747C230.232 88.4747 230.349 88.4513 230.466 88.4279C245.063 84.0536 255.332 70.6031 255.332 55.0005V35.3978C255.332 34.7428 254.794 34.2048 254.116 34.2048ZM252.923 55.0005C252.923 69.3399 243.776 81.7612 230.115 86.0185C216.571 81.7845 207.308 69.2697 207.308 55.0005V36.5206C210.98 35.9826 213.904 33.082 214.419 29.4094H245.811C246.349 33.082 249.25 36.006 252.923 36.5206V55.0005Z" fill="#747D88"/>
<path d="M249.811 38.1118C247.308 37.0124 245.32 35.024 244.22 32.5211C244.033 32.0766 243.589 31.7959 243.121 31.7959H234.91C234.255 31.7959 233.717 32.3339 233.717 32.9889C233.717 33.6439 234.255 34.1819 234.91 34.1819H242.349C243.612 36.6615 245.624 38.6732 248.103 39.9364V54.9776C248.103 66.7205 241.039 76.8727 230.091 80.9195C219.144 76.8727 212.079 66.7205 212.079 54.9776V39.9598C214.559 38.6966 216.571 36.6849 217.834 34.2053H225.272C225.927 34.2053 226.465 33.6673 226.465 33.0123C226.465 32.3573 225.927 31.8193 225.272 31.8193H217.062C216.594 31.8193 216.15 32.1 215.962 32.5444C214.863 35.0474 212.875 37.0358 210.372 38.1352C209.927 38.3223 209.646 38.7668 209.646 39.2346V55.0244C209.646 67.8901 217.6 79.1183 229.647 83.3757C229.787 83.4225 229.904 83.4459 230.044 83.4459C230.185 83.4459 230.325 83.4225 230.442 83.3757C242.489 79.1183 250.442 67.9135 250.442 55.0244V39.2112C250.536 38.72 250.232 38.2989 249.811 38.1118Z" fill="#747D88"/>
<path d="M19.6648 88.7969C19.154 88.7969 18.7344 89.2165 18.7344 89.7273C18.7344 90.2016 19.0992 90.603 19.5736 90.6577C20.1209 90.7124 20.5952 90.2746 20.5952 89.7273C20.5952 89.2165 20.1756 88.7969 19.6648 88.7969Z" fill="#747D88"/>
<path d="M38.3839 90.6756C35.7933 90.6756 33.6954 88.5776 33.6954 85.987C33.6954 85.4762 33.2758 85.0566 32.7649 85.0566H6.54934C6.03853 85.0566 5.61893 85.4762 5.61893 85.987C5.61893 88.5776 3.52095 90.6756 0.930406 90.6756C0.419594 90.6756 0 91.0952 0 91.606V106.894C0 118.807 7.7534 129.479 19.3926 132.964C19.4838 132.982 19.5751 133 19.6663 133C19.7575 133 19.8487 132.982 19.9399 132.964C31.3237 129.552 39.3325 119.062 39.3325 106.894V91.606C39.3325 91.0952 38.9129 90.6756 38.3839 90.6756ZM37.4535 106.894C37.4535 118.077 30.3203 127.764 19.6663 131.084C9.1034 127.782 1.87906 118.022 1.87906 106.894V92.4817C4.74326 92.0621 7.02367 89.7999 7.42502 86.9357H31.9075C32.3271 89.7999 34.5893 92.0803 37.4535 92.4817V106.894Z" fill="#747D88"/>
<path d="M35.0269 93.7226C33.0748 92.8651 31.5241 91.3144 30.6667 89.3624C30.5208 89.0158 30.1741 88.7969 29.8093 88.7969H23.4059C22.8951 88.7969 22.4755 89.2165 22.4755 89.7273C22.4755 90.2381 22.8951 90.6577 23.4059 90.6577H29.2072C30.1924 92.5915 31.7613 94.1604 33.6951 95.1455V106.876C33.6951 116.034 28.1856 123.952 19.6478 127.108C11.1099 123.952 5.60043 116.034 5.60043 106.876V95.1638C7.53421 94.1786 9.10314 92.6097 10.0883 90.6759H15.8896C16.4005 90.6759 16.82 90.2563 16.82 89.7455C16.82 89.2347 16.4005 88.8151 15.8896 88.8151H9.48625C9.12138 88.8151 8.77476 89.034 8.62881 89.3807C7.77138 91.3327 6.2207 92.8834 4.26867 93.7408C3.92204 93.8868 3.70312 94.2334 3.70312 94.5982V106.912C3.70312 116.946 9.90584 125.703 19.3011 129.023C19.4106 129.06 19.5018 129.078 19.6113 129.078C19.7207 129.078 19.8302 129.06 19.9214 129.023C29.3167 125.703 35.5194 116.965 35.5194 106.912V94.58C35.5924 94.1969 35.3552 93.8685 35.0269 93.7226Z" fill="#747D88"/>
<path d="M127.332 133C160.469 133 187.332 106.137 187.332 73C187.332 39.8629 160.469 13 127.332 13C94.1949 13 67.332 39.8629 67.332 73C67.332 106.137 94.1949 133 127.332 133Z" fill="#616161"/>
<path d="M127.332 111.164C106.263 111.164 89.1676 94.0694 89.1676 73C89.1676 51.9306 106.263 34.8356 127.332 34.8356C137.867 34.8356 147.396 39.0974 154.339 46.0407L169.758 30.6217C158.888 19.7039 143.9 13 127.332 13C94.1956 13 67.332 39.8635 67.332 73C67.332 106.136 94.1956 133 127.332 133C143.9 133 158.888 126.296 169.758 115.426L154.339 100.007C147.396 106.903 137.867 111.164 127.332 111.164Z" fill="#6d7177"/>
<path d="M165.496 73.0007H146.39C146.39 62.466 137.819 53.8945 127.284 53.8945C116.749 53.8945 108.178 62.466 108.178 73.0007C108.178 78.1244 110.189 82.7692 113.493 86.217L137.148 109.872C153.525 105.515 165.496 90.6703 165.496 73.0007Z" fill="#424242"/>
<path d="M187.331 73H165.495C165.495 90.6696 153.476 105.514 137.195 109.872L154.051 126.727C173.78 116.911 187.331 96.5595 187.331 73Z" fill="#616161"/>
<path d="M127.332 132.329C94.2913 132.329 67.5236 105.657 67.332 72.6641C67.332 72.7598 67.332 72.9035 67.332 72.9993C67.332 106.136 94.1956 132.999 127.332 132.999C160.469 132.999 187.332 106.136 187.332 72.9993C187.332 72.9035 187.332 72.7598 187.332 72.6641C187.14 105.657 160.373 132.329 127.332 132.329Z" fill="#212121" fill-opacity="0.1"/>
<path d="M137.195 109.872L137.722 110.398C153.764 105.849 165.495 91.1484 165.495 73.6704V73C165.495 90.6696 153.476 105.514 137.195 109.872Z" fill="white" fill-opacity="0.05"/>
<path d="M176.441 67.5664H127.31C124.294 67.5664 121.852 70.0085 121.852 73.0253C121.852 76.0421 124.294 78.4842 127.31 78.4842H176.441C179.457 78.4842 181.899 76.0421 181.899 73.0253C181.899 70.0085 179.457 67.5664 176.441 67.5664Z" fill="#6d7177"/>
<path opacity="0.5" d="M176.441 67.5664H127.31C124.294 67.5664 121.852 70.0085 121.852 73.0253C121.852 76.0421 124.294 78.4842 127.31 78.4842H176.441C179.457 78.4842 181.899 76.0421 181.899 73.0253C181.899 70.0085 179.457 67.5664 176.441 67.5664Z" fill="#BDBDBD"/>
<path d="M78.2489 77.0702C80.4969 77.0702 82.3192 75.2478 82.3192 72.9999C82.3192 70.752 80.4969 68.9297 78.2489 68.9297C76.001 68.9297 74.1787 70.752 74.1787 72.9999C74.1787 75.2478 76.001 77.0702 78.2489 77.0702Z" fill="#BDBDBD"/>
<path d="M127.332 27.9881C129.58 27.9881 131.402 26.1658 131.402 23.9179C131.402 21.67 129.58 19.8477 127.332 19.8477C125.084 19.8477 123.262 21.67 123.262 23.9179C123.262 26.1658 125.084 27.9881 127.332 27.9881Z" fill="#BDBDBD"/>
<path d="M127.332 126.152C129.58 126.152 131.402 124.33 131.402 122.082C131.402 119.834 129.58 118.012 127.332 118.012C125.084 118.012 123.262 119.834 123.262 122.082C123.262 124.33 125.084 126.152 127.332 126.152Z" fill="#BDBDBD"/>
<path d="M92.5673 42.3553C94.8152 42.3553 96.6375 40.533 96.6375 38.2851C96.6375 36.0371 94.8152 34.2148 92.5673 34.2148C90.3194 34.2148 88.4971 36.0371 88.4971 38.2851C88.4971 40.533 90.3194 42.3553 92.5673 42.3553Z" fill="#BDBDBD"/>
<path d="M96.6185 107.951C96.7204 105.705 94.9825 103.802 92.7368 103.701C90.4911 103.599 88.5881 105.337 88.4862 107.582C88.3843 109.828 90.1222 111.731 92.3679 111.833C94.6136 111.935 96.5167 110.197 96.6185 107.951Z" fill="#BDBDBD"/>
<path d="M162.096 111.836C164.344 111.836 166.166 110.013 166.166 107.766C166.166 105.518 164.344 103.695 162.096 103.695C159.848 103.695 158.025 105.518 158.025 107.766C158.025 110.013 159.848 111.836 162.096 111.836Z" fill="#757575"/>
<path d="M127.332 68.2134H176.414C179.287 68.2134 181.682 70.464 181.825 73.3371C181.825 73.2413 181.825 73.0976 181.825 73.0019C181.825 69.9851 179.383 67.543 176.366 67.543H127.332C124.315 67.543 121.873 69.9851 121.873 73.0019C121.873 73.0976 121.873 73.2413 121.873 73.3371C122.065 70.5118 124.411 68.2134 127.332 68.2134Z" fill="white" fill-opacity="0.2"/>
<path d="M181.874 73.3359C181.682 76.1612 179.336 78.4596 176.463 78.4596H127.333C124.46 78.4596 122.066 76.209 121.922 73.3359C121.922 73.4317 121.922 73.5754 121.922 73.6711C121.922 76.6879 124.364 79.13 127.381 79.13H176.463C179.48 79.13 181.922 76.6879 181.922 73.6711C181.874 73.5754 181.874 73.4796 181.874 73.3359Z" fill="#212121" fill-opacity="0.2"/>
<path d="M127.332 35.5054C137.867 35.5054 147.396 39.7671 154.34 46.7105L170.094 30.9563C169.998 30.8605 169.854 30.7169 169.759 30.6211L154.34 46.0401C147.444 39.1446 137.867 34.835 127.332 34.835C106.263 34.835 89.168 51.93 89.168 72.9994C89.168 73.0952 89.168 73.2388 89.168 73.3346C89.3595 52.4088 106.359 35.5054 127.332 35.5054Z" fill="#212121" fill-opacity="0.1"/>
<path d="M127.332 133C160.469 133 187.332 106.137 187.332 73C187.332 39.8629 160.469 13 127.332 13C94.1949 13 67.332 39.8629 67.332 73C67.332 106.137 94.1949 133 127.332 133Z" fill="url(#paint0_radial)"/>
<path d="M232.579 56L236.447 52.1316C237.184 51.3947 237.184 50.2895 236.447 49.5526C235.711 48.8158 234.605 48.8158 233.868 49.5526L230 53.4211L226.132 49.5526C225.395 48.8158 224.289 48.8158 223.553 49.5526C222.816 50.2895 222.816 51.3947 223.553 52.1316L227.421 56L223.553 59.8684C222.816 60.6053 222.816 61.7105 223.553 62.4474C223.921 62.8158 224.474 63 224.842 63C225.395 63 225.763 62.8158 226.132 62.4474L230 58.5789L233.868 62.4474C234.237 62.8158 234.789 63 235.158 63C235.526 63 236.079 62.8158 236.447 62.4474C237.184 61.7105 237.184 60.6053 236.447 59.8684L232.579 56Z" fill="#FF5F66"/>
<path d="M21.8421 107L24.6053 104.237C25.1316 103.711 25.1316 102.921 24.6053 102.395C24.0789 101.868 23.2895 101.868 22.7632 102.395L20 105.158L17.2368 102.395C16.7105 101.868 15.9211 101.868 15.3947 102.395C14.8684 102.921 14.8684 103.711 15.3947 104.237L18.1579 107L15.3947 109.763C14.8684 110.289 14.8684 111.079 15.3947 111.605C15.6579 111.868 16.0526 112 16.3158 112C16.7105 112 16.9737 111.868 17.2368 111.605L20 108.842L22.7632 111.605C23.0263 111.868 23.4211 112 23.6842 112C23.9474 112 24.3421 111.868 24.6053 111.605C25.1316 111.079 25.1316 110.289 24.6053 109.763L21.8421 107Z" fill="#FF5F66"/>
<path d="M48.4737 24L50.6842 21.7895C51.1053 21.3684 51.1053 20.7368 50.6842 20.3158C50.2632 19.8947 49.6316 19.8947 49.2105 20.3158L47 22.5263L44.7895 20.3158C44.3684 19.8947 43.7368 19.8947 43.3158 20.3158C42.8947 20.7368 42.8947 21.3684 43.3158 21.7895L45.5263 24L43.3158 26.2105C42.8947 26.6316 42.8947 27.2632 43.3158 27.6842C43.5263 27.8947 43.8421 28 44.0526 28C44.3684 28 44.5789 27.8947 44.7895 27.6842L47 25.4737L49.2105 27.6842C49.4211 27.8947 49.7368 28 49.9474 28C50.1579 28 50.4737 27.8947 50.6842 27.6842C51.1053 27.2632 51.1053 26.6316 50.6842 26.2105L48.4737 24Z" fill="#FF5F66"/>
<path d="M58.4167 14.3718H57.9086V10.0903C57.8832 4.53187 53.0811 0 47.1611 0C45.2302 0 43.4008 0.475721 41.851 1.32701C41.3428 1.60243 41.2158 2.27845 41.5715 2.72913C41.851 3.07967 42.3591 3.20486 42.7656 2.97951C44.0614 2.27845 45.5605 1.85281 47.1611 1.85281C51.9886 1.85281 55.9268 5.53338 55.9268 10.0903V14.3968H35.9056C34.8639 14.3968 34 15.198 34 16.1745V27.6669C34 30.6214 36.5662 33 39.6913 33H54.6056C57.7561 33 60.2969 30.5964 60.2969 27.6669V16.1745C60.2969 15.173 59.4584 14.3718 58.4167 14.3718ZM58.3405 27.6419C58.3405 29.5698 56.6636 31.1472 54.6056 31.1472H39.6913C37.6333 31.1472 35.9564 29.5698 35.9564 27.6419V16.2246H58.3151V27.6419H58.3405Z" fill="#747D88"/>
<defs>
<radialGradient id="paint0_radial" cx="0" cy="0" r="1" gradientUnits="userSpaceOnUse" gradientTransform="translate(84.9183 30.5526) scale(119.798)">
<stop stop-color="white" stop-opacity="0.1"/>
<stop offset="1" stop-color="white" stop-opacity="0"/>
</radialGradient>
</defs>
</svg>
