<svg width="260" height="123" viewBox="0 0 260 123" fill="none" xmlns="http://www.w3.org/2000/svg">
<path d="M233.101 28.5332C235.74 28.5332 237.88 26.3937 237.88 23.7544C237.88 21.1151 235.74 18.9756 233.101 18.9756C230.462 18.9756 228.322 21.1151 228.322 23.7544C228.322 26.3937 230.462 28.5332 233.101 28.5332Z" fill="#747D88"/>
<path d="M214.538 42.5045C213.986 42.5045 213.251 42.3207 212.884 41.7693C208.472 36.8067 206.083 30.3737 206.083 23.7569C206.083 17.14 208.472 10.707 212.884 5.74442C213.619 4.82542 215.089 4.82542 216.008 5.56062C216.927 6.29582 216.927 7.76622 216.192 8.68522C212.516 12.9126 210.494 18.2428 210.494 23.7569C210.494 29.2709 212.516 34.6011 216.192 38.8285C216.927 39.7475 216.927 41.2179 216.008 41.9531C215.641 42.3207 215.089 42.5045 214.538 42.5045Z" fill="#747D88"/>
<path d="M222.624 37.5395C222.073 37.5395 221.522 37.3557 221.154 36.9881C217.478 33.6797 215.272 28.7171 215.272 23.7545C215.272 18.2405 217.662 13.2779 222.073 9.78568C222.992 9.05048 224.462 9.23428 225.198 10.1533C225.933 11.0723 225.749 12.5427 224.83 13.2779C221.705 15.8511 219.867 19.7109 219.867 23.7545C219.867 27.4305 221.522 31.1065 224.279 33.6797C225.198 34.5987 225.198 35.8853 224.462 36.8043C223.911 37.1719 223.176 37.5395 222.624 37.5395Z" fill="#747D88"/>
<path d="M251.479 42.5016C250.928 42.5016 250.377 42.3178 250.009 41.9502C249.09 41.215 249.09 39.7446 249.825 38.8256C253.501 34.5981 255.523 29.2679 255.523 23.7539C255.523 18.2399 253.501 12.9097 249.825 8.68229C249.09 7.76329 249.09 6.29289 250.009 5.55769C250.928 4.82249 252.398 4.82249 253.134 5.74149C257.545 10.7041 259.934 17.1371 259.934 23.7539C259.934 30.3707 257.545 36.8037 253.134 41.7664C252.766 42.134 252.031 42.5016 251.479 42.5016Z" fill="#747D88"/>
<path d="M243.394 37.355C242.842 37.355 242.107 37.1712 241.74 36.6198C240.821 35.7008 241.004 34.2304 241.923 33.4952C244.68 30.922 246.335 27.4297 246.335 23.5699C246.335 19.5263 244.497 15.6665 241.372 13.0933C240.453 12.3581 240.269 10.8877 241.004 9.96871C241.74 9.04971 243.21 8.86591 244.129 9.60111C248.356 13.0933 250.93 18.0559 250.93 23.5699C250.93 28.5325 248.724 33.4952 245.048 36.8036C244.497 37.1712 243.945 37.355 243.394 37.355Z" fill="#747D88"/>
<path d="M20.2608 103.708C22.1895 103.708 23.753 102.145 23.753 100.216C23.753 98.2871 22.1895 96.7236 20.2608 96.7236C18.3321 96.7236 16.7686 98.2871 16.7686 100.216C16.7686 102.145 18.3321 103.708 20.2608 103.708Z" fill="#747D88"/>
<path d="M7.0283 113.45C6.6607 113.45 6.1093 113.266 5.9255 112.899C2.80089 109.406 0.962891 104.811 0.962891 100.033C0.962891 95.2537 2.61709 90.6587 5.9255 87.1665C6.4769 86.6151 7.3959 86.6151 8.1311 87.1665C8.86631 87.7179 8.86631 88.8207 8.3149 89.3721C5.7417 92.3129 4.2713 96.1727 4.2713 100.033C4.2713 103.892 5.7417 107.752 8.3149 110.693C8.86631 111.428 8.86631 112.347 8.1311 112.899C7.7635 113.45 7.3959 113.45 7.0283 113.45Z" fill="#747D88"/>
<path d="M12.7257 109.959C12.3581 109.959 11.9905 109.775 11.6229 109.591C9.04971 107.202 7.39551 103.709 7.39551 100.217C7.39551 96.3573 9.23351 92.6813 12.1743 90.2919C12.9095 89.7405 13.8285 89.9243 14.3799 90.4757C14.9313 91.2109 14.7475 92.1299 14.1961 92.6813C11.9905 94.5193 10.5201 97.2763 10.5201 100.217C10.5201 102.974 11.6229 105.547 13.6447 107.202C14.3799 107.753 14.3799 108.856 13.8285 109.407C13.6447 109.775 13.2771 109.959 12.7257 109.959Z" fill="#747D88"/>
<path d="M33.3125 113.451C32.9449 113.451 32.5773 113.267 32.2097 113.083C31.4745 112.532 31.4745 111.429 32.0259 110.877C34.5991 107.937 36.0695 104.077 36.0695 100.217C36.0695 96.3573 34.5991 92.4975 32.0259 89.5567C31.4745 88.8215 31.4745 87.9025 32.2097 87.3511C32.9449 86.7997 33.8639 86.7997 34.4153 87.5349C37.5399 91.0271 39.3779 95.6221 39.3779 100.401C39.3779 105.18 37.7237 109.775 34.4153 113.267C34.2315 113.267 33.8639 113.451 33.3125 113.451Z" fill="#747D88"/>
<path d="M27.6127 109.957C27.2451 109.957 26.6937 109.773 26.5099 109.406C25.9585 108.671 25.9585 107.752 26.6937 107.2C28.7155 105.362 29.8183 102.789 29.8183 100.216C29.8183 97.2749 28.5317 94.5179 26.1423 92.6799C25.4071 92.1285 25.4071 91.2095 25.9585 90.4743C26.5099 89.7391 27.4289 89.7391 28.1641 90.2905C31.2887 92.6799 32.9429 96.3559 32.9429 100.216C32.9429 103.708 31.4725 107.2 28.7155 109.59C28.3479 109.773 27.9803 109.957 27.6127 109.957Z" fill="#747D88"/>
<path d="M51.8757 12.1772C53.1954 12.1772 54.2651 11.1075 54.2651 9.78784C54.2651 8.46821 53.1954 7.39844 51.8757 7.39844C50.5561 7.39844 49.4863 8.46821 49.4863 9.78784C49.4863 11.1075 50.5561 12.1772 51.8757 12.1772Z" fill="#747D88"/>
<path d="M42.502 19.1612C42.1344 19.1612 41.9506 18.9774 41.583 18.7936C39.3774 16.2204 38.0908 13.0958 38.0908 9.60357C38.0908 6.11136 39.3774 2.98676 41.583 0.413551C41.9506 -0.13785 42.6858 -0.13785 43.2372 0.413551C43.7886 0.781151 43.7886 1.51635 43.2372 2.06775C41.3992 4.08956 40.2964 6.84656 40.2964 9.60357C40.2964 12.3606 41.3992 15.1176 43.2372 17.1394C43.6048 17.6908 43.6048 18.2422 43.2372 18.7936C43.0534 19.1612 42.8696 19.1612 42.502 19.1612Z" fill="#747D88"/>
<path d="M46.7287 16.7719C46.5449 16.7719 46.1773 16.5881 45.9935 16.4043C44.1555 14.7501 43.0527 12.1769 43.0527 9.78748C43.0527 7.03048 44.3393 4.45727 46.3611 2.80307C46.9125 2.43547 47.6477 2.43547 48.0153 2.98687C48.3829 3.53827 48.3829 4.27347 47.8315 4.64107C46.1773 5.74388 45.2583 7.58188 45.2583 9.78748C45.2583 11.6255 45.9935 13.4635 47.4639 14.7501C48.0153 15.1177 48.0153 15.8529 47.4639 16.4043C47.2801 16.5881 46.9125 16.7719 46.7287 16.7719Z" fill="#747D88"/>
<path d="M61.2493 19.161C61.0655 19.161 60.6979 18.9772 60.5141 18.7934C59.9627 18.4258 59.9627 17.6906 60.5141 17.1392C62.3521 15.1174 63.4549 12.3604 63.4549 9.60341C63.4549 6.84641 62.3521 4.0894 60.5141 2.0676C60.1465 1.5162 60.1465 0.964797 60.5141 0.413396C61.0655 0.0457951 61.6169 0.0457951 62.1683 0.413396C64.3739 2.9866 65.6605 6.11121 65.6605 9.60341C65.6605 13.0956 64.3739 16.2202 62.1683 18.7934C61.8007 18.9772 61.6169 19.161 61.2493 19.161Z" fill="#747D88"/>
<path d="M57.2059 16.5883C56.8383 16.5883 56.6545 16.4045 56.2869 16.2207C55.9193 15.6693 55.9193 15.1179 56.2869 14.5665C57.7573 13.2799 58.4925 11.4419 58.4925 9.60389C58.6763 7.58209 57.7573 5.74408 56.1031 4.45748C55.5517 4.08988 55.5517 3.35468 55.9193 2.80328C56.2869 2.25188 57.0221 2.25188 57.5735 2.61948C59.7791 4.27368 60.8819 6.84688 60.8819 9.60389C60.8819 12.1771 59.7791 14.5665 57.9411 16.2207C57.7573 16.5883 57.3897 16.5883 57.2059 16.5883Z" fill="#747D88"/>
<path d="M116.575 65.4782C116.575 63.824 116.024 62.7212 115.105 61.8022C114.002 60.8832 112.532 60.5156 110.51 60.5156H105.18V70.4408H110.51C112.532 70.4408 114.002 70.0732 115.105 69.1542C116.024 68.2352 116.575 66.9486 116.575 65.4782Z" fill="#747D88"/>
<path d="M183.293 34.2324L152.966 4.82439C151.128 2.98638 148.555 2.06738 145.982 2.06738H108.486C102.972 2.06738 98.3774 6.66239 98.3774 12.1764V43.7901H75.9537C70.4397 43.7901 65.8447 48.3851 65.8447 53.8991V82.7557C65.8447 88.2697 70.4397 92.8647 75.9537 92.8647H98.3774V112.715C98.3774 118.229 102.972 122.824 108.486 122.824H176.309C181.823 122.824 186.418 118.229 186.418 112.715V41.4007C186.418 38.6436 185.131 36.0704 183.293 34.2324ZM91.7606 83.6747H85.1438V55.0019H91.7606V83.6747ZM151.679 17.6904L175.757 40.8493H155.723C153.517 40.8493 151.679 38.8274 151.679 36.2542V17.6904ZM105.178 75.7713V83.6747H98.5612V55.0019H110.876C113.449 55.0019 115.655 55.3695 117.493 56.2885C119.331 57.2075 120.801 58.3103 121.72 59.9645C122.639 61.4349 123.19 63.2729 123.19 65.4785C123.19 67.5003 122.639 69.3383 121.72 70.9925C120.801 72.6467 119.331 73.7495 117.493 74.6685C115.655 75.5875 113.449 75.9551 110.876 75.9551H105.178V75.7713ZM176.309 107.753C176.309 110.51 174.103 112.715 171.346 112.715H113.449C110.692 112.715 108.486 110.51 108.486 107.753V92.8647H132.197C135.321 92.8647 138.078 91.3943 139.916 89.0049C141.387 87.3507 142.122 85.1451 142.122 82.7557V53.8991C142.122 48.3851 137.527 43.7901 132.013 43.7901H108.486V17.139C108.486 14.382 110.692 12.1764 113.449 12.1764H141.57V36.2542C141.57 44.3415 147.82 50.9583 155.723 50.9583H176.309V107.753Z" fill="#747D88"/>
</svg>
