<svg width="257" height="116" viewBox="0 0 257 116" fill="none" xmlns="http://www.w3.org/2000/svg">
<path d="M206.579 30.9206C206.484 29.9678 206.388 29.1102 206.388 28.3479C206.388 16.5325 216.107 6.8134 227.923 6.8134C233.449 6.8134 238.595 9.00497 242.406 12.5305L240.501 14.4362C240.024 14.9127 239.929 15.4844 240.024 16.0561C240.215 16.6278 240.691 17.009 241.263 17.1995C241.549 17.2948 252.507 20.8204 251.84 20.6298C252.697 20.9157 254.031 19.9628 253.745 18.7241C253.65 18.4382 251.268 6.24169 251.363 7.00397C251.268 6.43226 250.791 5.95583 250.22 5.76526C249.648 5.57469 249.076 5.76526 248.6 6.24169L246.98 7.86154C242.025 3.19255 235.165 0.333984 227.828 0.333984C212.391 0.333984 199.623 13.007 199.623 28.5385V28.6338C199.623 29.5866 199.623 30.2536 199.718 30.8254C199.814 31.5876 200.29 32.1594 201.052 32.2546L204.483 32.9216C205.721 32.9216 206.769 31.9688 206.579 30.9206Z" fill="#747D88"/>
<path d="M254.792 24.5364L251.362 23.8694C250.219 23.6788 249.266 24.5364 249.361 25.6798C249.456 26.6326 249.552 27.5855 249.552 28.2525C249.552 40.0679 239.833 49.787 228.017 49.787C222.491 49.787 217.345 47.5955 213.534 44.0699L215.439 42.1642C215.916 41.6878 216.011 41.116 215.916 40.5443C215.725 39.9726 215.249 39.5915 214.677 39.4009C214.391 39.3056 203.433 35.7801 204.1 35.9706C203.529 35.8753 202.957 36.0659 202.576 36.4471C202.195 36.8282 202.004 37.3999 202.099 37.9716C202.195 38.2575 204.577 50.3587 204.482 49.5965C204.577 50.1682 205.053 50.6446 205.625 50.8352C206.292 51.0257 206.864 50.8352 207.245 50.3587L208.865 48.7389C213.82 53.4079 220.68 56.3617 228.017 56.3617C243.453 56.3617 256.222 43.6888 256.222 28.1572V28.0619C256.222 27.2996 256.222 26.6326 256.126 25.8704C256.031 25.2986 255.459 24.7269 254.792 24.5364Z" fill="#747D88"/>
<path d="M3.43028 36.7335C3.33499 36.257 3.33499 35.7806 3.33499 35.3995C3.33499 29.3965 8.28984 24.3463 14.3881 24.3463C17.2467 24.3463 19.8194 25.4898 21.8204 27.3002L20.8675 28.2531C20.677 28.4436 20.5817 28.8248 20.677 29.1106C20.7722 29.3965 21.0581 29.5871 21.344 29.6823C21.5345 29.6823 27.0611 31.4928 26.7752 31.4928C27.2517 31.6833 27.9187 31.2069 27.7281 30.5399C27.7281 30.3493 26.4894 24.1558 26.4894 24.5369C26.3941 24.2511 26.2035 23.9652 25.9177 23.8699C25.6318 23.7746 25.3459 23.8699 25.0601 24.0605L24.2025 24.9181C21.6298 22.5359 18.1043 21.1066 14.3881 21.1066C6.47942 20.9161 0 27.3955 0 35.3995C0 35.8759 0 36.257 0 36.5429C0 36.924 0.285857 37.2099 0.666999 37.3052L2.38214 37.6863C3.04914 37.7816 3.52556 37.3052 3.43028 36.7335Z" fill="#747D88"/>
<path d="M28.1092 33.4939L26.3941 33.1128C25.8224 33.0175 25.3459 33.4939 25.3459 34.0656C25.4412 34.5421 25.4412 35.0185 25.4412 35.3996C25.4412 41.4026 20.4864 46.4528 14.3881 46.4528C11.5295 46.4528 8.95682 45.3093 6.95583 43.4989L7.90868 42.5461C8.09925 42.3555 8.19454 41.9743 8.09925 41.6885C8.00397 41.4026 7.71811 41.2121 7.43225 41.1168C7.24168 41.1168 1.71512 39.3063 2.00098 39.3063C1.71512 39.2111 1.42927 39.3063 1.23869 39.4969C1.04812 39.6875 0.952838 39.9733 1.04812 40.2592C1.04812 40.4498 2.28684 46.548 2.28684 46.2622C2.38212 46.548 2.57269 46.8339 2.85855 46.9292C3.23969 47.0245 3.52555 46.9292 3.71612 46.7386L4.57369 45.881C7.1464 48.2632 10.672 49.7878 14.3881 49.7878C22.2968 49.7878 28.7762 43.3083 28.7762 35.3996V35.3044C28.7762 34.9232 28.7762 34.5421 28.7762 34.1609C28.7762 33.8751 28.4904 33.4939 28.1092 33.4939Z" fill="#747D88"/>
<path d="M28.2046 95.7159C28.1093 95.0489 28.1093 94.3819 28.1093 93.7149C28.1093 84.8534 35.4463 77.5164 44.3078 77.5164C48.5004 77.5164 52.3118 79.2315 55.1704 81.8042L53.7411 83.2335C53.4552 83.5194 53.2647 83.9958 53.4552 84.4722C53.6458 84.8534 53.9317 85.2345 54.4081 85.3298C54.6939 85.4251 62.8885 87.9978 62.3168 87.9025C62.9838 88.0931 63.9366 87.4261 63.7461 86.4732C63.6508 86.1874 61.8404 77.1352 61.9356 77.6117C61.8404 77.1352 61.5545 76.7541 61.0781 76.6588C60.6969 76.5635 60.2205 76.6588 59.8394 76.9447L58.6007 78.1834C54.8845 74.6578 49.7391 72.5615 44.2125 72.5615C32.5877 72.5615 22.9639 82.0901 22.9639 93.8102V93.9055C22.9639 94.5725 22.9639 95.1442 23.0592 95.5253C23.1544 96.097 23.5356 96.4782 24.012 96.6688L26.5847 97.1452C27.5376 97.2405 28.2999 96.5735 28.2046 95.7159Z" fill="#747D88"/>
<path d="M64.4138 90.9523L61.841 90.4759C60.9835 90.2853 60.2212 91.0476 60.3165 91.8099C60.4118 92.5722 60.4118 93.2392 60.4118 93.8109C60.4118 102.672 53.0748 110.009 44.2132 110.009C40.0207 110.009 36.2092 108.294 33.3507 105.722L34.78 104.292C35.0658 104.006 35.2564 103.53 35.0658 103.054C34.8752 102.672 34.5894 102.291 34.113 102.196C33.8271 102.101 25.6325 99.528 26.2043 99.6233C25.8231 99.528 25.3467 99.7186 25.0608 100.004C24.775 100.29 24.6797 100.767 24.6797 101.148C24.775 101.434 26.5854 110.486 26.4901 109.914C26.5854 110.391 26.8713 110.772 27.3477 110.867C27.8241 110.962 28.3005 110.867 28.5864 110.581L29.8251 109.342C33.5412 112.868 38.6867 115.06 44.3085 115.06C55.9333 115.06 65.5572 105.531 65.5572 93.8109V93.7156C65.5572 93.1439 65.5572 92.6675 65.4619 92.0958C65.3666 91.5241 64.9855 91.0476 64.4138 90.9523Z" fill="#747D88"/>
<path d="M171.5 48.8H166.7V39.7C166.7 22.8 152.9 9 136 9C119 9 105.2 22.8 105.2 39.7V48.8H100.1C97.8 48.8 96 50.6 96 52.9V106.6C96 111.3 99.8 115.1 104.5 115.1H167.1C171.8 115.1 175.6 111.3 175.6 106.6V52.9C175.6 50.7 173.8 48.8 171.5 48.8ZM142.3 94.9C142.4 96.2 141.4 97.3 140 97.3H131.4C130.1 97.3 129 96.2 129.1 94.8L130.2 82C128.3 80.4 127 78 127 75.3C127 70.4 131 66.5 135.8 66.5C140.6 66.5 144.7 70.5 144.7 75.3C144.7 78 143.4 80.4 141.4 82L142.3 94.9ZM157.9 48.8H114.1V39.7C114.1 27.6 123.9 17.8 136 17.8C148.1 17.8 157.9 27.6 157.9 39.7V48.8Z" fill="#747D88"/>
</svg>
