<svg width="222" height="234" viewBox="0 0 222 234" fill="none" xmlns="http://www.w3.org/2000/svg">
<path d="M97.6035 116.189L99.6354 125.897L99.9365 128.381L160.593 135.906L148.778 108.889C148.778 108.889 147.122 108.137 145.316 106.632C142.607 104.299 139.296 100.611 137.264 95.3432C135.232 90 133.576 83.829 133.125 82.3991C132.598 80.9692 131.92 79.4641 131.92 79.4641L130.792 80.6682L98.8076 115.06L97.6035 116.189Z" fill="#747D88"/>
<path d="M26.7871 2.32629C26.7871 2.32629 60.6525 18.8827 79.4666 23.9249C98.2807 28.9671 156.078 37.17 156.078 37.17C156.078 37.17 156.078 45.4482 145.768 44.8462C135.457 44.2441 103.097 38.9762 103.097 38.9762" stroke="#747D88" stroke-width="3" stroke-miterlimit="10" stroke-linecap="round" stroke-linejoin="round"/>
<path d="M137.338 44.0184L139.671 54.7048" stroke="#747D88" stroke-width="2" stroke-miterlimit="10" stroke-linecap="round" stroke-linejoin="round"/>
<path d="M96.6992 44.8462C96.6992 44.8462 127.63 51.7698 132.446 52.8234C137.338 53.8017 142.305 56.7367 144.788 57.7903C147.272 58.8439 144.788 69.6808 144.788 69.6808" stroke="#747D88" stroke-width="3" stroke-miterlimit="10" stroke-linecap="round" stroke-linejoin="round"/>
<path d="M88.3464 52.8234L139.747 67.4984C139.747 67.4984 145.541 68.7025 145.993 71.487C146.52 74.2715 148.25 90.7526 150.659 97.2247C153.067 103.697 156.83 111.523 150.659 109.567C144.488 107.61 137.865 99.8586 134.629 87.5166C131.393 75.1745 130.791 73.8199 112.127 74.1209C93.4638 74.422 89.7762 75.8518 91.5071 89.3227C93.238 102.794 103.849 133.498 98.7318 132.896C93.6143 132.294 70.5858 95.4938 48.6862 82.7002C26.7866 69.9066 2.17773 60.7253 2.17773 60.7253" stroke="#747D88" stroke-width="3" stroke-miterlimit="10" stroke-linecap="round" stroke-linejoin="round"/>
<path d="M71.5645 57.2635C71.5645 57.2635 75.7787 46.6523 81.9497 39.5782C88.1207 32.5041 93.5393 26.9351 93.5393 26.9351" stroke="#747D88" stroke-width="3" stroke-miterlimit="10" stroke-linecap="round" stroke-linejoin="round"/>
<path d="M97.6035 116.189L131.92 79.3137" stroke="#747D88" stroke-width="2" stroke-miterlimit="10" stroke-linecap="round" stroke-linejoin="round"/>
<path d="M99.8613 127.779L167.968 137.035L153.82 108.889" stroke="#747D88" stroke-width="2" stroke-miterlimit="10" stroke-linecap="round" stroke-linejoin="round"/>
<path d="M24.8301 232.084V185.576H78.0364" stroke="#747D88" stroke-width="2" stroke-miterlimit="10" stroke-linecap="round" stroke-linejoin="round"/>
<path d="M78.0352 232.084V158.86H164.204V189.489" stroke="#747D88" stroke-width="2" stroke-miterlimit="10" stroke-linecap="round" stroke-linejoin="round"/>
<path d="M137.863 232.084V199.724H191.672V232.084" stroke="#747D88" stroke-width="2" stroke-miterlimit="10" stroke-linecap="round" stroke-linejoin="round"/>
<path d="M2.17773 232.084H211.315" stroke="#747D88" stroke-width="2" stroke-miterlimit="10" stroke-linecap="round" stroke-linejoin="round"/>
<path d="M155.215 190.356H201.481V220.936H155.215V190.356Z" stroke="#747D88" stroke-width="2"/>
<path d="M35.6113 191.467H77.0343V231.084H35.6113V191.467Z" stroke="#747D88" stroke-width="2"/>
<path d="M126.427 119.726C121.31 118.823 117.547 114.383 115.741 111.824C114.536 110.093 114.988 107.61 116.719 106.406C119.278 104.6 124.32 101.665 129.437 102.568C134.555 103.471 138.317 107.911 140.124 110.47C141.328 112.201 140.876 114.684 139.145 115.888C136.587 117.77 131.544 120.629 126.427 119.726ZM128.91 105.503C124.847 104.75 120.557 107.234 118.375 108.814C117.998 109.115 117.848 109.792 118.149 110.169C119.654 112.351 122.815 116.114 126.879 116.867C130.942 117.619 135.232 115.136 137.414 113.555C137.791 113.254 137.941 112.577 137.64 112.201C136.135 110.018 132.974 106.255 128.91 105.503Z" fill="#F5F5F5"/>
<path d="M127.33 114.308C129.061 114.609 130.716 113.48 131.017 111.749C131.318 110.018 130.189 108.363 128.458 108.062C126.728 107.761 125.072 108.889 124.771 110.62C124.47 112.351 125.674 114.007 127.33 114.308Z" fill="#F5F5F5"/>
<path d="M181.139 128.08C180.913 126.424 181.139 124.919 181.44 123.564C181.741 122.135 182.267 120.855 182.869 119.651C183.472 118.372 184.299 117.243 185.202 116.114C186.106 115.06 187.234 114.007 188.664 113.179C188.89 114.835 188.664 116.34 188.363 117.694C188.062 119.124 187.535 120.404 186.933 121.608C186.331 122.887 185.503 124.016 184.6 125.145C183.697 126.198 182.644 127.252 181.139 128.08Z" fill="#EAB245"/>
<path d="M187.758 139.293C190.091 136.734 192.725 134.552 195.434 132.52C198.143 130.488 200.928 128.607 203.712 126.876C206.572 125.145 209.507 123.489 212.517 122.059C215.527 120.629 218.688 119.275 221.999 118.296C219.667 120.855 217.033 123.038 214.399 125.07C211.689 127.101 208.98 128.983 206.12 130.714C203.261 132.445 200.326 134.1 197.315 135.53C194.23 136.96 191.069 138.315 187.758 139.293Z" fill="#45AFEA"/>
<path d="M189.49 148.926C191.748 149.152 193.855 149.754 195.887 150.431C197.919 151.184 199.8 152.011 201.682 153.065C203.488 154.119 205.294 155.247 206.95 156.527C208.605 157.881 210.261 159.311 211.616 161.117C209.283 160.892 207.251 160.29 205.219 159.612C203.187 158.86 201.306 158.032 199.499 156.978C197.693 155.925 195.887 154.796 194.231 153.516C192.501 152.162 190.92 150.732 189.49 148.926Z" fill="#D074E8"/>
</svg>
