<svg width="398" height="188" viewBox="0 0 398 188" fill="none" xmlns="http://www.w3.org/2000/svg">
<path d="M233.792 148.896C237.192 145.495 237.192 140.055 233.792 136.654C229.371 132.234 220.87 125.093 210.329 125.093C199.788 125.093 191.286 132.574 186.866 136.654C183.465 140.055 183.805 145.495 186.866 148.896C191.286 153.316 199.788 160.457 210.329 160.457C220.87 160.457 229.371 153.316 233.792 148.896ZM192.307 142.435C195.707 139.035 202.508 132.914 210.329 132.914C218.15 132.914 224.611 138.694 228.351 142.435C228.691 142.775 228.691 143.115 228.351 143.455C224.951 146.856 218.15 152.976 210.329 152.976C202.508 152.976 196.047 147.196 192.307 143.455C191.967 143.115 191.967 142.435 192.307 142.435Z" fill="#747D88"/>
<path d="M173.264 170.319C184.145 176.099 196.387 179.5 209.648 179.5C222.91 179.5 235.152 176.099 246.033 170.319H173.264Z" fill="#747D88"/>
<path d="M216.451 142.775C216.451 139.375 213.73 136.654 210.33 136.654C206.929 136.654 204.209 139.375 204.209 142.775C204.209 146.176 206.929 148.896 210.33 148.896C213.73 148.896 216.451 146.176 216.451 142.775Z" fill="#747D88"/>
<path d="M282.76 117.612C280.719 117.612 278.679 115.912 278.679 113.531C278.679 111.151 280.379 109.451 282.76 109.451H285.48C285.48 107.411 285.82 105.37 285.82 103.33C285.82 97.8894 285.14 92.4487 284.12 87.348L272.558 92.4487C271.878 92.7887 271.538 92.7887 270.858 92.7887C269.498 92.7887 267.798 91.7686 267.118 90.4084C266.097 88.3681 267.118 85.9878 269.158 85.3077L281.739 79.867C279.359 72.046 275.619 64.9051 270.858 58.7843L264.397 65.2451C263.717 65.9252 262.697 66.2653 261.677 66.2653C260.657 66.2653 259.637 65.9252 258.957 65.2451C257.256 63.5449 257.256 61.1646 258.957 59.8044L266.097 52.6635C259.977 45.8626 252.836 40.4219 244.675 36.3414L238.554 54.7038C237.874 56.404 236.514 57.4241 234.813 57.4241C234.473 57.4241 234.133 57.4241 233.453 57.0841C231.413 56.404 230.393 54.0237 231.073 51.9834L237.534 32.9409C230.733 30.2206 223.252 28.5204 215.771 27.8403V39.7418C215.771 41.7821 214.071 43.8224 211.69 43.8224C209.31 43.8224 207.95 41.7821 207.95 39.7418V27.5002C198.089 27.8403 188.907 29.8806 180.066 33.281L190.268 54.7038C191.288 56.744 190.268 59.1243 188.567 59.8044C187.887 60.1445 187.547 60.1445 186.867 60.1445C185.507 60.1445 184.147 59.4644 183.467 57.7642L173.265 36.3414C165.784 40.4219 159.324 45.5226 153.883 51.9834L157.963 56.0639C159.664 57.4241 159.664 60.1445 158.303 61.5046C157.623 62.1847 156.603 62.8648 155.583 62.8648C154.563 62.8648 153.543 62.5248 152.863 61.8447L149.122 58.1042C145.042 63.885 141.641 70.0057 138.921 76.8066L152.863 83.6075C154.903 84.6276 155.583 87.0079 154.563 88.7082C153.883 90.0683 152.523 90.7484 151.163 90.7484C150.482 90.7484 150.142 90.7484 149.462 90.4084L136.201 84.9677C134.84 91.0885 133.82 97.2093 133.82 103.67C133.82 105.71 133.82 107.411 134.16 109.111H139.601C141.641 109.111 143.682 110.811 143.682 113.191C143.682 115.232 141.981 117.272 139.601 117.272H135.18C138.581 135.974 148.782 152.296 163.064 163.518L211.01 94.4889L257.256 163.858C271.538 152.636 281.399 136.654 284.8 118.292H282.76V117.612ZM269.498 117.612H255.556C255.556 119.992 255.216 122.373 254.876 124.753C254.536 126.453 252.836 127.813 251.136 127.813C250.795 127.813 250.455 127.813 250.455 127.813C248.415 127.473 247.055 125.433 247.395 123.053C248.075 120.672 248.075 117.952 248.075 115.232C248.075 94.829 231.413 78.1668 211.01 78.1668C201.149 78.1668 192.308 81.9073 185.847 88.0281C178.706 94.829 173.946 104.35 173.946 115.232C173.946 117.612 174.286 120.332 174.626 122.713C174.966 124.753 173.605 126.793 171.565 127.473C169.525 127.813 167.485 126.453 166.805 124.413C166.465 122.032 166.124 119.652 166.124 117.272H152.523C150.482 117.272 148.442 115.572 148.442 113.191C148.442 111.151 150.142 109.111 152.523 109.111H166.465C166.805 106.05 167.485 103.33 168.505 100.61L161.704 97.5493C159.664 96.5292 158.984 94.1489 160.004 92.4487C161.024 90.4084 163.404 89.7283 165.104 90.7484L171.225 93.8088C172.925 90.7484 174.626 88.3681 177.006 85.6478L162.384 71.706C160.684 70.3458 160.684 67.6254 162.384 66.2653C163.744 64.565 166.465 64.565 167.825 66.2653L182.787 80.2071C185.507 78.1668 188.227 76.4666 191.288 74.7664L189.247 70.6858C188.227 68.6456 189.247 66.2653 190.948 65.5852C192.988 64.565 195.368 65.5852 196.048 67.2854L198.429 72.046C201.489 71.3659 204.549 70.6858 207.61 70.3458V53.3436C207.61 51.3033 209.31 49.2631 211.35 49.2631C213.391 49.2631 215.431 50.9633 215.431 53.0035V70.3458C218.491 70.6858 221.212 71.3659 224.272 72.046L226.652 65.2451C227.332 63.2049 229.713 62.1847 231.753 62.8648C233.793 63.5449 234.813 65.9252 234.133 67.9655L231.753 75.4465C234.133 76.8066 236.514 78.1668 238.554 79.867L249.095 69.3257C250.795 67.6254 253.176 67.9655 254.536 69.3257C255.896 71.0259 255.896 73.4062 254.536 74.7664L244.335 84.9677C246.715 87.348 248.755 90.4084 250.115 93.4688L255.556 91.0885C257.596 90.0683 259.977 91.0885 260.657 93.1287C261.677 95.169 260.657 97.5493 258.616 98.2294L253.516 100.95C254.536 103.67 255.216 106.731 255.556 109.791H269.498C271.538 109.791 273.578 111.491 273.578 113.871C273.578 116.252 271.878 117.612 269.498 117.612Z" fill="#747D88"/>
<path d="M210.331 187.661C163.745 187.661 126 149.916 126 103.67C126 57.424 163.745 19.3391 210.331 19.3391C256.917 19.3391 294.662 57.084 294.662 103.67C294.662 150.256 256.577 187.661 210.331 187.661ZM210.331 22.7396C165.785 22.7396 129.4 59.1243 129.4 103.67C129.4 148.216 165.785 184.601 210.331 184.601C254.877 184.601 291.261 148.216 291.261 103.67C291.261 59.1243 254.877 22.7396 210.331 22.7396Z" fill="#747D88"/>
<path d="M53.716 95.0362C55.4077 93.3445 55.4077 90.6377 53.716 88.946C51.5167 86.7468 47.2874 83.1942 42.0431 83.1942C36.7988 83.1942 32.5695 86.9159 30.3702 88.946C28.6785 90.6377 28.8477 93.3445 30.3702 95.0362C32.5695 97.2354 36.7988 100.788 42.0431 100.788C47.2874 100.788 51.5167 97.2354 53.716 95.0362ZM33.077 91.8219C34.7687 90.1302 38.1521 87.0851 42.0431 87.0851C45.934 87.0851 49.1483 89.961 51.0092 91.8219C51.1784 91.9911 51.1784 92.1603 51.0092 92.3294C49.3175 94.0211 45.934 97.0662 42.0431 97.0662C38.1521 97.0662 34.9379 94.1903 33.077 92.3294C32.9078 92.1603 32.9078 91.8219 33.077 91.8219Z" fill="#747D88"/>
<path d="M23.6035 105.694C29.017 108.57 35.1072 110.262 41.7049 110.262C48.3026 110.262 54.3928 108.57 59.8063 105.694H23.6035Z" fill="#747D88"/>
<path d="M45.0902 91.9911C45.0902 90.2994 43.7368 88.946 42.0451 88.946C40.3534 88.946 39 90.2994 39 91.9911C39 93.6828 40.3534 95.0362 42.0451 95.0362C43.7368 95.0362 45.0902 93.6828 45.0902 91.9911Z" fill="#747D88"/>
<path d="M78.0777 79.4725C77.0627 79.4725 76.0476 78.6266 76.0476 77.4424C76.0476 76.2582 76.8935 75.4124 78.0777 75.4124H79.4311C79.4311 74.3973 79.6002 73.3823 79.6002 72.3673C79.6002 69.6605 79.2619 66.9538 78.7544 64.4162L73.0025 66.9538C72.6642 67.1229 72.495 67.1229 72.1567 67.1229C71.48 67.1229 70.6341 66.6154 70.2958 65.9387C69.7883 64.9237 70.2958 63.7395 71.3108 63.4012L77.5702 60.6944C76.386 56.8035 74.5251 53.2509 72.1567 50.2058L68.9424 53.42C68.6041 53.7584 68.0966 53.9275 67.5891 53.9275C67.0815 53.9275 66.574 53.7584 66.2357 53.42C65.3898 52.5742 65.3898 51.39 66.2357 50.7133L69.7883 47.1607C66.7432 43.7772 63.1906 41.0705 59.1305 39.0404L56.0854 48.1757C55.747 49.0216 55.0703 49.5291 54.2245 49.5291C54.0553 49.5291 53.8861 49.5291 53.5478 49.3599C52.5328 49.0216 52.0252 47.8374 52.3636 46.8223L55.5779 37.3487C52.1944 35.9953 48.4726 35.1495 44.7509 34.8111V40.7321C44.7509 41.7472 43.905 42.7622 42.7208 42.7622C41.5366 42.7622 40.8599 41.7472 40.8599 40.7321V34.642C35.9539 34.8111 31.3863 35.8262 26.9878 37.5179L32.063 48.1757C32.5705 49.1907 32.063 50.3749 31.2171 50.7133C30.8788 50.8825 30.7096 50.8825 30.3713 50.8825C29.6946 50.8825 29.0179 50.5441 28.6795 49.6983L23.6044 39.0404C19.8826 41.0705 16.6683 43.6081 13.9616 46.8223L15.9917 48.8524C16.8375 49.5291 16.8375 50.8825 16.1608 51.5591C15.8225 51.8975 15.315 52.2358 14.8075 52.2358C14.2999 52.2358 13.7924 52.0667 13.4541 51.7283L11.5932 49.8674C9.56314 52.7433 7.87142 55.7884 6.51804 59.1719L13.4541 62.5553C14.4691 63.0628 14.8075 64.247 14.2999 65.0929C13.9616 65.7696 13.2849 66.1079 12.6082 66.1079C12.2699 66.1079 12.1007 66.1079 11.7624 65.9387L5.16467 63.232C4.48798 66.2771 3.98047 69.3222 3.98047 72.5364C3.98047 73.5515 3.98047 74.3973 4.14964 75.2432H6.85639C7.87142 75.2432 8.88645 76.089 8.88645 77.2732C8.88645 78.2883 8.04059 79.3033 6.85639 79.3033H4.65716C6.34887 88.6077 11.424 96.728 18.5292 102.311L42.3825 67.9688L65.3898 102.48C72.495 96.8972 77.401 88.9461 79.0927 79.8108H78.0777V79.4725ZM71.48 79.4725H64.544C64.544 80.6567 64.3748 81.8409 64.2056 83.0251C64.0364 83.8709 63.1906 84.5476 62.3447 84.5476C62.1756 84.5476 62.0064 84.5476 62.0064 84.5476C60.9913 84.3785 60.3147 83.3634 60.4838 82.1792C60.8222 80.995 60.8222 79.6416 60.8222 78.2883C60.8222 68.138 52.5328 59.8486 42.3825 59.8486C37.4765 59.8486 33.078 61.7094 29.8637 64.7545C26.3111 68.138 23.9427 72.8748 23.9427 78.2883C23.9427 79.4725 24.1119 80.8258 24.2811 82.0101C24.4503 83.0251 23.7736 84.0401 22.7585 84.3785C21.7435 84.5476 20.7285 83.8709 20.3901 82.8559C20.221 81.6717 20.0518 80.4875 20.0518 79.3033H13.2849C12.2699 79.3033 11.2549 78.4574 11.2549 77.2732C11.2549 76.2582 12.1007 75.2432 13.2849 75.2432H20.221C20.3901 73.7206 20.7285 72.3673 21.236 71.0139L17.8526 69.4913C16.8375 68.9838 16.4992 67.7996 17.0067 66.9538C17.5142 65.9387 18.6984 65.6004 19.5443 66.1079L22.5894 67.6305C23.4352 66.1079 24.2811 64.9237 25.4653 63.5703L18.1909 56.6343C17.345 55.9576 17.345 54.6042 18.1909 53.9275C18.8676 53.0817 20.221 53.0817 20.8976 53.9275L28.3412 60.8636C29.6946 59.8486 31.048 59.0027 32.5705 58.1568L31.5555 56.1268C31.048 55.1117 31.5555 53.9275 32.4013 53.5892C33.4164 53.0817 34.6006 53.5892 34.9389 54.4351L36.1231 56.8035C37.6456 56.4651 39.1682 56.1268 40.6907 55.9576V47.499C40.6907 46.484 41.5366 45.469 42.5516 45.469C43.5667 45.469 44.5817 46.3148 44.5817 47.3298V55.9576C46.1042 56.1268 47.4576 56.4651 48.9802 56.8035L50.1644 53.42C50.5027 52.405 51.6869 51.8975 52.7019 52.2358C53.717 52.5742 54.2245 53.7584 53.8861 54.7734L52.7019 58.4952C53.8861 59.1719 55.0703 59.8486 56.0854 60.6944L61.3297 55.4501C62.1756 54.6042 63.3598 54.7734 64.0364 55.4501C64.7131 56.2959 64.7131 57.4802 64.0364 58.1568L58.9613 63.232C60.1455 64.4162 61.1605 65.9387 61.8372 67.4613L64.544 66.2771C65.559 65.7696 66.7432 66.2771 67.0815 67.2921C67.589 68.3071 67.0815 69.4913 66.0665 69.8297L63.5289 71.1831C64.0364 72.5364 64.3748 74.059 64.544 75.5815H71.48C72.495 75.5815 73.5101 76.4274 73.5101 77.6116C73.5101 78.7958 72.6642 79.4725 71.48 79.4725Z" fill="#747D88"/>
<path d="M42.0444 114.322C18.8679 114.322 0.0898438 95.5437 0.0898438 72.5364C0.0898438 49.529 18.8679 30.5818 42.0444 30.5818C65.221 30.5818 83.999 49.3598 83.999 72.5364C83.999 95.7129 65.0518 114.322 42.0444 114.322ZM42.0444 32.2735C19.8829 32.2735 1.78156 50.3749 1.78156 72.5364C1.78156 94.6979 19.8829 112.799 42.0444 112.799C64.2059 112.799 82.3073 94.6979 82.3073 72.5364C82.3073 50.3749 64.2059 32.2735 42.0444 32.2735Z" fill="#747D88"/>
<path d="M342.758 43.9669C343.889 42.8361 343.889 41.0267 342.758 39.8958C341.288 38.4257 338.461 36.0509 334.955 36.0509C331.449 36.0509 328.622 38.5388 327.152 39.8958C326.021 41.0267 326.134 42.8361 327.152 43.9669C328.622 45.4371 331.449 47.8119 334.955 47.8119C338.461 47.8119 341.288 45.4371 342.758 43.9669ZM328.961 41.8183C330.092 40.6874 332.354 38.6519 334.955 38.6519C337.556 38.6519 339.705 40.5744 340.949 41.8183C341.062 41.9314 341.062 42.0445 340.949 42.1576C339.818 43.2884 337.556 45.324 334.955 45.324C332.354 45.324 330.205 43.4015 328.961 42.1576C328.848 42.0445 328.848 41.8183 328.961 41.8183Z" fill="#747D88"/>
<path d="M322.629 51.0914C326.248 53.0139 330.319 54.1448 334.729 54.1448C339.14 54.1448 343.211 53.0139 346.829 51.0914H322.629Z" fill="#747D88"/>
<path d="M336.991 41.9314C336.991 40.8005 336.086 39.8958 334.955 39.8958C333.825 39.8958 332.92 40.8005 332.92 41.9314C332.92 43.0622 333.825 43.9669 334.955 43.9669C336.086 43.9669 336.991 43.0622 336.991 41.9314Z" fill="#747D88"/>
<path d="M359.044 33.5631C358.365 33.5631 357.687 32.9977 357.687 32.2061C357.687 31.4144 358.252 30.849 359.044 30.849H359.948C359.948 30.1705 360.061 29.492 360.061 28.8135C360.061 27.0041 359.835 25.1947 359.496 23.4984L355.651 25.1947C355.425 25.3078 355.312 25.3078 355.086 25.3078C354.633 25.3078 354.068 24.9685 353.842 24.5162C353.502 23.8377 353.842 23.0461 354.52 22.8199L358.704 21.0105C357.913 18.4095 356.669 16.0347 355.086 13.9992L352.937 16.1478C352.711 16.374 352.371 16.4871 352.032 16.4871C351.693 16.4871 351.354 16.374 351.127 16.1478C350.562 15.5824 350.562 14.7908 351.127 14.3384L353.502 11.9636C351.467 9.70188 349.092 7.89249 346.378 6.53546L344.342 12.6421C344.116 13.2076 343.664 13.5468 343.098 13.5468C342.985 13.5468 342.872 13.5468 342.646 13.4337C341.967 13.2076 341.628 12.4159 341.854 11.7374L344.003 5.4046C341.741 4.49991 339.253 3.93447 336.766 3.7083V7.66632C336.766 8.34484 336.2 9.02336 335.408 9.02336C334.617 9.02336 334.165 8.34484 334.165 7.66632V3.59521C330.885 3.7083 327.832 4.38682 324.891 5.51768L328.284 12.6421C328.623 13.3206 328.284 14.1122 327.719 14.3384C327.492 14.4515 327.379 14.4515 327.153 14.4515C326.701 14.4515 326.248 14.2253 326.022 13.6599L322.63 6.53546C320.142 7.89249 317.993 9.58879 316.184 11.7374L317.541 13.0945C318.106 13.5468 318.106 14.4515 317.654 14.9038C317.428 15.13 317.089 15.3562 316.749 15.3562C316.41 15.3562 316.071 15.2431 315.845 15.0169L314.601 13.773C313.244 15.6955 312.113 17.731 311.208 19.9927L315.845 22.2545C316.523 22.5937 316.749 23.3853 316.41 23.9508C316.184 24.4031 315.731 24.6293 315.279 24.6293C315.053 24.6293 314.94 24.6293 314.714 24.5162L310.303 22.7068C309.851 24.7424 309.512 26.7779 309.512 28.9265C309.512 29.6051 309.512 30.1705 309.625 30.7359H311.434C312.113 30.7359 312.791 31.3014 312.791 32.093C312.791 32.7715 312.226 33.45 311.434 33.45H309.964C311.095 39.6698 314.488 45.0979 319.237 48.8297L335.182 25.8732L350.562 48.9428C355.312 45.211 358.591 39.8959 359.722 33.7893H359.044V33.5631ZM354.633 33.5631H349.997C349.997 34.3547 349.884 35.1463 349.77 35.9379C349.657 36.5033 349.092 36.9557 348.527 36.9557C348.413 36.9557 348.3 36.9557 348.3 36.9557C347.622 36.8426 347.169 36.1641 347.283 35.3725C347.509 34.5809 347.509 33.6762 347.509 32.7715C347.509 25.9863 341.967 20.4451 335.182 20.4451C331.903 20.4451 328.963 21.689 326.814 23.7246C324.439 25.9863 322.856 29.1527 322.856 32.7715C322.856 33.5631 322.969 34.4678 323.082 35.2594C323.195 35.9379 322.743 36.6164 322.064 36.8426C321.386 36.9557 320.707 36.5033 320.481 35.8248C320.368 35.0332 320.255 34.2416 320.255 33.45H315.731C315.053 33.45 314.374 32.8846 314.374 32.093C314.374 31.4144 314.94 30.7359 315.731 30.7359H320.368C320.481 29.7182 320.707 28.8135 321.047 27.9088L318.785 26.891C318.106 26.5517 317.88 25.7601 318.219 25.1947C318.559 24.5162 319.35 24.29 319.916 24.6293L321.951 25.647C322.517 24.6293 323.082 23.8377 323.874 22.933L319.011 18.2964C318.446 17.8441 318.446 16.9394 319.011 16.4871C319.463 15.9216 320.368 15.9216 320.82 16.4871L325.796 21.1236C326.701 20.4451 327.606 19.8796 328.623 19.3142L327.945 17.9572C327.606 17.2787 327.945 16.4871 328.51 16.2609C329.189 15.9216 329.98 16.2609 330.207 16.8263L330.998 18.4095C332.016 18.1834 333.034 17.9572 334.051 17.8441V12.1898C334.051 11.5113 334.617 10.8327 335.295 10.8327C335.974 10.8327 336.652 11.3982 336.652 12.0767V17.8441C337.67 17.9572 338.575 18.1834 339.593 18.4095L340.384 16.1478C340.61 15.4693 341.402 15.13 342.081 15.3562C342.759 15.5824 343.098 16.374 342.872 17.0525L342.081 19.5404C342.872 19.9927 343.664 20.4451 344.342 21.0105L347.848 17.5048C348.413 16.9394 349.205 17.0525 349.657 17.5048C350.11 18.0703 350.11 18.8619 349.657 19.3142L346.265 22.7068C347.056 23.4984 347.735 24.5162 348.187 25.534L349.997 24.7424C350.675 24.4031 351.467 24.7424 351.693 25.4209C352.032 26.0994 351.693 26.891 351.014 27.1172L349.318 28.0219C349.657 28.9265 349.884 29.9443 349.997 30.9621H354.633C355.312 30.9621 355.99 31.5275 355.99 32.3191C355.99 33.1107 355.425 33.5631 354.633 33.5631Z" fill="#747D88"/>
<path d="M334.956 56.8588C319.463 56.8588 306.91 44.3063 306.91 28.9265C306.91 13.5468 319.463 0.881104 334.956 0.881104C350.448 0.881104 363.001 13.4337 363.001 28.9265C363.001 44.4193 350.335 56.8588 334.956 56.8588ZM334.956 2.01197C320.141 2.01197 308.041 14.1122 308.041 28.9265C308.041 43.7408 320.141 55.8411 334.956 55.8411C349.77 55.8411 361.87 43.7408 361.87 28.9265C361.87 14.1122 349.77 2.01197 334.956 2.01197Z" fill="#747D88"/>
<path d="M382.874 124.269C383.719 123.424 383.719 122.072 382.874 121.227C381.776 120.129 379.663 118.354 377.044 118.354C374.425 118.354 372.312 120.213 371.214 121.227C370.369 122.072 370.453 123.424 371.214 124.269C372.312 125.367 374.425 127.142 377.044 127.142C379.663 127.142 381.776 125.367 382.874 124.269ZM372.566 122.663C373.411 121.818 375.101 120.297 377.044 120.297C378.987 120.297 380.593 121.734 381.522 122.663C381.607 122.748 381.607 122.832 381.522 122.917C380.677 123.762 378.987 125.283 377.044 125.283C375.101 125.283 373.495 123.846 372.566 122.917C372.481 122.832 372.481 122.663 372.566 122.663Z" fill="#747D88"/>
<path d="M367.834 129.592C370.538 131.028 373.58 131.873 376.875 131.873C380.17 131.873 383.212 131.028 385.916 129.592H367.834Z" fill="#747D88"/>
<path d="M378.565 122.748C378.565 121.903 377.889 121.227 377.044 121.227C376.199 121.227 375.523 121.903 375.523 122.748C375.523 123.593 376.199 124.269 377.044 124.269C377.889 124.269 378.565 123.593 378.565 122.748Z" fill="#747D88"/>
<path d="M395.042 116.495C394.535 116.495 394.028 116.073 394.028 115.481C394.028 114.89 394.45 114.467 395.042 114.467H395.718C395.718 113.961 395.802 113.454 395.802 112.947C395.802 111.595 395.633 110.243 395.38 108.975L392.507 110.243C392.338 110.327 392.253 110.327 392.084 110.327C391.746 110.327 391.324 110.074 391.155 109.736C390.901 109.229 391.155 108.637 391.662 108.468L394.788 107.116C394.197 105.173 393.267 103.399 392.084 101.878L390.479 103.483C390.31 103.652 390.057 103.737 389.803 103.737C389.55 103.737 389.296 103.652 389.127 103.483C388.705 103.061 388.705 102.469 389.127 102.131L390.901 100.357C389.381 98.6671 387.606 97.3152 385.578 96.3012L384.057 100.864C383.888 101.286 383.55 101.54 383.128 101.54C383.044 101.54 382.959 101.54 382.79 101.455C382.283 101.286 382.03 100.695 382.199 100.188L383.804 95.4563C382.114 94.7803 380.255 94.3579 378.396 94.1889V97.1462C378.396 97.6531 377.974 98.1601 377.382 98.1601C376.791 98.1601 376.453 97.6531 376.453 97.1462V94.1044C374.003 94.1889 371.721 94.6958 369.524 95.5408L372.059 100.864C372.313 101.371 372.059 101.962 371.637 102.131C371.468 102.216 371.383 102.216 371.214 102.216C370.876 102.216 370.538 102.047 370.369 101.624L367.835 96.3012C365.976 97.3152 364.37 98.5826 363.018 100.188L364.032 101.202C364.455 101.54 364.455 102.216 364.117 102.554C363.948 102.723 363.694 102.892 363.441 102.892C363.187 102.892 362.934 102.807 362.765 102.638L361.835 101.709C360.822 103.145 359.977 104.666 359.301 106.356L362.765 108.046C363.272 108.299 363.441 108.891 363.187 109.313C363.018 109.651 362.68 109.82 362.342 109.82C362.173 109.82 362.089 109.82 361.92 109.736L358.625 108.384C358.287 109.905 358.033 111.426 358.033 113.031C358.033 113.538 358.033 113.961 358.118 114.383H359.47C359.977 114.383 360.484 114.805 360.484 115.397C360.484 115.904 360.061 116.411 359.47 116.411H358.371C359.216 121.058 361.751 125.114 365.3 127.902L377.213 110.75L388.705 127.987C392.253 125.198 394.704 121.227 395.549 116.664H395.042V116.495ZM391.746 116.495H388.282C388.282 117.087 388.198 117.678 388.113 118.27C388.029 118.692 387.606 119.03 387.184 119.03C387.099 119.03 387.015 119.03 387.015 119.03C386.508 118.946 386.17 118.439 386.254 117.847C386.423 117.256 386.423 116.58 386.423 115.904C386.423 110.834 382.283 106.694 377.213 106.694C374.763 106.694 372.566 107.623 370.961 109.144C369.186 110.834 368.004 113.2 368.004 115.904C368.004 116.495 368.088 117.171 368.173 117.763C368.257 118.27 367.919 118.777 367.412 118.946C366.905 119.03 366.398 118.692 366.229 118.185C366.145 117.594 366.06 117.002 366.06 116.411H362.68C362.173 116.411 361.666 115.988 361.666 115.397C361.666 114.89 362.089 114.383 362.68 114.383H366.145C366.229 113.623 366.398 112.947 366.652 112.271L364.962 111.51C364.455 111.257 364.286 110.665 364.539 110.243C364.793 109.736 365.384 109.567 365.807 109.82L367.328 110.581C367.75 109.82 368.173 109.229 368.764 108.553L365.131 105.089C364.708 104.751 364.708 104.075 365.131 103.737C365.469 103.314 366.145 103.314 366.483 103.737L370.2 107.201C370.876 106.694 371.552 106.272 372.313 105.849L371.806 104.835C371.552 104.328 371.806 103.737 372.228 103.568C372.735 103.314 373.327 103.568 373.496 103.99L374.087 105.173C374.848 105.004 375.608 104.835 376.368 104.751V100.526C376.368 100.019 376.791 99.512 377.298 99.512C377.805 99.512 378.312 99.9345 378.312 100.441V104.751C379.072 104.835 379.748 105.004 380.509 105.173L381.1 103.483C381.269 102.976 381.861 102.723 382.368 102.892C382.875 103.061 383.128 103.652 382.959 104.159L382.368 106.018C382.959 106.356 383.55 106.694 384.057 107.116L386.677 104.497C387.099 104.075 387.691 104.159 388.029 104.497C388.367 104.92 388.367 105.511 388.029 105.849L385.494 108.384C386.085 108.975 386.592 109.736 386.93 110.496L388.282 109.905C388.789 109.651 389.381 109.905 389.55 110.412C389.803 110.919 389.55 111.51 389.043 111.679L387.775 112.355C388.029 113.031 388.198 113.792 388.282 114.552H391.746C392.253 114.552 392.76 114.974 392.76 115.566C392.76 116.157 392.338 116.495 391.746 116.495Z" fill="#747D88"/>
<path d="M377.044 133.901C365.469 133.901 356.09 124.522 356.09 113.031C356.09 101.54 365.469 92.0765 377.044 92.0765C388.62 92.0765 397.999 101.455 397.999 113.031C397.999 124.607 388.536 133.901 377.044 133.901ZM377.044 92.9215C365.976 92.9215 356.935 101.962 356.935 113.031C356.935 124.1 365.976 133.141 377.044 133.141C388.113 133.141 397.154 124.1 397.154 113.031C397.154 101.962 388.113 92.9215 377.044 92.9215Z" fill="#747D88"/>
</svg>
