<svg width="384" height="230" viewBox="0 0 384 230" fill="none" xmlns="http://www.w3.org/2000/svg">
<path d="M185.486 31.3006C193.026 29.5201 197.696 21.9639 195.915 14.4234C194.135 6.88285 186.579 2.21345 179.038 3.99397C171.498 5.7745 166.828 13.3307 168.609 20.8712C170.389 28.4117 177.945 33.0811 185.486 31.3006Z" stroke="#45AFEA" stroke-width="2" stroke-miterlimit="10" stroke-linecap="round"/>
<path d="M211.731 62.5089C211.731 48.6529 200.473 37.3948 186.443 37.3948H178.823C164.966 37.3948 153.535 48.6529 153.535 62.5089" stroke="#45AFEA" stroke-width="2" stroke-miterlimit="10" stroke-linecap="round"/>
<path d="M68.8318 167.815C67.273 151.361 53.7633 138.544 37.3092 138.544C20.8551 138.544 7.34539 151.361 5.78658 167.815C2.66896 167.989 0.244141 170.587 0.244141 173.704V184.096C0.244141 187.387 3.01536 189.985 6.30618 189.985C6.47938 189.985 6.65258 189.985 6.82578 189.985C6.99899 191.371 8.21139 192.237 9.597 192.237C11.1558 192.237 12.3682 191.024 12.3682 189.466V183.923V173.531V167.642C12.3682 166.083 11.1558 164.871 9.597 164.871C9.2506 164.871 9.0774 164.871 8.9042 164.871C11.5022 151.188 23.2799 140.969 37.4824 140.969C51.6849 140.969 63.4626 151.535 66.0606 165.391C65.541 165.044 65.0214 164.871 64.3286 164.871C62.7698 164.871 61.5573 166.083 61.5573 167.642V173.531V183.923V189.466C61.5573 190.505 62.2501 191.544 63.1162 191.89C61.2109 198.992 57.0541 205.4 50.9921 209.384C50.4725 208.691 49.6065 208.344 48.5673 208.344H42.6784C40.7732 208.344 39.3876 209.73 39.3876 211.635C39.3876 213.541 40.7732 214.926 42.6784 214.926H48.5673C50.2993 214.926 51.6849 213.714 51.8581 212.155C58.9593 207.652 63.9822 200.377 65.8874 191.89C66.407 191.544 66.9266 190.851 67.0998 189.985C67.273 189.985 67.4462 189.985 67.6194 189.985C70.9102 189.985 73.6814 187.387 73.6814 184.096V173.704C73.5082 170.76 72.6422 168.162 68.8318 167.815Z" fill="#EAB245"/>
<path d="M18.2578 190.851V188.773L21.029 186.175C27.6107 179.939 30.5551 176.649 30.7283 172.838C30.7283 170.24 29.5159 167.815 25.5323 167.815C23.1074 167.815 21.2022 169.028 19.9898 169.894L18.9506 167.469C20.6826 165.91 23.2806 164.871 26.2251 164.871C31.7675 164.871 34.1923 168.681 34.1923 172.319C34.1923 176.995 30.7283 180.805 25.3591 186.001L23.2806 187.907H34.8851V190.851H18.2578Z" fill="#EAB245"/>
<path d="M49.4313 190.851V183.923H37.4805V181.672L49.0849 165.391H52.8954V181.325H56.5326V184.096H52.8954V191.024L49.4313 190.851ZM49.4313 181.152V172.665C49.4313 171.279 49.4313 170.067 49.6045 168.681H49.4313C48.5653 170.24 48.0457 171.279 47.1797 172.492L40.7713 181.152H49.4313Z" fill="#EAB245"/>
<path d="M276.014 191.5L323.393 191.5" stroke="#D074E8" stroke-width="2" stroke-miterlimit="10" stroke-linecap="round"/>
<path d="M342.299 191.85H382.002" stroke="#D074E8" stroke-width="2" stroke-miterlimit="10" stroke-linecap="round"/>
<path d="M364.661 190.635C365.573 187.478 366.258 184.096 366.258 180.488C366.258 161.772 350.742 146.438 331.803 146.438C312.864 146.438 297.348 161.772 297.348 180.488C297.348 184.096 297.804 187.253 298.945 190.635" stroke="#D074E8" stroke-width="2" stroke-miterlimit="10" stroke-linecap="round"/>
<path d="M320.621 97.9575V122.762" stroke="#D074E8" stroke-width="2" stroke-miterlimit="10" stroke-linecap="round"/>
<path d="M334.539 115.321V127.723" stroke="#D074E8" stroke-width="2" stroke-miterlimit="10" stroke-linecap="round"/>
<path d="M353.706 188.38C354.39 186.351 354.847 184.096 354.847 181.615C354.847 169.213 344.579 159.066 332.029 159.066C319.479 159.066 309.211 169.213 309.211 181.615C309.211 183.87 309.667 186.125 310.124 188.38" stroke="#D074E8" stroke-width="2" stroke-miterlimit="10" stroke-linecap="round"/>
<path d="M330.659 187.704C331.115 187.929 331.572 188.155 332.028 188.38H338.645C337.276 186.802 335.451 185.674 332.713 184.547C328.605 182.968 326.78 181.615 326.78 178.684C326.78 176.655 328.377 174.174 332.484 174.174C335.223 174.174 337.276 175.076 338.189 175.527L339.33 172.37C337.961 171.694 335.679 170.792 332.713 170.792C326.78 170.792 322.901 174.174 322.901 178.91C322.673 183.419 325.639 186.125 330.659 187.704Z" fill="#D074E8"/>
<path d="M202.506 197.007C205.361 194.152 205.361 189.584 202.506 186.729C198.795 183.018 191.658 177.023 182.808 177.023C173.958 177.023 166.821 183.304 163.11 186.729C160.255 189.584 160.54 194.152 163.11 197.007C166.821 200.718 173.958 206.713 182.808 206.713C191.658 206.713 198.795 200.718 202.506 197.007ZM167.677 191.582C170.532 188.728 176.242 183.589 182.808 183.589C189.374 183.589 194.798 188.442 197.938 191.582C198.224 191.868 198.224 192.153 197.938 192.439C195.083 195.294 189.374 200.432 182.808 200.432C176.242 200.432 170.818 195.579 167.677 192.439C167.392 192.153 167.392 191.582 167.677 191.582Z" fill="#747D88"/>
<path d="M151.691 214.992C160.827 219.845 171.104 222.7 182.238 222.7C193.372 222.7 203.649 219.845 212.784 214.992H151.691Z" fill="#747D88"/>
<path d="M187.949 191.868C187.949 189.013 185.665 186.729 182.811 186.729C179.956 186.729 177.672 189.013 177.672 191.868C177.672 194.723 179.956 197.007 182.811 197.007C185.665 197.007 187.949 194.723 187.949 191.868Z" fill="#747D88"/>
<path d="M243.617 170.743C241.904 170.743 240.191 169.315 240.191 167.317C240.191 165.319 241.618 163.891 243.617 163.891H245.9C245.9 162.178 246.186 160.465 246.186 158.752C246.186 154.185 245.615 149.617 244.759 145.335L235.052 149.617C234.481 149.903 234.196 149.903 233.625 149.903C232.483 149.903 231.056 149.046 230.485 147.904C229.628 146.191 230.485 144.193 232.197 143.622L242.76 139.054C240.762 132.488 237.622 126.493 233.625 121.355L228.201 126.779C227.63 127.35 226.773 127.635 225.917 127.635C225.06 127.635 224.204 127.35 223.633 126.779C222.206 125.351 222.206 123.353 223.633 122.211L229.628 116.216C224.489 110.506 218.494 105.939 211.643 102.513L206.504 117.929C205.933 119.356 204.791 120.213 203.364 120.213C203.078 120.213 202.793 120.213 202.222 119.927C200.509 119.356 199.653 117.358 200.224 115.645L205.648 99.658C199.938 97.3742 193.658 95.9468 187.377 95.3758V105.368C187.377 107.081 185.95 108.793 183.951 108.793C181.953 108.793 180.811 107.081 180.811 105.368V95.0903C172.532 95.3758 164.824 97.0887 157.402 99.9435L165.966 117.929C166.822 119.642 165.966 121.64 164.539 122.211C163.968 122.496 163.682 122.496 163.111 122.496C161.969 122.496 160.827 121.925 160.256 120.498L151.692 102.513C145.411 105.939 139.987 110.221 135.42 115.645L138.845 119.071C140.273 120.213 140.273 122.496 139.131 123.638C138.56 124.209 137.703 124.78 136.847 124.78C135.99 124.78 135.134 124.495 134.563 123.924L131.423 120.784C127.997 125.637 125.142 130.775 122.858 136.485L134.563 142.195C136.276 143.051 136.847 145.049 135.99 146.477C135.42 147.619 134.278 148.19 133.136 148.19C132.565 148.19 132.279 148.19 131.708 147.904L120.575 143.337C119.433 148.475 118.576 153.614 118.576 159.038C118.576 160.751 118.576 162.178 118.862 163.606H123.429C125.142 163.606 126.855 165.033 126.855 167.031C126.855 168.744 125.428 170.457 123.429 170.457H119.718C122.573 186.159 131.137 199.862 143.127 209.283L183.38 151.33L222.206 209.568C234.196 200.147 242.475 186.73 245.33 171.314H243.617V170.743ZM232.483 170.743H220.778C220.778 172.741 220.493 174.739 220.207 176.738C219.922 178.165 218.494 179.307 217.067 179.307C216.781 179.307 216.496 179.307 216.496 179.307C214.783 179.022 213.641 177.309 213.927 175.31C214.498 173.312 214.498 171.028 214.498 168.744C214.498 151.615 200.509 137.627 183.38 137.627C175.101 137.627 167.679 140.767 162.255 145.906C156.26 151.615 152.263 159.609 152.263 168.744C152.263 170.743 152.548 173.027 152.834 175.025C153.119 176.738 151.977 178.451 150.265 179.022C148.552 179.307 146.839 178.165 146.268 176.452C145.982 174.454 145.697 172.456 145.697 170.457H134.278C132.565 170.457 130.852 169.03 130.852 167.031C130.852 165.319 132.279 163.606 134.278 163.606H145.982C146.268 161.036 146.839 158.752 147.695 156.469L141.986 153.899C140.273 153.043 139.702 151.045 140.558 149.617C141.415 147.904 143.413 147.333 144.84 148.19L149.979 150.759C151.406 148.19 152.834 146.191 154.832 143.907L142.557 132.203C141.129 131.061 141.129 128.777 142.557 127.635C143.698 126.208 145.982 126.208 147.124 127.635L159.685 139.34C161.969 137.627 164.253 136.2 166.822 134.772L165.11 131.346C164.253 129.633 165.11 127.635 166.537 127.064C168.25 126.208 170.248 127.064 170.819 128.492L172.817 132.488C175.387 131.917 177.956 131.346 180.525 131.061V116.787C180.525 115.074 181.953 113.361 183.666 113.361C185.379 113.361 187.091 114.788 187.091 116.501V131.061C189.661 131.346 191.945 131.917 194.514 132.488L196.512 126.779C197.083 125.066 199.082 124.209 200.795 124.78C202.507 125.351 203.364 127.35 202.793 129.063L200.795 135.343C202.793 136.485 204.791 137.627 206.504 139.054L215.354 130.204C216.781 128.777 218.78 129.063 219.922 130.204C221.064 131.632 221.064 133.63 219.922 134.772L211.357 143.337C213.356 145.335 215.069 147.904 216.211 150.474L220.778 148.475C222.491 147.619 224.489 148.475 225.06 150.188C225.917 151.901 225.06 153.899 223.348 154.47L219.065 156.754C219.922 159.038 220.493 161.607 220.778 164.177H232.483C234.196 164.177 235.909 165.604 235.909 167.602C235.909 169.601 234.481 170.743 232.483 170.743Z" fill="#747D88"/>
<path d="M182.809 229.552C143.698 229.552 112.01 197.863 112.01 159.038C112.01 120.213 143.698 88.2388 182.809 88.2388C221.92 88.2388 253.608 119.927 253.608 159.038C253.608 198.149 221.634 229.552 182.809 229.552ZM182.809 91.0936C145.411 91.0936 114.865 121.64 114.865 159.038C114.865 196.436 145.411 226.982 182.809 226.982C220.207 226.982 250.753 196.436 250.753 159.038C250.753 121.64 220.207 91.0936 182.809 91.0936Z" fill="#747D88"/>
</svg>
