<svg width="173" height="94" viewBox="0 0 173 94" fill="none" xmlns="http://www.w3.org/2000/svg">
<path d="M135 34.3C135 24.8 127.2 17 117.7 17H69.3C59.8 17 52 24.8 52 34.3V67.7C52 77.2 59.8 85 69.3 85H121.5L128.3 92.3C130.5 94.5 135 92.9 135 89.5V34.3Z" fill="#747D88"/>
<path d="M117.3 44.4C116.1 32.4 106.2 23 94.2 23C82.2 23 72.2 32.4 71 44.4C68.8 44.6 67 46.5 67 48.8V56.5C67 58.9 69 60.9 71.4 60.9C71.5 60.9 71.6 60.9 71.8 60.9C71.9 61.9 72.8 62.6 73.8 62.6C74.9 62.6 75.8 61.7 75.8 60.6V56.6V48.9V44.6C75.8 43.5 74.9 42.6 73.8 42.6C73.6 42.6 73.5 42.6 73.3 42.6C75.2 32.6 83.8 25 94.2 25C104.6 25 113.3 32.7 115.1 42.9C114.8 42.7 114.4 42.5 113.9 42.5C112.8 42.5 111.9 43.4 111.9 44.5V48.8V56.5V60.5C111.9 61.3 112.4 62 113.1 62.3C111.7 67.6 108.6 72.2 104.2 75.1C103.8 74.6 103.1 74.3 102.4 74.3H98.1C96.7 74.3 95.7 75.4 95.7 76.7C95.7 78 96.8 79.1 98.1 79.1H102.4C103.6 79.1 104.6 78.2 104.8 77C110 73.7 113.7 68.3 115.1 62.2C115.5 61.9 115.9 61.4 116 60.9C116.1 60.9 116.2 60.9 116.4 60.9C118.8 60.9 120.8 58.9 120.8 56.5V48.8C120.7 46.6 120.1 44.8 117.3 44.4Z" fill="white"/>
<path d="M80.1992 61.4001V59.8L82.1992 57.9001C86.9992 53.4001 89.1992 50.9001 89.2992 48.1C89.2992 46.2 88.3992 44.4 85.4992 44.4C83.7992 44.4 82.3992 45.3 81.4992 46L80.6992 44.2001C81.9992 43.1001 83.8992 42.3 86.0992 42.3C90.1992 42.3 91.8992 45.1 91.8992 47.8C91.8992 51.2 89.3992 54.1 85.3992 57.8L83.8992 59.2001H92.3992V61.3L80.1992 61.4001Z" fill="white"/>
<path d="M102.999 61.4001V56.3001H94.1992V54.6001L102.699 42.6001H105.499V54.3001H108.199V56.3001H105.499V61.4001H102.999ZM102.999 54.2001V48.0001C102.999 47.0001 102.999 46.0001 103.099 45.1001H102.999C102.399 46.2001 101.899 47.0001 101.399 47.9001L96.7992 54.3001H102.999V54.2001Z" fill="white"/>
<path d="M162.309 18.0879C162.309 16.4473 162.508 15.1406 162.906 14.168C163.305 13.1953 164.031 12.2402 165.086 11.3027C166.152 10.3535 166.861 9.58594 167.213 9C167.564 8.40234 167.74 7.77539 167.74 7.11914C167.74 5.13867 166.826 4.14844 164.998 4.14844C164.131 4.14844 163.434 4.41797 162.906 4.95703C162.391 5.48438 162.121 6.2168 162.098 7.1543H157C157.023 4.91602 157.744 3.16406 159.162 1.89844C160.592 0.632812 162.537 0 164.998 0C167.482 0 169.41 0.603516 170.781 1.81055C172.152 3.00586 172.838 4.69922 172.838 6.89062C172.838 7.88672 172.615 8.83008 172.17 9.7207C171.725 10.5996 170.945 11.5781 169.832 12.6562L168.408 14.0098C167.518 14.8652 167.008 15.8672 166.879 17.0156L166.809 18.0879H162.309ZM161.799 23.4844C161.799 22.6992 162.062 22.0547 162.59 21.5508C163.129 21.0352 163.814 20.7773 164.646 20.7773C165.479 20.7773 166.158 21.0352 166.686 21.5508C167.225 22.0547 167.494 22.6992 167.494 23.4844C167.494 24.2578 167.23 24.8965 166.703 25.4004C166.188 25.9043 165.502 26.1562 164.646 26.1562C163.791 26.1562 163.1 25.9043 162.572 25.4004C162.057 24.8965 161.799 24.2578 161.799 23.4844Z" fill="#747D88"/>
<path d="M4.0222 32.8306C4.0222 31.5762 4.17314 30.5771 4.47503 29.8333C4.77691 29.0896 5.32741 28.3593 6.12653 27.6425C6.93452 26.9167 7.4717 26.3297 7.73807 25.8817C8.00444 25.4247 8.13762 24.9453 8.13762 24.4435C8.13762 22.9292 7.44506 22.172 6.05993 22.172C5.40289 22.172 4.87458 22.3781 4.47503 22.7903C4.08435 23.1935 3.88013 23.7536 3.86238 24.4704H0C0.017758 22.759 0.563818 21.4194 1.63818 20.4516C2.72142 19.4839 4.19534 19 6.05993 19C7.94229 19 9.40289 19.4615 10.4417 20.3844C11.4806 21.2984 12 22.5932 12 24.2688C12 25.0305 11.8313 25.7518 11.4939 26.4328C11.1565 27.1048 10.566 27.853 9.72253 28.6774L8.64373 29.7124C7.96892 30.3665 7.58269 31.1326 7.48502 32.0108L7.43174 32.8306H4.0222ZM3.63596 36.957C3.63596 36.3566 3.83574 35.8638 4.23529 35.4785C4.64373 35.0842 5.16315 34.8871 5.79356 34.8871C6.42397 34.8871 6.93896 35.0842 7.33851 35.4785C7.74695 35.8638 7.95117 36.3566 7.95117 36.957C7.95117 37.5484 7.75139 38.0367 7.35183 38.422C6.96115 38.8073 6.44173 39 5.79356 39C5.14539 39 4.62153 38.8073 4.22198 38.422C3.8313 38.0367 3.63596 37.5484 3.63596 36.957Z" fill="#747D88"/>
<path d="M25.3518 62.756C25.3518 61.6897 25.4776 60.8405 25.7292 60.2083C25.9808 59.5762 26.4395 58.9554 27.1054 58.3461C27.7788 57.7292 28.2264 57.2303 28.4484 56.8495C28.6704 56.461 28.7814 56.0535 28.7814 55.627C28.7814 54.3398 28.2042 53.6962 27.0499 53.6962C26.5024 53.6962 26.0622 53.8714 25.7292 54.2218C25.4036 54.5645 25.2334 55.0405 25.2186 55.6499H22C22.0148 54.1951 22.4698 53.0565 23.3651 52.2339C24.2679 51.4113 25.4961 51 27.0499 51C28.6186 51 29.8357 51.3922 30.7014 52.1767C31.5671 52.9536 32 54.0542 32 55.4785C32 56.1259 31.8594 56.739 31.5782 57.3179C31.2971 57.8891 30.805 58.5251 30.1021 59.2258L29.2031 60.1055C28.6408 60.6615 28.3189 61.3127 28.2375 62.0591L28.1931 62.756H25.3518ZM25.03 66.2634C25.03 65.7531 25.1964 65.3342 25.5294 65.0067C25.8698 64.6716 26.3026 64.504 26.828 64.504C27.3533 64.504 27.7825 64.6716 28.1154 65.0067C28.4558 65.3342 28.626 65.7531 28.626 66.2634C28.626 66.7661 28.4595 67.1812 28.1265 67.5087C27.801 67.8362 27.3681 68 26.828 68C26.2878 68 25.8513 67.8362 25.5183 67.5087C25.1927 67.1812 25.03 66.7661 25.03 66.2634Z" fill="#747D88"/>
</svg>
