<?xml version="1.0" encoding="utf-8"?>
<!-- Generator: Adobe Illustrator 23.0.6, SVG Export Plug-In . SVG Version: 6.00 Build 0)  -->
<svg version="1.1" id="Слой_1" xmlns="http://www.w3.org/2000/svg" xmlns:xlink="http://www.w3.org/1999/xlink" x="0px" y="0px"
	 viewBox="0 0 89 31" style="enable-background:new 0 0 89 31;" xml:space="preserve">
<style type="text/css">
	.st0{fill:#FFFFFF;}
	.st1{fill-rule:evenodd;clip-rule:evenodd;fill:#FFFFFF;}
</style>
<path class="st0" d="M89,6.3c0-0.2,0-0.4,0-0.7c0-0.5-0.1-1-0.1-1.5c-0.1-0.5-0.2-1-0.4-1.4C88,1.8,87.2,1,86.3,0.6
	c-0.4-0.2-0.9-0.4-1.4-0.4c-0.5-0.1-1-0.1-1.5-0.1c-0.2,0-0.4,0-0.7,0c-0.3,0-0.5,0-0.8,0H7.1C6.8,0,6.5,0,6.2,0C6,0,5.8,0,5.6,0
	c-0.5,0-1,0.1-1.5,0.1c-0.4,0.1-1,0.2-1.4,0.4C2.2,0.8,1.9,1.1,1.5,1.5S0.8,2.2,0.6,2.7c-0.2,0.4-0.4,1-0.4,1.4C0.1,4.6,0,5.2,0,5.6
	C0,5.8,0,6,0,6.3v17.3c0,0.2,0,0.4,0,0.7c0,0.5,0.1,1,0.1,1.5c0.1,0.5,0.2,1,0.4,1.4c0.2,0.5,0.5,0.9,0.9,1.3
	c0.4,0.4,0.7,0.7,1.2,0.9c0.4,0.2,0.9,0.4,1.4,0.4c0.5,0.1,1,0.1,1.5,0.1c0.2,0,0.4,0,0.7,0c0.3,0,0.5,0,0.8,0h74.8
	c0.3,0,0.5,0,0.8,0c0.2,0,0.4,0,0.7,0c0.5,0,1-0.1,1.5-0.1c0.5-0.1,1-0.2,1.4-0.4c0.4-0.2,0.8-0.5,1.2-0.9c0.4-0.4,0.7-0.7,0.9-1.2
	c0.2-0.4,0.4-0.9,0.4-1.4c0.1-0.5,0.1-1,0.1-1.5c0-0.2,0-0.4,0-0.7c0-0.3,0-0.5,0-0.8V7.1C89,6.9,89,6.6,89,6.3z M88.3,22.8
	c0,0.3,0,0.5,0,0.8c0,0.2,0,0.4,0,0.7c0,0.4-0.1,0.9-0.1,1.4c-0.1,0.4-0.2,0.8-0.4,1.3c-0.2,0.4-0.4,0.7-0.7,1
	c-0.3,0.3-0.7,0.6-1,0.7c-0.4,0.2-0.8,0.4-1.3,0.4c-0.4,0.1-0.9,0.1-1.4,0.1c-0.2,0-0.4,0-0.7,0h-0.8H6.2c-0.2,0-0.4,0-0.7,0
	c-0.4,0-1-0.1-1.4-0.1c-0.4-0.1-0.8-0.2-1.3-0.4c-0.4-0.2-0.7-0.4-1-0.7c-0.3-0.3-0.6-0.7-0.7-1c-0.2-0.4-0.3-0.8-0.4-1.3
	c-0.1-0.4-0.1-0.9-0.1-1.4c0-0.1,0-0.7,0-0.7V6.3c0,0,0-0.5,0-0.7c0-0.4,0.1-1,0.1-1.4C0.8,3.8,1,3.4,1.2,3c0.2-0.4,0.4-0.7,0.7-1
	s0.7-0.5,1-0.7C3.3,1,3.8,0.9,4.2,0.8c0.4-0.1,0.9-0.1,1.4-0.1h0.7h76.4h0.7c0.4,0,0.9,0.1,1.4,0.1c0.4,0.1,0.8,0.2,1.3,0.4
	c0.7,0.4,1.4,1,1.8,1.8c0.2,0.4,0.3,0.8,0.4,1.2c0.1,0.4,0.1,1,0.1,1.4c0,0.2,0,0.4,0,0.7c0,0.3,0,0.5,0,0.8L88.3,22.8L88.3,22.8z"
	/>
<path class="st0" d="M31.3,8.5c0,0.5-0.1,1-0.4,1.3c-0.4,0.4-0.9,0.6-1.4,0.6c-0.5,0-1-0.2-1.4-0.6c-0.4-0.4-0.6-0.9-0.6-1.4
	c0-0.6,0.2-1,0.6-1.4c0.4-0.4,0.9-0.6,1.4-0.6c0.3,0,0.5,0.1,0.8,0.2c0.3,0.1,0.4,0.3,0.6,0.4l-0.3,0.3c-0.3-0.3-0.6-0.4-1-0.4
	c-0.4,0-0.8,0.1-1,0.4C28.2,7.7,28,8.1,28,8.5c0,0.4,0.1,0.9,0.4,1.1c0.3,0.3,0.7,0.4,1,0.4c0.4,0,0.8-0.1,1.1-0.4
	c0.2-0.2,0.3-0.4,0.3-0.8h-1.4V8.3h1.9L31.3,8.5z M34.4,6.9h-1.8v1.3h1.6v0.4h-1.6v1.3h1.8v0.5H32v-4h2.3V6.9L34.4,6.9z M36.5,10.4
	H36V6.9h-1.1V6.4h2.8v0.4h-1.1V10.4z M39.6,10.4v-4h0.5v4H39.6L39.6,10.4z M42.3,10.4h-0.5V6.9h-1.1V6.4h2.7v0.4h-1.1L42.3,10.4z
	 M48.6,9.9c-0.4,0.4-0.9,0.6-1.4,0.6c-0.6,0-1-0.2-1.4-0.6c-0.4-0.4-0.6-0.9-0.6-1.4c0-0.6,0.2-1,0.6-1.4c0.4-0.4,0.9-0.6,1.4-0.6
	c0.6,0,1,0.2,1.4,0.6c0.4,0.4,0.6,0.9,0.6,1.4C49.1,9,48.9,9.5,48.6,9.9z M46,9.6c0.3,0.3,0.7,0.4,1,0.4c0.4,0,0.8-0.1,1-0.4
	c0.3-0.3,0.4-0.7,0.4-1.1c0-0.4-0.1-0.9-0.4-1.1c-0.3-0.3-0.7-0.4-1-0.4c-0.4,0-0.8,0.1-1,0.4c-0.3,0.3-0.4,0.7-0.4,1.1
	C45.6,8.9,45.7,9.3,46,9.6z M49.9,10.4v-4h0.6l1.9,3.1V6.4h0.5v4h-0.5l-2-3.2v3.2H49.9L49.9,10.4z"/>
<path class="st0" d="M44.9,16.2c-1.6,0-2.8,1.2-2.8,2.8c0,1.6,1.3,2.8,2.8,2.8c1.6,0,2.8-1.2,2.8-2.8C47.7,17.3,46.5,16.2,44.9,16.2
	z M44.9,20.7c-0.9,0-1.6-0.7-1.6-1.7c0-1,0.7-1.7,1.6-1.7c0.8,0,1.6,0.7,1.6,1.7C46.5,20,45.8,20.7,44.9,20.7z M38.8,16.2
	c-1.6,0-2.8,1.2-2.8,2.8c0,1.6,1.3,2.8,2.8,2.8c1.6,0,2.8-1.2,2.8-2.8C41.6,17.3,40.4,16.2,38.8,16.2z M38.8,20.7
	c-0.9,0-1.6-0.7-1.6-1.7c0-1,0.7-1.7,1.6-1.7c0.9,0,1.6,0.7,1.6,1.7C40.4,20,39.6,20.7,38.8,20.7z M31.5,17.1v1.2h2.8
	c-0.1,0.7-0.3,1.2-0.7,1.5c-0.4,0.4-1,0.9-2.2,0.9c-1.8,0-3.1-1.4-3.1-3.2s1.4-3.2,3.1-3.2c0.9,0,1.6,0.4,2.2,0.9l0.9-0.9
	c-0.7-0.7-1.6-1.2-3-1.2c-2.4,0-4.4,2-4.4,4.3s2,4.3,4.4,4.3c1.3,0,2.2-0.4,3-1.3c0.8-0.8,1-1.9,1-2.8c0-0.3,0-0.5-0.1-0.7
	L31.5,17.1z M61.4,18c-0.3-0.7-0.9-1.8-2.4-1.8c-1.5,0-2.6,1.1-2.6,2.8c0,1.6,1.2,2.8,2.8,2.8c1.3,0,2-0.8,2.3-1.3l-0.9-0.7
	c-0.3,0.4-0.7,0.8-1.4,0.8c-0.7,0-1-0.3-1.4-0.9l3.7-1.6L61.4,18z M57.5,18.9c0-1,0.9-1.6,1.4-1.6c0.4,0,0.9,0.3,1,0.6L57.5,18.9z
	 M54.5,21.7h1.3v-8.3h-1.3V21.7z M52.5,16.8c-0.3-0.3-0.9-0.7-1.5-0.7c-1.4,0-2.7,1.3-2.7,2.8c0,1.6,1.3,2.8,2.7,2.8
	c0.7,0,1.2-0.3,1.4-0.7h0.1v0.4c0,1-0.6,1.6-1.5,1.6c-0.7,0-1.3-0.5-1.4-1l-1,0.4c0.3,0.7,1.1,1.6,2.5,1.6s2.6-0.9,2.6-2.9v-5h-1.2
	V16.8z M51.1,20.7c-0.9,0-1.6-0.7-1.6-1.7c0-1,0.7-1.7,1.6-1.7c0.9,0,1.5,0.7,1.5,1.7C52.6,20,51.9,20.7,51.1,20.7z M67.1,13.4h-3
	v8.3h1.3v-3.1h1.7c1.4,0,2.7-1,2.7-2.6C69.8,14.3,68.5,13.4,67.1,13.4z M67.2,17.3h-1.8v-2.8h1.8c0.9,0,1.4,0.8,1.4,1.4
	C68.6,16.6,68,17.3,67.2,17.3z M74.7,16.1c-0.9,0-1.9,0.4-2.2,1.3l1.1,0.4c0.3-0.4,0.7-0.6,1.1-0.6c0.7,0,1.3,0.4,1.3,1v0.1
	c-0.2-0.1-0.7-0.3-1.3-0.3c-1.2,0-2.4,0.7-2.4,1.9c0,1.1,1,1.9,2,1.9c0.9,0,1.3-0.4,1.6-0.8h0.1v0.7h1.2v-3.2
	C77.3,17,76.1,16.1,74.7,16.1z M74.6,20.7c-0.4,0-1-0.2-1-0.7c0-0.7,0.7-0.9,1.3-0.9c0.5,0,0.8,0.1,1.1,0.3
	C75.9,20.2,75.2,20.7,74.6,20.7z M81.6,16.4l-1.4,3.6h-0.1l-1.4-3.6h-1.3l2.2,5l-1.3,2.8h1.3l3.3-7.8H81.6z M70.5,21.7h1.3v-8.3
	h-1.3V21.7z"/>
<path class="st1" d="M7.1,23.3l0.1,0.1c0.3,0.2,0.7,0.2,1.1,0l8.8-4.9l-2.6-2.6L7.1,23.3z"/>
<path class="st1" d="M6.7,8v14.3l7.1-7.2L6.7,8z"/>
<path class="st1" d="M17.2,11.7l-8.9-5C8,6.4,7.6,6.5,7.2,6.6L7,6.8l7.5,7.5L17.2,11.7z"/>
<path class="st1" d="M21.6,14.1l-3.5-1.9l-2.9,2.9l2.8,2.8l3.6-2c0.4-0.2,0.5-0.5,0.5-0.9C22.2,14.6,22,14.3,21.6,14.1z"/>
</svg>
