<svg width="116" height="39" viewBox="0 0 116 39" fill="none" xmlns="http://www.w3.org/2000/svg">
<path d="M116 8.14035C116 7.84962 116 7.5589 116 7.26817C116 6.58981 115.903 6.00835 115.806 5.32999C115.709 4.65163 115.515 4.07018 115.225 3.48872C114.643 2.32581 113.674 1.35673 112.511 0.775272C111.93 0.484545 111.348 0.290727 110.67 0.193818C109.992 0.0969089 109.41 0 108.732 0C108.441 0 108.15 0 107.86 0C107.472 0 107.181 0 106.794 0H9.20635C8.91562 0 8.52799 0 8.14035 0C7.84962 0 7.5589 0 7.26817 0C6.58981 0 6.00835 0.0969089 5.32999 0.193818C4.74854 0.290727 4.07018 0.484545 3.48872 0.775272C2.90727 1.066 2.42272 1.45363 1.93818 1.93818C1.45363 2.42272 1.066 2.90727 0.775272 3.48872C0.484545 4.07018 0.290727 4.74854 0.193818 5.32999C0.0969089 6.00835 0 6.68672 0 7.26817C0 7.5589 0 7.84962 0 8.14035V30.5263C0 30.817 0 31.1078 0 31.3985C0 32.0769 0.0969089 32.6583 0.193818 33.3367C0.290727 34.015 0.484545 34.5965 0.775272 35.1779C1.066 35.8563 1.45363 36.3409 1.93818 36.8254C2.42272 37.3099 2.90727 37.6976 3.48872 37.9883C4.07018 38.279 4.65163 38.4728 5.32999 38.5698C6.00835 38.6667 6.58981 38.7636 7.26817 38.7636C7.5589 38.7636 7.84962 38.7636 8.14035 38.7636C8.52799 38.7636 8.81871 38.7636 9.20635 38.7636H106.697C107.084 38.7636 107.375 38.7636 107.763 38.7636C108.053 38.7636 108.344 38.7636 108.635 38.7636C109.313 38.7636 109.895 38.6667 110.573 38.5698C111.251 38.4728 111.833 38.279 112.414 37.9883C112.996 37.6976 113.48 37.3099 113.965 36.8254C114.449 36.3409 114.837 35.8563 115.128 35.2749C115.419 34.6934 115.612 34.1119 115.709 33.4336C115.806 32.7552 115.903 32.1738 115.903 31.4954C115.903 31.2047 115.903 30.914 115.903 30.6232C115.903 30.2356 115.903 29.9449 115.903 29.5572V9.20635C116 8.91562 116 8.52799 116 8.14035ZM115.128 29.5572C115.128 29.9449 115.128 30.2356 115.128 30.6232C115.128 30.914 115.128 31.2047 115.128 31.4954C115.128 32.0769 115.031 32.6583 114.934 33.3367C114.837 33.9181 114.643 34.4027 114.449 34.9841C114.159 35.4687 113.868 35.9532 113.48 36.3409C113.093 36.7285 112.608 37.1161 112.124 37.3099C111.639 37.6007 111.058 37.7945 110.476 37.7945C109.895 37.8914 109.313 37.9883 108.635 37.9883C108.344 37.9883 108.053 37.9883 107.763 37.9883H106.697H8.14035C7.84962 37.9883 7.5589 37.9883 7.26817 37.9883C6.68672 37.9883 6.00835 37.8914 5.4269 37.7945C4.84545 37.6976 4.3609 37.5038 3.77945 37.3099C3.2949 37.0192 2.81036 36.7285 2.42272 36.3409C2.03509 35.9532 1.64745 35.4687 1.45363 34.9841C1.16291 34.4996 1.066 33.9181 0.969089 33.3367C0.87218 32.7552 0.775272 32.1738 0.775272 31.4954C0.775272 31.3016 0.775272 30.6232 0.775272 30.6232V8.14035C0.775272 8.14035 0.775272 7.46199 0.775272 7.26817C0.775272 6.68672 0.87218 6.00835 0.969089 5.4269C1.066 4.94236 1.25982 4.3609 1.55054 3.87636C1.84127 3.39181 2.132 2.90727 2.51963 2.51963C2.90727 2.132 3.39181 1.84127 3.87636 1.55054C4.3609 1.25982 4.94236 1.16291 5.52381 1.066C6.10526 0.969089 6.68672 0.87218 7.36508 0.87218H8.23726H107.86H108.732C109.313 0.87218 109.895 0.969089 110.573 1.066C111.155 1.16291 111.639 1.35673 112.221 1.55054C113.19 2.03509 114.062 2.90727 114.546 3.87636C114.837 4.3609 114.934 4.94236 115.031 5.4269C115.128 6.00835 115.225 6.68672 115.225 7.26817C115.225 7.5589 115.225 7.84962 115.225 8.14035C115.225 8.52799 115.225 8.81871 115.225 9.20635V29.5572H115.128Z" fill="#787878"/>
<path d="M40.7985 11.0474C40.7985 11.7258 40.6047 12.3073 40.2171 12.7918C39.7325 13.2763 39.0542 13.5671 38.3758 13.5671C37.6975 13.5671 37.0191 13.2763 36.5345 12.7918C36.05 12.3073 35.7593 11.6289 35.7593 10.9505C35.7593 10.1753 36.05 9.5938 36.5345 9.10926C37.0191 8.62471 37.6975 8.33398 38.3758 8.33398C38.7635 8.33398 39.0542 8.43089 39.4418 8.62471C39.8295 8.81853 40.0233 9.01235 40.2171 9.20616L39.8294 9.5938C39.4418 9.20616 39.0542 9.01235 38.4727 9.01235C37.9882 9.01235 37.4067 9.20616 37.116 9.5938C36.7284 9.98144 36.5345 10.466 36.5345 11.0474C36.5345 11.6289 36.7284 12.2103 37.116 12.5011C37.5036 12.8887 37.9882 13.0825 38.4727 13.0825C39.0542 13.0825 39.5387 12.8887 39.9264 12.5011C40.2171 12.2103 40.314 11.9196 40.314 11.4351H38.4727V10.7567H40.9924L40.7985 11.0474ZM44.7718 8.91544H42.446V10.5629H44.578V11.1443H42.446V12.7918H44.7718V13.4702H41.7676V8.33398H44.7718V8.91544V8.91544ZM47.5822 13.4702H46.9038V8.91544H45.4502V8.33398H49.0358V8.91544H47.5822V13.4702ZM51.5554 13.4702V8.33398H52.2338V13.4702H51.5554V13.4702ZM55.1411 13.4702H54.4627V8.91544H53.0091V8.33398H56.4978V8.91544H55.0442L55.1411 13.4702ZM63.2814 12.7918C62.7969 13.2763 62.1185 13.5671 61.4401 13.5671C60.6649 13.5671 60.0834 13.2763 59.5989 12.7918C59.1143 12.3073 58.8236 11.6289 58.8236 10.9505C58.8236 10.1753 59.1143 9.5938 59.5989 9.10926C60.0834 8.62471 60.7618 8.33398 61.4401 8.33398C62.2154 8.33398 62.7969 8.62471 63.2814 9.10926C63.766 9.5938 64.0567 10.2722 64.0567 10.9505C64.0567 11.7258 63.766 12.3073 63.2814 12.7918ZM59.9865 12.4042C60.3741 12.7918 60.8587 12.9856 61.3432 12.9856C61.8278 12.9856 62.4092 12.7918 62.7 12.4042C63.0876 12.0165 63.2814 11.532 63.2814 10.9505C63.2814 10.3691 63.0876 9.78762 62.7 9.49689C62.3123 9.10926 61.8278 8.91544 61.3432 8.91544C60.8587 8.91544 60.2772 9.10926 59.9865 9.49689C59.5989 9.88453 59.4051 10.3691 59.4051 10.9505C59.4051 11.532 59.5989 12.0165 59.9865 12.4042ZM65.0258 13.4702V8.33398H65.801L68.3207 12.4042V8.33398H68.999V13.4702H68.3207L65.7041 9.30307V13.4702H65.0258V13.4702Z" fill="#787878"/>
<path d="M58.5331 21.0292C56.498 21.0292 54.8505 22.5797 54.8505 24.7117C54.8505 26.7468 56.498 28.3942 58.5331 28.3942C60.5682 28.3942 62.2156 26.8437 62.2156 24.7117C62.2156 22.4828 60.5682 21.0292 58.5331 21.0292ZM58.5331 26.8437C57.3702 26.8437 56.498 25.8746 56.498 24.6148C56.498 23.355 57.4671 22.3859 58.5331 22.3859C59.5991 22.3859 60.5682 23.2581 60.5682 24.6148C60.5682 25.9715 59.696 26.8437 58.5331 26.8437ZM50.5865 21.0292C48.5515 21.0292 46.904 22.5797 46.904 24.7117C46.904 26.7468 48.5515 28.3942 50.5865 28.3942C52.6216 28.3942 54.2691 26.8437 54.2691 24.7117C54.2691 22.4828 52.6216 21.0292 50.5865 21.0292ZM50.5865 26.8437C49.4236 26.8437 48.5515 25.8746 48.5515 24.6148C48.5515 23.355 49.5205 22.3859 50.5865 22.3859C51.7495 22.3859 52.6216 23.2581 52.6216 24.6148C52.6216 25.9715 51.6525 26.8437 50.5865 26.8437ZM41.0895 22.1921V23.7426H44.772C44.6751 24.6148 44.3844 25.2932 43.8998 25.6808C43.4153 26.1653 42.5431 26.8437 41.0895 26.8437C38.7637 26.8437 37.0193 25.0024 37.0193 22.6766C37.0193 20.3508 38.8606 18.5095 41.0895 18.5095C42.2524 18.5095 43.2215 18.9941 43.8998 19.6724L45.0627 18.5095C44.0936 17.6373 42.9307 16.959 41.1864 16.959C38.0853 16.959 35.4688 19.5755 35.4688 22.5797C35.4688 25.5839 38.0853 28.2004 41.1864 28.2004C42.9307 28.2004 44.0936 27.7159 45.1596 26.553C46.2256 25.487 46.5164 24.0333 46.5164 22.9673C46.5164 22.5797 46.5164 22.289 46.4195 21.9983L41.0895 22.1921ZM80.0469 23.355C79.6592 22.4828 78.884 21.0292 76.9458 21.0292C75.0076 21.0292 73.554 22.4828 73.554 24.7117C73.554 26.7468 75.1045 28.3942 77.1396 28.3942C78.787 28.3942 79.7561 27.3282 80.1438 26.7468L78.9809 25.8746C78.5932 26.4561 78.0118 26.9406 77.1396 26.9406C76.2674 26.9406 75.7829 26.553 75.2983 25.7777L80.1438 23.7426L80.0469 23.355ZM75.0076 24.5179C75.0076 23.1612 76.1705 22.3859 76.8489 22.3859C77.4303 22.3859 78.0118 22.7735 78.2056 23.1612L75.0076 24.5179ZM71.0343 28.1035H72.6818V17.3466H71.0343V28.1035ZM68.4178 21.8044C68.0302 21.4168 67.2549 20.9323 66.4796 20.9323C64.6383 20.9323 62.9909 22.5797 62.9909 24.6148C62.9909 26.6499 64.6383 28.2004 66.4796 28.2004C67.3518 28.2004 68.0302 27.8128 68.3209 27.3282H68.4178V27.8128C68.4178 29.1695 67.6425 29.9448 66.4796 29.9448C65.5105 29.9448 64.8322 29.2664 64.6383 28.685L63.2816 29.2664C63.6693 30.2355 64.7352 31.3984 66.5765 31.3984C68.4178 31.3984 69.9683 30.2355 69.9683 27.619V21.1261H68.4178V21.8044ZM66.5765 26.8437C65.4136 26.8437 64.5414 25.8746 64.5414 24.6148C64.5414 23.355 65.5105 22.3859 66.5765 22.3859C67.7394 22.3859 68.5147 23.355 68.5147 24.6148C68.5147 25.9715 67.6425 26.8437 66.5765 26.8437ZM87.5089 17.3466H83.6325V28.1035H85.2799V24.0333H87.5089C89.3501 24.0333 90.9976 22.7735 90.9976 20.6415C90.9976 18.5095 89.2532 17.3466 87.5089 17.3466ZM87.6058 22.4828H85.2799V18.8003H87.6058C88.7687 18.8003 89.447 19.8663 89.447 20.6415C89.3501 21.5137 88.6718 22.4828 87.6058 22.4828ZM97.3936 20.9323C96.2307 20.9323 94.9708 21.4168 94.5832 22.5797L96.0368 23.1612C96.4245 22.5797 96.909 22.3859 97.4905 22.3859C98.3626 22.3859 99.1379 22.8704 99.2348 23.7426V23.8395C98.9441 23.6457 98.2657 23.4519 97.5874 23.4519C96.0368 23.4519 94.4863 24.3241 94.4863 25.8746C94.4863 27.3282 95.7461 28.2973 97.1028 28.2973C98.2657 28.2973 98.7503 27.8128 99.1379 27.2313H99.2348V28.1035H100.785V23.9364C100.688 22.0952 99.2348 20.9323 97.3936 20.9323ZM97.2967 26.8437C96.8121 26.8437 96.0368 26.553 96.0368 25.8746C96.0368 25.0024 97.0059 24.7117 97.7812 24.7117C98.4596 24.7117 98.8472 24.9055 99.2348 25.0993C98.9441 26.1653 98.0719 26.8437 97.2967 26.8437ZM106.309 21.223L104.468 25.8746H104.371L102.53 21.223H100.785L103.596 27.7159L101.948 31.3015H103.596L107.957 21.223H106.309ZM91.8698 28.1035H93.5172V17.3466H91.8698V28.1035Z" fill="#787878"/>
<path fill-rule="evenodd" clip-rule="evenodd" d="M9.20642 30.2348L9.40024 30.3317C9.78787 30.6225 10.3693 30.6225 10.8539 30.3317L22.386 23.9358L18.9942 20.5439L9.20642 30.2348Z" fill="#787878"/>
<path fill-rule="evenodd" clip-rule="evenodd" d="M8.72192 10.3687V28.8783L17.9283 19.575L8.72192 10.3687Z" fill="#787878"/>
<path fill-rule="evenodd" clip-rule="evenodd" d="M22.4831 15.1173L10.854 8.6244C10.3694 8.33368 9.88489 8.43059 9.40035 8.6244L9.10962 8.81822L18.8974 18.606L22.4831 15.1173Z" fill="#787878"/>
<path fill-rule="evenodd" clip-rule="evenodd" d="M28.2007 18.3155L23.646 15.7959L19.8666 19.5753L23.5491 23.2579L28.2007 20.6413C28.6853 20.3506 28.8791 19.963 28.8791 19.4784C28.976 18.9939 28.6853 18.5093 28.2007 18.3155Z" fill="#787878"/>
</svg>  