<svg width="88" height="31" viewBox="0 0 88 31" fill="none" xmlns="http://www.w3.org/2000/svg">
<path d="M88 7.14055C88 6.90805 88 6.68305 88 6.45055C87.9926 5.94805 87.9485 5.44555 87.8603 4.95055C87.7794 4.45555 87.6249 3.97555 87.4043 3.52555C86.9483 2.62555 86.2276 1.89055 85.3451 1.42555C84.9039 1.20055 84.4332 1.04305 83.9405 0.953047C83.4551 0.870547 82.9624 0.825547 82.4697 0.818047C82.249 0.818047 82.0137 0.810547 81.7931 0.810547C81.5283 0.810547 81.2636 0.810547 80.9988 0.810547H7.00852C6.74377 0.810547 6.47902 0.810547 6.20692 0.810547C5.97894 0.810547 5.75832 0.818047 5.53034 0.818047C5.03761 0.825547 4.54488 0.870547 4.0595 0.953047C3.57413 1.03555 3.10346 1.19305 2.66221 1.42555C2.22096 1.65055 1.81648 1.95055 1.47083 2.31055C1.11783 2.66305 0.823667 3.07555 0.603042 3.52555C0.382417 3.97555 0.227979 4.45555 0.139729 4.95055C0.0588334 5.44555 0.0147083 5.94805 0.00735417 6.45055C0.00735417 6.68305 0 6.91555 0 7.14055V24.473C0 24.7055 0.00735417 24.9305 0.0147083 25.163C0.0220625 25.6655 0.0661875 26.168 0.147083 26.663C0.227979 27.158 0.382417 27.6455 0.610396 28.088C0.831021 28.538 1.12519 28.943 1.47819 29.2955C1.82383 29.6555 2.22831 29.9555 2.66956 30.1805C3.11081 30.4055 3.58148 30.5705 4.06686 30.653C4.55223 30.7355 5.04496 30.7805 5.53769 30.788C5.75832 30.803 5.97894 30.8105 6.20692 30.8105C6.47902 30.8105 6.74377 30.8105 7.00852 30.8105H80.9915C81.2562 30.8105 81.521 30.8105 81.7857 30.8105C82.0063 30.8105 82.2417 30.8105 82.4623 30.803C82.955 30.7955 83.4478 30.7505 83.9331 30.668C84.4185 30.5855 84.8965 30.4205 85.3378 30.1955C85.779 29.9705 86.1762 29.6705 86.5292 29.3105C86.8822 28.958 87.169 28.5455 87.397 28.103C87.6176 27.653 87.772 27.173 87.8529 26.678C87.9338 26.183 87.9779 25.6805 87.9926 25.178C87.9926 24.9455 87.9926 24.7205 87.9926 24.488C88 24.218 88 23.948 88 23.6705V7.96555C88 7.68805 88 7.41805 88 7.14055ZM87.3602 23.6555C87.3602 23.9255 87.3602 24.1955 87.3528 24.4655C87.3528 24.713 87.3528 24.9305 87.3528 25.163C87.3455 25.628 87.3014 26.093 87.2278 26.5505C87.1616 26.9855 87.0219 27.4055 86.8307 27.803C86.6395 28.1855 86.3821 28.538 86.0806 28.8455C85.779 29.153 85.4334 29.4155 85.051 29.6105C84.6612 29.813 84.2494 29.948 83.8228 30.023C83.3669 30.098 82.9109 30.143 82.4476 30.143C82.2343 30.1505 82.0063 30.1505 81.7857 30.1505H80.9915H6.20692C5.98629 30.1505 5.76567 30.1505 5.54504 30.143C5.08173 30.1355 4.62577 30.098 4.16981 30.023C3.74327 29.948 3.33879 29.813 2.94902 29.6105C2.56661 29.4155 2.22096 29.153 1.91944 28.8455C1.61792 28.538 1.36052 28.1855 1.16931 27.7955C0.978105 27.4055 0.838375 26.9855 0.772188 26.5505C0.698646 26.0855 0.654521 25.613 0.647167 25.1405C0.639813 24.983 0.639813 24.458 0.639813 24.458V7.14055C0.639813 7.14055 0.647167 6.62305 0.647167 6.47305C0.661875 6.00055 0.698646 5.53555 0.772188 5.07055C0.84573 4.63555 0.978105 4.21555 1.17667 3.82555C1.36788 3.43555 1.61792 3.08305 1.92679 2.77555C2.22096 2.46805 2.57396 2.20555 2.94902 2.01055C3.33144 1.81555 3.74327 1.67305 4.16246 1.60555C4.61842 1.53055 5.08173 1.48555 5.54504 1.48555L6.20692 1.47805H81.7857L82.455 1.48555C82.9109 1.49305 83.3669 1.53055 83.8228 1.60555C84.2494 1.68055 84.6612 1.81555 85.051 2.01805C85.8158 2.41555 86.4336 3.05305 86.8307 3.83305C87.0219 4.22305 87.1543 4.64305 87.2278 5.07055C87.3014 5.53555 87.3455 6.00805 87.3528 6.48805C87.3528 6.69805 87.3528 6.93055 87.3528 7.15555C87.3602 7.44055 87.3602 7.70305 87.3602 7.97305V23.6555Z" fill="#787878"/>
<path d="M18.3855 15.7266C18.4002 14.4066 19.0842 13.1841 20.1873 12.4866C19.4886 11.4666 18.3561 10.8441 17.1353 10.8066C15.8483 10.6716 14.6055 11.5866 13.951 11.5866C13.2817 11.5866 12.2742 10.8141 11.1931 10.8366C9.76643 10.8816 8.46474 11.6916 7.77345 12.9666C6.29526 15.5766 7.39839 19.4166 8.81774 21.5241C9.52375 22.5591 10.3548 23.7141 11.4358 23.6691C12.4948 23.6241 12.892 22.9791 14.1716 22.9791C15.4365 22.9791 15.8116 23.6691 16.9147 23.6466C18.0546 23.6241 18.7679 22.6116 19.4519 21.5616C19.9593 20.8266 20.3564 20.0091 20.6138 19.1466C19.2607 18.5766 18.3855 17.2266 18.3855 15.7266Z" fill="#787878"/>
<path d="M16.2968 9.41976C16.9146 8.66226 17.2235 7.67977 17.1499 6.69727C16.2012 6.80227 15.3261 7.25977 14.6936 7.99477C14.0759 8.71477 13.7596 9.65976 13.8185 10.6198C14.7819 10.6198 15.6938 10.1848 16.2968 9.41976Z" fill="#787878"/>
<path d="M31.108 21.1661H27.6295L26.7911 23.6861H25.3203L28.615 14.3711H30.1447L33.4393 23.6861H31.9391L31.108 21.1661ZM27.9899 20.0036H30.7477L29.3872 15.9161H29.3504L27.9899 20.0036Z" fill="#787878"/>
<path d="M40.5656 20.2886C40.5656 22.3961 39.4551 23.7536 37.7857 23.7536C36.9253 23.7986 36.109 23.3411 35.6898 22.5686H35.6604V25.9286H34.2925V16.8911H35.6162V18.0236H35.6383C36.0722 17.2586 36.8885 16.7936 37.7563 16.8236C39.4478 16.8236 40.5656 18.1811 40.5656 20.2886ZM39.1609 20.2886C39.1609 18.9161 38.4623 18.0086 37.4033 18.0086C36.359 18.0086 35.653 18.9311 35.653 20.2886C35.653 21.6536 36.359 22.5761 37.4033 22.5761C38.4623 22.5761 39.1609 21.6761 39.1609 20.2886Z" fill="#787878"/>
<path d="M47.8903 20.2886C47.8903 22.3961 46.7798 23.7536 45.1104 23.7536C44.25 23.7986 43.4336 23.3411 43.0145 22.5686H42.985V25.9286H41.6245V16.8911H42.9483V18.0236H42.9703C43.4042 17.2586 44.2205 16.7936 45.0883 16.8236C46.7798 16.8236 47.8903 18.1811 47.8903 20.2886ZM46.4856 20.2886C46.4856 18.9161 45.787 18.0086 44.728 18.0086C43.6837 18.0086 42.9777 18.9311 42.9777 20.2886C42.9777 21.6536 43.6837 22.5761 44.728 22.5761C45.7943 22.5761 46.4856 21.6761 46.4856 20.2886Z" fill="#787878"/>
<path d="M52.7367 21.0904C52.8396 22.0129 53.7148 22.6204 54.9208 22.6204C56.0754 22.6204 56.8991 22.0129 56.8991 21.1804C56.8991 20.4604 56.399 20.0254 55.215 19.7254L54.031 19.4329C52.3542 19.0204 51.5747 18.2179 51.5747 16.9204C51.5747 15.3154 52.9499 14.2129 54.8988 14.2129C56.8329 14.2129 58.1493 15.3154 58.1935 16.9204H56.8109C56.73 15.9904 55.9725 15.4279 54.8767 15.4279C53.7809 15.4279 53.0235 15.9979 53.0235 16.8229C53.0235 17.4829 53.5015 17.8654 54.6782 18.1654L55.6857 18.4204C57.561 18.8704 58.3405 19.6429 58.3405 21.0004C58.3405 22.7404 56.98 23.8354 54.8179 23.8354C52.7955 23.8354 51.4276 22.7704 51.3394 21.0829L52.7367 21.0904Z" fill="#787878"/>
<path d="M61.2967 15.2852V16.8902H62.5616V17.9927H61.2967V21.7352C61.2967 22.3202 61.5467 22.5902 62.1056 22.5902C62.2527 22.5902 62.4071 22.5752 62.5542 22.5602V23.6552C62.3042 23.7002 62.0468 23.7227 61.7967 23.7227C60.4509 23.7227 59.9214 23.2052 59.9214 21.8927V18.0002H58.9507V16.8977H59.9214V15.2852H61.2967Z" fill="#787878"/>
<path d="M63.29 20.2886C63.29 18.1511 64.5255 16.8086 66.445 16.8086C68.3791 16.8086 69.5999 18.1511 69.5999 20.2886C69.5999 22.4336 68.3791 23.7686 66.445 23.7686C64.5182 23.7686 63.29 22.4336 63.29 20.2886ZM68.2173 20.2886C68.2173 18.8261 67.5555 17.9561 66.4523 17.9561C65.3492 17.9561 64.6873 18.8261 64.6873 20.2886C64.6873 21.7586 65.3492 22.6211 66.4523 22.6211C67.5555 22.6211 68.2173 21.7586 68.2173 20.2886Z" fill="#787878"/>
<path d="M70.7397 16.8902H72.0414V18.0452H72.0708C72.2547 17.3027 72.9239 16.7927 73.674 16.8152C73.8285 16.8152 73.9903 16.8302 74.1447 16.8677V18.1727C73.9462 18.1127 73.7402 18.0827 73.5343 18.0902C72.7768 18.0602 72.1297 18.6602 72.1003 19.4402C72.1003 19.5152 72.1003 19.5827 72.1076 19.6577V23.6852H70.7397V16.8902Z" fill="#787878"/>
<path d="M80.44 21.6911C80.2561 22.9211 79.0795 23.7686 77.5719 23.7686C75.6377 23.7686 74.4316 22.4486 74.4316 20.3186C74.4316 18.1886 75.6377 16.8086 77.513 16.8086C79.3516 16.8086 80.5135 18.0986 80.5135 20.1611V20.6411H75.8142V20.7236C75.7333 21.6986 76.432 22.5536 77.388 22.6436C77.4616 22.6511 77.5351 22.6511 77.6013 22.6511C78.2632 22.7111 78.8883 22.3286 79.1383 21.6986L80.44 21.6911ZM75.8216 19.6586H79.153C79.2045 18.7586 78.5279 17.9861 77.6454 17.9411C77.6013 17.9411 77.5645 17.9411 77.5204 17.9411C76.5864 17.9336 75.8289 18.6986 75.8216 19.6511V19.6586Z" fill="#787878"/>
<path d="M27.8209 7.35829C28.8873 7.28329 29.8213 8.10079 29.8948 9.18829C29.9022 9.31579 29.9022 9.45079 29.8874 9.57829C29.8874 11.0108 29.13 11.8283 27.8209 11.8283H26.2324V7.35829H27.8209ZM26.9164 11.1983H27.7474C28.5049 11.2433 29.1594 10.6508 29.2035 9.87829C29.2109 9.78079 29.2035 9.68329 29.1888 9.58579C29.2918 8.81329 28.7623 8.10079 28.0048 7.99579C27.9165 7.98079 27.8283 7.98079 27.74 7.98829H26.9164V11.1983Z" fill="#787878"/>
<path d="M30.652 10.1413C30.5711 9.26383 31.2036 8.48383 32.064 8.39383C32.9244 8.31133 33.6893 8.95633 33.7775 9.83383C33.7849 9.93883 33.7849 10.0363 33.7775 10.1413C33.8584 11.0188 33.2333 11.8063 32.3655 11.8888C31.5051 11.9713 30.7329 11.3338 30.652 10.4488C30.6446 10.3513 30.6446 10.2463 30.652 10.1413ZM33.1009 10.1413C33.1009 9.40633 32.7773 8.97883 32.2111 8.97883C31.6448 8.97883 31.3212 9.40633 31.3212 10.1413C31.3212 10.8763 31.6374 11.3038 32.2111 11.3038C32.7847 11.3038 33.1009 10.8763 33.1009 10.1413Z" fill="#787878"/>
<path d="M37.9256 11.8359H37.249L36.5651 9.34594H36.5136L35.8297 11.8359H35.1605L34.2485 8.46094H34.9104L35.5061 11.0409H35.5576L36.2415 8.46094H36.8666L37.5506 11.0409H37.602L38.1904 8.46094H38.8449L37.9256 11.8359Z" fill="#787878"/>
<path d="M39.6021 8.45251H40.2345V8.99251H40.286C40.4551 8.59501 40.8523 8.35501 41.2715 8.39251C41.8671 8.34751 42.3819 8.79751 42.4261 9.40501C42.4334 9.48751 42.4261 9.57001 42.4187 9.64501V11.8275H41.7642V9.81001C41.7642 9.27001 41.5362 9.00001 41.0508 9.00001C40.6316 8.97751 40.2786 9.30751 40.2566 9.73501C40.2566 9.77251 40.2566 9.81751 40.2566 9.85501V11.8275H39.6021V8.45251Z" fill="#787878"/>
<path d="M43.4561 7.14062H44.1106V11.8356H43.4561V7.14062Z" fill="#787878"/>
<path d="M45.0223 10.1413C44.9414 9.26383 45.5738 8.48383 46.4343 8.39383C47.2947 8.31133 48.0595 8.95633 48.1478 9.83383C48.1551 9.93883 48.1551 10.0363 48.1478 10.1413C48.2287 11.0188 47.6036 11.8063 46.7358 11.8888C45.868 11.9713 45.1032 11.3338 45.0223 10.4488C45.0076 10.3513 45.0076 10.2463 45.0223 10.1413ZM47.4712 10.1413C47.4712 9.40633 47.1476 8.97883 46.5813 8.97883C46.0151 8.97883 45.6915 9.40633 45.6915 10.1413C45.6915 10.8763 46.0077 11.3038 46.5813 11.3038C47.1476 11.3038 47.4712 10.8763 47.4712 10.1413Z" fill="#787878"/>
<path d="M48.8315 10.8751C48.8315 10.2676 49.2728 9.91508 50.0597 9.87008L50.9569 9.81758V9.52508C50.9569 9.16508 50.7289 8.97008 50.2803 8.97008C49.9126 8.97008 49.6626 9.10508 49.589 9.34508H48.9566C49.0228 8.76758 49.5596 8.39258 50.3097 8.39258C51.1408 8.39258 51.6114 8.81258 51.6114 9.52508V11.8351H50.979V11.3626H50.9275C50.7142 11.7076 50.3318 11.9101 49.9347 11.8951C49.3831 11.9551 48.8904 11.5426 48.8389 10.9876C48.8315 10.9426 48.8315 10.9126 48.8315 10.8751ZM50.9643 10.5901V10.3051L50.1553 10.3576C49.6993 10.3876 49.4934 10.5451 49.4934 10.8451C49.4934 11.1526 49.7508 11.3251 50.1038 11.3251C50.5304 11.3701 50.9128 11.0476 50.9569 10.6126C50.9569 10.6051 50.9569 10.5976 50.9643 10.5901Z" fill="#787878"/>
<path d="M52.4722 10.1406C52.4722 9.07562 53.009 8.40062 53.8474 8.40062C54.2666 8.37813 54.6637 8.61063 54.8623 8.99312H54.9138V7.14062H55.5683V11.8356H54.9358V11.3031H54.8843C54.6711 11.6781 54.2739 11.9106 53.8474 11.8956C53.0017 11.8881 52.4722 11.2131 52.4722 10.1406ZM53.1488 10.1406C53.1488 10.8606 53.4797 11.2881 54.0313 11.2881C54.5828 11.2881 54.9211 10.8531 54.9211 10.1406C54.9211 9.43562 54.5755 8.99312 54.0313 8.99312C53.4797 9.00062 53.1488 9.43562 53.1488 10.1406Z" fill="#787878"/>
<path d="M58.2672 10.1406C58.1863 9.26307 58.8188 8.48307 59.6792 8.39307C60.5397 8.30307 61.3045 8.95557 61.3927 9.83307C61.4001 9.93807 61.4001 10.0356 61.3927 10.1406C61.4736 11.0181 60.8485 11.8056 59.9807 11.8881C59.1203 11.9706 58.3481 11.3331 58.2672 10.4481C58.2599 10.3506 58.2599 10.2456 58.2672 10.1406ZM60.7162 10.1406C60.7162 9.40557 60.3926 8.97807 59.8263 8.97807C59.26 8.97807 58.9365 9.40557 58.9365 10.1406C58.9365 10.8756 59.2527 11.3031 59.8263 11.3031C60.3926 11.3031 60.7162 10.8756 60.7162 10.1406Z" fill="#787878"/>
<path d="M62.2681 8.45251H62.9005V8.99251H62.952C63.1212 8.59501 63.5183 8.35501 63.9375 8.39251C64.5332 8.34751 65.0479 8.79751 65.0921 9.40501C65.0994 9.48751 65.0921 9.57001 65.0847 9.64501V11.8275H64.4302V9.81001C64.4302 9.27001 64.2022 9.00001 63.7168 9.00001C63.2977 8.97751 62.9446 9.30751 62.9226 9.73501C62.9226 9.77251 62.9226 9.81751 62.9226 9.85501V11.8275H62.2681V8.45251Z" fill="#787878"/>
<path d="M68.7762 7.61328V8.46828H69.4969V9.03078H68.7762V10.7708C68.7762 11.1233 68.916 11.2808 69.2469 11.2808C69.3278 11.2808 69.4161 11.2733 69.4969 11.2658V11.8208C69.3793 11.8433 69.2616 11.8508 69.1439 11.8583C68.4159 11.8583 68.1291 11.5958 68.1291 10.9433V9.03828H67.6069V8.47578H68.1291V7.61328H68.7762Z" fill="#787878"/>
<path d="M70.3794 7.14062H71.0266V9.00062H71.078C71.2545 8.60313 71.659 8.36312 72.0856 8.39312C72.6886 8.36312 73.2034 8.82813 73.2328 9.44313C73.2402 9.51062 73.2328 9.58562 73.2255 9.65312V11.8356H72.5709V9.81812C72.5709 9.27813 72.3283 9.00813 71.8649 9.00813C71.4384 8.97063 71.0633 9.29313 71.0339 9.72812C71.0339 9.77312 71.0339 9.81812 71.0339 9.86312V11.8356H70.3794V7.14062Z" fill="#787878"/>
<path d="M77.0424 10.9201C76.8585 11.5576 76.2555 11.9701 75.6083 11.8951C74.7773 11.9176 74.086 11.2501 74.064 10.4026C74.064 10.3201 74.064 10.2376 74.0787 10.1551C73.9684 9.30008 74.5567 8.52008 75.3877 8.40758C75.4613 8.40008 75.5348 8.39258 75.601 8.39258C76.5203 8.39258 77.0792 9.03758 77.0792 10.0951V10.3276H74.7405V10.3651C74.6964 10.8601 75.0568 11.2876 75.5422 11.3326C75.5716 11.3326 75.601 11.3326 75.623 11.3326C75.9393 11.3701 76.2555 11.2126 76.4099 10.9201H77.0424ZM74.7479 9.83258H76.4173C76.4467 9.38258 76.1231 8.99258 75.6819 8.96258C75.6525 8.96258 75.6304 8.96258 75.601 8.96258C75.1303 8.95508 74.7479 9.33758 74.7405 9.81758C74.7479 9.81758 74.7479 9.82508 74.7479 9.83258Z" fill="#787878"/>
</svg>
