<svg width="89" height="30" viewBox="0 0 89 30" fill="none" xmlns="http://www.w3.org/2000/svg">
<path d="M89 6.27375C89 6.04969 89 5.82562 89 5.60156C89 5.07875 88.9257 4.63062 88.8513 4.10781C88.7769 3.585 88.6282 3.13687 88.4052 2.68875C87.9591 1.7925 87.2155 1.04562 86.3233 0.5975C85.8772 0.373437 85.4311 0.224062 84.9106 0.149375C84.3901 0.0746875 83.944 0 83.4236 0C83.2005 0 82.9774 0 82.7544 0C82.457 0 82.2339 0 81.9365 0H7.06349C6.84043 0 6.54302 0 6.24561 0C6.02256 0 5.7995 0 5.57644 0C5.05597 0 4.60986 0.0746875 4.08939 0.149375C3.64327 0.224062 3.12281 0.373437 2.67669 0.5975C2.23058 0.821562 1.85881 1.12031 1.48705 1.49375C1.11529 1.86719 0.817878 2.24062 0.59482 2.68875C0.371763 3.13687 0.223058 3.65969 0.148705 4.10781C0.0743526 4.63062 0 5.15344 0 5.60156C0 5.82562 0 6.04969 0 6.27375V23.5266C0 23.7506 0 23.9747 0 24.1987C0 24.7216 0.0743526 25.1697 0.148705 25.6925C0.223058 26.2153 0.371763 26.6634 0.59482 27.1116C0.817878 27.6344 1.11529 28.0078 1.48705 28.3812C1.85881 28.7547 2.23058 29.0534 2.67669 29.2775C3.12281 29.5016 3.56892 29.6509 4.08939 29.7256C4.60986 29.8003 5.05597 29.875 5.57644 29.875C5.7995 29.875 6.02256 29.875 6.24561 29.875C6.54302 29.875 6.76608 29.875 7.06349 29.875H81.8622C82.1596 29.875 82.3826 29.875 82.68 29.875C82.9031 29.875 83.1262 29.875 83.3492 29.875C83.8697 29.875 84.3158 29.8003 84.8363 29.7256C85.3567 29.6509 85.8028 29.5016 86.249 29.2775C86.6951 29.0534 87.0668 28.7547 87.4386 28.3812C87.8104 28.0078 88.1078 27.6344 88.3308 27.1862C88.5539 26.7381 88.7026 26.29 88.7769 25.7672C88.8513 25.2444 88.9256 24.7962 88.9256 24.2734C88.9256 24.0494 88.9256 23.8253 88.9256 23.6012C88.9256 23.3025 88.9256 23.0784 88.9256 22.7797V7.09531C89 6.87125 89 6.5725 89 6.27375ZM88.3308 22.7797C88.3308 23.0784 88.3308 23.3025 88.3308 23.6012C88.3308 23.8253 88.3308 24.0494 88.3308 24.2734C88.3308 24.7216 88.2565 25.1697 88.1821 25.6925C88.1078 26.1406 87.9591 26.5141 87.8104 26.9622C87.5873 27.3356 87.3642 27.7091 87.0668 28.0078C86.7694 28.3066 86.3977 28.6053 86.0259 28.7547C85.6541 28.9787 85.208 29.1281 84.7619 29.1281C84.3158 29.2028 83.8697 29.2775 83.3492 29.2775C83.1262 29.2775 82.9031 29.2775 82.68 29.2775H81.8622H6.24561C6.02256 29.2775 5.7995 29.2775 5.57644 29.2775C5.13033 29.2775 4.60986 29.2028 4.16374 29.1281C3.71763 29.0534 3.34586 28.9041 2.89975 28.7547C2.52799 28.5306 2.15622 28.3066 1.85881 28.0078C1.5614 27.7091 1.26399 27.3356 1.11529 26.9622C0.892231 26.5887 0.817878 26.1406 0.743526 25.6925C0.669173 25.2444 0.59482 24.7962 0.59482 24.2734C0.59482 24.1241 0.59482 23.6012 0.59482 23.6012V6.27375C0.59482 6.27375 0.59482 5.75094 0.59482 5.60156C0.59482 5.15344 0.669173 4.63062 0.743526 4.1825C0.817878 3.80906 0.966583 3.36094 1.18964 2.9875C1.4127 2.61406 1.63576 2.24062 1.93317 1.94187C2.23058 1.64312 2.60234 1.41906 2.9741 1.195C3.34586 0.970937 3.79198 0.89625 4.2381 0.821562C4.68421 0.746875 5.13033 0.672187 5.65079 0.672187H6.31997H82.7544H83.4236C83.8697 0.672187 84.3158 0.746875 84.8363 0.821562C85.2824 0.89625 85.6541 1.04562 86.1003 1.195C86.8438 1.56844 87.5129 2.24062 87.8847 2.9875C88.1078 3.36094 88.1821 3.80906 88.2565 4.1825C88.3308 4.63062 88.4052 5.15344 88.4052 5.60156C88.4052 5.82562 88.4052 6.04969 88.4052 6.27375C88.4052 6.5725 88.4052 6.79656 88.4052 7.09531V22.7797H88.3308Z" fill="#787878"/>
<path d="M31.3019 8.51425C31.3019 9.03707 31.1532 9.48519 30.8558 9.85863C30.484 10.2321 29.9635 10.4561 29.4431 10.4561C28.9226 10.4561 28.4021 10.2321 28.0304 9.85863C27.6586 9.48519 27.4355 8.96238 27.4355 8.43957C27.4355 7.84207 27.6586 7.39394 28.0304 7.0205C28.4021 6.64707 28.9226 6.423 29.4431 6.423C29.7405 6.423 29.9635 6.49769 30.2609 6.64707C30.5584 6.79644 30.7071 6.94582 30.8558 7.09519L30.5584 7.39394C30.2609 7.09519 29.9635 6.94582 29.5174 6.94582C29.1457 6.94582 28.6995 7.09519 28.4765 7.39394C28.1791 7.69269 28.0304 8.06613 28.0304 8.51425C28.0304 8.96238 28.1791 9.4105 28.4765 9.63457C28.7739 9.93332 29.1457 10.0827 29.5174 10.0827C29.9635 10.0827 30.3353 9.93332 30.6327 9.63457C30.8558 9.4105 30.9301 9.18644 30.9301 8.813H29.5174V8.29019H31.4506L31.3019 8.51425ZM34.3503 6.87113H32.5659V8.14082H34.2016V8.58894H32.5659V9.85863H34.3503V10.3814H32.0454V6.423H34.3503V6.87113V6.87113ZM36.5066 10.3814H35.9861V6.87113H34.8708V6.423H37.6218V6.87113H36.5066V10.3814ZM39.555 10.3814V6.423H40.0755V10.3814H39.555V10.3814ZM42.3061 10.3814H41.7856V6.87113H40.6703V6.423H43.347V6.87113H42.2317L42.3061 10.3814ZM48.5517 9.85863C48.1799 10.2321 47.6594 10.4561 47.139 10.4561C46.5442 10.4561 46.098 10.2321 45.7263 9.85863C45.3545 9.48519 45.1315 8.96238 45.1315 8.43957C45.1315 7.84207 45.3545 7.39394 45.7263 7.0205C46.098 6.64707 46.6185 6.423 47.139 6.423C47.7338 6.423 48.1799 6.64707 48.5517 7.0205C48.9234 7.39394 49.1465 7.91675 49.1465 8.43957C49.1465 9.03707 48.9234 9.48519 48.5517 9.85863ZM46.0237 9.55988C46.3211 9.85863 46.6929 10.008 47.0646 10.008C47.4364 10.008 47.8825 9.85863 48.1056 9.55988C48.403 9.26113 48.5517 8.88769 48.5517 8.43957C48.5517 7.99144 48.403 7.54332 48.1056 7.31925C47.8081 7.0205 47.4364 6.87113 47.0646 6.87113C46.6929 6.87113 46.2467 7.0205 46.0237 7.31925C45.7263 7.618 45.5776 7.99144 45.5776 8.43957C45.5776 8.88769 45.7263 9.26113 46.0237 9.55988ZM49.89 10.3814V6.423H50.4848L52.418 9.55988V6.423H52.9385V10.3814H52.418L50.4105 7.16988V10.3814H49.89V10.3814Z" fill="#787878"/>
<path d="M44.9088 16.207C43.3474 16.207 42.0834 17.402 42.0834 19.0452C42.0834 20.6136 43.3474 21.8833 44.9088 21.8833C46.4702 21.8833 47.7342 20.6883 47.7342 19.0452C47.7342 17.3273 46.4702 16.207 44.9088 16.207ZM44.9088 20.6883C44.0166 20.6883 43.3474 19.9414 43.3474 18.9705C43.3474 17.9995 44.0909 17.2527 44.9088 17.2527C45.7267 17.2527 46.4702 17.9248 46.4702 18.9705C46.4702 20.0161 45.801 20.6883 44.9088 20.6883ZM38.8119 16.207C37.2505 16.207 35.9865 17.402 35.9865 19.0452C35.9865 20.6136 37.2505 21.8833 38.8119 21.8833C40.3733 21.8833 41.6373 20.6883 41.6373 19.0452C41.6373 17.3273 40.3733 16.207 38.8119 16.207ZM38.8119 20.6883C37.9197 20.6883 37.2505 19.9414 37.2505 18.9705C37.2505 17.9995 37.994 17.2527 38.8119 17.2527C39.7041 17.2527 40.3733 17.9248 40.3733 18.9705C40.3733 20.0161 39.6298 20.6883 38.8119 20.6883ZM31.5253 17.1033V18.2983H34.3507C34.2764 18.9705 34.0533 19.4933 33.6816 19.792C33.3098 20.1655 32.6406 20.6883 31.5253 20.6883C29.7409 20.6883 28.4025 19.2692 28.4025 17.4767C28.4025 15.6842 29.8152 14.2652 31.5253 14.2652C32.4176 14.2652 33.1611 14.6386 33.6816 15.1614L34.5738 14.2652C33.8303 13.593 32.938 13.0702 31.5997 13.0702C29.2204 13.0702 27.2129 15.0867 27.2129 17.402C27.2129 19.7173 29.2204 21.7339 31.5997 21.7339C32.938 21.7339 33.8303 21.3605 34.6481 20.4642C35.466 19.6427 35.6891 18.5223 35.6891 17.7008C35.6891 17.402 35.6891 17.178 35.6147 16.9539L31.5253 17.1033ZM61.4151 17.9995C61.1176 17.3273 60.5228 16.207 59.0358 16.207C57.5487 16.207 56.4334 17.3273 56.4334 19.0452C56.4334 20.6136 57.6231 21.8833 59.1845 21.8833C60.4485 21.8833 61.192 21.0617 61.4894 20.6136L60.5972 19.9414C60.2998 20.3895 59.8537 20.763 59.1845 20.763C58.5153 20.763 58.1435 20.4642 57.7718 19.8667L61.4894 18.2983L61.4151 17.9995ZM57.5487 18.8958C57.5487 17.8502 58.441 17.2527 58.9614 17.2527C59.4075 17.2527 59.8537 17.5514 60.0024 17.8502L57.5487 18.8958ZM54.5003 21.6592H55.7643V13.3689H54.5003V21.6592ZM52.4928 16.8045C52.1953 16.5058 51.6005 16.1323 51.0057 16.1323C49.593 16.1323 48.329 17.402 48.329 18.9705C48.329 20.5389 49.593 21.7339 51.0057 21.7339C51.6749 21.7339 52.1953 21.4352 52.4184 21.0617H52.4928V21.4352C52.4928 22.4808 51.8979 23.0783 51.0057 23.0783C50.2622 23.0783 49.7417 22.5555 49.593 22.1073L48.5521 22.5555C48.8495 23.3023 49.6674 24.1986 51.0801 24.1986C52.4928 24.1986 53.6824 23.3023 53.6824 21.2858V16.2817H52.4928V16.8045ZM51.0801 20.6883C50.1878 20.6883 49.5187 19.9414 49.5187 18.9705C49.5187 17.9995 50.2622 17.2527 51.0801 17.2527C51.9723 17.2527 52.5671 17.9995 52.5671 18.9705C52.5671 20.0161 51.8979 20.6883 51.0801 20.6883ZM67.1402 13.3689H64.1661V21.6592H65.4301V18.5223H67.1402C68.5529 18.5223 69.8169 17.5514 69.8169 15.9083C69.8169 14.2652 68.4786 13.3689 67.1402 13.3689ZM67.2146 17.3273H65.4301V14.4892H67.2146C68.1068 14.4892 68.6273 15.3108 68.6273 15.9083C68.5529 16.5805 68.0324 17.3273 67.2146 17.3273ZM74.7242 16.1323C73.8319 16.1323 72.8653 16.5058 72.5679 17.402L73.6832 17.8502C73.9806 17.402 74.3524 17.2527 74.7985 17.2527C75.4677 17.2527 76.0625 17.6261 76.1369 18.2983V18.373C75.9138 18.2236 75.3933 18.0742 74.8729 18.0742C73.6832 18.0742 72.4936 18.7464 72.4936 19.9414C72.4936 21.0617 73.4602 21.8086 74.5011 21.8086C75.3933 21.8086 75.7651 21.4352 76.0625 20.987H76.1369V21.6592H77.3265V18.4477C77.2522 17.0286 76.1369 16.1323 74.7242 16.1323ZM74.6498 20.6883C74.278 20.6883 73.6832 20.4642 73.6832 19.9414C73.6832 19.2692 74.4268 19.0452 75.0216 19.0452C75.542 19.0452 75.8395 19.1945 76.1369 19.3439C75.9138 20.1655 75.2446 20.6883 74.6498 20.6883ZM81.5646 16.3564L80.1519 19.9414H80.0775L78.6649 16.3564H77.3265L79.4827 21.3605L78.2187 24.1239H79.4827L82.8286 16.3564H81.5646ZM70.4861 21.6592H71.7501V13.3689H70.4861V21.6592Z" fill="#787878"/>
<path fill-rule="evenodd" clip-rule="evenodd" d="M7.0625 23.302L7.2112 23.3767C7.50862 23.6008 7.95473 23.6008 8.32649 23.3767L17.1744 18.4473L14.5721 15.8333L7.0625 23.302Z" fill="#787878"/>
<path fill-rule="evenodd" clip-rule="evenodd" d="M6.69141 7.99118V22.2565L13.7549 15.0865L6.69141 7.99118Z" fill="#787878"/>
<path fill-rule="evenodd" clip-rule="evenodd" d="M17.2489 11.651L8.32663 6.64694C7.95486 6.42287 7.5831 6.49756 7.21134 6.64694L6.98828 6.79631L14.4979 14.3397L17.2489 11.651Z" fill="#787878"/>
<path fill-rule="evenodd" clip-rule="evenodd" d="M21.6365 14.1158L18.1419 12.174L15.2422 15.0868L18.0676 17.9249L21.6365 15.9083C22.0083 15.6843 22.157 15.3855 22.157 15.0121C22.2313 14.6386 22.0083 14.2652 21.6365 14.1158Z" fill="#787878"/>
</svg>
