<?xml version="1.0" encoding="utf-8"?>
<!-- Generator: Adobe Illustrator 23.0.6, SVG Export Plug-In . SVG Version: 6.00 Build 0)  -->
<svg version="1.1" id="Слой_1" xmlns="http://www.w3.org/2000/svg" xmlns:xlink="http://www.w3.org/1999/xlink" x="0px" y="0px"
	 viewBox="0 0 89 31" style="enable-background:new 0 0 89 31;" xml:space="preserve">
<style type="text/css">
	.st0{fill:#FFFFFF;}
</style>
<path class="st0" d="M88,7.1c0-0.2,0-0.5,0-0.7c0-0.5-0.1-1-0.1-1.5c-0.1-0.5-0.2-1-0.5-1.4c-0.5-0.9-1.2-1.6-2.1-2.1
	C84.9,1.2,84.4,1,83.9,1c-0.5-0.1-1-0.1-1.5-0.1c-0.2,0-0.5,0-0.7,0c-0.3,0-0.5,0-0.8,0H7c-0.3,0-0.5,0-0.8,0c-0.2,0-0.4,0-0.7,0
	C5,0.8,4.5,0.9,4.1,1C3.6,1,3.1,1.2,2.7,1.4C2.2,1.7,1.8,2,1.5,2.3C1.1,2.7,0.8,3.1,0.6,3.5S0.2,4.5,0.1,5C0.1,5.4,0,5.9,0,6.5
	c0,0.2,0,0.5,0,0.7v17.3c0,0.2,0,0.5,0,0.7c0,0.5,0.1,1,0.1,1.5c0.1,0.5,0.2,1,0.5,1.4c0.2,0.5,0.5,0.9,0.9,1.2
	c0.3,0.4,0.8,0.7,1.2,0.9s0.9,0.4,1.4,0.5c0.5,0.1,1,0.1,1.5,0.1c0.2,0,0.4,0,0.7,0c0.3,0,0.5,0,0.8,0h74c0.3,0,0.5,0,0.8,0
	c0.2,0,0.5,0,0.7,0c0.5,0,1-0.1,1.5-0.1c0.5-0.1,1-0.2,1.4-0.5c0.4-0.2,0.8-0.5,1.2-0.9c0.4-0.4,0.6-0.8,0.9-1.2
	c0.2-0.5,0.4-0.9,0.5-1.4c0.1-0.5,0.1-1,0.1-1.5c0-0.2,0-0.5,0-0.7c0-0.3,0-0.5,0-0.8V8C88,7.7,88,7.4,88,7.1z M87.4,23.7
	c0,0.3,0,0.5,0,0.8c0,0.2,0,0.5,0,0.7c0,0.5-0.1,0.9-0.1,1.4c-0.1,0.4-0.2,0.9-0.4,1.3c-0.2,0.4-0.4,0.7-0.8,1
	c-0.3,0.3-0.6,0.6-1,0.8c-0.4,0.2-0.8,0.3-1.2,0.4c-0.5,0.1-0.9,0.1-1.4,0.1c-0.2,0-0.4,0-0.7,0H81H6.2c-0.2,0-0.4,0-0.7,0
	c-0.5,0-0.9,0-1.4-0.1c-0.4-0.1-0.8-0.2-1.2-0.4c-0.4-0.2-0.7-0.5-1-0.8c-0.3-0.3-0.6-0.7-0.8-1.1C1,27.4,0.8,27,0.8,26.6
	c-0.1-0.5-0.1-0.9-0.1-1.4c0-0.2,0-0.7,0-0.7V7.1c0,0,0-0.5,0-0.7c0-0.5,0.1-0.9,0.1-1.4C0.8,4.6,1,4.2,1.2,3.8
	c0.2-0.4,0.4-0.7,0.8-1.1c0.3-0.3,0.6-0.6,1-0.8c0.4-0.2,0.8-0.3,1.2-0.4c0.5-0.1,0.9-0.1,1.4-0.1l0.7,0h75.6l0.7,0
	c0.5,0,0.9,0,1.4,0.1c0.4,0.1,0.8,0.2,1.2,0.4c0.8,0.4,1.4,1,1.8,1.8c0.2,0.4,0.3,0.8,0.4,1.2c0.1,0.5,0.1,0.9,0.1,1.4
	c0,0.2,0,0.4,0,0.7c0,0.3,0,0.5,0,0.8V23.7z"/>
<path class="st0" d="M18.4,15.7c0-1.3,0.7-2.5,1.8-3.2c-0.7-1-1.8-1.6-3.1-1.7c-1.3-0.1-2.5,0.8-3.2,0.8c-0.7,0-1.7-0.8-2.8-0.8
	c-1.4,0-2.7,0.9-3.4,2.1c-1.5,2.6-0.4,6.4,1,8.6c0.7,1,1.5,2.2,2.6,2.1c1.1,0,1.5-0.7,2.7-0.7c1.3,0,1.6,0.7,2.7,0.7
	c1.1,0,1.9-1,2.5-2.1c0.5-0.7,0.9-1.6,1.2-2.4C19.3,18.6,18.4,17.2,18.4,15.7z"/>
<path class="st0" d="M16.3,9.4c0.6-0.8,0.9-1.7,0.9-2.7c-0.9,0.1-1.8,0.6-2.5,1.3c-0.6,0.7-0.9,1.7-0.9,2.6
	C14.8,10.6,15.7,10.2,16.3,9.4z"/>
<path class="st0" d="M31.1,21.2h-3.5l-0.8,2.5h-1.5l3.3-9.3h1.5l3.3,9.3h-1.5L31.1,21.2z M28,20h2.8l-1.4-4.1h0L28,20z"/>
<path class="st0" d="M40.6,20.3c0,2.1-1.1,3.5-2.8,3.5c-0.9,0-1.7-0.4-2.1-1.2h0v3.4h-1.4v-9h1.3V18h0c0.4-0.8,1.3-1.2,2.1-1.2
	C39.4,16.8,40.6,18.2,40.6,20.3z M39.2,20.3c0-1.4-0.7-2.3-1.8-2.3c-1,0-1.8,0.9-1.8,2.3c0,1.4,0.7,2.3,1.8,2.3
	C38.5,22.6,39.2,21.7,39.2,20.3z"/>
<path class="st0" d="M47.9,20.3c0,2.1-1.1,3.5-2.8,3.5c-0.9,0-1.7-0.4-2.1-1.2h0v3.4h-1.4v-9h1.3V18h0c0.4-0.8,1.3-1.2,2.1-1.2
	C46.8,16.8,47.9,18.2,47.9,20.3z M46.5,20.3c0-1.4-0.7-2.3-1.8-2.3c-1,0-1.8,0.9-1.8,2.3c0,1.4,0.7,2.3,1.8,2.3
	C45.8,22.6,46.5,21.7,46.5,20.3z"/>
<path class="st0" d="M52.7,21.1c0.1,0.9,1,1.5,2.2,1.5c1.2,0,2-0.6,2-1.4c0-0.7-0.5-1.2-1.7-1.5L54,19.4c-1.7-0.4-2.5-1.2-2.5-2.5
	c0-1.6,1.4-2.7,3.3-2.7c1.9,0,3.3,1.1,3.3,2.7h-1.4c-0.1-0.9-0.8-1.5-1.9-1.5c-1.1,0-1.9,0.6-1.9,1.4c0,0.7,0.5,1,1.7,1.3l1,0.3
	c1.9,0.4,2.7,1.2,2.7,2.6c0,1.7-1.4,2.8-3.5,2.8c-2,0-3.4-1.1-3.5-2.8L52.7,21.1z"/>
<path class="st0" d="M61.3,15.3v1.6h1.3V18h-1.3v3.7c0,0.6,0.3,0.9,0.8,0.9c0.1,0,0.3,0,0.4,0v1.1c-0.3,0-0.5,0.1-0.8,0.1
	c-1.3,0-1.9-0.5-1.9-1.8V18h-1v-1.1h1v-1.6H61.3z"/>
<path class="st0" d="M63.3,20.3c0-2.1,1.2-3.5,3.2-3.5c1.9,0,3.2,1.3,3.2,3.5c0,2.1-1.2,3.5-3.2,3.5C64.5,23.8,63.3,22.4,63.3,20.3z
	 M68.2,20.3c0-1.5-0.7-2.3-1.8-2.3c-1.1,0-1.8,0.9-1.8,2.3c0,1.5,0.7,2.3,1.8,2.3C67.6,22.6,68.2,21.8,68.2,20.3z"/>
<path class="st0" d="M70.7,16.9H72V18h0c0.2-0.7,0.9-1.3,1.6-1.2c0.2,0,0.3,0,0.5,0.1v1.3c-0.2-0.1-0.4-0.1-0.6-0.1
	c-0.8,0-1.4,0.6-1.4,1.4c0,0.1,0,0.1,0,0.2v4h-1.4V16.9z"/>
<path class="st0" d="M80.4,21.7c-0.2,1.2-1.4,2.1-2.9,2.1c-1.9,0-3.1-1.3-3.1-3.5s1.2-3.5,3.1-3.5c1.8,0,3,1.3,3,3.4v0.5h-4.7v0.1
	c-0.1,1,0.6,1.8,1.6,1.9c0.1,0,0.1,0,0.2,0c0.7,0.1,1.3-0.3,1.5-1L80.4,21.7z M75.8,19.7h3.3c0.1-0.9-0.6-1.7-1.5-1.7
	c0,0-0.1,0-0.1,0C76.6,17.9,75.8,18.7,75.8,19.7L75.8,19.7z"/>
<path class="st0" d="M27.8,7.4c1.1-0.1,2,0.7,2.1,1.8c0,0.1,0,0.3,0,0.4c0,1.4-0.8,2.3-2.1,2.3h-1.6V7.4H27.8z M26.9,11.2h0.8
	c0.8,0,1.4-0.5,1.5-1.3c0-0.1,0-0.2,0-0.3C29.3,8.8,28.8,8.1,28,8c-0.1,0-0.2,0-0.3,0h-0.8V11.2z"/>
<path class="st0" d="M30.7,10.1c-0.1-0.9,0.6-1.7,1.4-1.7c0.9-0.1,1.6,0.6,1.7,1.4c0,0.1,0,0.2,0,0.3c0.1,0.9-0.5,1.7-1.4,1.7
	c-0.9,0.1-1.6-0.6-1.7-1.4C30.6,10.4,30.6,10.2,30.7,10.1z M33.1,10.1c0-0.7-0.3-1.2-0.9-1.2c-0.6,0-0.9,0.4-0.9,1.2
	c0,0.7,0.3,1.2,0.9,1.2C32.8,11.3,33.1,10.9,33.1,10.1z"/>
<path class="st0" d="M37.9,11.8h-0.7l-0.7-2.5h-0.1l-0.7,2.5h-0.7l-0.9-3.4h0.7l0.6,2.6h0.1l0.7-2.6h0.6l0.7,2.6h0.1l0.6-2.6h0.7
	L37.9,11.8z"/>
<path class="st0" d="M39.6,8.5h0.6V9h0.1c0.2-0.4,0.6-0.6,1-0.6c0.6,0,1.1,0.4,1.2,1c0,0.1,0,0.2,0,0.2v2.2h-0.7v-2
	c0-0.5-0.2-0.8-0.7-0.8c-0.4,0-0.8,0.3-0.8,0.7c0,0,0,0.1,0,0.1v2h-0.7V8.5z"/>
<path class="st0" d="M43.5,7.1h0.7v4.7h-0.7V7.1z"/>
<path class="st0" d="M45,10.1c-0.1-0.9,0.6-1.7,1.4-1.7c0.9-0.1,1.6,0.6,1.7,1.4c0,0.1,0,0.2,0,0.3c0.1,0.9-0.5,1.7-1.4,1.7
	c-0.9,0.1-1.6-0.6-1.7-1.4C45,10.4,45,10.2,45,10.1z M47.5,10.1c0-0.7-0.3-1.2-0.9-1.2c-0.6,0-0.9,0.4-0.9,1.2
	c0,0.7,0.3,1.2,0.9,1.2C47.1,11.3,47.5,10.9,47.5,10.1z"/>
<path class="st0" d="M48.8,10.9c0-0.6,0.4-1,1.2-1L51,9.8V9.5C51,9.2,50.7,9,50.3,9c-0.4,0-0.6,0.1-0.7,0.4H49c0.1-0.6,0.6-1,1.4-1
	c0.8,0,1.3,0.4,1.3,1.1v2.3H51v-0.5h-0.1c-0.2,0.3-0.6,0.5-1,0.5c-0.6,0.1-1-0.4-1.1-0.9C48.8,10.9,48.8,10.9,48.8,10.9z M51,10.6
	v-0.3l-0.8,0.1c-0.5,0-0.7,0.2-0.7,0.5c0,0.3,0.3,0.5,0.6,0.5C50.5,11.4,50.9,11,51,10.6C51,10.6,51,10.6,51,10.6z"/>
<path class="st0" d="M52.5,10.1c0-1.1,0.5-1.7,1.4-1.7c0.4,0,0.8,0.2,1,0.6h0.1V7.1h0.7v4.7h-0.6v-0.5h-0.1c-0.2,0.4-0.6,0.6-1,0.6
	C53,11.9,52.5,11.2,52.5,10.1z M53.1,10.1c0,0.7,0.3,1.1,0.9,1.1c0.6,0,0.9-0.4,0.9-1.1C54.9,9.4,54.6,9,54,9
	C53.5,9,53.1,9.4,53.1,10.1z"/>
<path class="st0" d="M58.3,10.1c-0.1-0.9,0.6-1.7,1.4-1.7c0.9-0.1,1.6,0.6,1.7,1.4c0,0.1,0,0.2,0,0.3c0.1,0.9-0.5,1.7-1.4,1.7
	c-0.9,0.1-1.6-0.6-1.7-1.4C58.3,10.4,58.3,10.2,58.3,10.1z M60.7,10.1c0-0.7-0.3-1.2-0.9-1.2c-0.6,0-0.9,0.4-0.9,1.2
	c0,0.7,0.3,1.2,0.9,1.2C60.4,11.3,60.7,10.9,60.7,10.1z"/>
<path class="st0" d="M62.3,8.5h0.6V9H63c0.2-0.4,0.6-0.6,1-0.6c0.6,0,1.1,0.4,1.2,1c0,0.1,0,0.2,0,0.2v2.2h-0.7v-2
	c0-0.5-0.2-0.8-0.7-0.8c-0.4,0-0.8,0.3-0.8,0.7c0,0,0,0.1,0,0.1v2h-0.7V8.5z"/>
<path class="st0" d="M68.8,7.6v0.9h0.7V9h-0.7v1.7c0,0.4,0.1,0.5,0.5,0.5c0.1,0,0.2,0,0.3,0v0.6c-0.1,0-0.2,0-0.4,0
	c-0.7,0-1-0.3-1-0.9V9h-0.5V8.5h0.5V7.6H68.8z"/>
<path class="st0" d="M70.4,7.1H71V9h0.1c0.2-0.4,0.6-0.6,1-0.6c0.6,0,1.1,0.4,1.1,1.1c0,0.1,0,0.1,0,0.2v2.2h-0.7v-2
	c0-0.5-0.2-0.8-0.7-0.8c-0.4,0-0.8,0.3-0.8,0.7c0,0,0,0.1,0,0.1v2h-0.7V7.1z"/>
<path class="st0" d="M77,10.9c-0.2,0.6-0.8,1.1-1.4,1c-0.8,0-1.5-0.6-1.5-1.5c0-0.1,0-0.2,0-0.2c-0.1-0.9,0.5-1.6,1.3-1.7
	c0.1,0,0.1,0,0.2,0c0.9,0,1.5,0.6,1.5,1.7v0.2h-2.3v0c0,0.5,0.3,0.9,0.8,1c0,0,0.1,0,0.1,0c0.3,0,0.6-0.1,0.8-0.4H77z M74.7,9.8h1.7
	c0-0.4-0.3-0.8-0.7-0.9c0,0-0.1,0-0.1,0C75.1,9,74.7,9.3,74.7,9.8C74.7,9.8,74.7,9.8,74.7,9.8z"/>
</svg>
