<svg width="193" height="102" viewBox="0 0 193 102" fill="none" xmlns="http://www.w3.org/2000/svg">
<path d="M174.724 62.1643H161.833V33.8331H174.724C175.432 33.8331 176.14 33.2665 176.14 32.4166C176.14 31.5666 175.574 31 174.724 31L160.417 31C159.567 31 159 31.5666 159 32.4166V63.5808C159 64.2891 159.567 64.9974 160.417 64.9974H174.724C175.432 64.9974 176.14 64.4308 176.14 63.5808C176.14 62.7309 175.574 62.1643 174.724 62.1643Z" fill="#747D88"/>
<path d="M193 47.9975C193 47.8558 193 47.8558 193 47.7142C193 47.5725 193 47.5725 193 47.4309C193 47.2892 192.859 47.1476 192.717 47.0059C192.717 47.0059 192.717 47.0059 192.717 46.8643L185.493 39.6398C184.926 39.0732 184.076 39.0732 183.509 39.6398C182.943 40.2064 182.943 41.0564 183.509 41.623L188.326 46.4393H168.069C167.361 46.4393 166.652 47.0059 166.652 47.8558C166.652 48.7058 167.219 49.2724 168.069 49.2724H188.184L183.368 54.0887C182.801 54.6553 182.801 55.5053 183.368 56.0719C183.651 56.3552 183.934 56.4969 184.359 56.4969C184.784 56.4969 185.068 56.3552 185.351 56.0719L192.575 48.8474C192.575 48.8474 192.575 48.8474 192.575 48.7058C192.717 48.5641 192.717 48.4225 192.859 48.2808C192.859 48.1392 192.859 48.1392 192.859 47.9975C193 48.1392 193 48.1392 193 47.9975Z" fill="#747D88"/>
<path d="M48.0992 28.9564H47.7992V26.3564C47.7992 23.0564 44.9992 20.3564 41.4992 20.3564C37.9992 20.3564 35.1992 23.0564 35.1992 26.3564C35.1992 26.6564 35.4992 26.9564 35.7992 26.9564C36.0992 26.9564 36.3992 26.7564 36.3992 26.3564C36.3992 23.6564 38.6992 21.4564 41.5992 21.4564C44.4992 21.4564 46.7992 23.6564 46.7992 26.3564V28.9564H34.7992C34.1992 28.9564 33.6992 29.4564 33.6992 30.0564V36.8564C33.6992 38.6564 35.1992 40.0564 37.0992 40.0564H45.8992C47.7992 40.0564 49.2992 38.6564 49.2992 36.8564V29.9564C49.1992 29.4564 48.6992 28.9564 48.0992 28.9564ZM48.0992 36.8564C48.0992 38.0564 47.0992 38.9564 45.8992 38.9564H37.0992C35.8992 38.9564 34.8992 38.0564 34.8992 36.8564V30.0564H48.0992V36.8564V36.8564Z" fill="#747D88"/>
<path d="M41.4988 36.6561C42.6988 36.6561 43.6988 35.7561 43.6988 34.5561C43.6988 33.4561 42.6988 32.4561 41.4988 32.4561C40.2988 32.4561 39.2988 33.3561 39.2988 34.5561C39.2988 35.7561 40.2988 36.6561 41.4988 36.6561ZM41.4988 33.6561C42.0988 33.6561 42.4988 34.0561 42.4988 34.6561C42.4988 35.1561 41.9988 35.6561 41.4988 35.6561C40.9988 35.6561 40.4988 35.2561 40.4988 34.6561C40.4988 34.0561 40.8988 33.6561 41.4988 33.6561Z" fill="#747D88"/>
<path d="M22 70.0561H21.5V66.1561C21.5 61.0561 17.2 56.9561 11.8 56.9561C6.5 56.9561 2.1 61.0561 2.1 66.1561C2.1 66.6561 2.5 66.9561 3 66.9561C3.5 66.9561 3.9 66.5561 3.9 66.1561C3.9 62.0561 7.4 58.6561 11.8 58.6561C16.2 58.6561 19.7 62.0561 19.7 66.1561V70.0561H1.7C0.8 70.0561 0 70.7561 0 71.6561V82.1561C0 84.8561 2.3 87.0561 5.1 87.0561H18.5C21.3 87.0561 23.6 84.8561 23.6 82.1561V71.6561C23.7 70.7561 22.9 70.0561 22 70.0561ZM21.9 82.1561C21.9 83.9561 20.4 85.3561 18.5 85.3561H5.1C3.3 85.3561 1.7 83.9561 1.7 82.1561V71.6561H21.8V82.1561H21.9Z" fill="#747D88"/>
<path d="M11.8 81.7564C13.6 81.7564 15.1 80.3564 15.1 78.5564C15.1 76.8564 13.6 75.3564 11.8 75.3564C10 75.3564 8.5 76.7564 8.5 78.5564C8.5 80.3564 10 81.7564 11.8 81.7564ZM11.8 77.1564C12.7 77.1564 13.3 77.8564 13.3 78.6564C13.3 79.4564 12.6 80.1564 11.8 80.1564C10.9 80.1564 10.3 79.4564 10.3 78.6564C10.3 77.8564 11 77.1564 11.8 77.1564Z" fill="#747D88"/>
<path d="M104.092 52.0111C116.937 48.9778 124.892 36.1053 121.859 23.2594C118.826 10.4136 105.953 2.45888 93.1071 5.49215C80.2613 8.52542 72.3066 21.398 75.3399 34.2439C78.3731 47.0897 91.2457 55.0444 104.092 52.0111Z" fill="#747D88"/>
<path d="M105.7 58.9561H92.8996C69.2996 58.9561 50.1996 78.0561 50.0996 101.556H148.4C148.4 78.0561 129.3 58.9561 105.7 58.9561Z" fill="#747D88"/>
</svg>
