<svg
  width="246"
  height="163"
  viewBox="0 0 246 163"
  fill="none"
  xmlns="http://www.w3.org/2000/svg"
>
  <path
    d="M130.34 103.87C132.626 103.87 134.478 102.017 134.478 99.7314C134.478 97.4457 132.626 95.5928 130.34 95.5928C128.054 95.5928 126.201 97.4457 126.201 99.7314C126.201 102.017 128.054 103.87 130.34 103.87Z"
    fill="#747D88"
  />
  <path
    d="M103.518 104.293C105.604 104.293 107.296 102.602 107.296 100.515C107.296 98.4284 105.604 96.7368 103.518 96.7368C101.431 96.7368 99.7393 98.4284 99.7393 100.515C99.7393 102.602 101.431 104.293 103.518 104.293Z"
    fill="#747D88"
  />
  <path
    d="M136.166 131.697V130.236C155.043 130.236 169.275 114.85 169.275 94.4491C169.275 88.1438 167.118 80.4556 163.778 74.8611L165.034 74.1113C168.55 80.0077 170.736 87.7981 170.736 94.4491C170.736 115.683 155.876 131.697 136.166 131.697Z"
    fill="#747D88"
  />
  <path
    d="M98.4266 89.6919L96.9854 89.468C97.8472 83.9709 99.191 79.2431 102.96 74.0576L104.143 74.9146C100.978 79.2626 99.4296 83.2697 98.4266 89.6919Z"
    fill="#747D88"
  />
  <path
    d="M102.955 115.814C101.528 113.861 101.173 112.941 100.52 111.266C100.355 110.843 100.175 110.37 99.9458 109.815L101.299 109.265C101.528 109.83 101.718 110.312 101.884 110.74C102.507 112.347 102.823 113.155 104.133 114.957L102.955 115.814Z"
    fill="#747D88"
  />
  <path
    d="M92.8321 90.651C92.4572 90.651 92.1359 90.3637 92.1067 89.979C92.0726 89.5749 92.3696 89.2244 92.7737 89.1903L120.094 86.897L120.147 86.9018L154.683 89.1903C155.087 89.2146 155.389 89.5652 155.365 89.9693C155.34 90.3734 154.975 90.6753 154.586 90.651L120.103 88.3674L92.8906 90.651C92.876 90.6461 92.8516 90.651 92.8321 90.651Z"
    fill="#747D88"
  />
  <path
    d="M106.952 112.221C103.227 112.221 100.029 110.819 97.6963 108.165C94.2783 104.279 93.0221 97.9888 94.0543 89.9744C94.1078 89.5751 94.4681 89.2879 94.8723 89.3463C95.2715 89.3999 95.5539 89.765 95.5004 90.1643C94.5217 97.7502 95.661 103.642 98.7918 107.206C100.837 109.533 103.661 110.765 106.952 110.765C110.049 110.765 112.513 109.718 114.27 107.654C117.367 104.026 118.312 97.3022 116.943 88.7279C116.88 88.3287 117.153 87.9538 117.547 87.8905C117.942 87.8272 118.321 88.0998 118.385 88.4942C119.826 97.5019 118.76 104.64 115.38 108.598C113.335 111.004 110.497 112.221 106.952 112.221Z"
    fill="#747D88"
  />
  <path
    d="M136.843 112.23C136.614 112.23 136.381 112.225 136.147 112.221C131.546 112.07 127.164 109.703 124.427 105.896C122.105 102.658 119.889 96.9563 122.538 88.1678C122.655 87.7831 123.064 87.564 123.449 87.6809C123.833 87.7977 124.052 88.2067 123.935 88.5914C121.457 96.8102 123.478 102.078 125.61 105.049C128.084 108.491 132.037 110.628 136.191 110.765C140.12 110.891 143.056 109.927 145.193 107.804C148.397 104.63 149.785 98.8455 149.556 89.5992C149.546 89.1951 149.863 88.8592 150.267 88.8494C150.272 88.8494 150.277 88.8494 150.286 88.8494C150.681 88.8494 151.007 89.1659 151.017 89.5603C151.25 99.235 149.726 105.36 146.221 108.837C143.952 111.091 140.797 112.23 136.843 112.23Z"
    fill="#747D88"
  />
  <path
    d="M136.195 131.584C136.176 131.584 136.156 131.584 136.137 131.584C134.691 131.472 100.676 128.789 93.835 123.263C91.0938 121.053 90.0761 119.227 90.7189 117.683C92.5934 113.175 109.503 114.786 112.873 115.156C113.272 115.2 113.564 115.56 113.52 115.96C113.476 116.359 113.116 116.651 112.717 116.607C104.785 115.74 93.1387 115.677 92.0676 118.243C91.7219 119.071 92.6762 120.454 94.7504 122.129C101.241 127.373 135.898 130.104 136.249 130.133C136.653 130.162 136.95 130.518 136.921 130.917C136.891 131.292 136.57 131.584 136.195 131.584Z"
    fill="#747D88"
  />
  <path
    d="M136.527 126.394C135.382 126.394 134.413 125.917 133.751 125.006C133.639 124.85 133.542 124.695 133.459 124.544C132.505 125.289 130.976 125.78 129.023 124.802C127.753 124.164 127.402 123.331 127.334 122.747C127.154 121.184 128.702 119.84 128.882 119.694C129.194 119.436 129.652 119.475 129.91 119.787C130.168 120.093 130.124 120.556 129.817 120.814C129.525 121.062 128.707 121.914 128.785 122.581C128.824 122.913 129.126 123.224 129.676 123.497C131.964 124.641 133.06 122.874 133.104 122.801C133.259 122.538 133.566 122.401 133.868 122.46C134.17 122.518 134.404 122.757 134.452 123.059C134.516 123.424 134.944 125.235 137.018 124.894C139.204 124.529 138.849 120.371 138.844 120.332C138.805 119.933 139.097 119.572 139.497 119.533C139.896 119.49 140.256 119.787 140.295 120.186C140.319 120.415 140.811 125.741 137.252 126.335C137.009 126.374 136.765 126.394 136.527 126.394Z"
    fill="#747D88"
  />
  <path
    d="M138.679 82.9528C138.279 82.9528 137.88 82.8116 137.559 82.5292C137.554 82.5244 136.76 81.8378 135.538 81.0442C134.808 80.567 133.654 80.4891 133.289 80.4843C132.334 80.4989 131.575 79.749 131.56 78.8093C131.546 77.8696 132.281 77.0954 133.221 77.076C133.464 77.0711 135.655 77.0565 137.398 78.191C138.835 79.1258 139.765 79.9341 139.803 79.9681C140.509 80.5865 140.582 81.6626 139.964 82.3734C139.623 82.7581 139.156 82.9528 138.679 82.9528Z"
    fill="#747D88"
  />
  <path
    d="M105.803 85.0471C105.53 85.0471 105.253 84.9838 104.995 84.8426C104.167 84.3946 103.856 83.3624 104.303 82.5347C104.401 82.3545 105.287 80.7672 106.835 79.9687C108.053 79.3406 108.983 79.0144 109.022 78.9998C109.908 78.6882 110.881 79.1605 111.193 80.0515C111.5 80.9425 111.032 81.9115 110.141 82.2231C110.137 82.2231 109.387 82.4909 108.398 83.0021C107.863 83.2796 107.395 83.9954 107.308 84.1561C106.996 84.7209 106.412 85.0471 105.803 85.0471Z"
    fill="#747D88"
  />
  <path
    d="M173.36 91.2253C172.562 91.2253 171.749 91.1036 170.95 90.8504L169.543 90.4073C169.158 90.2856 168.944 89.8766 169.066 89.492C169.188 89.1073 169.592 88.8931 169.981 89.0148L171.388 89.4579C174.456 90.4268 177.713 89.0294 179.125 86.1372L179.724 84.9103L184.32 88.4403C185.075 89.0197 186.029 89.2096 186.95 88.9613C187.865 88.7129 188.595 88.0654 188.956 87.1841C189.258 86.444 189.253 85.6309 188.946 84.8908L179.33 61.7047C177.017 56.1248 171.851 52.1907 165.852 51.4506C165.453 51.4019 165.166 51.0367 165.219 50.6374C165.268 50.2382 165.638 49.9509 166.032 50.0045C172.552 50.8127 178.161 55.0828 180.678 61.1496L190.295 84.3357C190.747 85.4312 190.752 86.6387 190.304 87.7391C189.774 89.044 188.688 90.0032 187.329 90.3733C185.966 90.7433 184.549 90.4609 183.429 89.604L180.24 87.1549C178.823 89.7159 176.179 91.2253 173.36 91.2253Z"
    fill="#747D88"
  />
  <path
    d="M108.618 61.4565C108.398 61.4565 108.179 61.3591 108.038 61.1692C107.795 60.8478 107.853 60.3901 108.174 60.1467L120.746 50.545C124.89 47.3802 131.711 45.7491 137.719 46.4989C138.119 46.5476 138.406 46.9128 138.352 47.312C138.304 47.7113 137.939 47.9986 137.539 47.945C131.886 47.2439 125.493 48.7533 121.632 51.7039L109.061 61.3055C108.929 61.4078 108.773 61.4565 108.618 61.4565Z"
    fill="#747D88"
  />
  <path
    d="M105.497 60.6093C105.467 60.6093 105.438 60.6093 105.404 60.6045C105.005 60.5558 104.718 60.1906 104.771 59.7914L110.555 13.1805C111.081 8.96399 113.428 6.94823 115.522 6.81676C117.367 6.70965 119.69 7.97071 120.663 11.861L129.082 47.0492C129.174 47.4436 128.936 47.8331 128.541 47.9305C128.147 48.0279 127.758 47.7844 127.66 47.39L119.242 12.2067C118.609 9.6846 117.216 8.15573 115.605 8.27259C114.11 8.3651 112.42 9.97187 111.997 13.3558L106.212 59.9666C106.173 60.3367 105.857 60.6093 105.497 60.6093Z"
    fill="#747D88"
  />
  <path
    d="M167.084 57.6879C166.783 57.6879 166.505 57.5029 166.398 57.2059L147.287 4.04139C146.513 1.8893 144.385 1.22712 142.632 1.51926C141.103 1.77731 139.307 2.88744 139.278 5.171C138.825 45.7637 139.297 52.2541 139.536 53.0916C139.706 53.3642 139.677 53.7245 139.448 53.9729C139.175 54.2699 138.713 54.2845 138.416 54.0118C137.963 53.5931 137.281 52.9601 137.817 5.15639C137.851 2.17657 140.135 0.462685 142.389 0.0829041C144.672 -0.301746 147.608 0.618493 148.66 3.54962L167.771 56.7141C167.907 57.0939 167.713 57.5126 167.333 57.649C167.25 57.6733 167.167 57.6879 167.084 57.6879Z"
    fill="#747D88"
  />
  <path
    d="M170.254 59.1483C170.215 59.1483 170.181 59.1435 170.142 59.1386L135.572 53.7827C135.173 53.7194 134.9 53.3494 134.964 52.9501C135.027 52.5509 135.397 52.2831 135.796 52.3415L170.366 57.6974C170.765 57.7607 171.038 58.1307 170.975 58.53C170.916 58.8903 170.605 59.1483 170.254 59.1483Z"
    fill="#747D88"
  />
  <path
    d="M144.93 136.566C144.585 136.566 144.278 136.317 144.214 135.967L143.241 130.611C143.168 130.212 143.431 129.832 143.83 129.764C144.224 129.691 144.609 129.954 144.677 130.353L145.651 135.709C145.724 136.108 145.461 136.488 145.062 136.556C145.018 136.561 144.974 136.566 144.93 136.566Z"
    fill="#747D88"
  />
  <path
    d="M130.163 161.154C115.97 161.154 114.017 158.768 113.803 156.947C113.092 150.856 124.461 130.986 124.943 130.143C125.143 129.793 125.591 129.676 125.941 129.876C126.292 130.075 126.414 130.523 126.209 130.874C122.976 136.497 114.709 152.122 115.254 156.782C115.337 157.497 116.734 159.83 131.356 159.688C138.012 159.63 144.687 159.07 146.863 158.875L145.666 148.582C145.617 148.183 145.904 147.818 146.308 147.774C146.717 147.725 147.073 148.013 147.117 148.417L148.49 160.19L147.75 160.263C147.667 160.273 139.506 161.081 131.37 161.154C130.961 161.154 130.557 161.154 130.163 161.154Z"
    fill="#747D88"
  />
  <path
    d="M164.65 159.289C164.328 159.289 164.031 159.075 163.944 158.744L154.936 124.822C154.834 124.432 155.063 124.033 155.457 123.931C155.851 123.829 156.246 124.062 156.348 124.452L165.356 158.374C165.458 158.763 165.229 159.163 164.835 159.265C164.776 159.28 164.713 159.289 164.65 159.289Z"
    fill="#747D88"
  />
  <path
    d="M91.8877 117.274L97.2192 115.385L97.7061 124.481C97.7061 124.481 94.2978 123.478 92.8371 121.379C91.3764 119.28 90.8895 119.28 91.3764 118.307C91.8633 117.333 91.8877 117.274 91.8877 117.274Z"
    fill="#747D88"
  />
  <path
    d="M108.413 71.3207C108.009 71.3207 107.683 70.9945 107.683 70.5904V63.7738C107.683 63.3697 108.009 63.0435 108.413 63.0435C108.817 63.0435 109.143 63.3697 109.143 63.7738V70.5904C109.143 70.9945 108.817 71.3207 108.413 71.3207Z"
    fill="#747D88"
  />
  <path
    d="M149.312 72.7817C148.908 72.7817 148.582 72.4555 148.582 72.0513V65.2347C148.582 64.8306 148.908 64.5044 149.312 64.5044C149.717 64.5044 150.043 64.8306 150.043 65.2347V72.0513C150.043 72.4555 149.717 72.7817 149.312 72.7817Z"
    fill="#747D88"
  />
  <path
    d="M151.26 34.3166C150.924 34.3166 150.622 34.0828 150.549 33.7469L146.298 14.5972C146.211 14.2028 146.459 13.8132 146.853 13.7256C147.243 13.638 147.637 13.8863 147.725 14.2807L151.976 33.4304C152.063 33.8248 151.815 34.2143 151.421 34.3019C151.367 34.3117 151.313 34.3166 151.26 34.3166Z"
    fill="#747D88"
  />
  <path
    d="M154.668 46.9758C154.342 46.9758 154.04 46.7518 153.957 46.4208L151.654 37.009C151.557 36.6195 151.8 36.2202 152.19 36.1277C152.579 36.0303 152.979 36.2689 153.071 36.6633L155.374 46.0751C155.472 46.4646 155.228 46.8638 154.839 46.9563C154.785 46.9709 154.727 46.9758 154.668 46.9758Z"
    fill="#747D88"
  />
  <path
    d="M119.125 40.1598C118.755 40.1598 118.438 39.8823 118.399 39.5073L115.916 16.6961C115.872 16.2969 116.164 15.9366 116.564 15.8927C116.963 15.8538 117.323 16.1362 117.367 16.5403L119.85 39.3515C119.894 39.7508 119.602 40.1111 119.203 40.1549C119.178 40.1598 119.154 40.1598 119.125 40.1598Z"
    fill="#747D88"
  />
  <path
    d="M129.394 57.0938C127.3 57.0938 125.425 58.014 124.14 59.4649C122.855 58.014 120.98 57.0938 118.886 57.0938C115.011 57.0938 111.865 60.2343 111.865 64.1148C111.865 67.9905 115.006 71.1359 118.886 71.1359C120.98 71.1359 122.855 70.2157 124.14 68.7647C125.425 70.2157 127.3 71.1359 129.394 71.1359C133.269 71.1359 136.415 67.9954 136.415 64.1148C136.41 60.2343 133.269 57.0938 129.394 57.0938Z"
    fill="#EA5045"
  />
  <path
    d="M129.394 71.1359C133.271 71.1359 136.415 67.9925 136.415 64.1148C136.415 60.2372 133.271 57.0938 129.394 57.0938C125.516 57.0938 122.373 60.2372 122.373 64.1148C122.373 67.9925 125.516 71.1359 129.394 71.1359Z"
    fill="#4E55A2"
  />
  <path
    d="M118.886 71.1359C122.764 71.1359 125.907 67.9925 125.907 64.1148C125.907 60.2372 122.764 57.0938 118.886 57.0938C115.009 57.0938 111.865 60.2372 111.865 64.1148C111.865 67.9925 115.009 71.1359 118.886 71.1359Z"
    fill="#EA5045"
  />
  <path
    d="M172.289 157.595C172.017 157.595 171.744 157.492 171.612 157.122C171.374 156.46 171.997 156.183 172.406 156.002C172.718 155.866 173.244 155.642 174.096 155.296C176.058 154.503 179.344 153.213 183.863 151.465C195.685 146.888 195.023 132.709 194.394 127.743C192.593 129.759 188.157 133.143 177.913 134.852C164.07 137.159 163.014 149.074 162.975 149.58C162.946 149.984 162.59 150.291 162.191 150.252C161.787 150.223 161.485 149.872 161.514 149.473C161.524 149.337 162.668 135.908 177.665 133.41C191.575 131.093 194.132 125.62 194.156 125.566L195.066 123.497L195.544 125.698C195.587 125.907 199.877 146.824 184.379 152.823C177.032 155.666 174.271 156.781 173.248 157.22C173.161 157.327 173.044 157.414 172.903 157.463C172.766 157.512 172.528 157.595 172.289 157.595Z"
    fill="#747D88"
  />
  <path
    d="M189.91 149.157C189.754 149.157 189.594 149.108 189.462 149.001L183.464 144.327L187.213 136.366L178.702 134.662C178.307 134.584 178.049 134.199 178.127 133.8C178.205 133.406 178.595 133.152 178.989 133.225L189.326 135.295L185.285 143.889L190.363 147.847C190.679 148.095 190.738 148.553 190.49 148.874C190.343 149.059 190.129 149.157 189.91 149.157Z"
    fill="#747D88"
  />
  <path
    d="M98.339 151.031L94.5898 142.13L113.296 128.376C113.623 128.137 114.08 128.205 114.319 128.531C114.558 128.858 114.489 129.315 114.163 129.554L96.3816 142.627L99.1277 149.147L118.93 141.215C119.305 141.064 119.728 141.249 119.879 141.619C120.03 141.994 119.845 142.418 119.475 142.569L98.339 151.031Z"
    fill="#747D88"
  />
  <path
    d="M83.7563 151.611H15.9703C7.16715 151.611 0 144.449 0 135.641V80.7867C0 71.9836 7.16228 64.8164 15.9703 64.8164H91.2692C91.6733 64.8164 91.9995 65.1426 91.9995 65.5468C91.9995 65.9509 91.6733 66.2771 91.2692 66.2771H15.9703C7.97053 66.2771 1.4607 72.7869 1.4607 80.7867V135.646C1.4607 143.645 7.97053 150.155 15.9703 150.155H83.7563C84.1605 150.155 84.4867 150.481 84.4867 150.886C84.4867 151.29 84.1605 151.611 83.7563 151.611Z"
    fill="#747D88"
  />
  <path
    d="M88.6253 84.2776H0.730348C0.326222 84.2776 0 83.9514 0 83.5472C0 83.1431 0.326222 82.8169 0.730348 82.8169H88.6253C89.0295 82.8169 89.3557 83.1431 89.3557 83.5472C89.3557 83.9514 89.0295 84.2776 88.6253 84.2776Z"
    fill="#747D88"
  />
  <path
    d="M10.0497 76.9256C11.2114 76.9256 12.1531 75.9838 12.1531 74.8221C12.1531 73.6605 11.2114 72.7188 10.0497 72.7188C8.88801 72.7188 7.94629 73.6605 7.94629 74.8221C7.94629 75.9838 8.88801 76.9256 10.0497 76.9256Z"
    fill="#747D88"
  />
  <path
    d="M18.2587 76.9256C19.4204 76.9256 20.3621 75.9838 20.3621 74.8221C20.3621 73.6605 19.4204 72.7188 18.2587 72.7188C17.097 72.7188 16.1553 73.6605 16.1553 74.8221C16.1553 75.9838 17.097 76.9256 18.2587 76.9256Z"
    fill="#747D88"
  />
  <path
    d="M26.4633 76.9256C27.6249 76.9256 28.5667 75.9838 28.5667 74.8221C28.5667 73.6605 27.6249 72.7188 26.4633 72.7188C25.3016 72.7188 24.3599 73.6605 24.3599 74.8221C24.3599 75.9838 25.3016 76.9256 26.4633 76.9256Z"
    fill="#747D88"
  />
  <path
    d="M39.2734 115.872H17.8595C13.9984 115.872 10.8677 112.741 10.8677 108.88V97.4772C10.8677 93.6161 13.9984 90.4854 17.8595 90.4854H39.2734C43.1345 90.4854 46.2652 93.6161 46.2652 97.4772V108.88C46.2652 112.741 43.1345 115.872 39.2734 115.872Z"
    fill="#747D88"
    fillOpacity="0.2"
  />
  <path
    d="M87.1206 99.016H56.4362C54.8587 99.016 53.5781 97.7355 53.5781 96.1579C53.5781 94.5803 54.8587 93.2998 56.4362 93.2998H87.1206V99.016Z"
    fill="#747D88"
    fillOpacity="0.2"
  />
  <path
    d="M78.6145 108.895H56.4313C54.8538 108.895 53.5732 107.614 53.5732 106.037C53.5732 104.459 54.8538 103.179 56.4313 103.179H78.6145V108.895Z"
    fill="#747D88"
    fillOpacity="0.2"
  />
  <path
    d="M101.148 146.6C100.398 146.771 99.931 146.61 99.3955 146.069C95.6074 142.223 91.7852 138.411 87.9533 134.608C87.4713 134.131 87.296 133.722 87.4616 133.011C88.8054 127.183 83.7222 122.002 77.9378 123.297C77.4996 123.395 76.9494 123.799 76.8082 124.193C76.6865 124.534 76.9494 125.157 77.2416 125.483C78.0742 126.428 79.009 127.285 79.8903 128.181C81.0296 129.34 81.1027 130.688 80.0948 131.672C79.1307 132.612 77.7577 132.534 76.6524 131.453C75.7078 130.528 74.8022 129.568 73.8381 128.668C72.9909 127.874 72.0171 128.142 71.8078 129.281C71.6276 130.245 71.4913 131.277 71.6374 132.237C72.392 137.174 76.6086 140.003 81.536 138.956C82.0911 138.839 82.4903 138.897 82.9285 139.341C86.6825 143.143 90.4463 146.926 94.2538 150.676C94.9647 151.372 95.4029 151.995 94.9842 153.013C94.8381 153.373 94.9062 153.826 94.8722 154.235C94.5265 159.406 99.7119 163.642 104.742 162.293C105.9 161.981 106.183 161.061 105.345 160.18C104.44 159.221 103.471 158.315 102.565 157.361C102.268 157.049 101.991 156.679 101.845 156.28C101.484 155.296 101.884 154.215 102.74 153.655C103.607 153.086 104.8 153.164 105.589 153.909C106.631 154.897 107.614 155.954 108.661 156.937C109.503 157.726 110.438 157.443 110.726 156.333C110.847 155.856 110.93 155.355 110.954 154.858C111.247 149.517 106.397 145.417 101.148 146.6ZM95.2812 148.489C95.1546 148.747 94.8965 148.898 94.6238 148.898C94.5167 148.898 94.4096 148.874 94.3025 148.825C93.9422 148.65 93.7913 148.212 93.9665 147.852C93.9763 147.827 94.4778 146.746 94.1223 145.841C93.6695 144.701 92.4377 144.107 92.4231 144.102C92.0579 143.932 91.9021 143.494 92.0725 143.133C92.2429 142.768 92.6714 142.612 93.0414 142.783C93.1145 142.817 94.8089 143.62 95.4808 145.305C96.0797 146.814 95.3152 148.421 95.2812 148.489Z"
    fill="#747D88"
  />
  <path
    d="M228.643 136.566C220.731 136.249 214.357 130.265 213.277 122.694L211.095 122.607C210.808 122.597 210.555 122.421 210.448 122.154C210.336 121.891 210.389 121.589 210.579 121.375L214.43 117.114C214.577 116.954 214.786 116.866 215.005 116.871C215.224 116.881 215.424 116.983 215.56 117.158L219.056 121.715C219.231 121.944 219.256 122.246 219.124 122.504C218.993 122.757 218.725 122.913 218.443 122.899L216.281 122.811C217.386 128.751 222.474 133.367 228.755 133.62C236.049 133.912 242.228 128.216 242.52 120.922C242.812 113.628 237.115 107.449 229.821 107.157C225.113 106.967 220.619 109.324 218.092 113.312C217.659 113.998 216.748 114.203 216.062 113.764C215.375 113.331 215.171 112.421 215.604 111.734C218.691 106.865 224.183 103.983 229.938 104.216C238.858 104.577 245.821 112.124 245.461 121.039C245.11 129.964 237.563 136.926 228.643 136.566Z"
    fill="#747D88"
    fillOpacity="0.2"
  />
  <path
    d="M225.05 127.261C225.337 127.242 225.619 127.135 225.858 126.94L232.421 121.633L231.9 114.563C231.842 113.76 231.141 113.156 230.337 113.214C229.534 113.273 228.93 113.974 228.989 114.777L229.398 120.323L224.022 124.671C223.394 125.177 223.297 126.098 223.808 126.726C224.12 127.11 224.592 127.295 225.05 127.261Z"
    fill="#747D88"
    fillOpacity="0.2"
  />
  <path
    d="M208.519 103.9L206.976 103.705C206.849 103.315 206.694 102.935 206.509 102.575L207.463 101.348C207.848 100.852 207.804 100.15 207.366 99.7219L206.075 98.4316C205.647 97.9886 204.946 97.9447 204.444 98.3294L203.217 99.2837C202.857 99.0987 202.482 98.9429 202.088 98.8163L201.893 97.2777C201.82 96.6593 201.294 96.1968 200.676 96.1968H198.84C198.217 96.1968 197.696 96.6642 197.623 97.2777L197.428 98.8212C197.038 98.9478 196.659 99.1036 196.298 99.2886L195.071 98.3343C194.575 97.9496 193.874 97.9934 193.445 98.4316L192.155 99.7219C191.712 100.155 191.663 100.856 192.053 101.353L193.007 102.58C192.822 102.94 192.666 103.315 192.539 103.71L191.001 103.904C190.382 103.977 189.92 104.503 189.92 105.122V106.957C189.92 107.58 190.387 108.101 191.001 108.174L192.544 108.369C192.671 108.759 192.827 109.139 193.012 109.499L192.057 110.726C191.673 111.222 191.717 111.924 192.155 112.352L193.445 113.642C193.878 114.085 194.575 114.129 195.071 113.745L196.298 112.79C196.659 112.975 197.034 113.131 197.428 113.258L197.623 114.796C197.696 115.415 198.222 115.877 198.84 115.877H200.676C201.299 115.877 201.82 115.41 201.893 114.796L202.088 113.253C202.477 113.126 202.857 112.97 203.217 112.785L204.444 113.74C204.941 114.124 205.642 114.081 206.07 113.642L207.361 112.352C207.804 111.919 207.852 111.218 207.463 110.721L206.509 109.494C206.694 109.134 206.849 108.759 206.976 108.364L208.515 108.17C209.133 108.097 209.596 107.571 209.596 106.952V105.117C209.6 104.498 209.138 103.973 208.519 103.9ZM199.755 110.142C197.491 110.142 195.656 108.301 195.656 106.042C195.656 103.783 197.496 101.942 199.755 101.942C202.014 101.942 203.855 103.783 203.855 106.042C203.855 108.301 202.019 110.142 199.755 110.142Z"
    fill="#747D88"
  />
  <path
    d="M219.168 93.0027L218.399 92.9053C218.335 92.7106 218.257 92.5207 218.165 92.3405L218.642 91.727C218.837 91.4787 218.812 91.1282 218.593 90.9139L217.946 90.2663C217.732 90.0424 217.381 90.0229 217.133 90.2128L216.519 90.69C216.339 90.5974 216.149 90.5195 215.954 90.4562L215.857 89.6869C215.818 89.3802 215.555 89.1465 215.248 89.1465H214.328C214.017 89.1465 213.754 89.3802 213.72 89.6869L213.622 90.4562C213.427 90.5195 213.237 90.5974 213.057 90.69L212.444 90.2128C212.196 90.018 211.845 90.0424 211.631 90.2615L210.983 90.9091C210.759 91.1233 210.74 91.4739 210.93 91.7222L211.407 92.3357C211.314 92.5158 211.236 92.7057 211.173 92.9005L210.404 92.9978C210.097 93.0368 209.863 93.2997 209.863 93.6065V94.5267C209.863 94.8383 210.097 95.1013 210.404 95.1353L211.173 95.2327C211.236 95.4275 211.314 95.6174 211.407 95.7975L210.93 96.411C210.735 96.6593 210.759 97.0099 210.978 97.2241L211.626 97.8717C211.84 98.0957 212.191 98.1152 212.439 97.9253L213.052 97.4481C213.233 97.5406 213.423 97.6185 213.617 97.6818L213.715 98.4511C213.754 98.7579 214.012 98.9916 214.323 98.9916H215.244C215.555 98.9916 215.818 98.7579 215.852 98.4511L215.95 97.6818C216.144 97.6185 216.334 97.5406 216.514 97.4481L217.128 97.9253C217.376 98.12 217.727 98.0957 217.941 97.8766L218.589 97.229C218.812 97.0148 218.832 96.6642 218.642 96.4159L218.165 95.8024C218.257 95.6222 218.335 95.4323 218.399 95.2376L219.168 95.1402C219.475 95.1013 219.708 94.8432 219.708 94.5316V93.6113C219.704 93.3046 219.475 93.0417 219.168 93.0027ZM214.786 96.1237C213.656 96.1237 212.736 95.2035 212.736 94.0739C212.736 92.9443 213.656 92.0241 214.786 92.0241C215.915 92.0241 216.836 92.9443 216.836 94.0739C216.836 95.2035 215.915 96.1237 214.786 96.1237Z"
    fill="#747D88"
  />
  <path
    d="M153.115 150.909C146.201 150.909 132.612 140.456 132.013 139.988C131.691 139.74 131.633 139.282 131.881 138.966C132.13 138.649 132.587 138.591 132.904 138.834C133.05 138.951 147.818 150.311 153.767 149.4C159.474 148.524 160.501 146.445 160.511 146.425C160.677 146.065 161.105 145.894 161.465 146.055C161.83 146.211 162.006 146.62 161.86 146.985C161.743 147.272 160.54 149.838 153.991 150.846C153.714 150.89 153.422 150.909 153.115 150.909Z"
    fill="#747D88"
  />
  <path
    d="M137.812 137.71C137.417 137.71 137.091 137.393 137.081 136.999C137.072 136.595 137.388 136.259 137.792 136.249L155.807 135.762C155.812 135.762 155.822 135.762 155.827 135.762C156.221 135.762 156.547 136.079 156.557 136.473C156.567 136.877 156.25 137.213 155.846 137.223L137.831 137.71C137.826 137.71 137.821 137.71 137.812 137.71Z"
    fill="#747D88"
  />
  <path
    d="M151.445 137.223C151.089 137.223 150.773 136.96 150.724 136.595L150.237 133.186C150.179 132.787 150.456 132.417 150.856 132.359C151.255 132.305 151.625 132.578 151.683 132.977L152.17 136.385C152.229 136.785 151.951 137.155 151.552 137.213C151.518 137.223 151.479 137.223 151.445 137.223Z"
    fill="#747D88"
  />
  <path
    d="M128.425 136.98L132.232 133.23C132.646 132.821 133.264 132.695 133.805 132.909C135.514 133.591 138.966 135.275 138.211 137.486C137.583 139.326 136.765 140.193 136.249 140.583C135.991 140.777 135.679 140.875 135.358 140.87L132.811 140.85C132.227 140.845 131.701 141.186 131.458 141.712L130.757 143.256C130.328 144.195 129.092 144.414 128.366 143.679C128.093 143.402 127.938 143.027 127.942 142.632L127.981 138.012C127.991 137.627 128.147 137.257 128.425 136.98Z"
    fill="#747D88"
  />
  <path
    d="M97.5305 141.731L94.6529 138.114C94.4095 137.807 94.054 137.612 93.6645 137.568C92.6372 137.452 91.8143 138.401 92.0724 139.404L92.5008 141.045C92.6469 141.61 92.4473 142.204 91.9945 142.569L89.9982 144.156C89.745 144.356 89.5648 144.628 89.4869 144.94C89.3311 145.568 89.2435 146.756 89.9105 148.582C90.7139 150.778 94.4582 149.911 96.2159 149.366C96.7709 149.196 97.1702 148.709 97.2384 148.124L97.8421 142.812C97.8859 142.428 97.774 142.038 97.5305 141.731ZM95.281 148.49C95.1544 148.748 94.8964 148.899 94.6237 148.899C94.5166 148.899 94.4095 148.874 94.3024 148.825C93.9421 148.65 93.7911 148.212 93.9664 147.852C93.9762 147.827 94.4777 146.746 94.1222 145.841C93.6694 144.701 92.4376 144.107 92.4229 144.103C92.0578 143.932 91.902 143.494 92.0724 143.134C92.2428 142.768 92.6713 142.613 93.0413 142.783C93.1143 142.817 94.8087 143.621 95.4807 145.305C96.0796 146.815 95.3151 148.421 95.281 148.49Z"
    fill="#747D88"
  />
  <path
    d="M137.315 63.1174L159.995 64.0182C160.389 64.0328 160.74 63.7211 160.754 63.317C160.769 62.9129 160.457 62.5721 160.053 62.5575L136.989 61.6421C137.145 62.1144 137.252 62.611 137.315 63.1174Z"
    fill="#747D88"
  />
  <path
    d="M168.301 73.7559H103.738C101.353 73.7559 99.4099 71.8132 99.4099 69.4274V66.1165C99.4099 64.9284 99.8822 63.8183 100.739 62.9954C101.596 62.1726 102.726 61.7392 103.909 61.7928L111.169 62.0801C111.3 61.5786 111.48 61.0965 111.704 60.6388L103.967 60.3321C102.38 60.2785 100.871 60.8433 99.7264 61.9437C98.5822 63.0441 97.9492 64.5292 97.9492 66.1165V69.4274C97.9492 72.6214 100.544 75.2166 103.738 75.2166H168.306C168.71 75.2166 169.036 74.8904 169.036 74.4863C169.036 74.0821 168.705 73.7559 168.301 73.7559Z"
    fill="#747D88"
  />
</svg>