<svg width="27" height="24" viewBox="0 0 27 24" fill="none" xmlns="http://www.w3.org/2000/svg">
<path d="M26.7218 5.4094C26.7218 2.44295 24.2903 0 21.3378 0H6.22778C3.27525 0 0.84375 2.44295 0.84375 5.4094V15.8792C0.84375 18.8456 3.27525 21.2886 6.22778 21.2886H22.5127L24.6377 23.5833C25.3324 24.2813 26.7218 23.7578 26.7218 22.7108V5.4094Z" fill="#4D8FF1"/>
<path d="M21.1963 8.59274C20.8345 4.8312 17.7445 1.87891 13.9912 1.87891C10.238 1.87891 7.13287 4.8312 6.77111 8.57776C6.07773 8.6377 5.52002 9.22217 5.52002 9.94151V12.3393C5.52002 13.0886 6.13803 13.7031 6.89169 13.7031C6.93691 13.7031 6.96706 13.7031 7.01228 13.7031C7.0575 14.0028 7.31375 14.2276 7.63029 14.2276C7.97697 14.2276 8.26337 13.9428 8.26337 13.5982V12.3393V9.94151V8.59274C8.26337 8.24806 7.97697 7.96332 7.63029 7.96332C7.56999 7.96332 7.52477 7.97831 7.47955 7.97831C8.08249 4.84618 10.7655 2.47836 13.9912 2.47836C17.2471 2.47836 19.9452 4.89114 20.518 8.08321C20.4125 8.00828 20.2919 7.96332 20.1412 7.96332C19.7945 7.96332 19.5081 8.24806 19.5081 8.59274V9.94151V12.3393V13.5982C19.5081 13.8529 19.6588 14.0627 19.8698 14.1676C19.4478 15.8161 18.468 17.2548 17.0963 18.169C16.9607 18.0191 16.7647 17.9142 16.5386 17.9142H15.2122C14.7901 17.9142 14.4585 18.2439 14.4585 18.6635C14.4585 19.0831 14.7901 19.4128 15.2122 19.4128H16.5386C16.9155 19.4128 17.232 19.1281 17.2772 18.7684C18.9051 17.7344 20.0658 16.0559 20.4878 14.1227C20.6235 14.0328 20.729 13.8829 20.7592 13.7031C20.7893 13.7031 20.8345 13.7031 20.8797 13.7031C21.6334 13.7031 22.2514 13.0886 22.2514 12.3393V9.94151C22.2514 9.26713 22.0705 8.69765 21.1963 8.59274Z" fill="white"/>
<path d="M9.62061 13.8975V13.4029L10.2537 12.8035C11.761 11.3798 12.4393 10.6155 12.4544 9.7313C12.4544 9.13185 12.168 8.57736 11.2787 8.57736C10.736 8.57736 10.2989 8.84712 10.0276 9.07191L9.77134 8.51742C10.1783 8.17273 10.7662 7.91797 11.4445 7.91797C12.7106 7.91797 13.2533 8.78717 13.2533 9.6264C13.2533 10.7054 12.4695 11.5896 11.2184 12.7735L10.7511 13.2081V13.2231H13.404V13.8825H9.62061V13.8975Z" fill="white"/>
<path d="M16.7507 13.898V12.2945H14.0073V11.77L16.6452 8.02344H17.5043V11.6801H18.3334V12.3095H17.5043V13.913H16.7507V13.898ZM16.7507 11.6651V9.7019C16.7507 9.40217 16.7657 9.08746 16.7808 8.78774H16.7507C16.5698 9.13242 16.4191 9.38719 16.2532 9.65694L14.8062 11.6501V11.6651H16.7507Z" fill="white"/>
</svg>
