<svg width="56" height="11" viewBox="0 0 56 11" fill="none" xmlns="http://www.w3.org/2000/svg">
<path d="M8.04797 2.1543L5.7568 7.94961L4.83263 3.02071C4.71711 2.46235 4.29354 2.1543 3.8122 2.1543H0.0577608L0 2.40459C0.770141 2.57787 1.63655 2.84742 2.17565 3.13623C2.50296 3.30951 2.59923 3.46354 2.69549 3.88711L4.44756 10.6836H6.79649L10.3776 2.1543H8.04797Z" fill="#374694"/>
<path d="M11.3203 2.1543L9.49121 10.6836H11.7054L13.5152 2.1543H11.3203Z" fill="#374694"/>
<path d="M16.4233 4.52221C16.4233 4.21416 16.7314 3.88685 17.3668 3.80983C17.6748 3.77132 18.5605 3.73282 19.5424 4.1949L19.9275 2.38507C19.3884 2.19254 18.7145 2 17.8674 2C15.6917 2 14.1514 3.15521 14.1322 4.83027C14.1129 6.06249 15.2296 6.73637 16.0575 7.14069C16.9239 7.56427 17.2127 7.81457 17.1935 8.19964C17.1935 8.77724 16.5004 9.02754 15.8843 9.02754C14.7675 9.04679 14.1322 8.71948 13.6123 8.48844L13.208 10.356C13.7279 10.5871 14.6713 10.7989 15.6532 10.7989C17.9636 10.7989 19.4847 9.6629 19.4847 7.87233C19.5232 5.65817 16.4041 5.5234 16.4233 4.52221Z" fill="#374694"/>
<path d="M22.7965 7.66053L23.971 4.46444L24.6256 7.66053H22.7965ZM23.6437 2.15402C23.2201 2.15402 22.8543 2.40431 22.7003 2.77013L19.3887 10.6641H21.6991L22.1612 9.39335H24.9914L25.261 10.6641H27.3019L25.5305 2.13477L23.6437 2.15402Z" fill="#374694"/>
<path d="M48.8154 1.50781H44.2109V9.78267H48.8154V1.50781Z" fill="#FF5F00"/>
<path d="M44.5044 5.64619C44.5029 4.03098 45.244 2.50493 46.5143 1.50803C44.2296 -0.288438 40.9217 0.109152 39.1252 2.39384C37.3287 4.67853 37.7263 7.98642 40.011 9.78289C41.92 11.2826 44.6052 11.2826 46.5143 9.78289C45.244 8.78599 44.5029 7.25994 44.5044 5.64619Z" fill="#EB001B"/>
<path d="M55.0292 5.64578C55.0292 8.5517 52.6729 10.908 49.767 10.908C48.5874 10.908 47.4414 10.5119 46.5146 9.78248C48.7993 7.98601 49.1969 4.67811 47.4005 2.39342C47.1417 2.06453 46.8435 1.76634 46.5146 1.50761C48.7993 -0.288854 52.1072 0.107275 53.9037 2.39196C54.6331 3.3187 55.0292 4.4647 55.0292 5.64431V5.64578Z" fill="#F79E1B"/>
<path d="M54.5252 8.90484V8.73528H54.5939V8.7002H54.4199V8.73528H54.4945V8.90484H54.5252ZM54.8628 8.90484V8.7002H54.8102L54.7488 8.84637L54.6874 8.7002H54.6406V8.90484H54.6786V8.75136L54.7357 8.88437H54.7751L54.8321 8.75136V8.9063L54.8628 8.90484Z" fill="#F79E1B"/>
</svg>
