<svg width="32" height="25" viewBox="0 0 32 25" fill="none" xmlns="http://www.w3.org/2000/svg">
<path d="M5.75622 24.4664V22.8373C5.79423 22.3051 5.3924 21.8436 4.85752 21.8056C4.8168 21.8028 4.77607 21.8028 4.73534 21.8056C4.36881 21.7811 4.02127 21.9576 3.82307 22.2671C3.64388 21.9685 3.31535 21.7893 2.9651 21.8056C2.66101 21.7893 2.37321 21.9359 2.20488 22.1911V21.8707H1.64014V24.4664H2.21031V23.0382C2.16415 22.7043 2.39765 22.3975 2.7316 22.354C2.76962 22.3486 2.80763 22.3459 2.84564 22.3486C3.22032 22.3486 3.41038 22.5929 3.41038 23.0328V24.4772H3.98055V23.0382C3.93711 22.7043 4.17332 22.3975 4.50728 22.354C4.54257 22.3486 4.58058 22.3486 4.61588 22.3486C5.00142 22.3486 5.18605 22.5929 5.18605 23.0328V24.4772L5.75622 24.4664ZM14.192 21.8707H13.2635V21.0833H12.6933V21.8707H12.1774V22.3866H12.7041V23.5812C12.7041 24.184 12.9376 24.5424 13.6056 24.5424C13.8553 24.5424 14.0997 24.4745 14.3115 24.3415L14.1486 23.8582C13.9965 23.9478 13.8255 23.9994 13.649 24.0048C13.3775 24.0048 13.2743 23.831 13.2743 23.5704V22.3866H14.1974L14.192 21.8707ZM19.0086 21.8056C18.7289 21.7974 18.4656 21.944 18.3244 22.1857V21.8707H17.7651V24.4664H18.3298V23.0111C18.3298 22.5821 18.5144 22.3431 18.8728 22.3431C18.9923 22.3404 19.1145 22.3649 19.2258 22.4083L19.3996 21.8653C19.2692 21.8191 19.1335 21.7947 18.9977 21.7947L19.0086 21.8056ZM11.7267 22.0771C11.4063 21.887 11.0398 21.792 10.6678 21.8056C10.0108 21.8056 9.58178 22.1205 9.58178 22.6364C9.58178 23.0599 9.89674 23.3206 10.4778 23.402L10.7493 23.44C11.0588 23.4835 11.2054 23.5649 11.2054 23.7116C11.2054 23.9125 10.9991 24.0265 10.6135 24.0265C10.304 24.0347 9.99991 23.9396 9.75012 23.755L9.47861 24.1948C9.80714 24.4256 10.2008 24.5424 10.6027 24.5315C11.352 24.5315 11.7864 24.1786 11.7864 23.6844C11.7864 23.1903 11.4443 22.9893 10.8796 22.9079L10.6081 22.8699C10.3637 22.8373 10.1682 22.7884 10.1682 22.6147C10.1682 22.4409 10.3529 22.3106 10.6624 22.3106C10.9475 22.3133 11.2298 22.3893 11.4769 22.5332L11.7267 22.0771ZM26.8525 21.8056C26.5728 21.7974 26.3095 21.944 26.1683 22.1857V21.8707H25.609V24.4664H26.1737V23.0111C26.1737 22.5821 26.3583 22.3431 26.7167 22.3431C26.8362 22.3404 26.9584 22.3649 27.0697 22.4083L27.2435 21.8653C27.1131 21.8191 26.9774 21.7947 26.8416 21.7947L26.8525 21.8056ZM19.576 23.1631C19.5489 23.888 20.1136 24.4962 20.8386 24.5207C20.8793 24.5234 20.92 24.5207 20.9607 24.5207C21.3001 24.5369 21.6341 24.4283 21.8947 24.2111L21.6232 23.755C21.4277 23.9043 21.1888 23.9858 20.9445 23.9885C20.4856 23.9505 20.1435 23.5487 20.1815 23.0898C20.2141 22.6825 20.5372 22.3594 20.9445 22.3269C21.1888 22.3296 21.4277 22.411 21.6232 22.5604L21.8947 22.1042C21.6341 21.887 21.3001 21.7784 20.9607 21.7947C20.2385 21.754 19.6195 22.3079 19.576 23.0301C19.5733 23.0708 19.5733 23.1115 19.576 23.1522V23.1631ZM24.865 23.1631V21.8707H24.3003V22.1857C24.1048 21.9359 23.8034 21.7947 23.4858 21.8056C22.7364 21.8056 22.1282 22.4137 22.1282 23.1631C22.1282 23.9125 22.7364 24.5207 23.4858 24.5207C23.8034 24.5315 24.1048 24.3903 24.3003 24.1405V24.4555H24.865V23.1631ZM22.7636 23.1631C22.788 22.7314 23.16 22.4002 23.5944 22.4273C24.0288 22.4545 24.3573 22.8237 24.3302 23.2581C24.3057 23.6708 23.9636 23.9939 23.5509 23.9966C23.122 24.0021 22.7663 23.6573 22.7608 23.2283C22.7608 23.2038 22.7608 23.1848 22.7636 23.1631ZM15.9487 21.8056C15.1993 21.8164 14.5993 22.4327 14.6101 23.1821C14.621 23.9315 15.2373 24.5315 15.9867 24.5207C16.3777 24.5397 16.7605 24.4148 17.0646 24.1677L16.7931 23.7496C16.5786 23.9206 16.3125 24.0184 16.0383 24.0211C15.65 24.0537 15.3052 23.774 15.2618 23.3857H17.1895C17.1895 23.3152 17.1895 23.2446 17.1895 23.1685C17.1895 22.354 16.6845 21.811 15.9568 21.811L15.9487 21.8056ZM15.9487 22.3106C16.3044 22.3024 16.5976 22.5848 16.6057 22.9405H15.2482C15.2699 22.5766 15.574 22.297 15.9378 22.3106H15.9487ZM30.097 23.1685V20.8281H29.554V22.1857C29.3585 21.9359 29.0571 21.7947 28.7395 21.8056C27.9901 21.8056 27.3819 22.4137 27.3819 23.1631C27.3819 23.9125 27.9901 24.5207 28.7395 24.5207C29.0571 24.5315 29.3585 24.3903 29.554 24.1405V24.4555H30.097V23.1685ZM31.0392 24.089C31.0745 24.089 31.1098 24.0944 31.1423 24.108C31.1722 24.1215 31.2021 24.1378 31.2265 24.1623C31.2509 24.1867 31.27 24.2138 31.2835 24.2437C31.3107 24.3089 31.3107 24.3795 31.2835 24.4446C31.27 24.4745 31.2509 24.5016 31.2265 24.5261C31.2021 24.5505 31.1722 24.5668 31.1423 24.5804C31.1098 24.594 31.0745 24.6021 31.0392 24.6021C30.9333 24.6021 30.8383 24.5397 30.7948 24.4446C30.7677 24.3795 30.7677 24.3089 30.7948 24.2437C30.8084 24.2138 30.8274 24.1867 30.8518 24.1623C30.8763 24.1378 30.9061 24.1215 30.936 24.108C30.9713 24.0944 31.0093 24.0862 31.0473 24.089H31.0392ZM31.0392 24.5478C31.0663 24.5478 31.0935 24.5424 31.1179 24.5315C31.1423 24.5207 31.1613 24.5071 31.1804 24.4881C31.2509 24.412 31.2509 24.2926 31.1804 24.2166C31.1613 24.1976 31.1423 24.184 31.1179 24.1731C31.0935 24.1623 31.0663 24.1568 31.0392 24.1568C31.012 24.1568 30.9849 24.1623 30.9604 24.1731C30.936 24.184 30.9143 24.1976 30.8953 24.2166C30.8247 24.2926 30.8247 24.412 30.8953 24.4881C30.9143 24.5071 30.936 24.5207 30.9604 24.5315C30.9876 24.5424 31.0174 24.5478 31.0473 24.5478H31.0392ZM31.0555 24.2247C31.0799 24.2247 31.107 24.2301 31.126 24.2464C31.1423 24.26 31.1532 24.2817 31.1505 24.3034C31.1505 24.3225 31.1451 24.3387 31.1315 24.3523C31.1152 24.3659 31.0962 24.374 31.0745 24.3768L31.1532 24.4664H31.0908L31.0174 24.3768H30.993V24.4664H30.9414V24.2274L31.0555 24.2247ZM30.9957 24.2709V24.336H31.0555C31.0663 24.3387 31.0772 24.3387 31.088 24.336C31.0908 24.3279 31.0908 24.3197 31.088 24.3116C31.0908 24.3034 31.0908 24.2953 31.088 24.2872C31.0772 24.2844 31.0663 24.2844 31.0555 24.2872L30.9957 24.2709ZM28.0091 23.1685C28.0336 22.7368 28.4055 22.4056 28.8399 22.4327C29.2744 22.4599 29.6029 22.8291 29.5757 23.2636C29.5513 23.6763 29.2092 23.9994 28.7965 24.0021C28.3675 24.0075 28.0118 23.6627 28.0064 23.2337C28.0064 23.2093 28.0064 23.1903 28.0091 23.1685ZM8.94102 23.1685V21.8707H8.37628V22.1857C8.1808 21.9359 7.87942 21.7947 7.56176 21.8056C6.81239 21.8056 6.20421 22.4137 6.20421 23.1631C6.20421 23.9125 6.81239 24.5207 7.56176 24.5207C7.87942 24.5315 8.1808 24.3903 8.37628 24.1405V24.4555H8.94102V23.1685ZM6.83954 23.1685C6.86398 22.7368 7.23594 22.4056 7.67036 22.4327C8.10477 22.4599 8.4333 22.8291 8.40615 23.2636C8.38171 23.6763 8.03961 23.9994 7.62692 24.0021C7.19793 24.0102 6.84226 23.6681 6.8314 23.2391C6.8314 23.2174 6.8314 23.1957 6.83411 23.1713H6.83954V23.1685Z" fill="#4A4A4A"/>
<path d="M20.0911 2.08984H11.5386V17.46H20.0911V2.08984Z" fill="#FF5F00"/>
<path d="M12.0816 9.77646C12.0789 6.77629 13.4554 3.94173 15.8148 2.09003C11.5711 -1.24682 5.42688 -0.50831 2.09003 3.73538C-1.24682 7.97907 -0.50831 14.1233 3.73538 17.4602C7.28129 20.2459 12.2689 20.2459 15.8148 17.4602C13.4554 15.6085 12.0789 12.7739 12.0816 9.77646Z" fill="#EB001B"/>
<path d="M31.6304 9.77751C31.6304 15.1751 27.2536 19.5518 21.856 19.5518C19.6649 19.5518 17.5363 18.8161 15.8149 17.4612C20.0586 14.1244 20.7971 7.98011 17.4603 3.73642C16.9797 3.12553 16.4258 2.57165 15.8149 2.09108C20.0586 -1.24577 26.2029 -0.509983 29.5397 3.73371C30.8946 5.45508 31.6304 7.58371 31.6304 9.77479V9.77751Z" fill="#F79E1B"/>
<path d="M30.6955 15.8293V15.5144H30.8231V15.4492H30.5V15.5144H30.6385V15.8293H30.6955ZM31.3227 15.8293V15.4492H31.2249L31.1109 15.7207L30.9969 15.4492H30.91V15.8293H30.9806V15.5442L31.0865 15.7913H31.1598L31.2657 15.5442V15.832L31.3227 15.8293Z" fill="#F79E1B"/>
</svg>
