<svg width="59" height="17" viewBox="0 0 59 17" fill="none" xmlns="http://www.w3.org/2000/svg">
<path fill-rule="evenodd" clip-rule="evenodd" d="M5.45491 0.0965436C5.9828 0.0931919 7.54805 -0.0475799 8.21169 2.19136C8.65914 3.69963 9.3697 6.16984 10.3467 9.60367H10.7439C11.793 5.98382 12.5119 3.51194 12.9041 2.19136C13.5744 -0.071042 15.2503 0.0965436 15.9206 0.0965436H21.0923V16.1847H15.8217V6.70276H15.4681L12.5287 16.1847H8.56362L5.62417 6.69606H5.27056V16.1847H0V0.0965436H5.45491ZM28.6621 0.0965436V9.58523H29.0828L32.6574 1.78245C33.3512 0.230612 34.8293 0.0965436 34.8293 0.0965436H39.9306V16.1847H34.5494V6.69606H34.1288L30.6246 14.4988C29.9308 16.044 28.3823 16.1847 28.3823 16.1847H23.281V0.0965436H28.6621ZM58.5309 7.74179C57.7801 9.86845 55.4222 11.3918 52.8129 11.3918H47.1703V16.1847H42.0522V7.74179H58.5309Z" fill="#0F754E"/>
<path fill-rule="evenodd" clip-rule="evenodd" d="M53.0593 0.0976562H41.7842C42.0523 3.67896 45.1376 6.74577 48.3301 6.74577H58.8863C59.4963 3.76778 57.3981 0.0976562 53.0593 0.0976562Z" fill="url(#paint0_linear)"/>
<defs>
<linearGradient id="paint0_linear" x1="58.9877" y1="3.42142" x2="41.7816" y2="3.42142" gradientUnits="userSpaceOnUse">
<stop stop-color="#1F5CD7"/>
<stop offset="1" stop-color="#02AEFF"/>
</linearGradient>
</defs>
</svg>
