<svg width="84" height="40" viewBox="0 0 84 40" fill="none" xmlns="http://www.w3.org/2000/svg">
<path d="M59.5805 14.7033C59.5805 10.6308 56.2368 7.28711 52.1643 7.28711H31.4162C27.3437 7.28711 24 10.6308 24 14.7033V29.0212C24 33.0937 27.3437 36.4374 31.4162 36.4374H53.7933L56.7083 39.5667C57.6514 40.5098 59.5805 39.8239 59.5805 38.3664V14.7033Z" fill="#4D8FF1"/>
<path d="M51.9904 19.0331C51.4759 13.889 47.232 9.85938 42.0878 9.85938C36.9437 9.85938 32.6569 13.889 32.1425 19.0331C31.1994 19.1189 30.4277 19.9334 30.4277 20.9193V24.2202C30.4277 25.249 31.2851 26.1064 32.3139 26.1064C32.3568 26.1064 32.3997 26.1064 32.4854 26.1064C32.5283 26.535 32.9141 26.8351 33.3428 26.8351C33.8143 26.8351 34.2001 26.4493 34.2001 25.9777V24.263V20.9622V19.1189C34.2001 18.6473 33.8143 18.2615 33.3428 18.2615C33.257 18.2615 33.2142 18.2615 33.1284 18.2615C33.9429 13.9747 37.6296 10.7167 42.0878 10.7167C46.5461 10.7167 50.2756 14.0176 51.0473 18.3901C50.9186 18.3044 50.7472 18.2186 50.5328 18.2186C50.0613 18.2186 49.6755 18.6045 49.6755 19.076V20.9193V24.2202V25.9349C49.6755 26.2778 49.8898 26.5779 50.1899 26.7065C49.5897 28.9785 48.2608 30.9504 46.3746 32.1936C46.2032 31.9793 45.9031 31.8507 45.603 31.8507H43.7597C43.1595 31.8507 42.7309 32.3222 42.7309 32.8795C42.7309 33.4368 43.2024 33.9083 43.7597 33.9083H45.603C46.1174 33.9083 46.5461 33.5225 46.6318 33.0081C48.861 31.5935 50.4471 29.2786 51.0473 26.6636C51.2187 26.535 51.3902 26.3207 51.4331 26.1064C51.4759 26.1064 51.5188 26.1064 51.6045 26.1064C52.6334 26.1064 53.4907 25.249 53.4907 24.2202V20.9193C53.4479 19.9762 53.1907 19.2046 51.9904 19.0331Z" fill="white"/>
<path d="M36.0898 26.3206V25.6347L36.9472 24.8202C39.0049 22.8912 39.948 21.8195 39.9908 20.6192C39.9908 19.8047 39.605 19.033 38.3618 19.033C37.6331 19.033 37.0329 19.4189 36.6471 19.7189L36.3042 18.9473C36.8615 18.4758 37.676 18.1328 38.6191 18.1328C40.3766 18.1328 41.1054 19.3331 41.1054 20.4906C41.1054 21.9481 40.0337 23.1912 38.319 24.7774L37.676 25.3775H41.3197V26.2777L36.0898 26.3206Z" fill="white"/>
<path d="M45.8603 26.3209V24.1346H42.0879V23.4059L45.7317 18.2617H46.932V23.2773H48.0894V24.1346H46.932V26.3209H45.8603ZM45.8603 23.2344V20.5766C45.8603 20.1479 45.8603 19.7192 45.9031 19.3334H45.8603C45.6031 19.805 45.3887 20.1479 45.1744 20.5337L43.2025 23.2773H45.8603V23.2344Z" fill="white"/>
<path d="M78.5784 7.75392C78.5784 7.05062 78.6638 6.49049 78.8346 6.07353C79.0054 5.65657 79.3169 5.24715 79.769 4.84526C80.2262 4.43835 80.5301 4.1093 80.6808 3.85812C80.8315 3.60192 80.9069 3.33316 80.9069 3.05183C80.9069 2.20285 80.515 1.77835 79.7313 1.77835C79.3596 1.77835 79.0607 1.8939 78.8346 2.12498C78.6136 2.35104 78.498 2.66502 78.488 3.06691H76.3027C76.3128 2.1074 76.6217 1.35637 77.2296 0.813822C77.8425 0.271274 78.6764 0 79.7313 0C80.7963 0 81.6227 0.258715 82.2105 0.776146C82.7982 1.28855 83.0921 2.01446 83.0921 2.95387C83.0921 3.38088 82.9967 3.78528 82.8058 4.16707C82.6149 4.54384 82.2808 4.96331 81.8036 5.42548L81.1932 6.00571C80.8114 6.37243 80.5929 6.80195 80.5376 7.29426L80.5075 7.75392H78.5784ZM78.3599 10.0673C78.3599 9.7307 78.4729 9.45441 78.699 9.23839C78.9301 9.01735 79.224 8.90683 79.5806 8.90683C79.9373 8.90683 80.2287 9.01735 80.4547 9.23839C80.6858 9.45441 80.8014 9.7307 80.8014 10.0673C80.8014 10.3988 80.6883 10.6726 80.4623 10.8886C80.2412 11.1047 79.9474 11.2127 79.5806 11.2127C79.2139 11.2127 78.9175 11.1047 78.6915 10.8886C78.4704 10.6726 78.3599 10.3988 78.3599 10.0673Z" fill="#FF542E"/>
<path d="M1.72424 14.0735C1.72424 13.5357 1.78894 13.1074 1.91836 12.7886C2.04777 12.4697 2.28376 12.1567 2.62632 11.8494C2.97269 11.5382 3.20297 11.2866 3.31716 11.0946C3.43134 10.8987 3.48844 10.6932 3.48844 10.4781C3.48844 9.82891 3.19155 9.50432 2.59777 9.50432C2.31611 9.50432 2.08964 9.59267 1.91836 9.76937C1.75088 9.94222 1.66334 10.1823 1.65572 10.4896H0C0.00761252 9.75592 0.241698 9.18166 0.702255 8.76681C1.16662 8.35196 1.79846 8.14453 2.59777 8.14453C3.4047 8.14453 4.03083 8.34235 4.47616 8.738C4.9215 9.1298 5.14416 9.68486 5.14416 10.4032C5.14416 10.7297 5.07184 11.0389 4.92721 11.3308C4.78257 11.6189 4.52945 11.9397 4.16786 12.293L3.7054 12.7367C3.41612 13.0171 3.25055 13.3455 3.20868 13.722L3.18584 14.0735H1.72424ZM1.55866 15.8423C1.55866 15.585 1.6443 15.3737 1.81559 15.2085C1.99067 15.0395 2.21334 14.955 2.48359 14.955C2.75383 14.955 2.97459 15.0395 3.14587 15.2085C3.32096 15.3737 3.40851 15.585 3.40851 15.8423C3.40851 16.0959 3.32287 16.3052 3.15158 16.4704C2.98411 16.6355 2.76144 16.7181 2.48359 16.7181C2.20573 16.7181 1.98116 16.6355 1.80988 16.4704C1.6424 16.3052 1.55866 16.0959 1.55866 15.8423Z" fill="#FF542E"/>
<path d="M10.8666 26.9019C10.8666 26.4448 10.9205 26.0807 11.0283 25.8097C11.1362 25.5387 11.3328 25.2726 11.6183 25.0114C11.9069 24.747 12.0988 24.5331 12.194 24.3699C12.2891 24.2033 12.3367 24.0287 12.3367 23.8458C12.3367 23.294 12.0893 23.0181 11.5945 23.0181C11.3598 23.0181 11.1711 23.0932 11.0283 23.2434C10.8888 23.3903 10.8158 23.5944 10.8095 23.8556H9.42969C9.43603 23.232 9.6311 22.7439 10.0149 22.3912C10.4019 22.0386 10.9284 21.8623 11.5945 21.8623C12.2669 21.8623 12.7887 22.0305 13.1598 22.3668C13.5309 22.6998 13.7165 23.1716 13.7165 23.7821C13.7165 24.0597 13.6562 24.3225 13.5357 24.5707C13.4152 24.8155 13.2042 25.0882 12.9029 25.3885L12.5175 25.7657C12.2765 26.004 12.1385 26.2832 12.1036 26.6031L12.0846 26.9019H10.8666ZM10.7286 28.4054C10.7286 28.1867 10.7999 28.0071 10.9427 27.8667C11.0886 27.723 11.2741 27.6512 11.4993 27.6512C11.7245 27.6512 11.9085 27.723 12.0513 27.8667C12.1972 28.0071 12.2701 28.1867 12.2701 28.4054C12.2701 28.6209 12.1987 28.7989 12.056 28.9393C11.9164 29.0797 11.7309 29.1499 11.4993 29.1499C11.2678 29.1499 11.0807 29.0797 10.9379 28.9393C10.7984 28.7989 10.7286 28.6209 10.7286 28.4054Z" fill="#FF542E"/>
</svg>
