<svg width="24" height="22" viewBox="0 0 24 22" fill="none" xmlns="http://www.w3.org/2000/svg">
<path d="M23.9286 4.98753C23.9286 2.24871 21.6799 0 18.9411 0H4.98753C2.24871 0 0 2.24871 0 4.98753V14.6166C0 17.3554 2.24871 19.6042 4.98753 19.6042H20.0366L21.997 21.7087C22.6313 22.343 23.9286 21.8817 23.9286 20.9015V4.98753Z" fill="#4D8FF1"/>
<path d="M18.8236 7.90001C18.4776 4.44045 15.6235 1.73047 12.1639 1.73047C8.70437 1.73047 5.82141 4.44045 5.47545 7.90001C4.8412 7.95767 4.32227 8.50543 4.32227 9.16852V11.3884C4.32227 12.0803 4.89886 12.6569 5.59077 12.6569C5.6196 12.6569 5.64843 12.6569 5.70609 12.6569C5.73492 12.9452 5.99438 13.147 6.28268 13.147C6.59981 13.147 6.85927 12.8875 6.85927 12.5704V11.4172V9.19735V7.95767C6.85927 7.64054 6.59981 7.38108 6.28268 7.38108C6.22502 7.38108 6.19619 7.38108 6.13853 7.38108C6.6863 4.49811 9.16565 2.30706 12.1639 2.30706C15.1622 2.30706 17.6704 4.52694 18.1893 7.46757C18.1028 7.40991 17.9875 7.35225 17.8434 7.35225C17.5262 7.35225 17.2668 7.61172 17.2668 7.92884V9.16852V11.3884V12.5416C17.2668 12.7722 17.4109 12.974 17.6127 13.0605C17.2091 14.5885 16.3154 15.9147 15.0469 16.7507C14.9316 16.6066 14.7298 16.5201 14.528 16.5201H13.2883C12.8847 16.5201 12.5964 16.8372 12.5964 17.212C12.5964 17.5868 12.9135 17.9039 13.2883 17.9039H14.528C14.8739 17.9039 15.1622 17.6444 15.2199 17.2985C16.719 16.3471 17.7857 14.7903 18.1893 13.0317C18.3046 12.9452 18.42 12.8011 18.4488 12.6569C18.4776 12.6569 18.5064 12.6569 18.5641 12.6569C19.256 12.6569 19.8326 12.0803 19.8326 11.3884V9.16852C19.8038 8.53426 19.6308 8.01533 18.8236 7.90001Z" fill="white"/>
<path d="M8.13086 12.7994V12.3382L8.70745 11.7904C10.0913 10.4931 10.7255 9.77232 10.7544 8.96509C10.7544 8.41733 10.4949 7.89839 9.65883 7.89839C9.16873 7.89839 8.76511 8.15786 8.50564 8.35967L8.27501 7.84073C8.64979 7.52361 9.19756 7.29297 9.83181 7.29297C11.0138 7.29297 11.5039 8.1002 11.5039 8.8786C11.5039 9.85881 10.7832 10.6949 9.63 11.7616L9.19756 12.1652H11.6481V12.7706L8.13086 12.7994Z" fill="white"/>
<path d="M14.7011 12.8008V11.3305H12.1641V10.8404L14.6146 7.38086H15.4218V10.7539H16.2002V11.3305H15.4218V12.8008H14.7011ZM14.7011 10.7251V8.93766C14.7011 8.64936 14.7011 8.36107 14.7299 8.1016H14.7011C14.5281 8.41873 14.3839 8.64936 14.2398 8.90883L12.9136 10.7539H14.7011V10.7251Z" fill="white"/>
</svg>
