<svg width="898" height="142" viewBox="0 0 898 142" fill="none" xmlns="http://www.w3.org/2000/svg">
<path d="M0 5C0 2.23858 2.23858 0 5 0H891C893.761 0 896 2.23858 896 5V142H0V5Z" fill="#F0F2FA"/>
<mask id="mask0" mask-type="alpha" maskUnits="userSpaceOnUse" x="4" y="1" width="894" height="141">
<rect x="4" y="1" width="894" height="141" fill="#C4C4C4"/>
</mask>
<g mask="url(#mask0)">
<g opacity="0.65">
<path opacity="0.18" d="M-16.0223 156.916C35.3751 100.872 150.585 31.5923 184.988 96.6305C320.035 351.956 554.982 62.5435 762.73 -144.385" stroke="#4E55A2"/>
<path opacity="0.5" d="M-16.0223 286.265C3.90498 216.068 68.9432 -0.229655 169.64 -16.2091C295.513 -36.1891 208.141 126.245 304.95 163.588C399.842 200.186 826.239 38.5544 1082.74 -144.432" stroke="#4E55A2"/>
<path opacity="0.48" d="M-19.173 45.3788C34.3225 -9.27467 145.088 -102.617 160.195 -38.6919C179.077 41.2204 193.237 278.446 339.564 272.618C456.624 267.956 623.092 138.873 829.035 -142.832" stroke="#FF542E"/>
</g>
</g>
</svg>
