<svg width="84" height="40" viewBox="0 0 84 40" fill="none" xmlns="http://www.w3.org/2000/svg">
<path d="M59.5805 14.7033C59.5805 10.6308 56.2368 7.28711 52.1643 7.28711H31.4162C27.3437 7.28711 24 10.6308 24 14.7033V29.0212C24 33.0937 27.3437 36.4374 31.4162 36.4374H53.7933L56.7083 39.5667C57.6514 40.5098 59.5805 39.8239 59.5805 38.3664V14.7033Z" fill="#4D8FF1"/>
<path d="M51.9899 19.0331C51.4754 13.889 47.2315 9.85938 42.0873 9.85938C36.9432 9.85938 32.6564 13.889 32.142 19.0331C31.1989 19.1189 30.4272 19.9334 30.4272 20.9193V24.2202C30.4272 25.249 31.2846 26.1064 32.3134 26.1064C32.3563 26.1064 32.3992 26.1064 32.4849 26.1064C32.5278 26.535 32.9136 26.8351 33.3423 26.8351C33.8138 26.8351 34.1996 26.4493 34.1996 25.9777V24.263V20.9622V19.1189C34.1996 18.6473 33.8138 18.2615 33.3423 18.2615C33.2565 18.2615 33.2137 18.2615 33.1279 18.2615C33.9424 13.9747 37.6291 10.7167 42.0873 10.7167C46.5456 10.7167 50.2751 14.0176 51.0468 18.3901C50.9182 18.3044 50.7467 18.2186 50.5323 18.2186C50.0608 18.2186 49.675 18.6045 49.675 19.076V20.9193V24.2202V25.9349C49.675 26.2778 49.8893 26.5779 50.1894 26.7065C49.5893 28.9785 48.2603 30.9504 46.3742 32.1936C46.2027 31.9793 45.9026 31.8507 45.6025 31.8507H43.7592C43.159 31.8507 42.7304 32.3222 42.7304 32.8795C42.7304 33.4368 43.2019 33.9083 43.7592 33.9083H45.6025C46.1169 33.9083 46.5456 33.5225 46.6314 33.0081C48.8605 31.5935 50.4466 29.2786 51.0468 26.6636C51.2182 26.535 51.3897 26.3207 51.4326 26.1064C51.4754 26.1064 51.5183 26.1064 51.604 26.1064C52.6329 26.1064 53.4902 25.249 53.4902 24.2202V20.9193C53.4474 19.9762 53.1902 19.2046 51.9899 19.0331Z" fill="white"/>
<path d="M36.0898 26.3206V25.6347L36.9472 24.8202C39.0049 22.8912 39.948 21.8195 39.9908 20.6192C39.9908 19.8047 39.605 19.033 38.3618 19.033C37.6331 19.033 37.0329 19.4189 36.6471 19.7189L36.3042 18.9473C36.8615 18.4758 37.676 18.1328 38.6191 18.1328C40.3766 18.1328 41.1054 19.3331 41.1054 20.4906C41.1054 21.9481 40.0337 23.1912 38.319 24.7774L37.676 25.3775H41.3197V26.2777L36.0898 26.3206Z" fill="white"/>
<path d="M45.8598 26.3209V24.1346H42.0874V23.4059L45.7312 18.2617H46.9315V23.2773H48.0889V24.1346H46.9315V26.3209H45.8598ZM45.8598 23.2344V20.5766C45.8598 20.1479 45.8598 19.7192 45.9027 19.3334H45.8598C45.6026 19.805 45.3882 20.1479 45.1739 20.5337L43.202 23.2773H45.8598V23.2344Z" fill="white"/>
<path d="M78.5789 7.75392C78.5789 7.05062 78.6643 6.49049 78.8351 6.07353C79.0059 5.65657 79.3174 5.24715 79.7695 4.84526C80.2267 4.43835 80.5306 4.1093 80.6813 3.85812C80.832 3.60192 80.9073 3.33316 80.9073 3.05183C80.9073 2.20285 80.5155 1.77835 79.7318 1.77835C79.3601 1.77835 79.0612 1.8939 78.8351 2.12498C78.6141 2.35104 78.4985 2.66502 78.4885 3.06691H76.3032C76.3133 2.1074 76.6222 1.35637 77.2301 0.813822C77.843 0.271274 78.6769 0 79.7318 0C80.7968 0 81.6232 0.258715 82.211 0.776146C82.7987 1.28855 83.0926 2.01446 83.0926 2.95387C83.0926 3.38088 82.9972 3.78528 82.8063 4.16707C82.6154 4.54384 82.2813 4.96331 81.8041 5.42548L81.1937 6.00571C80.8119 6.37243 80.5934 6.80195 80.5381 7.29426L80.508 7.75392H78.5789ZM78.3604 10.0673C78.3604 9.7307 78.4734 9.45441 78.6995 9.23839C78.9306 9.01735 79.2244 8.90683 79.5811 8.90683C79.9378 8.90683 80.2292 9.01735 80.4552 9.23839C80.6863 9.45441 80.8019 9.7307 80.8019 10.0673C80.8019 10.3988 80.6888 10.6726 80.4628 10.8886C80.2417 11.1047 79.9478 11.2127 79.5811 11.2127C79.2144 11.2127 78.918 11.1047 78.6919 10.8886C78.4709 10.6726 78.3604 10.3988 78.3604 10.0673Z" fill="#FF542E"/>
<path d="M1.72424 14.0735C1.72424 13.5357 1.78894 13.1074 1.91836 12.7886C2.04777 12.4697 2.28376 12.1567 2.62632 11.8494C2.97269 11.5382 3.20297 11.2866 3.31716 11.0946C3.43134 10.8987 3.48844 10.6932 3.48844 10.4781C3.48844 9.82891 3.19155 9.50432 2.59777 9.50432C2.31611 9.50432 2.08964 9.59267 1.91836 9.76937C1.75088 9.94222 1.66334 10.1823 1.65572 10.4896H0C0.00761252 9.75592 0.241698 9.18166 0.702255 8.76681C1.16662 8.35196 1.79846 8.14453 2.59777 8.14453C3.4047 8.14453 4.03083 8.34235 4.47616 8.738C4.9215 9.1298 5.14416 9.68486 5.14416 10.4032C5.14416 10.7297 5.07184 11.0389 4.92721 11.3308C4.78257 11.6189 4.52945 11.9397 4.16786 12.293L3.7054 12.7367C3.41612 13.0171 3.25055 13.3455 3.20868 13.722L3.18584 14.0735H1.72424ZM1.55866 15.8423C1.55866 15.585 1.6443 15.3737 1.81559 15.2085C1.99067 15.0395 2.21334 14.955 2.48359 14.955C2.75383 14.955 2.97459 15.0395 3.14587 15.2085C3.32096 15.3737 3.40851 15.585 3.40851 15.8423C3.40851 16.0959 3.32287 16.3052 3.15158 16.4704C2.98411 16.6355 2.76144 16.7181 2.48359 16.7181C2.20573 16.7181 1.98116 16.6355 1.80988 16.4704C1.6424 16.3052 1.55866 16.0959 1.55866 15.8423Z" fill="#FF542E"/>
<path d="M10.8666 26.9019C10.8666 26.4448 10.9205 26.0807 11.0283 25.8097C11.1362 25.5387 11.3328 25.2726 11.6183 25.0114C11.9069 24.747 12.0988 24.5331 12.194 24.3699C12.2891 24.2033 12.3367 24.0287 12.3367 23.8458C12.3367 23.294 12.0893 23.0181 11.5945 23.0181C11.3598 23.0181 11.1711 23.0932 11.0283 23.2434C10.8888 23.3903 10.8158 23.5944 10.8095 23.8556H9.42969C9.43603 23.232 9.6311 22.7439 10.0149 22.3912C10.4019 22.0386 10.9284 21.8623 11.5945 21.8623C12.2669 21.8623 12.7887 22.0305 13.1598 22.3668C13.5309 22.6998 13.7165 23.1716 13.7165 23.7821C13.7165 24.0597 13.6562 24.3225 13.5357 24.5707C13.4152 24.8155 13.2042 25.0882 12.9029 25.3885L12.5175 25.7657C12.2765 26.004 12.1385 26.2832 12.1036 26.6031L12.0846 26.9019H10.8666ZM10.7286 28.4054C10.7286 28.1867 10.7999 28.0071 10.9427 27.8667C11.0886 27.723 11.2741 27.6512 11.4993 27.6512C11.7245 27.6512 11.9085 27.723 12.0513 27.8667C12.1972 28.0071 12.2701 28.1867 12.2701 28.4054C12.2701 28.6209 12.1987 28.7989 12.056 28.9393C11.9164 29.0797 11.7309 29.1499 11.4993 29.1499C11.2678 29.1499 11.0807 29.0797 10.9379 28.9393C10.7984 28.7989 10.7286 28.6209 10.7286 28.4054Z" fill="#FF542E"/>
</svg>
