<svg width="181" height="77" viewBox="0 0 181 77" fill="none" xmlns="http://www.w3.org/2000/svg">
<path d="M91.1563 6.40967C108.828 6.40967 123.205 20.7865 123.205 38.458C123.205 56.1296 108.828 70.5064 91.1563 70.5064C73.4847 70.5064 59.1079 56.1296 59.1079 38.458C59.1079 20.7865 73.4847 6.40967 91.1563 6.40967ZM91.1563 0C69.9165 0 52.6982 17.2182 52.6982 38.458C52.6982 59.6978 69.9165 76.9161 91.1563 76.9161C112.396 76.9161 129.614 59.6978 129.614 38.458C129.614 17.2182 112.396 0 91.1563 0Z" fill="#FF5F66"/>
<path d="M95.6889 38.4574L102.499 31.6534C103.753 30.4046 103.753 28.3734 102.502 27.1215C101.252 25.8697 99.2209 25.8696 97.9706 27.1215L91.1565 33.9293L84.3422 27.1215C83.0935 25.8696 81.0623 25.8696 79.8104 27.1215C78.5601 28.3735 78.5601 30.4046 79.8135 31.6534L86.624 38.4574L79.8135 45.2614C78.5601 46.5102 78.5601 48.5414 79.8104 49.7933C80.4363 50.4192 81.2563 50.7322 82.0779 50.7322C82.8979 50.7322 83.7179 50.4192 84.3422 49.7933L91.1564 42.9855L97.9706 49.7933C98.595 50.4192 99.415 50.7322 100.235 50.7322C101.055 50.7322 101.877 50.4192 102.502 49.7933C103.753 48.5414 103.753 46.5102 102.499 45.2614L95.6889 38.4574Z" fill="#FF5F66"/>
<path d="M21.6752 36.3153L17.4606 32.1007L21.6752 27.8861C22.5182 27.0432 22.5182 25.7186 21.6752 24.8757C20.8323 24.0328 19.5077 24.0328 18.6648 24.8757L14.4502 29.0903L10.2356 24.8757C9.39267 24.0328 8.06808 24.0328 7.22516 24.8757C6.38224 25.7186 6.38224 27.0432 7.22516 27.8861L11.4398 32.1007L7.22516 36.3153C6.38224 37.1582 6.38224 38.4828 7.22516 39.3257C8.06808 40.1687 9.39267 40.1687 10.2356 39.3257L14.4502 35.1111L18.6648 39.3257C19.5077 40.1687 20.8323 40.1687 21.6752 39.3257C22.5182 38.4828 22.5182 37.1582 21.6752 36.3153Z" fill="#6d7177"/>
<path d="M158.225 54.7802L155.835 52.3904L158.225 50.0006C158.703 49.5226 158.703 48.7715 158.225 48.2936C157.747 47.8156 156.996 47.8156 156.518 48.2936L154.128 50.6834L151.738 48.2936C151.26 47.8156 150.509 47.8156 150.031 48.2936C149.553 48.7715 149.553 49.5226 150.031 50.0006L152.421 52.3904L150.031 54.7802C149.553 55.2582 149.553 56.0092 150.031 56.4872C150.509 56.9652 151.26 56.9652 151.738 56.4872L154.128 54.0974L156.518 56.4872C156.996 56.9652 157.747 56.9652 158.225 56.4872C158.703 56.0092 158.703 55.2582 158.225 54.7802Z" fill="#6d7177"/>
<path d="M174.317 28.1155L170.611 24.4094L174.317 20.7033C175.058 19.9621 175.058 18.7974 174.317 18.0561C173.576 17.3149 172.411 17.3149 171.67 18.0561L167.964 21.7622L164.258 18.0561C163.517 17.3149 162.352 17.3149 161.611 18.0561C160.869 18.7974 160.869 19.9621 161.611 20.7033L165.317 24.4094L161.611 28.1155C160.869 28.8567 160.869 30.0215 161.611 30.7627C162.352 31.5039 163.517 31.5039 164.258 30.7627L167.964 27.0566L171.67 30.7627C172.411 31.5039 173.576 31.5039 174.317 30.7627C175.058 30.0215 175.058 28.8567 174.317 28.1155Z" fill="#6d7177"/>
</svg>
