<svg width="142" height="142" viewBox="0 0 142 142" fill="none" xmlns="http://www.w3.org/2000/svg">
<circle cx="71" cy="71" r="71" fill="#FFD500"/>
<path d="M65.7055 114.67C65.5602 114.506 65.4937 114.404 65.4029 114.331C64.2228 113.332 62.8551 112.775 61.3361 112.569C59.1999 112.279 57.1605 112.709 55.1574 113.381C53.2027 114.04 51.2238 114.634 49.1843 114.985C46.8302 115.39 44.4822 115.511 42.1523 114.839C39.8405 114.174 37.9887 112.83 36.5605 110.917C35.5499 109.561 35.217 107.987 35.2412 106.316C35.2654 104.609 35.6406 102.968 36.1792 101.358C36.6089 100.057 37.1051 98.7733 37.5711 97.4839C37.6316 97.3265 37.6861 97.1631 37.7466 96.9754C37.5046 96.8725 37.2928 96.9451 37.0809 96.9814C34.9205 97.3083 32.7721 97.2962 30.654 96.703C27.138 95.7163 24.8686 93.4159 23.7248 89.9836C23.4283 89.0876 23.271 88.1493 23.0652 87.2292C23.0289 87.0779 23.0471 86.9204 23.041 86.7328C23.2226 86.6844 23.3799 86.642 23.5796 86.5936C23.5493 86.412 23.5251 86.2304 23.4888 86.0124C23.6401 85.97 23.7854 85.9216 23.9306 85.8792C25.2862 85.5221 26.672 85.4192 28.0639 85.5402C31.6405 85.849 34.4242 87.5258 36.4032 90.5284C37.1899 91.7209 37.7648 93.0164 38.2247 94.3663C38.2671 94.4874 38.3094 94.6024 38.3518 94.7235C38.3639 94.7477 38.3942 94.7658 38.4365 94.8022C38.4728 94.7658 38.5333 94.7235 38.5455 94.675C39.2111 92.2718 39.3745 89.8564 38.606 87.4471C37.7769 84.8441 36.0158 83.0583 33.6496 81.8052C32.3425 81.1091 31.0111 80.4492 29.7402 79.6925C28.0034 78.6695 26.43 77.4285 25.1228 75.8848C23.9124 74.4623 23.0955 72.852 22.7203 71.0117C22.3451 69.1654 22.7142 67.5067 23.8096 65.9933C24.6871 64.7766 25.7885 63.7838 26.9625 62.8758C28.7659 61.4835 30.7085 60.303 32.645 59.1165C32.7903 59.0257 32.9355 58.9289 33.0747 58.826C33.0929 58.8138 33.0989 58.7715 33.1231 58.7109C32.9416 58.608 32.754 58.493 32.5664 58.3901C30.6238 57.2884 28.9111 55.9081 27.5858 54.0921C26.2484 52.2579 25.5525 50.2118 25.6372 47.9356C25.7038 46.1075 26.2484 44.4004 27.0835 42.7841C27.3074 42.3543 27.5556 41.9366 27.7916 41.5007C27.9973 41.5976 28.1486 41.6702 28.3302 41.755C28.421 41.5915 28.5057 41.4462 28.6025 41.2828C28.6691 41.2888 28.7538 41.2767 28.8143 41.307C31.9128 42.7598 34.273 44.927 35.4107 48.2383C36.0037 49.9575 36.0885 51.7251 35.8343 53.517C35.6467 54.8185 35.2957 56.0776 34.8297 57.3065C34.7813 57.4336 34.751 57.5668 34.6905 57.7605C34.8237 57.7182 34.8963 57.706 34.9507 57.6697C35.9372 57.0159 36.8812 56.2956 37.7103 55.442C39.0054 54.1102 39.6469 52.5303 39.6469 50.6597C39.6469 48.9587 39.3201 47.3363 38.6362 45.7866C37.9524 44.243 37.2262 42.7175 36.5302 41.1799C35.9311 39.8602 35.3562 38.5224 35.0355 37.0998C34.8116 36.1191 34.7026 35.1384 34.9871 34.1517C35.0718 33.8672 35.1686 33.5766 35.3138 33.3163C35.9251 32.2206 36.6392 31.2036 37.5288 30.3138C38.8722 28.9759 40.482 28.2011 42.3762 27.9831C43.7378 27.8257 45.0873 27.9408 46.4248 28.1466C48.9241 28.534 51.3448 29.2423 53.7655 29.9324C53.8744 29.9626 53.9773 29.9929 54.0862 30.0171C54.1286 30.0292 54.177 30.0232 54.2557 30.0292C54.2557 29.9203 54.2738 29.8113 54.2557 29.7145C53.9228 28.1405 53.8078 26.5485 53.9531 24.9564C54.3464 20.5675 56.5614 17.4984 60.7068 15.9184C61.5843 15.5855 62.5223 15.3978 63.43 15.1496C63.5571 15.1133 63.7024 15.1315 63.8416 15.1254C63.9081 15.3191 63.9565 15.4765 64.0231 15.6642C64.2107 15.6157 64.3741 15.5734 64.598 15.5128C64.7009 15.8761 64.8159 16.2332 64.9006 16.5904C65.4513 19.0178 65.4089 21.415 64.5012 23.7578C63.7205 25.7796 62.3891 27.3657 60.6523 28.6309C59.6417 29.3694 58.5403 29.9505 57.3844 30.4288C57.2028 30.5014 57.0273 30.5862 56.7792 30.6951C56.9063 30.7738 56.9487 30.8223 57.0031 30.8344C58.7702 31.2218 60.5373 31.2823 62.2802 30.7133C63.9747 30.1564 65.2879 29.0788 66.3288 27.6562C67.3939 26.1973 68.0838 24.5568 68.5861 22.8376C69.0823 21.1547 69.4031 19.4355 69.5604 17.6861C69.6391 16.8386 69.6875 15.985 69.7541 15.1375C69.7601 15.0286 69.7843 14.9256 69.8025 14.7985C69.9901 14.7743 70.1535 14.7501 70.3532 14.7259C70.3834 14.5685 70.4137 14.405 70.45 14.1992C70.7647 14.1992 71.0915 14.1992 71.4485 14.1992C71.4909 14.3627 71.5393 14.5382 71.5877 14.7259C71.7693 14.7501 71.9327 14.7683 72.1384 14.7925C72.1747 15.2102 72.2171 15.6157 72.2353 16.0213C72.3442 18.013 72.6226 19.9743 73.1067 21.9114C73.5424 23.6488 74.1476 25.3196 75.0856 26.8572C75.9147 28.2132 76.9556 29.3633 78.3596 30.1382C79.9149 30.9978 81.5912 31.2642 83.3462 31.0765C83.8606 31.022 84.375 30.9312 84.8894 30.8465C84.962 30.8344 85.0285 30.798 85.204 30.7254C84.9801 30.6225 84.853 30.5559 84.7199 30.5014C83.3764 29.9445 82.0935 29.2665 80.9436 28.3645C77.9904 26.04 76.6106 22.9829 76.7135 19.2418C76.7438 18.134 76.9072 17.0444 77.2158 15.979C77.2521 15.8579 77.2884 15.7368 77.3308 15.6218C77.3429 15.5976 77.3731 15.5734 77.4155 15.531C77.5607 15.5734 77.7241 15.6157 77.9239 15.6702C77.9844 15.5007 78.0388 15.3433 78.1175 15.1375C78.2143 15.1375 78.3354 15.1194 78.4564 15.1375C80.3143 15.4947 82.0874 16.0758 83.6669 17.1533C85.9121 18.6788 87.2314 20.8097 87.776 23.449C88.1936 25.4588 88.1028 27.4625 87.7337 29.4723C87.6973 29.6539 87.6792 29.8355 87.6489 30.0716C87.8668 30.0171 88.0181 29.9869 88.1633 29.9445C90.2391 29.3573 92.3148 28.758 94.4329 28.3464C95.8732 28.0679 97.3256 27.8681 98.8022 27.9287C100.951 28.0134 102.833 28.7459 104.376 30.2774C105.374 31.2642 106.173 32.3962 106.803 33.6432C106.996 34.0246 107.051 34.4846 107.093 34.9205C107.202 35.992 106.984 37.0271 106.669 38.0441C106.228 39.4667 105.598 40.8045 104.981 42.1545C104.37 43.4863 103.753 44.818 103.172 46.1619C102.615 47.4332 102.361 48.7771 102.294 50.1633C102.197 52.2639 102.845 54.0739 104.358 55.557C105.138 56.3258 105.998 56.9857 106.899 57.6031C106.966 57.6455 107.039 57.6818 107.105 57.7121C107.129 57.7242 107.16 57.706 107.238 57.6939C107.184 57.5305 107.135 57.3731 107.075 57.2157C106.548 55.8234 106.161 54.3887 106.034 52.9056C105.719 49.225 106.875 46.0953 109.629 43.5952C110.591 42.7175 111.668 42.0032 112.848 41.4462C112.999 41.3736 113.157 41.3191 113.332 41.2525C113.435 41.4402 113.514 41.5855 113.605 41.761C113.774 41.6884 113.931 41.6278 114.192 41.5189C114.21 41.5552 114.228 41.6399 114.27 41.7065C115.299 43.4136 116.056 45.2297 116.267 47.2274C116.522 49.679 115.91 51.9249 114.488 53.9407C113.121 55.8779 111.323 57.3126 109.278 58.4688C109.126 58.5535 108.981 58.6383 108.769 58.7594C108.969 58.8986 109.12 59.0015 109.272 59.1044C110.978 60.2122 112.703 61.2958 114.379 62.446C115.596 63.2753 116.697 64.2439 117.647 65.3819C118.361 66.2355 118.936 67.1738 119.227 68.2634C119.541 69.4318 119.372 70.5819 119.081 71.72C118.579 73.6692 117.508 75.2855 116.11 76.7021C114.494 78.3365 112.6 79.5775 110.591 80.6611C109.913 81.0304 109.211 81.3633 108.521 81.7084C107.214 82.3682 106.034 83.2036 105.078 84.3235C103.843 85.7703 103.159 87.4532 102.923 89.3358C102.706 91.0671 102.893 92.7682 103.323 94.445C103.353 94.5721 103.414 94.6993 103.553 94.8324C103.619 94.6629 103.686 94.4934 103.74 94.3239C104.249 92.8348 104.902 91.4243 105.822 90.1409C107.607 87.6408 110.016 86.1274 113.06 85.6613C114.761 85.401 116.455 85.4979 118.131 85.9216C118.234 85.9458 118.337 85.9943 118.464 86.0427C118.44 86.2364 118.416 86.412 118.392 86.6117C118.573 86.6541 118.737 86.6965 118.948 86.751C118.912 87.0234 118.888 87.2837 118.845 87.5379C118.561 89.2632 118.053 90.9158 117.121 92.411C115.644 94.7961 113.49 96.2187 110.785 96.8483C109.017 97.2599 107.226 97.3083 105.429 97.0723C105.042 97.0178 104.654 96.9754 104.176 96.9209C104.261 97.1752 104.327 97.3628 104.388 97.5444C104.927 99.076 105.501 100.595 105.998 102.145C106.482 103.652 106.76 105.208 106.712 106.8C106.651 108.683 106.034 110.342 104.739 111.74C102.936 113.695 100.727 114.87 98.0881 115.215C96.7204 115.396 95.3527 115.342 93.9851 115.178C91.4978 114.876 89.1134 114.18 86.7533 113.381C85.0709 112.811 83.3522 112.43 81.5609 112.497C79.7515 112.569 78.0872 113.084 76.659 114.246C76.5259 114.349 76.4109 114.47 76.2838 114.585C76.2959 114.615 76.3081 114.652 76.3202 114.682C76.4775 114.664 76.6348 114.652 76.7922 114.615C78.1236 114.319 79.467 114.198 80.8287 114.24C84.2055 114.355 86.9953 115.669 89.1134 118.326C90.1785 119.664 90.929 121.165 91.401 122.806C91.4252 122.879 91.4434 122.957 91.4555 123.036C91.4615 123.066 91.4494 123.096 91.4373 123.169C91.2981 123.224 91.1408 123.284 90.9471 123.363C90.9895 123.532 91.0258 123.708 91.0802 123.92C90.9653 123.98 90.8442 124.053 90.7171 124.101C88.8532 124.852 86.9288 125.3 84.9075 125.179C83.2857 125.082 81.7848 124.592 80.4111 123.72C78.9768 122.806 77.8391 121.595 76.8951 120.191C76.1689 119.113 75.5879 117.957 75.128 116.746C75.0856 116.631 75.0372 116.51 74.9827 116.395C74.9706 116.371 74.9343 116.359 74.8496 116.304C74.7528 116.45 74.6499 116.595 74.5591 116.752C73.7905 118.096 73.3185 119.543 72.9978 121.044C72.6407 122.703 72.5136 124.386 72.4592 126.075C72.4531 126.262 72.441 126.45 72.4289 126.656C72.2353 126.692 72.0719 126.723 71.8843 126.753C71.8479 126.94 71.8177 127.122 71.7753 127.328C71.2307 127.328 70.7042 127.328 70.1474 127.328C70.1172 127.146 70.0869 126.965 70.0506 126.765C69.863 126.729 69.6814 126.698 69.4394 126.656C69.4394 126.408 69.4454 126.16 69.4394 125.911C69.3789 123.617 69.1428 121.341 68.3924 119.156C68.108 118.326 67.6965 117.533 67.3334 116.734C67.2668 116.583 67.1518 116.462 67.0066 116.25C66.8977 116.51 66.825 116.674 66.7585 116.849C65.9596 118.883 64.8703 120.736 63.3029 122.285C61.8384 123.732 60.1137 124.701 58.0743 125.052C56.4161 125.342 54.7761 125.197 53.1543 124.761C52.3615 124.549 51.5869 124.295 50.8183 123.938C50.8667 123.744 50.9151 123.569 50.9696 123.375C50.782 123.302 50.6125 123.236 50.4068 123.157C50.4976 122.854 50.5641 122.564 50.667 122.285C51.5263 119.821 52.9001 117.727 55.0424 116.195C56.5069 115.148 58.153 114.549 59.9443 114.337C61.669 114.131 63.3756 114.246 65.07 114.603C65.2637 114.621 65.4331 114.634 65.7055 114.67ZM26.3271 75.4429C26.4905 75.6306 26.5812 75.7577 26.6962 75.8546C27.1743 76.2904 27.6403 76.7384 28.1426 77.144C29.7765 78.4576 31.5981 79.4564 33.462 80.3947C34.2609 80.8003 35.0597 81.2301 35.7919 81.7447C38.4607 83.6394 39.9131 86.2606 40.2218 89.4993C40.4336 91.7451 40.1068 93.9426 39.3443 96.0613C38.848 97.4415 38.3094 98.8096 37.8132 100.184C37.1233 102.085 36.5121 104.01 36.4213 106.056C36.3547 107.509 36.5787 108.907 37.444 110.112C38.5757 111.692 40.0584 112.836 41.892 113.508C41.9949 113.544 42.116 113.544 42.243 113.568C42.2249 113.483 42.2309 113.453 42.2128 113.429C42.1281 113.314 42.0433 113.205 41.9526 113.09C40.8693 111.74 39.9737 110.275 39.3866 108.641C38.5273 106.237 38.4365 103.828 39.4108 101.431C40.2641 99.3242 41.7105 97.6776 43.4473 96.2671C43.4776 96.2429 43.5321 96.2429 43.6531 96.2066C43.7378 96.3216 43.8346 96.4608 43.9436 96.6182C44.1191 96.4608 44.2583 96.3398 44.4095 96.2066C44.5548 96.3337 44.6819 96.4427 44.8029 96.5638C45.4928 97.2417 46.0919 97.9924 46.6184 98.8036C47.6109 100.341 48.2645 102.006 48.446 103.828C48.6336 105.705 48.3189 107.509 47.5746 109.24C46.8847 110.85 45.9104 112.279 44.7666 113.598C44.6637 113.719 44.5669 113.853 44.4035 114.046C44.6637 114.083 44.815 114.113 44.9663 114.119C46.3461 114.186 47.7077 114.046 49.0633 113.804C50.9756 113.465 52.8335 112.914 54.6672 112.291C56.8216 111.564 59.0123 111.104 61.3059 111.377C62.6917 111.54 63.9807 111.958 65.1608 112.702C66.9642 113.835 68.1625 115.469 69.0037 117.388C69.9538 119.555 70.3653 121.843 70.5347 124.186C70.5831 124.828 70.6195 125.469 70.6558 126.129C70.8736 126.129 71.0552 126.129 71.273 126.129C71.2912 125.845 71.3154 125.597 71.3214 125.348C71.3517 123.859 71.5212 122.388 71.8177 120.935C72.1687 119.21 72.7073 117.545 73.609 116.026C75.4608 112.92 78.2083 111.359 81.8151 111.298C83.5822 111.268 85.2948 111.631 86.959 112.194C88.5869 112.745 90.227 113.259 91.9093 113.617C93.5312 113.962 95.1712 114.186 96.8354 114.125C97.0351 114.119 97.2288 114.077 97.4285 114.052C97.4164 113.968 97.4224 113.931 97.4043 113.907C97.3195 113.792 97.2288 113.683 97.138 113.574C96.0426 112.297 95.0986 110.923 94.4208 109.379C93.4828 107.236 93.1923 105.015 93.6885 102.72C94.2271 100.22 95.5282 98.1437 97.3498 96.3821C97.4164 96.3216 97.5011 96.2792 97.5737 96.2248C97.719 96.3579 97.84 96.479 97.9792 96.6061C98.1305 96.473 98.2636 96.3519 98.4149 96.2187C98.5299 96.3035 98.6328 96.37 98.7296 96.4487C99.5889 97.1752 100.376 97.9682 101.059 98.8641C103.25 101.758 103.795 104.936 102.645 108.386C102.058 110.16 101.096 111.728 99.9278 113.181C99.8371 113.296 99.7523 113.411 99.6252 113.58C99.7705 113.58 99.8128 113.592 99.8552 113.58C99.9883 113.538 100.128 113.502 100.261 113.447C101.683 112.89 102.875 112 103.904 110.88C104.981 109.712 105.483 108.32 105.526 106.746C105.568 105.214 105.284 103.725 104.805 102.278C104.188 100.426 103.51 98.5917 102.833 96.7575C101.937 94.3421 101.441 91.8783 101.737 89.2934C101.931 87.6408 102.427 86.0911 103.329 84.6806C104.491 82.8585 106.119 81.5691 108.031 80.6066C108.848 80.195 109.671 79.7894 110.47 79.3475C112.061 78.4697 113.568 77.4588 114.9 76.2057C115.033 76.0786 115.154 75.9393 115.348 75.7335C115.039 75.6911 114.827 75.6488 114.615 75.6306C113.478 75.5519 112.364 75.3521 111.275 75.0313C108.558 74.2322 106.324 72.7612 104.799 70.3277C103.589 68.3906 103.057 66.2537 102.984 63.9896C102.978 63.7233 102.984 63.463 102.984 63.1845C103.22 63.1542 103.402 63.13 103.595 63.1058C103.619 62.9 103.644 62.7184 103.662 62.5247C103.765 62.5126 103.837 62.5005 103.916 62.4883C105.193 62.337 106.464 62.3733 107.735 62.5792C110.797 63.0695 113.163 64.6071 114.785 67.2646C115.729 68.8082 116.267 70.4972 116.57 72.2709C116.655 72.7612 116.715 73.2576 116.788 73.754C116.957 73.6632 117.048 73.5482 117.121 73.421C117.575 72.6159 117.859 71.7563 118.071 70.8604C118.44 69.3046 118.101 67.9244 117.175 66.6592C116.649 65.9389 116.062 65.279 115.372 64.7221C114.403 63.9412 113.429 63.1542 112.394 62.4641C110.7 61.3382 108.951 60.2909 107.232 59.2073C105.865 58.3477 104.545 57.4276 103.42 56.2653C102.258 55.0667 101.477 53.6683 101.223 52.0036C101.029 50.7263 101.12 49.449 101.332 48.1838C101.55 46.9126 102.028 45.7261 102.554 44.5638C103.238 43.0565 103.952 41.5612 104.636 40.0479C105.181 38.8371 105.659 37.6022 105.883 36.2826C105.943 35.9375 105.98 35.5864 105.883 35.1324C105.707 35.3382 105.592 35.4593 105.483 35.5924C104.358 36.9484 103.099 38.1591 101.598 39.0974C99.4497 40.4474 97.1198 41.0285 94.5963 40.7259C92.3269 40.4534 90.2875 39.5636 88.4659 38.1834C88.4296 38.1592 88.4054 38.1107 88.363 38.0623C88.4659 37.9049 88.5688 37.7536 88.6777 37.5901C88.5143 37.469 88.363 37.3601 88.2057 37.2451C88.2541 37.1422 88.2904 37.0514 88.3388 36.9727C88.8714 36.0525 89.4705 35.1808 90.1785 34.3938C92.8776 31.3852 96.206 30.2835 100.164 31.1128C101.689 31.4337 103.117 32.0087 104.485 32.7473C104.63 32.826 104.775 32.8986 104.92 32.9713C104.939 32.8199 104.908 32.7352 104.854 32.6686C104.503 32.2206 104.164 31.7606 103.783 31.3429C102.403 29.8416 100.666 29.1394 98.6509 29.0849C97.4285 29.0486 96.2302 29.1999 95.032 29.4239C93.1862 29.7629 91.3768 30.2532 89.5734 30.7617C87.9697 31.2157 86.3599 31.6819 84.7381 32.0632C83.443 32.372 82.1116 32.4022 80.7863 32.1904C78.293 31.7908 76.3262 30.5256 74.8072 28.534C73.8692 27.3051 73.1914 25.937 72.6649 24.4902C71.7027 21.8448 71.273 19.0905 71.0612 16.2998C71.0491 16.1485 71.037 15.9911 71.0189 15.8397C70.9826 15.8397 70.9462 15.8458 70.9099 15.8458C70.8494 16.4693 70.795 17.0989 70.7284 17.7224C70.5105 19.8956 70.1111 22.0325 69.4031 24.1028C68.7737 25.937 67.9325 27.6623 66.6374 29.1333C64.7917 31.2399 62.4557 32.2691 59.6719 32.3114C58.3708 32.3296 57.1 32.1238 55.8473 31.7787C53.4629 31.1249 51.0906 30.4348 48.6942 29.8174C46.9392 29.3633 45.1479 29.0546 43.3202 29.097C41.2627 29.1394 39.5016 29.8597 38.1097 31.3913C37.7527 31.7848 37.4319 32.2206 37.0991 32.6444C37.0386 32.7231 37.0144 32.826 36.972 32.9107C37.1657 32.8986 37.2988 32.832 37.4319 32.7594C39.2777 31.7484 41.2264 31.0462 43.3323 30.8767C45.6562 30.6891 47.8106 31.2339 49.735 32.5899C51.3932 33.7582 52.6217 35.3079 53.6202 37.0574C53.6565 37.1179 53.6626 37.2027 53.6807 37.2693C53.5295 37.3843 53.3963 37.4872 53.245 37.6022C53.354 37.7717 53.4568 37.9291 53.5718 38.1047C53.3903 38.2439 53.2269 38.371 53.0635 38.486C52.1557 39.1217 51.1814 39.6362 50.1466 40.0297C48.095 40.8106 45.989 41.0285 43.8346 40.5564C42.0736 40.1689 40.5244 39.3517 39.1204 38.2439C38.1097 37.4509 37.2262 36.5307 36.4032 35.544C36.3003 35.4229 36.2337 35.2353 36.0037 35.2353C35.9916 35.3261 35.9674 35.4048 35.9674 35.4774C35.9735 35.6348 35.9856 35.7922 36.0037 35.9496C36.155 37.2027 36.5665 38.3771 37.0688 39.5151C37.795 41.1435 38.5394 42.7598 39.2959 44.3761C40.2762 46.4767 40.8996 48.656 40.7906 51.0048C40.7483 51.9431 40.5849 52.8511 40.2278 53.7228C39.6771 55.0728 38.7512 56.1382 37.668 57.0765C36.6029 58.0027 35.4288 58.7715 34.2366 59.51C32.6693 60.4846 31.0958 61.4532 29.5466 62.4581C28.197 63.3358 26.908 64.3044 25.7764 65.4606C25.2015 66.0478 24.681 66.6835 24.2877 67.4099C23.8822 68.1666 23.6704 68.9596 23.7309 69.8192C23.8277 71.151 24.215 72.3859 24.8807 73.5421C24.9231 73.6208 24.9594 73.6995 25.0018 73.7843C25.0441 73.76 25.0865 73.7358 25.1349 73.7116C25.1894 73.2939 25.2438 72.8762 25.2983 72.4646C25.5343 70.7333 26.0063 69.0686 26.8294 67.5188C27.9913 65.3335 29.6858 63.7354 32.0217 62.8395C33.0626 62.4399 34.1398 62.2159 35.2412 62.1372C36.0582 62.0828 36.8812 62.1191 37.7043 62.1312C37.904 62.1312 38.1037 62.1978 38.2913 62.228C38.3094 62.446 38.3276 62.6276 38.3457 62.8152C38.5455 62.8152 38.6967 62.8152 38.8904 62.8152C38.9025 63.0513 38.9267 63.2693 38.9267 63.4811C38.9267 64.4497 38.8238 65.4001 38.606 66.3445C37.7587 70.0008 35.683 72.6522 32.2154 74.1656C30.6238 74.8618 28.9475 75.2068 27.2227 75.334C26.9686 75.3642 26.6962 75.4006 26.3271 75.4429ZM109.29 56.9191C109.32 56.9372 109.356 56.9615 109.387 56.9796C109.441 56.9554 109.508 56.9433 109.556 56.913C111.353 55.775 112.903 54.3887 113.992 52.5424C114.821 51.138 115.22 49.6185 115.166 47.9841C115.112 46.4949 114.694 45.1026 114.065 43.7587C113.998 43.6255 113.919 43.4984 113.841 43.3652C113.804 43.3652 113.762 43.3652 113.726 43.3652C112.243 47.8811 110.76 52.3971 109.29 56.9191ZM43.3444 98.1074C43.3021 98.0953 43.2658 98.0892 43.2234 98.0771C43.1387 98.1437 43.054 98.2103 42.9753 98.283C42.243 99.0094 41.6016 99.8024 41.0811 100.698C40.0705 102.436 39.6711 104.3 39.9858 106.292C40.3368 108.513 41.3655 110.432 42.7332 112.182C42.7937 112.255 42.8906 112.297 43.0298 112.4C43.1447 107.587 43.2658 102.847 43.3444 98.1074ZM86.5294 28.8972C86.6322 28.7883 86.6564 28.7701 86.6686 28.7459C86.6867 28.7035 86.6928 28.6551 86.7049 28.6067C86.953 27.0388 86.9832 25.4649 86.6928 23.897C86.2994 21.8146 85.3795 20.0227 83.7274 18.6546C82.5171 17.6497 81.1131 17.0262 79.6123 16.6085C79.5154 16.5843 79.4065 16.6025 79.2129 16.6025C81.6638 20.7249 84.0845 24.7929 86.5294 28.8972ZM62.728 16.6691C62.7099 16.6327 62.6917 16.6025 62.6675 16.5662C62.5344 16.5904 62.3891 16.5964 62.2681 16.6388C61.5903 16.887 60.8883 17.0928 60.2408 17.4015C57.7535 18.5699 56.1438 20.4889 55.4418 23.1524C55.0424 24.684 55.0121 26.2337 55.1513 27.8015C55.1816 28.1587 55.2542 28.5098 55.3087 28.8609C55.351 28.873 55.3934 28.8851 55.4357 28.8972C57.8685 24.8232 60.2953 20.7431 62.728 16.6691ZM76.5925 116.825C76.5622 116.934 76.5441 116.97 76.5501 116.994C76.5622 117.055 76.5864 117.116 76.6106 117.17C77.2763 118.665 78.1296 120.039 79.2673 121.226C80.3445 122.346 81.6033 123.193 83.1102 123.641C85.1677 124.253 87.1951 124.035 89.1982 123.381C89.2466 123.363 89.2829 123.302 89.3737 123.218C85.0951 121.081 80.8589 118.962 76.5925 116.825ZM32.6329 56.9978C32.6148 56.8464 32.6148 56.7375 32.5845 56.6406C31.1382 52.2155 29.6918 47.7903 28.2092 43.2683C28.0821 43.4621 27.9973 43.5589 27.9489 43.6679C27.7613 44.1037 27.5616 44.5335 27.4043 44.9754C26.4239 47.7419 26.5933 50.3994 28.2031 52.9056C29.2743 54.5703 30.7267 55.8416 32.3788 56.9009C32.4393 56.9372 32.518 56.9554 32.6329 56.9978ZM98.6328 98.0106C98.6328 98.3193 98.6267 98.519 98.6328 98.7188C98.6812 100.753 98.7296 102.793 98.7719 104.827C98.8143 106.988 98.8506 109.149 98.893 111.316C98.899 111.57 98.899 111.825 98.9172 112.073C98.9232 112.17 98.9656 112.261 99.014 112.412C99.135 112.285 99.2137 112.212 99.2742 112.127C100.224 110.892 101.011 109.573 101.519 108.096C102.064 106.516 102.24 104.899 101.883 103.253C101.447 101.237 100.345 99.6147 98.899 98.1922C98.8627 98.1437 98.8022 98.1195 98.6328 98.0106ZM26.4179 73.185C26.4602 73.2031 26.5026 73.2152 26.5449 73.2334C26.672 73.1184 26.7991 73.0094 26.9201 72.8883C28.4391 71.4415 29.9581 69.9887 31.4771 68.5419C33.1413 66.9498 34.8116 65.3638 36.4758 63.7656C36.6029 63.6446 36.7844 63.5477 36.8086 63.3177C36.6936 63.3056 36.6029 63.2935 36.5121 63.2874C35.7193 63.2693 34.9386 63.3298 34.158 63.4751C31.6526 63.9412 29.6858 65.2064 28.312 67.3615C27.3256 68.9051 26.7991 70.6122 26.5147 72.4041C26.4663 72.6644 26.4481 72.9307 26.4179 73.185ZM117.538 87.8648C113.484 90.5344 109.514 93.1435 105.465 95.8071C105.677 95.8736 105.774 95.9221 105.877 95.9342C107.359 96.0916 108.836 96.0492 110.294 95.7405C112.394 95.2986 114.198 94.33 115.547 92.6168C116.582 91.3032 117.187 89.7898 117.538 88.1675C117.55 88.113 117.538 88.0525 117.538 87.8648ZM115.547 73.5421C115.547 73.421 115.553 73.3424 115.547 73.2697C115.408 72.1195 115.16 70.9996 114.761 69.916C114.161 68.2695 113.284 66.8106 111.928 65.6725C110.01 64.0744 107.747 63.5477 105.314 63.5961C105.265 63.5961 105.211 63.6446 105.096 63.6991C108.527 66.9619 111.922 70.1945 115.317 73.421C115.36 73.4695 115.438 73.4876 115.547 73.5421ZM24.4268 87.8588C24.451 88.1009 24.445 88.222 24.4753 88.3309C24.6387 88.906 24.7839 89.4872 24.9957 90.0501C26.0063 92.7319 27.8461 94.5842 30.5996 95.462C32.3969 96.0371 34.2427 96.1218 36.1127 95.9342C36.2034 95.9221 36.2882 95.8555 36.4516 95.7828C32.4332 93.1253 28.4815 90.5163 24.4268 87.8588ZM52.0105 36.7426C51.9016 36.5429 51.8652 36.4278 51.7926 36.337C51.4114 35.8527 51.0483 35.3564 50.6307 34.9084C48.4642 32.602 45.8075 31.6698 42.6727 32.148C41.069 32.3901 39.5682 32.9652 38.146 33.734C38.0674 33.7764 38.0008 33.8369 37.8919 33.9156C37.9947 33.9762 38.0553 34.0306 38.1218 34.0427C42.7211 34.9387 47.3144 35.8346 52.0105 36.7426ZM104.043 33.9338C104.013 33.8853 104.001 33.8551 103.982 33.8369C103.916 33.7945 103.849 33.7522 103.783 33.7158C102.252 32.9047 100.654 32.3235 98.9232 32.1056C97.2167 31.8937 95.5948 32.1177 94.0456 32.8744C92.3935 33.6735 91.1529 34.9326 90.118 36.4157C90.0696 36.4884 90.0515 36.5792 89.9909 36.7426C94.6568 35.8346 99.2561 34.9387 103.855 34.0427C103.916 34.0246 103.976 33.9701 104.043 33.9338ZM65.4453 116.898C65.0095 116.976 52.9364 123.012 52.6459 123.284C52.6641 123.308 52.6762 123.345 52.7004 123.357C52.773 123.393 52.8456 123.417 52.9182 123.441C53.7594 123.72 54.6248 123.902 55.5023 123.974C58.1287 124.192 60.4163 123.405 62.3407 121.589C63.66 120.348 64.6101 118.847 65.3545 117.212C65.3968 117.116 65.415 117.013 65.4453 116.898ZM77.2884 115.717C77.2824 115.747 77.2763 115.778 77.2642 115.808C77.4095 115.893 77.5486 115.977 77.6939 116.05C79.7212 117.067 81.7546 118.084 83.7819 119.101C85.6579 120.039 87.534 120.978 89.41 121.91C89.5492 121.983 89.6884 122.128 89.9244 122.001C89.7005 121.535 89.5007 121.075 89.2587 120.633C87.9697 118.296 86.1239 116.619 83.5398 115.832C81.7667 115.293 79.9633 115.299 78.1538 115.548C77.8633 115.59 77.5789 115.663 77.2884 115.717ZM112.527 42.9838C112.394 43.0444 112.304 43.0746 112.225 43.1231C110.869 43.9645 109.695 45.0057 108.794 46.3314C107.886 47.6632 107.353 49.1342 107.22 50.7384C107.069 52.5605 107.347 54.3282 107.94 56.0474C107.983 56.1745 108.043 56.3016 108.11 56.453C108.34 56.1019 112.473 43.5044 112.527 42.9838ZM104.945 94.7114C105.15 94.5903 105.296 94.5055 105.435 94.4147C106.778 93.5309 108.122 92.6471 109.465 91.7633C111.771 90.2499 114.071 88.7305 116.376 87.211C116.509 87.1202 116.697 87.0718 116.733 86.8539C116.655 86.8297 116.6 86.8054 116.54 86.7994C115.517 86.6662 114.5 86.6541 113.478 86.7873C111.432 87.0476 109.635 87.8527 108.134 89.2692C106.621 90.6979 105.665 92.4776 104.969 94.4147C104.939 94.4813 104.951 94.56 104.945 94.7114ZM104.267 64.6676C104.255 64.7524 104.231 64.825 104.243 64.8977C104.315 65.3819 104.364 65.8662 104.467 66.3445C105.163 69.4499 106.869 71.7866 109.762 73.1971C110.972 73.7903 112.267 74.1293 113.593 74.3351C113.877 74.3775 114.167 74.3957 114.494 74.432C114.276 74.0385 104.672 64.8856 104.267 64.6676ZM97.3438 98.0892C97.2348 98.2285 97.1804 98.3011 97.1259 98.3798C96.7023 99.0094 96.2302 99.6087 95.8732 100.269C94.8141 102.212 94.3966 104.276 94.7899 106.486C95.1651 108.61 96.1697 110.432 97.4829 112.103C97.5253 112.158 97.5979 112.182 97.6645 112.23C97.7734 111.801 97.5071 98.6341 97.3438 98.0892ZM78.2688 17.3289C78.2264 17.335 78.1841 17.335 78.1417 17.341C78.1054 17.4742 78.063 17.6074 78.0449 17.7405C77.9057 18.6788 77.8512 19.6232 77.9299 20.5736C78.0751 22.3291 78.6259 23.9333 79.6607 25.362C81.0707 27.3051 83.0194 28.528 85.204 29.4118C85.2525 29.4299 85.319 29.4057 85.4522 29.3997C83.0375 25.3377 80.6532 21.3303 78.2688 17.3289ZM44.585 98.1135C44.4519 98.8036 44.2038 111.909 44.3006 112.218C44.3309 112.212 44.3672 112.212 44.3853 112.194C44.4398 112.14 44.4943 112.079 44.5427 112.018C45.4323 110.88 46.1766 109.658 46.685 108.302C47.2599 106.764 47.4596 105.184 47.2236 103.556C46.9452 101.612 46.0859 99.9295 44.8816 98.404C44.815 98.3193 44.7242 98.2466 44.585 98.1135ZM33.7404 56.3864C33.7949 56.3864 33.8433 56.3864 33.8977 56.3864C34.5271 54.6853 34.8842 52.9298 34.7813 51.1016C34.6542 48.8497 33.813 46.8823 32.294 45.2115C31.3681 44.1945 29.9702 43.1352 29.3832 43.0444C30.8416 47.5119 32.288 51.9491 33.7404 56.3864ZM37.668 64.2923C37.5046 64.4376 37.3775 64.5466 37.2564 64.6616C35.7617 66.0902 34.2609 67.5128 32.7661 68.9414C31.12 70.5093 29.474 72.0772 27.8339 73.6511C27.7069 73.7722 27.5919 73.9114 27.4466 74.0809C27.5737 74.1051 27.6221 74.1354 27.6645 74.1233C28.4875 73.9719 29.3166 73.863 30.1215 73.6571C31.8402 73.2092 33.3955 72.4283 34.6905 71.1873C36.391 69.5589 37.2867 67.5309 37.6377 65.2367C37.6801 64.9521 37.795 64.6616 37.668 64.2923ZM25.262 86.9023C26.1939 87.6106 27.1683 88.2401 28.1305 88.8757C29.1169 89.5295 30.1033 90.1773 31.0958 90.831C32.0701 91.4727 33.0445 92.1204 34.0188 92.7561C34.9992 93.3917 35.9493 94.0818 37.0567 94.7174C36.9962 94.4813 36.9781 94.3603 36.9357 94.2513C36.506 93.0769 35.9674 91.957 35.2473 90.9279C34.1459 89.3479 32.7419 88.1493 30.9506 87.4168C29.9944 87.0294 28.9959 86.7994 27.9731 86.7267C27.0714 86.6662 26.1758 86.648 25.262 86.9023ZM90.3056 37.9775C90.8926 38.3771 91.4797 38.6374 92.0788 38.8735C94.3482 39.7633 96.6418 39.9147 98.9596 39.0853C101.005 38.3529 102.639 37.0392 104.067 35.4351C104.103 35.3927 104.122 35.3321 104.158 35.2716C103.71 35.2353 90.705 37.7657 90.3056 37.9775ZM63.8537 17.2805C63.4966 17.6195 56.7187 28.982 56.5856 29.436C56.7429 29.3876 56.876 29.3633 56.9971 29.3149C58.0924 28.8549 59.1333 28.2979 60.0835 27.5836C61.5419 26.494 62.6736 25.138 63.3635 23.443C64.011 21.857 64.1683 20.2043 64.0292 18.5154C63.9989 18.128 63.9263 17.7405 63.8537 17.2805ZM37.8011 35.2716C37.8677 35.3745 37.9161 35.4714 37.9887 35.544C38.9388 36.5913 39.9858 37.5114 41.2021 38.2378C42.7816 39.1822 44.4882 39.6786 46.3279 39.6302C48.0708 39.5817 49.7048 39.0732 51.2359 38.2378C51.369 38.1652 51.49 38.0744 51.6413 37.9836C51.2722 37.7717 38.3034 35.2353 37.8011 35.2716ZM64.7251 115.729C64.4951 115.675 64.3317 115.632 64.1623 115.602C63.1638 115.421 62.1592 115.378 61.1485 115.402C59.563 115.445 58.0622 115.808 56.6703 116.571C54.5038 117.757 53.0816 119.597 52.1194 121.831C52.0892 121.898 52.0892 121.977 52.077 122.061C52.4946 121.983 64.3559 116.056 64.7251 115.729Z" fill="#005BBB"/>
<path d="M31.6279 36.8969C32.8685 36.8364 34.0002 37.9381 33.9881 39.2699C33.976 40.5714 32.9411 41.6066 31.634 41.6005C30.3147 41.6005 29.3041 40.5835 29.2738 39.276C29.2496 37.92 30.4236 36.8424 31.6279 36.8969ZM31.6219 40.7106C32.463 40.7167 33.0985 40.0992 33.1045 39.2699C33.1106 38.4345 32.4449 37.7384 31.6279 37.7444C30.817 37.7444 30.121 38.4527 30.1271 39.2638C30.1392 40.069 30.7988 40.7106 31.6219 40.7106Z" fill="#005BBB"/>
<path d="M50.4814 118.766C50.4753 120.061 49.4223 121.096 48.1273 121.096C46.808 121.09 45.7732 120.031 45.7853 118.705C45.7974 117.404 46.8322 116.387 48.1454 116.387C49.4647 116.381 50.4874 117.422 50.4814 118.766ZM48.1152 120.207C48.9442 120.213 49.5918 119.589 49.616 118.772C49.6402 117.955 48.9564 117.24 48.1454 117.234C47.3345 117.228 46.6386 117.924 46.6386 118.742C46.6446 119.553 47.2921 120.2 48.1152 120.207Z" fill="#005BBB"/>
<path d="M68.4872 124.646C68.5356 125.899 67.4221 127.001 66.1573 127.001C64.9772 127.001 63.8153 126.057 63.7971 124.664C63.7789 123.351 64.8501 122.285 66.1633 122.285C67.4644 122.291 68.4872 123.326 68.4872 124.646ZM64.6746 124.664C64.6807 125.475 65.3584 126.147 66.1573 126.135C66.9621 126.123 67.6339 125.445 67.6339 124.646C67.6339 123.817 66.9621 123.157 66.1149 123.169C65.2919 123.175 64.6685 123.829 64.6746 124.664Z" fill="#005BBB"/>
<path d="M119.348 81.5012C119.348 82.8209 118.289 83.8682 116.976 83.8621C115.687 83.8561 114.652 82.8088 114.652 81.5012C114.652 80.1634 115.687 79.1403 117.025 79.1525C118.332 79.1646 119.348 80.1876 119.348 81.5012ZM117 82.9783C117.836 82.9722 118.501 82.2942 118.489 81.4649C118.477 80.6719 117.781 79.9999 116.988 79.9999C116.183 79.9999 115.518 80.6658 115.518 81.477C115.512 82.3306 116.159 82.9843 117 82.9783Z" fill="#005BBB"/>
<path d="M94.2321 23.2044C94.2442 24.2941 93.4332 25.5653 91.8416 25.5593C90.3832 25.5532 89.5057 24.3667 89.5117 23.1984C89.5178 22.0543 90.3832 20.8738 91.8538 20.8254C93.1367 20.783 94.2321 21.9029 94.2321 23.2044ZM93.3485 23.1863C93.3425 22.3569 92.6526 21.685 91.8295 21.7031C91.0428 21.7213 90.359 22.4235 90.365 23.2105C90.3711 24.0035 91.0489 24.6754 91.8538 24.6815C92.6949 24.6936 93.3606 24.0277 93.3485 23.1863Z" fill="#005BBB"/>
<path d="M33.5225 101.51C33.5165 102.805 32.4574 103.859 31.1684 103.846C29.8552 103.834 28.8143 102.769 28.8203 101.449C28.8264 100.148 29.8612 99.1428 31.1805 99.1367C32.524 99.1307 33.5346 100.154 33.5225 101.51ZM31.1866 99.9842C30.3635 99.9842 29.6736 100.674 29.6857 101.492C29.6978 102.297 30.3514 102.95 31.1684 102.957C32.0035 102.963 32.6753 102.297 32.6632 101.461C32.6511 100.644 31.9914 99.9842 31.1866 99.9842Z" fill="#005BBB"/>
<path d="M52.4587 23.2249C52.4466 24.357 51.6236 25.5616 50.0986 25.5616C48.6159 25.5616 47.7263 24.3751 47.7384 23.1826C47.7505 22.0627 48.5977 20.8398 50.0986 20.8398C51.666 20.8398 52.4527 22.099 52.4587 23.2249ZM51.5752 23.237C51.5812 22.3896 50.9276 21.7055 50.1046 21.7055C49.2937 21.7055 48.5917 22.4077 48.5917 23.2189C48.5977 24.018 49.2695 24.6838 50.0865 24.6899C50.9095 24.696 51.5691 24.0543 51.5752 23.237Z" fill="#005BBB"/>
<path d="M93.823 121.089C92.5339 121.083 91.4567 120.024 91.4689 118.734C91.487 117.275 92.6792 116.361 93.8532 116.367C94.9728 116.367 96.1892 117.233 96.1892 118.722C96.1892 120.32 94.9002 121.119 93.823 121.089ZM93.829 120.205C94.6581 120.211 95.3117 119.582 95.3238 118.758C95.3359 117.929 94.652 117.227 93.8411 117.227C93.0241 117.233 92.3342 117.929 92.3403 118.746C92.3463 119.557 93.006 120.199 93.829 120.205Z" fill="#005BBB"/>
<path d="M24.8407 55.8417C26.1418 55.8054 27.1766 56.9313 27.1766 58.1844C27.1766 59.2135 26.4323 60.4969 24.8346 60.5393C23.5274 60.5756 22.4865 59.4799 22.4805 58.1542C22.4744 56.9374 23.5032 55.7872 24.8407 55.8417ZM23.364 58.1663C23.358 59.0017 23.9813 59.6494 24.8043 59.6554C25.6455 59.6675 26.2991 59.0138 26.2991 58.1663C26.2991 57.349 25.6395 56.6892 24.8346 56.6831C24.0176 56.6831 23.3701 57.343 23.364 58.1663Z" fill="#005BBB"/>
<path d="M117.169 55.8424C118.337 55.8 119.499 56.7807 119.511 58.179C119.523 59.4805 118.422 60.5762 117.127 60.5399C115.753 60.5036 114.803 59.4321 114.797 58.1851C114.785 56.817 115.935 55.7818 117.169 55.8424ZM118.634 58.179C118.634 57.3739 117.98 56.708 117.169 56.6899C116.358 56.6717 115.65 57.3679 115.65 58.179C115.65 58.9842 116.316 59.6501 117.121 59.6561C117.962 59.6682 118.628 59.0084 118.634 58.179Z" fill="#005BBB"/>
<path d="M110.853 99.1355C111.979 99.1173 113.153 100.043 113.147 101.478C113.135 102.883 112.058 103.839 110.751 103.833C109.455 103.827 108.39 102.719 108.427 101.448C108.463 100.062 109.589 99.0749 110.853 99.1355ZM110.793 99.983C109.976 99.989 109.286 100.679 109.298 101.496C109.31 102.295 109.982 102.955 110.787 102.955C111.61 102.955 112.294 102.271 112.282 101.454C112.269 100.655 111.586 99.9769 110.793 99.983Z" fill="#005BBB"/>
<path d="M75.8088 126.989C74.774 127.043 73.491 126.178 73.4729 124.64C73.4547 123.333 74.5501 122.273 75.8572 122.285C77.1402 122.297 78.2113 123.357 78.1932 124.646C78.175 126.178 76.886 127.055 75.8088 126.989ZM77.3278 124.628C77.3217 123.805 76.6379 123.157 75.7967 123.169C74.9858 123.181 74.3383 123.847 74.3443 124.658C74.3504 125.451 75.0342 126.135 75.8209 126.141C76.6379 126.135 77.3339 125.439 77.3278 124.628Z" fill="#005BBB"/>
<path d="M110.361 36.8977C111.432 36.8371 112.672 37.7512 112.697 39.2464C112.715 40.5601 111.644 41.6073 110.318 41.6013C109.011 41.5952 107.994 40.554 107.988 39.2525C107.976 37.8299 109.205 36.8311 110.361 36.8977ZM110.312 40.7114C111.135 40.778 111.819 40.0334 111.819 39.2888C111.819 38.4534 111.166 37.7573 110.355 37.7452C109.55 37.7331 108.842 38.4353 108.836 39.2464C108.83 40.0516 109.489 40.7053 110.312 40.7114Z" fill="#005BBB"/>
<path d="M24.9645 79.1524C26.2838 79.1463 27.3065 80.1573 27.3126 81.4769C27.3186 82.7906 26.2959 83.8499 25.0129 83.862C23.6936 83.8742 22.6467 82.8329 22.6407 81.5012C22.6346 80.1754 23.6452 79.1584 24.9645 79.1524ZM24.9766 82.9782C25.7936 82.9782 26.4532 82.3305 26.4593 81.5133C26.4714 80.7142 25.7996 80.0241 25.0008 80.0059C24.1959 79.9878 23.4758 80.7021 23.4879 81.5133C23.506 82.3244 24.1596 82.9782 24.9766 82.9782Z" fill="#005BBB"/>
<path d="M49.4467 44.0555C49.6585 44.1342 49.8642 44.2008 50.0579 44.2855C54.7722 46.4467 58.2095 49.8851 60.3397 54.6129C61.3383 56.8345 61.9253 59.1712 62.131 61.5926C62.2279 62.7246 62.2884 63.8627 62.2944 64.9947C62.3126 68.9598 62.3005 72.9188 62.3005 76.8839C62.3005 77.0715 62.3005 77.2531 62.3005 77.4771C62.1008 77.4892 61.9434 77.5013 61.7921 77.5134C60.6665 77.5921 59.9464 78.597 60.2368 79.6927C60.3216 80.0136 60.5152 80.2557 60.7815 80.4434C61.2475 80.7763 61.7861 80.8792 62.3428 80.9337C62.5789 80.9579 62.6636 80.7581 62.7544 80.6008C63.3474 79.5414 63.9828 78.5002 64.5214 77.4166C65.7076 75.0194 66.5851 72.5011 67.0571 69.8618C67.2871 68.5724 67.4202 67.2648 67.3899 65.9512C67.3234 63.4087 67.275 60.8723 67.1721 58.3298C67.1055 56.7195 66.9542 55.1153 66.8453 53.5111C66.7666 52.3428 66.8271 51.1745 66.9361 50.0122C67.1237 48.063 67.3839 46.1258 67.7591 44.2068C68.098 42.4574 68.5035 40.72 69.1752 39.0613C69.3386 38.6557 69.5383 38.2562 69.7501 37.8688C69.9014 37.5782 70.0951 37.3058 70.2645 37.0273C70.4461 37.0273 70.5973 37.0273 70.7789 37.0273C71.3478 37.778 71.7472 38.6315 72.0679 39.5214C72.6731 41.1861 73.0906 42.9053 73.3751 44.6488C73.6656 46.4043 73.8955 48.1719 74.1194 49.9396C74.3373 51.6406 74.2526 53.3416 74.1194 55.0427C74.0347 56.1142 73.9258 57.1796 73.8834 58.2511C73.7926 60.6301 73.7382 63.0152 73.6595 65.4003C73.5445 68.869 74.3191 72.1621 75.6082 75.3584C76.3404 77.1623 77.2179 78.8876 78.2346 80.5463C78.4282 80.8611 78.64 81.0063 79.0032 80.8913C79.3481 80.7824 79.7112 80.7218 80.0319 80.5705C80.6129 80.2981 80.9034 79.8077 80.861 79.154C80.8187 78.4699 80.5524 77.919 79.8806 77.6708C79.5478 77.5498 79.1786 77.5134 78.7732 77.4287C78.7671 77.3439 78.7429 77.2108 78.7429 77.0715C78.7429 72.6827 78.7066 68.2939 78.755 63.9051C78.7974 60.1277 79.5902 56.5076 81.4057 53.1661C83.5843 49.1647 86.7675 46.2287 90.9008 44.3219C91.0884 44.2371 91.282 44.1705 91.4696 44.0979C91.512 44.0797 91.5604 44.0858 91.633 44.0797C91.633 60.951 91.633 77.804 91.633 94.7297C91.4575 94.7358 91.276 94.7479 91.0944 94.7479C87.3666 94.7479 83.6448 94.76 79.917 94.7358C79.4207 94.7358 79.1665 94.8811 78.9426 95.329C78.5251 96.1765 78.0409 96.9937 77.5568 97.8049C76.9093 98.8885 76.1589 99.9055 75.2995 100.844C73.6958 102.605 72.4673 104.591 71.8137 106.903C71.6745 107.388 71.5838 107.884 71.4567 108.374C71.3054 108.974 70.9968 109.192 70.3976 109.149C69.9982 109.119 69.7077 108.943 69.6049 108.532C69.508 108.132 69.4173 107.733 69.3144 107.339C68.7153 105.015 67.5897 102.963 65.992 101.195C64.3641 99.397 63.0993 97.3751 62.016 95.2261C61.8345 94.8629 61.6227 94.7418 61.2172 94.7418C57.4773 94.76 53.7373 94.7539 49.9913 94.7539C49.8037 94.7539 49.6161 94.7539 49.4467 94.7539C49.3741 94.3665 49.3498 44.6548 49.4467 44.0555ZM54.8145 77.574C55.2624 76.3875 56.0551 75.5037 57.0113 74.753C57.211 74.5956 57.4107 74.4382 57.6346 74.3293C57.919 74.184 58.0643 73.9842 58.0582 73.6634C58.0582 73.5665 58.0824 73.4757 58.0824 73.3789C58.1551 71.5023 58.2519 69.6257 58.2821 67.7491C58.3245 65.3156 58.1974 62.8941 57.6225 60.5151C57.1928 58.7293 56.6421 56.9859 55.7041 55.3998C55.3773 54.8429 54.9658 54.3405 54.5846 53.8199C54.4877 53.6927 54.3849 53.5414 54.1428 53.5293C54.1307 53.7351 54.1125 53.9167 54.1125 54.1044C54.1125 55.8115 54.1125 57.5125 54.1125 59.2196C54.1125 65.1037 54.1125 70.9877 54.1125 76.8778C54.1125 77.1079 54.1367 77.3379 54.1549 77.574C54.4212 77.574 54.6148 77.574 54.8145 77.574ZM86.8825 53.5596C86.8461 53.5414 86.8038 53.5233 86.7675 53.499C86.5496 53.7412 86.3136 53.9712 86.1139 54.2255C85.3695 55.1759 84.8249 56.2473 84.3952 57.3672C83.4814 59.7584 82.9912 62.2282 82.846 64.7889C82.6886 67.6341 82.8157 70.4671 82.9731 73.3002C83.0033 73.8147 83.1546 74.1719 83.6387 74.4746C84.6978 75.1344 85.5269 76.0485 86.0776 77.1805C86.3075 77.6466 86.3196 77.6708 86.8764 77.5256C86.8825 69.5409 86.8825 61.5503 86.8825 53.5596ZM54.2033 90.577C54.6935 90.6799 60.6363 90.6557 61.0115 90.5467C61.0115 89.0031 61.0115 87.4473 61.0115 85.8794C60.8299 85.8371 60.6786 85.7947 60.5273 85.7705C58.2337 85.3467 56.2851 84.3721 55.0082 82.326C54.8024 81.9991 54.5604 81.8659 54.1912 81.9931C54.0823 82.4471 54.0944 90.1835 54.2033 90.577ZM86.8764 90.6012C86.8764 87.6955 86.8764 84.8503 86.8764 82.0173C86.4588 81.8478 86.2289 82.0173 86.0352 82.3442C85.4845 83.2704 84.7402 84.0028 83.8203 84.5658C82.967 85.0864 82.0411 85.4436 81.0668 85.6676C80.7339 85.7463 80.395 85.8068 80.0743 85.8794C79.9835 86.4364 80.0017 90.2198 80.0985 90.6073C82.3376 90.6012 84.5828 90.6012 86.8764 90.6012ZM70.5308 74.6743C70.3311 75.1283 70.1858 75.4734 70.0285 75.8185C69.3931 77.2108 68.7455 78.591 68.1283 79.9893C67.9285 80.4494 67.8257 80.9458 67.6744 81.424C67.5836 81.6904 67.6865 81.878 67.8922 82.0415C68.2977 82.3623 68.7032 82.6892 69.1147 83.0161C69.6351 83.4278 70.1737 83.8152 70.5308 84.4387C70.8636 83.8576 71.3599 83.4944 71.8379 83.113C72.2737 82.774 72.6973 82.4229 73.133 82.0778C73.3509 81.9083 73.4659 81.7086 73.3751 81.424C73.2117 80.9155 73.0967 80.3889 72.8849 79.9046C72.2616 78.476 71.6019 77.0655 70.9544 75.6429C70.8213 75.3523 70.7002 75.0678 70.5308 74.6743ZM75.1966 90.6012C75.3298 90.123 75.3237 87.3323 75.1785 86.9025C74.4765 86.9388 73.9318 87.2597 73.5203 87.8166C73.1209 88.3614 72.9212 88.991 72.8244 89.6508C72.782 89.9535 72.667 90.2622 72.8002 90.6012C73.6171 90.6012 74.4099 90.6012 75.1966 90.6012ZM65.8286 90.6315C66.6093 90.6315 67.3294 90.6315 68.0496 90.6315C68.2553 90.6315 68.328 90.5044 68.3098 90.3227C68.2372 89.451 68.0919 88.6035 67.5836 87.865C67.2447 87.3747 66.7908 87.0659 66.2099 86.9388C66.0949 86.9146 65.9739 86.9328 65.8347 86.9328C65.8286 88.1616 65.8286 89.3542 65.8286 90.6315ZM72.4552 97.4296C73.3932 97.2662 74.7246 95.7891 74.894 94.7842C74.4644 94.645 72.8607 94.6571 72.4673 94.8145C72.4431 95.6741 72.4552 96.5458 72.4552 97.4296ZM66.1251 94.7358C66.4882 95.9828 67.8196 97.3933 68.5821 97.3933C68.5821 96.5216 68.5821 95.6438 68.5821 94.7176C67.753 94.6873 66.9663 94.6692 66.1251 94.7358Z" fill="#005BBB"/>
<path d="M106.882 79.8954C105.617 79.956 104.516 78.8784 104.516 77.5951C104.516 76.2512 105.532 75.216 106.846 75.1918C108.062 75.1676 109.218 76.1967 109.212 77.5588C109.2 78.8724 108.195 79.8894 106.882 79.8954ZM108.328 77.5769C108.334 76.7355 107.717 76.0878 106.894 76.0756C106.041 76.0635 105.387 76.6992 105.387 77.5527C105.381 78.376 106.029 79.0298 106.846 79.0419C107.669 79.0479 108.322 78.4063 108.328 77.5769Z" fill="#005BBB"/>
<path d="M89.1289 106.254C90.4482 106.248 91.4891 107.265 91.4951 108.56C91.5072 109.886 90.4724 110.952 89.1592 110.964C87.852 110.976 86.793 109.916 86.793 108.591C86.799 107.283 87.8218 106.254 89.1289 106.254ZM89.1471 110.074C89.9822 110.074 90.6479 109.402 90.6419 108.572C90.6298 107.779 89.952 107.107 89.1531 107.095C88.3604 107.089 87.6765 107.767 87.6644 108.566C87.6523 109.408 88.3119 110.08 89.1471 110.074Z" fill="#005BBB"/>
<path d="M35.1155 79.895C33.9838 79.9556 32.7674 79.0052 32.7735 77.5644C32.7795 76.2205 33.7962 75.1854 35.1276 75.1914C36.4408 75.1975 37.5059 76.269 37.4817 77.5826C37.4575 79.0597 36.2108 79.9556 35.1155 79.895ZM35.1094 76.0753C34.2743 76.0753 33.6086 76.7532 33.6267 77.5886C33.6449 78.3938 34.3227 79.0536 35.1336 79.0415C35.9567 79.0294 36.6102 78.3817 36.6102 77.5705C36.6102 76.723 35.9567 76.0753 35.1094 76.0753Z" fill="#005BBB"/>
<path d="M101.169 44.117C101.193 45.4609 100.019 46.49 98.7723 46.4477C97.5015 46.3992 96.4727 45.3822 96.4727 44.0989C96.4727 42.7853 97.5378 41.738 98.8631 41.7501C100.17 41.7562 101.181 42.7974 101.169 44.117ZM98.8147 45.5578C99.5711 45.6123 100.309 45.0069 100.322 44.0807C100.328 43.2877 99.674 42.646 98.8812 42.6339C98.0219 42.6218 97.3623 43.2453 97.3623 44.0928C97.3562 44.9222 97.9795 45.5517 98.8147 45.5578Z" fill="#005BBB"/>
<path d="M52.8576 106.248C53.9954 106.206 55.1815 107.15 55.1875 108.603C55.1936 109.929 54.1103 110.976 52.7971 110.958C51.5202 110.946 50.443 109.868 50.4612 108.585C50.4733 107.18 51.6412 106.194 52.8576 106.248ZM52.8395 110.068C53.6504 110.068 54.304 109.414 54.31 108.597C54.3161 107.774 53.6141 107.072 52.8032 107.096C51.9983 107.114 51.3266 107.792 51.3266 108.585C51.3326 109.414 52.0043 110.074 52.8395 110.068Z" fill="#005BBB"/>
<path d="M43.1374 46.4354C41.8605 46.4294 40.8438 45.4003 40.8438 44.1048C40.8377 42.7852 41.8605 41.75 43.1676 41.75C44.4687 41.75 45.5036 42.7973 45.4975 44.1048C45.4854 45.4185 44.4506 46.4415 43.1374 46.4354ZM43.1434 42.6338C42.3506 42.6338 41.7031 43.2815 41.691 44.0746C41.6789 44.8797 42.3446 45.5516 43.1555 45.5516C43.9786 45.5516 44.6382 44.8918 44.6382 44.0867C44.6321 43.2815 43.9665 42.6338 43.1434 42.6338Z" fill="#005BBB"/>
</svg>
