<svg width="1100" height="80" viewBox="0 0 1100 80" fill="none" xmlns="http://www.w3.org/2000/svg">
<g clip-path="url(#clip0_2820_26922)">
<rect width="1100" height="80" fill="#282828"/>
<path d="M256.352 19.4V39H250.808V23.684H247.168V19.4H256.352ZM267.952 39.392C266.272 39.392 264.778 38.9907 263.472 38.188C262.165 37.3853 261.138 36.2187 260.392 34.688C259.664 33.1387 259.3 31.3093 259.3 29.2C259.3 27.0907 259.664 25.2707 260.392 23.74C261.138 22.1907 262.165 21.0147 263.472 20.212C264.778 19.4093 266.272 19.008 267.952 19.008C269.613 19.008 271.097 19.4093 272.404 20.212C273.71 21.0147 274.728 22.1907 275.456 23.74C276.202 25.2707 276.576 27.0907 276.576 29.2C276.576 31.3093 276.202 33.1387 275.456 34.688C274.728 36.2187 273.71 37.3853 272.404 38.188C271.097 38.9907 269.613 39.392 267.952 39.392ZM267.952 34.856C268.885 34.856 269.622 34.408 270.164 33.512C270.724 32.5973 271.004 31.16 271.004 29.2C271.004 27.24 270.724 25.812 270.164 24.916C269.622 24.0013 268.885 23.544 267.952 23.544C267 23.544 266.244 24.0013 265.684 24.916C265.142 25.812 264.872 27.24 264.872 29.2C264.872 31.16 265.142 32.5973 265.684 33.512C266.244 34.408 267 34.856 267.952 34.856ZM287.12 39.392C285.44 39.392 283.946 38.9907 282.64 38.188C281.333 37.3853 280.306 36.2187 279.56 34.688C278.832 33.1387 278.468 31.3093 278.468 29.2C278.468 27.0907 278.832 25.2707 279.56 23.74C280.306 22.1907 281.333 21.0147 282.64 20.212C283.946 19.4093 285.44 19.008 287.12 19.008C288.781 19.008 290.265 19.4093 291.572 20.212C292.878 21.0147 293.896 22.1907 294.624 23.74C295.37 25.2707 295.744 27.0907 295.744 29.2C295.744 31.3093 295.37 33.1387 294.624 34.688C293.896 36.2187 292.878 37.3853 291.572 38.188C290.265 38.9907 288.781 39.392 287.12 39.392ZM287.12 34.856C288.053 34.856 288.79 34.408 289.332 33.512C289.892 32.5973 290.172 31.16 290.172 29.2C290.172 27.24 289.892 25.812 289.332 24.916C288.79 24.0013 288.053 23.544 287.12 23.544C286.168 23.544 285.412 24.0013 284.852 24.916C284.31 25.812 284.04 27.24 284.04 29.2C284.04 31.16 284.31 32.5973 284.852 33.512C285.412 34.408 286.168 34.856 287.12 34.856ZM306.288 39.392C304.608 39.392 303.114 38.9907 301.808 38.188C300.501 37.3853 299.474 36.2187 298.728 34.688C298 33.1387 297.636 31.3093 297.636 29.2C297.636 27.0907 298 25.2707 298.728 23.74C299.474 22.1907 300.501 21.0147 301.808 20.212C303.114 19.4093 304.608 19.008 306.288 19.008C307.949 19.008 309.433 19.4093 310.74 20.212C312.046 21.0147 313.064 22.1907 313.792 23.74C314.538 25.2707 314.912 27.0907 314.912 29.2C314.912 31.3093 314.538 33.1387 313.792 34.688C313.064 36.2187 312.046 37.3853 310.74 38.188C309.433 38.9907 307.949 39.392 306.288 39.392ZM306.288 34.856C307.221 34.856 307.958 34.408 308.5 33.512C309.06 32.5973 309.34 31.16 309.34 29.2C309.34 27.24 309.06 25.812 308.5 24.916C307.958 24.0013 307.221 23.544 306.288 23.544C305.336 23.544 304.58 24.0013 304.02 24.916C303.478 25.812 303.208 27.24 303.208 29.2C303.208 31.16 303.478 32.5973 304.02 33.512C304.58 34.408 305.336 34.856 306.288 34.856ZM340.488 22.2H337.656V32.04C337.656 34.896 335.952 36.576 333.216 36.576C330.456 36.576 328.704 34.872 328.704 32.04V22.2H325.872V32.04C325.872 36.432 328.656 39.12 333.192 39.12C337.728 39.12 340.488 36.432 340.488 32.04V22.2ZM350.056 22.08C346.408 22.08 343.936 23.88 343.936 26.76C343.936 32.736 353.008 30.648 353.008 34.392C353.008 35.688 351.832 36.432 349.864 36.432C348.064 36.432 345.904 35.568 344.176 33.984L342.952 36.432C344.68 38.016 347.176 39.096 349.816 39.096C353.512 39.096 356.152 37.248 356.152 34.248C356.176 28.2 347.104 30.168 347.104 26.496C347.104 25.368 348.184 24.744 349.84 24.744C351.112 24.744 352.936 25.2 354.76 26.304L355.936 23.808C354.376 22.776 352.24 22.08 350.056 22.08ZM359.466 22.2V39H366.282C371.37 39 375.042 35.448 375.042 30.6C375.042 25.728 371.394 22.2 366.354 22.2H359.466ZM362.298 24.744H366.306C369.618 24.744 372.186 27.192 372.186 30.624C372.186 34.032 369.69 36.456 366.426 36.456H362.298V24.744ZM389.219 24.744V22.2H375.755V24.744H381.059V39H383.891V24.744H389.219Z" fill="white"/>
<path d="M250.28 54.192V58.096H255.896V59.472H250.28V64H248.68V52.8H256.584V54.192H250.28ZM261.979 64.096C261.136 64.096 260.379 63.9093 259.707 63.536C259.035 63.1627 258.507 62.6507 258.123 62C257.749 61.3387 257.563 60.592 257.563 59.76C257.563 58.928 257.749 58.1867 258.123 57.536C258.507 56.8747 259.035 56.3627 259.707 56C260.379 55.6267 261.136 55.44 261.979 55.44C262.821 55.44 263.573 55.6267 264.235 56C264.907 56.3627 265.429 56.8747 265.803 57.536C266.187 58.1867 266.379 58.928 266.379 59.76C266.379 60.592 266.187 61.3387 265.803 62C265.429 62.6507 264.907 63.1627 264.235 63.536C263.573 63.9093 262.821 64.096 261.979 64.096ZM261.979 62.752C262.523 62.752 263.008 62.6293 263.435 62.384C263.872 62.128 264.213 61.776 264.459 61.328C264.704 60.8693 264.827 60.3467 264.827 59.76C264.827 59.1733 264.704 58.656 264.459 58.208C264.213 57.7493 263.872 57.3973 263.435 57.152C263.008 56.9067 262.523 56.784 261.979 56.784C261.435 56.784 260.944 56.9067 260.507 57.152C260.08 57.3973 259.739 57.7493 259.483 58.208C259.237 58.656 259.115 59.1733 259.115 59.76C259.115 60.3467 259.237 60.8693 259.483 61.328C259.739 61.776 260.08 62.128 260.507 62.384C260.944 62.6293 261.435 62.752 261.979 62.752ZM269.975 56.944C270.242 56.4533 270.636 56.08 271.159 55.824C271.682 55.568 272.316 55.44 273.063 55.44V56.928C272.978 56.9173 272.86 56.912 272.711 56.912C271.879 56.912 271.223 57.1627 270.743 57.664C270.274 58.1547 270.039 58.8587 270.039 59.776V64H268.503V55.52H269.975V56.944ZM289.426 64L289.41 57.28L286.114 62.816H284.946L281.666 57.424V64H279.234V52.8H281.378L285.57 59.76L289.698 52.8H291.826L291.858 64H289.426ZM297.812 55.264C299.145 55.264 300.169 55.584 300.884 56.224C301.598 56.8533 301.956 57.808 301.956 59.088V64H299.62V62.928C299.15 63.728 298.276 64.128 296.996 64.128C296.334 64.128 295.758 64.016 295.268 63.792C294.788 63.568 294.42 63.2587 294.164 62.864C293.908 62.4693 293.78 62.0213 293.78 61.52C293.78 60.72 294.078 60.0907 294.676 59.632C295.284 59.1733 296.217 58.944 297.476 58.944H299.46C299.46 58.4 299.294 57.984 298.964 57.696C298.633 57.3973 298.137 57.248 297.476 57.248C297.017 57.248 296.564 57.3227 296.116 57.472C295.678 57.6107 295.305 57.8027 294.996 58.048L294.1 56.304C294.569 55.9733 295.129 55.7173 295.78 55.536C296.441 55.3547 297.118 55.264 297.812 55.264ZM297.62 62.448C298.046 62.448 298.425 62.352 298.756 62.16C299.086 61.9573 299.321 61.664 299.46 61.28V60.4H297.748C296.724 60.4 296.212 60.736 296.212 61.408C296.212 61.728 296.334 61.984 296.58 62.176C296.836 62.3573 297.182 62.448 297.62 62.448ZM309.687 64L307.799 61.36L305.847 64H303.127L306.439 59.664L303.239 55.392H306.039L307.863 57.904L309.735 55.392H312.391L309.191 59.6L312.519 64H309.687ZM313.73 55.392H316.226V64H313.73V55.392ZM314.978 54.192C314.519 54.192 314.146 54.0587 313.858 53.792C313.57 53.5253 313.426 53.1947 313.426 52.8C313.426 52.4053 313.57 52.0747 313.858 51.808C314.146 51.5413 314.519 51.408 314.978 51.408C315.437 51.408 315.81 51.536 316.098 51.792C316.386 52.048 316.53 52.368 316.53 52.752C316.53 53.168 316.386 53.5147 316.098 53.792C315.81 54.0587 315.437 54.192 314.978 54.192ZM329.567 55.264C330.644 55.264 331.497 55.584 332.127 56.224C332.767 56.8533 333.087 57.8027 333.087 59.072V64H330.591V59.456C330.591 58.7733 330.447 58.2667 330.159 57.936C329.881 57.5947 329.481 57.424 328.959 57.424C328.372 57.424 327.908 57.616 327.567 58C327.225 58.3733 327.055 58.9333 327.055 59.68V64H324.559V59.456C324.559 58.1013 324.015 57.424 322.927 57.424C322.351 57.424 321.892 57.616 321.551 58C321.209 58.3733 321.039 58.9333 321.039 59.68V64H318.543V55.392H320.927V56.384C321.247 56.0213 321.636 55.744 322.095 55.552C322.564 55.36 323.076 55.264 323.631 55.264C324.239 55.264 324.788 55.3867 325.279 55.632C325.769 55.8667 326.164 56.2133 326.463 56.672C326.815 56.224 327.257 55.8773 327.791 55.632C328.335 55.3867 328.927 55.264 329.567 55.264ZM343.996 55.392V64H341.628V62.976C341.297 63.3493 340.903 63.6373 340.444 63.84C339.985 64.032 339.489 64.128 338.956 64.128C337.825 64.128 336.929 63.8027 336.268 63.152C335.607 62.5013 335.276 61.536 335.276 60.256V55.392H337.772V59.888C337.772 61.2747 338.353 61.968 339.516 61.968C340.113 61.968 340.593 61.776 340.956 61.392C341.319 60.9973 341.5 60.416 341.5 59.648V55.392H343.996ZM357.332 55.264C358.41 55.264 359.263 55.584 359.892 56.224C360.532 56.8533 360.852 57.8027 360.852 59.072V64H358.356V59.456C358.356 58.7733 358.212 58.2667 357.924 57.936C357.647 57.5947 357.247 57.424 356.724 57.424C356.138 57.424 355.674 57.616 355.332 58C354.991 58.3733 354.82 58.9333 354.82 59.68V64H352.324V59.456C352.324 58.1013 351.78 57.424 350.692 57.424C350.116 57.424 349.658 57.616 349.316 58C348.975 58.3733 348.804 58.9333 348.804 59.68V64H346.308V55.392H348.692V56.384C349.012 56.0213 349.402 55.744 349.86 55.552C350.33 55.36 350.842 55.264 351.396 55.264C352.004 55.264 352.554 55.3867 353.044 55.632C353.535 55.8667 353.93 56.2133 354.228 56.672C354.58 56.224 355.023 55.8773 355.556 55.632C356.1 55.3867 356.692 55.264 357.332 55.264ZM370.117 54.912H366.533V52.8H376.293V54.912H372.709V64H370.117V54.912ZM379.708 56.528C380.007 56.112 380.407 55.7973 380.908 55.584C381.42 55.3707 382.007 55.264 382.668 55.264V57.568C382.391 57.5467 382.204 57.536 382.108 57.536C381.393 57.536 380.833 57.7387 380.428 58.144C380.023 58.5387 379.82 59.136 379.82 59.936V64H377.324V55.392H379.708V56.528ZM387.577 55.264C388.91 55.264 389.934 55.584 390.649 56.224C391.364 56.8533 391.721 57.808 391.721 59.088V64H389.385V62.928C388.916 63.728 388.041 64.128 386.761 64.128C386.1 64.128 385.524 64.016 385.033 63.792C384.553 63.568 384.185 63.2587 383.929 62.864C383.673 62.4693 383.545 62.0213 383.545 61.52C383.545 60.72 383.844 60.0907 384.441 59.632C385.049 59.1733 385.982 58.944 387.241 58.944H389.225C389.225 58.4 389.06 57.984 388.729 57.696C388.398 57.3973 387.902 57.248 387.241 57.248C386.782 57.248 386.329 57.3227 385.881 57.472C385.444 57.6107 385.07 57.8027 384.761 58.048L383.865 56.304C384.334 55.9733 384.894 55.7173 385.545 55.536C386.206 55.3547 386.884 55.264 387.577 55.264ZM387.385 62.448C387.812 62.448 388.19 62.352 388.521 62.16C388.852 61.9573 389.086 61.664 389.225 61.28V60.4H387.513C386.489 60.4 385.977 60.736 385.977 61.408C385.977 61.728 386.1 61.984 386.345 62.176C386.601 62.3573 386.948 62.448 387.385 62.448ZM402.842 52.128V64H400.458V63.008C399.839 63.7547 398.943 64.128 397.77 64.128C396.959 64.128 396.223 63.9467 395.562 63.584C394.911 63.2213 394.399 62.704 394.026 62.032C393.653 61.36 393.466 60.5813 393.466 59.696C393.466 58.8107 393.653 58.032 394.026 57.36C394.399 56.688 394.911 56.1707 395.562 55.808C396.223 55.4453 396.959 55.264 397.77 55.264C398.869 55.264 399.727 55.6107 400.346 56.304V52.128H402.842ZM398.202 62.08C398.831 62.08 399.354 61.8667 399.77 61.44C400.186 61.0027 400.394 60.4213 400.394 59.696C400.394 58.9707 400.186 58.3947 399.77 57.968C399.354 57.5307 398.831 57.312 398.202 57.312C397.562 57.312 397.034 57.5307 396.618 57.968C396.202 58.3947 395.994 58.9707 395.994 59.696C395.994 60.4213 396.202 61.0027 396.618 61.44C397.034 61.8667 397.562 62.08 398.202 62.08ZM405.152 55.392H407.648V64H405.152V55.392ZM406.4 54.192C405.941 54.192 405.568 54.0587 405.28 53.792C404.992 53.5253 404.848 53.1947 404.848 52.8C404.848 52.4053 404.992 52.0747 405.28 51.808C405.568 51.5413 405.941 51.408 406.4 51.408C406.859 51.408 407.232 51.536 407.52 51.792C407.808 52.048 407.952 52.368 407.952 52.752C407.952 53.168 407.808 53.5147 407.52 53.792C407.232 54.0587 406.859 54.192 406.4 54.192ZM415.197 55.264C416.263 55.264 417.122 55.584 417.773 56.224C418.434 56.864 418.765 57.8133 418.765 59.072V64H416.269V59.456C416.269 58.7733 416.119 58.2667 415.821 57.936C415.522 57.5947 415.09 57.424 414.525 57.424C413.895 57.424 413.394 57.6213 413.021 58.016C412.647 58.4 412.461 58.976 412.461 59.744V64H409.965V55.392H412.349V56.4C412.679 56.0373 413.09 55.76 413.581 55.568C414.071 55.3653 414.61 55.264 415.197 55.264ZM430.001 55.392V62.56C430.001 64.1387 429.59 65.312 428.769 66.08C427.947 66.848 426.747 67.232 425.169 67.232C424.337 67.232 423.547 67.1307 422.801 66.928C422.054 66.7253 421.435 66.432 420.945 66.048L421.937 64.256C422.299 64.5547 422.758 64.7893 423.313 64.96C423.867 65.1413 424.422 65.232 424.977 65.232C425.841 65.232 426.475 65.0347 426.881 64.64C427.297 64.256 427.505 63.6693 427.505 62.88V62.512C426.854 63.2267 425.947 63.584 424.785 63.584C423.995 63.584 423.27 63.4133 422.609 63.072C421.958 62.72 421.441 62.2293 421.057 61.6C420.673 60.9707 420.481 60.2453 420.481 59.424C420.481 58.6027 420.673 57.8773 421.057 57.248C421.441 56.6187 421.958 56.1333 422.609 55.792C423.27 55.44 423.995 55.264 424.785 55.264C426.033 55.264 426.982 55.6747 427.633 56.496V55.392H430.001ZM425.281 61.536C425.942 61.536 426.481 61.344 426.897 60.96C427.323 60.5653 427.537 60.0533 427.537 59.424C427.537 58.7947 427.323 58.288 426.897 57.904C426.481 57.5093 425.942 57.312 425.281 57.312C424.619 57.312 424.075 57.5093 423.649 57.904C423.222 58.288 423.009 58.7947 423.009 59.424C423.009 60.0533 423.222 60.5653 423.649 60.96C424.075 61.344 424.619 61.536 425.281 61.536ZM446.877 52.8L441.965 64H440.381L435.453 52.8H437.181L441.213 62L445.277 52.8H446.877ZM451.072 64.096C450.23 64.096 449.472 63.9093 448.8 63.536C448.128 63.1627 447.6 62.6507 447.216 62C446.843 61.3387 446.656 60.592 446.656 59.76C446.656 58.928 446.843 58.1867 447.216 57.536C447.6 56.8747 448.128 56.3627 448.8 56C449.472 55.6267 450.23 55.44 451.072 55.44C451.915 55.44 452.667 55.6267 453.328 56C454 56.3627 454.523 56.8747 454.896 57.536C455.28 58.1867 455.472 58.928 455.472 59.76C455.472 60.592 455.28 61.3387 454.896 62C454.523 62.6507 454 63.1627 453.328 63.536C452.667 63.9093 451.915 64.096 451.072 64.096ZM451.072 62.752C451.616 62.752 452.102 62.6293 452.528 62.384C452.966 62.128 453.307 61.776 453.552 61.328C453.798 60.8693 453.92 60.3467 453.92 59.76C453.92 59.1733 453.798 58.656 453.552 58.208C453.307 57.7493 452.966 57.3973 452.528 57.152C452.102 56.9067 451.616 56.784 451.072 56.784C450.528 56.784 450.038 56.9067 449.6 57.152C449.174 57.3973 448.832 57.7493 448.576 58.208C448.331 58.656 448.208 59.1733 448.208 59.76C448.208 60.3467 448.331 60.8693 448.576 61.328C448.832 61.776 449.174 62.128 449.6 62.384C450.038 62.6293 450.528 62.752 451.072 62.752ZM457.597 52.128H459.133V64H457.597V52.128ZM469.969 55.52V64H468.513V62.72C468.204 63.1573 467.793 63.4987 467.281 63.744C466.78 63.9787 466.231 64.096 465.633 64.096C464.503 64.096 463.612 63.7867 462.961 63.168C462.311 62.5387 461.985 61.616 461.985 60.4V55.52H463.521V60.224C463.521 61.0453 463.719 61.6693 464.113 62.096C464.508 62.512 465.073 62.72 465.809 62.72C466.62 62.72 467.26 62.4747 467.729 61.984C468.199 61.4933 468.433 60.8 468.433 59.904V55.52H469.969ZM483.502 55.44C484.568 55.44 485.411 55.7493 486.03 56.368C486.659 56.9867 486.974 57.904 486.974 59.12V64H485.438V59.296C485.438 58.4747 485.246 57.856 484.862 57.44C484.488 57.024 483.95 56.816 483.246 56.816C482.467 56.816 481.848 57.0613 481.39 57.552C480.931 58.032 480.702 58.7253 480.702 59.632V64H479.166V59.296C479.166 58.4747 478.974 57.856 478.59 57.44C478.216 57.024 477.678 56.816 476.974 56.816C476.195 56.816 475.576 57.0613 475.118 57.552C474.659 58.032 474.43 58.7253 474.43 59.632V64H472.894V55.52H474.366V56.784C474.675 56.3467 475.08 56.016 475.582 55.792C476.083 55.5573 476.654 55.44 477.294 55.44C477.955 55.44 478.542 55.5733 479.054 55.84C479.566 56.1067 479.96 56.496 480.238 57.008C480.558 56.5173 481 56.1333 481.566 55.856C482.142 55.5787 482.787 55.44 483.502 55.44ZM497.511 59.808C497.511 59.9253 497.5 60.08 497.479 60.272H490.599C490.695 61.0187 491.02 61.6213 491.575 62.08C492.14 62.528 492.839 62.752 493.671 62.752C494.684 62.752 495.5 62.4107 496.119 61.728L496.967 62.72C496.583 63.168 496.103 63.5093 495.527 63.744C494.961 63.9787 494.327 64.096 493.623 64.096C492.727 64.096 491.932 63.9147 491.239 63.552C490.545 63.1787 490.007 62.6613 489.623 62C489.249 61.3387 489.063 60.592 489.063 59.76C489.063 58.9387 489.244 58.1973 489.607 57.536C489.98 56.8747 490.487 56.3627 491.127 56C491.777 55.6267 492.508 55.44 493.319 55.44C494.129 55.44 494.849 55.6267 495.479 56C496.119 56.3627 496.615 56.8747 496.967 57.536C497.329 58.1973 497.511 58.9547 497.511 59.808ZM493.319 56.736C492.583 56.736 491.964 56.96 491.463 57.408C490.972 57.856 490.684 58.4427 490.599 59.168H496.039C495.953 58.4533 495.66 57.872 495.159 57.424C494.668 56.9653 494.055 56.736 493.319 56.736ZM499.436 52.8H501.244L500.94 60.464H499.724L499.436 52.8ZM500.348 64.096C500.049 64.096 499.798 64 499.596 63.808C499.393 63.6053 499.292 63.36 499.292 63.072C499.292 62.784 499.393 62.544 499.596 62.352C499.798 62.1493 500.049 62.048 500.348 62.048C500.646 62.048 500.892 62.1493 501.084 62.352C501.276 62.544 501.372 62.784 501.372 63.072C501.372 63.36 501.27 63.6053 501.068 63.808C500.876 64 500.636 64.096 500.348 64.096Z" fill="#2CBC90"/>
<ellipse cx="702" cy="39.5" rx="255" ry="261.5" fill="#48C89B" fill-opacity="0.1"/>
<ellipse opacity="0.1" cx="702.677" cy="39.558" rx="186.092" ry="191.214" transform="rotate(10.3586 702.677 39.558)" fill="white" fill-opacity="0.3"/>
<ellipse opacity="0.1" cx="702.036" cy="39.9049" rx="147.921" ry="152.798" transform="rotate(10.3586 702.036 39.9049)" fill="white" fill-opacity="0.3"/>
<ellipse opacity="0.2" cx="701.475" cy="39.1593" rx="97.0988" ry="100.335" transform="rotate(10.3586 701.475 39.1593)" fill="white" fill-opacity="0.45"/>
<g clip-path="url(#clip1_2820_26922)">
<path d="M732.324 37.5649C732.328 33.661 721.849 30.3937 707.921 29.6287L707.926 23.4085L725.318 23.4255L725.331 10.4804L677.772 10.4341L677.76 23.3791L695.151 23.3961L695.145 29.6466C681.468 30.4363 671.235 33.6494 671.231 37.5053C671.228 41.3618 681.455 44.5951 695.13 45.4101L695.108 67.7463L707.882 67.7587L707.904 45.4529C721.835 44.7167 732.321 41.4687 732.324 37.5649ZM701.774 41.3808C686.823 41.3663 674.704 39.0094 674.707 36.1149C674.709 33.6641 683.403 31.615 695.144 31.0539L695.142 32.5291L695.143 32.5291L695.138 38.5744C697.254 38.6968 699.479 38.762 701.777 38.7642C703.893 38.7663 705.948 38.7137 707.912 38.6159L707.92 31.0439C719.914 31.593 728.854 33.6809 728.852 36.1676C728.849 39.0622 716.725 41.3954 701.774 41.3808Z" fill="#48C89B"/>
</g>
<path d="M47.1893 32.079L40.6485 42.9755C39.6396 44.6551 40.8503 46.7867 42.8187 46.7981L55.7803 46.868C57.7486 46.8794 58.9822 44.7591 57.9923 43.0701L51.5714 32.1035C50.5987 30.4372 48.1811 30.424 47.1893 32.079Z" fill="#4E55A2"/>
<path d="M62.5682 45.6133L56.0274 34.7168C55.0185 33.0372 56.2292 30.9056 58.1976 30.8942L71.1592 30.8243C73.1275 30.8129 74.3611 32.9332 73.3712 34.6222L66.9503 45.5888C65.9776 47.2551 63.5619 47.2683 62.5682 45.6133Z" fill="#EA5045"/>
<path d="M103.871 30.8594H93.3893C92.9372 30.8594 92.5703 31.2239 92.5703 31.6731V33.6123C92.5703 34.0615 92.9372 34.426 93.3893 34.426H96.7652V46.2563C96.7652 46.7055 97.132 47.07 97.5841 47.07H99.6754C100.127 47.07 100.494 46.7055 100.494 46.2563V34.426H103.87C104.322 34.426 104.689 34.0615 104.689 33.6123V31.6731C104.689 31.2239 104.324 30.8594 103.871 30.8594Z" fill="white"/>
<path d="M119.105 43.0269L117.375 42.0303C117.039 41.8376 116.619 41.9198 116.368 42.2132C115.625 43.0858 114.446 43.5878 113.108 43.5878C110.323 43.5878 108.527 41.7357 108.527 38.946C108.527 36.1563 110.324 34.3042 113.108 34.3042C114.449 34.3042 115.615 34.8087 116.366 35.685C116.616 35.9771 117.035 36.0568 117.37 35.8642L119.102 34.8663C119.522 34.6245 119.622 34.0673 119.318 33.6918C117.881 31.9158 115.627 30.8223 113.11 30.8223C108.37 30.8223 104.934 34.3484 104.934 38.946C104.934 43.5436 108.37 47.0697 113.11 47.0697C115.647 47.0697 117.904 45.975 119.325 44.199C119.626 43.8222 119.524 43.2674 119.105 43.0269Z" fill="white"/>
<path d="M128.581 38.3711H123.091C122.748 38.3711 122.469 38.7356 122.469 39.1848V40.8933C122.469 41.3425 122.748 41.707 123.091 41.707H128.581C128.924 41.707 129.203 41.3425 129.203 40.8933V39.1848C129.203 38.7344 128.924 38.3711 128.581 38.3711Z" fill="white"/>
<path d="M89.2838 38.74C90.1917 38.1693 91.0588 36.9874 91.0588 35.4729C91.0588 32.607 89.0861 30.8262 85.9116 30.8262H81.3733C80.9039 30.8262 80.2616 30.8262 79.7675 31.3171C79.2734 31.808 79.2734 32.4463 79.2734 32.9114V44.9823C79.2734 45.4487 79.2734 46.0869 79.7675 46.5778C80.2616 47.0687 80.9039 47.0687 81.3733 47.0687H86.1809C89.3282 47.0687 91.2836 45.2449 91.2836 42.3104C91.2836 40.2607 90.1497 39.2285 89.2838 38.74ZM82.8 33.9731H85.6658C86.8355 33.9731 87.5335 34.583 87.5335 35.6066C87.5335 36.6302 86.8355 37.2402 85.6658 37.2402H82.8V33.9731ZM85.8671 43.9206H82.8V40.4092H85.8671C87.0505 40.4092 87.7583 41.0609 87.7583 42.1545C87.7583 43.0075 87.2605 43.9206 85.8671 43.9206Z" fill="white"/>
<path d="M162.856 34.8711C161.297 34.8711 160.163 35.3939 159.384 36.2764V35.7744C159.384 35.4038 159.174 35.1951 158.801 35.1951H156.47C156.097 35.1951 155.887 35.4038 155.887 35.7744V50.8265C155.887 51.1971 156.097 51.4058 156.47 51.4058H158.801C159.174 51.4058 159.384 51.1971 159.384 50.8265V45.6925C160.163 46.575 161.297 47.0978 162.856 47.0978C165.909 47.0978 168.426 44.4345 168.426 40.9845C168.426 37.5344 165.909 34.8711 162.856 34.8711ZM162.157 43.8098C160.549 43.8098 159.384 42.7211 159.384 40.9845C159.384 39.2478 160.549 38.1591 162.157 38.1591C163.765 38.1591 164.93 39.2478 164.93 40.9845C164.93 42.7211 163.765 43.8098 162.157 43.8098Z" fill="white"/>
<path d="M142.506 31.3454C142.413 31.0214 142.156 30.8594 141.83 30.8594H138.101C137.775 30.8594 137.518 31.0214 137.425 31.3454L132.484 46.4208C132.345 46.8381 132.555 47.0688 132.974 47.0688H135.841C136.167 47.0688 136.4 46.9301 136.493 46.5828L137.105 44.5221H142.825L143.437 46.5828C143.531 46.9301 143.763 47.0688 144.089 47.0688H146.956C147.376 47.0688 147.585 46.8368 147.446 46.4208L142.506 31.3454ZM138.139 41.0487L139.965 34.912L141.791 41.0487H138.139Z" fill="white"/>
<path d="M152.05 30.8574H149.703C149.386 30.8574 149.129 31.1127 149.129 31.4281V46.4974C149.129 46.8128 149.386 47.0681 149.703 47.0681H152.05C152.368 47.0681 152.625 46.8128 152.625 46.4974V31.4281C152.625 31.1127 152.368 30.8574 152.05 30.8574Z" fill="white"/>
<path d="M176.982 35.1654C175.444 35.1654 174.278 35.7214 173.649 36.578V31.6711C173.649 31.2219 173.282 30.8574 172.83 30.8574H170.971C170.519 30.8574 170.152 31.2219 170.152 31.6711V46.2543C170.152 46.7036 170.519 47.0681 170.971 47.0681H172.83C173.282 47.0681 173.649 46.7036 173.649 46.2543V40.7461C173.649 39.1014 174.535 38.3614 175.817 38.3614C176.936 38.3614 177.845 39.0327 177.845 40.4687V46.2556C177.845 46.7048 178.212 47.0693 178.664 47.0693H180.523C180.975 47.0693 181.342 46.7048 181.342 46.2556V39.9593C181.34 36.8333 179.335 35.1654 176.982 35.1654Z" fill="white"/>
<path d="M192.581 36.148C191.643 35.306 190.281 34.8789 188.531 34.8789C187.562 34.8789 186.631 35.0053 185.762 35.2532C185.329 35.3772 184.741 35.6681 184.258 35.9307C183.861 36.1455 183.849 36.7076 184.238 36.9359L185.867 37.8969C185.919 37.9276 185.981 37.9313 186.037 37.9104C186.136 37.8711 186.238 37.8343 186.343 37.8012C186.951 37.6073 187.577 37.5079 188.206 37.5079C189.108 37.5079 189.791 37.7091 190.238 38.1056C190.68 38.4995 190.897 39.0531 190.901 39.7981H188.098C186.395 39.7981 185.123 40.1282 184.316 40.7799C183.497 41.4415 183.082 42.3301 183.082 43.4212C183.082 44.1195 183.272 44.7541 183.647 45.3088C184.02 45.8611 184.554 46.298 185.236 46.6073C185.911 46.9129 186.705 47.0676 187.597 47.0676C188.487 47.0676 189.263 46.9277 189.901 46.6527C190.355 46.4564 190.74 46.1949 191.052 45.8709V45.9532C191.052 46.4858 191.487 46.9166 192.021 46.9166H193.032C193.568 46.9166 194.001 46.4846 194.001 45.9532V39.9699C194.001 38.2811 193.523 36.9961 192.581 36.148ZM190.899 43.0849C190.697 43.6004 190.353 44.0029 189.876 44.2815C189.38 44.5712 188.802 44.7185 188.161 44.7185C187.512 44.7185 187.003 44.5859 186.648 44.3245C186.306 44.0729 186.14 43.7427 186.14 43.3144C186.14 42.983 186.14 41.9754 188.292 41.9754H190.9V43.0849H190.899Z" fill="white"/>
<rect x="914" y="23" width="139" height="36" rx="5.48507" fill="url(#paint0_linear_2820_26922)"/>
<path d="M968.627 34.5664L971.909 43.2852L975.182 34.5664H977.737V45.9414H975.768V42.1914L975.963 37.1758L972.604 45.9414H971.19L967.838 37.1836L968.034 42.1914V45.9414H966.065V34.5664H968.627ZM979.541 41.6367C979.541 40.8086 979.705 40.0638 980.034 39.4023C980.362 38.7357 980.823 38.2253 981.416 37.8711C982.01 37.5117 982.692 37.332 983.463 37.332C984.604 37.332 985.528 37.6992 986.237 38.4336C986.95 39.168 987.336 40.1419 987.393 41.3555L987.401 41.8008C987.401 42.6341 987.239 43.3789 986.916 44.0352C986.599 44.6914 986.14 45.1992 985.541 45.5586C984.948 45.918 984.26 46.0977 983.479 46.0977C982.286 46.0977 981.33 45.7018 980.612 44.9102C979.898 44.1133 979.541 43.0534 979.541 41.7305V41.6367ZM981.44 41.8008C981.44 42.6706 981.619 43.3529 981.979 43.8477C982.338 44.3372 982.838 44.582 983.479 44.582C984.119 44.582 984.617 44.332 984.971 43.832C985.33 43.332 985.51 42.6003 985.51 41.6367C985.51 40.7826 985.325 40.1055 984.955 39.6055C984.591 39.1055 984.093 38.8555 983.463 38.8555C982.843 38.8555 982.351 39.1029 981.987 39.5977C981.622 40.0872 981.44 40.8216 981.44 41.8008ZM993.432 39.2227C993.182 39.181 992.924 39.1602 992.659 39.1602C991.789 39.1602 991.203 39.4935 990.901 40.1602V45.9414H989.002V37.4883H990.815L990.862 38.4336C991.32 37.6992 991.955 37.332 992.768 37.332C993.039 37.332 993.263 37.3685 993.44 37.4414L993.432 39.2227ZM998.198 46.0977C996.994 46.0977 996.018 45.7201 995.268 44.9648C994.523 44.2044 994.151 43.194 994.151 41.9336V41.6992C994.151 40.8555 994.312 40.1029 994.635 39.4414C994.963 38.7747 995.422 38.2565 996.01 37.8867C996.599 37.5169 997.255 37.332 997.979 37.332C999.13 37.332 1000.02 37.6992 1000.64 38.4336C1001.27 39.168 1001.59 40.207 1001.59 41.5508V42.3164H996.065C996.122 43.0143 996.354 43.5664 996.76 43.9727C997.172 44.3789 997.687 44.582 998.307 44.582C999.177 44.582 999.885 44.2305 1000.43 43.5273L1001.46 44.5039C1001.12 45.0091 1000.66 45.4023 1000.1 45.6836C999.534 45.9596 998.901 46.0977 998.198 46.0977ZM997.971 38.8555C997.45 38.8555 997.028 39.0378 996.705 39.4023C996.388 39.7669 996.185 40.2747 996.096 40.9258H999.713V40.7852C999.672 40.1497 999.502 39.6706 999.205 39.3477C998.909 39.0195 998.497 38.8555 997.971 38.8555Z" fill="white"/>
<path d="M1019.19 41.0025C1019.19 41.1775 1019.12 41.3575 1018.99 41.4925L1013.68 46.8025C1013.41 47.0725 1012.97 47.0725 1012.7 46.8025C1012.43 46.5325 1012.43 46.0975 1012.7 45.8275L1017.53 41.0025L1012.7 36.1775C1012.43 35.9075 1012.43 35.4725 1012.7 35.2025C1012.97 34.9325 1013.41 34.9325 1013.68 35.2025L1018.99 40.5125C1019.12 40.6525 1019.19 40.8275 1019.19 41.0025Z" fill="white"/>
</g>
<defs>
<linearGradient id="paint0_linear_2820_26922" x1="983.5" y1="23" x2="983.5" y2="59" gradientUnits="userSpaceOnUse">
<stop stop-color="#38D1A2"/>
<stop offset="1" stop-color="#17BB88"/>
</linearGradient>
<clipPath id="clip0_2820_26922">
<rect width="1100" height="80" fill="white"/>
</clipPath>
<clipPath id="clip1_2820_26922">
<rect width="61.3267" height="62.1485" fill="white" transform="translate(671 8) rotate(0.0558185)"/>
</clipPath>
</defs>
</svg>
