<svg width="1100" height="80" viewBox="0 0 1100 80" fill="none" xmlns="http://www.w3.org/2000/svg">
<g clip-path="url(#clip0_2820_26757)">
<rect width="1100" height="80" fill="#282828"/>
<path d="M256.352 19.4V39H250.808V23.684H247.168V19.4H256.352ZM267.952 39.392C266.272 39.392 264.778 38.9907 263.472 38.188C262.165 37.3853 261.138 36.2187 260.392 34.688C259.664 33.1387 259.3 31.3093 259.3 29.2C259.3 27.0907 259.664 25.2707 260.392 23.74C261.138 22.1907 262.165 21.0147 263.472 20.212C264.778 19.4093 266.272 19.008 267.952 19.008C269.613 19.008 271.097 19.4093 272.404 20.212C273.71 21.0147 274.728 22.1907 275.456 23.74C276.202 25.2707 276.576 27.0907 276.576 29.2C276.576 31.3093 276.202 33.1387 275.456 34.688C274.728 36.2187 273.71 37.3853 272.404 38.188C271.097 38.9907 269.613 39.392 267.952 39.392ZM267.952 34.856C268.885 34.856 269.622 34.408 270.164 33.512C270.724 32.5973 271.004 31.16 271.004 29.2C271.004 27.24 270.724 25.812 270.164 24.916C269.622 24.0013 268.885 23.544 267.952 23.544C267 23.544 266.244 24.0013 265.684 24.916C265.142 25.812 264.872 27.24 264.872 29.2C264.872 31.16 265.142 32.5973 265.684 33.512C266.244 34.408 267 34.856 267.952 34.856ZM287.12 39.392C285.44 39.392 283.946 38.9907 282.64 38.188C281.333 37.3853 280.306 36.2187 279.56 34.688C278.832 33.1387 278.468 31.3093 278.468 29.2C278.468 27.0907 278.832 25.2707 279.56 23.74C280.306 22.1907 281.333 21.0147 282.64 20.212C283.946 19.4093 285.44 19.008 287.12 19.008C288.781 19.008 290.265 19.4093 291.572 20.212C292.878 21.0147 293.896 22.1907 294.624 23.74C295.37 25.2707 295.744 27.0907 295.744 29.2C295.744 31.3093 295.37 33.1387 294.624 34.688C293.896 36.2187 292.878 37.3853 291.572 38.188C290.265 38.9907 288.781 39.392 287.12 39.392ZM287.12 34.856C288.053 34.856 288.79 34.408 289.332 33.512C289.892 32.5973 290.172 31.16 290.172 29.2C290.172 27.24 289.892 25.812 289.332 24.916C288.79 24.0013 288.053 23.544 287.12 23.544C286.168 23.544 285.412 24.0013 284.852 24.916C284.31 25.812 284.04 27.24 284.04 29.2C284.04 31.16 284.31 32.5973 284.852 33.512C285.412 34.408 286.168 34.856 287.12 34.856ZM306.288 39.392C304.608 39.392 303.114 38.9907 301.808 38.188C300.501 37.3853 299.474 36.2187 298.728 34.688C298 33.1387 297.636 31.3093 297.636 29.2C297.636 27.0907 298 25.2707 298.728 23.74C299.474 22.1907 300.501 21.0147 301.808 20.212C303.114 19.4093 304.608 19.008 306.288 19.008C307.949 19.008 309.433 19.4093 310.74 20.212C312.046 21.0147 313.064 22.1907 313.792 23.74C314.538 25.2707 314.912 27.0907 314.912 29.2C314.912 31.3093 314.538 33.1387 313.792 34.688C313.064 36.2187 312.046 37.3853 310.74 38.188C309.433 38.9907 307.949 39.392 306.288 39.392ZM306.288 34.856C307.221 34.856 307.958 34.408 308.5 33.512C309.06 32.5973 309.34 31.16 309.34 29.2C309.34 27.24 309.06 25.812 308.5 24.916C307.958 24.0013 307.221 23.544 306.288 23.544C305.336 23.544 304.58 24.0013 304.02 24.916C303.478 25.812 303.208 27.24 303.208 29.2C303.208 31.16 303.478 32.5973 304.02 33.512C304.58 34.408 305.336 34.856 306.288 34.856ZM340.488 22.2H337.656V32.04C337.656 34.896 335.952 36.576 333.216 36.576C330.456 36.576 328.704 34.872 328.704 32.04V22.2H325.872V32.04C325.872 36.432 328.656 39.12 333.192 39.12C337.728 39.12 340.488 36.432 340.488 32.04V22.2ZM350.056 22.08C346.408 22.08 343.936 23.88 343.936 26.76C343.936 32.736 353.008 30.648 353.008 34.392C353.008 35.688 351.832 36.432 349.864 36.432C348.064 36.432 345.904 35.568 344.176 33.984L342.952 36.432C344.68 38.016 347.176 39.096 349.816 39.096C353.512 39.096 356.152 37.248 356.152 34.248C356.176 28.2 347.104 30.168 347.104 26.496C347.104 25.368 348.184 24.744 349.84 24.744C351.112 24.744 352.936 25.2 354.76 26.304L355.936 23.808C354.376 22.776 352.24 22.08 350.056 22.08ZM359.466 22.2V39H366.282C371.37 39 375.042 35.448 375.042 30.6C375.042 25.728 371.394 22.2 366.354 22.2H359.466ZM362.298 24.744H366.306C369.618 24.744 372.186 27.192 372.186 30.624C372.186 34.032 369.69 36.456 366.426 36.456H362.298V24.744ZM389.219 24.744V22.2H375.755V24.744H381.059V39H383.891V24.744H389.219Z" fill="white"/>
<path d="M254.104 58.16C254.808 58.352 255.357 58.688 255.752 59.168C256.147 59.6373 256.344 60.2027 256.344 60.864C256.344 61.5253 256.131 62.1067 255.704 62.608C255.288 63.0987 254.728 63.4773 254.024 63.744C253.331 64 252.573 64.128 251.752 64.128C251.005 64.128 250.264 64.016 249.528 63.792C248.792 63.568 248.12 63.232 247.512 62.784L248.072 61.6C248.563 61.984 249.112 62.272 249.72 62.464C250.328 62.656 250.941 62.752 251.56 62.752C252.456 62.752 253.208 62.5653 253.816 62.192C254.424 61.808 254.728 61.2853 254.728 60.624C254.728 60.0587 254.499 59.6267 254.04 59.328C253.581 59.0187 252.936 58.864 252.104 58.864H249.608V57.568H251.992C252.707 57.568 253.261 57.424 253.656 57.136C254.061 56.8373 254.264 56.4267 254.264 55.904C254.264 55.3173 254.003 54.8533 253.48 54.512C252.957 54.1707 252.296 54 251.496 54C250.973 54 250.44 54.0747 249.896 54.224C249.363 54.3733 248.856 54.5973 248.376 54.896L247.864 53.584C248.429 53.264 249.027 53.024 249.656 52.864C250.285 52.704 250.915 52.624 251.544 52.624C252.333 52.624 253.059 52.7467 253.72 52.992C254.381 53.2373 254.904 53.5947 255.288 54.064C255.683 54.5333 255.88 55.0827 255.88 55.712C255.88 56.2773 255.72 56.7733 255.4 57.2C255.091 57.6267 254.659 57.9467 254.104 58.16ZM261.778 55.44C262.951 55.44 263.847 55.728 264.466 56.304C265.095 56.88 265.41 57.7387 265.41 58.88V64H263.954V62.88C263.698 63.2747 263.33 63.5787 262.85 63.792C262.38 63.9947 261.82 64.096 261.17 64.096C260.22 64.096 259.458 63.8667 258.882 63.408C258.316 62.9493 258.034 62.3467 258.034 61.6C258.034 60.8533 258.306 60.256 258.85 59.808C259.394 59.3493 260.258 59.12 261.442 59.12H263.874V58.816C263.874 58.1547 263.682 57.648 263.298 57.296C262.914 56.944 262.348 56.768 261.602 56.768C261.1 56.768 260.61 56.8533 260.13 57.024C259.65 57.184 259.244 57.4027 258.914 57.68L258.274 56.528C258.711 56.176 259.234 55.9093 259.842 55.728C260.45 55.536 261.095 55.44 261.778 55.44ZM261.426 62.912C262.012 62.912 262.519 62.784 262.946 62.528C263.372 62.2613 263.682 61.888 263.874 61.408V60.224H261.506C260.204 60.224 259.554 60.6613 259.554 61.536C259.554 61.9627 259.719 62.2987 260.05 62.544C260.38 62.7893 260.839 62.912 261.426 62.912ZM280.584 64V58.848L278.008 63.168H276.952L274.44 58.832V64H272.184V55.392H274.792L277.544 60.368L280.472 55.392H282.808L282.84 64H280.584ZM288.575 55.264C289.909 55.264 290.933 55.584 291.647 56.224C292.362 56.8533 292.719 57.808 292.719 59.088V64H290.383V62.928C289.914 63.728 289.039 64.128 287.759 64.128C287.098 64.128 286.522 64.016 286.031 63.792C285.551 63.568 285.183 63.2587 284.927 62.864C284.671 62.4693 284.543 62.0213 284.543 61.52C284.543 60.72 284.842 60.0907 285.439 59.632C286.047 59.1733 286.981 58.944 288.239 58.944H290.223C290.223 58.4 290.058 57.984 289.727 57.696C289.397 57.3973 288.901 57.248 288.239 57.248C287.781 57.248 287.327 57.3227 286.879 57.472C286.442 57.6107 286.069 57.8027 285.759 58.048L284.863 56.304C285.333 55.9733 285.893 55.7173 286.543 55.536C287.205 55.3547 287.882 55.264 288.575 55.264ZM288.383 62.448C288.81 62.448 289.189 62.352 289.519 62.16C289.85 61.9573 290.085 61.664 290.223 61.28V60.4H288.511C287.487 60.4 286.975 60.736 286.975 61.408C286.975 61.728 287.098 61.984 287.343 62.176C287.599 62.3573 287.946 62.448 288.383 62.448ZM298.68 60.736H297.384V64H294.888V55.392H297.384V58.736H298.728L301.064 55.392H303.72L300.712 59.52L303.928 64H300.984L298.68 60.736ZM308.984 64.128C308.066 64.128 307.24 63.9413 306.504 63.568C305.778 63.184 305.208 62.656 304.792 61.984C304.386 61.312 304.184 60.5493 304.184 59.696C304.184 58.8427 304.386 58.08 304.792 57.408C305.208 56.736 305.778 56.2133 306.504 55.84C307.24 55.456 308.066 55.264 308.984 55.264C309.89 55.264 310.68 55.456 311.352 55.84C312.034 56.2133 312.53 56.752 312.84 57.456L310.904 58.496C310.456 57.7067 309.81 57.312 308.968 57.312C308.317 57.312 307.778 57.5253 307.352 57.952C306.925 58.3787 306.712 58.96 306.712 59.696C306.712 60.432 306.925 61.0133 307.352 61.44C307.778 61.8667 308.317 62.08 308.968 62.08C309.821 62.08 310.466 61.6853 310.904 60.896L312.84 61.952C312.53 62.6347 312.034 63.168 311.352 63.552C310.68 63.936 309.89 64.128 308.984 64.128ZM314.356 55.392H316.836V60.512L321.028 55.392H323.316V64H320.836V58.88L316.66 64H314.356V55.392ZM334.116 64V58.848L331.54 63.168H330.484L327.972 58.832V64H325.716V55.392H328.324L331.076 60.368L334.004 55.392H336.34L336.372 64H334.116ZM342.107 55.264C343.44 55.264 344.464 55.584 345.179 56.224C345.893 56.8533 346.251 57.808 346.251 59.088V64H343.915V62.928C343.445 63.728 342.571 64.128 341.291 64.128C340.629 64.128 340.053 64.016 339.562 63.792C339.083 63.568 338.715 63.2587 338.459 62.864C338.203 62.4693 338.075 62.0213 338.075 61.52C338.075 60.72 338.373 60.0907 338.971 59.632C339.579 59.1733 340.512 58.944 341.771 58.944H343.755C343.755 58.4 343.589 57.984 343.259 57.696C342.928 57.3973 342.432 57.248 341.771 57.248C341.312 57.248 340.859 57.3227 340.411 57.472C339.973 57.6107 339.6 57.8027 339.291 58.048L338.395 56.304C338.864 55.9733 339.424 55.7173 340.075 55.536C340.736 55.3547 341.413 55.264 342.107 55.264ZM341.915 62.448C342.341 62.448 342.72 62.352 343.051 62.16C343.381 61.9573 343.616 61.664 343.755 61.28V60.4H342.043C341.019 60.4 340.507 60.736 340.507 61.408C340.507 61.728 340.629 61.984 340.875 62.176C341.131 62.3573 341.477 62.448 341.915 62.448ZM356.675 55.392V64H354.179V57.44H351.459L351.379 58.96C351.336 60.0907 351.229 61.0293 351.059 61.776C350.888 62.5227 350.611 63.1093 350.227 63.536C349.843 63.9627 349.309 64.176 348.627 64.176C348.264 64.176 347.832 64.112 347.331 63.984L347.459 61.936C347.629 61.9573 347.752 61.968 347.827 61.968C348.2 61.968 348.477 61.8347 348.659 61.568C348.851 61.2907 348.979 60.944 349.043 60.528C349.107 60.1013 349.155 59.5413 349.187 58.848L349.315 55.392H356.675ZM363.731 58.144C364.851 58.1547 365.71 58.4107 366.307 58.912C366.904 59.4027 367.203 60.1013 367.203 61.008C367.203 61.9573 366.867 62.6987 366.195 63.232C365.534 63.7547 364.6 64.016 363.395 64.016L359.075 64V55.392H361.555V58.144H363.731ZM363.171 62.24C363.651 62.2507 364.019 62.1493 364.275 61.936C364.531 61.7227 364.659 61.4027 364.659 60.976C364.659 60.56 364.531 60.256 364.275 60.064C364.03 59.872 363.662 59.7707 363.171 59.76L361.555 59.744V62.24H363.171ZM368.763 55.392H371.243V58.752H374.987V55.392H377.483V64H374.987V60.784H371.243V64H368.763V55.392ZM384.4 58.144C385.52 58.1547 386.368 58.4053 386.944 58.896C387.52 59.3867 387.808 60.0907 387.808 61.008C387.808 61.968 387.483 62.7093 386.832 63.232C386.181 63.7547 385.259 64.016 384.064 64.016L379.872 64V55.392H382.352V58.144H384.4ZM388.736 55.392H391.216V64H388.736V55.392ZM383.84 62.24C384.32 62.2507 384.688 62.1493 384.944 61.936C385.2 61.7227 385.328 61.4027 385.328 60.976C385.328 60.56 385.2 60.256 384.944 60.064C384.699 59.872 384.331 59.7707 383.84 59.76L382.352 59.744V62.24H383.84ZM393.622 55.392H396.102V60.512L400.294 55.392H402.582V64H400.102V58.88L395.926 64H393.622V55.392ZM397.942 54.464C396.065 54.464 395.121 53.6373 395.11 51.984H396.742C396.753 52.3573 396.854 52.6507 397.046 52.864C397.249 53.0667 397.542 53.168 397.926 53.168C398.31 53.168 398.603 53.0667 398.806 52.864C399.019 52.6507 399.126 52.3573 399.126 51.984H400.79C400.779 53.6373 399.83 54.464 397.942 54.464ZM413.545 64.128C412.638 64.128 411.822 63.9413 411.097 63.568C410.382 63.184 409.822 62.656 409.417 61.984C409.011 61.312 408.809 60.5493 408.809 59.696C408.809 58.8427 409.011 58.08 409.417 57.408C409.822 56.736 410.382 56.2133 411.097 55.84C411.822 55.456 412.638 55.264 413.545 55.264C414.451 55.264 415.262 55.456 415.977 55.84C416.691 56.2133 417.251 56.736 417.657 57.408C418.062 58.08 418.265 58.8427 418.265 59.696C418.265 60.5493 418.062 61.312 417.657 61.984C417.251 62.656 416.691 63.184 415.977 63.568C415.262 63.9413 414.451 64.128 413.545 64.128ZM413.545 62.08C414.185 62.08 414.707 61.8667 415.113 61.44C415.529 61.0027 415.737 60.4213 415.737 59.696C415.737 58.9707 415.529 58.3947 415.113 57.968C414.707 57.5307 414.185 57.312 413.545 57.312C412.905 57.312 412.377 57.5307 411.961 57.968C411.545 58.3947 411.337 58.9707 411.337 59.696C411.337 60.4213 411.545 61.0027 411.961 61.44C412.377 61.8667 412.905 62.08 413.545 62.08ZM424.957 55.984C425.779 55.984 426.499 56.1547 427.117 56.496C427.736 56.8267 428.211 57.296 428.541 57.904C428.883 58.512 429.053 59.216 429.053 60.016C429.053 60.8373 428.851 61.568 428.445 62.208C428.051 62.8373 427.496 63.328 426.781 63.68C426.067 64.0213 425.256 64.192 424.349 64.192C422.845 64.192 421.661 63.712 420.797 62.752C419.944 61.7813 419.517 60.3627 419.517 58.496C419.517 56.768 419.891 55.392 420.637 54.368C421.395 53.3333 422.552 52.656 424.109 52.336L428.205 51.52L428.541 53.664L424.925 54.384C423.944 54.576 423.213 54.896 422.733 55.344C422.264 55.792 421.987 56.4267 421.901 57.248C422.275 56.8427 422.723 56.5333 423.245 56.32C423.768 56.096 424.339 55.984 424.957 55.984ZM424.365 62.256C425.005 62.256 425.517 62.048 425.901 61.632C426.296 61.216 426.493 60.688 426.493 60.048C426.493 59.3973 426.296 58.88 425.901 58.496C425.517 58.112 425.005 57.92 424.365 57.92C423.715 57.92 423.192 58.112 422.797 58.496C422.403 58.88 422.205 59.3973 422.205 60.048C422.205 60.6987 422.408 61.232 422.813 61.648C423.219 62.0533 423.736 62.256 424.365 62.256ZM436.354 58.144C437.464 58.144 438.312 58.3947 438.898 58.896C439.496 59.3867 439.794 60.0853 439.794 60.992C439.794 61.9413 439.458 62.6827 438.786 63.216C438.125 63.7387 437.197 64 436.002 64H431.842V57.44H429.362V55.392H434.338V58.144H436.354ZM435.858 62.24C436.317 62.24 436.664 62.128 436.898 61.904C437.133 61.68 437.25 61.36 437.25 60.944C437.25 60.1547 436.786 59.76 435.858 59.76H434.338V62.24H435.858ZM449.709 59.728C449.709 59.76 449.693 59.984 449.661 60.4H443.149C443.266 60.9333 443.543 61.3547 443.981 61.664C444.418 61.9733 444.962 62.128 445.613 62.128C446.061 62.128 446.455 62.064 446.797 61.936C447.149 61.7973 447.474 61.584 447.773 61.296L449.101 62.736C448.29 63.664 447.106 64.128 445.549 64.128C444.578 64.128 443.719 63.9413 442.973 63.568C442.226 63.184 441.65 62.656 441.245 61.984C440.839 61.312 440.637 60.5493 440.637 59.696C440.637 58.8533 440.834 58.096 441.229 57.424C441.634 56.7413 442.183 56.2133 442.877 55.84C443.581 55.456 444.365 55.264 445.229 55.264C446.071 55.264 446.834 55.4453 447.517 55.808C448.199 56.1707 448.733 56.6933 449.117 57.376C449.511 58.048 449.709 58.832 449.709 59.728ZM445.245 57.152C444.679 57.152 444.205 57.312 443.821 57.632C443.437 57.952 443.202 58.3893 443.117 58.944H447.357C447.271 58.4 447.037 57.968 446.653 57.648C446.269 57.3173 445.799 57.152 445.245 57.152ZM460.022 64V58.848L457.446 63.168H456.39L453.878 58.832V64H451.622V55.392H454.23L456.982 60.368L459.91 55.392H462.246L462.278 64H460.022ZM475.574 56.864H472.47V64H470.934V56.864H467.83V55.52H475.574V56.864ZM480.401 64.096C479.559 64.096 478.801 63.9093 478.129 63.536C477.457 63.1627 476.929 62.6507 476.545 62C476.172 61.3387 475.985 60.592 475.985 59.76C475.985 58.928 476.172 58.1867 476.545 57.536C476.929 56.8747 477.457 56.3627 478.129 56C478.801 55.6267 479.559 55.44 480.401 55.44C481.244 55.44 481.996 55.6267 482.657 56C483.329 56.3627 483.852 56.8747 484.225 57.536C484.609 58.1867 484.801 58.928 484.801 59.76C484.801 60.592 484.609 61.3387 484.225 62C483.852 62.6507 483.329 63.1627 482.657 63.536C481.996 63.9093 481.244 64.096 480.401 64.096ZM480.401 62.752C480.945 62.752 481.431 62.6293 481.857 62.384C482.295 62.128 482.636 61.776 482.881 61.328C483.127 60.8693 483.249 60.3467 483.249 59.76C483.249 59.1733 483.127 58.656 482.881 58.208C482.636 57.7493 482.295 57.3973 481.857 57.152C481.431 56.9067 480.945 56.784 480.401 56.784C479.857 56.784 479.367 56.9067 478.929 57.152C478.503 57.3973 478.161 57.7493 477.905 58.208C477.66 58.656 477.537 59.1733 477.537 59.76C477.537 60.3467 477.66 60.8693 477.905 61.328C478.161 61.776 478.503 62.128 478.929 62.384C479.367 62.6293 479.857 62.752 480.401 62.752ZM491.515 55.44C492.337 55.44 493.073 55.6213 493.723 55.984C494.374 56.3467 494.881 56.8533 495.243 57.504C495.617 58.1547 495.803 58.9067 495.803 59.76C495.803 60.6133 495.617 61.3707 495.243 62.032C494.881 62.6827 494.374 63.1893 493.723 63.552C493.073 63.9147 492.337 64.096 491.515 64.096C490.907 64.096 490.347 63.9787 489.835 63.744C489.334 63.5093 488.907 63.168 488.555 62.72V67.104H487.019V55.52H488.491V56.864C488.833 56.3947 489.265 56.0427 489.787 55.808C490.31 55.5627 490.886 55.44 491.515 55.44ZM491.387 62.752C491.931 62.752 492.417 62.6293 492.843 62.384C493.281 62.128 493.622 61.776 493.867 61.328C494.123 60.8693 494.251 60.3467 494.251 59.76C494.251 59.1733 494.123 58.656 493.867 58.208C493.622 57.7493 493.281 57.3973 492.843 57.152C492.417 56.9067 491.931 56.784 491.387 56.784C490.854 56.784 490.369 56.912 489.931 57.168C489.505 57.4133 489.163 57.76 488.907 58.208C488.662 58.656 488.539 59.1733 488.539 59.76C488.539 60.3467 488.662 60.8693 488.907 61.328C489.153 61.776 489.494 62.128 489.931 62.384C490.369 62.6293 490.854 62.752 491.387 62.752ZM504.275 56.864H499.571V64H498.035V55.52H504.275V56.864ZM509.104 64.096C508.262 64.096 507.504 63.9093 506.832 63.536C506.16 63.1627 505.632 62.6507 505.248 62C504.875 61.3387 504.688 60.592 504.688 59.76C504.688 58.928 504.875 58.1867 505.248 57.536C505.632 56.8747 506.16 56.3627 506.832 56C507.504 55.6267 508.262 55.44 509.104 55.44C509.947 55.44 510.699 55.6267 511.36 56C512.032 56.3627 512.555 56.8747 512.928 57.536C513.312 58.1867 513.504 58.928 513.504 59.76C513.504 60.592 513.312 61.3387 512.928 62C512.555 62.6507 512.032 63.1627 511.36 63.536C510.699 63.9093 509.947 64.096 509.104 64.096ZM509.104 62.752C509.648 62.752 510.134 62.6293 510.56 62.384C510.998 62.128 511.339 61.776 511.584 61.328C511.83 60.8693 511.952 60.3467 511.952 59.76C511.952 59.1733 511.83 58.656 511.584 58.208C511.339 57.7493 510.998 57.3973 510.56 57.152C510.134 56.9067 509.648 56.784 509.104 56.784C508.56 56.784 508.07 56.9067 507.632 57.152C507.206 57.3973 506.864 57.7493 506.608 58.208C506.363 58.656 506.24 59.1733 506.24 59.76C506.24 60.3467 506.363 60.8693 506.608 61.328C506.864 61.776 507.206 62.128 507.632 62.384C508.07 62.6293 508.56 62.752 509.104 62.752ZM521.498 59.6C522.597 59.8773 523.146 60.5653 523.146 61.664C523.146 62.4107 522.864 62.9867 522.298 63.392C521.744 63.7973 520.912 64 519.802 64H515.722V55.52H519.658C520.661 55.52 521.445 55.712 522.01 56.096C522.576 56.4693 522.858 57.0027 522.858 57.696C522.858 58.144 522.736 58.5333 522.49 58.864C522.256 59.184 521.925 59.4293 521.498 59.6ZM517.226 59.168H519.53C520.117 59.168 520.56 59.0613 520.858 58.848C521.168 58.6347 521.322 58.3253 521.322 57.92C521.322 57.1093 520.725 56.704 519.53 56.704H517.226V59.168ZM519.69 62.816C520.33 62.816 520.81 62.7147 521.13 62.512C521.45 62.3093 521.61 61.9947 521.61 61.568C521.61 61.1307 521.461 60.8053 521.162 60.592C520.874 60.3787 520.416 60.272 519.786 60.272H517.226V62.816H519.69ZM525.311 52.8H527.119L526.815 60.464H525.599L525.311 52.8ZM526.223 64.096C525.924 64.096 525.673 64 525.471 63.808C525.268 63.6053 525.167 63.36 525.167 63.072C525.167 62.784 525.268 62.544 525.471 62.352C525.673 62.1493 525.924 62.048 526.223 62.048C526.521 62.048 526.767 62.1493 526.959 62.352C527.151 62.544 527.247 62.784 527.247 63.072C527.247 63.36 527.145 63.6053 526.943 63.808C526.751 64 526.511 64.096 526.223 64.096Z" fill="#2CBC90"/>
<ellipse cx="702" cy="39.5" rx="255" ry="261.5" fill="#48C89B" fill-opacity="0.1"/>
<ellipse opacity="0.1" cx="702.677" cy="39.558" rx="186.092" ry="191.214" transform="rotate(10.3586 702.677 39.558)" fill="white" fill-opacity="0.3"/>
<ellipse opacity="0.1" cx="702.036" cy="39.9049" rx="147.921" ry="152.798" transform="rotate(10.3586 702.036 39.9049)" fill="white" fill-opacity="0.3"/>
<ellipse opacity="0.2" cx="701.475" cy="39.1593" rx="97.0988" ry="100.335" transform="rotate(10.3586 701.475 39.1593)" fill="white" fill-opacity="0.45"/>
<g clip-path="url(#clip1_2820_26757)">
<path d="M732.324 37.5649C732.328 33.661 721.849 30.3937 707.921 29.6287L707.926 23.4085L725.318 23.4255L725.331 10.4804L677.772 10.4341L677.76 23.3791L695.151 23.3961L695.145 29.6466C681.468 30.4363 671.235 33.6494 671.231 37.5053C671.228 41.3618 681.455 44.5951 695.13 45.4101L695.108 67.7463L707.882 67.7587L707.904 45.4529C721.835 44.7167 732.321 41.4687 732.324 37.5649ZM701.774 41.3808C686.823 41.3663 674.704 39.0094 674.707 36.1149C674.709 33.6641 683.403 31.615 695.144 31.0539L695.142 32.5291L695.143 32.5291L695.138 38.5744C697.254 38.6968 699.479 38.762 701.777 38.7642C703.893 38.7663 705.948 38.7137 707.912 38.6159L707.92 31.0439C719.914 31.593 728.854 33.6809 728.852 36.1676C728.849 39.0622 716.725 41.3954 701.774 41.3808Z" fill="#48C89B"/>
</g>
<rect x="888" y="23" width="191" height="36" rx="5.48507" fill="url(#paint0_linear_2820_26757)"/>
<path d="M931.213 40.9805L934.103 33.5664H936.268L932.314 42.8789C932.189 43.1654 932.046 43.444 931.885 43.7148C931.728 43.9805 931.538 44.2174 931.314 44.4258C931.09 44.6341 930.82 44.8008 930.502 44.9258C930.184 45.0456 929.799 45.1055 929.346 45.1055C929.226 45.1055 929.08 45.1003 928.908 45.0898C928.741 45.0794 928.619 45.069 928.541 45.0586L928.557 43.5195C928.619 43.5299 928.723 43.5378 928.869 43.543C929.02 43.5482 929.13 43.5508 929.197 43.5508C929.499 43.5508 929.739 43.5013 929.916 43.4023C930.093 43.2982 930.234 43.1602 930.338 42.9883C930.447 42.8112 930.544 42.6185 930.627 42.4102L931.213 40.9805ZM929.041 33.5664L931.9 39.8633L932.463 41.9102L930.939 41.9648L926.9 33.5664H929.041ZM940.744 40.9023H939.119V39.9492H940.432C940.765 39.9492 941.031 39.9049 941.228 39.8164C941.432 39.7279 941.575 39.6055 941.658 39.4492C941.747 39.2878 941.791 39.1003 941.791 38.8867C941.791 38.6992 941.747 38.5221 941.658 38.3555C941.575 38.1836 941.432 38.043 941.228 37.9336C941.025 37.8242 940.749 37.7695 940.4 37.7695C940.114 37.7695 939.856 37.8164 939.627 37.9102C939.403 38.0039 939.226 38.1341 939.096 38.3008C938.965 38.4674 938.9 38.6602 938.9 38.8789H937.018C937.018 38.3529 937.166 37.8997 937.463 37.5195C937.765 37.1393 938.169 36.8477 938.674 36.6445C939.179 36.4414 939.734 36.3398 940.338 36.3398C940.853 36.3398 941.317 36.3945 941.728 36.5039C942.14 36.6081 942.489 36.7643 942.775 36.9727C943.067 37.1758 943.288 37.431 943.439 37.7383C943.596 38.0404 943.674 38.3919 943.674 38.793C943.674 39.0794 943.606 39.3503 943.471 39.6055C943.335 39.8607 943.14 40.0872 942.885 40.2852C942.63 40.4779 942.32 40.6289 941.955 40.7383C941.596 40.8477 941.192 40.9023 940.744 40.9023ZM939.119 40.3555H940.744C941.244 40.3555 941.687 40.4049 942.072 40.5039C942.458 40.5977 942.781 40.7383 943.041 40.9258C943.301 41.1133 943.497 41.3451 943.627 41.6211C943.762 41.8919 943.83 42.2044 943.83 42.5586C943.83 42.9544 943.744 43.3112 943.572 43.6289C943.406 43.9414 943.166 44.207 942.853 44.4258C942.546 44.6445 942.179 44.8112 941.752 44.9258C941.325 45.0404 940.853 45.0977 940.338 45.0977C939.775 45.0977 939.228 45.0039 938.697 44.8164C938.171 44.6289 937.736 44.3398 937.393 43.9492C937.054 43.5534 936.885 43.0508 936.885 42.4414H938.768C938.768 42.6549 938.833 42.8555 938.963 43.043C939.093 43.2305 939.281 43.3841 939.525 43.5039C939.77 43.6185 940.064 43.6758 940.408 43.6758C940.762 43.6758 941.051 43.6211 941.275 43.5117C941.499 43.3971 941.666 43.2487 941.775 43.0664C941.885 42.8789 941.939 42.681 941.939 42.4727C941.939 42.1914 941.885 41.9648 941.775 41.793C941.666 41.6211 941.499 41.4961 941.275 41.418C941.051 41.3346 940.77 41.293 940.432 41.293H939.119V40.3555ZM951.205 40.0195V41.5039H946.83V40.0195H951.205ZM947.377 36.4883V44.9414H945.494V36.4883H947.377ZM952.564 36.4883V44.9414H950.682V36.4883H952.564ZM959.338 43.2461V39.2148C959.338 38.9128 959.283 38.6523 959.174 38.4336C959.064 38.2148 958.898 38.0456 958.674 37.9258C958.455 37.806 958.179 37.7461 957.846 37.7461C957.538 37.7461 957.273 37.7982 957.049 37.9023C956.825 38.0065 956.65 38.1471 956.525 38.3242C956.4 38.5013 956.338 38.7018 956.338 38.9258H954.463C954.463 38.5924 954.544 38.2695 954.705 37.957C954.866 37.6445 955.101 37.3659 955.408 37.1211C955.715 36.8763 956.083 36.6836 956.51 36.543C956.937 36.4023 957.416 36.332 957.947 36.332C958.583 36.332 959.145 36.4388 959.635 36.6523C960.13 36.8659 960.518 37.1888 960.799 37.6211C961.085 38.0482 961.228 38.5846 961.228 39.2305V42.9883C961.228 43.3737 961.255 43.7201 961.307 44.0273C961.364 44.3294 961.445 44.5924 961.549 44.8164V44.9414H959.619C959.531 44.7383 959.46 44.4805 959.408 44.168C959.361 43.8503 959.338 43.543 959.338 43.2461ZM959.611 39.8008L959.627 40.9648H958.275C957.926 40.9648 957.619 40.9987 957.353 41.0664C957.088 41.1289 956.866 41.2227 956.689 41.3477C956.512 41.4727 956.38 41.6237 956.291 41.8008C956.202 41.9779 956.158 42.1784 956.158 42.4023C956.158 42.6263 956.21 42.832 956.314 43.0195C956.419 43.2018 956.57 43.3451 956.768 43.4492C956.971 43.5534 957.215 43.6055 957.502 43.6055C957.887 43.6055 958.223 43.5273 958.51 43.3711C958.801 43.2096 959.031 43.0143 959.197 42.7852C959.364 42.5508 959.452 42.3294 959.463 42.1211L960.072 42.957C960.01 43.1706 959.903 43.3997 959.752 43.6445C959.601 43.8893 959.403 44.1237 959.158 44.3477C958.919 44.5664 958.63 44.7461 958.291 44.8867C957.958 45.0273 957.572 45.0977 957.135 45.0977C956.583 45.0977 956.09 44.9883 955.658 44.7695C955.226 44.5456 954.887 44.2461 954.643 43.8711C954.398 43.4909 954.275 43.0612 954.275 42.582C954.275 42.1341 954.359 41.7383 954.525 41.3945C954.697 41.0456 954.947 40.7539 955.275 40.5195C955.609 40.2852 956.015 40.1081 956.494 39.9883C956.973 39.8633 957.52 39.8008 958.135 39.8008H959.611ZM966.994 36.4883V44.9414H965.103V36.4883H966.994ZM969.768 36.4883V37.9727H962.377V36.4883H969.768ZM972.424 39.1758H974.916C975.645 39.1758 976.265 39.2982 976.775 39.543C977.286 39.7878 977.674 40.1289 977.939 40.5664C978.21 40.9987 978.346 41.4935 978.346 42.0508C978.346 42.4622 978.27 42.8451 978.119 43.1992C977.968 43.5482 977.744 43.8529 977.447 44.1133C977.156 44.3737 976.796 44.5768 976.369 44.7227C975.947 44.8685 975.463 44.9414 974.916 44.9414H971.174V36.4883H973.064V43.4492H974.916C975.291 43.4492 975.59 43.3841 975.814 43.2539C976.038 43.1237 976.2 42.9544 976.299 42.7461C976.403 42.5378 976.455 42.3164 976.455 42.082C976.455 41.8424 976.403 41.6159 976.299 41.4023C976.2 41.1888 976.038 41.0143 975.814 40.8789C975.59 40.7435 975.291 40.6758 974.916 40.6758H972.424V39.1758ZM989.143 32.7852H990.666C990.666 33.2487 990.601 33.6315 990.471 33.9336C990.346 34.2305 990.158 34.4753 989.908 34.668C989.663 34.8555 989.359 35.0065 988.994 35.1211C988.635 35.2357 988.218 35.3398 987.744 35.4336C987.307 35.5273 986.911 35.6758 986.557 35.8789C986.208 36.0768 985.913 36.3555 985.674 36.7148C985.439 37.069 985.27 37.5247 985.166 38.082C985.062 38.6393 985.031 39.319 985.072 40.1211V40.6523L983.58 40.7852V40.2539C983.58 39.2591 983.671 38.3919 983.853 37.6523C984.036 36.9128 984.294 36.2904 984.627 35.7852C984.965 35.2747 985.366 34.8685 985.83 34.5664C986.299 34.2643 986.82 34.056 987.393 33.9414C987.783 33.8581 988.109 33.7747 988.369 33.6914C988.63 33.6029 988.822 33.4909 988.947 33.3555C989.077 33.2148 989.143 33.0247 989.143 32.7852ZM987.822 36.9648C988.385 36.9648 988.885 37.0638 989.322 37.2617C989.76 37.4544 990.13 37.7253 990.432 38.0742C990.734 38.4232 990.963 38.8346 991.119 39.3086C991.281 39.7826 991.361 40.2982 991.361 40.8555V41.0273C991.361 41.6107 991.275 42.1497 991.103 42.6445C990.932 43.1393 990.679 43.5716 990.346 43.9414C990.012 44.306 989.603 44.5924 989.119 44.8008C988.64 45.0039 988.09 45.1055 987.471 45.1055C986.856 45.1055 986.307 44.9987 985.822 44.7852C985.338 44.5716 984.929 44.2747 984.596 43.8945C984.262 43.5091 984.01 43.0586 983.838 42.543C983.666 42.0273 983.58 41.4648 983.58 40.8555V40.6836C983.575 40.5742 983.603 40.4674 983.666 40.3633C983.734 40.2591 983.814 40.1471 983.908 40.0273C984.002 39.9076 984.085 39.7695 984.158 39.6133C984.419 39.0872 984.726 38.6263 985.08 38.2305C985.434 37.8346 985.838 37.5247 986.291 37.3008C986.749 37.0768 987.26 36.9648 987.822 36.9648ZM987.455 38.457C986.986 38.457 986.603 38.569 986.307 38.793C986.015 39.0117 985.799 39.3034 985.658 39.668C985.523 40.0326 985.455 40.4284 985.455 40.8555V41.0273C985.455 41.3763 985.494 41.707 985.572 42.0195C985.65 42.332 985.768 42.6081 985.924 42.8477C986.085 43.082 986.294 43.2669 986.549 43.4023C986.809 43.5378 987.116 43.6055 987.471 43.6055C987.83 43.6055 988.135 43.5378 988.385 43.4023C988.64 43.2669 988.846 43.082 989.002 42.8477C989.163 42.6081 989.281 42.332 989.353 42.0195C989.432 41.707 989.471 41.3763 989.471 41.0273V40.8555C989.471 40.5326 989.432 40.2279 989.353 39.9414C989.281 39.6549 989.163 39.4023 989.002 39.1836C988.84 38.9596 988.632 38.7826 988.377 38.6523C988.122 38.5221 987.814 38.457 987.455 38.457ZM992.478 40.8086V40.6289C992.478 40.0195 992.567 39.4544 992.744 38.9336C992.921 38.4076 993.176 37.9518 993.51 37.5664C993.848 37.1758 994.26 36.8737 994.744 36.6602C995.234 36.4414 995.786 36.332 996.4 36.332C997.02 36.332 997.572 36.4414 998.057 36.6602C998.546 36.8737 998.96 37.1758 999.299 37.5664C999.637 37.9518 999.895 38.4076 1000.07 38.9336C1000.25 39.4544 1000.34 40.0195 1000.34 40.6289V40.8086C1000.34 41.418 1000.25 41.9831 1000.07 42.5039C999.895 43.0247 999.637 43.4805 999.299 43.8711C998.96 44.2565 998.549 44.5586 998.064 44.7773C997.58 44.9909 997.031 45.0977 996.416 45.0977C995.796 45.0977 995.241 44.9909 994.752 44.7773C994.268 44.5586 993.856 44.2565 993.518 43.8711C993.179 43.4805 992.921 43.0247 992.744 42.5039C992.567 41.9831 992.478 41.418 992.478 40.8086ZM994.361 40.6289V40.8086C994.361 41.1888 994.4 41.5482 994.478 41.8867C994.557 42.2253 994.679 42.5221 994.846 42.7773C995.012 43.0326 995.226 43.2331 995.486 43.3789C995.747 43.5247 996.057 43.5977 996.416 43.5977C996.765 43.5977 997.067 43.5247 997.322 43.3789C997.583 43.2331 997.796 43.0326 997.963 42.7773C998.13 42.5221 998.252 42.2253 998.33 41.8867C998.413 41.5482 998.455 41.1888 998.455 40.8086V40.6289C998.455 40.2539 998.413 39.8997 998.33 39.5664C998.252 39.2279 998.127 38.9284 997.955 38.668C997.788 38.4076 997.575 38.2044 997.314 38.0586C997.059 37.9076 996.755 37.832 996.4 37.832C996.046 37.832 995.739 37.9076 995.478 38.0586C995.223 38.2044 995.012 38.4076 994.846 38.668C994.679 38.9284 994.557 39.2279 994.478 39.5664C994.4 39.8997 994.361 40.2539 994.361 40.6289ZM1007.47 36.4883V37.9883H1003.35V36.4883H1007.47ZM1008.95 36.4883V44.9414H1007.06V36.4883H1008.95ZM1002.88 36.4883H1004.74L1004.52 40.668C1004.49 41.2878 1004.42 41.8346 1004.33 42.3086C1004.24 42.7773 1004.12 43.181 1003.97 43.5195C1003.82 43.8529 1003.63 44.1237 1003.42 44.332C1003.2 44.5404 1002.94 44.694 1002.65 44.793C1002.36 44.8919 1002.03 44.9414 1001.67 44.9414H1001.08L1001.07 43.3945L1001.37 43.3711C1001.56 43.3555 1001.73 43.306 1001.87 43.2227C1002.01 43.1341 1002.13 43.0091 1002.23 42.8477C1002.33 42.6862 1002.42 42.4779 1002.48 42.2227C1002.55 41.9674 1002.6 41.6654 1002.63 41.3164C1002.68 40.9674 1002.71 40.5612 1002.73 40.0977L1002.88 36.4883ZM1012.35 39.1758H1014.84C1015.57 39.1758 1016.19 39.2982 1016.7 39.543C1017.21 39.7878 1017.6 40.1289 1017.86 40.5664C1018.13 40.9987 1018.27 41.4935 1018.27 42.0508C1018.27 42.4622 1018.19 42.8451 1018.04 43.1992C1017.89 43.5482 1017.67 43.8529 1017.37 44.1133C1017.08 44.3737 1016.72 44.5768 1016.29 44.7227C1015.87 44.8685 1015.38 44.9414 1014.84 44.9414H1011.1V36.4883H1012.99V43.4492H1014.84C1015.21 43.4492 1015.51 43.3841 1015.74 43.2539C1015.96 43.1237 1016.12 42.9544 1016.22 42.7461C1016.32 42.5378 1016.38 42.3164 1016.38 42.082C1016.38 41.8424 1016.32 41.6159 1016.22 41.4023C1016.12 41.1888 1015.96 41.0143 1015.74 40.8789C1015.51 40.7435 1015.21 40.6758 1014.84 40.6758H1012.35V39.1758ZM1019.84 36.4883H1021.72V43.4414H1024.4V36.4883H1026.3V43.4414H1028.97V36.4883H1030.85V44.9414H1019.84V36.4883ZM1036.61 45.0977C1035.99 45.0977 1035.42 44.9961 1034.92 44.793C1034.42 44.5846 1033.99 44.2956 1033.63 43.9258C1033.29 43.556 1033.02 43.1211 1032.83 42.6211C1032.64 42.1211 1032.55 41.582 1032.55 41.0039V40.6914C1032.55 40.0299 1032.65 39.431 1032.84 38.8945C1033.03 38.3581 1033.3 37.8997 1033.64 37.5195C1033.99 37.1341 1034.39 36.8398 1034.86 36.6367C1035.33 36.4336 1035.84 36.332 1036.38 36.332C1036.99 36.332 1037.52 36.4336 1037.97 36.6367C1038.42 36.8398 1038.8 37.1263 1039.1 37.4961C1039.4 37.8607 1039.62 38.2956 1039.77 38.8008C1039.92 39.306 1039.99 39.8633 1039.99 40.4727V41.2773H1033.46V39.9258H1038.13V39.7773C1038.12 39.4388 1038.06 39.1211 1037.93 38.8242C1037.81 38.5273 1037.63 38.2878 1037.38 38.1055C1037.13 37.9232 1036.79 37.832 1036.38 37.832C1036.06 37.832 1035.79 37.8997 1035.54 38.0352C1035.3 38.1654 1035.1 38.3555 1034.94 38.6055C1034.78 38.8555 1034.65 39.1576 1034.56 39.5117C1034.48 39.8607 1034.44 40.2539 1034.44 40.6914V41.0039C1034.44 41.3737 1034.49 41.7174 1034.59 42.0352C1034.69 42.3477 1034.84 42.6211 1035.04 42.8555C1035.24 43.0898 1035.48 43.2747 1035.76 43.4102C1036.04 43.5404 1036.36 43.6055 1036.72 43.6055C1037.17 43.6055 1037.58 43.5143 1037.93 43.332C1038.29 43.1497 1038.59 42.8919 1038.85 42.5586L1039.85 43.5195C1039.66 43.7852 1039.43 44.0404 1039.13 44.2852C1038.84 44.5247 1038.49 44.7201 1038.06 44.8711C1037.65 45.0221 1037.16 45.0977 1036.61 45.0977Z" fill="white"/>
<path d="M47.1893 32.079L40.6485 42.9755C39.6396 44.6551 40.8503 46.7867 42.8187 46.7981L55.7803 46.868C57.7486 46.8794 58.9822 44.7591 57.9923 43.0701L51.5714 32.1035C50.5987 30.4372 48.1811 30.424 47.1893 32.079Z" fill="#4E55A2"/>
<path d="M62.5682 45.6133L56.0274 34.7168C55.0185 33.0372 56.2292 30.9056 58.1976 30.8942L71.1592 30.8243C73.1275 30.8129 74.3611 32.9332 73.3712 34.6222L66.9503 45.5888C65.9776 47.2551 63.5619 47.2683 62.5682 45.6133Z" fill="#EA5045"/>
<path d="M103.871 30.8594H93.3893C92.9372 30.8594 92.5703 31.2239 92.5703 31.6731V33.6123C92.5703 34.0615 92.9372 34.426 93.3893 34.426H96.7652V46.2563C96.7652 46.7055 97.132 47.07 97.5841 47.07H99.6754C100.127 47.07 100.494 46.7055 100.494 46.2563V34.426H103.87C104.322 34.426 104.689 34.0615 104.689 33.6123V31.6731C104.689 31.2239 104.324 30.8594 103.871 30.8594Z" fill="white"/>
<path d="M119.105 43.0269L117.375 42.0303C117.039 41.8376 116.619 41.9198 116.368 42.2132C115.625 43.0858 114.446 43.5878 113.108 43.5878C110.323 43.5878 108.527 41.7357 108.527 38.946C108.527 36.1563 110.324 34.3042 113.108 34.3042C114.449 34.3042 115.615 34.8087 116.366 35.685C116.616 35.9771 117.035 36.0568 117.37 35.8642L119.102 34.8663C119.522 34.6245 119.622 34.0673 119.318 33.6918C117.881 31.9158 115.627 30.8223 113.11 30.8223C108.37 30.8223 104.934 34.3484 104.934 38.946C104.934 43.5436 108.37 47.0697 113.11 47.0697C115.647 47.0697 117.904 45.975 119.325 44.199C119.626 43.8222 119.524 43.2674 119.105 43.0269Z" fill="white"/>
<path d="M128.581 38.3711H123.091C122.748 38.3711 122.469 38.7356 122.469 39.1848V40.8933C122.469 41.3425 122.748 41.707 123.091 41.707H128.581C128.924 41.707 129.203 41.3425 129.203 40.8933V39.1848C129.203 38.7344 128.924 38.3711 128.581 38.3711Z" fill="white"/>
<path d="M89.2838 38.74C90.1917 38.1693 91.0588 36.9874 91.0588 35.4729C91.0588 32.607 89.0861 30.8262 85.9116 30.8262H81.3733C80.9039 30.8262 80.2616 30.8262 79.7675 31.3171C79.2734 31.808 79.2734 32.4463 79.2734 32.9114V44.9823C79.2734 45.4487 79.2734 46.0869 79.7675 46.5778C80.2616 47.0687 80.9039 47.0687 81.3733 47.0687H86.1809C89.3282 47.0687 91.2836 45.2449 91.2836 42.3104C91.2836 40.2607 90.1497 39.2285 89.2838 38.74ZM82.8 33.9731H85.6658C86.8355 33.9731 87.5335 34.583 87.5335 35.6066C87.5335 36.6302 86.8355 37.2402 85.6658 37.2402H82.8V33.9731ZM85.8671 43.9206H82.8V40.4092H85.8671C87.0505 40.4092 87.7583 41.0609 87.7583 42.1545C87.7583 43.0075 87.2605 43.9206 85.8671 43.9206Z" fill="white"/>
<path d="M162.856 34.8711C161.297 34.8711 160.163 35.3939 159.384 36.2764V35.7744C159.384 35.4038 159.174 35.1951 158.801 35.1951H156.47C156.097 35.1951 155.887 35.4038 155.887 35.7744V50.8265C155.887 51.1971 156.097 51.4058 156.47 51.4058H158.801C159.174 51.4058 159.384 51.1971 159.384 50.8265V45.6925C160.163 46.575 161.297 47.0978 162.856 47.0978C165.909 47.0978 168.426 44.4345 168.426 40.9845C168.426 37.5344 165.909 34.8711 162.856 34.8711ZM162.157 43.8098C160.549 43.8098 159.384 42.7211 159.384 40.9845C159.384 39.2478 160.549 38.1591 162.157 38.1591C163.765 38.1591 164.93 39.2478 164.93 40.9845C164.93 42.7211 163.765 43.8098 162.157 43.8098Z" fill="white"/>
<path d="M142.506 31.3454C142.413 31.0214 142.156 30.8594 141.83 30.8594H138.101C137.775 30.8594 137.518 31.0214 137.425 31.3454L132.484 46.4208C132.345 46.8381 132.555 47.0688 132.974 47.0688H135.841C136.167 47.0688 136.4 46.9301 136.493 46.5828L137.105 44.5221H142.825L143.437 46.5828C143.531 46.9301 143.763 47.0688 144.089 47.0688H146.956C147.376 47.0688 147.585 46.8368 147.446 46.4208L142.506 31.3454ZM138.139 41.0487L139.965 34.912L141.791 41.0487H138.139Z" fill="white"/>
<path d="M152.05 30.8574H149.703C149.386 30.8574 149.129 31.1127 149.129 31.4281V46.4974C149.129 46.8128 149.386 47.0681 149.703 47.0681H152.05C152.368 47.0681 152.625 46.8128 152.625 46.4974V31.4281C152.625 31.1127 152.368 30.8574 152.05 30.8574Z" fill="white"/>
<path d="M176.982 35.1654C175.444 35.1654 174.278 35.7214 173.649 36.578V31.6711C173.649 31.2219 173.282 30.8574 172.83 30.8574H170.971C170.519 30.8574 170.152 31.2219 170.152 31.6711V46.2543C170.152 46.7036 170.519 47.0681 170.971 47.0681H172.83C173.282 47.0681 173.649 46.7036 173.649 46.2543V40.7461C173.649 39.1014 174.535 38.3614 175.817 38.3614C176.936 38.3614 177.845 39.0327 177.845 40.4687V46.2556C177.845 46.7048 178.212 47.0693 178.664 47.0693H180.523C180.975 47.0693 181.342 46.7048 181.342 46.2556V39.9593C181.34 36.8333 179.335 35.1654 176.982 35.1654Z" fill="white"/>
<path d="M192.581 36.148C191.643 35.306 190.281 34.8789 188.531 34.8789C187.562 34.8789 186.631 35.0053 185.762 35.2532C185.329 35.3772 184.741 35.6681 184.258 35.9307C183.861 36.1455 183.849 36.7076 184.238 36.9359L185.867 37.8969C185.919 37.9276 185.981 37.9313 186.037 37.9104C186.136 37.8711 186.238 37.8343 186.343 37.8012C186.951 37.6073 187.577 37.5079 188.206 37.5079C189.108 37.5079 189.791 37.7091 190.238 38.1056C190.68 38.4995 190.897 39.0531 190.901 39.7981H188.098C186.395 39.7981 185.123 40.1282 184.316 40.7799C183.497 41.4415 183.082 42.3301 183.082 43.4212C183.082 44.1195 183.272 44.7541 183.647 45.3088C184.02 45.8611 184.554 46.298 185.236 46.6073C185.911 46.9129 186.705 47.0676 187.597 47.0676C188.487 47.0676 189.263 46.9277 189.901 46.6527C190.355 46.4564 190.74 46.1949 191.052 45.8709V45.9532C191.052 46.4858 191.487 46.9166 192.021 46.9166H193.032C193.568 46.9166 194.001 46.4846 194.001 45.9532V39.9699C194.001 38.2811 193.523 36.9961 192.581 36.148ZM190.899 43.0849C190.697 43.6004 190.353 44.0029 189.876 44.2815C189.38 44.5712 188.802 44.7185 188.161 44.7185C187.512 44.7185 187.003 44.5859 186.648 44.3245C186.306 44.0729 186.14 43.7427 186.14 43.3144C186.14 42.983 186.14 41.9754 188.292 41.9754H190.9V43.0849H190.899Z" fill="white"/>
<path d="M1057.69 40.0025C1057.69 40.1775 1057.62 40.3575 1057.49 40.4925L1052.18 45.8025C1051.91 46.0725 1051.47 46.0725 1051.2 45.8025C1050.93 45.5325 1050.93 45.0975 1051.2 44.8275L1056.03 40.0025L1051.2 35.1775C1050.93 34.9075 1050.93 34.4725 1051.2 34.2025C1051.47 33.9325 1051.91 33.9325 1052.18 34.2025L1057.49 39.5125C1057.62 39.6525 1057.69 39.8275 1057.69 40.0025Z" fill="white"/>
</g>
<defs>
<linearGradient id="paint0_linear_2820_26757" x1="983.5" y1="23" x2="983.5" y2="59" gradientUnits="userSpaceOnUse">
<stop stop-color="#38D1A2"/>
<stop offset="1" stop-color="#17BB88"/>
</linearGradient>
<clipPath id="clip0_2820_26757">
<rect width="1100" height="80" fill="white"/>
</clipPath>
<clipPath id="clip1_2820_26757">
<rect width="61.3267" height="62.1485" fill="white" transform="translate(671 8) rotate(0.0558185)"/>
</clipPath>
</defs>
</svg>
