<svg width="320" height="80" viewBox="0 0 320 80" fill="none" xmlns="http://www.w3.org/2000/svg">
<g clip-path="url(#clip0_2821_23901)">
<rect width="320" height="80" fill="#282828"/>
<path d="M304.249 56.0033C304.249 56.2367 304.162 56.4767 303.982 56.6567L296.902 63.7367C296.542 64.0967 295.962 64.0967 295.602 63.7367C295.242 63.3767 295.242 62.7967 295.602 62.4367L302.035 56.0033L295.602 49.57C295.242 49.21 295.242 48.63 295.602 48.27C295.962 47.91 296.542 47.91 296.902 48.27L303.982 55.35C304.162 55.5367 304.249 55.77 304.249 56.0033Z" fill="#48C89B"/>
<ellipse cx="152" cy="44" rx="128" ry="131" fill="#48C89B" fill-opacity="0.1"/>
<ellipse opacity="0.1" cx="168.974" cy="51.1072" rx="88.6445" ry="91.0843" transform="rotate(10.3586 168.974 51.1072)" fill="white" fill-opacity="0.3"/>
<ellipse opacity="0.1" cx="185.621" cy="41.3895" rx="74.006" ry="76.4457" transform="rotate(10.3586 185.621 41.3895)" fill="white" fill-opacity="0.3"/>
<ellipse opacity="0.2" cx="196.168" cy="39.1153" rx="48.5792" ry="50.1985" transform="rotate(10.3586 196.168 39.1153)" fill="white" fill-opacity="0.45"/>
<g clip-path="url(#clip1_2821_23901)">
<path d="M214.424 40.5423C214.426 38.2258 208.208 36.287 199.943 35.833L199.946 32.1421L210.266 32.1521L210.274 24.4707L182.053 24.4432L182.046 32.1247L192.365 32.1347L192.362 35.8437C184.246 36.3123 178.174 38.2189 178.172 40.5069C178.17 42.7953 184.238 44.7139 192.353 45.1975L192.34 58.4515L199.92 58.4589L199.933 45.2229C208.2 44.7861 214.421 42.8588 214.424 40.5423ZM196.295 42.8066C187.423 42.798 180.233 41.3994 180.234 39.6819C180.236 38.2276 185.394 37.0117 192.361 36.6787L192.36 37.5541L192.361 37.5541L192.357 41.1413C193.613 41.2139 194.933 41.2526 196.297 41.2539C197.553 41.2552 198.772 41.224 199.938 41.1659L199.942 36.6728C207.059 36.9986 212.365 38.2376 212.363 39.7132C212.361 41.4307 205.167 42.8153 196.295 42.8066Z" fill="#48C89B"/>
</g>
<path d="M23.772 43.255C24.344 43.411 24.7903 43.684 25.111 44.074C25.4317 44.4553 25.592 44.9147 25.592 45.452C25.592 45.9893 25.4187 46.4617 25.072 46.869C24.734 47.2677 24.279 47.5753 23.707 47.792C23.1437 48 22.5283 48.104 21.861 48.104C21.2543 48.104 20.652 48.013 20.054 47.831C19.456 47.649 18.91 47.376 18.416 47.012L18.871 46.05C19.2697 46.362 19.716 46.596 20.21 46.752C20.704 46.908 21.2023 46.986 21.705 46.986C22.433 46.986 23.044 46.8343 23.538 46.531C24.032 46.219 24.279 45.7943 24.279 45.257C24.279 44.7977 24.0927 44.4467 23.72 44.204C23.3473 43.9527 22.823 43.827 22.147 43.827H20.119V42.774H22.056C22.6367 42.774 23.0873 42.657 23.408 42.423C23.7373 42.1803 23.902 41.8467 23.902 41.422C23.902 40.9453 23.6897 40.5683 23.265 40.291C22.8403 40.0137 22.303 39.875 21.653 39.875C21.2283 39.875 20.795 39.9357 20.353 40.057C19.9197 40.1783 19.508 40.3603 19.118 40.603L18.702 39.537C19.1613 39.277 19.6467 39.082 20.158 38.952C20.6693 38.822 21.1807 38.757 21.692 38.757C22.3333 38.757 22.9227 38.8567 23.46 39.056C23.9973 39.2553 24.422 39.5457 24.734 39.927C25.0547 40.3083 25.215 40.7547 25.215 41.266C25.215 41.7253 25.085 42.1283 24.825 42.475C24.5737 42.8217 24.2227 43.0817 23.772 43.255ZM30.0068 41.045C30.9602 41.045 31.6882 41.279 32.1908 41.747C32.7022 42.215 32.9578 42.9127 32.9578 43.84V48H31.7748V47.09C31.5668 47.4107 31.2678 47.6577 30.8778 47.831C30.4965 47.9957 30.0415 48.078 29.5128 48.078C28.7415 48.078 28.1218 47.8917 27.6538 47.519C27.1945 47.1463 26.9648 46.6567 26.9648 46.05C26.9648 45.4433 27.1858 44.958 27.6278 44.594C28.0698 44.2213 28.7718 44.035 29.7338 44.035H31.7098V43.788C31.7098 43.2507 31.5538 42.839 31.2418 42.553C30.9298 42.267 30.4705 42.124 29.8638 42.124C29.4565 42.124 29.0578 42.1933 28.6678 42.332C28.2778 42.462 27.9485 42.6397 27.6798 42.865L27.1598 41.929C27.5152 41.643 27.9398 41.4263 28.4338 41.279C28.9278 41.123 29.4522 41.045 30.0068 41.045ZM29.7208 47.116C30.1975 47.116 30.6092 47.012 30.9558 46.804C31.3025 46.5873 31.5538 46.284 31.7098 45.894V44.932H29.7858C28.7285 44.932 28.1998 45.2873 28.1998 45.998C28.1998 46.3447 28.3342 46.6177 28.6028 46.817C28.8715 47.0163 29.2442 47.116 29.7208 47.116ZM46.6393 41.11V48H45.5083V42.969L42.9343 47.22H42.3883L39.8403 42.956V48H38.6963V41.11H39.9833L42.6873 45.764L45.4693 41.11H46.6393ZM51.5254 41.045C52.4787 41.045 53.2067 41.279 53.7094 41.747C54.2207 42.215 54.4764 42.9127 54.4764 43.84V48H53.2934V47.09C53.0854 47.4107 52.7864 47.6577 52.3964 47.831C52.015 47.9957 51.56 48.078 51.0314 48.078C50.26 48.078 49.6404 47.8917 49.1724 47.519C48.713 47.1463 48.4834 46.6567 48.4834 46.05C48.4834 45.4433 48.7044 44.958 49.1464 44.594C49.5884 44.2213 50.2904 44.035 51.2524 44.035H53.2284V43.788C53.2284 43.2507 53.0724 42.839 52.7604 42.553C52.4484 42.267 51.989 42.124 51.3824 42.124C50.975 42.124 50.5764 42.1933 50.1864 42.332C49.7964 42.462 49.467 42.6397 49.1984 42.865L48.6784 41.929C49.0337 41.643 49.4584 41.4263 49.9524 41.279C50.4464 41.123 50.9707 41.045 51.5254 41.045ZM51.2394 47.116C51.716 47.116 52.1277 47.012 52.4744 46.804C52.821 46.5873 53.0724 46.284 53.2284 45.894V44.932H51.3044C50.247 44.932 49.7184 45.2873 49.7184 45.998C49.7184 46.3447 49.8527 46.6177 50.1214 46.817C50.39 47.0163 50.7627 47.116 51.2394 47.116ZM59.4016 45.088H57.9716V48H56.7236V41.11H57.9716V44.022H59.4276L61.6636 41.11H63.0026L60.3896 44.425L63.1846 48H61.7156L59.4016 45.088ZM67.2677 48.078C66.5657 48.078 65.9373 47.9263 65.3827 47.623C64.8367 47.3197 64.4077 46.9037 64.0957 46.375C63.7837 45.8377 63.6277 45.231 63.6277 44.555C63.6277 43.879 63.7837 43.2767 64.0957 42.748C64.4077 42.2107 64.8367 41.7947 65.3827 41.5C65.9373 41.1967 66.5657 41.045 67.2677 41.045C67.8917 41.045 68.4463 41.1707 68.9317 41.422C69.4257 41.6733 69.807 42.0373 70.0757 42.514L69.1267 43.125C68.91 42.7957 68.6413 42.5487 68.3207 42.384C68 42.2193 67.6447 42.137 67.2547 42.137C66.804 42.137 66.3967 42.2367 66.0327 42.436C65.6773 42.6353 65.3957 42.9213 65.1877 43.294C64.9883 43.658 64.8887 44.0783 64.8887 44.555C64.8887 45.0403 64.9883 45.4693 65.1877 45.842C65.3957 46.206 65.6773 46.4877 66.0327 46.687C66.3967 46.8863 66.804 46.986 67.2547 46.986C67.6447 46.986 68 46.9037 68.3207 46.739C68.6413 46.5743 68.91 46.3273 69.1267 45.998L70.0757 46.596C69.807 47.0727 69.4257 47.441 68.9317 47.701C68.4463 47.9523 67.8917 48.078 67.2677 48.078ZM71.6914 41.11H72.9394V46.128L77.1644 41.11H78.2954V48H77.0474V42.982L72.8354 48H71.6914V41.11ZM88.6608 41.11V48H87.5298V42.969L84.9558 47.22H84.4098L81.8618 42.956V48H80.7178V41.11H82.0048L84.7088 45.764L87.4908 41.11H88.6608ZM93.5469 41.045C94.5002 41.045 95.2282 41.279 95.7309 41.747C96.2422 42.215 96.4979 42.9127 96.4979 43.84V48H95.3149V47.09C95.1069 47.4107 94.8079 47.6577 94.4179 47.831C94.0365 47.9957 93.5815 48.078 93.0529 48.078C92.2815 48.078 91.6619 47.8917 91.1939 47.519C90.7345 47.1463 90.5049 46.6567 90.5049 46.05C90.5049 45.4433 90.7259 44.958 91.1679 44.594C91.6099 44.2213 92.3119 44.035 93.2739 44.035H95.2499V43.788C95.2499 43.2507 95.0939 42.839 94.7819 42.553C94.4699 42.267 94.0105 42.124 93.4039 42.124C92.9965 42.124 92.5979 42.1933 92.2079 42.332C91.8179 42.462 91.4885 42.6397 91.2199 42.865L90.6999 41.929C91.0552 41.643 91.4799 41.4263 91.9739 41.279C92.4679 41.123 92.9922 41.045 93.5469 41.045ZM93.2609 47.116C93.7375 47.116 94.1492 47.012 94.4959 46.804C94.8425 46.5873 95.0939 46.284 95.2499 45.894V44.932H93.3259C92.2685 44.932 91.7399 45.2873 91.7399 45.998C91.7399 46.3447 91.8742 46.6177 92.1429 46.817C92.4115 47.0163 92.7842 47.116 93.2609 47.116ZM104.66 41.11V48H103.412V42.202H100.448L100.37 43.736C100.327 44.6633 100.244 45.439 100.123 46.063C100.002 46.6783 99.8025 47.1723 99.5251 47.545C99.2478 47.9177 98.8621 48.104 98.3681 48.104C98.1428 48.104 97.8871 48.065 97.6011 47.987L97.6791 46.934C97.7918 46.96 97.8958 46.973 97.9911 46.973C98.3378 46.973 98.5978 46.8213 98.7711 46.518C98.9445 46.2147 99.0571 45.855 99.1091 45.439C99.1611 45.023 99.2088 44.4293 99.2521 43.658L99.3691 41.11H104.66ZM110.258 43.45C111.134 43.4587 111.801 43.658 112.26 44.048C112.72 44.438 112.949 44.9883 112.949 45.699C112.949 46.4443 112.698 47.0207 112.195 47.428C111.701 47.8267 110.991 48.0217 110.063 48.013L107.073 48V41.11H108.321V43.437L110.258 43.45ZM109.959 47.064C110.523 47.0727 110.947 46.96 111.233 46.726C111.528 46.492 111.675 46.1453 111.675 45.686C111.675 45.2353 111.532 44.906 111.246 44.698C110.969 44.49 110.54 44.3817 109.959 44.373L108.321 44.347V47.051L109.959 47.064ZM114.551 41.11H115.799V44.035H119.725V41.11H120.973V48H119.725V45.114H115.799V48H114.551V41.11ZM126.506 43.45C127.373 43.4587 128.036 43.658 128.495 44.048C128.955 44.438 129.184 44.9883 129.184 45.699C129.184 46.4443 128.933 47.0207 128.43 47.428C127.936 47.8267 127.226 48.0217 126.298 48.013L123.399 48V41.11H124.647V43.437L126.506 43.45ZM130.211 41.11H131.459V48H130.211V41.11ZM126.207 47.064C126.771 47.0727 127.195 46.96 127.481 46.726C127.776 46.492 127.923 46.1453 127.923 45.686C127.923 45.2353 127.78 44.906 127.494 44.698C127.208 44.49 126.779 44.3817 126.207 44.373L124.647 44.347V47.051L126.207 47.064ZM133.886 41.11H135.134V46.128L139.359 41.11H140.49V48H139.242V42.982L135.03 48H133.886V41.11ZM137.11 40.213C136.468 40.213 135.97 40.0613 135.615 39.758C135.259 39.446 135.077 38.9997 135.069 38.419H135.914C135.922 38.7397 136.031 38.9997 136.239 39.199C136.455 39.3897 136.741 39.485 137.097 39.485C137.452 39.485 137.738 39.3897 137.955 39.199C138.171 38.9997 138.284 38.7397 138.293 38.419H139.164C139.155 38.9997 138.969 39.446 138.605 39.758C138.241 40.0613 137.742 40.213 137.11 40.213ZM22.16 64.078C21.4753 64.078 20.86 63.9263 20.314 63.623C19.768 63.3197 19.339 62.9037 19.027 62.375C18.7237 61.8377 18.572 61.231 18.572 60.555C18.572 59.879 18.7237 59.2767 19.027 58.748C19.339 58.2107 19.768 57.7947 20.314 57.5C20.86 57.1967 21.4753 57.045 22.16 57.045C22.8447 57.045 23.4557 57.1967 23.993 57.5C24.539 57.7947 24.9637 58.2107 25.267 58.748C25.579 59.2767 25.735 59.879 25.735 60.555C25.735 61.231 25.579 61.8377 25.267 62.375C24.9637 62.9037 24.539 63.3197 23.993 63.623C23.4557 63.9263 22.8447 64.078 22.16 64.078ZM22.16 62.986C22.602 62.986 22.9963 62.8863 23.343 62.687C23.6983 62.479 23.9757 62.193 24.175 61.829C24.3743 61.4563 24.474 61.0317 24.474 60.555C24.474 60.0783 24.3743 59.658 24.175 59.294C23.9757 58.9213 23.6983 58.6353 23.343 58.436C22.9963 58.2367 22.602 58.137 22.16 58.137C21.718 58.137 21.3193 58.2367 20.964 58.436C20.6173 58.6353 20.34 58.9213 20.132 59.294C19.9327 59.658 19.833 60.0783 19.833 60.555C19.833 61.0317 19.9327 61.4563 20.132 61.829C20.34 62.193 20.6173 62.479 20.964 62.687C21.3193 62.8863 21.718 62.986 22.16 62.986ZM31.0471 57.344C31.6885 57.344 32.2605 57.487 32.7631 57.773C33.2658 58.059 33.6558 58.4577 33.9331 58.969C34.2191 59.4717 34.3621 60.048 34.3621 60.698C34.3621 61.3653 34.2105 61.959 33.9071 62.479C33.6125 62.9903 33.1921 63.389 32.6461 63.675C32.1088 63.961 31.4935 64.104 30.8001 64.104C29.6301 64.104 28.7245 63.7053 28.0831 62.908C27.4505 62.102 27.1341 60.971 27.1341 59.515C27.1341 58.1023 27.4245 56.9973 28.0051 56.2C28.5858 55.394 29.4741 54.861 30.6701 54.601L33.8161 53.899L33.9981 55.043L31.0991 55.667C30.1978 55.8663 29.5261 56.2043 29.0841 56.681C28.6421 57.1577 28.3908 57.8423 28.3301 58.735C28.6248 58.293 29.0061 57.9507 29.4741 57.708C29.9421 57.4653 30.4665 57.344 31.0471 57.344ZM30.8261 63.064C31.2681 63.064 31.6581 62.9643 31.9961 62.765C32.3428 62.5657 32.6115 62.2927 32.8021 61.946C32.9928 61.5907 33.0881 61.1877 33.0881 60.737C33.0881 60.0523 32.8801 59.502 32.4641 59.086C32.0481 58.67 31.5021 58.462 30.8261 58.462C30.1501 58.462 29.5998 58.67 29.1751 59.086C28.7591 59.502 28.5511 60.0523 28.5511 60.737C28.5511 61.1877 28.6465 61.5907 28.8371 61.946C29.0365 62.2927 29.3095 62.5657 29.6561 62.765C30.0028 62.9643 30.3928 63.064 30.8261 63.064ZM39.9596 59.437C40.809 59.437 41.459 59.6363 41.9096 60.035C42.369 60.425 42.5986 60.9753 42.5986 61.686C42.5986 62.4227 42.3473 62.9947 41.8446 63.402C41.3506 63.8007 40.6486 64 39.7386 64H36.8396V58.202H34.7336V57.11H38.0876V59.437H39.9596ZM39.6996 63.051C40.237 63.051 40.6443 62.934 40.9216 62.7C41.199 62.466 41.3376 62.1193 41.3376 61.66C41.3376 61.218 41.199 60.893 40.9216 60.685C40.653 60.4683 40.2456 60.36 39.6996 60.36H38.0876V63.051H39.6996ZM50.4204 60.594C50.4204 60.6893 50.4117 60.815 50.3944 60.971H44.8044C44.8824 61.5777 45.1467 62.0673 45.5974 62.44C46.0567 62.804 46.6244 62.986 47.3004 62.986C48.1237 62.986 48.7867 62.7087 49.2894 62.154L49.9784 62.96C49.6664 63.324 49.2764 63.6013 48.8084 63.792C48.349 63.9827 47.8334 64.078 47.2614 64.078C46.5334 64.078 45.8877 63.9307 45.3244 63.636C44.761 63.3327 44.3234 62.9123 44.0114 62.375C43.708 61.8377 43.5564 61.231 43.5564 60.555C43.5564 59.8877 43.7037 59.2853 43.9984 58.748C44.3017 58.2107 44.7134 57.7947 45.2334 57.5C45.762 57.1967 46.3557 57.045 47.0144 57.045C47.673 57.045 48.258 57.1967 48.7694 57.5C49.2894 57.7947 49.6924 58.2107 49.9784 58.748C50.273 59.2853 50.4204 59.9007 50.4204 60.594ZM47.0144 58.098C46.4164 58.098 45.9137 58.28 45.5064 58.644C45.1077 59.008 44.8737 59.4847 44.8044 60.074H49.2244C49.155 59.4933 48.9167 59.021 48.5094 58.657C48.1107 58.2843 47.6124 58.098 47.0144 58.098ZM60.2995 57.11V64H59.1685V58.969L56.5945 63.22H56.0485L53.5005 58.956V64H52.3565V57.11H53.6435L56.3475 61.764L59.1295 57.11H60.2995ZM71.3547 58.202H68.8327V64H67.5847V58.202H65.0627V57.11H71.3547V58.202ZM75.2772 64.078C74.5925 64.078 73.9772 63.9263 73.4312 63.623C72.8852 63.3197 72.4562 62.9037 72.1442 62.375C71.8409 61.8377 71.6892 61.231 71.6892 60.555C71.6892 59.879 71.8409 59.2767 72.1442 58.748C72.4562 58.2107 72.8852 57.7947 73.4312 57.5C73.9772 57.1967 74.5925 57.045 75.2772 57.045C75.9619 57.045 76.5729 57.1967 77.1102 57.5C77.6562 57.7947 78.0809 58.2107 78.3842 58.748C78.6962 59.2767 78.8522 59.879 78.8522 60.555C78.8522 61.231 78.6962 61.8377 78.3842 62.375C78.0809 62.9037 77.6562 63.3197 77.1102 63.623C76.5729 63.9263 75.9619 64.078 75.2772 64.078ZM75.2772 62.986C75.7192 62.986 76.1135 62.8863 76.4602 62.687C76.8155 62.479 77.0929 62.193 77.2922 61.829C77.4915 61.4563 77.5912 61.0317 77.5912 60.555C77.5912 60.0783 77.4915 59.658 77.2922 59.294C77.0929 58.9213 76.8155 58.6353 76.4602 58.436C76.1135 58.2367 75.7192 58.137 75.2772 58.137C74.8352 58.137 74.4365 58.2367 74.0812 58.436C73.7345 58.6353 73.4572 58.9213 73.2492 59.294C73.0499 59.658 72.9502 60.0783 72.9502 60.555C72.9502 61.0317 73.0499 61.4563 73.2492 61.829C73.4572 62.193 73.7345 62.479 74.0812 62.687C74.4365 62.8863 74.8352 62.986 75.2772 62.986ZM84.3073 57.045C84.9746 57.045 85.5726 57.1923 86.1013 57.487C86.63 57.7817 87.0416 58.1933 87.3363 58.722C87.6396 59.2507 87.7913 59.8617 87.7913 60.555C87.7913 61.2483 87.6396 61.8637 87.3363 62.401C87.0416 62.9297 86.63 63.3413 86.1013 63.636C85.5726 63.9307 84.9746 64.078 84.3073 64.078C83.8133 64.078 83.3583 63.9827 82.9423 63.792C82.535 63.6013 82.1883 63.324 81.9023 62.96V66.522H80.6543V57.11H81.8503V58.202C82.1276 57.8207 82.4786 57.5347 82.9033 57.344C83.328 57.1447 83.796 57.045 84.3073 57.045ZM84.2033 62.986C84.6453 62.986 85.0396 62.8863 85.3863 62.687C85.7416 62.479 86.019 62.193 86.2183 61.829C86.4263 61.4563 86.5303 61.0317 86.5303 60.555C86.5303 60.0783 86.4263 59.658 86.2183 59.294C86.019 58.9213 85.7416 58.6353 85.3863 58.436C85.0396 58.2367 84.6453 58.137 84.2033 58.137C83.77 58.137 83.3756 58.241 83.0203 58.449C82.6736 58.6483 82.3963 58.93 82.1883 59.294C81.989 59.658 81.8893 60.0783 81.8893 60.555C81.8893 61.0317 81.989 61.4563 82.1883 61.829C82.3876 62.193 82.665 62.479 83.0203 62.687C83.3756 62.8863 83.77 62.986 84.2033 62.986ZM94.6745 58.202H90.8525V64H89.6045V57.11H94.6745V58.202ZM98.5985 64.078C97.9138 64.078 97.2985 63.9263 96.7525 63.623C96.2065 63.3197 95.7775 62.9037 95.4655 62.375C95.1621 61.8377 95.0105 61.231 95.0105 60.555C95.0105 59.879 95.1621 59.2767 95.4655 58.748C95.7775 58.2107 96.2065 57.7947 96.7525 57.5C97.2985 57.1967 97.9138 57.045 98.5985 57.045C99.2831 57.045 99.8941 57.1967 100.431 57.5C100.977 57.7947 101.402 58.2107 101.705 58.748C102.017 59.2767 102.173 59.879 102.173 60.555C102.173 61.231 102.017 61.8377 101.705 62.375C101.402 62.9037 100.977 63.3197 100.431 63.623C99.8941 63.9263 99.2831 64.078 98.5985 64.078ZM98.5985 62.986C99.0405 62.986 99.4348 62.8863 99.7815 62.687C100.137 62.479 100.414 62.193 100.613 61.829C100.813 61.4563 100.912 61.0317 100.912 60.555C100.912 60.0783 100.813 59.658 100.613 59.294C100.414 58.9213 100.137 58.6353 99.7815 58.436C99.4348 58.2367 99.0405 58.137 98.5985 58.137C98.1565 58.137 97.7578 58.2367 97.4025 58.436C97.0558 58.6353 96.7785 58.9213 96.5705 59.294C96.3711 59.658 96.2715 60.0783 96.2715 60.555C96.2715 61.0317 96.3711 61.4563 96.5705 61.829C96.7785 62.193 97.0558 62.479 97.4025 62.687C97.7578 62.8863 98.1565 62.986 98.5985 62.986ZM108.669 60.425C109.561 60.6503 110.008 61.2093 110.008 62.102C110.008 62.7087 109.778 63.1767 109.319 63.506C108.868 63.8353 108.192 64 107.291 64H103.976V57.11H107.174C107.988 57.11 108.625 57.266 109.085 57.578C109.544 57.8813 109.774 58.3147 109.774 58.878C109.774 59.242 109.674 59.5583 109.475 59.827C109.284 60.087 109.015 60.2863 108.669 60.425ZM105.198 60.074H107.07C107.546 60.074 107.906 59.9873 108.149 59.814C108.4 59.6407 108.526 59.3893 108.526 59.06C108.526 58.4013 108.04 58.072 107.07 58.072H105.198V60.074ZM107.2 63.038C107.72 63.038 108.11 62.9557 108.37 62.791C108.63 62.6263 108.76 62.3707 108.76 62.024C108.76 61.6687 108.638 61.4043 108.396 61.231C108.162 61.0577 107.789 60.971 107.278 60.971H105.198V63.038H107.2ZM117.876 57.11V64H116.628V58.202H113.664L113.586 59.736C113.543 60.6633 113.46 61.439 113.339 62.063C113.218 62.6783 113.018 63.1723 112.741 63.545C112.464 63.9177 112.078 64.104 111.584 64.104C111.359 64.104 111.103 64.065 110.817 63.987L110.895 62.934C111.008 62.96 111.112 62.973 111.207 62.973C111.554 62.973 111.814 62.8213 111.987 62.518C112.16 62.2147 112.273 61.855 112.325 61.439C112.377 61.023 112.425 60.4293 112.468 59.658L112.585 57.11H117.876ZM120.289 57.11H121.537V62.128L125.762 57.11H126.893V64H125.645V58.982L121.433 64H120.289V57.11Z" fill="#2CBC90"/>
<path d="M25.416 13.2V30H21.528V16.32H18.168V13.2H25.416ZM35.5344 30.288C34.1424 30.288 32.9024 29.944 31.8144 29.256C30.7264 28.568 29.8704 27.576 29.2464 26.28C28.6384 24.968 28.3344 23.408 28.3344 21.6C28.3344 19.792 28.6384 18.24 29.2464 16.944C29.8704 15.632 30.7264 14.632 31.8144 13.944C32.9024 13.256 34.1424 12.912 35.5344 12.912C36.9264 12.912 38.1664 13.256 39.2544 13.944C40.3424 14.632 41.1904 15.632 41.7984 16.944C42.4224 18.24 42.7344 19.792 42.7344 21.6C42.7344 23.408 42.4224 24.968 41.7984 26.28C41.1904 27.576 40.3424 28.568 39.2544 29.256C38.1664 29.944 36.9264 30.288 35.5344 30.288ZM35.5344 27C36.5584 27 37.3584 26.56 37.9344 25.68C38.5264 24.8 38.8224 23.44 38.8224 21.6C38.8224 19.76 38.5264 18.4 37.9344 17.52C37.3584 16.64 36.5584 16.2 35.5344 16.2C34.5264 16.2 33.7264 16.64 33.1344 17.52C32.5584 18.4 32.2704 19.76 32.2704 21.6C32.2704 23.44 32.5584 24.8 33.1344 25.68C33.7264 26.56 34.5264 27 35.5344 27ZM51.8235 30.288C50.4315 30.288 49.1915 29.944 48.1035 29.256C47.0155 28.568 46.1595 27.576 45.5355 26.28C44.9275 24.968 44.6235 23.408 44.6235 21.6C44.6235 19.792 44.9275 18.24 45.5355 16.944C46.1595 15.632 47.0155 14.632 48.1035 13.944C49.1915 13.256 50.4315 12.912 51.8235 12.912C53.2155 12.912 54.4555 13.256 55.5435 13.944C56.6315 14.632 57.4795 15.632 58.0875 16.944C58.7115 18.24 59.0235 19.792 59.0235 21.6C59.0235 23.408 58.7115 24.968 58.0875 26.28C57.4795 27.576 56.6315 28.568 55.5435 29.256C54.4555 29.944 53.2155 30.288 51.8235 30.288ZM51.8235 27C52.8475 27 53.6475 26.56 54.2235 25.68C54.8155 24.8 55.1115 23.44 55.1115 21.6C55.1115 19.76 54.8155 18.4 54.2235 17.52C53.6475 16.64 52.8475 16.2 51.8235 16.2C50.8155 16.2 50.0155 16.64 49.4235 17.52C48.8475 18.4 48.5595 19.76 48.5595 21.6C48.5595 23.44 48.8475 24.8 49.4235 25.68C50.0155 26.56 50.8155 27 51.8235 27ZM68.1126 30.288C66.7206 30.288 65.4806 29.944 64.3926 29.256C63.3046 28.568 62.4486 27.576 61.8246 26.28C61.2166 24.968 60.9126 23.408 60.9126 21.6C60.9126 19.792 61.2166 18.24 61.8246 16.944C62.4486 15.632 63.3046 14.632 64.3926 13.944C65.4806 13.256 66.7206 12.912 68.1126 12.912C69.5046 12.912 70.7446 13.256 71.8326 13.944C72.9206 14.632 73.7686 15.632 74.3766 16.944C75.0006 18.24 75.3126 19.792 75.3126 21.6C75.3126 23.408 75.0006 24.968 74.3766 26.28C73.7686 27.576 72.9206 28.568 71.8326 29.256C70.7446 29.944 69.5046 30.288 68.1126 30.288ZM68.1126 27C69.1366 27 69.9366 26.56 70.5126 25.68C71.1046 24.8 71.4006 23.44 71.4006 21.6C71.4006 19.76 71.1046 18.4 70.5126 17.52C69.9366 16.64 69.1366 16.2 68.1126 16.2C67.1046 16.2 66.3046 16.64 65.7126 17.52C65.1366 18.4 64.8486 19.76 64.8486 21.6C64.8486 23.44 65.1366 24.8 65.7126 25.68C66.3046 26.56 67.1046 27 68.1126 27ZM94.0545 18.8H92.1665V25.36C92.1665 27.264 91.0305 28.384 89.2065 28.384C87.3665 28.384 86.1985 27.248 86.1985 25.36V18.8H84.3105V25.36C84.3105 28.288 86.1665 30.08 89.1905 30.08C92.2145 30.08 94.0545 28.288 94.0545 25.36V18.8ZM100.433 18.72C98.0013 18.72 96.3533 19.92 96.3533 21.84C96.3533 25.824 102.401 24.432 102.401 26.928C102.401 27.792 101.617 28.288 100.305 28.288C99.1053 28.288 97.6653 27.712 96.5133 26.656L95.6973 28.288C96.8493 29.344 98.5133 30.064 100.273 30.064C102.737 30.064 104.497 28.832 104.497 26.832C104.513 22.8 98.4653 24.112 98.4653 21.664C98.4653 20.912 99.1853 20.496 100.289 20.496C101.137 20.496 102.353 20.8 103.569 21.536L104.353 19.872C103.313 19.184 101.889 18.72 100.433 18.72ZM106.706 18.8V30H111.25C114.642 30 117.09 27.632 117.09 24.4C117.09 21.152 114.658 18.8 111.298 18.8H106.706ZM108.594 20.496H111.266C113.474 20.496 115.186 22.128 115.186 24.416C115.186 26.688 113.522 28.304 111.346 28.304H108.594V20.496ZM126.542 20.496V18.8H117.566V20.496H121.102V30H122.99V20.496H126.542Z" fill="white"/>
<path d="M232.548 15.2448L229.32 20.7553C228.822 21.6047 229.42 22.6827 230.391 22.6884L236.788 22.7238C237.759 22.7296 238.368 21.6573 237.879 20.8031L234.71 15.2572C234.23 14.4145 233.037 14.4078 232.548 15.2448Z" fill="#4E55A2"/>
<path d="M240.138 22.0884L236.91 16.5779C236.412 15.7285 237.009 14.6505 237.981 14.6448L244.377 14.6094C245.349 14.6037 245.958 15.6759 245.469 16.5301L242.3 22.076C241.82 22.9187 240.628 22.9254 240.138 22.0884Z" fill="#EA5045"/>
<path d="M260.523 14.6289H255.349C255.126 14.6289 254.945 14.8132 254.945 15.0404V16.0211C254.945 16.2483 255.126 16.4326 255.349 16.4326H257.016V22.4154C257.016 22.6425 257.197 22.8269 257.42 22.8269H258.452C258.675 22.8269 258.856 22.6425 258.856 22.4154V16.4326H260.522C260.745 16.4326 260.926 16.2483 260.926 16.0211V15.0404C260.926 14.8132 260.746 14.6289 260.523 14.6289Z" fill="white"/>
<path d="M268.041 20.7814L267.187 20.2774C267.021 20.18 266.814 20.2216 266.69 20.3699C266.323 20.8112 265.741 21.0651 265.081 21.0651C263.707 21.0651 262.82 20.1285 262.82 18.7177C262.82 17.3069 263.707 16.3702 265.081 16.3702C265.743 16.3702 266.318 16.6253 266.689 17.0685C266.812 17.2162 267.019 17.2566 267.184 17.1591L268.039 16.6545C268.246 16.5322 268.296 16.2505 268.146 16.0605C267.437 15.1624 266.324 14.6094 265.082 14.6094C262.743 14.6094 261.047 16.3926 261.047 18.7177C261.047 21.0427 262.743 22.826 265.082 22.826C266.334 22.826 267.448 22.2723 268.149 21.3742C268.297 21.1836 268.247 20.9031 268.041 20.7814Z" fill="white"/>
<path d="M272.716 18.4258H270.006C269.837 18.4258 269.699 18.6101 269.699 18.8373V19.7013C269.699 19.9285 269.837 20.1128 270.006 20.1128H272.716C272.885 20.1128 273.023 19.9285 273.023 19.7013V18.8373C273.023 18.6095 272.885 18.4258 272.716 18.4258Z" fill="white"/>
<path d="M253.323 18.6135C253.771 18.3249 254.199 17.7271 254.199 16.9612C254.199 15.5119 253.225 14.6113 251.659 14.6113H249.419C249.187 14.6113 248.87 14.6113 248.627 14.8596C248.383 15.1079 248.383 15.4306 248.383 15.6659V21.7703C248.383 22.0061 248.383 22.3289 248.627 22.5772C248.87 22.8254 249.187 22.8254 249.419 22.8254H251.792C253.345 22.8254 254.31 21.9031 254.31 20.419C254.31 19.3825 253.75 18.8605 253.323 18.6135ZM250.123 16.2028H251.537C252.115 16.2028 252.459 16.5112 252.459 17.0289C252.459 17.5465 252.115 17.855 251.537 17.855H250.123V16.2028ZM251.637 21.2334H250.123V19.4576H251.637C252.221 19.4576 252.57 19.7872 252.57 20.3402C252.57 20.7716 252.324 21.2334 251.637 21.2334Z" fill="white"/>
<path d="M289.631 16.6562C288.861 16.6562 288.302 16.9207 287.917 17.3669V17.1131C287.917 16.9256 287.814 16.8201 287.629 16.8201H286.479C286.295 16.8201 286.191 16.9256 286.191 17.1131V24.7251C286.191 24.9126 286.295 25.0181 286.479 25.0181H287.629C287.814 25.0181 287.917 24.9126 287.917 24.7251V22.1288C288.302 22.5751 288.861 22.8395 289.631 22.8395C291.138 22.8395 292.379 21.4926 292.379 19.7479C292.379 18.0031 291.138 16.6562 289.631 16.6562ZM289.286 21.1767C288.492 21.1767 287.917 20.6261 287.917 19.7479C287.917 18.8696 288.492 18.3191 289.286 18.3191C290.079 18.3191 290.654 18.8696 290.654 19.7479C290.654 20.6261 290.079 21.1767 289.286 21.1767Z" fill="white"/>
<path d="M279.588 14.8747C279.542 14.7108 279.415 14.6289 279.255 14.6289H277.414C277.253 14.6289 277.126 14.7108 277.081 14.8747L274.642 22.4985C274.573 22.7096 274.677 22.8262 274.884 22.8262H276.299C276.46 22.8262 276.575 22.7561 276.62 22.5805L276.923 21.5383H279.745L280.048 22.5805C280.094 22.7561 280.209 22.8262 280.369 22.8262H281.784C281.992 22.8262 282.095 22.7089 282.026 22.4985L279.588 14.8747ZM277.433 19.7818L278.334 16.6784L279.235 19.7818H277.433Z" fill="white"/>
<path d="M284.301 14.627H283.143C282.986 14.627 282.859 14.756 282.859 14.9156V22.5363C282.859 22.6958 282.986 22.8249 283.143 22.8249H284.301C284.458 22.8249 284.585 22.6958 284.585 22.5363V14.9156C284.585 14.756 284.458 14.627 284.301 14.627Z" fill="white"/>
<path d="M296.601 16.8055C295.842 16.8055 295.267 17.0867 294.956 17.5199V15.0385C294.956 14.8113 294.775 14.627 294.552 14.627H293.635C293.412 14.627 293.23 14.8113 293.23 15.0385V22.4134C293.23 22.6406 293.412 22.8249 293.635 22.8249H294.552C294.775 22.8249 294.956 22.6406 294.956 22.4134V19.6278C294.956 18.7961 295.393 18.4218 296.026 18.4218C296.578 18.4218 297.027 18.7613 297.027 19.4875V22.414C297.027 22.6412 297.208 22.8255 297.431 22.8255H298.349C298.572 22.8255 298.753 22.6412 298.753 22.414V19.2299C298.752 17.649 297.762 16.8055 296.601 16.8055Z" fill="white"/>
<path d="M304.301 17.3039C303.838 16.8781 303.166 16.6621 302.302 16.6621C301.824 16.6621 301.365 16.726 300.936 16.8514C300.722 16.9141 300.432 17.0612 300.194 17.194C299.998 17.3026 299.992 17.5869 300.184 17.7024L300.988 18.1884C301.014 18.2039 301.044 18.2057 301.071 18.1952C301.12 18.1753 301.171 18.1567 301.223 18.1399C301.523 18.0419 301.832 17.9916 302.142 17.9916C302.587 17.9916 302.924 18.0934 303.145 18.2939C303.363 18.4931 303.47 18.773 303.472 19.1498H302.089C301.248 19.1498 300.62 19.3168 300.222 19.6463C299.818 19.9809 299.613 20.4303 299.613 20.9821C299.613 21.3352 299.707 21.6561 299.892 21.9367C300.076 22.216 300.34 22.4369 300.676 22.5933C301.009 22.7479 301.401 22.8261 301.841 22.8261C302.281 22.8261 302.664 22.7553 302.978 22.6163C303.203 22.517 303.393 22.3848 303.546 22.2209V22.2625C303.546 22.5319 303.761 22.7498 304.025 22.7498H304.524C304.788 22.7498 305.002 22.5313 305.002 22.2625V19.2367C305.002 18.3826 304.766 17.7328 304.301 17.3039ZM303.471 20.812C303.371 21.0727 303.201 21.2763 302.966 21.4171C302.722 21.5636 302.436 21.6381 302.12 21.6381C301.799 21.6381 301.548 21.5711 301.373 21.4389C301.204 21.3116 301.123 21.1447 301.123 20.9281C301.123 20.7605 301.123 20.2509 302.185 20.2509H303.471V20.812H303.471Z" fill="white"/>
</g>
<defs>
<clipPath id="clip0_2821_23901">
<rect width="320" height="80" fill="white"/>
</clipPath>
<clipPath id="clip1_2821_23901">
<rect width="36.3905" height="36.8781" fill="white" transform="translate(178.035 23) rotate(0.0558185)"/>
</clipPath>
</defs>
</svg>
