<svg width="320" height="80" viewBox="0 0 320 80" fill="none" xmlns="http://www.w3.org/2000/svg">
<g clip-path="url(#clip0_2820_26910)">
<rect width="320" height="80" fill="#282828"/>
<path d="M304.249 56.0033C304.249 56.2367 304.162 56.4767 303.982 56.6567L296.902 63.7367C296.542 64.0967 295.962 64.0967 295.602 63.7367C295.242 63.3767 295.242 62.7967 295.602 62.4367L302.035 56.0033L295.602 49.57C295.242 49.21 295.242 48.63 295.602 48.27C295.962 47.91 296.542 47.91 296.902 48.27L303.982 55.35C304.162 55.5367 304.249 55.77 304.249 56.0033Z" fill="#48C89B"/>
<ellipse cx="152" cy="44" rx="128" ry="131" fill="#48C89B" fill-opacity="0.1"/>
<ellipse opacity="0.1" cx="168.974" cy="51.1072" rx="88.6445" ry="91.0843" transform="rotate(10.3586 168.974 51.1072)" fill="white" fill-opacity="0.3"/>
<ellipse opacity="0.1" cx="185.621" cy="41.3895" rx="74.006" ry="76.4457" transform="rotate(10.3586 185.621 41.3895)" fill="white" fill-opacity="0.3"/>
<ellipse opacity="0.2" cx="196.168" cy="39.1153" rx="48.5792" ry="50.1985" transform="rotate(10.3586 196.168 39.1153)" fill="white" fill-opacity="0.45"/>
<g clip-path="url(#clip1_2820_26910)">
<path d="M214.424 40.5423C214.426 38.2258 208.208 36.287 199.943 35.833L199.946 32.1421L210.266 32.1521L210.274 24.4707L182.053 24.4432L182.046 32.1247L192.365 32.1347L192.362 35.8437C184.246 36.3123 178.174 38.2189 178.172 40.5069C178.17 42.7953 184.238 44.7139 192.353 45.1975L192.34 58.4515L199.92 58.4589L199.933 45.2229C208.2 44.7861 214.421 42.8588 214.424 40.5423ZM196.295 42.8066C187.423 42.798 180.233 41.3994 180.234 39.6819C180.236 38.2276 185.394 37.0117 192.361 36.6787L192.36 37.5541L192.361 37.5541L192.357 41.1413C193.613 41.2139 194.933 41.2526 196.297 41.2539C197.553 41.2552 198.772 41.224 199.938 41.1659L199.942 36.6728C207.059 36.9986 212.365 38.2376 212.363 39.7132C212.361 41.4307 205.167 42.8153 196.295 42.8066Z" fill="#48C89B"/>
</g>
<path d="M20.665 42.031V45.203H25.228V46.321H20.665V50H19.365V40.9H25.787V42.031H20.665ZM30.1701 50.078C29.4855 50.078 28.8701 49.9263 28.3241 49.623C27.7781 49.3197 27.3491 48.9037 27.0371 48.375C26.7338 47.8377 26.5821 47.231 26.5821 46.555C26.5821 45.879 26.7338 45.2767 27.0371 44.748C27.3491 44.2107 27.7781 43.7947 28.3241 43.5C28.8701 43.1967 29.4855 43.045 30.1701 43.045C30.8548 43.045 31.4658 43.1967 32.0031 43.5C32.5491 43.7947 32.9738 44.2107 33.2771 44.748C33.5891 45.2767 33.7451 45.879 33.7451 46.555C33.7451 47.231 33.5891 47.8377 33.2771 48.375C32.9738 48.9037 32.5491 49.3197 32.0031 49.623C31.4658 49.9263 30.8548 50.078 30.1701 50.078ZM30.1701 48.986C30.6121 48.986 31.0065 48.8863 31.3531 48.687C31.7085 48.479 31.9858 48.193 32.1851 47.829C32.3845 47.4563 32.4841 47.0317 32.4841 46.555C32.4841 46.0783 32.3845 45.658 32.1851 45.294C31.9858 44.9213 31.7085 44.6353 31.3531 44.436C31.0065 44.2367 30.6121 44.137 30.1701 44.137C29.7281 44.137 29.3295 44.2367 28.9741 44.436C28.6275 44.6353 28.3501 44.9213 28.1421 45.294C27.9428 45.658 27.8431 46.0783 27.8431 46.555C27.8431 47.0317 27.9428 47.4563 28.1421 47.829C28.3501 48.193 28.6275 48.479 28.9741 48.687C29.3295 48.8863 29.7281 48.986 30.1701 48.986ZM36.6671 44.267C36.8838 43.8683 37.2044 43.565 37.6291 43.357C38.0538 43.149 38.5694 43.045 39.1761 43.045V44.254C39.1068 44.2453 39.0114 44.241 38.8901 44.241C38.2141 44.241 37.6811 44.4447 37.2911 44.852C36.9098 45.2507 36.7191 45.8227 36.7191 46.568V50H35.4711V43.11H36.6671V44.267ZM52.9133 50L52.9003 43.37L49.6113 48.895H49.0133L45.7243 43.409V50H44.4763V40.9H45.5423L49.3383 47.296L53.0823 40.9H54.1483L54.1613 50H52.9133ZM59.2193 43.045C60.1727 43.045 60.9007 43.279 61.4033 43.747C61.9147 44.215 62.1703 44.9127 62.1703 45.84V50H60.9873V49.09C60.7793 49.4107 60.4803 49.6577 60.0903 49.831C59.709 49.9957 59.254 50.078 58.7253 50.078C57.954 50.078 57.3343 49.8917 56.8663 49.519C56.407 49.1463 56.1773 48.6567 56.1773 48.05C56.1773 47.4433 56.3983 46.958 56.8403 46.594C57.2823 46.2213 57.9843 46.035 58.9463 46.035H60.9223V45.788C60.9223 45.2507 60.7663 44.839 60.4543 44.553C60.1423 44.267 59.683 44.124 59.0763 44.124C58.669 44.124 58.2703 44.1933 57.8803 44.332C57.4903 44.462 57.161 44.6397 56.8923 44.865L56.3723 43.929C56.7277 43.643 57.1523 43.4263 57.6463 43.279C58.1403 43.123 58.6647 43.045 59.2193 43.045ZM58.9333 49.116C59.41 49.116 59.8217 49.012 60.1683 48.804C60.515 48.5873 60.7663 48.284 60.9223 47.894V46.932H58.9983C57.941 46.932 57.4123 47.2873 57.4123 47.998C57.4123 48.3447 57.5467 48.6177 57.8153 48.817C58.084 49.0163 58.4567 49.116 58.9333 49.116ZM68.8739 50L66.8849 47.361L64.8699 50H63.4789L66.1959 46.477L63.6089 43.11H64.9999L66.8979 45.593L68.7829 43.11H70.1479L67.5479 46.477L70.2909 50H68.8739ZM71.6527 43.11H72.9007V50H71.6527V43.11ZM72.2767 41.784C72.0341 41.784 71.8304 41.706 71.6657 41.55C71.5097 41.394 71.4317 41.2033 71.4317 40.978C71.4317 40.7527 71.5097 40.562 71.6657 40.406C71.8304 40.2413 72.0341 40.159 72.2767 40.159C72.5194 40.159 72.7187 40.237 72.8747 40.393C73.0394 40.5403 73.1217 40.7267 73.1217 40.952C73.1217 41.186 73.0394 41.3853 72.8747 41.55C72.7187 41.706 72.5194 41.784 72.2767 41.784ZM83.9026 43.045C84.7693 43.045 85.4539 43.2963 85.9566 43.799C86.4679 44.3017 86.7236 45.047 86.7236 46.035V50H85.4756V46.178C85.4756 45.5107 85.3196 45.008 85.0076 44.67C84.7043 44.332 84.2666 44.163 83.6946 44.163C83.0619 44.163 82.5593 44.3623 82.1866 44.761C81.8139 45.151 81.6276 45.7143 81.6276 46.451V50H80.3796V46.178C80.3796 45.5107 80.2236 45.008 79.9116 44.67C79.6083 44.332 79.1706 44.163 78.5986 44.163C77.9659 44.163 77.4633 44.3623 77.0906 44.761C76.7179 45.151 76.5316 45.7143 76.5316 46.451V50H75.2836V43.11H76.4796V44.137C76.7309 43.7817 77.0603 43.513 77.4676 43.331C77.8749 43.1403 78.3386 43.045 78.8586 43.045C79.3959 43.045 79.8726 43.1533 80.2886 43.37C80.7046 43.5867 81.0253 43.903 81.2506 44.319C81.5106 43.9203 81.8703 43.6083 82.3296 43.383C82.7976 43.1577 83.3219 43.045 83.9026 43.045ZM95.4419 43.11V50H94.2589V48.96C94.0076 49.3153 93.6739 49.5927 93.2579 49.792C92.8506 49.9827 92.4042 50.078 91.9189 50.078C91.0002 50.078 90.2766 49.8267 89.7479 49.324C89.2192 48.8127 88.9549 48.063 88.9549 47.075V43.11H90.2029V46.932C90.2029 47.5993 90.3632 48.1063 90.6839 48.453C91.0046 48.791 91.4639 48.96 92.0619 48.96C92.7206 48.96 93.2406 48.7607 93.6219 48.362C94.0032 47.9633 94.1939 47.4 94.1939 46.672V43.11H95.4419ZM106.437 43.045C107.303 43.045 107.988 43.2963 108.491 43.799C109.002 44.3017 109.258 45.047 109.258 46.035V50H108.01V46.178C108.01 45.5107 107.854 45.008 107.542 44.67C107.238 44.332 106.801 44.163 106.229 44.163C105.596 44.163 105.093 44.3623 104.721 44.761C104.348 45.151 104.162 45.7143 104.162 46.451V50H102.914V46.178C102.914 45.5107 102.758 45.008 102.446 44.67C102.142 44.332 101.705 44.163 101.133 44.163C100.5 44.163 99.9974 44.3623 99.6248 44.761C99.2521 45.151 99.0658 45.7143 99.0658 46.451V50H97.8178V43.11H99.0138V44.137C99.2651 43.7817 99.5944 43.513 100.002 43.331C100.409 43.1403 100.873 43.045 101.393 43.045C101.93 43.045 102.407 43.1533 102.823 43.37C103.239 43.5867 103.559 43.903 103.785 44.319C104.045 43.9203 104.404 43.6083 104.864 43.383C105.332 43.1577 105.856 43.045 106.437 43.045ZM21.172 58.031H18.052V56.9H25.579V58.031H22.459V66H21.172V58.031ZM27.8438 60.267C28.0605 59.8683 28.3812 59.565 28.8058 59.357C29.2305 59.149 29.7462 59.045 30.3528 59.045V60.254C30.2835 60.2453 30.1882 60.241 30.0668 60.241C29.3908 60.241 28.8578 60.4447 28.4678 60.852C28.0865 61.2507 27.8958 61.8227 27.8958 62.568V66H26.6478V59.11H27.8438V60.267ZM34.3873 59.045C35.3406 59.045 36.0686 59.279 36.5713 59.747C37.0826 60.215 37.3383 60.9127 37.3383 61.84V66H36.1553V65.09C35.9473 65.4107 35.6483 65.6577 35.2583 65.831C34.877 65.9957 34.422 66.078 33.8933 66.078C33.122 66.078 32.5023 65.8917 32.0343 65.519C31.575 65.1463 31.3453 64.6567 31.3453 64.05C31.3453 63.4433 31.5663 62.958 32.0083 62.594C32.4503 62.2213 33.1523 62.035 34.1143 62.035H36.0903V61.788C36.0903 61.2507 35.9343 60.839 35.6223 60.553C35.3103 60.267 34.851 60.124 34.2443 60.124C33.837 60.124 33.4383 60.1933 33.0483 60.332C32.6583 60.462 32.329 60.6397 32.0603 60.865L31.5403 59.929C31.8956 59.643 32.3203 59.4263 32.8143 59.279C33.3083 59.123 33.8326 59.045 34.3873 59.045ZM34.1013 65.116C34.578 65.116 34.9896 65.012 35.3363 64.804C35.683 64.5873 35.9343 64.284 36.0903 63.894V62.932H34.1663C33.109 62.932 32.5803 63.2873 32.5803 63.998C32.5803 64.3447 32.7146 64.6177 32.9833 64.817C33.252 65.0163 33.6246 65.116 34.1013 65.116ZM46.1859 56.354V66H44.9899V64.908C44.7126 65.2893 44.3616 65.5797 43.9369 65.779C43.5123 65.9783 43.0443 66.078 42.5329 66.078C41.8656 66.078 41.2676 65.9307 40.7389 65.636C40.2103 65.3413 39.7943 64.9297 39.4909 64.401C39.1963 63.8637 39.0489 63.2483 39.0489 62.555C39.0489 61.8617 39.1963 61.2507 39.4909 60.722C39.7943 60.1933 40.2103 59.7817 40.7389 59.487C41.2676 59.1923 41.8656 59.045 42.5329 59.045C43.0269 59.045 43.4819 59.1403 43.8979 59.331C44.3139 59.513 44.6606 59.786 44.9379 60.15V56.354H46.1859ZM42.6369 64.986C43.0703 64.986 43.4646 64.8863 43.8199 64.687C44.1753 64.479 44.4526 64.193 44.6519 63.829C44.8513 63.4563 44.9509 63.0317 44.9509 62.555C44.9509 62.0783 44.8513 61.658 44.6519 61.294C44.4526 60.9213 44.1753 60.6353 43.8199 60.436C43.4646 60.2367 43.0703 60.137 42.6369 60.137C42.1949 60.137 41.7963 60.2367 41.4409 60.436C41.0943 60.6353 40.8169 60.9213 40.6089 61.294C40.4096 61.658 40.3099 62.0783 40.3099 62.555C40.3099 63.0317 40.4096 63.4563 40.6089 63.829C40.8169 64.193 41.0943 64.479 41.4409 64.687C41.7963 64.8863 42.1949 64.986 42.6369 64.986ZM48.5473 59.11H49.7953V66H48.5473V59.11ZM49.1713 57.784C48.9286 57.784 48.7249 57.706 48.5603 57.55C48.4043 57.394 48.3263 57.2033 48.3263 56.978C48.3263 56.7527 48.4043 56.562 48.5603 56.406C48.7249 56.2413 48.9286 56.159 49.1713 56.159C49.4139 56.159 49.6133 56.237 49.7693 56.393C49.9339 56.5403 50.0163 56.7267 50.0163 56.952C50.0163 57.186 49.9339 57.3853 49.7693 57.55C49.6133 57.706 49.4139 57.784 49.1713 57.784ZM55.8571 59.045C56.7325 59.045 57.4258 59.3007 57.9371 59.812C58.4571 60.3147 58.7171 61.0557 58.7171 62.035V66H57.4691V62.178C57.4691 61.5107 57.3088 61.008 56.9881 60.67C56.6675 60.332 56.2081 60.163 55.6101 60.163C54.9341 60.163 54.4011 60.3623 54.0111 60.761C53.6211 61.151 53.4261 61.7143 53.4261 62.451V66H52.1781V59.11H53.3741V60.15C53.6255 59.7947 53.9635 59.5217 54.3881 59.331C54.8215 59.1403 55.3111 59.045 55.8571 59.045ZM67.6558 59.11V65.064C67.6558 66.2687 67.3568 67.157 66.7588 67.729C66.1608 68.3097 65.2682 68.6 64.0808 68.6C63.4308 68.6 62.8112 68.509 62.2218 68.327C61.6325 68.1537 61.1558 67.9023 60.7918 67.573L61.3898 66.611C61.7105 66.8883 62.1048 67.105 62.5728 67.261C63.0495 67.4257 63.5392 67.508 64.0418 67.508C64.8478 67.508 65.4415 67.3173 65.8228 66.936C66.2128 66.5547 66.4078 65.974 66.4078 65.194V64.648C66.1132 65.0033 65.7492 65.272 65.3158 65.454C64.8912 65.6273 64.4275 65.714 63.9248 65.714C63.2662 65.714 62.6682 65.5753 62.1308 65.298C61.6022 65.012 61.1862 64.6177 60.8828 64.115C60.5795 63.6037 60.4278 63.023 60.4278 62.373C60.4278 61.723 60.5795 61.1467 60.8828 60.644C61.1862 60.1327 61.6022 59.7383 62.1308 59.461C62.6682 59.1837 63.2662 59.045 63.9248 59.045C64.4448 59.045 64.9258 59.1403 65.3678 59.331C65.8185 59.5217 66.1868 59.8033 66.4728 60.176V59.11H67.6558ZM64.0678 64.622C64.5185 64.622 64.9215 64.5267 65.2768 64.336C65.6408 64.1453 65.9225 63.881 66.1218 63.543C66.3298 63.1963 66.4338 62.8063 66.4338 62.373C66.4338 61.7057 66.2128 61.1683 65.7708 60.761C65.3288 60.345 64.7612 60.137 64.0678 60.137C63.3658 60.137 62.7938 60.345 62.3518 60.761C61.9098 61.1683 61.6888 61.7057 61.6888 62.373C61.6888 62.8063 61.7885 63.1963 61.9878 63.543C62.1958 63.881 62.4775 64.1453 62.8328 64.336C63.1968 64.5267 63.6085 64.622 64.0678 64.622ZM81.6176 56.9L77.6266 66H76.3396L72.3356 56.9H73.7396L77.0156 64.375L80.3176 56.9H81.6176ZM85.0266 66.078C84.3419 66.078 83.7266 65.9263 83.1806 65.623C82.6346 65.3197 82.2056 64.9037 81.8936 64.375C81.5902 63.8377 81.4386 63.231 81.4386 62.555C81.4386 61.879 81.5902 61.2767 81.8936 60.748C82.2056 60.2107 82.6346 59.7947 83.1806 59.5C83.7266 59.1967 84.3419 59.045 85.0266 59.045C85.7112 59.045 86.3222 59.1967 86.8596 59.5C87.4056 59.7947 87.8302 60.2107 88.1336 60.748C88.4456 61.2767 88.6016 61.879 88.6016 62.555C88.6016 63.231 88.4456 63.8377 88.1336 64.375C87.8302 64.9037 87.4056 65.3197 86.8596 65.623C86.3222 65.9263 85.7112 66.078 85.0266 66.078ZM85.0266 64.986C85.4686 64.986 85.8629 64.8863 86.2096 64.687C86.5649 64.479 86.8422 64.193 87.0416 63.829C87.2409 63.4563 87.3406 63.0317 87.3406 62.555C87.3406 62.0783 87.2409 61.658 87.0416 61.294C86.8422 60.9213 86.5649 60.6353 86.2096 60.436C85.8629 60.2367 85.4686 60.137 85.0266 60.137C84.5846 60.137 84.1859 60.2367 83.8306 60.436C83.4839 60.6353 83.2066 60.9213 82.9986 61.294C82.7992 61.658 82.6996 62.0783 82.6996 62.555C82.6996 63.0317 82.7992 63.4563 82.9986 63.829C83.2066 64.193 83.4839 64.479 83.8306 64.687C84.1859 64.8863 84.5846 64.986 85.0266 64.986ZM90.3275 56.354H91.5755V66H90.3275V56.354ZM100.38 59.11V66H99.1974V64.96C98.9461 65.3153 98.6124 65.5927 98.1964 65.792C97.7891 65.9827 97.3427 66.078 96.8574 66.078C95.9387 66.078 95.2151 65.8267 94.6864 65.324C94.1577 64.8127 93.8934 64.063 93.8934 63.075V59.11H95.1414V62.932C95.1414 63.5993 95.3017 64.1063 95.6224 64.453C95.9431 64.791 96.4024 64.96 97.0004 64.96C97.6591 64.96 98.1791 64.7607 98.5604 64.362C98.9417 63.9633 99.1324 63.4 99.1324 62.672V59.11H100.38ZM111.375 59.045C112.242 59.045 112.927 59.2963 113.429 59.799C113.941 60.3017 114.196 61.047 114.196 62.035V66H112.948V62.178C112.948 61.5107 112.792 61.008 112.48 60.67C112.177 60.332 111.739 60.163 111.167 60.163C110.535 60.163 110.032 60.3623 109.659 60.761C109.287 61.151 109.1 61.7143 109.1 62.451V66H107.852V62.178C107.852 61.5107 107.696 61.008 107.384 60.67C107.081 60.332 106.643 60.163 106.071 60.163C105.439 60.163 104.936 60.3623 104.563 60.761C104.191 61.151 104.004 61.7143 104.004 62.451V66H102.756V59.11H103.952V60.137C104.204 59.7817 104.533 59.513 104.94 59.331C105.348 59.1403 105.811 59.045 106.331 59.045C106.869 59.045 107.345 59.1533 107.761 59.37C108.177 59.5867 108.498 59.903 108.723 60.319C108.983 59.9203 109.343 59.6083 109.802 59.383C110.27 59.1577 110.795 59.045 111.375 59.045ZM122.758 62.594C122.758 62.6893 122.749 62.815 122.732 62.971H117.142C117.22 63.5777 117.484 64.0673 117.935 64.44C118.394 64.804 118.962 64.986 119.638 64.986C120.461 64.986 121.124 64.7087 121.627 64.154L122.316 64.96C122.004 65.324 121.614 65.6013 121.146 65.792C120.686 65.9827 120.171 66.078 119.599 66.078C118.871 66.078 118.225 65.9307 117.662 65.636C117.098 65.3327 116.661 64.9123 116.349 64.375C116.045 63.8377 115.894 63.231 115.894 62.555C115.894 61.8877 116.041 61.2853 116.336 60.748C116.639 60.2107 117.051 59.7947 117.571 59.5C118.099 59.1967 118.693 59.045 119.352 59.045C120.01 59.045 120.595 59.1967 121.107 59.5C121.627 59.7947 122.03 60.2107 122.316 60.748C122.61 61.2853 122.758 61.9007 122.758 62.594ZM119.352 60.098C118.754 60.098 118.251 60.28 117.844 60.644C117.445 61.008 117.211 61.4847 117.142 62.074H121.562C121.492 61.4933 121.254 61.021 120.847 60.657C120.448 60.2843 119.95 60.098 119.352 60.098ZM124.322 56.9H125.791L125.544 63.127H124.556L124.322 56.9ZM125.063 66.078C124.82 66.078 124.616 66 124.452 65.844C124.287 65.6793 124.205 65.48 124.205 65.246C124.205 65.012 124.287 64.817 124.452 64.661C124.616 64.4963 124.82 64.414 125.063 64.414C125.305 64.414 125.505 64.4963 125.661 64.661C125.817 64.817 125.895 65.012 125.895 65.246C125.895 65.48 125.812 65.6793 125.648 65.844C125.492 66 125.297 66.078 125.063 66.078Z" fill="#2CBC90"/>
<path d="M25.416 13.2V30H21.528V16.32H18.168V13.2H25.416ZM35.5344 30.288C34.1424 30.288 32.9024 29.944 31.8144 29.256C30.7264 28.568 29.8704 27.576 29.2464 26.28C28.6384 24.968 28.3344 23.408 28.3344 21.6C28.3344 19.792 28.6384 18.24 29.2464 16.944C29.8704 15.632 30.7264 14.632 31.8144 13.944C32.9024 13.256 34.1424 12.912 35.5344 12.912C36.9264 12.912 38.1664 13.256 39.2544 13.944C40.3424 14.632 41.1904 15.632 41.7984 16.944C42.4224 18.24 42.7344 19.792 42.7344 21.6C42.7344 23.408 42.4224 24.968 41.7984 26.28C41.1904 27.576 40.3424 28.568 39.2544 29.256C38.1664 29.944 36.9264 30.288 35.5344 30.288ZM35.5344 27C36.5584 27 37.3584 26.56 37.9344 25.68C38.5264 24.8 38.8224 23.44 38.8224 21.6C38.8224 19.76 38.5264 18.4 37.9344 17.52C37.3584 16.64 36.5584 16.2 35.5344 16.2C34.5264 16.2 33.7264 16.64 33.1344 17.52C32.5584 18.4 32.2704 19.76 32.2704 21.6C32.2704 23.44 32.5584 24.8 33.1344 25.68C33.7264 26.56 34.5264 27 35.5344 27ZM51.8235 30.288C50.4315 30.288 49.1915 29.944 48.1035 29.256C47.0155 28.568 46.1595 27.576 45.5355 26.28C44.9275 24.968 44.6235 23.408 44.6235 21.6C44.6235 19.792 44.9275 18.24 45.5355 16.944C46.1595 15.632 47.0155 14.632 48.1035 13.944C49.1915 13.256 50.4315 12.912 51.8235 12.912C53.2155 12.912 54.4555 13.256 55.5435 13.944C56.6315 14.632 57.4795 15.632 58.0875 16.944C58.7115 18.24 59.0235 19.792 59.0235 21.6C59.0235 23.408 58.7115 24.968 58.0875 26.28C57.4795 27.576 56.6315 28.568 55.5435 29.256C54.4555 29.944 53.2155 30.288 51.8235 30.288ZM51.8235 27C52.8475 27 53.6475 26.56 54.2235 25.68C54.8155 24.8 55.1115 23.44 55.1115 21.6C55.1115 19.76 54.8155 18.4 54.2235 17.52C53.6475 16.64 52.8475 16.2 51.8235 16.2C50.8155 16.2 50.0155 16.64 49.4235 17.52C48.8475 18.4 48.5595 19.76 48.5595 21.6C48.5595 23.44 48.8475 24.8 49.4235 25.68C50.0155 26.56 50.8155 27 51.8235 27ZM68.1126 30.288C66.7206 30.288 65.4806 29.944 64.3926 29.256C63.3046 28.568 62.4486 27.576 61.8246 26.28C61.2166 24.968 60.9126 23.408 60.9126 21.6C60.9126 19.792 61.2166 18.24 61.8246 16.944C62.4486 15.632 63.3046 14.632 64.3926 13.944C65.4806 13.256 66.7206 12.912 68.1126 12.912C69.5046 12.912 70.7446 13.256 71.8326 13.944C72.9206 14.632 73.7686 15.632 74.3766 16.944C75.0006 18.24 75.3126 19.792 75.3126 21.6C75.3126 23.408 75.0006 24.968 74.3766 26.28C73.7686 27.576 72.9206 28.568 71.8326 29.256C70.7446 29.944 69.5046 30.288 68.1126 30.288ZM68.1126 27C69.1366 27 69.9366 26.56 70.5126 25.68C71.1046 24.8 71.4006 23.44 71.4006 21.6C71.4006 19.76 71.1046 18.4 70.5126 17.52C69.9366 16.64 69.1366 16.2 68.1126 16.2C67.1046 16.2 66.3046 16.64 65.7126 17.52C65.1366 18.4 64.8486 19.76 64.8486 21.6C64.8486 23.44 65.1366 24.8 65.7126 25.68C66.3046 26.56 67.1046 27 68.1126 27ZM94.0545 18.8H92.1665V25.36C92.1665 27.264 91.0305 28.384 89.2065 28.384C87.3665 28.384 86.1985 27.248 86.1985 25.36V18.8H84.3105V25.36C84.3105 28.288 86.1665 30.08 89.1905 30.08C92.2145 30.08 94.0545 28.288 94.0545 25.36V18.8ZM100.433 18.72C98.0013 18.72 96.3533 19.92 96.3533 21.84C96.3533 25.824 102.401 24.432 102.401 26.928C102.401 27.792 101.617 28.288 100.305 28.288C99.1053 28.288 97.6653 27.712 96.5133 26.656L95.6973 28.288C96.8493 29.344 98.5133 30.064 100.273 30.064C102.737 30.064 104.497 28.832 104.497 26.832C104.513 22.8 98.4653 24.112 98.4653 21.664C98.4653 20.912 99.1853 20.496 100.289 20.496C101.137 20.496 102.353 20.8 103.569 21.536L104.353 19.872C103.313 19.184 101.889 18.72 100.433 18.72ZM106.706 18.8V30H111.25C114.642 30 117.09 27.632 117.09 24.4C117.09 21.152 114.658 18.8 111.298 18.8H106.706ZM108.594 20.496H111.266C113.474 20.496 115.186 22.128 115.186 24.416C115.186 26.688 113.522 28.304 111.346 28.304H108.594V20.496ZM126.542 20.496V18.8H117.566V20.496H121.102V30H122.99V20.496H126.542Z" fill="white"/>
<path d="M232.548 15.2448L229.32 20.7553C228.822 21.6047 229.42 22.6827 230.391 22.6884L236.788 22.7238C237.759 22.7296 238.368 21.6573 237.879 20.8031L234.71 15.2572C234.23 14.4145 233.037 14.4078 232.548 15.2448Z" fill="#4E55A2"/>
<path d="M240.138 22.0884L236.91 16.5779C236.412 15.7285 237.009 14.6505 237.981 14.6448L244.377 14.6094C245.349 14.6037 245.958 15.6759 245.469 16.5301L242.3 22.076C241.82 22.9187 240.628 22.9254 240.138 22.0884Z" fill="#EA5045"/>
<path d="M260.523 14.6289H255.349C255.126 14.6289 254.945 14.8132 254.945 15.0404V16.0211C254.945 16.2483 255.126 16.4326 255.349 16.4326H257.016V22.4154C257.016 22.6425 257.197 22.8269 257.42 22.8269H258.452C258.675 22.8269 258.856 22.6425 258.856 22.4154V16.4326H260.522C260.745 16.4326 260.926 16.2483 260.926 16.0211V15.0404C260.926 14.8132 260.746 14.6289 260.523 14.6289Z" fill="white"/>
<path d="M268.041 20.7814L267.187 20.2774C267.021 20.18 266.814 20.2216 266.69 20.3699C266.323 20.8112 265.741 21.0651 265.081 21.0651C263.707 21.0651 262.82 20.1285 262.82 18.7177C262.82 17.3069 263.707 16.3702 265.081 16.3702C265.743 16.3702 266.318 16.6253 266.689 17.0685C266.812 17.2162 267.019 17.2566 267.184 17.1591L268.039 16.6545C268.246 16.5322 268.296 16.2505 268.146 16.0605C267.437 15.1624 266.324 14.6094 265.082 14.6094C262.743 14.6094 261.047 16.3926 261.047 18.7177C261.047 21.0427 262.743 22.826 265.082 22.826C266.334 22.826 267.448 22.2723 268.149 21.3742C268.297 21.1836 268.247 20.9031 268.041 20.7814Z" fill="white"/>
<path d="M272.716 18.4258H270.006C269.837 18.4258 269.699 18.6101 269.699 18.8373V19.7013C269.699 19.9285 269.837 20.1128 270.006 20.1128H272.716C272.885 20.1128 273.023 19.9285 273.023 19.7013V18.8373C273.023 18.6095 272.885 18.4258 272.716 18.4258Z" fill="white"/>
<path d="M253.323 18.6135C253.771 18.3249 254.199 17.7271 254.199 16.9612C254.199 15.5119 253.225 14.6113 251.659 14.6113H249.419C249.187 14.6113 248.87 14.6113 248.627 14.8596C248.383 15.1079 248.383 15.4306 248.383 15.6659V21.7703C248.383 22.0061 248.383 22.3289 248.627 22.5772C248.87 22.8254 249.187 22.8254 249.419 22.8254H251.792C253.345 22.8254 254.31 21.9031 254.31 20.419C254.31 19.3825 253.75 18.8605 253.323 18.6135ZM250.123 16.2028H251.537C252.115 16.2028 252.459 16.5112 252.459 17.0289C252.459 17.5465 252.115 17.855 251.537 17.855H250.123V16.2028ZM251.637 21.2334H250.123V19.4576H251.637C252.221 19.4576 252.57 19.7872 252.57 20.3402C252.57 20.7716 252.324 21.2334 251.637 21.2334Z" fill="white"/>
<path d="M289.631 16.6562C288.861 16.6562 288.302 16.9207 287.917 17.3669V17.1131C287.917 16.9256 287.814 16.8201 287.629 16.8201H286.479C286.295 16.8201 286.191 16.9256 286.191 17.1131V24.7251C286.191 24.9126 286.295 25.0181 286.479 25.0181H287.629C287.814 25.0181 287.917 24.9126 287.917 24.7251V22.1288C288.302 22.5751 288.861 22.8395 289.631 22.8395C291.138 22.8395 292.379 21.4926 292.379 19.7479C292.379 18.0031 291.138 16.6562 289.631 16.6562ZM289.286 21.1767C288.492 21.1767 287.917 20.6261 287.917 19.7479C287.917 18.8696 288.492 18.3191 289.286 18.3191C290.079 18.3191 290.654 18.8696 290.654 19.7479C290.654 20.6261 290.079 21.1767 289.286 21.1767Z" fill="white"/>
<path d="M279.588 14.8747C279.542 14.7108 279.415 14.6289 279.255 14.6289H277.414C277.253 14.6289 277.126 14.7108 277.081 14.8747L274.642 22.4985C274.573 22.7096 274.677 22.8262 274.884 22.8262H276.299C276.46 22.8262 276.575 22.7561 276.62 22.5805L276.923 21.5383H279.745L280.048 22.5805C280.094 22.7561 280.209 22.8262 280.369 22.8262H281.784C281.992 22.8262 282.095 22.7089 282.026 22.4985L279.588 14.8747ZM277.433 19.7818L278.334 16.6784L279.235 19.7818H277.433Z" fill="white"/>
<path d="M284.301 14.627H283.143C282.986 14.627 282.859 14.756 282.859 14.9156V22.5363C282.859 22.6958 282.986 22.8249 283.143 22.8249H284.301C284.458 22.8249 284.585 22.6958 284.585 22.5363V14.9156C284.585 14.756 284.458 14.627 284.301 14.627Z" fill="white"/>
<path d="M296.601 16.8055C295.842 16.8055 295.267 17.0867 294.956 17.5199V15.0385C294.956 14.8113 294.775 14.627 294.552 14.627H293.635C293.412 14.627 293.23 14.8113 293.23 15.0385V22.4134C293.23 22.6406 293.412 22.8249 293.635 22.8249H294.552C294.775 22.8249 294.956 22.6406 294.956 22.4134V19.6278C294.956 18.7961 295.393 18.4218 296.026 18.4218C296.578 18.4218 297.027 18.7613 297.027 19.4875V22.414C297.027 22.6412 297.208 22.8255 297.431 22.8255H298.349C298.572 22.8255 298.753 22.6412 298.753 22.414V19.2299C298.752 17.649 297.762 16.8055 296.601 16.8055Z" fill="white"/>
<path d="M304.301 17.3039C303.838 16.8781 303.166 16.6621 302.302 16.6621C301.824 16.6621 301.365 16.726 300.936 16.8514C300.722 16.9141 300.432 17.0612 300.194 17.194C299.998 17.3026 299.992 17.5869 300.184 17.7024L300.988 18.1884C301.014 18.2039 301.044 18.2057 301.071 18.1952C301.12 18.1753 301.171 18.1567 301.223 18.1399C301.523 18.0419 301.832 17.9916 302.142 17.9916C302.587 17.9916 302.924 18.0934 303.145 18.2939C303.363 18.4931 303.47 18.773 303.472 19.1498H302.089C301.248 19.1498 300.62 19.3168 300.222 19.6463C299.818 19.9809 299.613 20.4303 299.613 20.9821C299.613 21.3352 299.707 21.6561 299.892 21.9367C300.076 22.216 300.34 22.4369 300.676 22.5933C301.009 22.7479 301.401 22.8261 301.841 22.8261C302.281 22.8261 302.664 22.7553 302.978 22.6163C303.203 22.517 303.393 22.3848 303.546 22.2209V22.2625C303.546 22.5319 303.761 22.7498 304.025 22.7498H304.524C304.788 22.7498 305.002 22.5313 305.002 22.2625V19.2367C305.002 18.3826 304.766 17.7328 304.301 17.3039ZM303.471 20.812C303.371 21.0727 303.201 21.2763 302.966 21.4171C302.722 21.5636 302.436 21.6381 302.12 21.6381C301.799 21.6381 301.548 21.5711 301.373 21.4389C301.204 21.3116 301.123 21.1447 301.123 20.9281C301.123 20.7605 301.123 20.2509 302.185 20.2509H303.471V20.812H303.471Z" fill="white"/>
</g>
<defs>
<clipPath id="clip0_2820_26910">
<rect width="320" height="80" fill="white"/>
</clipPath>
<clipPath id="clip1_2820_26910">
<rect width="36.3905" height="36.8781" fill="white" transform="translate(178.035 23) rotate(0.0558185)"/>
</clipPath>
</defs>
</svg>
