<svg width="780" height="80" viewBox="0 0 780 80" fill="none" xmlns="http://www.w3.org/2000/svg">
<g clip-path="url(#clip0_2820_26938)">
<rect width="780" height="80" fill="#282828"/>
<ellipse cx="507.999" cy="41.5" rx="228.671" ry="234.5" fill="#48C89B" fill-opacity="0.1"/>
<ellipse opacity="0.1" cx="508.607" cy="41.5512" rx="166.878" ry="171.471" transform="rotate(10.3586 508.607 41.5512)" fill="white" fill-opacity="0.3"/>
<ellipse opacity="0.1" cx="508.032" cy="41.864" rx="132.648" ry="137.021" transform="rotate(10.3586 508.032 41.864)" fill="white" fill-opacity="0.3"/>
<ellipse opacity="0.2" cx="507.53" cy="41.1951" rx="87.0733" ry="89.9757" transform="rotate(10.3586 507.53 41.1951)" fill="white" fill-opacity="0.45"/>
<g clip-path="url(#clip1_2820_26938)">
<path d="M535.195 39.7629C535.198 36.2622 525.802 33.3322 513.311 32.6462L513.315 27.0683L528.912 27.0835L528.924 15.475L486.276 15.4334L486.264 27.0419L501.86 27.0571L501.854 32.6623C489.59 33.3704 480.413 36.2518 480.41 39.7096C480.407 43.1678 489.577 46.0673 501.841 46.7981L501.821 66.8281L513.277 66.8393L513.296 46.8366C525.789 46.1763 535.192 43.2637 535.195 39.7629ZM507.799 43.1849C494.391 43.1719 483.524 41.0583 483.527 38.4627C483.529 36.2649 491.324 34.4274 501.853 33.9242L501.852 35.2471L501.853 35.2471L501.848 40.6682C503.746 40.778 505.741 40.8364 507.801 40.8385C509.699 40.8403 511.542 40.7932 513.303 40.7055L513.31 33.9152C524.066 34.4076 532.083 36.28 532.081 38.51C532.078 41.1056 521.207 43.198 507.799 43.1849Z" fill="#48C89B"/>
</g>
<path d="M196.35 24.5V42H191.4V28.325H188.15V24.5H196.35ZM206.707 42.35C205.207 42.35 203.874 41.9917 202.707 41.275C201.54 40.5583 200.624 39.5167 199.957 38.15C199.307 36.7667 198.982 35.1333 198.982 33.25C198.982 31.3667 199.307 29.7417 199.957 28.375C200.624 26.9917 201.54 25.9417 202.707 25.225C203.874 24.5083 205.207 24.15 206.707 24.15C208.19 24.15 209.515 24.5083 210.682 25.225C211.849 25.9417 212.757 26.9917 213.407 28.375C214.074 29.7417 214.407 31.3667 214.407 33.25C214.407 35.1333 214.074 36.7667 213.407 38.15C212.757 39.5167 211.849 40.5583 210.682 41.275C209.515 41.9917 208.19 42.35 206.707 42.35ZM206.707 38.3C207.54 38.3 208.199 37.9 208.682 37.1C209.182 36.2833 209.432 35 209.432 33.25C209.432 31.5 209.182 30.225 208.682 29.425C208.199 28.6083 207.54 28.2 206.707 28.2C205.857 28.2 205.182 28.6083 204.682 29.425C204.199 30.225 203.957 31.5 203.957 33.25C203.957 35 204.199 36.2833 204.682 37.1C205.182 37.9 205.857 38.3 206.707 38.3ZM223.821 42.35C222.321 42.35 220.988 41.9917 219.821 41.275C218.654 40.5583 217.738 39.5167 217.071 38.15C216.421 36.7667 216.096 35.1333 216.096 33.25C216.096 31.3667 216.421 29.7417 217.071 28.375C217.738 26.9917 218.654 25.9417 219.821 25.225C220.988 24.5083 222.321 24.15 223.821 24.15C225.304 24.15 226.629 24.5083 227.796 25.225C228.963 25.9417 229.871 26.9917 230.521 28.375C231.188 29.7417 231.521 31.3667 231.521 33.25C231.521 35.1333 231.188 36.7667 230.521 38.15C229.871 39.5167 228.963 40.5583 227.796 41.275C226.629 41.9917 225.304 42.35 223.821 42.35ZM223.821 38.3C224.654 38.3 225.313 37.9 225.796 37.1C226.296 36.2833 226.546 35 226.546 33.25C226.546 31.5 226.296 30.225 225.796 29.425C225.313 28.6083 224.654 28.2 223.821 28.2C222.971 28.2 222.296 28.6083 221.796 29.425C221.313 30.225 221.071 31.5 221.071 33.25C221.071 35 221.313 36.2833 221.796 37.1C222.296 37.9 222.971 38.3 223.821 38.3ZM240.935 42.35C239.435 42.35 238.102 41.9917 236.935 41.275C235.769 40.5583 234.852 39.5167 234.185 38.15C233.535 36.7667 233.21 35.1333 233.21 33.25C233.21 31.3667 233.535 29.7417 234.185 28.375C234.852 26.9917 235.769 25.9417 236.935 25.225C238.102 24.5083 239.435 24.15 240.935 24.15C242.419 24.15 243.744 24.5083 244.91 25.225C246.077 25.9417 246.985 26.9917 247.635 28.375C248.302 29.7417 248.635 31.3667 248.635 33.25C248.635 35.1333 248.302 36.7667 247.635 38.15C246.985 39.5167 246.077 40.5583 244.91 41.275C243.744 41.9917 242.419 42.35 240.935 42.35ZM240.935 38.3C241.769 38.3 242.427 37.9 242.91 37.1C243.41 36.2833 243.66 35 243.66 33.25C243.66 31.5 243.41 30.225 242.91 29.425C242.427 28.6083 241.769 28.2 240.935 28.2C240.085 28.2 239.41 28.6083 238.91 29.425C238.427 30.225 238.185 31.5 238.185 33.25C238.185 35 238.427 36.2833 238.91 37.1C239.41 37.9 240.085 38.3 240.935 38.3ZM271.864 26.6H269.268V35.62C269.268 38.238 267.706 39.778 265.198 39.778C262.668 39.778 261.062 38.216 261.062 35.62V26.6H258.466V35.62C258.466 39.646 261.018 42.11 265.176 42.11C269.334 42.11 271.864 39.646 271.864 35.62V26.6ZM280.635 26.49C277.291 26.49 275.025 28.14 275.025 30.78C275.025 36.258 283.341 34.344 283.341 37.776C283.341 38.964 282.263 39.646 280.459 39.646C278.809 39.646 276.829 38.854 275.245 37.402L274.123 39.646C275.707 41.098 277.995 42.088 280.415 42.088C283.803 42.088 286.223 40.394 286.223 37.644C286.245 32.1 277.929 33.904 277.929 30.538C277.929 29.504 278.919 28.932 280.437 28.932C281.603 28.932 283.275 29.35 284.947 30.362L286.025 28.074C284.595 27.128 282.637 26.49 280.635 26.49ZM289.26 26.6V42H295.508C300.172 42 303.538 38.744 303.538 34.3C303.538 29.834 300.194 26.6 295.574 26.6H289.26ZM291.856 28.932H295.53C298.566 28.932 300.92 31.176 300.92 34.322C300.92 37.446 298.632 39.668 295.64 39.668H291.856V28.932ZM316.534 28.932V26.6H304.192V28.932H309.054V42H311.65V28.932H316.534Z" fill="white"/>
<path d="M190.87 53.418V56.834H195.784V58.038H190.87V62H189.47V52.2H196.386V53.418H190.87ZM201.106 62.084C200.369 62.084 199.706 61.9207 199.118 61.594C198.53 61.2673 198.068 60.8193 197.732 60.25C197.406 59.6713 197.242 59.018 197.242 58.29C197.242 57.562 197.406 56.9133 197.732 56.344C198.068 55.7653 198.53 55.3173 199.118 55C199.706 54.6733 200.369 54.51 201.106 54.51C201.844 54.51 202.502 54.6733 203.08 55C203.668 55.3173 204.126 55.7653 204.452 56.344C204.788 56.9133 204.956 57.562 204.956 58.29C204.956 59.018 204.788 59.6713 204.452 60.25C204.126 60.8193 203.668 61.2673 203.08 61.594C202.502 61.9207 201.844 62.084 201.106 62.084ZM201.106 60.908C201.582 60.908 202.007 60.8007 202.38 60.586C202.763 60.362 203.062 60.054 203.276 59.662C203.491 59.2607 203.598 58.8033 203.598 58.29C203.598 57.7767 203.491 57.324 203.276 56.932C203.062 56.5307 202.763 56.2227 202.38 56.008C202.007 55.7933 201.582 55.686 201.106 55.686C200.63 55.686 200.201 55.7933 199.818 56.008C199.445 56.2227 199.146 56.5307 198.922 56.932C198.708 57.324 198.6 57.7767 198.6 58.29C198.6 58.8033 198.708 59.2607 198.922 59.662C199.146 60.054 199.445 60.362 199.818 60.586C200.201 60.8007 200.63 60.908 201.106 60.908ZM208.103 55.826C208.336 55.3967 208.682 55.07 209.139 54.846C209.596 54.622 210.152 54.51 210.805 54.51V55.812C210.73 55.8027 210.628 55.798 210.497 55.798C209.769 55.798 209.195 56.0173 208.775 56.456C208.364 56.8853 208.159 57.5013 208.159 58.304V62H206.815V54.58H208.103V55.826ZM225.123 62L225.109 56.12L222.225 60.964H221.203L218.333 56.246V62H216.205V52.2H218.081L221.749 58.29L225.361 52.2H227.223L227.251 62H225.123ZM232.46 54.356C233.627 54.356 234.523 54.636 235.148 55.196C235.773 55.7467 236.086 56.582 236.086 57.702V62H234.042V61.062C233.631 61.762 232.866 62.112 231.746 62.112C231.167 62.112 230.663 62.014 230.234 61.818C229.814 61.622 229.492 61.3513 229.268 61.006C229.044 60.6607 228.932 60.2687 228.932 59.83C228.932 59.13 229.193 58.5793 229.716 58.178C230.248 57.7767 231.065 57.576 232.166 57.576H233.902C233.902 57.1 233.757 56.736 233.468 56.484C233.179 56.2227 232.745 56.092 232.166 56.092C231.765 56.092 231.368 56.1573 230.976 56.288C230.593 56.4093 230.267 56.5773 229.996 56.792L229.212 55.266C229.623 54.9767 230.113 54.7527 230.682 54.594C231.261 54.4353 231.853 54.356 232.46 54.356ZM232.292 60.642C232.665 60.642 232.997 60.558 233.286 60.39C233.575 60.2127 233.781 59.956 233.902 59.62V58.85H232.404C231.508 58.85 231.06 59.144 231.06 59.732C231.06 60.012 231.167 60.236 231.382 60.404C231.606 60.5627 231.909 60.642 232.292 60.642ZM242.851 62L241.199 59.69L239.491 62H237.111L240.009 58.206L237.209 54.468H239.659L241.255 56.666L242.893 54.468H245.217L242.417 58.15L245.329 62H242.851ZM246.389 54.468H248.573V62H246.389V54.468ZM247.481 53.418C247.08 53.418 246.753 53.3013 246.501 53.068C246.249 52.8347 246.123 52.5453 246.123 52.2C246.123 51.8547 246.249 51.5653 246.501 51.332C246.753 51.0987 247.08 50.982 247.481 50.982C247.882 50.982 248.209 51.094 248.461 51.318C248.713 51.542 248.839 51.822 248.839 52.158C248.839 52.522 248.713 52.8253 248.461 53.068C248.209 53.3013 247.882 53.418 247.481 53.418ZM260.246 54.356C261.188 54.356 261.935 54.636 262.486 55.196C263.046 55.7467 263.326 56.5773 263.326 57.688V62H261.142V58.024C261.142 57.4267 261.016 56.9833 260.764 56.694C260.521 56.3953 260.171 56.246 259.714 56.246C259.2 56.246 258.794 56.414 258.496 56.75C258.197 57.0767 258.048 57.5667 258.048 58.22V62H255.864V58.024C255.864 56.8387 255.388 56.246 254.436 56.246C253.932 56.246 253.53 56.414 253.232 56.75C252.933 57.0767 252.784 57.5667 252.784 58.22V62H250.6V54.468H252.686V55.336C252.966 55.0187 253.306 54.776 253.708 54.608C254.118 54.44 254.566 54.356 255.052 54.356C255.584 54.356 256.064 54.4633 256.494 54.678C256.923 54.8833 257.268 55.1867 257.53 55.588C257.838 55.196 258.225 54.8927 258.692 54.678C259.168 54.4633 259.686 54.356 260.246 54.356ZM272.871 54.468V62H270.799V61.104C270.51 61.4307 270.165 61.6827 269.763 61.86C269.362 62.028 268.928 62.112 268.461 62.112C267.472 62.112 266.688 61.8273 266.109 61.258C265.531 60.6887 265.241 59.844 265.241 58.724V54.468H267.425V58.402C267.425 59.6153 267.934 60.222 268.951 60.222C269.474 60.222 269.894 60.054 270.211 59.718C270.529 59.3727 270.687 58.864 270.687 58.192V54.468H272.871ZM284.541 54.356C285.483 54.356 286.23 54.636 286.781 55.196C287.341 55.7467 287.621 56.5773 287.621 57.688V62H285.437V58.024C285.437 57.4267 285.311 56.9833 285.059 56.694C284.816 56.3953 284.466 56.246 284.009 56.246C283.495 56.246 283.089 56.414 282.791 56.75C282.492 57.0767 282.343 57.5667 282.343 58.22V62H280.159V58.024C280.159 56.8387 279.683 56.246 278.731 56.246C278.227 56.246 277.825 56.414 277.527 56.75C277.228 57.0767 277.079 57.5667 277.079 58.22V62H274.895V54.468H276.981V55.336C277.261 55.0187 277.601 54.776 278.003 54.608C278.413 54.44 278.861 54.356 279.347 54.356C279.879 54.356 280.359 54.4633 280.789 54.678C281.218 54.8833 281.563 55.1867 281.825 55.588C282.133 55.196 282.52 54.8927 282.987 54.678C283.463 54.4633 283.981 54.356 284.541 54.356ZM295.727 54.048H292.591V52.2H301.131V54.048H297.995V62H295.727V54.048ZM304.119 55.462C304.381 55.098 304.731 54.8227 305.169 54.636C305.617 54.4493 306.131 54.356 306.709 54.356V56.372C306.467 56.3533 306.303 56.344 306.219 56.344C305.594 56.344 305.104 56.5213 304.749 56.876C304.395 57.2213 304.217 57.744 304.217 58.444V62H302.033V54.468H304.119V55.462ZM311.005 54.356C312.172 54.356 313.068 54.636 313.693 55.196C314.318 55.7467 314.631 56.582 314.631 57.702V62H312.587V61.062C312.176 61.762 311.411 62.112 310.291 62.112C309.712 62.112 309.208 62.014 308.779 61.818C308.359 61.622 308.037 61.3513 307.813 61.006C307.589 60.6607 307.477 60.2687 307.477 59.83C307.477 59.13 307.738 58.5793 308.261 58.178C308.793 57.7767 309.61 57.576 310.711 57.576H312.447C312.447 57.1 312.302 56.736 312.013 56.484C311.724 56.2227 311.29 56.092 310.711 56.092C310.31 56.092 309.913 56.1573 309.521 56.288C309.138 56.4093 308.812 56.5773 308.541 56.792L307.757 55.266C308.168 54.9767 308.658 54.7527 309.227 54.594C309.806 54.4353 310.398 54.356 311.005 54.356ZM310.837 60.642C311.21 60.642 311.542 60.558 311.831 60.39C312.12 60.2127 312.326 59.956 312.447 59.62V58.85H310.949C310.053 58.85 309.605 59.144 309.605 59.732C309.605 60.012 309.712 60.236 309.927 60.404C310.151 60.5627 310.454 60.642 310.837 60.642ZM324.362 51.612V62H322.276V61.132C321.734 61.7853 320.95 62.112 319.924 62.112C319.214 62.112 318.57 61.9533 317.992 61.636C317.422 61.3187 316.974 60.866 316.648 60.278C316.321 59.69 316.158 59.0087 316.158 58.234C316.158 57.4593 316.321 56.778 316.648 56.19C316.974 55.602 317.422 55.1493 317.992 54.832C318.57 54.5147 319.214 54.356 319.924 54.356C320.885 54.356 321.636 54.6593 322.178 55.266V51.612H324.362ZM320.302 60.32C320.852 60.32 321.31 60.1333 321.674 59.76C322.038 59.3773 322.22 58.8687 322.22 58.234C322.22 57.5993 322.038 57.0953 321.674 56.722C321.31 56.3393 320.852 56.148 320.302 56.148C319.742 56.148 319.28 56.3393 318.916 56.722C318.552 57.0953 318.37 57.5993 318.37 58.234C318.37 58.8687 318.552 59.3773 318.916 59.76C319.28 60.1333 319.742 60.32 320.302 60.32ZM326.383 54.468H328.567V62H326.383V54.468ZM327.475 53.418C327.074 53.418 326.747 53.3013 326.495 53.068C326.243 52.8347 326.117 52.5453 326.117 52.2C326.117 51.8547 326.243 51.5653 326.495 51.332C326.747 51.0987 327.074 50.982 327.475 50.982C327.876 50.982 328.203 51.094 328.455 51.318C328.707 51.542 328.833 51.822 328.833 52.158C328.833 52.522 328.707 52.8253 328.455 53.068C328.203 53.3013 327.876 53.418 327.475 53.418ZM335.172 54.356C336.105 54.356 336.857 54.636 337.426 55.196C338.005 55.756 338.294 56.5867 338.294 57.688V62H336.11V58.024C336.11 57.4267 335.979 56.9833 335.718 56.694C335.457 56.3953 335.079 56.246 334.584 56.246C334.033 56.246 333.595 56.4187 333.268 56.764C332.941 57.1 332.778 57.604 332.778 58.276V62H330.594V54.468H332.68V55.35C332.969 55.0327 333.329 54.79 333.758 54.622C334.187 54.4447 334.659 54.356 335.172 54.356ZM348.126 54.468V60.74C348.126 62.1213 347.766 63.148 347.048 63.82C346.329 64.492 345.279 64.828 343.898 64.828C343.17 64.828 342.479 64.7393 341.826 64.562C341.172 64.3847 340.631 64.128 340.202 63.792L341.07 62.224C341.387 62.4853 341.788 62.6907 342.274 62.84C342.759 62.9987 343.244 63.078 343.73 63.078C344.486 63.078 345.041 62.9053 345.396 62.56C345.76 62.224 345.942 61.7107 345.942 61.02V60.698C345.372 61.3233 344.579 61.636 343.562 61.636C342.871 61.636 342.236 61.4867 341.658 61.188C341.088 60.88 340.636 60.4507 340.3 59.9C339.964 59.3493 339.796 58.7147 339.796 57.996C339.796 57.2773 339.964 56.6427 340.3 56.092C340.636 55.5413 341.088 55.1167 341.658 54.818C342.236 54.51 342.871 54.356 343.562 54.356C344.654 54.356 345.484 54.7153 346.054 55.434V54.468H348.126ZM343.996 59.844C344.574 59.844 345.046 59.676 345.41 59.34C345.783 58.9947 345.97 58.5467 345.97 57.996C345.97 57.4453 345.783 57.002 345.41 56.666C345.046 56.3207 344.574 56.148 343.996 56.148C343.417 56.148 342.941 56.3207 342.568 56.666C342.194 57.002 342.008 57.4453 342.008 57.996C342.008 58.5467 342.194 58.9947 342.568 59.34C342.941 59.676 343.417 59.844 343.996 59.844ZM362.892 52.2L358.594 62H357.208L352.896 52.2H354.408L357.936 60.25L361.492 52.2H362.892ZM366.563 62.084C365.826 62.084 365.163 61.9207 364.575 61.594C363.987 61.2673 363.525 60.8193 363.189 60.25C362.863 59.6713 362.699 59.018 362.699 58.29C362.699 57.562 362.863 56.9133 363.189 56.344C363.525 55.7653 363.987 55.3173 364.575 55C365.163 54.6733 365.826 54.51 366.563 54.51C367.301 54.51 367.959 54.6733 368.537 55C369.125 55.3173 369.583 55.7653 369.909 56.344C370.245 56.9133 370.413 57.562 370.413 58.29C370.413 59.018 370.245 59.6713 369.909 60.25C369.583 60.8193 369.125 61.2673 368.537 61.594C367.959 61.9207 367.301 62.084 366.563 62.084ZM366.563 60.908C367.039 60.908 367.464 60.8007 367.837 60.586C368.22 60.362 368.519 60.054 368.733 59.662C368.948 59.2607 369.055 58.8033 369.055 58.29C369.055 57.7767 368.948 57.324 368.733 56.932C368.519 56.5307 368.22 56.2227 367.837 56.008C367.464 55.7933 367.039 55.686 366.563 55.686C366.087 55.686 365.658 55.7933 365.275 56.008C364.902 56.2227 364.603 56.5307 364.379 56.932C364.165 57.324 364.057 57.7767 364.057 58.29C364.057 58.8033 364.165 59.2607 364.379 59.662C364.603 60.054 364.902 60.362 365.275 60.586C365.658 60.8007 366.087 60.908 366.563 60.908ZM372.272 51.612H373.616V62H372.272V51.612ZM383.098 54.58V62H381.824V60.88C381.554 61.2627 381.194 61.5613 380.746 61.776C380.308 61.9813 379.827 62.084 379.304 62.084C378.315 62.084 377.536 61.8133 376.966 61.272C376.397 60.7213 376.112 59.914 376.112 58.85V54.58H377.456V58.696C377.456 59.4147 377.629 59.9607 377.974 60.334C378.32 60.698 378.814 60.88 379.458 60.88C380.168 60.88 380.728 60.6653 381.138 60.236C381.549 59.8067 381.754 59.2 381.754 58.416V54.58H383.098ZM394.939 54.51C395.872 54.51 396.609 54.7807 397.151 55.322C397.701 55.8633 397.977 56.666 397.977 57.73V62H396.633V57.884C396.633 57.1653 396.465 56.624 396.129 56.26C395.802 55.896 395.331 55.714 394.715 55.714C394.033 55.714 393.492 55.9287 393.091 56.358C392.689 56.778 392.489 57.3847 392.489 58.178V62H391.145V57.884C391.145 57.1653 390.977 56.624 390.641 56.26C390.314 55.896 389.843 55.714 389.227 55.714C388.545 55.714 388.004 55.9287 387.603 56.358C387.201 56.778 387.001 57.3847 387.001 58.178V62H385.657V54.58H386.945V55.686C387.215 55.3033 387.57 55.014 388.009 54.818C388.447 54.6127 388.947 54.51 389.507 54.51C390.085 54.51 390.599 54.6267 391.047 54.86C391.495 55.0933 391.84 55.434 392.083 55.882C392.363 55.4527 392.75 55.1167 393.245 54.874C393.749 54.6313 394.313 54.51 394.939 54.51ZM407.197 58.332C407.197 58.4347 407.187 58.57 407.169 58.738H401.149C401.233 59.3913 401.517 59.9187 402.003 60.32C402.497 60.712 403.109 60.908 403.837 60.908C404.723 60.908 405.437 60.6093 405.979 60.012L406.721 60.88C406.385 61.272 405.965 61.5707 405.461 61.776C404.966 61.9813 404.411 62.084 403.795 62.084C403.011 62.084 402.315 61.9253 401.709 61.608C401.102 61.2813 400.631 60.8287 400.295 60.25C399.968 59.6713 399.805 59.018 399.805 58.29C399.805 57.5713 399.963 56.9227 400.281 56.344C400.607 55.7653 401.051 55.3173 401.611 55C402.18 54.6733 402.819 54.51 403.529 54.51C404.238 54.51 404.868 54.6733 405.419 55C405.979 55.3173 406.413 55.7653 406.721 56.344C407.038 56.9227 407.197 57.5853 407.197 58.332ZM403.529 55.644C402.885 55.644 402.343 55.84 401.905 56.232C401.475 56.624 401.223 57.1373 401.149 57.772H405.909C405.834 57.1467 405.577 56.638 405.139 56.246C404.709 55.8447 404.173 55.644 403.529 55.644ZM408.881 52.2H410.463L410.197 58.906H409.133L408.881 52.2ZM409.679 62.084C409.418 62.084 409.198 62 409.021 61.832C408.844 61.6547 408.755 61.44 408.755 61.188C408.755 60.936 408.844 60.726 409.021 60.558C409.198 60.3807 409.418 60.292 409.679 60.292C409.94 60.292 410.155 60.3807 410.323 60.558C410.491 60.726 410.575 60.936 410.575 61.188C410.575 61.44 410.486 61.6547 410.309 61.832C410.141 62 409.931 62.084 409.679 62.084Z" fill="#2CBC90"/>
<path d="M45.7858 34.0477L40.5192 42.8215C39.7068 44.1739 40.6816 45.8903 42.2665 45.8994L52.7032 45.9558C54.2881 45.9649 55.2813 44.2577 54.4843 42.8977L49.3142 34.0675C48.531 32.7258 46.5843 32.7151 45.7858 34.0477Z" fill="#4E55A2"/>
<path d="M58.1686 44.9472L52.902 36.1734C52.0896 34.821 53.0644 33.1046 54.6493 33.0954L65.086 33.0391C66.6709 33.03 67.6641 34.7372 66.8671 36.0972L61.697 44.9274C60.9138 46.2691 58.9687 46.2798 58.1686 44.9472Z" fill="#EA5045"/>
<path d="M91.4278 33.0664H82.9875C82.6235 33.0664 82.3281 33.3599 82.3281 33.7216V35.283C82.3281 35.6447 82.6235 35.9382 82.9875 35.9382H85.7058V45.4639C85.7058 45.8256 86.0012 46.1191 86.3652 46.1191H88.0491C88.4131 46.1191 88.7085 45.8256 88.7085 45.4639V35.9382H91.4268C91.7908 35.9382 92.0862 35.6447 92.0862 35.283V33.7216C92.0862 33.3599 91.7918 33.0664 91.4278 33.0664Z" fill="white"/>
<path d="M103.692 42.8642L102.299 42.0618C102.028 41.9066 101.69 41.9728 101.488 42.209C100.89 42.9117 99.9407 43.3158 98.8636 43.3158C96.6207 43.3158 95.1746 41.8246 95.1746 39.5783C95.1746 37.332 96.6217 35.8408 98.8636 35.8408C99.9427 35.8408 100.882 36.2469 101.486 36.9525C101.688 37.1877 102.025 37.252 102.295 37.0968L103.689 36.2934C104.028 36.0987 104.108 35.65 103.863 35.3476C102.707 33.9176 100.892 33.0371 98.8645 33.0371C95.0482 33.0371 92.2812 35.8763 92.2812 39.5783C92.2812 43.2803 95.0482 46.1195 98.8645 46.1195C100.907 46.1195 102.725 45.238 103.869 43.808C104.111 43.5046 104.03 43.0579 103.692 42.8642Z" fill="white"/>
<path d="M111.324 39.1152H106.904C106.627 39.1152 106.402 39.4087 106.402 39.7704V41.1461C106.402 41.5078 106.627 41.8013 106.904 41.8013H111.324C111.6 41.8013 111.825 41.5078 111.825 41.1461V39.7704C111.825 39.4078 111.6 39.1152 111.324 39.1152Z" fill="white"/>
<path d="M79.6814 39.4132C80.4124 38.9537 81.1106 38.002 81.1106 36.7825C81.1106 34.475 79.5222 33.041 76.9661 33.041H73.3119C72.934 33.041 72.4168 33.041 72.0189 33.4363C71.6211 33.8316 71.6211 34.3455 71.6211 34.72V44.4394C71.6211 44.815 71.6211 45.3288 72.0189 45.7241C72.4168 46.1194 72.934 46.1194 73.3119 46.1194H77.1829C79.7172 46.1194 81.2916 44.6509 81.2916 42.288C81.2916 40.6376 80.3786 39.8065 79.6814 39.4132ZM74.4607 35.5749H76.7682C77.7101 35.5749 78.272 36.066 78.272 36.8902C78.272 37.7144 77.7101 38.2056 76.7682 38.2056H74.4607V35.5749ZM76.9303 43.5846H74.4607V40.7572H76.9303C77.8831 40.7572 78.453 41.282 78.453 42.1625C78.453 42.8493 78.0522 43.5846 76.9303 43.5846Z" fill="white"/>
<path d="M138.92 36.2969C137.665 36.2969 136.752 36.7179 136.124 37.4284V37.0242C136.124 36.7258 135.955 36.5578 135.655 36.5578H133.778C133.478 36.5578 133.309 36.7258 133.309 37.0242V49.1441C133.309 49.4425 133.478 49.6105 133.778 49.6105H135.655C135.955 49.6105 136.124 49.4425 136.124 49.1441V45.0102C136.752 45.7208 137.665 46.1418 138.92 46.1418C141.379 46.1418 143.405 43.9973 143.405 41.2193C143.405 38.4414 141.379 36.2969 138.92 36.2969ZM138.357 43.4943C137.062 43.4943 136.124 42.6177 136.124 41.2193C136.124 39.821 137.062 38.9444 138.357 38.9444C139.652 38.9444 140.59 39.821 140.59 41.2193C140.59 42.6177 139.652 43.4943 138.357 43.4943Z" fill="white"/>
<path d="M122.534 33.4577C122.459 33.1969 122.252 33.0664 121.99 33.0664H118.987C118.724 33.0664 118.517 33.1969 118.443 33.4577L114.464 45.5964C114.352 45.9324 114.521 46.1181 114.858 46.1181H117.167C117.429 46.1181 117.617 46.0065 117.692 45.7268L118.185 44.0675H122.79L123.283 45.7268C123.359 46.0065 123.546 46.1181 123.809 46.1181H126.117C126.455 46.1181 126.623 45.9314 126.511 45.5964L122.534 33.4577ZM119.018 41.2708L120.488 36.3296L121.958 41.2708H119.018Z" fill="white"/>
<path d="M130.223 33.0664H128.334C128.078 33.0664 127.871 33.272 127.871 33.5259V45.6596C127.871 45.9136 128.078 46.1191 128.334 46.1191H130.223C130.479 46.1191 130.686 45.9136 130.686 45.6596V33.5259C130.686 33.272 130.479 33.0664 130.223 33.0664Z" fill="white"/>
<path d="M150.296 36.5351C149.058 36.5351 148.119 36.9828 147.613 37.6726V33.7216C147.613 33.3599 147.317 33.0664 146.953 33.0664H145.456C145.092 33.0664 144.797 33.3599 144.797 33.7216V45.4639C144.797 45.8256 145.092 46.1191 145.456 46.1191H146.953C147.317 46.1191 147.613 45.8256 147.613 45.4639V41.0287C147.613 39.7044 148.326 39.1085 149.358 39.1085C150.259 39.1085 150.991 39.6491 150.991 40.8053V45.4649C150.991 45.8266 151.287 46.1201 151.651 46.1201H153.148C153.512 46.1201 153.807 45.8266 153.807 45.4649V40.3952C153.805 37.8782 152.191 36.5351 150.296 36.5351Z" fill="white"/>
<path d="M162.856 37.3265C162.101 36.6486 161.004 36.3047 159.594 36.3047C158.814 36.3047 158.065 36.4065 157.365 36.6061C157.016 36.7059 156.543 36.9401 156.154 37.1516C155.835 37.3246 155.825 37.7772 156.138 37.961L157.45 38.7348C157.492 38.7595 157.541 38.7624 157.586 38.7456C157.666 38.714 157.748 38.6844 157.833 38.6577C158.322 38.5015 158.826 38.4215 159.333 38.4215C160.059 38.4215 160.609 38.5836 160.969 38.9028C161.325 39.22 161.5 39.6657 161.503 40.2656H159.246C157.875 40.2656 156.85 40.5314 156.201 41.0562C155.541 41.5888 155.207 42.3043 155.207 43.1829C155.207 43.7452 155.36 44.2561 155.662 44.7028C155.962 45.1475 156.393 45.4993 156.942 45.7483C157.485 45.9944 158.124 46.1189 158.842 46.1189C159.559 46.1189 160.184 46.0063 160.697 45.7849C161.063 45.6268 161.374 45.4163 161.624 45.1554V45.2216C161.624 45.6505 161.974 45.9974 162.405 45.9974H163.219C163.65 45.9974 163.999 45.6495 163.999 45.2216V40.4039C163.999 39.0441 163.614 38.0094 162.856 37.3265ZM161.501 42.9121C161.339 43.3272 161.061 43.6513 160.677 43.8756C160.279 44.1089 159.813 44.2274 159.297 44.2274C158.774 44.2274 158.364 44.1207 158.078 43.9102C157.803 43.7076 157.67 43.4418 157.67 43.0969C157.67 42.8301 157.67 42.0187 159.402 42.0187H161.502V42.9121H161.501Z" fill="white"/>
<rect x="652" y="28" width="99" height="24" rx="5.48507" fill="url(#paint0_linear_2820_26938)"/>
<path d="M690.106 35.4688L692.567 42.0078L695.022 35.4688H696.938V44H695.461V41.1875L695.608 37.4258L693.088 44H692.028L689.514 37.4316L689.661 41.1875V44H688.184V35.4688H690.106ZM698.291 40.7715C698.291 40.1504 698.415 39.5918 698.661 39.0957C698.907 38.5957 699.252 38.2129 699.698 37.9473C700.143 37.6777 700.655 37.543 701.233 37.543C702.088 37.543 702.782 37.8184 703.313 38.3691C703.848 38.9199 704.137 39.6504 704.18 40.5605L704.186 40.8945C704.186 41.5195 704.065 42.0781 703.823 42.5703C703.584 43.0625 703.241 43.4434 702.791 43.7129C702.346 43.9824 701.831 44.1172 701.245 44.1172C700.35 44.1172 699.633 43.8203 699.094 43.2266C698.559 42.6289 698.291 41.834 698.291 40.8418V40.7715ZM699.715 40.8945C699.715 41.5469 699.85 42.0586 700.12 42.4297C700.389 42.7969 700.764 42.9805 701.245 42.9805C701.725 42.9805 702.098 42.793 702.364 42.418C702.633 42.043 702.768 41.4941 702.768 40.7715C702.768 40.1309 702.629 39.623 702.352 39.248C702.079 38.873 701.706 38.6855 701.233 38.6855C700.768 38.6855 700.399 38.8711 700.125 39.2422C699.852 39.6094 699.715 40.1602 699.715 40.8945ZM708.709 38.9609C708.522 38.9297 708.329 38.9141 708.129 38.9141C707.477 38.9141 707.038 39.1641 706.811 39.6641V44H705.387V37.6602H706.747L706.782 38.3691C707.125 37.8184 707.602 37.543 708.211 37.543C708.415 37.543 708.583 37.5703 708.715 37.625L708.709 38.9609ZM712.284 44.1172C711.381 44.1172 710.649 43.834 710.086 43.2676C709.528 42.6973 709.249 41.9395 709.249 40.9941V40.8184C709.249 40.1855 709.37 39.6211 709.612 39.125C709.858 38.625 710.202 38.2363 710.643 37.959C711.084 37.6816 711.577 37.543 712.12 37.543C712.983 37.543 713.649 37.8184 714.118 38.3691C714.59 38.9199 714.827 39.6992 714.827 40.707V41.2812H710.684C710.727 41.8047 710.901 42.2188 711.206 42.5234C711.514 42.8281 711.901 42.9805 712.366 42.9805C713.018 42.9805 713.549 42.7168 713.959 42.1895L714.727 42.9219C714.473 43.3008 714.133 43.5957 713.708 43.8066C713.286 44.0137 712.811 44.1172 712.284 44.1172ZM712.114 38.6855C711.723 38.6855 711.407 38.8223 711.165 39.0957C710.926 39.3691 710.774 39.75 710.708 40.2383H713.42V40.1328C713.389 39.6562 713.262 39.2969 713.04 39.0547C712.817 38.8086 712.508 38.6855 712.114 38.6855Z" fill="white"/>
<path d="M734.187 40.0025C734.187 40.1775 734.123 40.3575 733.988 40.4925L728.677 45.8025C728.407 46.0725 727.973 46.0725 727.703 45.8025C727.432 45.5325 727.432 45.0975 727.703 44.8275L732.527 40.0025L727.703 35.1775C727.432 34.9075 727.432 34.4725 727.703 34.2025C727.973 33.9325 728.407 33.9325 728.677 34.2025L733.988 39.5125C734.123 39.6525 734.187 39.8275 734.187 40.0025Z" fill="white"/>
</g>
<defs>
<linearGradient id="paint0_linear_2820_26938" x1="701.5" y1="28" x2="701.5" y2="52" gradientUnits="userSpaceOnUse">
<stop stop-color="#38D1A2"/>
<stop offset="1" stop-color="#17BB88"/>
</linearGradient>
<clipPath id="clip0_2820_26938">
<rect width="780" height="80" fill="white"/>
</clipPath>
<clipPath id="clip1_2820_26938">
<rect width="54.9947" height="55.7316" fill="white" transform="translate(480.199 13.252) rotate(0.0558185)"/>
</clipPath>
</defs>
</svg>
