<svg width="780" height="80" viewBox="0 0 780 80" fill="none" xmlns="http://www.w3.org/2000/svg">
<g clip-path="url(#clip0_2820_26709)">
<rect width="780" height="80" fill="#282828"/>
<ellipse cx="507.999" cy="41.5" rx="228.671" ry="234.5" fill="#48C89B" fill-opacity="0.1"/>
<ellipse opacity="0.1" cx="508.607" cy="41.5512" rx="166.878" ry="171.471" transform="rotate(10.3586 508.607 41.5512)" fill="white" fill-opacity="0.3"/>
<ellipse opacity="0.1" cx="508.032" cy="41.864" rx="132.648" ry="137.021" transform="rotate(10.3586 508.032 41.864)" fill="white" fill-opacity="0.3"/>
<ellipse opacity="0.2" cx="507.53" cy="41.1951" rx="87.0733" ry="89.9757" transform="rotate(10.3586 507.53 41.1951)" fill="white" fill-opacity="0.45"/>
<g clip-path="url(#clip1_2820_26709)">
<path d="M535.195 39.7629C535.198 36.2622 525.802 33.3322 513.311 32.6462L513.315 27.0683L528.912 27.0835L528.924 15.475L486.276 15.4334L486.264 27.0419L501.86 27.0571L501.854 32.6623C489.59 33.3704 480.413 36.2518 480.41 39.7096C480.407 43.1678 489.577 46.0673 501.841 46.7981L501.821 66.8281L513.277 66.8393L513.296 46.8366C525.789 46.1763 535.192 43.2637 535.195 39.7629ZM507.799 43.1849C494.391 43.1719 483.524 41.0583 483.527 38.4627C483.529 36.2649 491.324 34.4274 501.853 33.9242L501.852 35.2471L501.853 35.2471L501.848 40.6682C503.746 40.778 505.741 40.8364 507.801 40.8385C509.699 40.8403 511.542 40.7932 513.303 40.7055L513.31 33.9152C524.066 34.4076 532.083 36.28 532.081 38.51C532.078 41.1056 521.207 43.198 507.799 43.1849Z" fill="#48C89B"/>
</g>
<path d="M196.35 24.5V42H191.4V28.325H188.15V24.5H196.35ZM206.707 42.35C205.207 42.35 203.874 41.9917 202.707 41.275C201.54 40.5583 200.624 39.5167 199.957 38.15C199.307 36.7667 198.982 35.1333 198.982 33.25C198.982 31.3667 199.307 29.7417 199.957 28.375C200.624 26.9917 201.54 25.9417 202.707 25.225C203.874 24.5083 205.207 24.15 206.707 24.15C208.19 24.15 209.515 24.5083 210.682 25.225C211.849 25.9417 212.757 26.9917 213.407 28.375C214.074 29.7417 214.407 31.3667 214.407 33.25C214.407 35.1333 214.074 36.7667 213.407 38.15C212.757 39.5167 211.849 40.5583 210.682 41.275C209.515 41.9917 208.19 42.35 206.707 42.35ZM206.707 38.3C207.54 38.3 208.199 37.9 208.682 37.1C209.182 36.2833 209.432 35 209.432 33.25C209.432 31.5 209.182 30.225 208.682 29.425C208.199 28.6083 207.54 28.2 206.707 28.2C205.857 28.2 205.182 28.6083 204.682 29.425C204.199 30.225 203.957 31.5 203.957 33.25C203.957 35 204.199 36.2833 204.682 37.1C205.182 37.9 205.857 38.3 206.707 38.3ZM223.821 42.35C222.321 42.35 220.988 41.9917 219.821 41.275C218.654 40.5583 217.738 39.5167 217.071 38.15C216.421 36.7667 216.096 35.1333 216.096 33.25C216.096 31.3667 216.421 29.7417 217.071 28.375C217.738 26.9917 218.654 25.9417 219.821 25.225C220.988 24.5083 222.321 24.15 223.821 24.15C225.304 24.15 226.629 24.5083 227.796 25.225C228.963 25.9417 229.871 26.9917 230.521 28.375C231.188 29.7417 231.521 31.3667 231.521 33.25C231.521 35.1333 231.188 36.7667 230.521 38.15C229.871 39.5167 228.963 40.5583 227.796 41.275C226.629 41.9917 225.304 42.35 223.821 42.35ZM223.821 38.3C224.654 38.3 225.313 37.9 225.796 37.1C226.296 36.2833 226.546 35 226.546 33.25C226.546 31.5 226.296 30.225 225.796 29.425C225.313 28.6083 224.654 28.2 223.821 28.2C222.971 28.2 222.296 28.6083 221.796 29.425C221.313 30.225 221.071 31.5 221.071 33.25C221.071 35 221.313 36.2833 221.796 37.1C222.296 37.9 222.971 38.3 223.821 38.3ZM240.935 42.35C239.435 42.35 238.102 41.9917 236.935 41.275C235.769 40.5583 234.852 39.5167 234.185 38.15C233.535 36.7667 233.21 35.1333 233.21 33.25C233.21 31.3667 233.535 29.7417 234.185 28.375C234.852 26.9917 235.769 25.9417 236.935 25.225C238.102 24.5083 239.435 24.15 240.935 24.15C242.419 24.15 243.744 24.5083 244.91 25.225C246.077 25.9417 246.985 26.9917 247.635 28.375C248.302 29.7417 248.635 31.3667 248.635 33.25C248.635 35.1333 248.302 36.7667 247.635 38.15C246.985 39.5167 246.077 40.5583 244.91 41.275C243.744 41.9917 242.419 42.35 240.935 42.35ZM240.935 38.3C241.769 38.3 242.427 37.9 242.91 37.1C243.41 36.2833 243.66 35 243.66 33.25C243.66 31.5 243.41 30.225 242.91 29.425C242.427 28.6083 241.769 28.2 240.935 28.2C240.085 28.2 239.41 28.6083 238.91 29.425C238.427 30.225 238.185 31.5 238.185 33.25C238.185 35 238.427 36.2833 238.91 37.1C239.41 37.9 240.085 38.3 240.935 38.3ZM271.864 26.6H269.268V35.62C269.268 38.238 267.706 39.778 265.198 39.778C262.668 39.778 261.062 38.216 261.062 35.62V26.6H258.466V35.62C258.466 39.646 261.018 42.11 265.176 42.11C269.334 42.11 271.864 39.646 271.864 35.62V26.6ZM280.635 26.49C277.291 26.49 275.025 28.14 275.025 30.78C275.025 36.258 283.341 34.344 283.341 37.776C283.341 38.964 282.263 39.646 280.459 39.646C278.809 39.646 276.829 38.854 275.245 37.402L274.123 39.646C275.707 41.098 277.995 42.088 280.415 42.088C283.803 42.088 286.223 40.394 286.223 37.644C286.245 32.1 277.929 33.904 277.929 30.538C277.929 29.504 278.919 28.932 280.437 28.932C281.603 28.932 283.275 29.35 284.947 30.362L286.025 28.074C284.595 27.128 282.637 26.49 280.635 26.49ZM289.26 26.6V42H295.508C300.172 42 303.538 38.744 303.538 34.3C303.538 29.834 300.194 26.6 295.574 26.6H289.26ZM291.856 28.932H295.53C298.566 28.932 300.92 31.176 300.92 34.322C300.92 37.446 298.632 39.668 295.64 39.668H291.856V28.932ZM316.534 28.932V26.6H304.192V28.932H309.054V42H311.65V28.932H316.534Z" fill="white"/>
<path d="M194.216 56.89C194.832 57.058 195.313 57.352 195.658 57.772C196.003 58.1827 196.176 58.6773 196.176 59.256C196.176 59.8347 195.989 60.3433 195.616 60.782C195.252 61.2113 194.762 61.5427 194.146 61.776C193.539 62 192.877 62.112 192.158 62.112C191.505 62.112 190.856 62.014 190.212 61.818C189.568 61.622 188.98 61.328 188.448 60.936L188.938 59.9C189.367 60.236 189.848 60.488 190.38 60.656C190.912 60.824 191.449 60.908 191.99 60.908C192.774 60.908 193.432 60.7447 193.964 60.418C194.496 60.082 194.762 59.6247 194.762 59.046C194.762 58.5513 194.561 58.1733 194.16 57.912C193.759 57.6413 193.194 57.506 192.466 57.506H190.282V56.372H192.368C192.993 56.372 193.479 56.246 193.824 55.994C194.179 55.7327 194.356 55.3733 194.356 54.916C194.356 54.4027 194.127 53.9967 193.67 53.698C193.213 53.3993 192.634 53.25 191.934 53.25C191.477 53.25 191.01 53.3153 190.534 53.446C190.067 53.5767 189.624 53.7727 189.204 54.034L188.756 52.886C189.251 52.606 189.773 52.396 190.324 52.256C190.875 52.116 191.425 52.046 191.976 52.046C192.667 52.046 193.301 52.1533 193.88 52.368C194.459 52.5827 194.916 52.8953 195.252 53.306C195.597 53.7167 195.77 54.1973 195.77 54.748C195.77 55.2427 195.63 55.6767 195.35 56.05C195.079 56.4233 194.701 56.7033 194.216 56.89ZM200.93 54.51C201.957 54.51 202.741 54.762 203.282 55.266C203.833 55.77 204.108 56.5213 204.108 57.52V62H202.834V61.02C202.61 61.3653 202.288 61.6313 201.868 61.818C201.458 61.9953 200.968 62.084 200.398 62.084C199.568 62.084 198.9 61.8833 198.396 61.482C197.902 61.0807 197.654 60.5533 197.654 59.9C197.654 59.2467 197.892 58.724 198.368 58.332C198.844 57.9307 199.6 57.73 200.636 57.73H202.764V57.464C202.764 56.8853 202.596 56.442 202.26 56.134C201.924 55.826 201.43 55.672 200.776 55.672C200.338 55.672 199.908 55.7467 199.488 55.896C199.068 56.036 198.714 56.2273 198.424 56.47L197.864 55.462C198.247 55.154 198.704 54.9207 199.236 54.762C199.768 54.594 200.333 54.51 200.93 54.51ZM200.622 61.048C201.136 61.048 201.579 60.936 201.952 60.712C202.326 60.4787 202.596 60.152 202.764 59.732V58.696H200.692C199.554 58.696 198.984 59.0787 198.984 59.844C198.984 60.2173 199.129 60.5113 199.418 60.726C199.708 60.9407 200.109 61.048 200.622 61.048ZM217.386 62V57.492L215.132 61.272H214.208L212.01 57.478V62H210.036V54.468H212.318L214.726 58.822L217.288 54.468H219.332L219.36 62H217.386ZM224.378 54.356C225.545 54.356 226.441 54.636 227.066 55.196C227.692 55.7467 228.004 56.582 228.004 57.702V62H225.96V61.062C225.55 61.762 224.784 62.112 223.664 62.112C223.086 62.112 222.582 62.014 222.152 61.818C221.732 61.622 221.41 61.3513 221.186 61.006C220.962 60.6607 220.85 60.2687 220.85 59.83C220.85 59.13 221.112 58.5793 221.634 58.178C222.166 57.7767 222.983 57.576 224.084 57.576H225.82C225.82 57.1 225.676 56.736 225.386 56.484C225.097 56.2227 224.663 56.092 224.084 56.092C223.683 56.092 223.286 56.1573 222.894 56.288C222.512 56.4093 222.185 56.5773 221.914 56.792L221.13 55.266C221.541 54.9767 222.031 54.7527 222.6 54.594C223.179 54.4353 223.772 54.356 224.378 54.356ZM224.21 60.642C224.584 60.642 224.915 60.558 225.204 60.39C225.494 60.2127 225.699 59.956 225.82 59.62V58.85H224.322C223.426 58.85 222.978 59.144 222.978 59.732C222.978 60.012 223.086 60.236 223.3 60.404C223.524 60.5627 223.828 60.642 224.21 60.642ZM233.22 59.144H232.086V62H229.902V54.468H232.086V57.394H233.262L235.306 54.468H237.63L234.998 58.08L237.812 62H235.236L233.22 59.144ZM242.236 62.112C241.433 62.112 240.71 61.9487 240.066 61.622C239.431 61.286 238.932 60.824 238.568 60.236C238.213 59.648 238.036 58.9807 238.036 58.234C238.036 57.4873 238.213 56.82 238.568 56.232C238.932 55.644 239.431 55.1867 240.066 54.86C240.71 54.524 241.433 54.356 242.236 54.356C243.029 54.356 243.72 54.524 244.308 54.86C244.905 55.1867 245.339 55.658 245.61 56.274L243.916 57.184C243.524 56.4933 242.959 56.148 242.222 56.148C241.652 56.148 241.181 56.3347 240.808 56.708C240.434 57.0813 240.248 57.59 240.248 58.234C240.248 58.878 240.434 59.3867 240.808 59.76C241.181 60.1333 241.652 60.32 242.222 60.32C242.968 60.32 243.533 59.9747 243.916 59.284L245.61 60.208C245.339 60.8053 244.905 61.272 244.308 61.608C243.72 61.944 243.029 62.112 242.236 62.112ZM246.937 54.468H249.107V58.948L252.775 54.468H254.777V62H252.607V57.52L248.953 62H246.937V54.468ZM264.226 62V57.492L261.972 61.272H261.048L258.85 57.478V62H256.876V54.468H259.158L261.566 58.822L264.128 54.468H266.172L266.2 62H264.226ZM271.218 54.356C272.385 54.356 273.281 54.636 273.906 55.196C274.532 55.7467 274.844 56.582 274.844 57.702V62H272.8V61.062C272.39 61.762 271.624 62.112 270.504 62.112C269.926 62.112 269.422 62.014 268.992 61.818C268.572 61.622 268.25 61.3513 268.026 61.006C267.802 60.6607 267.69 60.2687 267.69 59.83C267.69 59.13 267.952 58.5793 268.474 58.178C269.006 57.7767 269.823 57.576 270.924 57.576H272.66C272.66 57.1 272.516 56.736 272.226 56.484C271.937 56.2227 271.503 56.092 270.924 56.092C270.523 56.092 270.126 56.1573 269.734 56.288C269.352 56.4093 269.025 56.5773 268.754 56.792L267.97 55.266C268.381 54.9767 268.871 54.7527 269.44 54.594C270.019 54.4353 270.612 54.356 271.218 54.356ZM271.05 60.642C271.424 60.642 271.755 60.558 272.044 60.39C272.334 60.2127 272.539 59.956 272.66 59.62V58.85H271.162C270.266 58.85 269.818 59.144 269.818 59.732C269.818 60.012 269.926 60.236 270.14 60.404C270.364 60.5627 270.668 60.642 271.05 60.642ZM283.965 54.468V62H281.781V56.26H279.401L279.331 57.59C279.294 58.5793 279.201 59.4007 279.051 60.054C278.902 60.7073 278.659 61.2207 278.323 61.594C277.987 61.9673 277.521 62.154 276.923 62.154C276.606 62.154 276.228 62.098 275.789 61.986L275.901 60.194C276.051 60.2127 276.158 60.222 276.223 60.222C276.55 60.222 276.793 60.1053 276.951 59.872C277.119 59.6293 277.231 59.326 277.287 58.962C277.343 58.5887 277.385 58.0987 277.413 57.492L277.525 54.468H283.965ZM290.14 56.876C291.12 56.8853 291.871 57.1093 292.394 57.548C292.916 57.9773 293.178 58.5887 293.178 59.382C293.178 60.2127 292.884 60.8613 292.296 61.328C291.717 61.7853 290.9 62.014 289.846 62.014L286.066 62V54.468H288.236V56.876H290.14ZM289.65 60.46C290.07 60.4693 290.392 60.3807 290.616 60.194C290.84 60.0073 290.952 59.7273 290.952 59.354C290.952 58.99 290.84 58.724 290.616 58.556C290.401 58.388 290.079 58.2993 289.65 58.29L288.236 58.276V60.46H289.65ZM294.542 54.468H296.712V57.408H299.988V54.468H302.172V62H299.988V59.186H296.712V62H294.542V54.468ZM308.225 56.876C309.205 56.8853 309.947 57.1047 310.451 57.534C310.955 57.9633 311.207 58.5793 311.207 59.382C311.207 60.222 310.922 60.8707 310.353 61.328C309.784 61.7853 308.976 62.014 307.931 62.014L304.263 62V54.468H306.433V56.876H308.225ZM312.019 54.468H314.189V62H312.019V54.468ZM307.735 60.46C308.155 60.4693 308.477 60.3807 308.701 60.194C308.925 60.0073 309.037 59.7273 309.037 59.354C309.037 58.99 308.925 58.724 308.701 58.556C308.486 58.388 308.164 58.2993 307.735 58.29L306.433 58.276V60.46H307.735ZM316.294 54.468H318.464V58.948L322.132 54.468H324.134V62H321.964V57.52L318.31 62H316.294V54.468ZM320.074 53.656C318.431 53.656 317.605 52.9327 317.596 51.486H319.024C319.033 51.8127 319.122 52.0693 319.29 52.256C319.467 52.4333 319.724 52.522 320.06 52.522C320.396 52.522 320.653 52.4333 320.83 52.256C321.017 52.0693 321.11 51.8127 321.11 51.486H322.566C322.557 52.9327 321.726 53.656 320.074 53.656ZM333.726 62.112C332.933 62.112 332.219 61.9487 331.584 61.622C330.959 61.286 330.469 60.824 330.114 60.236C329.76 59.648 329.582 58.9807 329.582 58.234C329.582 57.4873 329.76 56.82 330.114 56.232C330.469 55.644 330.959 55.1867 331.584 54.86C332.219 54.524 332.933 54.356 333.726 54.356C334.52 54.356 335.229 54.524 335.854 54.86C336.48 55.1867 336.97 55.644 337.324 56.232C337.679 56.82 337.856 57.4873 337.856 58.234C337.856 58.9807 337.679 59.648 337.324 60.236C336.97 60.824 336.48 61.286 335.854 61.622C335.229 61.9487 334.52 62.112 333.726 62.112ZM333.726 60.32C334.286 60.32 334.744 60.1333 335.098 59.76C335.462 59.3773 335.644 58.8687 335.644 58.234C335.644 57.5993 335.462 57.0953 335.098 56.722C334.744 56.3393 334.286 56.148 333.726 56.148C333.166 56.148 332.704 56.3393 332.34 56.722C331.976 57.0953 331.794 57.5993 331.794 58.234C331.794 58.8687 331.976 59.3773 332.34 59.76C332.704 60.1333 333.166 60.32 333.726 60.32ZM343.713 54.986C344.431 54.986 345.061 55.1353 345.603 55.434C346.144 55.7233 346.559 56.134 346.849 56.666C347.147 57.198 347.297 57.814 347.297 58.514C347.297 59.2327 347.119 59.872 346.765 60.432C346.419 60.9827 345.934 61.412 345.309 61.72C344.683 62.0187 343.974 62.168 343.181 62.168C341.865 62.168 340.829 61.748 340.073 60.908C339.326 60.0587 338.953 58.8173 338.953 57.184C338.953 55.672 339.279 54.468 339.933 53.572C340.595 52.6667 341.608 52.074 342.971 51.794L346.555 51.08L346.849 52.956L343.685 53.586C342.826 53.754 342.187 54.034 341.767 54.426C341.356 54.818 341.113 55.3733 341.039 56.092C341.365 55.7373 341.757 55.4667 342.215 55.28C342.672 55.084 343.171 54.986 343.713 54.986ZM343.195 60.474C343.755 60.474 344.203 60.292 344.539 59.928C344.884 59.564 345.057 59.102 345.057 58.542C345.057 57.9727 344.884 57.52 344.539 57.184C344.203 56.848 343.755 56.68 343.195 56.68C342.625 56.68 342.168 56.848 341.823 57.184C341.477 57.52 341.305 57.9727 341.305 58.542C341.305 59.1113 341.482 59.578 341.837 59.942C342.191 60.2967 342.644 60.474 343.195 60.474ZM353.685 56.876C354.656 56.876 355.398 57.0953 355.911 57.534C356.434 57.9633 356.695 58.5747 356.695 59.368C356.695 60.1987 356.401 60.8473 355.813 61.314C355.234 61.7713 354.422 62 353.377 62H349.737V56.26H347.567V54.468H351.921V56.876H353.685ZM353.251 60.46C353.652 60.46 353.956 60.362 354.161 60.166C354.366 59.97 354.469 59.69 354.469 59.326C354.469 58.6353 354.063 58.29 353.251 58.29H351.921V60.46H353.251ZM365.37 58.262C365.37 58.29 365.356 58.486 365.328 58.85H359.63C359.733 59.3167 359.975 59.6853 360.358 59.956C360.741 60.2267 361.217 60.362 361.786 60.362C362.178 60.362 362.523 60.306 362.822 60.194C363.13 60.0727 363.415 59.886 363.676 59.634L364.838 60.894C364.129 61.706 363.093 62.112 361.73 62.112C360.881 62.112 360.129 61.9487 359.476 61.622C358.823 61.286 358.319 60.824 357.964 60.236C357.609 59.648 357.432 58.9807 357.432 58.234C357.432 57.4967 357.605 56.834 357.95 56.246C358.305 55.6487 358.785 55.1867 359.392 54.86C360.008 54.524 360.694 54.356 361.45 54.356C362.187 54.356 362.855 54.5147 363.452 54.832C364.049 55.1493 364.516 55.6067 364.852 56.204C365.197 56.792 365.37 57.478 365.37 58.262ZM361.464 56.008C360.969 56.008 360.554 56.148 360.218 56.428C359.882 56.708 359.677 57.0907 359.602 57.576H363.312C363.237 57.1 363.032 56.722 362.696 56.442C362.36 56.1527 361.949 56.008 361.464 56.008ZM374.394 62V57.492L372.14 61.272H371.216L369.018 57.478V62H367.044V54.468H369.326L371.734 58.822L374.296 54.468H376.34L376.368 62H374.394ZM388.002 55.756H385.286V62H383.942V55.756H381.226V54.58H388.002V55.756ZM392.226 62.084C391.489 62.084 390.826 61.9207 390.238 61.594C389.65 61.2673 389.188 60.8193 388.852 60.25C388.525 59.6713 388.362 59.018 388.362 58.29C388.362 57.562 388.525 56.9133 388.852 56.344C389.188 55.7653 389.65 55.3173 390.238 55C390.826 54.6733 391.489 54.51 392.226 54.51C392.963 54.51 393.621 54.6733 394.2 55C394.788 55.3173 395.245 55.7653 395.572 56.344C395.908 56.9133 396.076 57.562 396.076 58.29C396.076 59.018 395.908 59.6713 395.572 60.25C395.245 60.8193 394.788 61.2673 394.2 61.594C393.621 61.9207 392.963 62.084 392.226 62.084ZM392.226 60.908C392.702 60.908 393.127 60.8007 393.5 60.586C393.883 60.362 394.181 60.054 394.396 59.662C394.611 59.2607 394.718 58.8033 394.718 58.29C394.718 57.7767 394.611 57.324 394.396 56.932C394.181 56.5307 393.883 56.2227 393.5 56.008C393.127 55.7933 392.702 55.686 392.226 55.686C391.75 55.686 391.321 55.7933 390.938 56.008C390.565 56.2227 390.266 56.5307 390.042 56.932C389.827 57.324 389.72 57.7767 389.72 58.29C389.72 58.8033 389.827 59.2607 390.042 59.662C390.266 60.054 390.565 60.362 390.938 60.586C391.321 60.8007 391.75 60.908 392.226 60.908ZM401.951 54.51C402.67 54.51 403.314 54.6687 403.883 54.986C404.452 55.3033 404.896 55.7467 405.213 56.316C405.54 56.8853 405.703 57.5433 405.703 58.29C405.703 59.0367 405.54 59.6993 405.213 60.278C404.896 60.8473 404.452 61.2907 403.883 61.608C403.314 61.9253 402.67 62.084 401.951 62.084C401.419 62.084 400.929 61.9813 400.481 61.776C400.042 61.5707 399.669 61.272 399.361 60.88V64.716H398.017V54.58H399.305V55.756C399.604 55.3453 399.982 55.0373 400.439 54.832C400.896 54.6173 401.4 54.51 401.951 54.51ZM401.839 60.908C402.315 60.908 402.74 60.8007 403.113 60.586C403.496 60.362 403.794 60.054 404.009 59.662C404.233 59.2607 404.345 58.8033 404.345 58.29C404.345 57.7767 404.233 57.324 404.009 56.932C403.794 56.5307 403.496 56.2227 403.113 56.008C402.74 55.7933 402.315 55.686 401.839 55.686C401.372 55.686 400.948 55.798 400.565 56.022C400.192 56.2367 399.893 56.54 399.669 56.932C399.454 57.324 399.347 57.7767 399.347 58.29C399.347 58.8033 399.454 59.2607 399.669 59.662C399.884 60.054 400.182 60.362 400.565 60.586C400.948 60.8007 401.372 60.908 401.839 60.908ZM413.116 55.756H409V62H407.656V54.58H413.116V55.756ZM417.341 62.084C416.604 62.084 415.941 61.9207 415.353 61.594C414.765 61.2673 414.303 60.8193 413.967 60.25C413.641 59.6713 413.477 59.018 413.477 58.29C413.477 57.562 413.641 56.9133 413.967 56.344C414.303 55.7653 414.765 55.3173 415.353 55C415.941 54.6733 416.604 54.51 417.341 54.51C418.079 54.51 418.737 54.6733 419.315 55C419.903 55.3173 420.361 55.7653 420.687 56.344C421.023 56.9133 421.191 57.562 421.191 58.29C421.191 59.018 421.023 59.6713 420.687 60.25C420.361 60.8193 419.903 61.2673 419.315 61.594C418.737 61.9207 418.079 62.084 417.341 62.084ZM417.341 60.908C417.817 60.908 418.242 60.8007 418.615 60.586C418.998 60.362 419.297 60.054 419.511 59.662C419.726 59.2607 419.833 58.8033 419.833 58.29C419.833 57.7767 419.726 57.324 419.511 56.932C419.297 56.5307 418.998 56.2227 418.615 56.008C418.242 55.7933 417.817 55.686 417.341 55.686C416.865 55.686 416.436 55.7933 416.053 56.008C415.68 56.2227 415.381 56.5307 415.157 56.932C414.943 57.324 414.835 57.7767 414.835 58.29C414.835 58.8033 414.943 59.2607 415.157 59.662C415.381 60.054 415.68 60.362 416.053 60.586C416.436 60.8007 416.865 60.908 417.341 60.908ZM428.186 58.15C429.147 58.3927 429.628 58.9947 429.628 59.956C429.628 60.6093 429.381 61.1133 428.886 61.468C428.401 61.8227 427.673 62 426.702 62H423.132V54.58H426.576C427.453 54.58 428.139 54.748 428.634 55.084C429.129 55.4107 429.376 55.8773 429.376 56.484C429.376 56.876 429.269 57.2167 429.054 57.506C428.849 57.786 428.559 58.0007 428.186 58.15ZM424.448 57.772H426.464C426.977 57.772 427.365 57.6787 427.626 57.492C427.897 57.3053 428.032 57.0347 428.032 56.68C428.032 55.9707 427.509 55.616 426.464 55.616H424.448V57.772ZM426.604 60.964C427.164 60.964 427.584 60.8753 427.864 60.698C428.144 60.5207 428.284 60.2453 428.284 59.872C428.284 59.4893 428.153 59.2047 427.892 59.018C427.64 58.8313 427.239 58.738 426.688 58.738H424.448V60.964H426.604Z" fill="#2CBC90"/>
<rect x="640" y="28" width="123" height="24" rx="5.48507" fill="url(#paint0_linear_2820_26709)"/>
<path d="M661.986 41.0293L664.154 35.4688H665.777L662.813 42.4531C662.719 42.668 662.611 42.877 662.49 43.0801C662.373 43.2793 662.23 43.457 662.063 43.6133C661.895 43.7695 661.691 43.8945 661.453 43.9883C661.215 44.0781 660.926 44.123 660.586 44.123C660.496 44.123 660.387 44.1191 660.258 44.1113C660.133 44.1035 660.041 44.0957 659.982 44.0879L659.994 42.9336C660.041 42.9414 660.119 42.9473 660.229 42.9512C660.342 42.9551 660.424 42.957 660.475 42.957C660.701 42.957 660.881 42.9199 661.014 42.8457C661.146 42.7676 661.252 42.6641 661.33 42.5352C661.412 42.4023 661.484 42.2578 661.547 42.1016L661.986 41.0293ZM660.357 35.4688L662.502 40.1914L662.924 41.7266L661.781 41.7676L658.752 35.4688H660.357ZM669.135 40.9707H667.916V40.2559H668.9C669.15 40.2559 669.35 40.2227 669.498 40.1562C669.65 40.0898 669.758 39.998 669.82 39.8809C669.887 39.7598 669.92 39.6191 669.92 39.459C669.92 39.3184 669.887 39.1855 669.82 39.0605C669.758 38.9316 669.65 38.8262 669.498 38.7441C669.346 38.6621 669.139 38.6211 668.877 38.6211C668.662 38.6211 668.469 38.6562 668.297 38.7266C668.129 38.7969 667.996 38.8945 667.898 39.0195C667.801 39.1445 667.752 39.2891 667.752 39.4531H666.34C666.34 39.0586 666.451 38.7188 666.674 38.4336C666.9 38.1484 667.203 37.9297 667.582 37.7773C667.961 37.625 668.377 37.5488 668.83 37.5488C669.217 37.5488 669.564 37.5898 669.873 37.6719C670.182 37.75 670.443 37.8672 670.658 38.0234C670.877 38.1758 671.043 38.3672 671.156 38.5977C671.273 38.8242 671.332 39.0879 671.332 39.3887C671.332 39.6035 671.281 39.8066 671.18 39.998C671.078 40.1895 670.932 40.3594 670.74 40.5078C670.549 40.6523 670.316 40.7656 670.043 40.8477C669.773 40.9297 669.471 40.9707 669.135 40.9707ZM667.916 40.5605H669.135C669.51 40.5605 669.842 40.5977 670.131 40.6719C670.42 40.7422 670.662 40.8477 670.857 40.9883C671.053 41.1289 671.199 41.3027 671.297 41.5098C671.398 41.7129 671.449 41.9473 671.449 42.2129C671.449 42.5098 671.385 42.7773 671.256 43.0156C671.131 43.25 670.951 43.4492 670.717 43.6133C670.486 43.7773 670.211 43.9023 669.891 43.9883C669.57 44.0742 669.217 44.1172 668.83 44.1172C668.408 44.1172 667.998 44.0469 667.6 43.9062C667.205 43.7656 666.879 43.5488 666.621 43.2559C666.367 42.959 666.24 42.582 666.24 42.125H667.652C667.652 42.2852 667.701 42.4355 667.799 42.5762C667.896 42.7168 668.037 42.832 668.221 42.9219C668.404 43.0078 668.625 43.0508 668.883 43.0508C669.148 43.0508 669.365 43.0098 669.533 42.9277C669.701 42.8418 669.826 42.7305 669.908 42.5938C669.99 42.4531 670.031 42.3047 670.031 42.1484C670.031 41.9375 669.99 41.7676 669.908 41.6387C669.826 41.5098 669.701 41.416 669.533 41.3574C669.365 41.2949 669.154 41.2637 668.9 41.2637H667.916V40.5605ZM676.98 40.3086V41.4219H673.699V40.3086H676.98ZM674.109 37.6602V44H672.697V37.6602H674.109ZM678 37.6602V44H676.588V37.6602H678ZM683.08 42.7285V39.7051C683.08 39.4785 683.039 39.2832 682.957 39.1191C682.875 38.9551 682.75 38.8281 682.582 38.7383C682.418 38.6484 682.211 38.6035 681.961 38.6035C681.73 38.6035 681.531 38.6426 681.363 38.7207C681.195 38.7988 681.064 38.9043 680.971 39.0371C680.877 39.1699 680.83 39.3203 680.83 39.4883H679.424C679.424 39.2383 679.484 38.9961 679.605 38.7617C679.727 38.5273 679.902 38.3184 680.133 38.1348C680.363 37.9512 680.639 37.8066 680.959 37.7012C681.279 37.5957 681.639 37.543 682.037 37.543C682.514 37.543 682.936 37.623 683.303 37.7832C683.674 37.9434 683.965 38.1855 684.176 38.5098C684.391 38.8301 684.498 39.2324 684.498 39.7168V42.5352C684.498 42.8242 684.518 43.084 684.557 43.3145C684.6 43.541 684.66 43.7383 684.738 43.9062V44H683.291C683.225 43.8477 683.172 43.6543 683.133 43.4199C683.098 43.1816 683.08 42.9512 683.08 42.7285ZM683.285 40.1445L683.297 41.0176H682.283C682.021 41.0176 681.791 41.043 681.592 41.0938C681.393 41.1406 681.227 41.2109 681.094 41.3047C680.961 41.3984 680.861 41.5117 680.795 41.6445C680.729 41.7773 680.695 41.9277 680.695 42.0957C680.695 42.2637 680.734 42.418 680.813 42.5586C680.891 42.6953 681.004 42.8027 681.152 42.8809C681.305 42.959 681.488 42.998 681.703 42.998C681.992 42.998 682.244 42.9395 682.459 42.8223C682.678 42.7012 682.85 42.5547 682.975 42.3828C683.1 42.207 683.166 42.041 683.174 41.8848L683.631 42.5117C683.584 42.6719 683.504 42.8438 683.391 43.0273C683.277 43.2109 683.129 43.3867 682.945 43.5547C682.766 43.7188 682.549 43.8535 682.295 43.959C682.045 44.0645 681.756 44.1172 681.428 44.1172C681.014 44.1172 680.645 44.0352 680.32 43.8711C679.996 43.7031 679.742 43.4785 679.559 43.1973C679.375 42.9121 679.283 42.5898 679.283 42.2305C679.283 41.8945 679.346 41.5977 679.471 41.3398C679.6 41.0781 679.787 40.8594 680.033 40.6836C680.283 40.5078 680.588 40.375 680.947 40.2852C681.307 40.1914 681.717 40.1445 682.178 40.1445H683.285ZM688.822 37.6602V44H687.404V37.6602H688.822ZM690.902 37.6602V38.7734H685.359V37.6602H690.902ZM692.895 39.6758H694.764C695.311 39.6758 695.775 39.7676 696.158 39.9512C696.541 40.1348 696.832 40.3906 697.031 40.7188C697.234 41.043 697.336 41.4141 697.336 41.832C697.336 42.1406 697.279 42.4277 697.166 42.6934C697.053 42.9551 696.885 43.1836 696.662 43.3789C696.443 43.5742 696.174 43.7266 695.854 43.8359C695.537 43.9453 695.174 44 694.764 44H691.957V37.6602H693.375V42.8809H694.764C695.045 42.8809 695.27 42.832 695.438 42.7344C695.605 42.6367 695.727 42.5098 695.801 42.3535C695.879 42.1973 695.918 42.0312 695.918 41.8555C695.918 41.6758 695.879 41.5059 695.801 41.3457C695.727 41.1855 695.605 41.0547 695.438 40.9531C695.27 40.8516 695.045 40.8008 694.764 40.8008H692.895V39.6758ZM705.434 34.8828H706.576C706.576 35.2305 706.527 35.5176 706.43 35.7441C706.336 35.9668 706.195 36.1504 706.008 36.2949C705.824 36.4355 705.596 36.5488 705.322 36.6348C705.053 36.7207 704.74 36.7988 704.385 36.8691C704.057 36.9395 703.76 37.0508 703.494 37.2031C703.232 37.3516 703.012 37.5605 702.832 37.8301C702.656 38.0957 702.529 38.4375 702.451 38.8555C702.373 39.2734 702.35 39.7832 702.381 40.3848V40.7832L701.262 40.8828V40.4844C701.262 39.7383 701.33 39.0879 701.467 38.5332C701.604 37.9785 701.797 37.5117 702.047 37.1328C702.301 36.75 702.602 36.4453 702.949 36.2188C703.301 35.9922 703.691 35.8359 704.121 35.75C704.414 35.6875 704.658 35.625 704.854 35.5625C705.049 35.4961 705.193 35.4121 705.287 35.3105C705.385 35.2051 705.434 35.0625 705.434 34.8828ZM704.443 38.0176C704.865 38.0176 705.24 38.0918 705.568 38.2402C705.896 38.3848 706.174 38.5879 706.4 38.8496C706.627 39.1113 706.799 39.4199 706.916 39.7754C707.037 40.1309 707.098 40.5176 707.098 40.9355V41.0645C707.098 41.502 707.033 41.9062 706.904 42.2773C706.775 42.6484 706.586 42.9727 706.336 43.25C706.086 43.5234 705.779 43.7383 705.416 43.8945C705.057 44.0469 704.645 44.123 704.18 44.123C703.719 44.123 703.307 44.043 702.943 43.8828C702.58 43.7227 702.273 43.5 702.023 43.2148C701.773 42.9258 701.584 42.5879 701.455 42.2012C701.326 41.8145 701.262 41.3926 701.262 40.9355V40.8066C701.258 40.7246 701.279 40.6445 701.326 40.5664C701.377 40.4883 701.438 40.4043 701.508 40.3145C701.578 40.2246 701.641 40.1211 701.695 40.0039C701.891 39.6094 702.121 39.2637 702.387 38.9668C702.652 38.6699 702.955 38.4375 703.295 38.2695C703.639 38.1016 704.021 38.0176 704.443 38.0176ZM704.168 39.1367C703.816 39.1367 703.529 39.2207 703.307 39.3887C703.088 39.5527 702.926 39.7715 702.82 40.0449C702.719 40.3184 702.668 40.6152 702.668 40.9355V41.0645C702.668 41.3262 702.697 41.5742 702.756 41.8086C702.814 42.043 702.902 42.25 703.02 42.4297C703.141 42.6055 703.297 42.7441 703.488 42.8457C703.684 42.9473 703.914 42.998 704.18 42.998C704.449 42.998 704.678 42.9473 704.865 42.8457C705.057 42.7441 705.211 42.6055 705.328 42.4297C705.449 42.25 705.537 42.043 705.592 41.8086C705.65 41.5742 705.68 41.3262 705.68 41.0645V40.9355C705.68 40.6934 705.65 40.4648 705.592 40.25C705.537 40.0352 705.449 39.8457 705.328 39.6816C705.207 39.5137 705.051 39.3809 704.859 39.2832C704.668 39.1855 704.438 39.1367 704.168 39.1367ZM707.936 40.9004V40.7656C707.936 40.3086 708.002 39.8848 708.135 39.4941C708.268 39.0996 708.459 38.7578 708.709 38.4688C708.963 38.1758 709.271 37.9492 709.635 37.7891C710.002 37.625 710.416 37.543 710.877 37.543C711.342 37.543 711.756 37.625 712.119 37.7891C712.486 37.9492 712.797 38.1758 713.051 38.4688C713.305 38.7578 713.498 39.0996 713.631 39.4941C713.764 39.8848 713.83 40.3086 713.83 40.7656V40.9004C713.83 41.3574 713.764 41.7812 713.631 42.1719C713.498 42.5625 713.305 42.9043 713.051 43.1973C712.797 43.4863 712.488 43.7129 712.125 43.877C711.762 44.0371 711.35 44.1172 710.889 44.1172C710.424 44.1172 710.008 44.0371 709.641 43.877C709.277 43.7129 708.969 43.4863 708.715 43.1973C708.461 42.9043 708.268 42.5625 708.135 42.1719C708.002 41.7812 707.936 41.3574 707.936 40.9004ZM709.348 40.7656V40.9004C709.348 41.1855 709.377 41.4551 709.436 41.709C709.494 41.9629 709.586 42.1855 709.711 42.377C709.836 42.5684 709.996 42.7188 710.191 42.8281C710.387 42.9375 710.619 42.9922 710.889 42.9922C711.15 42.9922 711.377 42.9375 711.568 42.8281C711.764 42.7188 711.924 42.5684 712.049 42.377C712.174 42.1855 712.266 41.9629 712.324 41.709C712.387 41.4551 712.418 41.1855 712.418 40.9004V40.7656C712.418 40.4844 712.387 40.2188 712.324 39.9688C712.266 39.7148 712.172 39.4902 712.043 39.2949C711.918 39.0996 711.758 38.9473 711.563 38.8379C711.371 38.7246 711.143 38.668 710.877 38.668C710.611 38.668 710.381 38.7246 710.186 38.8379C709.994 38.9473 709.836 39.0996 709.711 39.2949C709.586 39.4902 709.494 39.7148 709.436 39.9688C709.377 40.2188 709.348 40.4844 709.348 40.7656ZM719.18 37.6602V38.7852H716.086V37.6602H719.18ZM720.287 37.6602V44H718.875V37.6602H720.287ZM715.74 37.6602H717.135L716.965 40.7949C716.941 41.2598 716.895 41.6699 716.824 42.0254C716.758 42.377 716.668 42.6797 716.555 42.9336C716.441 43.1836 716.303 43.3867 716.139 43.543C715.975 43.6992 715.783 43.8145 715.564 43.8887C715.346 43.9629 715.1 44 714.826 44H714.387L714.381 42.8398L714.604 42.8223C714.748 42.8105 714.873 42.7734 714.979 42.7109C715.084 42.6445 715.174 42.5508 715.248 42.4297C715.326 42.3086 715.389 42.1523 715.436 41.9609C715.486 41.7695 715.525 41.543 715.553 41.2812C715.584 41.0195 715.607 40.7148 715.623 40.3672L715.74 37.6602ZM722.836 39.6758H724.705C725.252 39.6758 725.717 39.7676 726.1 39.9512C726.482 40.1348 726.773 40.3906 726.973 40.7188C727.176 41.043 727.277 41.4141 727.277 41.832C727.277 42.1406 727.221 42.4277 727.107 42.6934C726.994 42.9551 726.826 43.1836 726.604 43.3789C726.385 43.5742 726.115 43.7266 725.795 43.8359C725.479 43.9453 725.115 44 724.705 44H721.898V37.6602H723.316V42.8809H724.705C724.986 42.8809 725.211 42.832 725.379 42.7344C725.547 42.6367 725.668 42.5098 725.742 42.3535C725.82 42.1973 725.859 42.0312 725.859 41.8555C725.859 41.6758 725.82 41.5059 725.742 41.3457C725.668 41.1855 725.547 41.0547 725.379 40.9531C725.211 40.8516 724.986 40.8008 724.705 40.8008H722.836V39.6758ZM728.455 37.6602H729.867V42.875H731.877V37.6602H733.301V42.875H735.305V37.6602H736.717V44H728.455V37.6602ZM741.035 44.1172C740.566 44.1172 740.143 44.041 739.764 43.8887C739.389 43.7324 739.068 43.5156 738.803 43.2383C738.541 42.9609 738.34 42.6348 738.199 42.2598C738.059 41.8848 737.988 41.4805 737.988 41.0469V40.8125C737.988 40.3164 738.061 39.8672 738.205 39.4648C738.35 39.0625 738.551 38.7188 738.809 38.4336C739.066 38.1445 739.371 37.9238 739.723 37.7715C740.074 37.6191 740.455 37.543 740.865 37.543C741.318 37.543 741.715 37.6191 742.055 37.7715C742.395 37.9238 742.676 38.1387 742.898 38.416C743.125 38.6895 743.293 39.0156 743.402 39.3945C743.516 39.7734 743.572 40.1914 743.572 40.6484V41.252H738.674V40.2383H742.178V40.127C742.17 39.873 742.119 39.6348 742.025 39.4121C741.936 39.1895 741.797 39.0098 741.609 38.873C741.422 38.7363 741.172 38.668 740.859 38.668C740.625 38.668 740.416 38.7188 740.232 38.8203C740.053 38.918 739.902 39.0605 739.781 39.248C739.66 39.4355 739.566 39.6621 739.5 39.9277C739.438 40.1895 739.406 40.4844 739.406 40.8125V41.0469C739.406 41.3242 739.443 41.582 739.518 41.8203C739.596 42.0547 739.709 42.2598 739.857 42.4355C740.006 42.6113 740.186 42.75 740.396 42.8516C740.607 42.9492 740.848 42.998 741.117 42.998C741.457 42.998 741.76 42.9297 742.025 42.793C742.291 42.6562 742.521 42.4629 742.717 42.2129L743.461 42.9336C743.324 43.1328 743.146 43.3242 742.928 43.5078C742.709 43.6875 742.441 43.834 742.125 43.9473C741.813 44.0605 741.449 44.1172 741.035 44.1172Z" fill="white"/>
<path d="M45.7858 34.0477L40.5192 42.8215C39.7068 44.1739 40.6816 45.8903 42.2665 45.8994L52.7032 45.9558C54.2881 45.9649 55.2813 44.2577 54.4843 42.8977L49.3142 34.0675C48.531 32.7258 46.5843 32.7151 45.7858 34.0477Z" fill="#4E55A2"/>
<path d="M58.1686 44.9472L52.902 36.1734C52.0896 34.821 53.0644 33.1046 54.6493 33.0954L65.086 33.0391C66.6709 33.03 67.6641 34.7372 66.8671 36.0972L61.697 44.9274C60.9138 46.2691 58.9687 46.2798 58.1686 44.9472Z" fill="#EA5045"/>
<path d="M91.4278 33.0664H82.9875C82.6235 33.0664 82.3281 33.3599 82.3281 33.7216V35.283C82.3281 35.6447 82.6235 35.9382 82.9875 35.9382H85.7058V45.4639C85.7058 45.8256 86.0012 46.1191 86.3652 46.1191H88.0491C88.4131 46.1191 88.7085 45.8256 88.7085 45.4639V35.9382H91.4268C91.7908 35.9382 92.0862 35.6447 92.0862 35.283V33.7216C92.0862 33.3599 91.7918 33.0664 91.4278 33.0664Z" fill="white"/>
<path d="M103.692 42.8642L102.299 42.0618C102.028 41.9066 101.69 41.9728 101.488 42.209C100.89 42.9117 99.9407 43.3158 98.8636 43.3158C96.6207 43.3158 95.1746 41.8246 95.1746 39.5783C95.1746 37.332 96.6217 35.8408 98.8636 35.8408C99.9427 35.8408 100.882 36.2469 101.486 36.9525C101.688 37.1877 102.025 37.252 102.295 37.0968L103.689 36.2934C104.028 36.0987 104.108 35.65 103.863 35.3476C102.707 33.9176 100.892 33.0371 98.8645 33.0371C95.0482 33.0371 92.2812 35.8763 92.2812 39.5783C92.2812 43.2803 95.0482 46.1195 98.8645 46.1195C100.907 46.1195 102.725 45.238 103.869 43.808C104.111 43.5046 104.03 43.0579 103.692 42.8642Z" fill="white"/>
<path d="M111.324 39.1152H106.904C106.627 39.1152 106.402 39.4087 106.402 39.7704V41.1461C106.402 41.5078 106.627 41.8013 106.904 41.8013H111.324C111.6 41.8013 111.825 41.5078 111.825 41.1461V39.7704C111.825 39.4078 111.6 39.1152 111.324 39.1152Z" fill="white"/>
<path d="M79.6814 39.4132C80.4124 38.9537 81.1106 38.002 81.1106 36.7825C81.1106 34.475 79.5222 33.041 76.9661 33.041H73.3119C72.934 33.041 72.4168 33.041 72.0189 33.4363C71.6211 33.8316 71.6211 34.3455 71.6211 34.72V44.4394C71.6211 44.815 71.6211 45.3288 72.0189 45.7241C72.4168 46.1194 72.934 46.1194 73.3119 46.1194H77.1829C79.7172 46.1194 81.2916 44.6509 81.2916 42.288C81.2916 40.6376 80.3786 39.8065 79.6814 39.4132ZM74.4607 35.5749H76.7682C77.7101 35.5749 78.272 36.066 78.272 36.8902C78.272 37.7144 77.7101 38.2056 76.7682 38.2056H74.4607V35.5749ZM76.9303 43.5846H74.4607V40.7572H76.9303C77.8831 40.7572 78.453 41.282 78.453 42.1625C78.453 42.8493 78.0522 43.5846 76.9303 43.5846Z" fill="white"/>
<path d="M138.92 36.2969C137.665 36.2969 136.752 36.7179 136.124 37.4284V37.0242C136.124 36.7258 135.955 36.5578 135.655 36.5578H133.778C133.478 36.5578 133.309 36.7258 133.309 37.0242V49.1441C133.309 49.4425 133.478 49.6105 133.778 49.6105H135.655C135.955 49.6105 136.124 49.4425 136.124 49.1441V45.0102C136.752 45.7208 137.665 46.1418 138.92 46.1418C141.379 46.1418 143.405 43.9973 143.405 41.2193C143.405 38.4414 141.379 36.2969 138.92 36.2969ZM138.357 43.4943C137.062 43.4943 136.124 42.6177 136.124 41.2193C136.124 39.821 137.062 38.9444 138.357 38.9444C139.652 38.9444 140.59 39.821 140.59 41.2193C140.59 42.6177 139.652 43.4943 138.357 43.4943Z" fill="white"/>
<path d="M122.534 33.4577C122.459 33.1969 122.252 33.0664 121.99 33.0664H118.987C118.724 33.0664 118.517 33.1969 118.443 33.4577L114.464 45.5964C114.352 45.9324 114.521 46.1181 114.858 46.1181H117.167C117.429 46.1181 117.617 46.0065 117.692 45.7268L118.185 44.0675H122.79L123.283 45.7268C123.359 46.0065 123.546 46.1181 123.809 46.1181H126.117C126.455 46.1181 126.623 45.9314 126.511 45.5964L122.534 33.4577ZM119.018 41.2708L120.488 36.3296L121.958 41.2708H119.018Z" fill="white"/>
<path d="M130.223 33.0664H128.334C128.078 33.0664 127.871 33.272 127.871 33.5259V45.6596C127.871 45.9136 128.078 46.1191 128.334 46.1191H130.223C130.479 46.1191 130.686 45.9136 130.686 45.6596V33.5259C130.686 33.272 130.479 33.0664 130.223 33.0664Z" fill="white"/>
<path d="M150.296 36.5351C149.058 36.5351 148.119 36.9828 147.613 37.6726V33.7216C147.613 33.3599 147.317 33.0664 146.953 33.0664H145.456C145.092 33.0664 144.797 33.3599 144.797 33.7216V45.4639C144.797 45.8256 145.092 46.1191 145.456 46.1191H146.953C147.317 46.1191 147.613 45.8256 147.613 45.4639V41.0287C147.613 39.7044 148.326 39.1085 149.358 39.1085C150.259 39.1085 150.991 39.6491 150.991 40.8053V45.4649C150.991 45.8266 151.287 46.1201 151.651 46.1201H153.148C153.512 46.1201 153.807 45.8266 153.807 45.4649V40.3952C153.805 37.8782 152.191 36.5351 150.296 36.5351Z" fill="white"/>
<path d="M162.856 37.3265C162.101 36.6486 161.004 36.3047 159.594 36.3047C158.814 36.3047 158.065 36.4065 157.365 36.6061C157.016 36.7059 156.543 36.9401 156.154 37.1516C155.835 37.3246 155.825 37.7772 156.138 37.961L157.45 38.7348C157.492 38.7595 157.541 38.7624 157.586 38.7456C157.666 38.714 157.748 38.6844 157.833 38.6577C158.322 38.5015 158.826 38.4215 159.333 38.4215C160.059 38.4215 160.609 38.5836 160.969 38.9028C161.325 39.22 161.5 39.6657 161.503 40.2656H159.246C157.875 40.2656 156.85 40.5314 156.201 41.0562C155.541 41.5888 155.207 42.3043 155.207 43.1829C155.207 43.7452 155.36 44.2561 155.662 44.7028C155.962 45.1475 156.393 45.4993 156.942 45.7483C157.485 45.9944 158.124 46.1189 158.842 46.1189C159.559 46.1189 160.184 46.0063 160.697 45.7849C161.063 45.6268 161.374 45.4163 161.624 45.1554V45.2216C161.624 45.6505 161.974 45.9974 162.405 45.9974H163.219C163.65 45.9974 163.999 45.6495 163.999 45.2216V40.4039C163.999 39.0441 163.614 38.0094 162.856 37.3265ZM161.501 42.9121C161.339 43.3272 161.061 43.6513 160.677 43.8756C160.279 44.1089 159.813 44.2274 159.297 44.2274C158.774 44.2274 158.364 44.1207 158.078 43.9102C157.803 43.7076 157.67 43.4418 157.67 43.0969C157.67 42.8301 157.67 42.0187 159.402 42.0187H161.502V42.9121H161.501Z" fill="white"/>
<path d="M756.687 40.0025C756.687 40.1775 756.623 40.3575 756.488 40.4925L751.177 45.8025C750.907 46.0725 750.473 46.0725 750.203 45.8025C749.932 45.5325 749.932 45.0975 750.203 44.8275L755.027 40.0025L750.203 35.1775C749.932 34.9075 749.932 34.4725 750.203 34.2025C750.473 33.9325 750.907 33.9325 751.177 34.2025L756.488 39.5125C756.623 39.6525 756.687 39.8275 756.687 40.0025Z" fill="white"/>
</g>
<defs>
<linearGradient id="paint0_linear_2820_26709" x1="701.5" y1="28" x2="701.5" y2="52" gradientUnits="userSpaceOnUse">
<stop stop-color="#38D1A2"/>
<stop offset="1" stop-color="#17BB88"/>
</linearGradient>
<clipPath id="clip0_2820_26709">
<rect width="780" height="80" fill="white"/>
</clipPath>
<clipPath id="clip1_2820_26709">
<rect width="54.9947" height="55.7316" fill="white" transform="translate(480.199 13.252) rotate(0.0558185)"/>
</clipPath>
</defs>
</svg>
