<svg width="209" height="91" viewBox="0 0 209 91" fill="none" xmlns="http://www.w3.org/2000/svg">
<path d="M63.8281 27.1572L92.2656 55.4526L106.627 69.8135C109.328 72.5151 113.594 72.5151 116.295 69.8135L127.528 58.5807L130.656 55.4526L158.952 27.1572H63.8281Z" fill="#747D88"/>
<path d="M121.842 75.5012L119.851 77.4918C117.576 79.7668 114.448 81.0465 111.462 81.0465C108.476 81.0465 105.348 79.909 103.073 77.634L101.082 75.6434L92.2668 66.8277L67.8105 90.9996H155.114L130.657 66.6855L128.24 69.1027L121.842 75.5012Z" fill="#747D88"/>
<path d="M86.5781 60.9981L63.8281 38.248V83.8903L86.5781 60.9981Z" fill="#747D88"/>
<path d="M136.344 60.9981L159.094 83.8903V38.248L136.344 60.9981Z" fill="#747D88"/>
<path d="M176.016 38.96L185.827 48.7709L190.803 53.7475C191.656 54.6006 193.22 54.6006 194.073 53.7475L197.913 49.9084L199.05 48.7709L208.861 38.96H176.016Z" fill="#747D88"/>
<path d="M195.922 55.5953L195.211 56.3063C194.358 57.1594 193.363 57.4438 192.367 57.4438C191.372 57.4438 190.234 57.0172 189.523 56.3063L188.812 55.5953L185.827 52.6094L177.438 60.9984H207.581L199.192 52.6094L198.339 53.4625L195.922 55.5953Z" fill="#747D88"/>
<path d="M183.836 50.6191L175.873 42.7988V58.5817L183.836 50.6191Z" fill="#747D88"/>
<path d="M200.898 50.6191L208.861 58.5817V42.7988L200.898 50.6191Z" fill="#747D88"/>
<path d="M117.576 0L124.543 6.96719L128.098 10.5219C128.809 11.2328 129.804 11.2328 130.515 10.5219L133.217 7.82032L133.928 7.10938L140.753 0H117.576Z" fill="#747D88"/>
<path d="M131.794 11.8018L131.367 12.2283C130.656 12.7971 129.945 13.0814 129.234 13.0814C128.523 13.0814 127.67 12.7971 127.102 12.2283L126.675 11.8018L124.542 9.66895L118.57 15.6408H139.898L133.927 9.66895L133.358 10.2377L131.794 11.8018Z" fill="#747D88"/>
<path d="M123.121 8.24747L117.576 2.70215V13.7928L123.121 8.24747Z" fill="#747D88"/>
<path d="M135.207 8.24747L140.895 13.7928V2.70215L135.207 8.24747Z" fill="#747D88"/>
<path d="M38.661 62.2783H1.97656C1.12344 62.2783 0.554688 61.7096 0.554688 60.8564C0.554688 60.0033 1.12344 59.4346 1.97656 59.4346H38.661C39.5141 59.4346 40.0828 60.0033 40.0828 60.8564C40.0828 61.7096 39.5141 62.2783 38.661 62.2783Z" fill="#747D88"/>
<path d="M27.2859 76.0703H16.1953C15.3422 76.0703 14.7734 75.5016 14.7734 74.6484C14.7734 73.7953 15.3422 73.2266 16.1953 73.2266H27.2859C28.1391 73.2266 28.7078 73.7953 28.7078 74.6484C28.7078 75.5016 27.9969 76.0703 27.2859 76.0703Z" fill="#747D88"/>
<path d="M43.6371 48.9131H25.2949C24.4418 48.9131 23.873 48.3443 23.873 47.4912C23.873 46.6381 24.4418 46.0693 25.2949 46.0693H43.6371C44.4903 46.0693 45.059 46.6381 45.059 47.4912C45.059 48.3443 44.4903 48.9131 43.6371 48.9131Z" fill="#747D88"/>
</svg>
