<svg width="292" height="187" viewBox="0 0 292 187" fill="none" xmlns="http://www.w3.org/2000/svg">
<path d="M270.622 59.1147C258.864 59.1147 249.243 68.7351 249.243 80.4934C249.243 92.2516 258.864 101.872 270.622 101.872C282.38 101.872 292 92.2516 292 80.4934C292 68.7351 282.38 59.1147 270.622 59.1147ZM279.886 77.1084L269.731 87.2633C269.375 87.6196 268.84 87.7977 268.484 87.7977C268.128 87.7977 267.593 87.6196 267.237 87.2633L261.714 81.9186C261.001 81.206 261.001 80.1371 261.714 79.4244C262.427 78.7118 263.496 78.7118 264.208 79.4244L268.484 83.522L277.392 74.6142C278.104 73.9016 279.173 73.9016 279.886 74.6142C280.599 75.3269 280.599 76.3958 279.886 77.1084Z" fill="#00C853"/>
<path d="M15.1215 44.5143C6.80467 44.5143 0 51.319 0 59.6358C0 67.9526 6.80467 74.7573 15.1215 74.7573C23.4383 74.7573 30.243 67.9526 30.243 59.6358C30.243 51.319 23.4383 44.5143 15.1215 44.5143ZM21.6741 57.2416L14.4914 64.4243C14.2394 64.6763 13.8614 64.8023 13.6093 64.8023C13.3573 64.8023 12.9793 64.6763 12.7272 64.4243L8.82086 60.6439C8.31681 60.1398 8.31681 59.3838 8.82086 58.8797C9.32491 58.3757 10.081 58.3757 10.585 58.8797L13.6093 61.778L19.9099 55.4774C20.414 54.9733 21.1701 54.9733 21.6741 55.4774C22.1782 55.9814 22.1782 56.7375 21.6741 57.2416Z" fill="#00C853"/>
<path d="M79.9215 0.979492C75.6458 0.979492 72.1475 4.47782 72.1475 8.75354C72.1475 13.0293 75.6458 16.5276 79.9215 16.5276C84.1972 16.5276 87.6956 13.0293 87.6956 8.75354C87.6956 4.47782 84.1972 0.979492 79.9215 0.979492ZM83.2903 7.52265L79.5976 11.2153C79.468 11.3449 79.2737 11.4097 79.1441 11.4097C79.0145 11.4097 78.8202 11.3449 78.6906 11.2153L76.6823 9.27181C76.4232 9.01268 76.4232 8.62398 76.6823 8.36484C76.9415 8.10571 77.3302 8.10571 77.5893 8.36484L79.1441 9.85487L82.3833 6.61568C82.6424 6.35654 83.0311 6.35654 83.2903 6.61568C83.5494 6.87481 83.5494 7.26352 83.2903 7.52265Z" fill="#00C853"/>
<g opacity="0.27">
<path d="M157.635 186.351V185.801L157.671 184.027C157.749 182.814 157.998 180.562 158.807 178.544C158.895 177.974 157.51 176.184 155.622 174.623C153.236 178.041 149.485 180.199 144.454 181.05C141.933 181.475 138.893 181.869 135.371 182.227L137.612 184.712C137.612 184.712 112.262 188.001 109.357 184.92C109.134 184.681 108.937 184.339 108.786 183.924C105.316 184.053 103.075 184.105 103.049 184.105L102.033 184.126L101.81 183.784L80.9932 183.12L81.735 180.822C82.4508 178.601 88.8934 158.999 93.9198 154.559C98.2771 150.71 104.144 149.88 106.172 149.703L106.52 149.304L107.64 149.631C107.645 149.631 107.65 149.631 107.656 149.636L108.231 149.62L108.304 149.828C110 150.331 114.529 151.701 117.34 152.691C120.307 153.739 121.563 153.801 121.573 153.801L121.822 153.822L124.156 154.196C124.161 153.781 124.177 153.36 124.192 152.94C124.426 147.753 125.998 142.581 127.652 138.468L126.132 136.922L126.112 136.943C124.597 136.746 123.295 136.922 122.346 136.658C121.703 136.476 121.039 136.829 119.503 136.673C113.221 137.493 106.639 138.572 102.157 139.345C102.074 139.37 101.996 139.396 101.913 139.422L101.695 139.49C101.421 139.573 101.151 139.656 100.876 139.728L100.814 139.744C100.539 139.822 100.243 139.9 99.9473 139.972C94.5889 141.31 88.2865 141.622 84.6346 141.679C84.4272 141.84 84.2041 141.995 83.9707 142.151L83.9032 142.203C82.2018 143.665 80.1996 144.77 77.9587 145.491C75.2458 146.612 71.9467 146.69 69.628 146.56C67.2626 146.513 65.0529 146.103 63.9843 145.906C49.2992 143.188 45.4659 134.303 46.7782 126.895C47.0895 125.132 46.2492 123.394 45.2791 121.381C43.5985 117.906 41.508 113.574 44.5477 107.313C48.9984 98.132 54.7303 97.162 64.2229 95.5488C65.0892 95.4035 65.9969 95.2479 66.9462 95.0819C67.439 94.9937 67.8695 94.9315 68.2482 94.8796C69.0418 94.7032 69.9755 94.5165 70.9819 94.4024C70.7225 93.1263 70.4528 91.7725 70.1727 90.3563C67.8384 86.2999 66.137 82.6274 65.5093 73.8558C64.1658 55.0521 76.5478 52.9305 81.8335 52.0279C82.7724 51.8671 83.7009 51.8671 84.5828 52.0331C85.1015 52.1316 85.5995 52.2769 86.0663 52.4792C86.2894 52.5726 86.5072 52.6815 86.7199 52.8008C88.966 54.0405 90.6311 56.4941 91.6685 60.0837C91.71 60.2237 91.7515 60.369 91.7878 60.5142C91.959 61.1471 92.0991 61.7643 92.2236 62.4024C92.2962 62.7707 92.3584 63.1493 92.4207 63.5384C92.7267 65.5043 92.9031 67.7296 92.9342 70.1625C92.9394 70.6604 92.9446 71.1636 92.9394 71.6823C92.9186 74.3071 92.7423 77.2067 92.4259 80.3087C92.3636 80.9156 92.3117 81.481 92.2702 82.0308C92.2599 82.1501 92.2547 82.2643 92.2443 82.3784L92.2288 82.6066C92.2028 82.9697 92.1769 83.3276 92.1613 83.6752C92.1561 83.8204 92.1458 83.9657 92.1406 84.1109L92.1302 84.4273C92.1198 84.7023 92.1094 84.9824 92.0991 85.2521C92.0939 85.4337 92.0939 85.6204 92.0887 85.802V85.9472C92.0835 86.2169 92.0835 86.4867 92.0835 86.7512C92.0835 86.9691 92.0887 87.1869 92.0939 87.4048C92.0991 87.6953 92.1043 87.9391 92.1094 88.1777C92.1198 88.4111 92.125 88.6446 92.1406 88.8728C92.1509 89.0958 92.1613 89.3189 92.1769 89.5368C92.1924 89.7702 92.208 90.0036 92.2288 90.2319C92.2443 90.4342 92.2651 90.6313 92.2806 90.8284C92.3014 91.0618 92.3273 91.2952 92.3532 91.5235C92.374 91.6998 92.3947 91.8762 92.4207 92.0526C92.4518 92.286 92.4829 92.5194 92.5192 92.7477L92.5919 93.2041C92.6334 93.4376 92.6697 93.6762 92.7163 93.9096L92.789 94.2727C92.8408 94.5217 92.8927 94.7707 92.9446 95.0145L92.9965 95.2323C93.344 96.7003 94.6252 105.301 105.477 112.428C107.578 113.185 110.037 114.176 112.023 114.845L112.267 112.744L115.54 114.845L115.945 113.725C115.96 113.74 119.503 115.582 121.63 116.801C122.143 117.097 122.6 117.351 122.994 117.574C121.007 115.54 118.813 112.999 116.604 109.881C113.574 105.612 111.541 101.587 110.389 97.5718C110.353 97.4836 110.327 97.3902 110.306 97.302C109.933 96.249 108.387 91.7776 108.304 89.5471C108.179 86.3414 108.47 82.3991 110.55 81.8233C113.325 81.0505 114.881 83.9294 116.235 86.5904C116.93 83.3951 118.077 80.3242 119.654 77.4142C120.696 75.4949 121.92 73.6898 123.305 72.0195C122.932 71.6979 122.652 71.2829 122.496 70.8005C122.278 70.121 122.335 69.3947 122.667 68.7567C122.792 68.5181 122.948 68.3002 123.129 68.1135C122.128 66.5781 121.682 64.6069 122.6 62.2571C123.523 59.8814 126.558 58.0036 128.783 56.8987C130.246 45.2741 132.959 34.5003 136.844 24.8676C139.334 18.7 142.42 12.6983 145.538 7.97276C150.222 0.871446 151.913 0.970003 152.634 1.00631C153.547 1.05819 154.299 1.67547 154.553 2.57804C154.75 3.27832 154.953 5.05754 155.388 9.00502C156.161 15.9974 157.453 27.705 159.253 34.1527C159.912 36.5181 160.711 39.7134 161.629 43.6661C163.159 43.8217 164.705 44.0707 166.251 44.4079C180.946 47.6136 188.431 51.8827 191.154 53.7189C195.226 50.1398 199.169 46.9963 202.898 44.3612C216.302 34.8893 235.085 25.5782 235.272 25.4849L237.15 24.5563L237.798 26.5482C237.969 27.0773 241.865 39.729 228.264 60.592C221.365 71.174 214.647 80.7755 210.02 87.244C218.04 101.307 218.792 112.521 212.106 118.896C208.049 122.766 205.238 124.042 202.997 123.036C201.71 122.46 200.906 121.22 200.59 119.332C199.833 119.524 199.055 119.643 198.261 119.68C195.662 119.804 193.131 119.068 190.978 117.589C189.199 118.782 187.041 118.829 184.842 117.662L185.563 116.308L185.542 116.298L184.821 117.652C183.97 117.2 183.223 116.63 182.632 116.106C178.404 122.315 171.868 127.404 164.591 129.81C174.529 135.236 178.638 142.322 178.638 142.322L177.284 142.441C177.387 143.811 173.715 148.692 172.978 149.496C171.899 150.772 170.535 152.017 168.912 153.194C167.61 154.33 165.628 155.736 164.336 156.623C164.617 157.111 164.897 157.593 165.172 158.07C167.833 162.671 170.343 167.024 170.613 170.79C170.872 174.452 169.565 177.507 168.009 179.784L170.452 179.24C171.095 178.747 171.63 178.435 172.117 178.275C174.462 177.491 178.653 178.337 180.08 181.916C180.505 182.974 180.505 184.1 179.836 184.894C177.03 188.198 157.635 186.351 157.635 186.351ZM169.539 183.156C170.343 183.265 171.308 183.363 172.159 183.363C174.815 183.363 176.008 183.151 176.542 182.954C175.764 181.657 173.938 181.48 173.253 181.714C173.253 181.714 173.009 181.812 172.392 182.321L172.055 182.596L169.539 183.156ZM112.189 182.637C112.35 182.751 112.806 182.85 113.024 182.85H115.851L112.661 180.152L117.236 179.914C120.188 179.758 123.031 179.587 125.686 179.4L126.879 179.317L126.885 179.323L129.406 179.12C135.304 178.643 140.164 178.088 143.847 177.465C148.287 176.719 151.425 174.773 153.179 171.687L153.542 170.987L154.75 168.409L156.582 170.582C156.789 170.831 156.95 171.018 157.048 171.132C158.817 172.444 163.569 176.387 162.163 179.893C161.997 180.308 161.862 180.749 161.748 181.185C162.832 180.334 167.35 176.459 166.966 171.049C166.759 168.113 164.342 163.932 162.002 159.886C161.338 158.74 160.653 157.557 160.01 156.385L159.45 155.368L160.14 154.434L161.582 152.256L160.736 153.158L159.595 152.515L159.476 152.489L158.247 153.008L157.52 151.322C156.41 148.619 155.938 146.337 156.073 144.35C156.172 142.846 156.374 140.989 156.675 138.826L156.986 136.575L160.379 137.866L165.498 149.34L161.992 152.1L161.712 152.126L161.66 152.178L162.516 153.459C163.75 152.608 165.472 151.374 166.546 150.424L166.686 150.316C168.113 149.283 169.29 148.215 170.198 147.136L170.255 147.068C171.142 146.109 171.661 145.284 171.796 144.61L171.863 144.35C171.941 144.127 171.993 143.951 172.029 143.785C172.097 143.5 172.148 143.209 172.19 142.898L172.216 142.747C172.263 142.545 172.299 142.338 172.335 142.135L172.511 141.051L172.439 140.973L172.325 140.496C172.304 140.418 172.283 140.34 172.263 140.263L172.003 139.469L171.588 139.049C171.375 138.769 171.147 138.509 170.888 138.25C170.302 137.674 167.023 135.247 159.564 130.168L156.037 127.767L160.213 126.89C169.067 125.033 176.62 119.586 180.925 111.946C181.013 111.79 181.096 111.629 181.179 111.468L181.314 111.209L187.943 98.6403L184.686 112.475C184.644 112.656 184.603 112.822 184.567 112.973C185.028 113.429 185.723 114.036 186.507 114.456L186.527 114.467C188.12 115.312 188.908 114.767 189.526 114.057L190.734 112.661L192.109 113.896C193.784 115.4 195.906 116.173 198.069 116.069C199.236 116.012 200.362 115.712 201.41 115.167L204.159 113.746L204.055 116.842C203.977 119.203 204.475 119.737 204.491 119.752C204.486 119.737 205.736 119.949 209.579 116.282C217.002 109.207 210.695 95.5747 206.275 88.0791L205.673 87.0573L206.363 86.0976C210.98 79.6655 217.993 69.68 225.203 58.6261C234.613 44.1952 235.059 34.0749 234.675 29.8629C229.374 32.5862 215.467 39.9313 204.968 47.349C200.714 50.3524 196.17 54.0406 191.466 58.3096L190.262 57.0699L189.982 57.4019C189.925 57.35 183.244 51.8619 165.452 47.9819C163.626 47.5824 161.795 47.3179 160.01 47.1986L158.662 47.1104L158.361 45.7929C157.328 41.2955 156.447 37.7163 155.731 35.1538C153.853 28.426 152.541 16.5317 151.752 9.43037C151.623 8.27362 151.493 7.10131 151.379 6.11055C148.816 9.17101 144.143 16.4383 140.185 26.2577C136.305 35.8697 133.633 46.6695 132.238 58.3615L132.119 59.3782L131.185 59.7984C127.6 61.4168 126.21 62.9522 125.956 63.6058C124.882 66.3654 128.026 67.9112 128.664 68.1965L131.252 69.3377L128.928 71.397C128.84 71.4748 128.752 71.5474 128.669 71.6253L128.088 72.1647L127.455 72.8235C125.64 74.7168 124.084 76.854 122.823 79.1727C120.738 83.0112 119.503 87.1714 119.145 91.5338L118.777 96.026L115.929 92.535C115.416 91.9073 114.959 91.3212 114.57 90.7921C114.062 90.0607 113.595 89.35 113.17 88.6342L113.107 88.5252C112.812 87.9391 112.407 87.1403 112.018 86.4867C111.925 87.3633 111.868 88.4319 111.909 89.4434C111.956 90.735 112.931 93.9148 113.621 95.8859L113.668 95.9222L113.787 96.3476L114.088 97.1879L114.046 97.2398C115.11 100.648 116.915 104.118 119.54 107.811C124.509 114.809 129.292 118.679 131.698 120.359L138.696 125.251L130.313 123.627C128.213 123.223 125.842 122.668 123.274 121.978L121.495 121.5L121.511 121.537L120.655 121.277L118.699 120.754L118.787 120.707L117.667 120.37C117.257 120.245 116.842 120.121 116.432 119.991L116.443 120.022L113.055 118.917C110.12 117.958 107.007 116.884 103.807 115.722L103.386 115.571L103.086 115.245C102.671 114.788 102.245 114.373 101.825 114.01C100.938 113.242 99.937 112.376 98.967 111.489L98.7802 111.318L98.6453 111.1C95.3463 105.731 91.6374 101.841 91.4818 101.68L91.2639 101.452L91.1342 101.161C90.4392 99.6 89.8686 97.8986 89.4432 96.1038L89.381 95.8548C89.3187 95.5799 89.2617 95.2998 89.2046 95.0197L89.1787 94.9004C89.1579 94.8018 89.1372 94.7084 89.1216 94.6099C89.0749 94.3557 89.0282 94.0911 88.9867 93.8214L88.966 93.7021C88.9452 93.5724 88.9245 93.4427 88.9037 93.3131C88.8674 93.0641 88.8311 92.8047 88.7948 92.5454C88.7689 92.3534 88.7429 92.1615 88.7222 91.9592C88.6911 91.7102 88.6651 91.456 88.6444 91.1967C88.6236 90.984 88.6029 90.7661 88.5873 90.5431C88.5666 90.2941 88.551 90.0451 88.5303 89.7857C88.5147 89.5471 88.5043 89.3085 88.4888 89.0699C88.4784 88.8209 88.468 88.5719 88.4576 88.3178C88.4473 88.0584 88.4421 87.7939 88.4421 87.5293C88.4369 87.2492 88.4317 87.0158 88.4317 86.7772C88.4317 86.4919 88.4369 86.2066 88.4369 85.9161V85.776C88.4369 85.5789 88.4421 85.3766 88.4473 85.1743C88.4576 84.8838 88.468 84.5881 88.4784 84.2925L88.4888 83.9864C88.4939 83.8256 88.4991 83.6648 88.5095 83.4988C88.5303 83.1253 88.5562 82.7467 88.5821 82.368L88.5977 82.1605C88.6081 82.0257 88.6132 81.8908 88.6236 81.7559C88.6703 81.1749 88.7222 80.5888 88.7844 79.9819C89.0957 76.9577 89.2617 74.1722 89.2824 71.6616C89.2876 71.1688 89.2876 70.6916 89.2772 70.2247C89.2461 67.9683 89.0853 65.9089 88.8052 64.1141C88.7533 63.7666 88.6911 63.4294 88.6288 63.1026C88.5251 62.5528 88.4006 62.0185 88.2501 61.4687C88.219 61.3442 88.1827 61.2249 88.1464 61.1056C87.3943 58.5068 86.2842 56.7379 84.9303 55.9909C84.8266 55.9339 84.7176 55.882 84.6087 55.8353C84.3908 55.742 84.147 55.6693 83.8877 55.6227C83.426 55.5345 82.9332 55.5397 82.4145 55.6278C75.4377 56.8209 68.077 59.2952 69.0989 73.6172C69.7265 82.4354 71.5265 85.5374 73.4302 88.8209L73.5807 89.0803L73.6377 89.376C74.0942 91.6895 74.5299 93.8422 74.919 95.7666L75.3754 97.9971L73.0982 97.9453C71.9207 97.9193 70.6706 98.0749 68.9122 98.464L68.7306 98.4951C68.3934 98.5366 68.0044 98.5937 67.5324 98.6767C66.5779 98.8427 65.6649 98.9983 64.7883 99.1487C55.3216 100.757 51.4053 101.421 47.769 108.916C45.497 113.6 46.9598 116.624 48.5056 119.825C49.6468 122.19 50.8295 124.634 50.3108 127.554C49.8232 130.314 49.403 139.542 64.6016 142.358C65.6494 142.555 67.605 142.913 69.6851 142.955L69.7577 142.96C72.5277 143.121 74.9397 142.836 76.5478 142.151L76.7345 142.078C78.5604 141.497 80.1736 140.61 81.5275 139.438L81.8647 139.184C82.1966 138.961 82.4923 138.743 82.7413 138.525L83.2445 138.084L83.9136 138.079C86.6162 138.053 93.4944 137.845 99.0136 136.471C99.2782 136.403 99.5427 136.336 99.7969 136.263C100.087 136.186 100.326 136.113 100.559 136.04L100.782 135.968C100.886 135.937 100.99 135.905 101.089 135.869L101.353 135.802C105.088 135.158 110.322 134.292 115.644 133.54L115.499 133.478L122.05 132.705C122.284 132.679 122.512 132.653 122.745 132.627L122.719 132.596L126.013 132.285C127.056 132.186 128.036 132.103 128.928 132.041C129.847 131.979 130.754 131.911 131.662 131.844L134.899 131.605L133.405 134.489C132.679 135.89 131.771 137.783 130.894 139.993L132.336 143.313L130.381 141.326C129.074 144.853 127.943 149.008 127.756 153.127C127.709 154.201 127.704 155.264 127.741 156.281L127.829 158.496L121.288 157.443C120.733 157.412 119.135 157.22 116.064 156.13C113.59 155.254 109.601 154.04 107.671 153.459L106.198 155.155L105.617 153.428C103.516 153.708 99.3301 154.585 96.2696 157.292C93.0483 160.14 88.245 172.807 85.9003 179.66L103.776 180.23L103.926 180.464C105.155 180.427 107.427 180.36 110.317 180.246L112.599 180.152L112.148 182.507C112.189 182.559 112.189 182.606 112.189 182.637ZM127.855 181.595L127.756 181.989C127.741 182.046 127.715 182.15 127.658 182.29L128.249 182.243C128.145 182.098 128.047 181.947 127.964 181.786L127.855 181.595ZM160.275 152.126C160.264 152.131 160.254 152.136 160.244 152.141C160.254 152.136 160.264 152.131 160.275 152.126ZM159.694 145.201C159.72 146.207 159.964 147.369 160.425 148.707L161.043 148.225L159.694 145.201Z" fill="white"/>
</g>
<path d="M93.8237 109.985C93.8237 109.985 122.877 121.843 136.572 122.673C150.266 123.503 154.826 122.673 154.826 122.673L152.751 131.802C152.751 131.802 141.131 133.047 129.102 133.877C117.068 134.707 96.3862 138.566 96.3862 138.566L93.8237 109.985Z" fill="#EA5045"/>
<path d="M82.3703 139.91C82.3703 139.91 98.8813 140.263 105.428 135.879C111.974 131.496 110.262 118.907 103.031 112.651C95.7949 106.395 88.5587 100.145 90.618 80.1634C92.6722 60.1822 88.206 52.8215 82.1369 53.859C76.0678 54.8964 66.1343 57.1892 67.3222 73.7676C68.3181 87.6953 72.0581 87.9754 76.0056 97.8467C76.156 98.2305 82.3703 139.91 82.3703 139.91Z" fill="#161515"/>
<path d="M87.7037 74.7739C86.5729 88.4422 92.8131 100.44 92.8131 100.44L92.8183 100.445C90.7123 95.7199 89.6696 89.4174 90.6241 80.1686C92.6782 60.1874 88.212 52.8267 82.143 53.8641C81.2611 54.0146 80.3015 54.2376 79.3159 54.5488C83.5643 59.5597 88.3417 67.0189 87.7037 74.7739Z" fill="#333333"/>
<path d="M103.032 112.656C102.087 111.837 101.138 111.017 100.215 110.171C103.587 115.665 106.497 122.61 104.816 128.638C103.498 133.364 101.481 136.357 99.499 138.255C101.797 137.685 103.893 136.917 105.433 135.885C111.979 131.501 110.268 118.912 103.032 112.656Z" fill="#333333"/>
<path d="M80.6638 111.852C80.6638 111.852 84.3156 109.632 83.5479 106.323C82.7801 103.013 81.7219 99.0345 77.8419 97.2449C73.9619 95.4553 70.6887 96.1712 66.8502 97.1204C63.0116 98.0697 57.4198 98.5054 53.2648 100.7C49.1098 102.894 46.7652 107.381 46.2984 109.751C45.8315 112.122 44.9652 114.394 46.5266 118.009C48.0828 121.625 49.3485 124.26 49.3485 124.997C49.3536 125.733 48.6689 130.806 49.4211 132.248C50.1732 133.69 51.2314 137.768 54.0688 139.614C56.9062 141.461 62.7574 143.639 65.7245 144.272C68.6916 144.905 73.884 145.289 77.2972 143.842C80.7104 142.395 84.5023 140.164 85.4256 137.814C86.349 135.464 86.9714 134.484 85.7524 132.316C84.5334 130.147 81.2499 127.097 81.2499 127.097C81.2499 127.097 82.8113 127.606 84.0821 126.714C85.353 125.827 87.9518 120.022 85.6487 117.309C83.3456 114.601 80.6638 111.852 80.6638 111.852Z" fill="#161515"/>
<path d="M82.7805 127.927C82.7805 127.927 87.8951 133.576 86.1522 136.642C84.4093 139.702 79.3777 146.814 65.1024 144.169C50.8272 141.523 48.3114 133.135 49.354 127.263C50.3967 121.392 42.5536 117.257 46.9679 108.154C51.3822 99.0501 56.7199 98.9101 68.0488 96.9182C79.3777 94.9263 82.4434 99.351 83.403 106.043C84.8606 116.189 63.7019 114.664 63.7019 114.664" stroke="#333333" stroke-width="3" stroke-miterlimit="10" stroke-linecap="round"/>
<path d="M79.5123 112.516C79.5123 112.516 86.7744 114.752 86.6343 121.355C86.4943 127.958 81.1514 128.099 74.6311 128.773C68.1107 129.447 66.4819 129.613 66.4819 129.613" stroke="#333333" stroke-width="3" stroke-miterlimit="10" stroke-linecap="round"/>
<path d="M71.1963 96.4928C71.1963 96.4928 77.7581 100.171 77.1875 105.347C76.3991 112.454 73.0378 114.316 73.0378 114.316C73.0378 114.316 80.7097 112.957 82.52 110.338C84.3304 107.718 83.5108 102.214 81.4722 100.191C76.2383 95.0093 71.1963 96.4928 71.1963 96.4928Z" fill="#333333"/>
<path d="M76.0229 113.626C76.0229 113.626 80.8263 114.005 81.1324 119.161C81.4384 124.322 77.5532 128.472 77.5532 128.472C77.5532 128.472 85.2043 129.172 86.1017 124.903C86.9991 120.634 86.4026 118.622 84.39 115.867C80.8626 111.048 76.0229 113.626 76.0229 113.626Z" fill="#333333"/>
<path d="M79.2837 128.239C79.2837 128.239 82.313 130.594 82.313 135.345C82.313 139.687 75.2065 144.029 75.2065 144.029C75.2065 144.029 84.6265 141.425 85.415 137.814C86.2087 134.204 86.3695 131.647 84.4761 129.727C82.5828 127.808 81.1563 126.257 81.1563 126.257L79.2837 128.239Z" fill="#333333"/>
<path d="M78.3713 141.663C74.818 146.005 67.5092 144.76 64.3139 144.169C50.0386 141.523 47.5228 133.135 48.5654 127.263C49.6081 121.392 41.765 117.257 46.1793 108.154C50.5937 99.0502 55.9313 98.9101 67.2602 96.9182C70.274 96.3891 70.0976 96.7626 72.0584 97.0634L71.2699 97.8519C71.2699 97.8519 57.0621 109.3 59.8217 116.401C62.5813 123.503 66.1346 132.586 66.1346 132.586L78.3713 141.663Z" fill="#161515"/>
<path d="M75.2121 70.2194C75.8501 75.4948 77.6138 79.4527 75.6063 79.6913C73.604 79.9351 71.5084 76.6827 70.8704 71.4021C70.2323 66.1267 72.8623 61.2766 74.8645 61.038C76.8668 60.7994 74.574 64.9388 75.2121 70.2194Z" fill="#333333"/>
<path d="M100.951 136.652C100.951 136.652 106.175 130.853 102.051 126.267C98.4978 122.32 96.9209 121.137 96.9209 121.137C96.9209 121.137 103.234 121.926 105.999 124.691C108.571 127.263 107.97 127.455 106.393 131.003C104.816 134.551 100.951 136.652 100.951 136.652Z" fill="#333333"/>
<path d="M123.885 120.183C123.885 120.183 122.77 119.597 120.726 118.43C118.268 117.024 116.514 114.918 116.514 114.918L118.268 118.777C118.268 118.777 117.453 118.886 115.648 117.47C113.843 116.049 113.423 114.856 113.423 114.856C113.423 114.856 113.148 117.325 114.33 118.357C115.513 119.389 120.685 121.817 120.685 121.817L123.885 120.183Z" fill="#EA5045"/>
<path d="M118.972 134.842C118.972 134.842 121.996 135.091 123.453 135.501C124.911 135.911 124.838 135.662 124.838 135.662L121.472 134.157C121.472 134.157 122.774 134.007 124.455 134.251C126.135 134.5 126.841 135.112 126.841 135.112C126.841 135.112 126.114 133.426 124.978 133.203C123.842 132.975 119.636 133.317 119.636 133.317L118.972 134.842Z" fill="#EA5045"/>
<path d="M106.931 151.509C106.931 151.509 99.9181 151.711 95.1199 155.954C90.3217 160.197 83.459 181.418 83.459 181.418L105.168 182.113L112.258 167.475L106.931 151.509Z" fill="#F4DED3"/>
<path d="M156.495 163.533C156.495 163.533 158.554 176.869 144.149 179.297C129.75 181.724 102.999 182.326 102.999 182.326L97.5161 173.84L105.748 166.562L100.26 159.284L107.118 151.405C107.118 151.405 113.29 153.226 116.719 154.434C120.148 155.648 121.517 155.648 121.517 155.648L129.06 156.862L156.495 163.533Z" fill="#E85F5B"/>
<path d="M155.82 172.517C155.82 172.517 161.526 176.667 160.488 179.26C159.451 181.854 159.451 184.966 159.451 184.966H167.232L171.9 180.816L162.563 182.891C162.563 182.891 169.307 178.223 168.788 170.961C168.269 163.699 157.376 152.287 157.895 144.506C158.414 136.725 161.526 122.201 161.526 122.201C161.526 122.201 164.638 114.42 156.857 121.163C149.077 127.907 145.446 156.436 148.558 162.142C151.67 167.848 155.82 172.517 155.82 172.517Z" fill="#EA5045"/>
<path d="M133.775 130.241C133.775 130.241 126.513 141.653 125.994 153.065C125.476 164.477 129.625 169.145 133.775 171.22C137.925 173.295 147.262 170.182 149.856 171.22C152.449 172.257 155.561 172.776 155.561 172.776C155.561 172.776 146.743 156.696 150.374 146.84C154.005 136.984 160.23 122.46 160.23 122.46L134.813 123.497L133.775 130.241Z" fill="#FAA9A4"/>
<path d="M126.737 162.962C126.737 162.962 121.845 165.514 121.845 169.664C121.845 173.814 125.995 181.594 125.995 181.594C125.995 181.594 125.477 183.669 122.364 182.632C119.252 181.594 115.102 182.113 115.102 182.113L120.808 184.707L133.776 183.669C133.776 183.669 127.033 181.594 130.145 178.482C133.257 175.37 136.37 172.257 136.37 172.257L126.737 162.962Z" fill="#EA5045"/>
<path d="M120.807 184.707L114.063 179.001C114.063 179.001 110.951 179.52 110.432 182.113C109.914 184.707 113.026 184.707 113.026 184.707H120.807Z" fill="black"/>
<path d="M167.231 184.966C167.231 184.966 171.122 180.557 172.678 180.038C174.234 179.52 177.347 180.038 178.384 182.632C179.421 185.226 174.234 185.226 172.159 185.226C170.084 185.226 167.231 184.966 167.231 184.966Z" fill="black"/>
<path d="M161.625 152.712C161.298 152.235 160.78 150.969 160.245 150.839C159.706 150.71 158.819 150.699 158.471 150.865C158.124 151.031 157.133 150.139 156.153 149.444C155.172 148.744 152.703 148.987 152.158 150.264C151.614 151.54 151.718 152.001 151.718 152.001C151.718 152.001 151.069 152.893 151.629 153.604C152.19 154.315 152.511 154.87 152.511 154.87C152.511 154.87 151.775 155.202 151.987 155.788C152.2 156.379 152.459 156.737 153.601 156.711C154.742 156.685 155.981 156.447 156.469 155.928C156.957 155.409 157.361 155.762 157.361 155.762C157.361 155.762 158.471 156.748 159.504 156.742C160.536 156.737 161.573 155.606 161.573 155.606C161.573 155.606 162.419 153.869 161.625 152.712Z" fill="#161515"/>
<path d="M152.257 154.631C152.257 154.631 150.431 152.001 152.651 151.332C154.877 150.663 156.075 151.275 156.075 151.275" stroke="#333333" stroke-miterlimit="10" stroke-linecap="round"/>
<path d="M156.578 153.744C156.578 153.744 155.951 151.727 154.104 153.179C152.257 154.631 151.189 155.71 152.636 156.483C154.083 157.261 156.796 155.845 156.962 155.596C157.128 155.347 158.041 156.665 159.317 156.613C160.593 156.561 162.362 155.773 161.942 153.713C161.522 151.654 159.945 150.259 159.369 150.591C158.793 150.923 157.673 150.923 157.673 150.923" stroke="#161515" stroke-miterlimit="10"/>
<path d="M157.9 136.766C157.9 136.766 168.949 136.217 169.13 140.257C169.317 144.298 163.725 149.828 163.725 149.828" stroke="#EA5045" stroke-miterlimit="10"/>
<path d="M164.874 153.646C164.874 153.646 172.561 149.636 173.811 144.231C175.061 138.826 171.913 136.035 166.378 134.168C160.843 132.3 158.571 131.693 158.571 131.693" stroke="#EA5045" stroke-miterlimit="10"/>
<path d="M164.136 148.147L161.288 150.383C161.288 150.383 159.307 150.788 160.189 153.085C160.375 153.573 162.03 156.011 162.03 156.011C162.03 156.011 165.817 153.526 167.757 151.815C169.697 150.103 173.063 147.613 173.582 144.999C174.101 142.379 175.283 140.071 172.171 136.995C170.636 135.475 159.104 127.694 159.104 127.694L156.775 138.499C156.775 138.499 163.638 140.787 165.049 142.587C167.3 145.429 164.136 148.147 164.136 148.147Z" fill="#EA5045"/>
<path d="M152.422 154.476C152.422 154.476 154.394 152.007 156.178 153.06C156.868 153.464 156.863 153.978 156.863 153.978" stroke="#333333" stroke-miterlimit="10" stroke-linecap="round"/>
<path d="M151.852 151.7C151.852 151.7 151.982 149.112 154.534 149.014C157.091 148.92 158.424 152.292 158.424 152.292" stroke="#333333" stroke-miterlimit="10" stroke-linecap="round"/>
<path d="M170.72 135.807L175.29 140.071L173.542 139.604C173.542 139.604 174.496 140.231 175.217 141.741C175.917 143.199 174.911 144.283 174.911 144.283C174.911 144.283 175.378 142.535 173.236 142.146C171.093 141.762 170.72 135.807 170.72 135.807Z" fill="#EA5045"/>
<path d="M203.449 80.5162C203.449 80.5162 223.026 106.006 210.846 117.62C198.667 129.235 202.988 111.582 202.988 111.582L187.395 107.614L203.449 80.5162Z" fill="#4E55A2"/>
<path d="M182.518 112.869C173.456 128.949 152.391 134.251 135.47 124.711C118.549 115.172 112.439 94.5476 121.247 78.3272C130.164 61.894 151.374 56.9454 168.295 66.4847C185.216 76.024 191.58 96.7885 182.518 112.869Z" fill="#EA5045"/>
<path d="M142.854 90.1932C146.102 84.8726 145.538 78.6073 141.594 76.1993C137.65 73.7913 131.82 76.1525 128.571 81.4731C125.323 86.7937 125.887 93.059 129.831 95.467C133.775 97.8749 139.605 95.5138 142.854 90.1932Z" fill="white"/>
<path d="M178.623 68.4662C178.623 68.4662 190.491 55.384 203.931 45.8862C217.371 36.3884 236.061 27.1551 236.061 27.1551C236.061 27.1551 240.013 39.2725 226.734 59.6427C213.45 80.013 198.038 100.98 192.83 107.033C187.622 113.082 185.599 116.23 185.599 116.23C185.599 116.23 193.178 100.036 188.541 87.5397C183.903 75.0436 178.623 68.4662 178.623 68.4662Z" fill="#EA5045"/>
<path d="M140.323 91.0313C142.333 88.5777 142.143 85.0994 139.9 83.2625C137.657 81.4255 134.21 81.9255 132.2 84.3792C130.191 86.8329 130.38 90.3111 132.624 92.1481C134.867 93.985 138.314 93.485 140.323 91.0313Z" fill="#4E55A2"/>
<path d="M168.82 106.514C172.049 100.787 170.54 93.8175 165.449 90.9474C160.358 88.0773 153.613 90.3935 150.384 96.1208C147.156 101.848 148.665 108.818 153.756 111.688C158.847 114.558 165.591 112.242 168.82 106.514Z" fill="white"/>
<path d="M166.329 106.573C167.968 103.666 166.701 99.8454 163.5 98.0403C160.298 96.2353 156.373 97.1288 154.734 100.036C153.095 102.943 154.362 106.764 157.564 108.569C160.766 110.374 164.69 109.48 166.329 106.573Z" fill="#4E55A2"/>
<path d="M176.449 107.454C176.236 107.454 176.018 107.376 175.852 107.215C175.66 107.028 156.327 88.6291 147.037 83.084C137.69 77.5077 124.779 70.8576 124.649 70.7902C124.224 70.5723 124.058 70.0536 124.275 69.6283C124.493 69.2029 125.012 69.0369 125.437 69.2548C125.567 69.3222 138.525 75.993 147.919 81.6004C157.375 87.2441 176.246 105.202 177.04 105.965C177.382 106.292 177.398 106.841 177.071 107.184C176.9 107.365 176.677 107.454 176.449 107.454Z" fill="#4E55A2"/>
<path d="M159.216 117.346C156.338 117.346 153.412 116.199 150.476 113.912C140.05 105.794 144.848 97.3074 148.702 90.481C149.153 89.6821 149.584 88.9248 149.988 88.1675C150.087 87.9859 149.994 87.7888 149.9 87.6591C149.729 87.4153 149.501 87.3271 149.428 87.3271C149.428 87.3323 149.418 87.3427 149.407 87.3582C146.648 91.8244 143.556 96.3581 138.8 98.4174C135.189 99.9788 130.842 99.6157 127.45 97.4682C123.954 95.248 121.951 91.5599 121.811 87.0833C121.625 81.0973 127.082 71.4957 127.315 71.0911C127.554 70.6761 128.078 70.5361 128.492 70.7695C128.907 71.0081 129.048 71.532 128.814 71.947C128.762 72.0404 123.367 81.5278 123.539 87.0263C123.663 90.9167 125.38 94.1068 128.378 96.0105C131.294 97.8572 135.023 98.1736 138.115 96.8353C142.41 94.9731 145.325 90.6833 147.939 86.4505C148.479 85.5738 149.522 85.3508 150.476 85.9006C151.487 86.4816 152.151 87.7992 151.508 88.987C151.093 89.7599 150.663 90.5225 150.206 91.3317C146.311 98.2203 142.285 105.348 151.534 112.547C154.958 115.214 158.314 116.147 161.514 115.323C168.574 113.502 172.812 103.781 172.854 103.682C173.04 103.247 173.549 103.039 173.984 103.231C174.42 103.418 174.628 103.926 174.441 104.362C174.254 104.793 169.83 114.959 161.95 116.993C161.048 117.231 160.135 117.346 159.216 117.346Z" fill="#4E55A2"/>
<path d="M158.044 129.141C158.044 129.141 149.791 113.906 136.377 106.343C122.963 98.7805 117.631 92.561 114.741 87.7161C111.852 82.8712 110.892 83.1358 111.007 87.2181C111.115 91.2953 110.462 98.158 118.077 108.88C125.692 119.602 132.876 123.249 132.876 123.249C132.876 123.249 141.404 128.918 146.975 129.593C152.546 130.267 158.044 129.141 158.044 129.141Z" fill="#FAA9A4"/>
<path d="M112.07 96.9079C112.07 96.9079 111.764 97.2813 115.234 96.8301C118.705 96.3736 119.763 94.2001 119.763 94.2001C119.763 94.2001 115.888 89.9674 114.747 87.7161C113.606 85.4648 112.464 83.2136 111.033 83.613C110.358 83.7997 110.026 87.3374 110.115 89.5212C110.192 91.7051 112.07 96.9079 112.07 96.9079Z" fill="#5B1A19"/>
<g opacity="0.36">
<path opacity="0.36" d="M232.565 32.6641C232.565 32.6641 209.767 45.4455 200.684 53.2055C191.602 60.9656 180.542 70.9926 180.542 70.9926L184.594 80.3036L187.317 77.2224L185.75 82.8713L188.811 83.748L187.322 84.7439L188.463 86.4868L186.746 87.2234L189.558 98.4122C189.558 98.4122 192.883 104.02 203.444 87.7369C214.005 71.4542 232.565 32.6641 232.565 32.6641Z" fill="#FAA9A4"/>
</g>
<path d="M164.175 64.1608C164.175 64.1608 160.155 44.2159 157.494 34.6818C154.833 25.1476 153.329 5.016 152.794 3.1071C152.26 1.1982 144.588 10.5352 138.514 25.5886C132.44 40.6419 130.785 54.9742 130.209 60.2755C129.633 65.5769 130.775 67.823 130.775 67.823C130.775 67.823 144.464 63.4916 148.546 63.3775C152.623 63.2738 164.175 64.1608 164.175 64.1608Z" fill="#EA5045"/>
<g opacity="0.36">
<path opacity="0.36" d="M151.705 61.7643C151.705 61.7643 149.273 23.6226 149.319 16.4175C149.366 9.21245 149.786 7.039 149.786 7.039C149.786 7.039 140.926 21.3298 137.524 33.0685C134.121 44.8072 131.838 67.1123 131.838 67.1123L142.343 62.672L140.2 61.0899L143.67 60.6335L143.748 59.0721L146.798 60.7891L151.705 61.7643Z" fill="#FAA9A4"/>
</g>
<path d="M143.029 87.4403C143.411 86.0422 142.492 84.5722 140.975 84.157C139.458 83.7417 137.918 84.5386 137.535 85.9367C137.153 87.3348 138.072 88.8049 139.589 89.2201C141.106 89.6353 142.646 88.8385 143.029 87.4403Z" fill="white"/>
<path d="M168.161 104.847C169.174 103.05 168.391 100.689 166.412 99.5734C164.433 98.4577 162.007 99.0098 160.994 100.807C159.981 102.603 160.764 104.964 162.743 106.08C164.722 107.196 167.148 106.644 168.161 104.847Z" fill="white"/>
<path d="M149.532 80.5887L145.222 85.3869L153.148 89.8531L154.413 83.338L149.532 80.5887Z" fill="#F47B2B"/>
<path d="M198.171 117.917C203.963 117.64 208.419 112.407 208.123 106.229C207.828 100.05 202.893 95.2663 197.101 95.5435C191.309 95.8206 186.853 101.054 187.149 107.232C187.444 113.411 192.379 118.194 198.171 117.917Z" fill="#4E55A2"/>
<path d="M132.326 58.6624C132.326 58.6624 142.923 41.2229 165.851 46.2286C184.452 50.2902 191.175 56.0428 191.175 56.0428L177.626 70.0172C177.626 70.0172 170.374 62.4335 161.073 60.4053C151.773 58.3771 132.326 58.6624 132.326 58.6624Z" fill="#4E55A2"/>
<path d="M171.365 64.9544C171.365 64.9544 178.254 61.7799 188.26 70.6345C198.266 79.4891 200.466 97.9556 200.466 97.9556L195.003 102.837L171.365 64.9544Z" fill="#4E55A2"/>
<path d="M127.974 69.8823C127.974 69.8823 122.481 67.574 124.281 62.9626C126.075 58.3511 142.706 51.6544 158.449 56.5149C174.192 61.3753 196.627 82.8608 194.319 104.056C192.01 125.251 182.564 113.502 182.564 113.502C182.564 113.502 185.5 103.76 183.156 95.3568C180.811 86.9535 174.395 67.4807 155.886 63.917C138.063 60.4779 127.974 69.8823 127.974 69.8823Z" fill="#1E2754"/>
<path d="M197.867 114.892C198.438 113.605 199.014 112.345 199.548 111.079C199.802 110.441 200.077 109.814 200.3 109.17C200.539 108.532 200.751 107.889 200.912 107.241C201.083 106.598 201.208 105.944 201.244 105.301C201.26 105.14 201.249 104.984 201.254 104.824L201.223 104.315C201.197 103.978 201.177 103.636 201.14 103.298C201.068 102.624 200.974 101.95 200.819 101.281C200.673 100.611 200.487 99.9475 200.191 99.3147C200.679 99.8334 201.005 100.477 201.296 101.13C201.571 101.789 201.784 102.474 201.929 103.174C202.007 103.522 202.074 103.874 202.116 104.227L202.183 104.756C202.193 104.943 202.214 105.135 202.214 105.321C202.219 106.074 202.09 106.8 201.913 107.5C201.726 108.2 201.488 108.875 201.213 109.528C200.922 110.177 200.627 110.82 200.274 111.432C199.589 112.667 198.806 113.839 197.867 114.892Z" fill="#1E2754"/>
<path d="M129.827 67.8698C129.64 67.8698 129.489 67.7245 129.484 67.5378L129.214 59.8244C129.209 59.6324 129.355 59.4716 129.546 59.4664C129.744 59.4613 129.899 59.6065 129.904 59.7984L130.174 67.5118C130.179 67.7038 130.034 67.8646 129.842 67.8698C129.832 67.8698 129.827 67.8698 129.827 67.8698Z" fill="#4E55A2"/>
<path d="M139.096 62.5373C139.081 62.5373 139.06 62.5373 139.044 62.5321C138.858 62.5061 138.728 62.3298 138.754 62.1378L139.558 56.7328C139.584 56.546 139.765 56.4163 139.952 56.4423C140.139 56.4682 140.268 56.6446 140.243 56.8365L139.438 62.2416C139.413 62.4128 139.262 62.5373 139.096 62.5373Z" fill="#4E55A2"/>
<path d="M150.319 62.724C150.299 62.724 150.278 62.724 150.257 62.7188C150.07 62.6877 149.946 62.5062 149.977 62.3194L151.108 56.0429C151.139 55.8561 151.32 55.7316 151.507 55.7628C151.694 55.7939 151.818 55.9754 151.787 56.1622L150.656 62.4387C150.631 62.6047 150.485 62.724 150.319 62.724Z" fill="#4E55A2"/>
<path d="M161.012 64.9234C160.965 64.9234 160.918 64.913 160.872 64.8923C160.695 64.8145 160.617 64.6122 160.695 64.4358L163.003 59.1241C163.081 58.9477 163.284 58.8699 163.46 58.9477C163.636 59.0255 163.714 59.2278 163.636 59.4042L161.328 64.7159C161.276 64.8456 161.146 64.9234 161.012 64.9234Z" fill="#4E55A2"/>
<path d="M171.469 72.2374C171.386 72.2374 171.298 72.2063 171.23 72.144C171.09 72.0143 171.085 71.7965 171.215 71.6564L175.183 67.4651C175.313 67.3251 175.53 67.3199 175.67 67.4496C175.811 67.5792 175.816 67.7971 175.686 67.9372L171.718 72.1284C171.656 72.2011 171.562 72.2374 171.469 72.2374Z" fill="#4E55A2"/>
<path d="M179.332 81.5069C179.238 81.5069 179.145 81.4706 179.072 81.3928C178.942 81.2527 178.958 81.0348 179.098 80.9052L183.414 77.0303C183.554 76.9006 183.772 76.9162 183.901 77.0562C184.031 77.1963 184.016 77.4142 183.876 77.5438L179.56 81.4187C179.498 81.4758 179.415 81.5069 179.332 81.5069Z" fill="#4E55A2"/>
<path d="M183.95 92.0526C183.846 92.0526 183.748 92.0059 183.68 91.9229C183.561 91.7725 183.587 91.5546 183.738 91.4353L188.92 87.3115C189.07 87.1921 189.288 87.2181 189.407 87.3685C189.526 87.5189 189.501 87.7368 189.35 87.8561L184.168 91.98C184.101 92.0266 184.023 92.0526 183.95 92.0526Z" fill="#4E55A2"/>
<path d="M185.126 106.447C185.033 106.447 184.939 106.411 184.872 106.333C184.742 106.193 184.753 105.975 184.893 105.845L191.989 99.3252C192.129 99.1955 192.347 99.2058 192.476 99.3459C192.606 99.486 192.596 99.7038 192.456 99.8335L185.359 106.354C185.292 106.416 185.209 106.447 185.126 106.447Z" fill="#4E55A2"/>
<path d="M197.275 98.4329C197.12 98.4329 196.98 98.3291 196.943 98.1735C196.923 98.0905 194.786 89.8221 193.302 86.938C185.718 72.1959 183.161 67.2265 168.663 59.0515C156.696 52.3081 144.205 53.1536 144.08 53.1639C143.888 53.1795 143.722 53.0343 143.712 52.8475C143.697 52.6556 143.842 52.4896 144.029 52.4792C144.158 52.4689 156.857 51.6078 169 58.4549C183.68 66.7285 186.258 71.7446 193.909 86.6268C195.429 89.5783 197.514 97.6652 197.602 98.0075C197.649 98.1943 197.54 98.381 197.353 98.4277C197.332 98.4329 197.307 98.4329 197.275 98.4329Z" fill="#1E2754"/>
<path d="M170.193 85.3921C169.156 86.4192 166.78 85.6982 164.887 83.7789C162.993 81.8648 160.057 78.6798 163.906 77.3934C165.525 76.8539 165.213 79.6862 167.112 81.6003C169.005 83.5195 171.231 84.365 170.193 85.3921Z" fill="#F4DED3"/>
<path d="M150.649 69.7786C150.28 70.8939 148.74 69.4674 146.053 69.1613C143.578 68.8812 141.089 69.2028 142.162 66.9516C142.665 65.8986 144.735 65.5666 147.075 66.3499C149.419 67.128 151.017 68.6634 150.649 69.7786Z" fill="#F4DED3"/>
<path d="M131.771 109.923C131.771 109.923 134.858 113.424 139.697 115.385C144.537 117.346 148.604 117.947 148.604 117.947C148.604 117.947 146.742 122.107 142.867 122.092C138.992 122.076 136.087 121.091 133.385 118.751C129.546 115.431 131.771 109.923 131.771 109.923Z" fill="#5B1A19"/>
<path d="M132.866 111.007C132.866 111.007 132.005 113.922 132.207 114.306C132.461 114.773 134.365 115.846 134.365 115.846L132.332 115.545C132.332 115.545 130.189 117.864 136.378 120.992C138.696 122.164 141.508 122.859 143.453 120.93C145.398 119 146.083 117.428 146.083 117.428C146.083 117.428 142.11 116.484 138.826 115.006C135.537 113.528 132.866 111.007 132.866 111.007Z" fill="white"/>
<path d="M135.04 115.945L134.941 116.624L139.102 118.487L135.04 115.945Z" fill="#F3D9CD"/>
<path d="M139.568 124.348C139.568 124.348 143.531 123.757 145.772 123.212C147.162 122.875 149.082 120.681 149.082 120.681C149.082 120.681 147.271 123.762 146.151 124.037C145.036 124.307 139.568 124.348 139.568 124.348Z" fill="#E08D80"/>
<path d="M133.568 90.2981C133.633 89.7924 132.594 89.2417 131.247 89.0682C129.901 88.8946 128.756 89.1639 128.691 89.6697C128.626 90.1755 129.665 90.7261 131.011 90.8997C132.358 91.0732 133.503 90.8039 133.568 90.2981Z" fill="white"/>
<path d="M157.126 106.503C157.282 106.036 156.186 105.249 154.678 104.745C153.17 104.242 151.82 104.212 151.664 104.68C151.508 105.147 152.604 105.934 154.112 106.438C155.621 106.941 156.97 106.971 157.126 106.503Z" fill="white"/>
<g opacity="0.45">
<path opacity="0.45" d="M63.5949 158.003C63.5016 158.003 63.403 157.987 63.3096 157.956C52.4891 154.45 50.3571 146.052 50.2689 145.694C50.1496 145.196 50.4557 144.692 50.9537 144.573C51.4516 144.454 51.9496 144.76 52.0689 145.258C52.1467 145.579 54.0867 153.023 63.875 156.193C64.3626 156.348 64.6272 156.872 64.4716 157.36C64.3523 157.754 63.984 158.003 63.5949 158.003Z" fill="#333333"/>
</g>
<g opacity="0.45">
<path opacity="0.45" d="M51.8568 160.525C51.7064 160.525 51.556 160.488 51.4159 160.411C42.857 155.768 43.8581 145.762 43.8685 145.658C43.9256 145.15 44.382 144.776 44.8904 144.839C45.3987 144.896 45.767 145.352 45.71 145.86C45.6685 146.234 44.8541 154.741 52.2978 158.777C52.749 159.02 52.915 159.586 52.6712 160.032C52.5001 160.348 52.1836 160.525 51.8568 160.525Z" fill="#333333"/>
</g>
<g opacity="0.45">
<path opacity="0.45" d="M64.5128 48.9567C64.2068 48.9567 63.8956 48.8374 63.6621 48.604L53.9361 38.8572C53.4692 38.3903 53.4692 37.6278 53.9361 37.161C54.4029 36.6941 55.1654 36.6941 55.6323 37.161L65.3584 46.9078C65.8252 47.3746 65.8252 48.1371 65.3584 48.604C65.1249 48.8426 64.8189 48.9567 64.5128 48.9567Z" fill="#333333"/>
</g>
<g opacity="0.45">
<path opacity="0.45" d="M59.3373 55.6741C59.2439 55.6741 59.1453 55.6638 59.0468 55.6378L47.2251 52.7122C46.5819 52.5514 46.1876 51.903 46.3484 51.2598C46.5092 50.6166 47.1576 50.2224 47.8009 50.3832L59.6226 53.3088C60.2658 53.4696 60.66 54.118 60.4992 54.7612C60.3643 55.311 59.8715 55.6741 59.3373 55.6741Z" fill="#333333"/>
</g>
<g opacity="0.45">
<path opacity="0.45" d="M72.0404 45.9481C71.4075 45.9481 70.8784 45.4502 70.8421 44.8121L70.4271 36.8601C70.3908 36.1961 70.8992 35.6359 71.5631 35.5996C72.2219 35.5685 72.7873 36.0716 72.8236 36.7356L73.2386 44.6876C73.2749 45.3516 72.7666 45.9118 72.1026 45.9481C72.0818 45.9481 72.0611 45.9481 72.0404 45.9481Z" fill="#333333"/>
</g>
</svg>
