<svg width="145" height="66" viewBox="0 0 145 66" fill="none" xmlns="http://www.w3.org/2000/svg">
<circle cx="72" cy="33" r="33" fill="#F69117"/>
<path d="M69.4033 53V48.5192C67.0283 48.3133 64.6533 47.5375 63.1333 46.4608L62.5 46.0175L64.2417 41.1408L65.3183 41.8692C66.9492 42.9617 69.0392 43.5792 71.0658 43.5792C73.5675 43.5792 75.2617 42.265 75.2617 40.3017C75.2617 38.5125 74.0108 37.2775 70.9392 36.0267C66.8542 34.4275 63.07 32.29 63.07 27.5083C63.07 23.6133 65.635 20.605 69.6883 19.6233V15H74.4383V19.3067C76.3858 19.4808 78.0958 20.0192 79.6317 20.9217L80.3758 21.3492L78.555 26.1625L77.5417 25.5767C76.8292 25.165 75.1667 24.215 72.5225 24.215C69.8467 24.215 68.8967 25.64 68.8967 26.97C68.8967 28.395 69.5933 29.3292 73.6942 31.0233C77.1458 32.4325 81.1042 34.7283 81.1042 39.985C81.1042 44.0067 78.365 47.2367 74.185 48.2658V53H69.4033Z" fill="white"/>
<path fill-rule="evenodd" clip-rule="evenodd" d="M130.5 8C122.496 8 116 14.4962 116 22.5C116 30.5038 122.496 37 130.5 37C138.504 37 145 30.5038 145 22.5C145 14.4962 138.514 8 130.5 8ZM135.28 26.001C135.28 26.0109 135.28 26.0109 135.28 26.001C135.28 26.1696 135.241 26.3382 135.181 26.487C135.052 26.8044 134.804 27.0523 134.487 27.1813C134.348 27.2408 134.189 27.2705 134.041 27.2705C134.021 27.2705 134.011 27.2804 134.001 27.2804H126.999C126.295 27.2804 125.72 26.7052 125.72 26.001C125.72 25.2969 126.295 24.7216 126.999 24.7216H130.907L126.096 19.9015C125.601 19.4056 125.601 18.5923 126.096 18.0865C126.592 17.5807 127.406 17.5807 127.911 18.0865L132.732 22.9066V18.999C132.732 18.2948 133.307 17.7196 134.011 17.7196C134.715 17.7196 135.29 18.2948 135.29 18.999V26.001H135.28Z" fill="#F69117"/>
<path fill-rule="evenodd" clip-rule="evenodd" d="M6.5 7C2.91211 7 0 9.91211 0 13.5C0 17.0879 2.91211 20 6.5 20C10.0879 20 13 17.0879 13 13.5C13 9.91211 10.0923 7 6.5 7ZM8.64295 15.0694C8.64295 15.0739 8.64295 15.0739 8.64295 15.0694C8.64295 15.145 8.62517 15.2206 8.5985 15.2873C8.5407 15.4295 8.42955 15.5407 8.28728 15.5985C8.22503 15.6252 8.1539 15.6385 8.08721 15.6385C8.07832 15.6385 8.07387 15.643 8.06943 15.643H4.93057C4.61491 15.643 4.35705 15.3851 4.35705 15.0694C4.35705 14.7538 4.61491 14.4959 4.93057 14.4959H6.68228L4.52599 12.3352C4.30369 12.1129 4.30369 11.7483 4.52599 11.5215C4.74829 11.2948 5.11286 11.2948 5.3396 11.5215L7.50034 13.6823V11.9306C7.50034 11.6149 7.75821 11.357 8.07387 11.357C8.38953 11.357 8.6474 11.6149 8.6474 11.9306V15.0694H8.64295Z" fill="#F69117"/>
<path fill-rule="evenodd" clip-rule="evenodd" d="M16.5 30C11.2562 30 7 34.2562 7 39.5C7 44.7438 11.2562 49 16.5 49C21.7438 49 26 44.7438 26 39.5C26 34.2562 21.7503 30 16.5 30ZM19.632 41.7938C19.632 41.8003 19.632 41.8003 19.632 41.7938C19.632 41.9042 19.606 42.0147 19.567 42.1122C19.4826 42.3201 19.3201 42.4826 19.1122 42.567C19.0212 42.606 18.9172 42.6255 18.8198 42.6255C18.8068 42.6255 18.8003 42.632 18.7938 42.632H14.2062C13.7449 42.632 13.368 42.2551 13.368 41.7938C13.368 41.3324 13.7449 40.9555 14.2062 40.9555H16.7664L13.6149 37.7975C13.29 37.4726 13.29 36.9398 13.6149 36.6084C13.9398 36.277 14.4726 36.277 14.804 36.6084L17.962 39.7664V37.2062C17.962 36.7449 18.3389 36.368 18.8003 36.368C19.2616 36.368 19.6385 36.7449 19.6385 37.2062V41.7938H19.632Z" fill="#F69117"/>
</svg>
