<svg width="144" height="67" viewBox="0 0 144 67" fill="none" xmlns="http://www.w3.org/2000/svg">
<circle cx="67.6862" cy="33.8425" r="29.198" fill="white"/>
<path d="M68.6132 0C50.4439 0 35.5781 14.8658 35.5781 33.0351C35.5781 51.2044 50.4439 66.0702 68.6132 66.0702C86.7825 66.0702 101.648 51.2044 101.648 33.0351C101.373 14.8658 86.7825 0 68.6132 0ZM71.0908 42.1197L64.7591 48.4514C63.1074 50.1032 60.905 50.9291 58.7027 50.9291C54.0227 50.9291 50.1686 47.075 50.1686 42.395C50.1686 40.1927 50.9945 37.9903 52.6462 36.3386L60.3544 28.9057C62.0062 27.2539 64.2085 26.4281 66.4109 26.4281C68.0626 26.4281 69.7144 26.9786 71.0908 27.8045C71.6414 28.0798 72.192 28.6304 72.4673 28.9057C73.0179 29.4563 73.2932 30.0069 73.2932 30.8327C73.2932 31.3833 73.0179 31.9339 72.4673 32.4845C71.6414 33.3104 69.9897 33.3104 69.1638 32.4845C67.7873 31.108 65.585 31.108 63.9332 32.4845L56.225 40.1927C54.8486 41.2938 54.8486 43.7715 56.225 45.1479C57.6015 46.5244 59.8038 46.5244 61.4556 45.1479L66.1356 40.468C66.4109 40.1927 66.6862 40.1927 66.6862 40.468C67.7873 41.0186 69.1638 41.2938 70.5402 41.2938H70.8155C71.0908 41.2938 71.3661 41.5691 71.3661 41.8444L71.0908 42.1197ZM84.0296 29.181L76.3214 36.8892C75.2202 37.9903 73.8438 38.8162 72.4673 39.0915H72.192H71.9167H71.3661C71.0908 39.0915 71.0908 39.0915 70.8155 39.0915H70.5402H69.9897C69.7144 39.0915 69.4391 39.0915 69.1638 39.0915C68.8885 39.0915 68.6132 39.0915 68.3379 38.8162H68.0626H67.7873C67.7873 38.8162 67.512 38.8162 67.512 38.5409C67.512 38.5409 67.2367 38.5409 67.2367 38.2656C66.4109 37.715 65.585 37.1645 64.7591 36.6139C64.2085 36.0633 63.9332 35.5127 63.9332 34.6868C63.9332 34.1362 64.2085 33.5857 64.7591 33.0351C65.585 32.2092 67.2367 32.2092 68.0626 33.0351C69.4391 34.4115 71.6414 34.4115 73.2932 33.0351L75.2202 31.108L81.0014 25.3269C82.3778 23.9504 82.3778 21.7481 81.0014 20.0963C79.0743 19.2705 76.872 19.2705 75.4955 20.6469L71.0908 25.0516C70.8155 25.3269 70.5402 25.3269 70.5402 25.0516C69.4391 24.501 68.0626 24.2257 66.6862 24.2257H66.4109C66.1356 24.2257 65.8603 23.9504 65.8603 23.9504C65.8603 23.6751 65.8603 23.3998 65.8603 23.3998L72.192 17.0681C75.4955 13.7646 80.7261 13.7646 84.0296 17.0681C87.3331 20.6469 87.3331 25.8775 84.0296 29.181Z" fill="#F69117"/>
<path fill-rule="evenodd" clip-rule="evenodd" d="M129.5 39C137.508 39 144 32.5081 144 24.5C144 16.4919 137.508 10 129.5 10C121.492 10 115 16.4919 115 24.5C115 32.5081 121.492 39 129.5 39ZM125.876 25.5988C124.857 25.5988 123.879 26.0039 123.158 26.7249C122.437 27.4459 122.032 28.4238 122.032 29.4435V30.9814C122.032 31.4061 122.376 31.7503 122.8 31.7503C123.225 31.7503 123.569 31.4061 123.569 30.9814V29.4435C123.569 28.8317 123.812 28.245 124.245 27.8124C124.678 27.3797 125.264 27.1367 125.876 27.1367H131.259C131.871 27.1367 132.457 27.3797 132.89 27.8124C133.323 28.245 133.566 28.8317 133.566 29.4435V30.9814C133.566 31.4061 133.91 31.7503 134.335 31.7503C134.759 31.7503 135.103 31.4061 135.103 30.9814V29.4435C135.103 28.4238 134.698 27.4459 133.977 26.7249C133.256 26.0039 132.278 25.5988 131.259 25.5988H125.876ZM128.568 17.9094C127.293 17.9094 126.261 18.9422 126.261 20.2162C126.261 21.4903 127.293 22.5231 128.568 22.5231C129.842 22.5231 130.874 21.4903 130.874 20.2162C130.874 18.9422 129.842 17.9094 128.568 17.9094ZM124.723 20.2162C124.723 18.0929 126.444 16.3715 128.568 16.3715C130.691 16.3715 132.412 18.0929 132.412 20.2162C132.412 22.3396 130.691 24.0609 128.568 24.0609C126.444 24.0609 124.723 22.3396 124.723 20.2162ZM140.261 22.2978C140.561 21.9976 140.561 21.5107 140.261 21.2104C139.961 20.9101 139.474 20.9101 139.173 21.2104L136.641 23.7424L135.647 22.7483C135.347 22.448 134.86 22.448 134.56 22.7483C134.259 23.0486 134.259 23.5354 134.56 23.8357L136.098 25.3736C136.398 25.6739 136.885 25.6739 137.185 25.3736L140.261 22.2978Z" fill="#F69117"/>
<path fill-rule="evenodd" clip-rule="evenodd" d="M6 22C9.31371 22 12 19.3137 12 16C12 12.6863 9.31371 10 6 10C2.68629 10 0 12.6863 0 16C0 19.3137 2.68629 22 6 22ZM4.50076 16.4548C4.07883 16.4548 3.67418 16.6225 3.37582 16.9208C3.07747 17.2192 2.90986 17.6238 2.90986 18.0458V18.6821C2.90986 18.8578 3.05231 19.0003 3.22804 19.0003C3.40376 19.0003 3.54622 18.8578 3.54622 18.6821V18.0458C3.54622 17.7926 3.64679 17.5498 3.8258 17.3708C4.00481 17.1918 4.2476 17.0912 4.50076 17.0912H6.72804C6.9812 17.0912 7.22399 17.1918 7.403 17.3708C7.58202 17.5498 7.68258 17.7926 7.68258 18.0458V18.6821C7.68258 18.8578 7.82504 19.0003 8.00076 19.0003C8.17649 19.0003 8.31895 18.8578 8.31895 18.6821V18.0458C8.31895 17.6238 8.15133 17.2192 7.85298 16.9208C7.55463 16.6225 7.14997 16.4548 6.72804 16.4548H4.50076ZM5.6144 13.273C5.08722 13.273 4.65986 13.7004 4.65986 14.2276C4.65986 14.7548 5.08722 15.1821 5.6144 15.1821C6.14158 15.1821 6.56895 14.7548 6.56895 14.2276C6.56895 13.7004 6.14158 13.273 5.6144 13.273ZM4.02349 14.2276C4.02349 13.3489 4.73577 12.6367 5.6144 12.6367C6.49304 12.6367 7.20531 13.3489 7.20531 14.2276C7.20531 15.1062 6.49304 15.8185 5.6144 15.8185C4.73577 15.8185 4.02349 15.1062 4.02349 14.2276ZM10.453 15.0889C10.5773 14.9647 10.5773 14.7632 10.453 14.6389C10.3288 14.5147 10.1273 14.5147 10.003 14.6389L8.95531 15.6867L8.54394 15.2753C8.41968 15.1511 8.21822 15.1511 8.09396 15.2753C7.9697 15.3996 7.9697 15.601 8.09396 15.7253L8.73032 16.3617C8.85458 16.4859 9.05604 16.4859 9.1803 16.3617L10.453 15.0889Z" fill="#F69117"/>
<path fill-rule="evenodd" clip-rule="evenodd" d="M15 50C19.9706 50 24 45.9706 24 41C24 36.0294 19.9706 32 15 32C10.0294 32 6 36.0294 6 41C6 45.9706 10.0294 50 15 50ZM12.7516 41.6818C12.1187 41.6818 11.5117 41.9332 11.0642 42.3808C10.6167 42.8283 10.3652 43.4353 10.3652 44.0682V45.0227C10.3652 45.2863 10.5789 45.5 10.8425 45.5C11.1061 45.5 11.3198 45.2863 11.3198 45.0227V44.0682C11.3198 43.6884 11.4706 43.3243 11.7391 43.0557C12.0077 42.7872 12.3719 42.6364 12.7516 42.6364H16.0925C16.4722 42.6364 16.8364 42.7872 17.105 43.0557C17.3735 43.3243 17.5243 43.6884 17.5243 44.0682V45.0227C17.5243 45.2863 17.738 45.5 18.0016 45.5C18.2652 45.5 18.4789 45.2863 18.4789 45.0227V44.0682C18.4789 43.4353 18.2275 42.8283 17.7799 42.3808C17.3324 41.9332 16.7254 41.6818 16.0925 41.6818H12.7516ZM14.4221 36.9091C13.6313 36.9091 12.9902 37.5501 12.9902 38.3409C12.9902 39.1317 13.6313 39.7727 14.4221 39.7727C15.2128 39.7727 15.8539 39.1317 15.8539 38.3409C15.8539 37.5501 15.2128 36.9091 14.4221 36.9091ZM12.0357 38.3409C12.0357 37.023 13.1041 35.9545 14.4221 35.9545C15.74 35.9545 16.8084 37.023 16.8084 38.3409C16.8084 39.6589 15.74 40.7273 14.4221 40.7273C13.1041 40.7273 12.0357 39.6589 12.0357 38.3409ZM21.68 39.6329C21.8664 39.4466 21.8664 39.1444 21.68 38.958C21.4936 38.7716 21.1914 38.7716 21.005 38.958L19.4334 40.5296L18.8164 39.9125C18.63 39.7261 18.3278 39.7261 18.1414 39.9125C17.955 40.0989 17.955 40.4011 18.1414 40.5875L19.0959 41.542C19.2823 41.7284 19.5845 41.7284 19.7709 41.542L21.68 39.6329Z" fill="#F69117"/>
</svg>
