<svg width="144" height="77" viewBox="0 0 144 77" fill="none" xmlns="http://www.w3.org/2000/svg">
<circle cx="67.6862" cy="39.8425" r="29.198" fill="white"/>
<path d="M68.6132 6C50.4439 6 35.5781 20.8658 35.5781 39.0351C35.5781 57.2044 50.4439 72.0702 68.6132 72.0702C86.7825 72.0702 101.648 57.2044 101.648 39.0351C101.373 20.8658 86.7825 6 68.6132 6ZM71.0908 48.1197L64.7591 54.4514C63.1074 56.1032 60.905 56.9291 58.7027 56.9291C54.0227 56.9291 50.1686 53.075 50.1686 48.395C50.1686 46.1927 50.9945 43.9903 52.6462 42.3386L60.3544 34.9057C62.0062 33.2539 64.2085 32.4281 66.4109 32.4281C68.0626 32.4281 69.7144 32.9786 71.0908 33.8045C71.6414 34.0798 72.192 34.6304 72.4673 34.9057C73.0179 35.4563 73.2932 36.0069 73.2932 36.8327C73.2932 37.3833 73.0179 37.9339 72.4673 38.4845C71.6414 39.3104 69.9897 39.3104 69.1638 38.4845C67.7873 37.108 65.585 37.108 63.9332 38.4845L56.225 46.1927C54.8486 47.2938 54.8486 49.7715 56.225 51.1479C57.6015 52.5244 59.8038 52.5244 61.4556 51.1479L66.1356 46.468C66.4109 46.1927 66.6862 46.1927 66.6862 46.468C67.7873 47.0186 69.1638 47.2938 70.5402 47.2938H70.8155C71.0908 47.2938 71.3661 47.5691 71.3661 47.8444L71.0908 48.1197ZM84.0296 35.181L76.3214 42.8892C75.2202 43.9903 73.8438 44.8162 72.4673 45.0915H72.192H71.9167H71.3661C71.0908 45.0915 71.0908 45.0915 70.8155 45.0915H70.5402H69.9897C69.7144 45.0915 69.4391 45.0915 69.1638 45.0915C68.8885 45.0915 68.6132 45.0915 68.3379 44.8162H68.0626H67.7873C67.7873 44.8162 67.512 44.8162 67.512 44.5409C67.512 44.5409 67.2367 44.5409 67.2367 44.2656C66.4109 43.715 65.585 43.1645 64.7591 42.6139C64.2085 42.0633 63.9332 41.5127 63.9332 40.6868C63.9332 40.1362 64.2085 39.5857 64.7591 39.0351C65.585 38.2092 67.2367 38.2092 68.0626 39.0351C69.4391 40.4115 71.6414 40.4115 73.2932 39.0351L75.2202 37.108L81.0014 31.3269C82.3778 29.9504 82.3778 27.7481 81.0014 26.0963C79.0743 25.2705 76.872 25.2705 75.4955 26.6469L71.0908 31.0516C70.8155 31.3269 70.5402 31.3269 70.5402 31.0516C69.4391 30.501 68.0626 30.2257 66.6862 30.2257H66.4109C66.1356 30.2257 65.8603 29.9504 65.8603 29.9504C65.8603 29.6751 65.8603 29.3998 65.8603 29.3998L72.192 23.0681C75.4955 19.7646 80.7261 19.7646 84.0296 23.0681C87.3331 26.6469 87.3331 31.8775 84.0296 35.181Z" fill="#F69117"/>
<path d="M129.599 15.7412C121.679 15.7412 115.199 22.2212 115.199 30.1411C115.199 38.0611 121.679 44.541 129.599 44.541C137.519 44.541 143.999 38.0611 143.999 30.1411C143.879 22.2212 137.519 15.7412 129.599 15.7412ZM130.679 34.1011L127.919 36.8611C127.199 37.5811 126.239 37.9411 125.279 37.9411C123.239 37.9411 121.559 36.2611 121.559 34.2211C121.559 33.2611 121.919 32.3011 122.639 31.5811L125.999 28.3411C126.719 27.6211 127.679 27.2611 128.639 27.2611C129.359 27.2611 130.079 27.5011 130.679 27.8611C130.919 27.9811 131.159 28.2211 131.279 28.3411C131.519 28.5811 131.639 28.8211 131.639 29.1811C131.639 29.4211 131.519 29.6611 131.279 29.9011C130.919 30.2611 130.199 30.2611 129.839 29.9011C129.239 29.3011 128.279 29.3011 127.559 29.9011L124.199 33.2611C123.599 33.7411 123.599 34.8211 124.199 35.4211C124.799 36.0211 125.759 36.0211 126.479 35.4211L128.519 33.3811C128.639 33.2611 128.759 33.2611 128.759 33.3811C129.239 33.6211 129.839 33.7411 130.439 33.7411H130.559C130.679 33.7411 130.799 33.8611 130.799 33.9811L130.679 34.1011ZM136.319 28.4611L132.959 31.8211C132.479 32.3011 131.879 32.6611 131.279 32.7811H131.159H131.039H130.799C130.679 32.7811 130.679 32.7811 130.559 32.7811H130.439H130.199C130.079 32.7811 129.959 32.7811 129.839 32.7811C129.719 32.7811 129.599 32.7811 129.479 32.6611H129.359H129.239C129.239 32.6611 129.119 32.6611 129.119 32.5411C129.119 32.5411 128.999 32.5411 128.999 32.4211C128.639 32.1811 128.279 31.9411 127.919 31.7011C127.679 31.4611 127.559 31.2211 127.559 30.8611C127.559 30.6211 127.679 30.3811 127.919 30.1411C128.279 29.7811 128.999 29.7811 129.359 30.1411C129.959 30.7411 130.919 30.7411 131.639 30.1411L132.479 29.3011L134.999 26.7811C135.599 26.1811 135.599 25.2211 134.999 24.5012C134.159 24.1412 133.199 24.1412 132.599 24.7412L130.679 26.6611C130.559 26.7811 130.439 26.7811 130.439 26.6611C129.959 26.4211 129.359 26.3011 128.759 26.3011H128.639C128.519 26.3011 128.399 26.1811 128.399 26.1811C128.399 26.0611 128.399 25.9411 128.399 25.9411L131.159 23.1812C132.599 21.7412 134.879 21.7412 136.319 23.1812C137.759 24.7412 137.759 27.0211 136.319 28.4611Z" fill="#F69117"/>
<path d="M15.2473 37.7646C10.1226 37.7646 5.92969 41.9576 5.92969 47.0822C5.92969 52.2069 10.1226 56.3998 15.2473 56.3998C20.3719 56.3998 24.5649 52.2069 24.5649 47.0822C24.4872 41.9576 20.3719 37.7646 15.2473 37.7646ZM15.9461 49.6446L14.1602 51.4304C13.6943 51.8963 13.0732 52.1293 12.452 52.1293C11.132 52.1293 10.045 51.0422 10.045 49.7222C10.045 49.101 10.2779 48.4799 10.7438 48.014L12.9179 45.9175C13.3838 45.4517 14.0049 45.2187 14.6261 45.2187C15.092 45.2187 15.5579 45.374 15.9461 45.6069C16.1014 45.6846 16.2567 45.8399 16.3343 45.9175C16.4896 46.0728 16.5673 46.2281 16.5673 46.4611C16.5673 46.6164 16.4896 46.7716 16.3343 46.9269C16.1014 47.1599 15.6355 47.1599 15.4026 46.9269C15.0143 46.5387 14.3932 46.5387 13.9273 46.9269L11.7532 49.101C11.3649 49.4116 11.3649 50.1104 11.7532 50.4987C12.1414 50.8869 12.7626 50.8869 13.2285 50.4987L14.5485 49.1787C14.6261 49.101 14.7037 49.101 14.7037 49.1787C15.0143 49.334 15.4026 49.4116 15.7908 49.4116H15.8684C15.9461 49.4116 16.0237 49.4893 16.0237 49.5669L15.9461 49.6446ZM19.5955 45.9952L17.4214 48.1693C17.1108 48.4799 16.7226 48.7128 16.3343 48.7905H16.2567H16.179H16.0237C15.9461 48.7905 15.9461 48.7905 15.8684 48.7905H15.7908H15.6355C15.5579 48.7905 15.4802 48.7905 15.4026 48.7905C15.3249 48.7905 15.2473 48.7905 15.1696 48.7128H15.092H15.0143C15.0143 48.7128 14.9367 48.7128 14.9367 48.6352C14.9367 48.6352 14.859 48.6352 14.859 48.5575C14.6261 48.4022 14.3932 48.2469 14.1602 48.0916C14.0049 47.9363 13.9273 47.7811 13.9273 47.5481C13.9273 47.3928 14.0049 47.2375 14.1602 47.0822C14.3932 46.8493 14.859 46.8493 15.092 47.0822C15.4802 47.4705 16.1014 47.4705 16.5673 47.0822L17.1108 46.5387L18.7414 44.9081C19.1296 44.5199 19.1296 43.8987 18.7414 43.4328C18.1978 43.1999 17.5767 43.1999 17.1884 43.5881L15.9461 44.8305C15.8684 44.9081 15.7908 44.9081 15.7908 44.8305C15.4802 44.6752 15.092 44.5975 14.7037 44.5975H14.6261C14.5485 44.5975 14.4708 44.5199 14.4708 44.5199C14.4708 44.4423 14.4708 44.3646 14.4708 44.3646L16.2567 42.5787C17.1884 41.647 18.6637 41.647 19.5955 42.5787C20.5272 43.5881 20.5272 45.0634 19.5955 45.9952Z" fill="#F69117"/>
<path d="M6.14114 15.7412C2.76351 15.7412 0 18.5047 0 21.8823C0 25.26 2.76351 28.0235 6.14114 28.0235C9.51876 28.0235 12.2823 25.26 12.2823 21.8823C12.2311 18.5047 9.51876 15.7412 6.14114 15.7412ZM6.60172 23.5712L5.42467 24.7482C5.11761 25.0553 4.7082 25.2088 4.2988 25.2088C3.4288 25.2088 2.71234 24.4923 2.71234 23.6223C2.71234 23.2129 2.86586 22.8035 3.17292 22.4965L4.60585 21.1147C4.91291 20.8076 5.32232 20.6541 5.73173 20.6541C6.03878 20.6541 6.34584 20.7565 6.60172 20.91C6.70407 20.9612 6.80643 21.0635 6.8576 21.1147C6.95995 21.2171 7.01113 21.3194 7.01113 21.4729C7.01113 21.5753 6.95995 21.6776 6.8576 21.78C6.70407 21.9335 6.39702 21.9335 6.24349 21.78C5.98761 21.5241 5.5782 21.5241 5.27114 21.78L3.83821 23.2129C3.58233 23.4176 3.58233 23.8782 3.83821 24.1341C4.09409 24.39 4.5035 24.39 4.81056 24.1341L5.68055 23.2641C5.73173 23.2129 5.7829 23.2129 5.7829 23.2641C5.98761 23.3665 6.24349 23.4176 6.49937 23.4176H6.55055C6.60172 23.4176 6.6529 23.4688 6.6529 23.52L6.60172 23.5712ZM9.007 21.1659L7.57407 22.5988C7.36936 22.8035 7.11348 22.957 6.8576 23.0082H6.80643H6.75525H6.6529C6.60172 23.0082 6.60172 23.0082 6.55055 23.0082H6.49937H6.39702C6.34584 23.0082 6.29466 23.0082 6.24349 23.0082C6.19231 23.0082 6.14114 23.0082 6.08996 22.957H6.03878H5.98761C5.98761 22.957 5.93643 22.957 5.93643 22.9059C5.93643 22.9059 5.88526 22.9059 5.88526 22.8547C5.73173 22.7523 5.5782 22.65 5.42467 22.5476C5.32232 22.4453 5.27114 22.3429 5.27114 22.1894C5.27114 22.0871 5.32232 21.9847 5.42467 21.8823C5.5782 21.7288 5.88526 21.7288 6.03878 21.8823C6.29466 22.1382 6.70407 22.1382 7.01113 21.8823L7.36936 21.5241L8.44406 20.4494C8.69994 20.1935 8.69994 19.7841 8.44406 19.4771C8.08583 19.3235 7.67642 19.3235 7.42054 19.5794L6.60172 20.3982C6.55055 20.4494 6.49937 20.4494 6.49937 20.3982C6.29466 20.2959 6.03878 20.2447 5.7829 20.2447H5.73173C5.68055 20.2447 5.62937 20.1935 5.62937 20.1935C5.62937 20.1424 5.62937 20.0912 5.62937 20.0912L6.80643 18.9141C7.42054 18.3 8.39289 18.3 9.007 18.9141C9.62111 19.5794 9.62111 20.5518 9.007 21.1659Z" fill="#F69117"/>
<circle cx="70" cy="40" r="27" fill="#F69117"/>
<path fill-rule="evenodd" clip-rule="evenodd" d="M77.5 44.25C75.5575 44.25 73.8075 45.0375 72.53 46.315L63.2025 40.89C63.3775 40.2775 63.5 39.665 63.5 39C63.5 38.335 63.3775 37.7225 63.2025 37.11L72.53 31.6675C73.79 32.945 75.5575 33.75 77.5 33.75C81.3675 33.75 84.5 30.6175 84.5 26.75C84.5 22.8825 81.3675 19.75 77.5 19.75C73.6325 19.75 70.5 22.8825 70.5 26.75C70.5 27.415 70.6225 28.0275 70.7975 28.64L61.47 34.0825C60.21 32.805 58.4425 32 56.5 32C52.6325 32 49.5 35.1325 49.5 39C49.5 42.8675 52.6325 46 56.5 46C58.4425 46 60.21 45.2125 61.47 43.9175L70.7975 49.3425C70.6225 49.955 70.5 50.5675 70.5 51.2325C70.5 55.1 73.6325 58.2325 77.5 58.2325C81.3675 58.2325 84.5 55.1 84.5 51.2325C84.5 47.3825 81.3675 44.25 77.5 44.25ZM77.5 23.25C79.425 23.25 81 24.825 81 26.75C81 28.675 79.425 30.25 77.5 30.25C75.575 30.25 74 28.675 74 26.75C74 24.825 75.5575 23.25 77.5 23.25ZM56.5 42.5C54.575 42.5 53 40.925 53 39C53 37.075 54.575 35.5 56.5 35.5C58.425 35.5 60 37.075 60 39C60 40.925 58.425 42.5 56.5 42.5ZM77.5 54.75C75.575 54.75 74 53.175 74 51.25C74 50.6025 74.1926 50.025 74.4901 49.5L74.5075 49.4825C74.5075 49.4825 74.5075 49.465 74.525 49.4475C75.1375 48.4325 76.24 47.7325 77.5175 47.7325C79.4425 47.7325 81.0175 49.3075 81.0175 51.2325C81.0175 53.1575 79.425 54.75 77.5 54.75Z" fill="white"/>
</svg>
