<svg width="1469" height="200" viewBox="0 0 1469 200" fill="none" xmlns="http://www.w3.org/2000/svg">
<mask id="mask0" mask-type="alpha" maskUnits="userSpaceOnUse" x="0" y="0" width="1469" height="200">
<path d="M0 0H1469V200H0V0Z" fill="#C4C4C4"/>
</mask>
<g mask="url(#mask0)">
<g opacity="0.65">
<path d="M-25.0547 180.538C39.2672 123.552 183.448 53.1075 226.502 119.239C395.508 378.857 689.535 84.5791 949.523 -125.828" stroke="#4E55A2" stroke-opacity="0.25"/>
<path d="M-25.0586 312.063C-0.120327 240.686 81.2725 20.7513 207.291 4.50325C364.816 -15.8126 255.473 149.352 376.626 187.323C495.38 224.537 1029 60.1875 1350 -125.875" stroke="#4E55A2" stroke-opacity="0.25"/>
<path d="M-29 67.1251C37.9475 11.5528 176.567 -83.3591 195.473 -18.359C219.103 62.8968 236.823 304.11 419.945 298.185C566.441 293.444 774.77 162.191 1032.5 -124.25" stroke="#FF542E" stroke-opacity="0.25"/>
</g>
</g>
</svg>
