<svg width="554" height="405" viewBox="0 0 554 405" fill="none" xmlns="http://www.w3.org/2000/svg"><path d="M263.744 331.954c70.894.705 128.396-5.71 128.436-14.328.039-8.619-57.399-16.177-128.293-16.882-70.893-.705-128.396 5.71-128.435 14.328-.04 8.619 57.399 16.177 128.292 16.882z" fill="#000"/><g filter="url(#filter0_f)"><ellipse cx="276.887" cy="216.841" rx="173.321" ry="56.531" transform="rotate(-12.39 276.887 216.841)" fill="#F79319" fill-opacity=".75"/></g><path d="M258.309 318.855c72.436 0 131.157-10.442 131.157-23.322 0-12.881-58.721-23.323-131.157-23.323s-131.157 10.442-131.157 23.323c0 12.88 58.721 23.322 131.157 23.322z" fill="#FDCE81"/><path d="M363.658 238.575s-9.361 16.077-9.361 26.866v14.173l-22.318-3.49s-8.779-26.972-2.009-37.761l7.985-12.428s3.491-.741 12.64 3.808c9.097 4.601 13.063 8.832 13.063 8.832z" fill="#FDCE81"/><path d="M288.718 283.739l-45.958 16.183-4.072-17.558 50.03 1.375z" fill="url(#paint0_linear)"/><path d="M281.754 271.411c3.718-2.147 1.274-13.34-5.458-25.001-6.733-11.661-15.205-19.373-18.923-17.226-3.718 2.146-1.275 13.34 5.458 25 6.732 11.661 15.204 19.373 18.923 17.227z" fill="#E5E5E5"/><path opacity=".36" d="M297.232 271.152a9.58 9.58 0 01-2.592-3.86c-.582-1.481-.793-3.068-.846-4.601-.106-3.173.582-6.294 1.64-9.255 2.115-5.924 5.553-11.318 9.731-16.025 2.115-2.327 4.389-4.548 6.875-6.505 2.485-1.957 5.13-3.702 7.985-5.024 2.856-1.375 5.924-2.38 9.097-2.644 1.586-.106 3.226-.053 4.76.37 1.586.37 3.014 1.163 4.23 2.221 1.164 1.111 2.116 2.486 2.645 3.967.582 1.48.793 3.12.846 4.707.053 3.173-.635 6.346-1.692 9.307a41.989 41.989 0 01-4.178 8.462c-1.693 2.644-3.597 5.183-5.712 7.51-4.231 4.654-9.255 8.673-14.914 11.37-2.856 1.323-5.87 2.327-9.043 2.592-1.587.106-3.174.053-4.654-.37-1.587-.423-3.015-1.164-4.178-2.222zm0 0a9.41 9.41 0 004.125 2.169c1.533.423 3.12.476 4.654.37 3.12-.264 6.187-1.269 8.99-2.591a41.072 41.072 0 007.933-5.025 52.502 52.502 0 006.822-6.452c4.178-4.654 7.616-10.048 9.679-15.918 1.004-2.962 1.692-6.029 1.639-9.15-.053-1.533-.264-3.12-.846-4.548a9.66 9.66 0 00-2.539-3.755c-1.163-1.005-2.538-1.745-4.019-2.115-1.481-.423-3.067-.476-4.601-.37-3.12.264-6.135 1.216-8.938 2.538-5.659 2.697-10.63 6.664-14.861 11.318a55.671 55.671 0 00-5.711 7.457c-1.693 2.644-3.121 5.447-4.178 8.409-1.058 2.961-1.746 6.081-1.64 9.202.053 1.586.265 3.12.846 4.601a10.275 10.275 0 002.645 3.86z" fill="#020203"/><path d="M298.874 260.046s-5.394 6.77-12.164 9.467c-6.769 2.697-18.933 1.375-18.933 1.375s9.467 12.164 21.631 10.842c12.163-1.375 30.303-13.222 30.303-13.222l-20.837-8.462z" fill="#E5E5E5"/><path d="M252.014 230.853s-2.538 2.803-5.87 3.332c-1.322.212-7.034 1.798-3.226 3.702 3.861 1.851 10.26-5.5 10.26-5.5l-1.164-1.534z" fill="#020203"/><path d="M265.08 232.07s-8.092-5.818-12.164-7.14c-4.072-1.375-8.092 0-8.092 0s8.568 6.293 11.741 14.649c3.173 8.356 8.567 4.284 8.567 4.284V232.07h-.052z" fill="#E5E5E5"/><path opacity=".36" d="M338.061 224.877l4.866 14.174 1.216 3.543c.423 1.163.794 2.38 1.27 3.543.476 1.164.846 2.38 1.163 3.597.317 1.216.476 2.485.37 3.807-.158 1.27-.74 2.539-1.692 3.438s-2.063 1.534-3.226 2.01l-6.928 2.908-13.856 5.818-.265.106-.105-.265-13.01-32.948-.106-.211.211-.053 30.092-9.467zm0 0l-29.933 9.837.106-.264 13.115 32.947-.317-.158 13.856-5.765 6.928-2.908c1.164-.476 2.222-1.058 3.121-1.904.899-.847 1.428-1.957 1.586-3.174.159-1.216 0-2.432-.317-3.649-.265-1.216-.688-2.38-1.111-3.543-.476-1.163-.846-2.38-1.216-3.543l-1.164-3.544-4.654-14.332z" fill="#020203"/><path d="M344.142 278.292s3.226-24.539 2.644-26.813c-.582-2.274-1.957-6.347-1.957-6.347l-27.183 13.539-7.298 15.549 28.399 2.697" fill="#E5E5E5"/><path d="M275.551 245.185s4.389 2.698 7.086-1.375c2.698-4.072 6.77-8.091 6.77-8.091v32.472l-2.697 4.072-4.231-1.322-6.928-25.756z" fill="#E6E6E6"/><path d="M252.863 230.324s-4.072 4.073-5.394 4.073c-1.375 0-6.77 2.697-2.698 4.072 4.073 1.375 9.467-6.77 9.467-6.77l-1.375-1.375z" fill="#E5E5E5"/><path d="M248.841 225.142s-6.769-1.428-10.841-4.231c-4.072-2.803-5.395-2.803-5.395-1.428 0 1.428 0 5.606 5.395 7.034 5.447 1.427 10.841-1.375 10.841-1.375z" fill="#020203"/><path d="M235.728 225.406s-.423 3.596.9 4.918c1.375 1.375 6.769 0 8.091 0 1.375 0 5.394-1.375 5.394-1.375l-3.384-3.279s-4.813 1.323-6.823.952c-1.903-.37-4.178-1.216-4.178-1.216zm34.747 46.804s-4.073-2.697-4.073 2.697 0 6.77 2.698 5.394c2.697-1.375 1.375-2.697 1.375-2.697l5.394.423-5.394-5.817z" fill="#020203"/><path d="M258.309 318.855c-64.679 0-119.681-12.005-130.469-22.952-1.322 1.322-.688 6.399-.688 7.774 0 12.904 58.704 23.323 131.157 23.323 72.454 0 131.157-10.419 131.157-23.323 0-1.375.635-6.452-.687-7.774-10.789 10.947-65.843 22.952-130.47 22.952z" fill="#EFB67D"/><path d="M158.25 295.215l-14.597-65.737c-.846-3.755 2.01-7.298 5.871-7.298h71.924c3.385 0 6.241 2.38 6.929 5.712l10.63 53.89 4.495 22.9-85.252-9.467z" fill="url(#paint1_linear)"/><path d="M242.445 299.605l46.275-15.866v4.02l-45.957 16.236-.318-4.39z" fill="#737373"/><path d="M265.078 287.124l-18.933-1.375m8.091 5.394h-9.466" stroke="#fff" stroke-miterlimit="10" stroke-linecap="round" stroke-linejoin="round"/><path d="M341.974 192.511l-12.005 31.044s13.539 2.697 21.63 6.769c9.731 4.866 15.76 11.953 15.76 11.953 7.14 3.596 15.813-.423 17.664-8.198l4.707-19.409c1.904-7.827-4.019-15.39-12.111-15.39l-35.645-6.769z" fill="#FDCE81"/><path opacity=".3" d="M356.994 239.791c-.528 1.428-1.057 2.856-1.533 4.284s-1.005 2.856-1.428 4.284c-.899 2.855-1.798 5.764-2.486 8.726a67.023 67.023 0 00-.952 4.442c-.264 1.481-.423 2.962-.634 4.495a42.628 42.628 0 00-.265 4.496c0 .74 0 1.533.106 2.274.106.74.159 1.481.423 2.221-.264-.687-.423-1.481-.529-2.221a16.41 16.41 0 01-.158-2.274c-.053-1.534.052-3.015.158-4.548a56.374 56.374 0 011.534-8.938c.74-2.909 1.586-5.818 2.591-8.726.952-2.909 2.01-5.712 3.173-8.515zm5.396-4.072a22.599 22.599 0 00-2.168-2.856 38.068 38.068 0 00-2.486-2.539c-1.798-1.586-3.755-2.961-5.976-3.86a78.915 78.915 0 00-6.769-2.38 84.543 84.543 0 00-3.438-1.005c-1.164-.317-2.327-.635-3.491-.899 2.327.476 4.654 1.005 6.981 1.692a79.938 79.938 0 016.823 2.327c2.221.952 4.231 2.327 5.976 3.967 1.745 1.639 3.332 3.49 4.548 5.553z" fill="#020203"/><path opacity=".28" d="M344.832 239.791c1.164.37 2.327.793 3.438 1.216 1.11.476 2.221.952 3.331 1.481a65.51 65.51 0 01-3.437-1.216 91.515 91.515 0 01-3.332-1.481zm4.072 9.467c-.476-.159-.952-.318-1.428-.582-.423-.212-.899-.476-1.269-.793.476.158.952.317 1.428.581.423.212.846.476 1.269.794z" fill="#020203"/><path d="M179.669 266.498a8.462 8.462 0 100-16.923 8.461 8.461 0 00-8.462 8.462 8.461 8.461 0 008.462 8.461z" fill="#EA5146"/><path d="M192.36 267.186a8.463 8.463 0 10-.001-16.925 8.463 8.463 0 00.001 16.925z" fill="#4E56A2"/><path d="M279.039 223.502s8.991 18.933 7.669 33.847c-1.376 14.861 14.173 21.049 14.173 21.049l45.27-21.049s1.111-7.457-4.178-20.625c-5.288-13.169-2.591-14.491-14.755-14.491-12.164 0-48.179 1.269-48.179 1.269z" fill="#E5E5E5"/><path d="M286.074 228.262s3.967 25.703 3.279 31.784c-.687 6.082-.74 7.457-.74 7.457s8.197-9.466 10.894-24.38c.741-3.967 1.375-12.164 1.375-12.164l-14.808-2.697z" fill="#4E4D4D"/><path d="M150.105 226.252h68.964" stroke="#fff" stroke-miterlimit="10" stroke-linecap="round" stroke-linejoin="round"/><path d="M385.145 224.43c3.064-10.119 2.806-19.153-.576-20.177-3.383-1.025-8.609 6.349-11.673 16.469-3.064 10.119-2.806 19.153.576 20.177 3.383 1.025 8.609-6.349 11.673-16.469z" fill="#EFB67D"/><path d="M375.717 134.336s40.299 30.516 26.602 53.204c-13.698 22.688-14.438-5.871-14.438-5.871l-25.279.476 13.115-47.809z" fill="#4E56A2"/><path d="M357.418 192.141c-7.086 28.135-36.808 44.953-66.477 37.496-29.616-7.457-47.439-36.174-40.828-64.468 6.716-28.611 36.808-44.953 66.477-37.496 29.617 7.457 47.915 36.28 40.828 64.468z" fill="#EA5146"/><path d="M283.917 177.98c1.831-8.15-1.258-15.785-6.901-17.053-5.643-1.268-11.701 4.312-13.533 12.463-1.831 8.15 1.259 15.785 6.902 17.053 5.643 1.267 11.701-4.312 13.532-12.463z" fill="#fff"/><path d="M333.09 126.404s12.587-24.751 29.034-44.742c16.448-19.99 40.987-41.78 40.987-41.78s11.053 16.712-.688 53.15c-11.688 36.439-26.39 74.623-31.731 85.94-5.342 11.318-7.14 16.977-7.14 16.977s4.76-27.713-7.457-44.742c-12.216-17.029-23.005-24.803-23.005-24.803z" fill="#EA5146"/><path d="M275.97 180.009c.871-3.876-1.103-7.62-4.409-8.362-3.306-.743-6.692 1.797-7.563 5.673-.87 3.875 1.104 7.619 4.41 8.362 3.305.743 6.691-1.797 7.562-5.673z" fill="#4E56A2"/><path d="M330.386 191.701c2.278-9.064-1.8-17.901-9.108-19.737-7.308-1.837-15.079 4.023-17.357 13.087-2.278 9.064 1.8 17.901 9.108 19.738 7.308 1.836 15.079-4.023 17.357-13.088z" fill="#fff"/><path d="M312.414 199.492a8.039 8.039 0 10-.001-16.077 8.039 8.039 0 00.001 16.077z" fill="#4E56A2"/><path d="M252.441 153.164s22.424 4.707 39.136 9.361c16.712 4.654 53.996 24.75 53.996 24.75" stroke="#4E56A2" stroke-width="5" stroke-miterlimit="10" stroke-linecap="round" stroke-linejoin="round"/><path d="M257.625 154.169s-2.698 15.125 0 23.904c4.336 14.121 17.822 18.457 26.601 11.423 5.923-4.759 8.673-12.481 11.053-20.519.635-2.169 4.39-.582 3.861 1.692-2.962 12.851-9.995 28.611 11.159 36.174 19.409 6.981 29.986-22.265 29.986-22.265" stroke="#4E56A2" stroke-width="5" stroke-miterlimit="10" stroke-linecap="round" stroke-linejoin="round"/><path d="M327.061 226.94s-18.827-19.674-42.309-25.597c-23.481-5.923-34.164-13.116-40.563-19.25-6.399-6.135-7.721-5.342-5.87.793s3.702 16.818 19.726 29.933c16.025 13.116 28.4 15.654 28.4 15.654s15.284 5.078 24.01 3.755c8.726-1.322 16.606-5.288 16.606-5.288z" fill="#F5A7A4"/><path d="M243.926 197.165s-.317.687 4.76-1.428 5.764-5.87 5.764-5.87-7.615-4.813-10.313-7.775c-2.644-2.961-5.341-5.87-7.351-4.706-.952.581 0 6.081 1.058 9.36 1.058 3.279 6.082 10.419 6.082 10.419z" fill="#5C1B1A"/><path opacity=".36" d="M400.046 49.666s-29.299 28.876-39.823 44.424c-10.525 15.549-23.164 35.328-23.164 35.328l9.995 12.428 2.856-5.817-.053 9.202 5.024.053-1.851 2.115 2.433 2.169-2.327 1.851 8.885 15.812s7.351 7.14 16.606-21.947c9.361-29.035 21.419-95.618 21.419-95.618z" fill="#F5A7A4"/><path d="M309.345 125.875s-14.385-28.559-22.371-41.939c-7.986-13.38-18.616-43.26-20.255-45.958-1.64-2.697-9.361 14.65-12.322 40.035-2.962 25.332.476 47.809 1.798 56.059 1.322 8.303 3.966 11.212 3.966 11.212s18.986-12.27 25.121-14.121c6.188-1.851 24.063-5.288 24.063-5.288z" fill="#EA5146"/><path opacity=".36" d="M289.462 127.408s-19.515-56.852-22.424-67.8c-2.908-10.947-3.173-14.437-3.173-14.437s-7.51 25.332-7.774 44.583c-.265 19.25 5.5 53.996 5.5 53.996l14.068-11.106-3.914-1.533 5.077-2.116-.529-2.38 5.342 1.322 7.827-.529z" fill="#F5A7A4"/><path d="M274.177 179.395a3.279 3.279 0 100-6.558 3.279 3.279 0 000 6.558zm42.837 14.914a4.971 4.971 0 10.002-9.942 4.971 4.971 0 00-.002 9.942z" fill="#fff"/><path d="M293.954 159.034l-4.548 9.044 13.909 3.49-.793-10.418-8.568-2.116z" fill="#EF7B2E"/><path d="M383.241 193.275c8.665-2.823 13.246-12.608 10.233-21.856-3.014-9.248-12.48-14.456-21.145-11.633-8.664 2.823-13.246 12.609-10.232 21.856 3.013 9.248 12.479 14.456 21.144 11.633zM258.785 130.74s8.832-30.832 45.694-32.789c29.88-1.586 42.467 4.39 42.467 4.39l-14.755 26.813s-14.174-8.515-29.087-7.722c-14.914.794-44.319 9.308-44.319 9.308z" fill="#4E56A2"/><path d="M320.609 124.077s9.15-7.669 27.977 1.586c18.827 9.255 29.881 36.386 29.881 36.386l-6.241 9.678-51.617-47.65z" fill="#4E56A2"/><path d="M256.829 149.568s-9.308-1.217-8.462-8.991c.793-7.721 23.27-24.803 49.131-23.957 25.861.846 68.857 24.116 74.146 57.222 5.289 33.107-13.909 19.198-13.909 19.198s.423-15.972-6.664-27.765c-7.033-11.794-24.856-38.66-54.419-36.386-28.453 2.221-39.823 20.679-39.823 20.679zm124.705 39.241c.317-2.168.687-4.337 1.005-6.452.105-1.058.264-2.115.37-3.226.106-1.058.158-2.115.106-3.173 0-1.058-.106-2.116-.318-3.068-.053-.264-.106-.476-.158-.74l-.265-.74c-.159-.529-.37-1.005-.529-1.534-.37-1.005-.846-1.957-1.322-2.909-.529-.952-1.058-1.904-1.798-2.697.952.582 1.692 1.428 2.433 2.327a19.998 19.998 0 011.798 2.856c.264.476.529 1.005.74 1.534l.318.793c.105.264.211.582.264.846.317 1.111.423 2.274.423 3.438 0 1.11-.053 2.274-.211 3.384a32.878 32.878 0 01-.635 3.279c-.529 2.01-1.269 4.125-2.221 6.082z" fill="#212A53"/><path d="M255.031 133.649l3.596 11.582m10.842-20.467l1.005 8.515m16.237-14.385l.899 9.995m18.405-10.101l-1.269 8.991m23.163-1.217l-4.284 7.986m20.731 3.12l-4.918 7.669m17.505 5.659l-6.134 8.408m15.814 8.515l-8.092 12.851" stroke="#4E56A2" stroke-width="2" stroke-miterlimit="10" stroke-linecap="round"/><path d="M274.125 116.99s18.722-6.664 40.035-1.269c25.12 6.293 30.938 12.322 49.236 32.207 3.544 3.861 10.26 15.654 10.26 15.654" stroke="#212A53" stroke-width="2" stroke-miterlimit="10" stroke-linecap="round"/><path d="M337.516 164.351c.47-1.87-4.844-4.816-11.869-6.582-7.024-1.765-13.1-1.68-13.57.189-.47 1.87 4.844 4.816 11.869 6.582 7.025 1.765 13.101 1.68 13.57-.189zm-48.881-15.604c.193-1.86-3.865-3.806-9.065-4.347-5.2-.542-9.573.526-9.766 2.385-.194 1.859 3.865 3.806 9.065 4.347 5.2.542 9.572-.526 9.766-2.385z" fill="#F3DDD3"/><path d="M295.171 214.935s-4.707 1.269-7.933.317-5.87-.846-5.87-.846-8.515-.741-4.073 4.918c4.443 5.659 9.308 7.087 13.01 6.399 3.702-.687 9.044-13.062 9.044-13.062l-4.178 2.274z" fill="#66140F"/><path d="M293.109 215.834s-3.068 2.009-6.77 2.644c-3.702.687-5.976-3.491-5.976-3.491l4.02-.37 8.726 1.217z" fill="#fff"/><path d="M289.883 265.864l10.207 14.966 11-5.658-20.097-13.222-1.11 3.914z" fill="#B3B3B3"/><path d="M293.691 268.402a22.172 22.172 0 012.01 1.798c.635.635 1.216 1.323 1.798 2.01.582.688 1.111 1.428 1.64 2.168a15.017 15.017 0 011.375 2.327 21.874 21.874 0 01-2.01-1.798c-.635-.634-1.216-1.322-1.798-2.009a20.628 20.628 0 01-1.587-2.169 17.008 17.008 0 01-1.428-2.327zm3.438.847c.846.37 1.639.846 2.38 1.322.74.476 1.481 1.004 2.168 1.586a30.097 30.097 0 012.063 1.746c.634.634 1.269 1.269 1.851 1.956-.847-.37-1.64-.846-2.38-1.322a20.76 20.76 0 01-2.169-1.586 30.086 30.086 0 01-2.062-1.746 16.377 16.377 0 01-1.851-1.956z" fill="#4E4D4D"/><path d="M278.14 245.185l-1.956 25.756s4.442.317 6.981-.37c2.538-.688 5.711-2.275 5.711-2.275l-6.875-25.914-3.861 2.803z" fill="#B3B3B3"/><path d="M279.887 247.671c.159 1.534.212 3.12.318 4.654.105 1.534.105 3.12.158 4.654.053 1.534.053 3.12.053 4.654v2.327c0 .793-.053 1.534-.053 2.327l-.158-2.327-.106-2.327c-.106-1.534-.106-3.12-.159-4.654-.053-1.534-.053-3.12-.053-4.654a68.127 68.127 0 010-4.654zm2.644 4.76c.635 1.533 1.111 3.12 1.587 4.707.423 1.586.846 3.173 1.058 4.812-.635-1.534-1.111-3.12-1.587-4.707-.423-1.586-.793-3.173-1.058-4.812z" fill="#4E4D4D"/><path d="M312.676 272.104s7.351-1.057 12.164-9.043c4.812-7.986 6.399-12.746 6.399-12.746" fill="#B3B3B3"/><path opacity=".67" d="M435.958 117.836a113.6 113.6 0 01-9.255 45.218c-6.081 14.279-15.125 27.236-26.284 38.025-11.159 10.788-24.38 19.462-38.871 25.332a124.776 124.776 0 01-45.641 9.149c-7.827.053-15.654-.581-23.375-1.957a121.005 121.005 0 01-22.635-6.346c-14.65-5.712-28.241-14.173-39.665-25.015-2.908-2.697-5.553-5.553-8.197-8.515l-1.904-2.274-.952-1.11-.899-1.164-1.798-2.327-1.745-2.38-.846-1.216-.794-1.216-1.639-2.486-1.534-2.538c-.529-.847-1.005-1.693-1.481-2.539l-1.428-2.591c-.476-.847-.899-1.746-1.375-2.645-.899-1.745-1.692-3.543-2.538-5.341-3.173-7.246-5.553-14.808-7.193-22.53-1.586-7.721-2.38-15.654-2.432-23.534 0-15.813 3.331-31.626 9.625-46.116 6.293-14.491 15.707-27.607 27.13-38.395C241.656 22.483 255.3 14.02 269.897 8.309c14.649-5.658 30.356-8.461 46.01-8.303a124.782 124.782 0 0145.641 9.15 122.506 122.506 0 0138.871 25.332c11.159 10.789 20.203 23.799 26.284 38.078 6.135 14.279 9.308 29.775 9.255 45.27zm0 0c-.052-15.495-3.226-30.991-9.413-45.164-6.188-14.227-15.39-27.025-26.602-37.655-11.212-10.63-24.539-18.933-38.924-24.486-14.332-5.553-29.775-8.25-45.112-8.145-15.336.159-30.62 3.226-44.741 8.99-14.173 5.765-27.131 14.28-38.078 24.857-10.947 10.577-19.779 23.323-25.755 37.285-6.029 13.962-9.097 29.087-9.097 44.265 0 7.563.794 15.179 2.274 22.583 1.587 7.404 3.808 14.702 6.823 21.683 6.029 13.909 14.755 26.707 25.755 37.284 10.895 10.63 23.905 19.092 38.078 24.857a117.952 117.952 0 0021.948 6.611 127.324 127.324 0 0022.846 2.379c15.337.159 30.727-2.538 45.112-8.144 14.332-5.553 27.712-13.856 38.924-24.486s20.414-23.429 26.602-37.655a113.497 113.497 0 009.36-45.059z" fill="#F79319"/><path d="M277.77 227.046l2.644 11.634s13.221 4.866 33.582 3.226c20.361-1.639 18.616-15.495 18.616-15.495s-19.991 8.25-35.804 5.923c-15.812-2.327-19.038-5.288-19.038-5.288z" fill="#4E4D4D"/><path d="M277.77 224.93l2.644 11.635s13.221 4.865 33.582 3.226c20.361-1.639 18.616-15.496 18.616-15.496s-19.991 8.251-35.804 5.924c-15.812-2.327-19.038-5.289-19.038-5.289z" fill="#B3B3B3"/><path d="M262 28s-49.915 29.893-53.487 81.302C204.991 160.712 220.762 173 220.762 173s-16.843-64.701 16.383-105.327C257.356 42.996 262 28 262 28z" fill="#F79319"/><path d="M390.418 182.41s31.943-18.246 32.26-48.496c.318-30.251-5.13-38.924-5.13-38.924s-1.48 46.275-10.894 63.304c-9.414 17.029-16.236 24.116-16.236 24.116z" fill="#C4C4C4"/><path opacity=".54" d="M436.516 122.836c0 63.546-53.019 115.114-118.551 115.114-14.005 0-27.483-2.352-39.966-6.687-45.818-15.935-78.585-58.496-78.585-108.427 0-63.546 53.019-115.113 118.551-115.113 65.532 0 118.551 51.567 118.551 115.113z" stroke="#919292" stroke-width="3"/><rect x="131.5" y="105.5" width="38" height="13.82" rx="4.5" stroke="#F79319"/><path d="M138.945 115.92v-6.654h1.879c.579 0 1.09.128 1.535.384.445.255.788.62 1.029 1.092.243.472.367 1.014.37 1.627v.425c0 .628-.122 1.178-.366 1.65-.24.472-.586.835-1.037 1.088-.448.252-.971.382-1.568.388h-1.842zm.878-5.932v5.214h.923c.676 0 1.202-.21 1.577-.63.378-.421.566-1.019.566-1.796v-.389c0-.755-.178-1.342-.534-1.759-.354-.421-.856-.634-1.508-.64h-1.024zm7.184 6.023c-.67 0-1.215-.219-1.636-.658-.42-.442-.631-1.031-.631-1.768v-.156c0-.49.093-.928.279-1.311.189-.387.451-.689.786-.905.339-.22.704-.329 1.097-.329.643 0 1.143.211 1.499.635.357.423.535 1.03.535 1.819v.352h-3.35c.012.487.154.882.425 1.183.274.299.622.448 1.042.448.299 0 .552-.061.759-.183.207-.121.388-.283.544-.484l.516.402c-.414.637-1.036.955-1.865.955zm-.105-4.433c-.341 0-.627.125-.859.375-.232.247-.375.594-.43 1.042h2.478v-.064c-.025-.43-.141-.762-.348-.996-.207-.238-.487-.357-.841-.357zm3.812-.603l.023.548c.362-.426.851-.639 1.467-.639.691 0 1.162.265 1.412.795a1.88 1.88 0 01.64-.576c.265-.146.577-.219.937-.219 1.084 0 1.636.574 1.654 1.723v3.313h-.845v-3.263c0-.354-.081-.617-.243-.791-.161-.177-.432-.265-.813-.265-.314 0-.574.095-.782.283-.207.186-.327.438-.361.755v3.281h-.85v-3.24c0-.719-.352-1.079-1.055-1.079-.555 0-.934.236-1.138.708v3.611h-.846v-4.945h.8zm7.189 2.427c0-.485.094-.92.283-1.307.192-.387.457-.686.796-.896.341-.21.729-.315 1.165-.315.673 0 1.217.233 1.632.699.417.466.626 1.086.626 1.86v.059c0 .482-.093.914-.279 1.298a2.077 2.077 0 01-.791.891 2.17 2.17 0 01-1.179.32c-.67 0-1.214-.233-1.631-.699-.415-.466-.622-1.083-.622-1.851v-.059zm.85.1c0 .549.126.989.379 1.321.256.332.598.498 1.024.498.43 0 .771-.167 1.024-.502.253-.339.379-.811.379-1.417 0-.543-.129-.981-.388-1.316a1.218 1.218 0 00-1.024-.508c-.417 0-.754.166-1.01.498-.256.332-.384.808-.384 1.426z" fill="#F79319"/><rect x="48.5" y="159.5" width="50" height="18.38" rx="4.5" stroke="#F79319"/><path d="M58.39 173.28v-8.702h2.457c.757 0 1.426.167 2.008.502.582.335 1.03.811 1.345 1.429.319.617.48 1.326.484 2.127v.556c0 .821-.16 1.54-.478 2.158a3.322 3.322 0 01-1.357 1.422c-.586.331-1.269.5-2.05.508h-2.408zm1.148-7.758v6.82h1.207c.885 0 1.572-.275 2.062-.825.494-.55.741-1.333.741-2.349v-.508c0-.988-.233-1.755-.699-2.301-.462-.55-1.12-.829-1.972-.837h-1.339zm9.395 7.878c-.876 0-1.59-.287-2.14-.861-.55-.578-.824-1.349-.824-2.313v-.203c0-.642.121-1.213.365-1.716.246-.506.59-.9 1.027-1.183.443-.287.92-.43 1.435-.43.84 0 1.494.277 1.96.831.466.553.7 1.346.7 2.378v.46h-4.381c.016.638.2 1.154.555 1.548.359.391.813.586 1.363.586.39 0 .721-.08.992-.239.271-.159.508-.371.711-.634l.676.526c-.542.833-1.355 1.25-2.439 1.25zm-.137-5.798c-.446 0-.821.164-1.124.49-.303.323-.49.777-.562 1.363h3.24v-.084c-.032-.561-.184-.996-.454-1.303-.271-.31-.638-.466-1.1-.466zm4.984-.789l.03.718c.474-.558 1.114-.837 1.919-.837.904 0 1.52.346 1.846 1.04.215-.311.495-.562.837-.753.347-.192.755-.287 1.225-.287 1.419 0 2.14.751 2.164 2.253v4.333h-1.106v-4.267c0-.462-.105-.807-.317-1.034-.21-.231-.565-.347-1.063-.347-.41 0-.751.124-1.022.371-.271.243-.429.571-.473.986v4.291h-1.11v-4.237c0-.941-.46-1.411-1.38-1.411-.726 0-1.222.309-1.489.927v4.721h-1.106v-6.467h1.046zm9.401 3.174c0-.634.124-1.203.37-1.709a2.816 2.816 0 011.04-1.172 2.845 2.845 0 011.525-.412c.88 0 1.592.305 2.133.914.546.61.82 1.421.82 2.433v.077c0 .63-.122 1.196-.365 1.698a2.723 2.723 0 01-1.034 1.165c-.447.279-.96.419-1.542.419-.877 0-1.588-.305-2.134-.915-.542-.609-.813-1.416-.813-2.42v-.078zm1.112.131c0 .718.165 1.293.496 1.728.335.434.781.651 1.339.651.562 0 1.008-.219 1.339-.657.33-.443.496-1.06.496-1.853 0-.709-.17-1.283-.508-1.721a1.594 1.594 0 00-1.34-.664c-.545 0-.985.217-1.32.652-.335.434-.502 1.056-.502 1.864z" fill="#F79319"/><rect x="106" y="180" width="66" height="25" rx="5" fill="#F79319"/><path d="M121.718 197v-9.953h2.81c.866 0 1.631.191 2.297.574a3.868 3.868 0 011.538 1.634c.364.706.549 1.517.553 2.433v.636c0 .939-.182 1.762-.546 2.468a3.806 3.806 0 01-1.552 1.627c-.67.378-1.452.572-2.345.581h-2.755zm1.313-8.873v7.8h1.38c1.012 0 1.798-.315 2.359-.944.565-.629.848-1.524.848-2.686v-.581c0-1.13-.267-2.008-.8-2.632-.529-.629-1.281-.948-2.256-.957h-1.531zm10.746 9.01c-1.003 0-1.819-.328-2.448-.985-.628-.66-.943-1.542-.943-2.645v-.233c0-.733.139-1.387.417-1.962a3.295 3.295 0 011.176-1.353 2.96 2.96 0 011.641-.492c.961 0 1.708.317 2.242.95.533.633.799 1.54.799 2.721v.526h-5.01c.018.729.23 1.319.635 1.771.411.446.93.669 1.559.669.447 0 .825-.091 1.135-.273.31-.182.581-.424.813-.725l.773.602c-.62.952-1.55 1.429-2.789 1.429zm-.157-6.631c-.511 0-.939.187-1.286.56-.346.37-.56.889-.642 1.559h3.705v-.096c-.037-.642-.21-1.139-.52-1.49-.31-.355-.729-.533-1.257-.533zm5.701-.902l.034.82c.542-.638 1.274-.957 2.194-.957 1.035 0 1.739.396 2.112 1.189.247-.355.566-.642.958-.861.396-.219.863-.328 1.401-.328 1.622 0 2.447.859 2.475 2.577V197h-1.265v-4.881c0-.529-.121-.923-.362-1.182-.242-.265-.648-.397-1.217-.397-.47 0-.859.141-1.169.424-.31.278-.49.654-.54 1.128V197h-1.272v-4.847c0-1.075-.526-1.613-1.579-1.613-.829 0-1.397.353-1.702 1.06v5.4h-1.265v-7.396h1.197zm10.753 3.629c0-.724.141-1.376.423-1.955.288-.578.684-1.025 1.19-1.34.51-.314 1.091-.471 1.743-.471 1.007 0 1.821.348 2.44 1.046.625.697.937 1.624.937 2.782v.089c0 .72-.139 1.367-.417 1.941a3.11 3.11 0 01-1.183 1.333c-.51.319-1.098.479-1.763.479-1.003 0-1.816-.349-2.441-1.046-.62-.697-.929-1.62-.929-2.769v-.089zm1.271.151c0 .82.189 1.479.567 1.975.383.497.894.745 1.532.745.642 0 1.153-.25 1.531-.751.378-.506.567-1.213.567-2.12 0-.811-.193-1.467-.581-1.968-.383-.506-.893-.759-1.531-.759-.624 0-1.128.248-1.511.745s-.574 1.208-.574 2.133z" fill="#DFFCEE"/><defs><linearGradient id="paint0_linear" x1="238.689" y1="291.155" x2="288.716" y2="291.155" gradientUnits="userSpaceOnUse"><stop stop-color="#fff"/><stop offset=".307" stop-color="#CECECE"/><stop offset=".615" stop-color="#A4A5A5"/><stop offset=".856" stop-color="#8A8B8B"/><stop offset="1" stop-color="#808181"/></linearGradient><linearGradient id="paint1_linear" x1="145.035" y1="279.976" x2="240.081" y2="249.118" gradientUnits="userSpaceOnUse"><stop stop-color="#fff"/><stop offset=".307" stop-color="#CECECE"/><stop offset=".615" stop-color="#A4A5A5"/><stop offset=".856" stop-color="#8A8B8B"/><stop offset="1" stop-color="#808181"/></linearGradient><filter id="filter0_f" x=".473" y="29.437" width="552.828" height="374.807" filterUnits="userSpaceOnUse" color-interpolation-filters="sRGB"><feFlood flood-opacity="0" result="BackgroundImageFix"/><feBlend in="SourceGraphic" in2="BackgroundImageFix" result="shape"/><feGaussianBlur stdDeviation="47.5" result="effect1_foregroundBlur"/></filter></defs></svg>