<svg width="81" height="15" viewBox="0 0 81 15" fill="none" xmlns="http://www.w3.org/2000/svg">
<path d="M49.0106 11.5211H42.9671L41.8372 14.3029H37.6855L43.9918 0H47.9858L54.3184 14.3029H50.1142L49.0106 11.5211ZM47.8281 8.52926L45.9888 3.96283L44.1495 8.52926H47.8281Z" fill="white"/>
<path d="M55.4746 0H59.5211V11.1012H66.3529V14.3029H55.4746V0Z" fill="white"/>
<path d="M77.8885 0.656097C78.8345 1.076 79.5702 1.70585 80.0957 2.49317C80.6213 3.28049 80.884 4.22527 80.884 5.30127C80.884 6.37726 80.6213 7.32204 80.0957 8.10936C79.5702 8.89668 78.8345 9.50029 77.8885 9.94643C76.9426 10.3663 75.8127 10.6025 74.5252 10.6025H72.029V14.3292H67.9824V0H74.5252C75.7864 0 76.9163 0.209951 77.8885 0.656097ZM76.128 6.82341C76.5485 6.456 76.7587 5.95736 76.7587 5.27502C76.7587 4.61892 76.5485 4.09405 76.128 3.72663C75.7076 3.35922 75.077 3.17551 74.2362 3.17551H71.9764V7.37453H74.2362C75.077 7.37453 75.7076 7.19082 76.128 6.82341Z" fill="white"/>
<path d="M9.92853 1.1246L15.7439 10.8799C16.6435 12.3881 15.5512 14.2814 13.8162 14.2814L2.28177 14.3456C0.514659 14.3456 -0.577735 12.4523 0.321884 10.9441L6.00876 1.15669C6.87625 -0.351527 9.02891 -0.351527 9.92853 1.1246Z" fill="white"/>
<path d="M19.3545 2.42681C19.3545 1.0876 20.4401 0.00195312 21.7794 0.00195312H31.2584C32.5976 0.00195312 33.6832 1.0876 33.6832 2.42681V11.9058C33.6832 13.245 32.5976 14.3307 31.2584 14.3307H21.7794C20.4401 14.3307 19.3545 13.245 19.3545 11.9058V2.42681Z" fill="white"/>
</svg>
