<svg width="81" height="15" viewBox="0 0 81 15" fill="none" xmlns="http://www.w3.org/2000/svg">
<path d="M49.0096 11.5211H42.9661L41.8362 14.3029H37.6846L43.9908 0H47.9848L54.3174 14.3029H50.1132L49.0096 11.5211ZM47.8272 8.52926L45.9878 3.96283L44.1485 8.52926H47.8272Z" fill="black"/>
<path d="M55.4736 0H59.5202V11.1012H66.352V14.3029H55.4736V0Z" fill="black"/>
<path d="M77.8876 0.656097C78.8335 1.076 79.5692 1.70585 80.0948 2.49317C80.6203 3.28049 80.883 4.22527 80.883 5.30127C80.883 6.37726 80.6203 7.32204 80.0948 8.10936C79.5692 8.89668 78.8335 9.50029 77.8876 9.94643C76.9416 10.3663 75.8117 10.6025 74.5242 10.6025H72.028V14.3292H67.9814V0H74.5242C75.7855 0 76.9153 0.209951 77.8876 0.656097ZM76.1271 6.82341C76.5475 6.456 76.7577 5.95736 76.7577 5.27502C76.7577 4.61892 76.5475 4.09405 76.1271 3.72663C75.7066 3.35922 75.076 3.17551 74.2352 3.17551H71.9754V7.37453H74.2352C75.076 7.37453 75.7066 7.19082 76.1271 6.82341Z" fill="black"/>
<path d="M9.92853 1.1246L15.7439 10.8799C16.6435 12.3881 15.5512 14.2814 13.8162 14.2814L2.28177 14.3456C0.514659 14.3456 -0.577735 12.4523 0.321884 10.9441L6.00876 1.15669C6.87625 -0.351527 9.02891 -0.351527 9.92853 1.1246Z" fill="#4E55A2"/>
<path d="M19.3545 2.42681C19.3545 1.0876 20.4401 0.00195312 21.7794 0.00195312H31.2584C32.5976 0.00195312 33.6832 1.0876 33.6832 2.42681V11.9058C33.6832 13.245 32.5976 14.3307 31.2584 14.3307H21.7794C20.4401 14.3307 19.3545 13.245 19.3545 11.9058V2.42681Z" fill="#EA5045"/>
</svg>
