<svg width="31" height="31" viewBox="0 0 31 31" fill="none" xmlns="http://www.w3.org/2000/svg">
<circle cx="15.5" cy="15.5" r="15.5" fill="#FFD500"/>
<path d="M14.3409 25.0314C14.3092 24.9957 14.2947 24.9732 14.2749 24.9574C14.0172 24.7393 13.7186 24.6178 13.387 24.5728C12.9207 24.5094 12.4755 24.6032 12.0382 24.7499C11.6114 24.894 11.1794 25.0235 10.7342 25.1001C10.2203 25.1887 9.70765 25.2151 9.19901 25.0684C8.69433 24.923 8.29006 24.6296 7.97827 24.212C7.75764 23.916 7.68498 23.5724 7.69026 23.2077C7.69555 22.835 7.77746 22.4768 7.89504 22.1253C7.98884 21.8412 8.09717 21.561 8.1989 21.2795C8.21211 21.2452 8.224 21.2095 8.23722 21.1685C8.18437 21.146 8.13813 21.1619 8.09189 21.1698C7.62024 21.2412 7.15123 21.2386 6.68883 21.109C5.92125 20.8936 5.42582 20.3914 5.17612 19.6421C5.11139 19.4465 5.07704 19.2417 5.03212 19.0408C5.02419 19.0078 5.02815 18.9734 5.02683 18.9324C5.06647 18.9219 5.10082 18.9126 5.14441 18.9021C5.13781 18.8624 5.13252 18.8228 5.1246 18.7752C5.15763 18.7659 5.18933 18.7554 5.22104 18.7461C5.51698 18.6681 5.81952 18.6457 6.12338 18.6721C6.90418 18.7395 7.51191 19.1056 7.94392 19.7611C8.11567 20.0214 8.24118 20.3042 8.34159 20.5989C8.35083 20.6254 8.36008 20.6505 8.36933 20.6769C8.37197 20.6822 8.37858 20.6861 8.38783 20.6941C8.39575 20.6861 8.40896 20.6769 8.41161 20.6663C8.55693 20.1417 8.5926 19.6144 8.42482 19.0884C8.24382 18.5201 7.85937 18.1303 7.3428 17.8567C7.05743 17.7047 6.76678 17.5607 6.48934 17.3955C6.11017 17.1721 5.76667 16.9012 5.48131 16.5642C5.21708 16.2537 5.03872 15.9021 4.95681 15.5004C4.8749 15.0973 4.95549 14.7352 5.19462 14.4048C5.38618 14.1392 5.62663 13.9225 5.88293 13.7242C6.27664 13.4203 6.70072 13.1626 7.12349 12.9035C7.1552 12.8837 7.1869 12.8626 7.21729 12.8401C7.22125 12.8375 7.22258 12.8282 7.22786 12.815C7.18823 12.7925 7.14727 12.7674 7.10631 12.745C6.68223 12.5044 6.30834 12.2031 6.01901 11.8067C5.72704 11.4062 5.57511 10.9595 5.5936 10.4626C5.60814 10.0635 5.72704 9.69086 5.90936 9.33801C5.95824 9.24418 6.01241 9.15299 6.06393 9.05784C6.10885 9.07898 6.14188 9.09484 6.18151 9.11335C6.20133 9.07766 6.21983 9.04595 6.24096 9.01026C6.2555 9.01159 6.27399 9.00894 6.2872 9.01555C6.96363 9.33272 7.47888 9.80584 7.72725 10.5287C7.85673 10.904 7.87522 11.2899 7.81973 11.6811C7.77878 11.9652 7.70215 12.2401 7.60042 12.5084C7.58985 12.5362 7.58325 12.5652 7.57004 12.6075C7.5991 12.5983 7.61496 12.5956 7.62685 12.5877C7.84219 12.445 8.04829 12.2877 8.22929 12.1014C8.51201 11.8106 8.65206 11.4657 8.65206 11.0573C8.65206 10.686 8.58071 10.3318 8.43142 9.9935C8.28213 9.6565 8.1236 9.32347 7.97167 8.9878C7.84087 8.6997 7.71536 8.40764 7.64534 8.09707C7.59646 7.88298 7.57268 7.66889 7.63477 7.45348C7.65327 7.39137 7.67441 7.32793 7.70612 7.27111C7.83955 7.03191 7.99545 6.80989 8.18965 6.61562C8.48295 6.32356 8.83437 6.1544 9.24789 6.10682C9.54515 6.07246 9.83976 6.09757 10.1317 6.1425C10.6774 6.22708 11.2058 6.3817 11.7343 6.53236C11.7581 6.53897 11.7805 6.54558 11.8043 6.55086C11.8136 6.55351 11.8241 6.55218 11.8413 6.55351C11.8413 6.52972 11.8453 6.50593 11.8413 6.48478C11.7686 6.14118 11.7435 5.79362 11.7752 5.44605C11.8611 4.48793 12.3447 3.8179 13.2496 3.47298C13.4412 3.40029 13.646 3.35932 13.8442 3.30514C13.8719 3.29721 13.9036 3.30117 13.934 3.29985C13.9485 3.34214 13.9591 3.3765 13.9736 3.41747C14.0146 3.4069 14.0503 3.39765 14.0991 3.38443C14.1216 3.46373 14.1467 3.5417 14.1652 3.61967C14.2854 4.14961 14.2762 4.67294 14.078 5.18438C13.9076 5.62578 13.6169 5.97202 13.2378 6.24823C13.0171 6.40946 12.7767 6.53633 12.5243 6.64073C12.4847 6.65659 12.4464 6.67509 12.3922 6.69888C12.42 6.71606 12.4292 6.72663 12.4411 6.72927C12.8269 6.81385 13.2126 6.82707 13.5931 6.70284C13.9631 6.58126 14.2497 6.34602 14.477 6.03546C14.7095 5.71697 14.8601 5.35883 14.9698 4.98351C15.0781 4.61612 15.1481 4.2408 15.1825 3.85887C15.1997 3.67385 15.2102 3.48751 15.2248 3.3025C15.2261 3.27871 15.2314 3.25624 15.2353 3.22849C15.2763 3.2232 15.3119 3.21792 15.3555 3.21263C15.3622 3.17827 15.3688 3.14259 15.3767 3.09766C15.4454 3.09766 15.5167 3.09766 15.5947 3.09766C15.6039 3.13334 15.6145 3.17166 15.6251 3.21263C15.6647 3.21792 15.7004 3.22188 15.7453 3.22717C15.7532 3.31835 15.7625 3.4069 15.7664 3.49544C15.7902 3.93023 15.851 4.35841 15.9567 4.78131C16.0518 5.16059 16.1839 5.52534 16.3887 5.86101C16.5697 6.15704 16.7969 6.40814 17.1034 6.57729C17.443 6.76495 17.8089 6.8231 18.192 6.78213C18.3043 6.77024 18.4166 6.75042 18.5289 6.73191C18.5448 6.72927 18.5593 6.72134 18.5976 6.70548C18.5488 6.68302 18.521 6.66848 18.4919 6.65659C18.1987 6.535 17.9186 6.38699 17.6676 6.19008C17.0228 5.68261 16.7216 5.01522 16.7441 4.19851C16.7507 3.95666 16.7863 3.71878 16.8537 3.48619C16.8617 3.45976 16.8696 3.43333 16.8788 3.40822C16.8815 3.40293 16.8881 3.39765 16.8973 3.3884C16.929 3.39765 16.9647 3.4069 17.0083 3.41879C17.0215 3.38179 17.0334 3.34743 17.0506 3.3025C17.0717 3.3025 17.0981 3.29853 17.1246 3.3025C17.5302 3.38047 17.9172 3.50734 18.2621 3.74257C18.7522 4.0756 19.0402 4.54079 19.1591 5.11698C19.2503 5.55574 19.2305 5.99317 19.1499 6.43192C19.142 6.47157 19.138 6.51122 19.1314 6.56276C19.1789 6.55086 19.212 6.54425 19.2437 6.535C19.6968 6.40681 20.15 6.27598 20.6124 6.18612C20.9268 6.12532 21.2439 6.08171 21.5663 6.09493C22.0353 6.11343 22.4461 6.27334 22.783 6.60769C23.001 6.8231 23.1754 7.07023 23.3128 7.34247C23.3551 7.42573 23.367 7.52617 23.3762 7.62132C23.4 7.85523 23.3524 8.08122 23.2837 8.30324C23.1873 8.6138 23.0499 8.90586 22.9151 9.20057C22.7817 9.49131 22.6469 9.78205 22.5201 10.0754C22.3986 10.353 22.3431 10.6463 22.3286 10.949C22.3074 11.4076 22.4488 11.8027 22.7791 12.1265C22.9495 12.2943 23.1371 12.4384 23.3339 12.5732C23.3485 12.5824 23.3643 12.5903 23.3789 12.5969C23.3841 12.5996 23.3908 12.5956 23.4079 12.593C23.396 12.5573 23.3855 12.5229 23.3723 12.4886C23.2573 12.1846 23.1728 11.8714 23.145 11.5476C23.0763 10.7441 23.3287 10.0609 23.9298 9.5151C24.1398 9.32347 24.375 9.16753 24.6326 9.04595C24.6657 9.03009 24.7 9.01819 24.7383 9.00366C24.7608 9.04462 24.778 9.07634 24.7978 9.11467C24.8348 9.09881 24.8691 9.08559 24.9259 9.0618C24.9299 9.06973 24.9339 9.08824 24.9431 9.10277C25.1677 9.47545 25.3328 9.87191 25.3791 10.308C25.4346 10.8433 25.3011 11.3335 24.9907 11.7736C24.6921 12.1965 24.2997 12.5097 23.8532 12.7621C23.8201 12.7806 23.7884 12.7991 23.7422 12.8256C23.7858 12.856 23.8188 12.8784 23.8518 12.9009C24.2244 13.1427 24.6009 13.3793 24.9669 13.6304C25.2324 13.8114 25.4729 14.0229 25.6803 14.2713C25.8362 14.4577 25.9617 14.6625 26.0251 14.9004C26.0938 15.1555 26.0568 15.4066 25.9934 15.655C25.8838 16.0805 25.6499 16.4334 25.3447 16.7426C24.992 17.0995 24.5785 17.3704 24.1398 17.6069C23.9919 17.6876 23.8386 17.7602 23.688 17.8356C23.4026 17.9796 23.145 18.162 22.9363 18.4065C22.6668 18.7223 22.5175 19.0897 22.466 19.5007C22.4184 19.8787 22.4593 20.25 22.5531 20.6161C22.5598 20.6439 22.573 20.6716 22.6034 20.7007C22.6179 20.6637 22.6324 20.6267 22.6443 20.5897C22.7553 20.2646 22.898 19.9567 23.0988 19.6765C23.4885 19.1307 24.0143 18.8003 24.6789 18.6985C25.0501 18.6417 25.42 18.6629 25.786 18.7554C25.8084 18.7606 25.8309 18.7712 25.8587 18.7818C25.8534 18.8241 25.8481 18.8624 25.8428 18.906C25.8824 18.9153 25.9181 18.9245 25.9643 18.9364C25.9564 18.9959 25.9511 19.0527 25.9419 19.1082C25.8798 19.4849 25.7688 19.8456 25.5654 20.1721C25.243 20.6928 24.7727 21.0033 24.1821 21.1408C23.7963 21.2306 23.4053 21.2412 23.0129 21.1897C22.9284 21.1778 22.8438 21.1685 22.7394 21.1566C22.7579 21.2121 22.7725 21.2531 22.7857 21.2927C22.9033 21.6271 23.0288 21.9588 23.1371 22.2971C23.2428 22.6262 23.3036 22.9658 23.293 23.3134C23.2798 23.7244 23.145 24.0865 22.8623 24.3918C22.4686 24.8186 21.9864 25.075 21.4104 25.1503C21.1118 25.19 20.8132 25.1781 20.5146 25.1424C19.9716 25.0763 19.4511 24.9244 18.9359 24.7499C18.5686 24.6257 18.1934 24.5424 17.8023 24.557C17.4073 24.5728 17.044 24.6852 16.7322 24.9389C16.7031 24.9614 16.678 24.9878 16.6503 25.0129C16.6529 25.0195 16.6556 25.0274 16.6582 25.034C16.6925 25.0301 16.7269 25.0274 16.7612 25.0195C17.0519 24.9547 17.3452 24.9283 17.6425 24.9376C18.3796 24.9627 18.9887 25.2495 19.4511 25.8296C19.6836 26.1217 19.8474 26.4494 19.9505 26.8076C19.9558 26.8234 19.9597 26.8406 19.9624 26.8578C19.9637 26.8644 19.9611 26.871 19.9584 26.8869C19.928 26.8987 19.8937 26.912 19.8514 26.9291C19.8607 26.9661 19.8686 27.0045 19.8805 27.0507C19.8554 27.0639 19.8289 27.0798 19.8012 27.0904C19.3943 27.2542 18.9742 27.352 18.5329 27.3256C18.1788 27.3045 17.8512 27.1974 17.5513 27.0071C17.2382 26.8076 16.9898 26.5432 16.7837 26.2366C16.6252 26.0014 16.4983 25.749 16.3979 25.4847C16.3887 25.4596 16.3781 25.4331 16.3662 25.408C16.3636 25.4028 16.3557 25.4001 16.3372 25.3882C16.316 25.4199 16.2936 25.4516 16.2737 25.486C16.106 25.7794 16.0029 26.0952 15.9329 26.423C15.8549 26.7851 15.8272 27.1525 15.8153 27.5212C15.814 27.5622 15.8113 27.6031 15.8087 27.6481C15.7664 27.656 15.7308 27.6626 15.6898 27.6692C15.6819 27.7102 15.6753 27.7498 15.666 27.7948C15.5471 27.7948 15.4322 27.7948 15.3106 27.7948C15.304 27.7551 15.2974 27.7155 15.2895 27.6719C15.2485 27.6639 15.2089 27.6573 15.1561 27.6481C15.1561 27.5939 15.1574 27.5397 15.1561 27.4855C15.1428 26.9846 15.0913 26.4877 14.9275 26.0107C14.8654 25.8296 14.7756 25.6565 14.6963 25.482C14.6818 25.449 14.6567 25.4226 14.625 25.3763C14.6012 25.4331 14.5853 25.4688 14.5708 25.5072C14.3964 25.9512 14.1586 26.3556 13.8164 26.6939C13.4967 27.0098 13.1202 27.2212 12.6749 27.2979C12.3129 27.3613 11.9549 27.3296 11.6009 27.2344C11.4278 27.1882 11.2587 27.1327 11.0909 27.0547C11.1015 27.0124 11.112 26.9741 11.1239 26.9318C11.083 26.9159 11.046 26.9014 11.0011 26.8842C11.0209 26.8181 11.0354 26.7547 11.0579 26.6939C11.2455 26.156 11.5454 25.6988 12.013 25.3644C12.3328 25.1358 12.6921 25.005 13.0832 24.9587C13.4597 24.9138 13.8323 24.9389 14.2022 25.0169C14.2445 25.0208 14.2815 25.0235 14.3409 25.0314ZM5.74421 16.4678C5.77988 16.5087 5.7997 16.5365 5.8248 16.5576C5.92917 16.6528 6.0309 16.7506 6.14056 16.8391C6.49727 17.1259 6.89493 17.3439 7.30184 17.5488C7.47624 17.6373 7.65063 17.7312 7.81049 17.8435C8.39311 18.2571 8.71019 18.8294 8.77756 19.5364C8.8238 20.0267 8.75246 20.5064 8.586 20.969C8.47766 21.2703 8.36008 21.5689 8.25175 21.8689C8.10114 22.2839 7.9677 22.7042 7.94788 23.1508C7.93335 23.468 7.98223 23.7733 8.17116 24.0363C8.41821 24.3812 8.74189 24.631 9.1422 24.7777C9.16466 24.7856 9.19108 24.7856 9.21883 24.7909C9.21486 24.7724 9.21618 24.7658 9.21222 24.7605C9.19372 24.7354 9.17523 24.7116 9.15541 24.6865C8.91893 24.3918 8.7234 24.072 8.59525 23.7151C8.40764 23.1905 8.38783 22.6645 8.60053 22.1412C8.78681 21.6813 9.10257 21.3218 9.48173 21.0139C9.48834 21.0086 9.50023 21.0086 9.52665 21.0007C9.54515 21.0258 9.56629 21.0562 9.59007 21.0905C9.62838 21.0562 9.65877 21.0297 9.6918 21.0007C9.7235 21.0284 9.75125 21.0522 9.77767 21.0786C9.92828 21.2267 10.0591 21.3905 10.174 21.5676C10.3907 21.9033 10.5334 22.2667 10.573 22.6645C10.614 23.0742 10.5453 23.468 10.3828 23.846C10.2321 24.1975 10.0194 24.5094 9.76974 24.7975C9.74728 24.8239 9.72615 24.853 9.69048 24.8953C9.74728 24.9032 9.78031 24.9098 9.81334 24.9111C10.1146 24.9257 10.4118 24.8953 10.7078 24.8424C11.1252 24.7684 11.5308 24.6481 11.9311 24.512C12.4015 24.3534 12.8797 24.253 13.3804 24.3125C13.683 24.3482 13.9644 24.4393 14.222 24.6019C14.6157 24.849 14.8773 25.2058 15.0609 25.6248C15.2684 26.0979 15.3582 26.5974 15.3952 27.1089C15.4058 27.249 15.4137 27.389 15.4216 27.5331C15.4692 27.5331 15.5088 27.5331 15.5564 27.5331C15.5603 27.471 15.5656 27.4168 15.5669 27.3626C15.5735 27.0375 15.6105 26.7164 15.6753 26.3992C15.7519 26.0226 15.8695 25.6591 16.0663 25.3274C16.4706 24.6495 17.0704 24.3085 17.8578 24.2953C18.2436 24.2887 18.6175 24.368 18.9808 24.4909C19.3362 24.6111 19.6942 24.7235 20.0615 24.8014C20.4155 24.8768 20.7736 24.9257 21.1369 24.9125C21.1805 24.9111 21.2228 24.9019 21.2664 24.8966C21.2637 24.8781 21.265 24.8702 21.2611 24.8649C21.2426 24.8398 21.2228 24.816 21.2029 24.7922C20.9638 24.5133 20.7577 24.2134 20.6097 23.8764C20.405 23.4085 20.3415 22.9235 20.4499 22.4227C20.5675 21.8769 20.8515 21.4236 21.2492 21.039C21.2637 21.0258 21.2822 21.0165 21.2981 21.0046C21.3298 21.0337 21.3562 21.0601 21.3866 21.0879C21.4196 21.0588 21.4487 21.0324 21.4817 21.0033C21.5068 21.0218 21.5293 21.0364 21.5504 21.0535C21.738 21.2121 21.9097 21.3852 22.059 21.5808C22.5373 22.2125 22.6562 22.9063 22.4052 23.6596C22.277 24.0468 22.067 24.3891 21.812 24.7063C21.7922 24.7314 21.7737 24.7565 21.7459 24.7935C21.7776 24.7935 21.7869 24.7962 21.7961 24.7935C21.8252 24.7843 21.8556 24.7763 21.8846 24.7644C22.1951 24.6429 22.4554 24.4486 22.68 24.2041C22.9151 23.949 23.0248 23.6451 23.034 23.3015C23.0433 22.9671 22.9812 22.642 22.8768 22.3262C22.7421 21.9218 22.5941 21.5214 22.4461 21.1209C22.2506 20.5936 22.1423 20.0558 22.207 19.4915C22.2493 19.1307 22.3576 18.7924 22.5545 18.4844C22.8081 18.0867 23.1635 17.8052 23.581 17.595C23.7594 17.5052 23.939 17.4166 24.1134 17.3202C24.4609 17.1285 24.7898 16.9078 25.0805 16.6343C25.1096 16.6065 25.136 16.5761 25.1783 16.5312C25.1109 16.5219 25.0646 16.5127 25.0184 16.5087C24.77 16.4916 24.5269 16.4479 24.2891 16.3779C23.6959 16.2035 23.2084 15.8823 22.8755 15.3511C22.6113 14.9282 22.495 14.4617 22.4792 13.9674C22.4778 13.9092 22.4792 13.8524 22.4792 13.7916C22.5307 13.785 22.5703 13.7797 22.6126 13.7744C22.6179 13.7295 22.6232 13.6899 22.6271 13.6476C22.6496 13.6449 22.6654 13.6423 22.6826 13.6396C22.9614 13.6066 23.2388 13.6145 23.5163 13.6595C24.1848 13.7665 24.7013 14.1022 25.0554 14.6824C25.2615 15.0193 25.3791 15.3881 25.4451 15.7753C25.4636 15.8823 25.4768 15.9907 25.4927 16.0991C25.5297 16.0792 25.5495 16.0541 25.5654 16.0264C25.6644 15.8506 25.7265 15.6629 25.7728 15.4674C25.8534 15.1277 25.7794 14.8264 25.5773 14.5502C25.4623 14.3929 25.3342 14.2489 25.1835 14.1273C24.9722 13.9568 24.7595 13.785 24.5335 13.6344C24.1636 13.3886 23.7818 13.1599 23.4066 12.9234C23.108 12.7357 22.82 12.5348 22.5743 12.2811C22.3206 12.0194 22.1502 11.7142 22.0947 11.3507C22.0524 11.0719 22.0723 10.793 22.1185 10.5168C22.1661 10.2393 22.2704 9.98028 22.3854 9.72654C22.5347 9.39748 22.6905 9.07106 22.8398 8.74067C22.9587 8.47636 23.0631 8.20676 23.112 7.91867C23.1252 7.84334 23.1331 7.76669 23.112 7.66757C23.0737 7.7125 23.0486 7.73893 23.0248 7.76801C22.7791 8.06404 22.5043 8.32835 22.1766 8.53319C21.7076 8.82789 21.199 8.95476 20.6481 8.88868C20.1526 8.82921 19.7074 8.63494 19.3097 8.33363C19.3018 8.32835 19.2965 8.31777 19.2873 8.3072C19.3097 8.27284 19.3322 8.2398 19.356 8.20412C19.3203 8.17769 19.2873 8.1539 19.2529 8.12879C19.2635 8.10633 19.2714 8.0865 19.282 8.06932C19.3983 7.86845 19.529 7.67814 19.6836 7.50634C20.2728 6.84953 20.9995 6.60901 21.8635 6.79006C22.1964 6.8601 22.5082 6.98565 22.8068 7.14688C22.8385 7.16406 22.8702 7.17992 22.9019 7.19578C22.9059 7.16274 22.8993 7.14424 22.8874 7.1297C22.8108 7.03191 22.7368 6.93147 22.6536 6.84028C22.3523 6.51254 21.9732 6.35924 21.5332 6.34734C21.2664 6.33941 21.0048 6.37245 20.7432 6.42135C20.3402 6.49536 19.9452 6.6024 19.5515 6.71341C19.2014 6.81253 18.85 6.91429 18.4959 6.99755C18.2132 7.06494 17.9225 7.07155 17.6332 7.0253C17.0889 6.93808 16.6595 6.66187 16.3279 6.22708C16.1231 5.95881 15.9752 5.66014 15.8602 5.34429C15.6502 4.76677 15.5564 4.16547 15.5101 3.55623C15.5075 3.52319 15.5048 3.48883 15.5009 3.4558C15.4929 3.4558 15.485 3.45712 15.4771 3.45712C15.4639 3.59324 15.452 3.73068 15.4375 3.8668C15.3899 4.34123 15.3027 4.80774 15.1481 5.25971C15.0107 5.66014 14.8271 6.03678 14.5444 6.35792C14.1414 6.81782 13.6315 7.04248 13.0237 7.05173C12.7397 7.05569 12.4622 7.01076 12.1888 6.93543C11.6682 6.79271 11.1503 6.64205 10.6272 6.50725C10.244 6.40814 9.85298 6.34074 9.45399 6.34999C9.0048 6.35924 8.62035 6.5165 8.31648 6.85085C8.23854 6.93675 8.16852 7.03191 8.09585 7.12441C8.08264 7.14159 8.07736 7.16406 8.06811 7.18256C8.11039 7.17992 8.13945 7.16538 8.16852 7.14952C8.57147 6.92883 8.99687 6.77553 9.45663 6.73852C9.96395 6.69755 10.4343 6.81649 10.8544 7.11252C11.2164 7.36758 11.4846 7.7059 11.7026 8.08782C11.7105 8.10104 11.7118 8.11954 11.7158 8.13408C11.6828 8.15919 11.6537 8.18165 11.6207 8.20676C11.6444 8.24377 11.6669 8.27813 11.692 8.31645C11.6524 8.34685 11.6167 8.3746 11.581 8.39971C11.3829 8.53847 11.1702 8.6508 10.9442 8.7367C10.4964 8.90718 10.0366 8.95476 9.56629 8.85168C9.18183 8.7671 8.84362 8.58869 8.53712 8.34685C8.31648 8.17372 8.1236 7.97285 7.94392 7.75744C7.92146 7.73101 7.90693 7.69004 7.85673 7.69004C7.85408 7.70986 7.8488 7.72704 7.8488 7.7429C7.85012 7.77726 7.85276 7.81162 7.85673 7.84598C7.88975 8.11954 7.97959 8.37592 8.08925 8.62437C8.24778 8.97987 8.41029 9.33272 8.57543 9.68558C8.78945 10.1442 8.92553 10.6199 8.90175 11.1327C8.8925 11.3375 8.85683 11.5357 8.77888 11.726C8.65866 12.0208 8.45653 12.2533 8.22004 12.4582C7.98752 12.6604 7.73122 12.8282 7.47095 12.9894C7.12877 13.2022 6.78528 13.4137 6.44706 13.633C6.15245 13.8247 5.87104 14.0361 5.62399 14.2885C5.49848 14.4167 5.38486 14.5555 5.29899 14.7141C5.21047 14.8793 5.16423 15.0524 5.17744 15.24C5.19858 15.5308 5.28313 15.8004 5.42846 16.0528C5.43771 16.07 5.44564 16.0872 5.45488 16.1057C5.46413 16.1004 5.47338 16.0951 5.48395 16.0898C5.49584 15.9986 5.50773 15.9074 5.51962 15.8176C5.57114 15.4396 5.67419 15.0762 5.85387 14.7379C6.10753 14.2608 6.47745 13.9119 6.98741 13.7163C7.21465 13.6291 7.44981 13.5802 7.69026 13.563C7.86862 13.5511 8.04829 13.559 8.22797 13.5617C8.27157 13.5617 8.31516 13.5762 8.35612 13.5828C8.36008 13.6304 8.36405 13.67 8.36801 13.711C8.41161 13.711 8.44464 13.711 8.48691 13.711C8.48955 13.7626 8.49484 13.8101 8.49484 13.8564C8.49484 14.0678 8.47238 14.2753 8.42482 14.4815C8.23986 15.2797 7.7867 15.8585 7.02969 16.1889C6.68223 16.3409 6.31627 16.4162 5.93974 16.444C5.88426 16.4506 5.8248 16.4585 5.74421 16.4678ZM23.8558 12.4238C23.8624 12.4278 23.8703 12.4331 23.8769 12.437C23.8888 12.4318 23.9034 12.4291 23.9139 12.4225C24.3063 12.1741 24.6445 11.8714 24.8823 11.4683C25.0633 11.1617 25.1505 10.83 25.1386 10.4732C25.1267 10.1481 25.0356 9.84416 24.8982 9.55078C24.8836 9.5217 24.8665 9.49395 24.8493 9.46488C24.8414 9.46488 24.8321 9.46488 24.8242 9.46488C24.5005 10.4508 24.1768 11.4366 23.8558 12.4238ZM9.45927 21.4156C9.45003 21.413 9.4421 21.4117 9.43285 21.409C9.41436 21.4236 9.39586 21.4381 9.37869 21.454C9.21883 21.6126 9.07878 21.7857 8.96517 21.9813C8.74454 22.3605 8.65734 22.7676 8.72604 23.2024C8.80267 23.6874 9.02726 24.1063 9.32584 24.4882C9.33905 24.5041 9.36019 24.5133 9.39058 24.5358C9.41568 23.4852 9.4421 22.4504 9.45927 21.4156ZM18.887 6.30638C18.9094 6.28259 18.9147 6.27862 18.9174 6.27334C18.9213 6.26409 18.9226 6.25351 18.9253 6.24294C18.9794 5.90066 18.9861 5.55706 18.9226 5.21478C18.8368 4.76016 18.636 4.36899 18.2753 4.07032C18.011 3.85094 17.7045 3.71482 17.3769 3.62363C17.3558 3.61835 17.332 3.62231 17.2897 3.62231C17.8248 4.52229 18.3532 5.41037 18.887 6.30638ZM13.6909 3.63685C13.6869 3.62892 13.683 3.62231 13.6777 3.61438C13.6486 3.61967 13.6169 3.62099 13.5905 3.63024C13.4425 3.68442 13.2893 3.72936 13.1479 3.79676C12.6049 4.05181 12.2535 4.47075 12.1002 5.05223C12.013 5.38658 12.0064 5.72489 12.0368 6.06718C12.0434 6.14515 12.0593 6.2218 12.0712 6.29845C12.0804 6.30109 12.0897 6.30373 12.0989 6.30638C12.63 5.41697 13.1598 4.52625 13.6909 3.63685ZM16.7176 25.5019C16.711 25.5257 16.7071 25.5336 16.7084 25.5389C16.711 25.5521 16.7163 25.5653 16.7216 25.5772C16.8669 25.9036 17.0532 26.2036 17.3016 26.4626C17.5368 26.7071 17.8116 26.8921 18.1405 26.9899C18.5897 27.1234 19.0323 27.0758 19.4696 26.9331C19.4802 26.9291 19.4881 26.9159 19.5079 26.8974C18.5739 26.4309 17.6491 25.9684 16.7176 25.5019ZM7.12085 12.441C7.11688 12.408 7.11688 12.3842 7.11028 12.363C6.79452 11.397 6.47877 10.4309 6.15509 9.44373C6.12735 9.48602 6.10885 9.50717 6.09828 9.53095C6.05733 9.62611 6.01373 9.71994 5.97938 9.81641C5.76535 10.4204 5.80234 11.0005 6.15377 11.5476C6.38761 11.9111 6.70469 12.1886 7.06536 12.4199C7.07857 12.4278 7.09575 12.4318 7.12085 12.441ZM21.5293 21.3945C21.5293 21.4619 21.5279 21.5055 21.5293 21.5491C21.5398 21.9932 21.5504 22.4385 21.5596 22.8826C21.5689 23.3544 21.5768 23.8261 21.5861 24.2993C21.5874 24.3548 21.5874 24.4103 21.5914 24.4645C21.5927 24.4856 21.6019 24.5054 21.6125 24.5385C21.6389 24.5107 21.6561 24.4948 21.6693 24.4763C21.8767 24.2067 22.0485 23.9187 22.1594 23.5962C22.2783 23.2513 22.3167 22.8984 22.2387 22.539C22.1436 22.0989 21.9031 21.7447 21.5874 21.4341C21.5795 21.4236 21.5663 21.4183 21.5293 21.3945ZM5.76403 15.9748C5.77328 15.9788 5.78253 15.9814 5.79178 15.9854C5.81952 15.9603 5.84726 15.9365 5.87369 15.9101C6.20529 15.5942 6.5369 15.277 6.86851 14.9612C7.23182 14.6136 7.59646 14.2674 7.95977 13.9185C7.98752 13.8921 8.02715 13.8709 8.03244 13.8207C8.00734 13.8181 7.98752 13.8154 7.9677 13.8141C7.79463 13.8101 7.6242 13.8233 7.45378 13.8551C6.90682 13.9568 6.47745 14.233 6.17755 14.7035C5.9622 15.0405 5.84726 15.4132 5.78517 15.8043C5.7746 15.8612 5.77064 15.9193 5.76403 15.9748ZM25.6565 19.1796C24.7714 19.7624 23.9047 20.332 23.0208 20.9135C23.0671 20.928 23.0882 20.9386 23.1107 20.9412C23.4344 20.9756 23.7567 20.9663 24.0751 20.8989C24.5335 20.8024 24.9272 20.591 25.2219 20.217C25.4478 19.9302 25.5799 19.5998 25.6565 19.2457C25.6592 19.2338 25.6565 19.2205 25.6565 19.1796ZM25.2219 16.0528C25.2219 16.0264 25.2232 16.0092 25.2219 15.9933C25.1915 15.7422 25.1373 15.4977 25.0501 15.2612C24.9193 14.9017 24.7278 14.5832 24.4318 14.3348C24.013 13.9859 23.5189 13.8709 22.9878 13.8815C22.9772 13.8815 22.9653 13.8921 22.9402 13.904C23.6893 14.6163 24.4305 15.322 25.1717 16.0264C25.1809 16.0369 25.1981 16.0409 25.2219 16.0528ZM5.32937 19.1783C5.33466 19.2311 5.33334 19.2576 5.33994 19.2813C5.37561 19.4069 5.40732 19.5338 5.45356 19.6567C5.67419 20.2421 6.07582 20.6465 6.67694 20.8381C7.06932 20.9637 7.47227 20.9822 7.88051 20.9412C7.90032 20.9386 7.91882 20.924 7.95449 20.9082C7.07725 20.328 6.21454 19.7584 5.32937 19.1783ZM11.3512 8.0191C11.3274 7.97549 11.3194 7.95038 11.3036 7.93056C11.2204 7.82484 11.1411 7.71647 11.0499 7.61867C10.577 7.11516 9.99698 6.91165 9.31263 7.01605C8.96252 7.06891 8.63488 7.19446 8.32441 7.36229C8.30724 7.37154 8.2927 7.38476 8.26892 7.40194C8.29138 7.41516 8.30459 7.42705 8.31913 7.42969C9.3232 7.62528 10.3259 7.82087 11.3512 8.0191ZM22.7104 7.4059C22.7038 7.39533 22.7011 7.38872 22.6972 7.38476C22.6826 7.37551 22.6681 7.36626 22.6536 7.35833C22.3193 7.18124 21.9705 7.05437 21.5927 7.0068C21.2201 6.96054 20.866 7.00944 20.5278 7.17463C20.1672 7.34908 19.8963 7.62396 19.6704 7.94774C19.6598 7.9636 19.6559 7.98342 19.6427 8.0191C20.6613 7.82087 21.6653 7.62528 22.6694 7.42969C22.6826 7.42573 22.6958 7.41383 22.7104 7.4059ZM14.2841 25.5177C14.189 25.5349 11.5533 26.8525 11.4899 26.912C11.4938 26.9172 11.4965 26.9252 11.5018 26.9278C11.5176 26.9357 11.5335 26.941 11.5493 26.9463C11.733 27.0071 11.9219 27.0468 12.1135 27.0626C12.6868 27.1102 13.1862 26.9384 13.6064 26.5419C13.8944 26.271 14.1018 25.9433 14.2643 25.5864C14.2735 25.5653 14.2775 25.5428 14.2841 25.5177ZM16.8696 25.26C16.8683 25.2666 16.8669 25.2732 16.8643 25.2798C16.896 25.2983 16.9264 25.3169 16.9581 25.3327C17.4007 25.5547 17.8446 25.7768 18.2872 25.9988C18.6967 26.2036 19.1063 26.4085 19.5158 26.612C19.5462 26.6278 19.5766 26.6595 19.6281 26.6318C19.5792 26.53 19.5357 26.4296 19.4828 26.3331C19.2014 25.823 18.7985 25.4569 18.2343 25.2851C17.8472 25.1675 17.4535 25.1688 17.0585 25.223C16.9951 25.2323 16.933 25.2481 16.8696 25.26ZM24.5626 9.38162C24.5335 9.39483 24.5137 9.40144 24.4966 9.41201C24.2006 9.59571 23.9443 9.82302 23.7475 10.1124C23.5493 10.4032 23.433 10.7243 23.404 11.0745C23.3709 11.4723 23.4317 11.8582 23.5612 12.2335C23.5704 12.2613 23.5836 12.289 23.5982 12.3221C23.6484 12.2454 24.5507 9.49527 24.5626 9.38162ZM22.9072 20.6743C22.9521 20.6478 22.9838 20.6293 23.0142 20.6095C23.3075 20.4165 23.6008 20.2236 23.8941 20.0307C24.3975 19.7003 24.8995 19.3686 25.4029 19.0369C25.4319 19.017 25.4729 19.0065 25.4808 18.9589C25.4636 18.9536 25.4517 18.9483 25.4385 18.947C25.2153 18.9179 24.9933 18.9153 24.77 18.9443C24.3235 19.0012 23.9311 19.1769 23.6035 19.4862C23.2732 19.7981 23.0644 20.1866 22.9125 20.6095C22.9059 20.624 22.9085 20.6412 22.9072 20.6743ZM22.7592 14.1154C22.7566 14.1339 22.7513 14.1498 22.754 14.1656C22.7698 14.2713 22.7804 14.3771 22.8028 14.4815C22.9548 15.1594 23.3273 15.6695 23.9588 15.9775C24.2231 16.107 24.5058 16.181 24.7951 16.2259C24.8572 16.2352 24.9206 16.2391 24.992 16.2471C24.9444 16.1612 22.8478 14.163 22.7592 14.1154ZM21.2479 21.4117C21.2241 21.4421 21.2122 21.4579 21.2003 21.4751C21.1078 21.6126 21.0048 21.7434 20.9268 21.8874C20.6956 22.3117 20.6045 22.7623 20.6903 23.2447C20.7722 23.7085 20.9916 24.1063 21.2782 24.4711C21.2875 24.483 21.3033 24.4882 21.3179 24.4988C21.3417 24.405 21.2835 21.5306 21.2479 21.4117ZM17.0836 3.7809C17.0744 3.78222 17.0651 3.78222 17.0559 3.78354C17.0479 3.81261 17.0387 3.84169 17.0347 3.87076C17.0043 4.0756 16.9924 4.28176 17.0096 4.48925C17.0413 4.8725 17.1616 5.22271 17.3875 5.53459C17.6953 5.95881 18.1207 6.22576 18.5976 6.41871C18.6082 6.42267 18.6227 6.41739 18.6518 6.41606C18.1247 5.52931 17.6041 4.65444 17.0836 3.7809ZM9.73011 21.417C9.70104 21.5676 9.64688 24.4288 9.66802 24.4962C9.67462 24.4948 9.68255 24.4948 9.68651 24.4909C9.6984 24.479 9.71029 24.4658 9.72086 24.4526C9.91507 24.2041 10.0776 23.9372 10.1885 23.6411C10.3141 23.3055 10.3577 22.9605 10.3061 22.605C10.2454 22.1808 10.0578 21.8134 9.79485 21.4804C9.78031 21.4619 9.7605 21.446 9.73011 21.417ZM7.36262 12.3075C7.37451 12.3075 7.38508 12.3075 7.39697 12.3075C7.53437 11.9362 7.61231 11.5529 7.58985 11.1538C7.56211 10.6622 7.37847 10.2327 7.04686 9.86795C6.84473 9.64593 6.53954 9.41466 6.41139 9.39483C6.72979 10.3701 7.04554 11.3388 7.36262 12.3075ZM8.22004 14.0335C8.18437 14.0652 8.15663 14.089 8.1302 14.1141C7.80388 14.426 7.47624 14.7365 7.14991 15.0484C6.79056 15.3907 6.43121 15.733 6.07318 16.0766C6.04544 16.103 6.02033 16.1334 5.98863 16.1704C6.01637 16.1757 6.02694 16.1823 6.03619 16.1797C6.21586 16.1466 6.39686 16.1228 6.57257 16.0779C6.94778 15.9801 7.28731 15.8096 7.57004 15.5387C7.94128 15.1832 8.13681 14.7405 8.21343 14.2396C8.22268 14.1775 8.24778 14.1141 8.22004 14.0335ZM5.51169 18.9695C5.71515 19.1241 5.92785 19.2615 6.13792 19.4003C6.35326 19.543 6.56861 19.6844 6.78528 19.8271C6.99798 19.9672 7.21069 20.1086 7.42339 20.2474C7.63742 20.3862 7.84484 20.5368 8.0866 20.6756C8.07339 20.624 8.06943 20.5976 8.06018 20.5738C7.96638 20.3174 7.8488 20.0729 7.69158 19.8483C7.45113 19.5034 7.14463 19.2417 6.75357 19.0818C6.54483 18.9972 6.32684 18.947 6.10357 18.9311C5.90671 18.9179 5.71119 18.9139 5.51169 18.9695ZM19.7114 8.2887C19.8395 8.37592 19.9677 8.43275 20.0985 8.48429C20.5939 8.67856 21.0946 8.71159 21.6006 8.53054C22.0471 8.37063 22.4039 8.08386 22.7156 7.73365C22.7236 7.7244 22.7275 7.71118 22.7355 7.69797C22.6377 7.69004 19.7986 8.24244 19.7114 8.2887ZM13.9366 3.77032C13.8587 3.84433 12.379 6.32488 12.3499 6.42399C12.3843 6.41342 12.4134 6.40814 12.4398 6.39756C12.6789 6.29713 12.9061 6.17554 13.1136 6.0196C13.432 5.78172 13.679 5.48569 13.8296 5.11566C13.971 4.76942 14.0053 4.40863 13.975 4.03992C13.9683 3.95534 13.9525 3.87076 13.9366 3.77032ZM8.24911 7.69797C8.26364 7.72043 8.27421 7.74158 8.29006 7.75744C8.49748 7.98606 8.72604 8.18694 8.99159 8.34553C9.33641 8.55169 9.70897 8.66005 10.1106 8.64948C10.4911 8.63891 10.8478 8.5279 11.182 8.34553C11.2111 8.32967 11.2375 8.30984 11.2706 8.29002C11.19 8.24377 8.35876 7.69004 8.24911 7.69797ZM14.1269 25.2627C14.0767 25.2508 14.041 25.2415 14.004 25.2349C13.786 25.1953 13.5667 25.186 13.3461 25.1913C12.9999 25.2006 12.6723 25.2798 12.3684 25.4464C11.8955 25.7054 11.585 26.1071 11.3749 26.5948C11.3683 26.6093 11.3683 26.6265 11.3657 26.645C11.4568 26.6278 14.0463 25.334 14.1269 25.2627Z" fill="#005BBB"/>
<path d="M6.90463 8.05521C7.17547 8.04199 7.42252 8.28251 7.41988 8.57325C7.41724 8.85739 7.19132 9.08337 6.90595 9.08205C6.61794 9.08205 6.39731 8.86003 6.39071 8.57458C6.38542 8.27855 6.64172 8.04331 6.90463 8.05521ZM6.90331 8.88778C7.08695 8.8891 7.22567 8.75431 7.22699 8.57325C7.22831 8.39088 7.08299 8.2389 6.90463 8.24022C6.7276 8.24022 6.57567 8.39485 6.57699 8.57193C6.57963 8.7477 6.72363 8.88778 6.90331 8.88778Z" fill="#005BBB"/>
<path d="M11.0213 25.9256C11.02 26.2084 10.7901 26.4344 10.5074 26.4344C10.2194 26.4331 9.99347 26.2018 9.99612 25.9124C9.99876 25.6283 10.2247 25.4063 10.5114 25.4063C10.7994 25.4049 11.0226 25.6322 11.0213 25.9256ZM10.5048 26.2402C10.6858 26.2415 10.8271 26.1054 10.8324 25.9269C10.8377 25.7485 10.6884 25.5926 10.5114 25.5913C10.3343 25.59 10.1824 25.7419 10.1824 25.9203C10.1837 26.0974 10.3251 26.2388 10.5048 26.2402Z" fill="#005BBB"/>
<path d="M14.9497 27.2068C14.9603 27.4804 14.7172 27.7209 14.4411 27.7209C14.1835 27.7209 13.9298 27.5147 13.9258 27.2108C13.9219 26.924 14.1557 26.6914 14.4424 26.6914C14.7264 26.6927 14.9497 26.9187 14.9497 27.2068ZM14.1174 27.2108C14.1187 27.3879 14.2667 27.5346 14.4411 27.5319C14.6168 27.5293 14.7634 27.3813 14.7634 27.2068C14.7634 27.0258 14.6168 26.8817 14.4318 26.8844C14.2522 26.8857 14.1161 27.0284 14.1174 27.2108Z" fill="#005BBB"/>
<path d="M26.0526 17.7901C26.0526 18.0782 25.8214 18.3069 25.5347 18.3055C25.2533 18.3042 25.0273 18.0756 25.0273 17.7901C25.0273 17.4981 25.2533 17.2747 25.5452 17.2774C25.8306 17.28 26.0526 17.5034 26.0526 17.7901ZM25.5399 18.1126C25.7223 18.1113 25.8676 17.9633 25.865 17.7822C25.8623 17.6091 25.7104 17.4624 25.5373 17.4624C25.3616 17.4624 25.2163 17.6078 25.2163 17.7848C25.2149 17.9712 25.3563 18.1139 25.5399 18.1126Z" fill="#005BBB"/>
<path d="M20.5696 5.06259C20.5722 5.30047 20.3952 5.578 20.0477 5.57667C19.7293 5.57535 19.5377 5.31633 19.5391 5.06127C19.5404 4.8115 19.7293 4.5538 20.0504 4.54322C20.3304 4.53397 20.5696 4.77846 20.5696 5.06259ZM20.3767 5.05863C20.3754 4.87757 20.2247 4.73088 20.0451 4.73485C19.8733 4.73881 19.724 4.89211 19.7254 5.06391C19.7267 5.23704 19.8746 5.38373 20.0504 5.38505C20.234 5.38769 20.3793 5.24232 20.3767 5.05863Z" fill="#005BBB"/>
<path d="M7.3156 22.1587C7.31428 22.4415 7.08308 22.6714 6.80167 22.6688C6.51498 22.6662 6.28775 22.4336 6.28907 22.1455C6.29039 21.8613 6.51631 21.642 6.80432 21.6406C7.09761 21.6393 7.31824 21.8627 7.3156 22.1587ZM6.80564 21.8256C6.62596 21.8256 6.47535 21.9763 6.47799 22.1547C6.48063 22.3305 6.62332 22.4732 6.80167 22.4745C6.98399 22.4759 7.13064 22.3305 7.128 22.1481C7.12535 21.9697 6.98135 21.8256 6.80564 21.8256Z" fill="#005BBB"/>
<path d="M11.4524 5.06757C11.4498 5.31469 11.2701 5.57768 10.9371 5.57768C10.6135 5.57768 10.4193 5.31866 10.4219 5.05831C10.4245 4.81383 10.6095 4.54688 10.9371 4.54688C11.2793 4.54688 11.4511 4.82176 11.4524 5.06757ZM11.2595 5.07021C11.2608 4.88519 11.1181 4.73586 10.9385 4.73586C10.7614 4.73586 10.6082 4.88916 10.6082 5.06624C10.6095 5.24069 10.7562 5.38606 10.9345 5.38738C11.1142 5.3887 11.2582 5.24862 11.2595 5.07021Z" fill="#005BBB"/>
<path d="M20.4827 26.4332C20.2013 26.4318 19.9661 26.2006 19.9688 25.9191C19.9727 25.6006 20.233 25.401 20.4893 25.4024C20.7337 25.4024 20.9993 25.5913 20.9993 25.9164C20.9993 26.2653 20.7179 26.4398 20.4827 26.4332ZM20.484 26.2402C20.665 26.2415 20.8077 26.1041 20.8103 25.9244C20.813 25.7433 20.6637 25.59 20.4867 25.59C20.3083 25.5913 20.1577 25.7433 20.159 25.9217C20.1603 26.0988 20.3043 26.2389 20.484 26.2402Z" fill="#005BBB"/>
<path d="M5.4215 12.1879C5.70555 12.18 5.93146 12.4258 5.93146 12.6993C5.93146 12.924 5.76896 13.2042 5.42018 13.2134C5.13481 13.2214 4.90758 12.9822 4.90626 12.6927C4.90493 12.4271 5.12953 12.176 5.4215 12.1879ZM5.09914 12.6954C5.09782 12.8778 5.2339 13.0192 5.41358 13.0205C5.59721 13.0231 5.7399 12.8804 5.7399 12.6954C5.7399 12.517 5.59589 12.3729 5.42018 12.3716C5.24183 12.3716 5.10046 12.5157 5.09914 12.6954Z" fill="#005BBB"/>
<path d="M25.5765 12.1881C25.8315 12.1788 26.0851 12.3929 26.0878 12.6982C26.0904 12.9823 25.85 13.2215 25.5673 13.2136C25.2674 13.2056 25.0599 12.9717 25.0586 12.6995C25.056 12.4008 25.307 12.1748 25.5765 12.1881ZM25.8962 12.6982C25.8962 12.5224 25.7535 12.377 25.5765 12.3731C25.3995 12.3691 25.2449 12.5211 25.2449 12.6982C25.2449 12.8739 25.3902 13.0193 25.5659 13.0206C25.7496 13.0233 25.8949 12.8792 25.8962 12.6982Z" fill="#005BBB"/>
<path d="M24.1979 21.6412C24.4437 21.6372 24.7 21.8394 24.6987 22.1526C24.696 22.4592 24.4608 22.668 24.1755 22.6667C23.8928 22.6654 23.6602 22.4236 23.6682 22.146C23.6761 21.8434 23.9218 21.628 24.1979 21.6412ZM24.1847 21.8262C24.0064 21.8275 23.8558 21.9782 23.8584 22.1566C23.8611 22.3311 24.0077 22.4751 24.1834 22.4751C24.3631 22.4751 24.5124 22.3258 24.5097 22.1474C24.5071 21.9729 24.3578 21.8249 24.1847 21.8262Z" fill="#005BBB"/>
<path d="M16.5491 27.7183C16.3232 27.7302 16.0431 27.5412 16.0391 27.2055C16.0351 26.9201 16.2743 26.6888 16.5596 26.6914C16.8397 26.6941 17.0736 26.9253 17.0696 27.2068C17.0656 27.5412 16.7842 27.7328 16.5491 27.7183ZM16.8807 27.2029C16.8794 27.0231 16.7301 26.8817 16.5464 26.8844C16.3694 26.887 16.228 27.0324 16.2294 27.2095C16.2307 27.3826 16.38 27.5319 16.5517 27.5333C16.7301 27.5319 16.882 27.38 16.8807 27.2029Z" fill="#005BBB"/>
<path d="M24.0921 8.05537C24.326 8.04216 24.5968 8.24171 24.6021 8.56813C24.6061 8.85491 24.3722 9.08354 24.0829 9.08222C23.7975 9.08089 23.5756 8.85359 23.5742 8.56946C23.5716 8.25889 23.8398 8.04084 24.0921 8.05537ZM24.0816 8.88795C24.2612 8.90249 24.4105 8.73994 24.4105 8.57738C24.4105 8.39501 24.2678 8.24303 24.0908 8.24039C23.9151 8.23775 23.7605 8.39105 23.7592 8.56813C23.7579 8.7439 23.9019 8.88663 24.0816 8.88795Z" fill="#005BBB"/>
<path d="M5.44483 17.2773C5.73284 17.276 5.95611 17.4967 5.95743 17.7848C5.95875 18.0716 5.73548 18.3029 5.45539 18.3055C5.16739 18.3082 4.93883 18.0809 4.93751 17.7901C4.93618 17.5007 5.15682 17.2787 5.44483 17.2773ZM5.44747 18.1126C5.62582 18.1126 5.76983 17.9712 5.77115 17.7928C5.77379 17.6183 5.62714 17.4677 5.45275 17.4637C5.27704 17.4597 5.11982 17.6157 5.12247 17.7928C5.12643 17.9698 5.26911 18.1126 5.44747 18.1126Z" fill="#005BBB"/>
<path d="M10.7913 9.61635C10.8375 9.63353 10.8824 9.64807 10.9247 9.66657C11.9539 10.1384 12.7043 10.889 13.1693 11.9211C13.3873 12.4061 13.5155 12.9163 13.5604 13.4449C13.5815 13.692 13.5948 13.9405 13.5961 14.1876C13.6 15.0532 13.5974 15.9175 13.5974 16.7831C13.5974 16.8241 13.5974 16.8637 13.5974 16.9126C13.5538 16.9153 13.5194 16.9179 13.4864 16.9205C13.2407 16.9377 13.0835 17.1571 13.1469 17.3963C13.1654 17.4663 13.2077 17.5192 13.2658 17.5602C13.3675 17.6329 13.4851 17.6553 13.6066 17.6672C13.6582 17.6725 13.6767 17.6289 13.6965 17.5945C13.826 17.3633 13.9647 17.136 14.0823 16.8994C14.3412 16.3761 14.5328 15.8263 14.6358 15.2501C14.686 14.9686 14.7151 14.6832 14.7085 14.3964C14.6939 13.8413 14.6834 13.2876 14.6609 12.7326C14.6464 12.381 14.6134 12.0308 14.5896 11.6806C14.5724 11.4255 14.5856 11.1705 14.6094 10.9168C14.6503 10.4912 14.7072 10.0683 14.7891 9.64939C14.8631 9.26746 14.9516 8.88818 15.0982 8.52607C15.1339 8.43753 15.1775 8.35031 15.2237 8.26573C15.2568 8.20229 15.299 8.14282 15.336 8.08203C15.3757 8.08203 15.4087 8.08203 15.4483 8.08203C15.5725 8.2459 15.6597 8.43224 15.7297 8.62651C15.8618 8.98993 15.953 9.36525 16.0151 9.74586C16.0785 10.1291 16.1287 10.515 16.1776 10.9009C16.2252 11.2722 16.2067 11.6436 16.1776 12.015C16.1591 12.2489 16.1353 12.4815 16.1261 12.7154C16.1063 13.2347 16.0944 13.7554 16.0772 14.2761C16.0521 15.0334 16.2212 15.7523 16.5026 16.4501C16.6625 16.8439 16.854 17.2205 17.076 17.5826C17.1182 17.6514 17.1645 17.6831 17.2438 17.658C17.3191 17.6342 17.3983 17.621 17.4684 17.5879C17.5952 17.5285 17.6586 17.4214 17.6493 17.2787C17.6401 17.1294 17.582 17.0091 17.4353 16.9549C17.3627 16.9285 17.2821 16.9205 17.1936 16.902C17.1922 16.8835 17.1869 16.8545 17.1869 16.8241C17.1869 15.866 17.179 14.9078 17.1896 13.9497C17.1988 13.1251 17.3719 12.3348 17.7683 11.6053C18.2439 10.7317 18.9388 10.0908 19.8411 9.6745C19.8821 9.656 19.9244 9.64146 19.9653 9.6256C19.9746 9.62163 19.9851 9.62296 20.001 9.62164C20.001 13.3048 20.001 16.984 20.001 20.679C19.9627 20.6804 19.923 20.683 19.8834 20.683C19.0696 20.683 18.2571 20.6856 17.4432 20.6804C17.3349 20.6804 17.2794 20.7121 17.2305 20.8099C17.1394 20.9949 17.0337 21.1733 16.928 21.3504C16.7866 21.5869 16.6228 21.809 16.4352 22.0138C16.0851 22.3984 15.8169 22.8318 15.6742 23.3367C15.6438 23.4424 15.624 23.5508 15.5963 23.6578C15.5633 23.7886 15.4959 23.8362 15.3651 23.827C15.2779 23.8204 15.2145 23.782 15.192 23.6922C15.1709 23.6049 15.1511 23.5177 15.1286 23.4318C14.9978 22.9243 14.7521 22.4763 14.4033 22.0904C14.0479 21.6979 13.7718 21.2565 13.5353 20.7874C13.4957 20.7081 13.4494 20.6817 13.3609 20.6817C12.5444 20.6856 11.728 20.6843 10.9102 20.6843C10.8692 20.6843 10.8283 20.6843 10.7913 20.6843C10.7754 20.5997 10.7701 9.74718 10.7913 9.61635ZM11.9631 16.9338C12.0609 16.6747 12.234 16.4818 12.4427 16.3179C12.4863 16.2836 12.5299 16.2492 12.5788 16.2254C12.6409 16.1937 12.6726 16.1501 12.6713 16.08C12.6713 16.0589 12.6766 16.0391 12.6766 16.0179C12.6924 15.6082 12.7136 15.1986 12.7202 14.7889C12.7294 14.2576 12.7017 13.729 12.5762 13.2096C12.4824 12.8198 12.3621 12.4392 12.1573 12.0929C12.086 11.9713 11.9962 11.8617 11.9129 11.748C11.8918 11.7203 11.8693 11.6872 11.8165 11.6846C11.8139 11.7295 11.8099 11.7692 11.8099 11.8101C11.8099 12.1828 11.8099 12.5542 11.8099 12.9268C11.8099 14.2114 11.8099 15.4959 11.8099 16.7818C11.8099 16.832 11.8152 16.8822 11.8191 16.9338C11.8773 16.9338 11.9195 16.9338 11.9631 16.9338ZM18.9639 11.6912C18.956 11.6872 18.9467 11.6833 18.9388 11.678C18.8912 11.7308 18.8397 11.781 18.7961 11.8366C18.6336 12.044 18.5147 12.2779 18.4209 12.5224C18.2214 13.0444 18.1144 13.5836 18.0827 14.1427C18.0483 14.7638 18.0761 15.3823 18.1104 16.0007C18.117 16.1131 18.1501 16.1911 18.2558 16.2571C18.487 16.4012 18.668 16.6007 18.7882 16.8479C18.8384 16.9496 18.841 16.9549 18.9626 16.9232C18.9639 15.1801 18.9639 13.4356 18.9639 11.6912ZM11.8297 19.7724C11.9367 19.7949 13.2341 19.7896 13.316 19.7658C13.316 19.4288 13.316 19.0892 13.316 18.7469C13.2764 18.7377 13.2433 18.7284 13.2103 18.7231C12.7096 18.6306 12.2842 18.4179 12.0054 17.9712C11.9605 17.8998 11.9077 17.8707 11.8271 17.8985C11.8033 17.9976 11.8059 19.6865 11.8297 19.7724ZM18.9626 19.7777C18.9626 19.1434 18.9626 18.5223 18.9626 17.9038C18.8714 17.8668 18.8212 17.9038 18.7789 17.9751C18.6587 18.1773 18.4962 18.3372 18.2954 18.4602C18.1091 18.5738 17.907 18.6518 17.6943 18.7007C17.6216 18.7179 17.5476 18.7311 17.4776 18.7469C17.4578 18.8685 17.4617 19.6945 17.4829 19.7791C17.9717 19.7777 18.4619 19.7777 18.9626 19.7777ZM15.3942 16.3007C15.3506 16.3999 15.3188 16.4752 15.2845 16.5505C15.1458 16.8545 15.0044 17.1558 14.8697 17.4611C14.8261 17.5615 14.8036 17.6699 14.7706 17.7743C14.7508 17.8324 14.7732 17.8734 14.8181 17.9091C14.9067 17.9791 14.9952 18.0505 15.085 18.1218C15.1986 18.2117 15.3162 18.2963 15.3942 18.4324C15.4668 18.3055 15.5751 18.2262 15.6795 18.143C15.7746 18.069 15.8671 17.9923 15.9622 17.917C16.0098 17.88 16.0349 17.8364 16.0151 17.7743C15.9794 17.6633 15.9543 17.5483 15.9081 17.4426C15.772 17.1307 15.628 16.8228 15.4866 16.5122C15.4576 16.4488 15.4311 16.3866 15.3942 16.3007ZM16.4128 19.7777C16.4418 19.6733 16.4405 19.0641 16.4088 18.9703C16.2555 18.9782 16.1366 19.0482 16.0468 19.1698C15.9596 19.2888 15.916 19.4262 15.8949 19.5703C15.8856 19.6363 15.8605 19.7037 15.8896 19.7777C16.0679 19.7777 16.241 19.7777 16.4128 19.7777ZM14.3676 19.7843C14.5381 19.7843 14.6953 19.7843 14.8525 19.7843C14.8974 19.7843 14.9133 19.7566 14.9093 19.7169C14.8934 19.5266 14.8617 19.3416 14.7508 19.1804C14.6768 19.0733 14.5777 19.0059 14.4509 18.9782C14.4258 18.9729 14.3993 18.9769 14.3689 18.9769C14.3676 19.2452 14.3676 19.5055 14.3676 19.7843ZM15.8143 21.2684C16.0191 21.2328 16.3097 20.9103 16.3467 20.6909C16.2529 20.6605 15.9028 20.6632 15.8169 20.6975C15.8116 20.8852 15.8143 21.0755 15.8143 21.2684ZM14.4324 20.6804C14.5116 20.9526 14.8023 21.2605 14.9687 21.2605C14.9687 21.0702 14.9687 20.8786 14.9687 20.6764C14.7877 20.6698 14.616 20.6658 14.4324 20.6804Z" fill="#005BBB"/>
<path d="M23.333 17.4371C23.0569 17.4503 22.8164 17.2151 22.8164 16.9349C22.8164 16.6415 23.0384 16.4155 23.325 16.4102C23.5906 16.405 23.8429 16.6296 23.8416 16.927C23.839 17.2138 23.6197 17.4358 23.333 17.4371ZM23.6487 16.9309C23.65 16.7472 23.5153 16.6058 23.3356 16.6032C23.1493 16.6006 23.0067 16.7393 23.0067 16.9257C23.0053 17.1054 23.1467 17.2481 23.325 17.2508C23.5047 17.2521 23.6474 17.112 23.6487 16.9309Z" fill="#005BBB"/>
<path d="M19.4553 23.1914C19.7433 23.1901 19.9705 23.4121 19.9718 23.6949C19.9745 23.9843 19.7486 24.2169 19.4619 24.2196C19.1765 24.2222 18.9453 23.991 18.9453 23.7015C18.9466 23.4161 19.1699 23.1914 19.4553 23.1914ZM19.4592 24.0253C19.6416 24.0253 19.7869 23.8786 19.7856 23.6976C19.7829 23.5244 19.635 23.3778 19.4606 23.3751C19.2875 23.3738 19.1382 23.5218 19.1356 23.6962C19.1329 23.8799 19.2769 24.0266 19.4592 24.0253Z" fill="#005BBB"/>
<path d="M7.66363 17.437C7.41658 17.4502 7.15103 17.2427 7.15235 16.9282C7.15367 16.6348 7.37562 16.4088 7.66627 16.4102C7.95296 16.4115 8.18548 16.6454 8.1802 16.9322C8.17492 17.2546 7.90276 17.4502 7.66363 17.437ZM7.66231 16.6031C7.47999 16.6031 7.33467 16.7511 7.33863 16.9335C7.34259 17.1093 7.49056 17.2533 7.6676 17.2507C7.84727 17.248 7.98996 17.1066 7.98996 16.9295C7.98996 16.7445 7.84727 16.6031 7.66231 16.6031Z" fill="#005BBB"/>
<path d="M22.0838 9.62612C22.0891 9.91951 21.8328 10.1442 21.5606 10.1349C21.2832 10.1243 21.0586 9.90233 21.0586 9.62216C21.0586 9.33538 21.2911 9.10675 21.5804 9.1094C21.8658 9.11072 22.0865 9.33803 22.0838 9.62612ZM21.5699 9.94065C21.735 9.95255 21.8962 9.82039 21.8988 9.61819C21.9002 9.44507 21.7575 9.30499 21.5844 9.30234C21.3968 9.2997 21.2528 9.43582 21.2528 9.62084C21.2515 9.80189 21.3876 9.93933 21.5699 9.94065Z" fill="#005BBB"/>
<path d="M11.5388 23.1919C11.7872 23.1826 12.0462 23.3888 12.0475 23.706C12.0488 23.9954 11.8123 24.224 11.5256 24.22C11.2469 24.2174 11.0117 23.9822 11.0157 23.702C11.0183 23.3954 11.2733 23.18 11.5388 23.1919ZM11.5349 24.0258C11.7119 24.0258 11.8546 23.883 11.8559 23.7046C11.8572 23.5249 11.704 23.3716 11.527 23.3769C11.3512 23.3809 11.2046 23.5289 11.2046 23.702C11.2059 23.883 11.3526 24.0271 11.5349 24.0258Z" fill="#005BBB"/>
<path d="M9.41478 10.1323C9.13602 10.1309 8.91407 9.90627 8.91407 9.62346C8.91275 9.33536 9.13602 9.10938 9.42139 9.10938C9.70543 9.10938 9.93135 9.338 9.93003 9.62346C9.92739 9.91023 9.70147 10.1336 9.41478 10.1323ZM9.4161 9.30232C9.24303 9.30232 9.10167 9.44373 9.09903 9.61685C9.09639 9.79262 9.24171 9.93931 9.41875 9.93931C9.59842 9.93931 9.74243 9.79526 9.74243 9.61949C9.74111 9.44373 9.59578 9.30232 9.4161 9.30232Z" fill="#005BBB"/>
</svg>
