<svg width="136" height="86" viewBox="0 0 136 86" fill="none" xmlns="http://www.w3.org/2000/svg">
<path d="M17.4289 36.4545C12.7672 36.4545 8.96094 32.6621 8.96094 28.0174C8.96094 23.3727 12.7672 19.6016 17.4289 19.6016C22.0905 19.6016 25.8968 23.394 25.8968 28.0387C25.8968 32.6834 22.0905 36.4545 17.4289 36.4545ZM17.4289 20.0277C13.0024 20.0277 9.38861 23.6284 9.38861 28.0387C9.38861 32.449 13.0024 36.0497 17.4289 36.0497C21.8553 36.0497 25.4691 32.449 25.4691 28.0387C25.4691 23.6284 21.8553 20.0277 17.4289 20.0277Z" fill="#EA5045"/>
<path d="M34.8553 56.2474H34.4277C34.4277 47.7037 27.4352 40.7367 18.8604 40.7367H15.995C7.42013 40.7367 0.427673 47.7037 0.427673 56.2474H0C0 47.4693 7.18491 40.3105 15.995 40.3105H18.8604C27.6704 40.3105 34.8553 47.4693 34.8553 56.2474Z" fill="#EA5045"/>
<path d="M6.94437 52.0002L7.45186 53.1933L8.74625 53.3069C8.83749 53.3126 8.8717 53.4262 8.80327 53.483L7.8168 54.3296L8.11331 55.5908C8.13612 55.6761 8.03918 55.7499 7.95935 55.6988L6.84743 55.0284L5.73551 55.6988C5.65568 55.7442 5.56445 55.6761 5.58155 55.5908L5.87807 54.3296L4.89159 53.4774C4.82317 53.4205 4.85738 53.3069 4.94861 53.3012L6.243 53.1876L6.7505 51.9945C6.79041 51.915 6.91016 51.915 6.94437 52.0002Z" fill="#EA5045"/>
<path d="M12.5537 52.0002L13.0612 53.1933L14.3556 53.3069C14.4469 53.3126 14.4811 53.4262 14.4126 53.483L13.4262 54.3296L13.7227 55.5908C13.7455 55.6761 13.6486 55.7499 13.5687 55.6988L12.4568 55.0284L11.3449 55.6988C11.2651 55.7442 11.1738 55.6761 11.1909 55.5908L11.4874 54.3296L10.501 53.4774C10.4325 53.4205 10.4668 53.3069 10.558 53.3012L11.8524 53.1876L12.3599 51.9945C12.3998 51.915 12.5195 51.915 12.5537 52.0002Z" fill="#EA5045"/>
<path d="M18.1397 52.0002L18.6472 53.1933L19.9416 53.3069C20.0328 53.3126 20.067 53.4262 19.9986 53.483L19.0121 54.3296L19.3086 55.5908C19.3314 55.6761 19.2345 55.7499 19.1547 55.6988L18.0427 55.0284L16.9308 55.6988C16.851 55.7442 16.7598 55.6761 16.7769 55.5908L17.0734 54.3296L16.0869 53.4774C16.0185 53.4205 16.0527 53.3069 16.1439 53.3012L17.4383 53.1876L17.9458 51.9945C17.9857 51.915 18.1055 51.915 18.1397 52.0002Z" fill="#EA5045"/>
<path d="M38.9381 7.98972C36.7356 7.98972 34.918 6.20002 34.918 3.98421C34.918 1.76839 36.7142 0 38.9381 0C41.162 0 42.9582 1.7897 42.9582 4.00551C42.9582 6.22133 41.1406 7.98972 38.9381 7.98972ZM38.9381 0.426118C36.9708 0.426118 35.3456 2.02406 35.3456 4.00551C35.3456 5.98696 36.9494 7.5849 38.9381 7.5849C40.9268 7.5849 42.5305 5.98696 42.5305 4.00551C42.5305 2.02406 40.9054 0.426118 38.9381 0.426118Z" fill="#EA5045"/>
<path d="M47.0873 17.002H46.6596C46.6596 13.1243 43.4948 9.97104 39.603 9.97104H38.2772C34.3854 9.97104 31.2206 13.1243 31.2206 17.002H30.793C30.793 12.89 34.1502 9.54492 38.2772 9.54492H39.603C43.7301 9.54492 47.0873 12.89 47.0873 17.002Z" fill="#EA5045"/>
<path d="M70.8067 45.572C61.2137 45.572 53.4219 37.8085 53.4219 28.2503C53.4219 18.6922 61.2137 10.9287 70.8067 10.9287C80.3998 10.9287 88.1916 18.6922 88.1916 28.2503C88.1916 37.8085 80.3998 45.572 70.8067 45.572ZM70.8067 12.9452C62.3268 12.9452 55.4457 19.8214 55.4457 28.2503C55.4457 36.6793 62.347 43.5555 70.8067 43.5555C79.2866 43.5555 86.1677 36.6793 86.1677 28.2503C86.1677 19.8214 79.2866 12.9452 70.8067 12.9452Z" fill="#EA5045"/>
<path d="M105.999 84.3094H103.975C103.975 67.6532 90.3746 54.1024 73.6577 54.1024H67.9504C51.2335 54.1024 37.6332 67.6532 37.6332 84.3094H35.6094C35.6094 66.5442 50.1203 52.0859 67.9504 52.0859H73.6577C91.4878 52.0859 105.999 66.5442 105.999 84.3094Z" fill="#EA5045"/>
<path d="M107.56 18.1104H107.133V29.8286H107.56V18.1104Z" fill="#EA5045"/>
<path d="M107.56 41.5469H107.133V53.4782H107.56V41.5469Z" fill="#EA5045"/>
<path d="M119.322 10.0137H118.895V21.7319H119.322V10.0137Z" fill="#EA5045"/>
<path d="M131.939 3.19531H131.512V14.9136H131.939V3.19531Z" fill="#EA5045"/>
<path d="M131.939 41.5469H131.512V53.4782H131.939V41.5469Z" fill="#EA5045"/>
<path d="M119.322 41.5469H118.895V53.4782H119.322V41.5469Z" fill="#EA5045"/>
<path d="M135.999 41.7593H127.445V17.4067C127.445 16.1496 128.472 15.127 129.733 15.127H133.711C134.972 15.127 135.999 16.1496 135.999 17.4067V41.7593ZM127.873 41.3332H135.571V17.4067C135.571 16.384 134.737 15.5531 133.711 15.5531H129.733C128.707 15.5531 127.873 16.384 127.873 17.4067V41.3332Z" fill="#EA5045"/>
<path d="M123.382 41.7598H114.828V24.225C114.828 22.968 115.855 21.9453 117.116 21.9453H121.094C122.355 21.9453 123.382 22.968 123.382 24.225V41.7598ZM115.256 41.3337H122.954V24.225C122.954 23.2024 122.12 22.3714 121.094 22.3714H117.116C116.09 22.3714 115.256 23.2024 115.256 24.225V41.3337Z" fill="#EA5045"/>
<path d="M111.624 41.7596H103.07V31.895C103.07 30.6379 104.097 29.6152 105.358 29.6152H109.336C110.597 29.6152 111.624 30.6379 111.624 31.895V41.7596ZM103.498 41.3335H111.196V31.895C111.196 30.8723 110.362 30.0414 109.336 30.0414H105.358C104.332 30.0414 103.498 30.8723 103.498 31.895V41.3335Z" fill="#EA5045"/>
<path d="M50.0847 76.0334L51.19 78.6319L54.0092 78.8794C54.2079 78.8918 54.2824 79.1392 54.1334 79.263L51.9848 81.1067L52.6306 83.8537C52.6803 84.0393 52.4692 84.2002 52.2953 84.0888L49.8736 82.6287L47.4519 84.0888C47.278 84.1878 47.0793 84.0393 47.1165 83.8537L47.7623 81.1067L45.6138 79.2506C45.4648 79.1269 45.5393 78.8794 45.738 78.867L48.5572 78.6195L49.6625 76.021C49.7494 75.8478 50.0102 75.8478 50.0847 76.0334Z" fill="#EA5045"/>
<path d="M60.4363 76.0334L61.5416 78.6319L64.3607 78.8794C64.5594 78.8918 64.6339 79.1392 64.4849 79.263L62.3364 81.1067L62.9822 83.8537C63.0319 84.0393 62.8207 84.2002 62.6469 84.0888L60.2252 82.6287L57.8034 84.0888C57.6296 84.1878 57.4308 84.0393 57.4681 83.8537L58.1139 81.1067L55.9654 79.2506C55.8164 79.1269 55.8909 78.8794 56.0896 78.867L58.9087 78.6195L60.014 76.021C60.101 75.8478 60.3618 75.8478 60.4363 76.0334Z" fill="#EA5045"/>
<path d="M70.7839 76.0334L71.8892 78.6319L74.7084 78.8794C74.9071 78.8918 74.9816 79.1392 74.8326 79.263L72.6841 81.1067L73.3298 83.8537C73.3795 84.0393 73.1684 84.2002 72.9945 84.0888L70.5728 82.6287L68.1511 84.0888C67.9772 84.1878 67.7785 84.0393 67.8158 83.8537L68.4616 81.1067L66.3131 79.2506C66.164 79.1269 66.2385 78.8794 66.4372 78.867L69.2564 78.6195L70.3617 76.021C70.4486 75.8478 70.7094 75.8478 70.7839 76.0334Z" fill="#EA5045"/>
<path d="M81.0496 76.0334L82.1549 78.6319L84.974 78.8794C85.1727 78.8918 85.2472 79.1392 85.0982 79.263L82.9497 81.1067L83.5955 83.8537C83.6452 84.0393 83.434 84.2002 83.2602 84.0888L80.8384 82.6287L78.4167 84.0888C78.2428 84.1878 78.0441 84.0393 78.0814 83.8537L78.7272 81.1067L76.5787 79.2506C76.4296 79.1269 76.5042 78.8794 76.7029 78.867L79.522 78.6195L80.6273 76.021C80.7142 75.8478 80.975 75.8478 81.0496 76.0334Z" fill="#EA5045"/>
<path d="M91.3972 76.0334L92.5025 78.6319L95.3216 78.8794C95.5203 78.8918 95.5949 79.1392 95.4458 79.263L93.2973 81.1067L93.9431 83.8537C93.9928 84.0393 93.7817 84.2002 93.6078 84.0888L91.1861 82.6287L88.7644 84.0888C88.5905 84.1878 88.3918 84.0393 88.429 83.8537L89.0748 81.1067L86.9263 79.2506C86.7773 79.1269 86.8518 78.8794 87.0505 78.867L89.8697 78.6195L90.975 76.021C91.0619 75.8478 91.3227 75.8478 91.3972 76.0334Z" fill="#EA5045"/>
<path d="M36.4275 16.7712C36.7628 16.7712 37.0346 16.4987 37.0346 16.1625C37.0346 15.8263 36.7628 15.5537 36.4275 15.5537C36.0921 15.5537 35.8203 15.8263 35.8203 16.1625C35.8203 16.4987 36.0921 16.7712 36.4275 16.7712Z" fill="#EA5045"/>
<path d="M38.8571 16.7712C39.1925 16.7712 39.4643 16.4987 39.4643 16.1625C39.4643 15.8263 39.1925 15.5537 38.8571 15.5537C38.5218 15.5537 38.25 15.8263 38.25 16.1625C38.25 16.4987 38.5218 16.7712 38.8571 16.7712Z" fill="#EA5045"/>
</svg>
