<svg width="136" height="102" viewBox="0 0 136 102" fill="none" xmlns="http://www.w3.org/2000/svg">
<g clip-path="url(#clip0)">
<path d="M80.4219 60.2625V61.5095C80.4219 62.059 80.869 62.5028 81.4227 62.5028H83.8927V59.248H81.4439C80.8903 59.2692 80.4219 59.713 80.4219 60.2625Z" fill="#EA5045"/>
<path d="M81.4451 63.919C80.125 63.919 79.039 62.8411 79.039 61.5308V60.2838C79.039 58.9734 80.125 57.8955 81.4451 57.8955H82.7653V54.6407C82.7653 54.0701 82.2969 53.584 81.7007 53.584H60.5139C59.939 53.584 59.4492 54.049 59.4492 54.6407V68.5687C59.4492 69.1394 59.9177 69.6255 60.5139 69.6255H81.7007C82.2756 69.6255 82.7653 69.1605 82.7653 68.5687V63.9402H81.4451V63.919Z" fill="#EA5045"/>
<path d="M70.5406 92.1495C71.2425 92.1495 71.8116 91.5804 71.8116 90.8784C71.8116 90.1765 71.2425 89.6074 70.5406 89.6074C69.8386 89.6074 69.2695 90.1765 69.2695 90.8784C69.2695 91.5804 69.8386 92.1495 70.5406 92.1495Z" fill="#EA5045"/>
<path d="M104.213 97.5596H37.7776C33.1144 97.5596 29.3242 93.0106 29.3242 87.4138V46.3704C29.3242 40.7736 33.1144 36.2246 37.7776 36.2246H104.191C108.854 36.2246 112.645 40.7736 112.645 46.3704V87.4394C112.645 93.0106 108.854 97.5596 104.213 97.5596ZM37.7776 38.8058C34.2855 38.8058 31.4535 42.2048 31.4535 46.396V87.4394C31.4535 91.6306 34.2855 95.0296 37.7776 95.0296H104.191C107.683 95.0296 110.515 91.6306 110.515 87.4394V46.3704C110.515 42.1792 107.683 38.7802 104.191 38.7802H37.7776V38.8058Z" fill="#EA5045"/>
<path d="M111.639 86.3154H30.3203V86.7381H111.639V86.3154Z" fill="#EA5045"/>
<path d="M111.823 85.7939H30.5039V86.2167H111.823V85.7939Z" fill="#EA5045"/>
<path d="M80.8292 101.046H60.2812V99.9262C60.2812 98.0664 61.7931 96.5869 63.6456 96.5869H77.4436C79.3174 96.5869 80.8079 98.0875 80.8079 99.9262V101.046H80.8292Z" fill="#EA5045"/>
<path d="M128.395 41.8473C124.2 41.8473 120.793 38.4657 120.793 34.3021C120.793 30.1384 124.2 26.7568 128.395 26.7568C132.589 26.7568 135.996 30.1384 135.996 34.3021C135.996 38.4657 132.589 41.8473 128.395 41.8473ZM128.395 27.1795C124.434 27.1795 121.219 30.3709 121.219 34.3021C121.219 38.2332 124.455 41.4246 128.395 41.4246C132.334 41.4246 135.571 38.2332 135.571 34.3021C135.571 30.3709 132.355 27.1795 128.395 27.1795Z" fill="#EA5045"/>
<path d="M11.3919 47.7014C5.11038 47.7014 0 42.629 0 36.3942C0 30.1593 5.11038 25.0869 11.3919 25.0869C17.6734 25.0869 22.7838 30.1593 22.7838 36.3942C22.7838 42.629 17.6947 47.7014 11.3919 47.7014ZM11.3919 25.5096C5.3446 25.5096 0.425865 30.3918 0.425865 36.3942C0.425865 42.3965 5.3446 47.2787 11.3919 47.2787C17.4392 47.2787 22.3579 42.3965 22.3579 36.3942C22.3579 30.3918 17.4605 25.5096 11.3919 25.5096Z" fill="#EA5045"/>
<path d="M88.8558 17.6266C83.9584 17.6266 79.9766 13.6744 79.9766 8.81332C79.9766 3.95226 83.9584 0 88.8558 0C93.7533 0 97.7351 3.95226 97.7351 8.81332C97.7351 13.6744 93.7533 17.6266 88.8558 17.6266ZM88.8558 0.422701C84.1926 0.422701 80.4024 4.18474 80.4024 8.81332C80.4024 13.4419 84.1926 17.2039 88.8558 17.2039C93.519 17.2039 97.3092 13.4419 97.3092 8.81332C97.3092 4.18474 93.519 0.422701 88.8558 0.422701Z" fill="#EA5045"/>
<path d="M9.04904 66.766H7.98438V64.2298H9.04904V66.766ZM9.04904 61.6936H7.98438V59.1574H9.04904V61.6936ZM9.04904 56.6212H7.98438V54.085H9.04904V56.6212Z" fill="#EA5045"/>
<path d="M16.0764 63.68H15.0117V61.1438H16.0764V63.68ZM16.0764 58.6076H15.0117V56.0714H16.0764V58.6076ZM16.0764 53.5352H15.0117V50.999H16.0764V53.5352Z" fill="#EA5045"/>
<path d="M83.385 34.5226H82.3203V31.9864H83.385V34.5226ZM83.385 29.4502H82.3203V26.914H83.385V29.4502ZM83.385 24.3778H82.3203V22.2432H83.385V24.3778Z" fill="#EA5045"/>
<path d="M94.3928 38.7367H93.3281V36.2005H94.3928V38.7367ZM94.3928 33.6643H93.3281V31.1281H94.3928V33.6643ZM94.3928 28.5919H93.3281V26.0557H94.3928V28.5919Z" fill="#EA5045"/>
<path d="M126.225 53.1336L125.16 53.1125L125.203 50.5763L126.267 50.5974L126.225 53.1336ZM126.289 48.0612L125.224 48.0401L125.267 45.5039L126.331 45.525L126.289 48.0612Z" fill="#EA5045"/>
<path d="M88.6428 47.6457H87.5781V45.1095H88.6428V47.6457ZM88.6428 42.5733H87.5781V40.0371H88.6428V42.5733Z" fill="#EA5045"/>
<path d="M88.6428 34.9031H87.5781V32.3669H88.6428V34.9031ZM88.6428 29.8306H87.5781V27.2944H88.6428V29.8306ZM88.6428 24.7582H87.5781V22.2432H88.6428V24.7582Z" fill="#EA5045"/>
<path d="M131.358 55.2893H130.293V52.7531H131.358V55.2893ZM131.358 50.2169H130.293V47.6807H131.358V50.2169Z" fill="#EA5045"/>
<path d="M11.3895 45.3769C6.40685 45.3769 2.33984 41.3612 2.33984 36.3945C2.33984 31.4278 6.38556 27.4121 11.3895 27.4121C16.3934 27.4121 20.4391 31.4278 20.4391 36.3945C20.4391 41.3612 16.3934 45.3769 11.3895 45.3769ZM11.3895 27.8348C6.64108 27.8348 2.76571 31.6814 2.76571 36.3945C2.76571 41.1076 6.64108 44.9542 11.3895 44.9542C16.1379 44.9542 20.0132 41.1076 20.0132 36.3945C20.0132 31.6814 16.1379 27.8348 11.3895 27.8348Z" fill="#EA5045"/>
<path d="M88.8593 15.5129C85.133 15.5129 82.1094 12.5117 82.1094 8.8131C82.1094 5.11446 85.133 2.11328 88.8593 2.11328C92.5856 2.11328 95.6093 5.11446 95.6093 8.8131C95.6093 12.5117 92.5856 15.5129 88.8593 15.5129ZM88.8593 2.53598C85.3672 2.53598 82.5352 5.34695 82.5352 8.8131C82.5352 12.2792 85.3672 15.0902 88.8593 15.0902C92.3514 15.0902 95.1834 12.2792 95.1834 8.8131C95.1834 5.34695 92.3514 2.53598 88.8593 2.53598Z" fill="#EA5045"/>
<path d="M128.398 40.0086C125.225 40.0086 122.648 37.4513 122.648 34.3022C122.648 31.153 125.225 28.5957 128.398 28.5957C131.57 28.5957 134.147 31.153 134.147 34.3022C134.147 37.4513 131.57 40.0086 128.398 40.0086ZM128.398 29.0184C125.459 29.0184 123.074 31.3855 123.074 34.3022C123.074 37.2188 125.459 39.5859 128.398 39.5859C131.336 39.5859 133.721 37.2188 133.721 34.3022C133.721 31.3855 131.336 29.0184 128.398 29.0184Z" fill="#EA5045"/>
</g>
<defs>
<clipPath id="clip0">
<rect width="136" height="101.047" fill="white"/>
</clipPath>
</defs>
</svg>
