<svg width="136" height="106" viewBox="0 0 136 106" fill="none" xmlns="http://www.w3.org/2000/svg">
<g clip-path="url(#clip0)">
<path d="M76.0629 65.0328C75.5038 64.3231 74.6866 63.8285 73.5683 63.5704C74.9876 62.8392 75.6113 61.6349 75.4393 59.893C75.3747 59.2693 75.2027 58.7317 74.9231 58.2585C74.6436 57.8069 74.235 57.4198 73.7403 57.1403C73.2457 56.8607 72.7081 56.6456 72.1274 56.4951C71.5468 56.3445 70.8801 56.237 70.1274 56.1725V52.5811H67.9554V56.065C67.5683 56.065 66.9876 56.065 66.2135 56.0865V52.5811H64.0199V56.1725C63.6973 56.1725 63.2457 56.194 62.6436 56.194L59.6328 56.1725V58.4951H61.2027C61.9339 58.4951 62.3425 58.8177 62.4715 59.4629V63.5489C62.5575 63.5489 62.6436 63.5489 62.7081 63.5704H62.4715V69.2909C62.3855 69.7641 62.1274 70.0221 61.6543 70.0221H60.0844L59.6328 72.6243H62.4715C62.6436 72.6243 62.9231 72.6243 63.2457 72.6243C63.5898 72.6243 63.8479 72.6243 64.0199 72.6243V76.2588H66.2135V72.6888C66.6221 72.6888 67.1812 72.7103 67.9554 72.7103V76.2803H70.1489V72.6458C70.9231 72.6028 71.6113 72.5383 72.2135 72.4308C72.8156 72.3232 73.3962 72.1727 73.9339 71.9361C74.493 71.7211 74.9446 71.4415 75.3102 71.0974C75.6758 70.7748 75.9769 70.3447 76.235 69.8286C76.4715 69.3125 76.6221 68.7318 76.6866 68.0436C76.8156 66.7533 76.6221 65.7425 76.0629 65.0328ZM66.2565 58.6887C66.321 58.6887 66.5145 58.6887 66.8156 58.6887C67.1167 58.6887 67.3747 58.6887 67.5898 58.6672C67.7833 58.6672 68.0629 58.6672 68.407 58.7102C68.7511 58.7317 69.0522 58.7747 69.2887 58.8177C69.5253 58.8607 69.7833 58.9467 70.0629 59.0543C70.3425 59.1618 70.579 59.2908 70.7511 59.4629C70.9231 59.6134 71.0737 59.8285 71.1812 60.065C71.3102 60.3016 71.3532 60.5812 71.3532 60.9037C71.3532 61.1618 71.3102 61.4199 71.2242 61.6349C71.1382 61.85 71.0092 62.0435 70.8371 62.1726C70.6651 62.3231 70.493 62.4521 70.321 62.5597C70.1489 62.6672 69.9124 62.7532 69.6328 62.8177C69.3532 62.8823 69.1167 62.9468 68.9016 62.9683C68.6866 63.0113 68.4285 63.0328 68.1274 63.0543C67.8049 63.0758 67.5683 63.0758 67.4178 63.0758C67.2457 63.0758 67.0307 63.0758 66.7511 63.0758C66.4715 63.0758 66.2995 63.0758 66.2565 63.0758V58.6887ZM72.235 68.3662C72.1489 68.5813 72.0199 68.7748 71.8909 68.9253C71.7403 69.0759 71.5683 69.2264 71.3317 69.3555C71.0952 69.4845 70.8801 69.5705 70.6651 69.6565C70.45 69.7426 70.1919 69.8071 69.8694 69.8501C69.5683 69.9146 69.2887 69.9576 69.0522 69.9791C68.8156 70.0006 68.536 70.0221 68.2135 70.0436C67.8909 70.0651 67.6328 70.0651 67.4608 70.0651C67.2887 70.0651 67.0522 70.0651 66.7726 70.0651C66.493 70.0651 66.321 70.0651 66.2565 70.0651V65.2479C66.3425 65.2479 66.5575 65.2479 66.9231 65.2264C67.2887 65.2264 67.6113 65.2049 67.8479 65.2049C68.0844 65.2049 68.407 65.2264 68.8371 65.2479C69.2457 65.2694 69.6113 65.3124 69.8909 65.3769C70.1704 65.4414 70.493 65.5275 70.8156 65.635C71.1597 65.764 71.4178 65.8931 71.6328 66.0651C71.8479 66.2371 72.0199 66.4522 72.1489 66.7103C72.2995 66.9683 72.364 67.2694 72.364 67.6135C72.3855 67.9146 72.3425 68.1511 72.235 68.3662Z" fill="#EA5045"/>
<path d="M67.3977 105.937C43.5697 105.937 24.1719 86.539 24.1719 62.7107C24.1719 38.8825 43.5697 19.4844 67.3977 19.4844C91.2256 19.4844 110.624 38.8825 110.624 62.7107C110.624 86.539 91.2256 105.937 67.3977 105.937ZM67.3977 21.6349C44.7525 21.6349 26.3224 40.0653 26.3224 62.7107C26.3224 85.3562 44.7525 103.787 67.3977 103.787C90.0428 103.787 108.473 85.3562 108.473 62.7107C108.473 40.0653 90.0428 21.6349 67.3977 21.6349Z" fill="#EA5045"/>
<path d="M66.6458 96.797C65.7641 96.7755 64.9039 96.7325 64.0222 96.6465L64.1297 95.5712C64.9684 95.6572 65.8286 95.7002 66.6673 95.7217L66.6458 96.797ZM69.2695 96.754L69.205 95.6787C70.0437 95.6357 70.9039 95.5497 71.7426 95.4422L71.8716 96.5175C71.0114 96.625 70.1297 96.711 69.2695 96.754ZM61.4415 96.2809C60.5813 96.1304 59.7211 95.9368 58.8824 95.7217L59.1405 94.6895C59.9577 94.9045 60.7964 95.0766 61.6136 95.2271L61.4415 96.2809ZM74.4523 96.0658L74.2372 95.0121C75.0544 94.84 75.8932 94.625 76.6888 94.3884L76.9899 95.4207C76.1727 95.6787 75.3125 95.8938 74.4523 96.0658ZM56.3663 94.9691C55.5491 94.6895 54.7319 94.3669 53.9147 94.0228L54.3448 93.0335C55.119 93.3561 55.9147 93.6787 56.7104 93.9368L56.3663 94.9691ZM79.4845 94.6035L79.0974 93.5927C79.8931 93.2916 80.6673 92.969 81.4415 92.6034L81.8931 93.5712C81.0974 93.9368 80.3018 94.2809 79.4845 94.6035ZM51.5491 92.9045C50.7749 92.4959 50.0222 92.0658 49.2695 91.5927L49.8501 90.6894C50.5598 91.141 51.3125 91.5712 52.0437 91.9583L51.5491 92.9045ZM84.2157 92.3669L83.6781 91.4421C84.4093 91.0335 85.1405 90.5819 85.8286 90.1088L86.4308 90.9905C85.7211 91.4636 84.9899 91.9368 84.2157 92.3669ZM47.119 90.1303C46.4093 89.6141 45.7426 89.055 45.0759 88.4958L45.7856 87.6786C46.4308 88.2378 47.0974 88.7754 47.7641 89.2701L47.119 90.1303ZM88.5598 89.4421L87.8932 88.6034C88.5598 88.0872 89.205 87.5281 89.8286 86.9474L90.5598 87.7432C89.9147 88.3238 89.248 88.8829 88.5598 89.4421ZM43.162 86.6894C42.5598 86.0657 41.9577 85.4205 41.3985 84.7539L42.2157 84.0657C42.7534 84.7109 43.334 85.3345 43.9362 85.9367L43.162 86.6894ZM92.4093 85.8722L91.6136 85.141C92.1942 84.5173 92.7319 83.8721 93.2695 83.2055L94.1082 83.8721C93.5706 84.5603 92.9899 85.227 92.4093 85.8722ZM39.7856 82.6893C39.2695 81.9796 38.7964 81.2484 38.3233 80.5173L39.248 79.9581C39.6996 80.6678 40.1727 81.399 40.6673 82.0657L39.7856 82.6893ZM95.6566 81.7646L94.7749 81.1624C95.248 80.4527 95.6996 79.743 96.1082 79.0119L97.0329 79.5495C96.6243 80.3022 96.1512 81.0549 95.6566 81.7646ZM37.0329 78.2377C36.6458 77.4635 36.2587 76.6677 35.9362 75.8505L36.9254 75.4419C37.248 76.2161 37.6136 76.9903 38.0007 77.743L37.0329 78.2377ZM98.2587 77.2269L97.291 76.7753C97.6566 76.0226 97.9792 75.2269 98.2802 74.4312L99.291 74.8183C98.9684 75.614 98.6243 76.4312 98.2587 77.2269ZM35.0114 73.3989C34.7319 72.5817 34.4953 71.7214 34.2802 70.8827L35.334 70.6247C35.5276 71.4419 35.7641 72.2591 36.0437 73.0548L35.0114 73.3989ZM100.108 72.3236L99.0759 72.0225C99.3125 71.2053 99.5276 70.3881 99.6996 69.5709L100.753 69.7859C100.56 70.6462 100.345 71.4849 100.108 72.3236ZM33.7641 68.302C33.6136 67.4418 33.506 66.5816 33.4415 65.6999L34.5168 65.6138C34.5813 66.4526 34.6888 67.3128 34.8394 68.13L33.7641 68.302ZM101.183 67.2053L100.108 67.0547C100.216 66.216 100.302 65.3773 100.345 64.5386L101.42 64.6031C101.377 65.4633 101.291 66.345 101.183 67.2053ZM33.3125 63.0977C33.3125 62.9686 33.3125 62.8396 33.3125 62.7321C33.3125 61.9794 33.334 61.2267 33.377 60.4955L34.4523 60.56C34.4093 61.2697 34.3878 62.0224 34.3878 62.7321C34.3878 62.8611 34.3878 62.9686 34.3878 63.0977H33.3125ZM101.485 62.7106H100.409C100.409 61.8719 100.366 61.0116 100.323 60.1729L101.399 60.0869C101.442 60.9686 101.485 61.8504 101.485 62.7106ZM34.7103 58.0223L33.6566 57.8718C33.7856 57.0116 33.9362 56.1514 34.1297 55.2911L35.1835 55.5277C34.9899 56.3449 34.8394 57.1836 34.7103 58.0223ZM100.022 57.6568C99.8932 56.818 99.7426 55.9793 99.5491 55.1621L100.603 54.9255C100.796 55.7642 100.968 56.646 101.097 57.5062L100.022 57.6568ZM35.8071 53.0545L34.7749 52.732C35.0329 51.8932 35.3125 51.076 35.6351 50.2588L36.6458 50.6459C36.3448 51.4631 36.0652 52.2588 35.8071 53.0545ZM98.8609 52.7104C98.6028 51.9147 98.3233 51.0975 98.0007 50.3233L98.9899 49.9147C99.3125 50.7319 99.6136 51.5491 99.8716 52.3879L98.8609 52.7104ZM37.6781 48.3448L36.7104 47.8717C37.0974 47.0975 37.506 46.3018 37.9362 45.5706L38.8609 46.1082C38.4308 46.8394 38.0437 47.5921 37.6781 48.3448ZM96.9684 48.0222C96.6028 47.2695 96.1727 46.5168 95.7426 45.7856L96.6673 45.2265C97.119 45.9792 97.5276 46.7534 97.9362 47.5276L96.9684 48.0222ZM40.2157 43.9576L39.334 43.3555C39.8286 42.6458 40.3663 41.9361 40.9039 41.2694L41.7426 41.9576C41.205 42.5813 40.7104 43.2695 40.2157 43.9576ZM94.3448 43.6566C93.8501 42.9684 93.334 42.2802 92.7964 41.635L93.6136 40.9469C94.1727 41.6135 94.7104 42.3232 95.205 43.0329L94.3448 43.6566ZM43.42 40.0221L42.6458 39.2909C43.248 38.6673 43.8716 38.0436 44.5168 37.4629L45.248 38.2587C44.6028 38.8178 44.0007 39.42 43.42 40.0221ZM91.119 39.764C90.5383 39.1619 89.9147 38.5597 89.291 38.0006L90.0007 37.2049C90.6458 37.7855 91.291 38.3877 91.8931 39.0113L91.119 39.764ZM47.1835 36.6242L46.5168 35.764C47.205 35.2264 47.9147 34.7102 48.6458 34.2371L49.248 35.1403C48.5383 35.6135 47.8501 36.1081 47.1835 36.6242ZM87.3125 36.3877C86.6458 35.8715 85.9362 35.3984 85.2265 34.9253L85.8071 34.022C86.5383 34.4952 87.2695 34.9898 87.9577 35.5274L87.3125 36.3877ZM51.42 33.8285L50.9039 32.8822C51.6566 32.4521 52.4523 32.065 53.248 31.6994L53.6996 32.6672C52.9039 33.0328 52.1512 33.4199 51.42 33.8285ZM83.0544 33.6564C82.3233 33.2478 81.5491 32.8822 80.7749 32.5382L81.205 31.5489C82.0007 31.893 82.7964 32.2801 83.5491 32.7102L83.0544 33.6564ZM56.0222 31.7209L55.6566 30.7102C56.4738 30.4091 57.3125 30.1295 58.1512 29.9145L58.4523 30.9467C57.6351 31.1618 56.8179 31.4199 56.0222 31.7209ZM78.4308 31.5919C77.6351 31.3123 76.8179 31.0543 76.0007 30.8392L76.2802 29.8069C77.119 30.0435 77.9577 30.3016 78.7749 30.5811L78.4308 31.5919ZM60.9039 30.3446L60.6888 29.2908C61.5491 29.1188 62.4093 28.9897 63.2695 28.8822L63.3985 29.9575C62.5813 30.0435 61.7426 30.1725 60.9039 30.3446ZM73.5276 30.2801C72.7104 30.1295 71.8501 30.0005 71.0114 29.9145L71.119 28.8392C71.9792 28.9252 72.8609 29.0542 73.7211 29.2263L73.5276 30.2801ZM65.9362 29.7424L65.8931 28.6671C66.4093 28.6456 66.9254 28.6241 67.42 28.6456C67.7856 28.6456 68.1512 28.6456 68.5168 28.6671L68.4738 29.7424C68.1082 29.7209 67.7426 29.7209 67.377 29.7209C66.9254 29.6994 66.4308 29.7209 65.9362 29.7424Z" fill="#EA5045"/>
<path d="M124.172 41.8066C117.656 41.8066 112.344 36.4947 112.344 29.9785C112.344 23.4623 117.656 18.1504 124.172 18.1504C130.688 18.1504 136 23.4623 136 29.9785C136 36.4947 130.688 41.8066 124.172 41.8066ZM124.172 18.5805C117.892 18.5805 112.774 23.6988 112.774 29.9785C112.774 36.2581 117.892 41.3765 124.172 41.3765C130.451 41.3765 135.57 36.2581 135.57 29.9785C135.57 23.6988 130.451 18.5805 124.172 18.5805Z" fill="#EA5045"/>
<path d="M124.175 38.9465C119.229 38.9465 115.207 34.9249 115.207 29.9786C115.207 25.0323 119.229 21.0107 124.175 21.0107C129.121 21.0107 133.143 25.0323 133.143 29.9786C133.143 34.9249 129.121 38.9465 124.175 38.9465ZM124.175 21.4409C119.465 21.4409 115.637 25.2689 115.637 29.9786C115.637 34.6883 119.465 38.5163 124.175 38.5163C128.884 38.5163 132.712 34.6883 132.712 29.9786C132.712 25.2689 128.884 21.4409 124.175 21.4409Z" fill="#EA5045"/>
<path d="M124.364 31.6169C125.078 31.6169 125.657 31.0363 125.657 30.3202C125.657 29.604 125.078 29.0234 124.364 29.0234C123.649 29.0234 123.07 29.604 123.07 30.3202C123.07 31.0363 123.649 31.6169 124.364 31.6169Z" fill="#EA5045"/>
<path d="M95.7841 19.871C91.9991 19.871 88.9023 16.7742 88.9023 12.9892C88.9023 9.20424 91.9991 6.10742 95.7841 6.10742C99.569 6.10742 102.666 9.20424 102.666 12.9892C102.666 16.7742 99.569 19.871 95.7841 19.871ZM95.7841 6.53753C92.2357 6.53753 89.3325 9.4408 89.3325 12.9892C89.3325 16.5377 92.2357 19.4409 95.7841 19.4409C99.3325 19.4409 102.236 16.5377 102.236 12.9892C102.236 9.4408 99.3325 6.53753 95.7841 6.53753Z" fill="#EA5045"/>
<path d="M95.7864 18.2369C92.9047 18.2369 90.5391 15.8928 90.5391 12.9896C90.5391 10.0863 92.8832 7.74219 95.7864 7.74219C98.6896 7.74219 101.034 10.0863 101.034 12.9896C101.034 15.8928 98.6681 18.2369 95.7864 18.2369ZM95.7864 8.1723C93.1197 8.1723 90.9692 10.3229 90.9692 12.9896C90.9692 15.6563 93.1197 17.8068 95.7864 17.8068C98.4531 17.8068 100.604 15.6563 100.604 12.9896C100.604 10.3229 98.4315 8.1723 95.7864 8.1723Z" fill="#EA5045"/>
<path d="M25.5264 26.1079C18.3221 26.1079 12.4727 20.2583 12.4727 13.0539C12.4727 5.84954 18.3221 0 25.5264 0C32.7307 0 38.5802 5.84954 38.5802 13.0539C38.5802 20.2583 32.7307 26.1079 25.5264 26.1079ZM25.5264 0.430113C18.5587 0.430113 12.9028 6.0861 12.9028 13.0539C12.9028 20.0218 18.5587 25.6777 25.5264 25.6777C32.4942 25.6777 38.1501 20.0218 38.1501 13.0539C38.1501 6.0861 32.4942 0.430113 25.5264 0.430113Z" fill="#EA5045"/>
<path d="M25.5292 22.9473C20.0668 22.9473 15.6367 18.5171 15.6367 13.0547C15.6367 7.59227 20.0668 3.16211 25.5292 3.16211C30.9916 3.16211 35.4217 7.59227 35.4217 13.0547C35.4217 18.5171 30.9916 22.9473 25.5292 22.9473ZM25.5292 3.59222C20.3034 3.59222 16.0668 7.82884 16.0668 13.0547C16.0668 18.2806 20.3034 22.5172 25.5292 22.5172C30.755 22.5172 34.9916 18.2806 34.9916 13.0547C34.9916 7.82884 30.755 3.59222 25.5292 3.59222Z" fill="#EA5045"/>
<path d="M25.6292 14.7614C26.3434 14.7614 26.9225 14.1808 26.9225 13.4647C26.9225 12.7485 26.3434 12.168 25.6292 12.168C24.915 12.168 24.3359 12.7485 24.3359 13.4647C24.3359 14.1808 24.915 14.7614 25.6292 14.7614Z" fill="#EA5045"/>
<path d="M7.03226 48.6887C3.16129 48.6887 0 45.5274 0 41.6564C0 37.7854 3.16129 34.624 7.03226 34.624C10.9032 34.624 14.0645 37.7854 14.0645 41.6564C14.0645 45.5274 10.9032 48.6887 7.03226 48.6887ZM7.03226 35.0541C3.39785 35.0541 0.430108 38.0219 0.430108 41.6564C0.430108 45.2908 3.39785 48.2586 7.03226 48.2586C10.6667 48.2586 13.6344 45.2908 13.6344 41.6564C13.6344 38.0219 10.6667 35.0541 7.03226 35.0541Z" fill="#EA5045"/>
<path d="M7.03062 47.0116C4.08438 47.0116 1.67578 44.6029 1.67578 41.6567C1.67578 38.7104 4.08438 36.3018 7.03062 36.3018C9.97686 36.3018 12.3855 38.7104 12.3855 41.6567C12.3855 44.6029 9.97686 47.0116 7.03062 47.0116ZM7.03062 36.7319C4.32094 36.7319 2.10589 38.947 2.10589 41.6567C2.10589 44.3664 4.32094 46.5815 7.03062 46.5815C9.7403 46.5815 11.9554 44.3664 11.9554 41.6567C11.9554 38.947 9.7403 36.7319 7.03062 36.7319Z" fill="#EA5045"/>
</g>
<defs>
<clipPath id="clip0">
<rect width="136" height="105.937" fill="white"/>
</clipPath>
</defs>
</svg>
