<svg width="136" height="102" viewBox="0 0 136 102" fill="none" xmlns="http://www.w3.org/2000/svg">
<g clip-path="url(#clip0)">
<path d="M84.0018 101.311C86.0351 101.311 87.6834 99.6766 87.6834 97.66C87.6834 95.6435 86.0351 94.0088 84.0018 94.0088C81.9686 94.0088 80.3203 95.6435 80.3203 97.66C80.3203 99.6766 81.9686 101.311 84.0018 101.311Z" fill="#EA5045"/>
<path d="M106.655 56.5304H105.573V53.953H106.655V56.5304ZM49.7 56.0579H48.6172V53.4805H49.7V56.0579ZM106.655 51.3757H105.573V48.7983H106.655V51.3757ZM49.7 50.9031H48.6172V48.3258H49.7V50.9031ZM105.529 46.2424C105.486 45.4048 105.399 44.5671 105.269 43.7295L106.331 43.5791C106.46 44.4382 106.547 45.3188 106.59 46.1994L105.529 46.2424ZM49.765 45.7914L48.6822 45.7055C48.7471 44.8249 48.8554 43.9657 48.9853 43.1066L50.0465 43.2784C49.9382 44.0946 49.8299 44.9537 49.765 45.7914ZM104.793 41.2595C104.598 40.4433 104.36 39.6272 104.078 38.8325L105.096 38.4888C105.378 39.305 105.638 40.1641 105.832 41.0018L104.793 41.2595ZM50.6095 40.8085L49.5701 40.5292C49.7866 39.6916 50.0681 38.8325 50.3497 38.0163L51.3675 38.3814C51.0643 39.1761 50.8261 39.9923 50.6095 40.8085ZM103.125 36.4914C102.779 35.7182 102.389 34.9664 101.978 34.2362L102.931 33.6992C103.364 34.451 103.775 35.2457 104.122 36.0403L103.125 36.4914ZM52.342 36.0618L51.3675 35.6108C51.7357 34.8161 52.1471 34.0429 52.6019 33.2912L53.5331 33.8281C53.1 34.5584 52.7102 35.3101 52.342 36.0618ZM100.613 32.0884C100.137 31.4011 99.6172 30.7138 99.0758 30.0695L99.8987 29.3822C100.462 30.048 101.003 30.7567 101.501 31.4655L100.613 32.0884ZM54.9191 31.7018L54.0312 31.0789C54.5509 30.3701 55.0923 29.6828 55.6771 29.017L56.5 29.7258C55.9369 30.3701 55.4172 31.036 54.9191 31.7018ZM97.365 28.2223C96.7586 27.621 96.1306 27.0625 95.4809 26.5256L96.1739 25.7094C96.8452 26.2678 97.5165 26.8692 98.1229 27.4706L97.365 28.2223ZM58.2541 27.9002L57.4962 27.127C58.1242 26.5256 58.7955 25.9457 59.4885 25.3872L60.1599 26.2249C59.5102 26.7404 58.8605 27.3203 58.2541 27.9002ZM93.4452 25.0006C92.7522 24.5281 92.0159 24.0771 91.2796 23.669L91.7993 22.724C92.5573 23.1535 93.3153 23.626 94.0516 24.12L93.4452 25.0006ZM62.2172 24.7429L61.6108 23.8408C62.3471 23.3683 63.1051 22.8958 63.8847 22.4877L64.4044 23.4327C63.6681 23.8408 62.9318 24.2704 62.2172 24.7429ZM89.0057 22.5307C88.2261 22.187 87.4248 21.8863 86.6236 21.6071L86.9701 20.5976C87.793 20.8769 88.6376 21.199 89.4388 21.5642L89.0057 22.5307ZM66.7 22.3374L66.2669 21.3494C67.0681 21.0057 67.9127 20.705 68.7573 20.4258L69.0822 21.4568C68.2809 21.7145 67.4796 22.0152 66.7 22.3374ZM84.1764 20.8983C83.3535 20.705 82.5089 20.5332 81.6643 20.4258L81.8159 19.3734C82.6821 19.5023 83.57 19.6741 84.4146 19.8674L84.1764 20.8983ZM71.5509 20.7909L71.3127 19.7385C72.179 19.5452 73.0452 19.3949 73.9114 19.2875L74.0414 20.3614C73.2185 20.4688 72.3739 20.6191 71.5509 20.7909ZM79.1522 20.1681C78.3076 20.1251 77.463 20.1251 76.5968 20.1466L76.5535 19.0727C77.4414 19.0512 78.3293 19.0512 79.1955 19.0942L79.1522 20.1681Z" fill="#EA5045"/>
<path d="M53.7503 83.5708H50.6318C46.4739 83.5708 43.1172 80.2202 43.1172 76.1179V62.9304C43.1172 58.8066 46.4955 55.4775 50.6318 55.4775H53.7503V83.5708ZM50.6102 57.6039C47.6649 57.6039 45.2611 59.9879 45.2611 62.9089V76.0964C45.2611 79.0175 47.6649 81.4015 50.6102 81.4015H51.563V57.6039H50.6102Z" fill="#EA5045"/>
<path d="M55.7222 86.4923H55.5057C53.3401 86.4923 51.5859 84.7526 51.5859 82.6048V54.4041C51.5859 52.2563 53.3401 50.5166 55.5057 50.5166H55.7222C57.8878 50.5166 59.642 52.2563 59.642 54.4041V82.6048C59.642 84.7526 57.8878 86.4923 55.7222 86.4923ZM55.5057 52.6644C54.5312 52.6644 53.7515 53.4376 53.7515 54.4041V82.6048C53.7515 83.5713 54.5312 84.3445 55.5057 84.3445H55.7222C56.6968 84.3445 57.4764 83.5713 57.4764 82.6048V54.4041C57.4764 53.4376 56.6968 52.6644 55.7222 52.6644H55.5057Z" fill="#EA5045"/>
<path d="M104.661 83.5708H101.543V55.4561H104.661C108.819 55.4561 112.176 58.8066 112.176 62.9089V76.0964C112.176 80.2202 108.798 83.5708 104.661 83.5708ZM103.687 81.423H104.64C107.585 81.423 109.989 79.0389 109.989 76.1179V62.9304C109.989 60.0094 107.585 57.6253 104.64 57.6253H103.687V81.423Z" fill="#EA5045"/>
<path d="M99.7691 86.4923H99.5525C97.3869 86.4923 95.6328 84.7526 95.6328 82.6048V54.4041C95.6328 52.2563 97.3869 50.5166 99.5525 50.5166H99.7691C101.935 50.5166 103.689 52.2563 103.689 54.4041V82.6048C103.689 84.7526 101.935 86.4923 99.7691 86.4923ZM99.5525 52.6644C98.578 52.6644 97.7984 53.4376 97.7984 54.4041V82.6048C97.7984 83.5713 98.578 84.3445 99.5525 84.3445H99.7691C100.744 84.3445 101.523 83.5713 101.523 82.6048V54.4041C101.523 53.4376 100.744 52.6644 99.7691 52.6644H99.5525Z" fill="#EA5045"/>
<path d="M88.6381 99.6588C87.7935 99.6588 86.9273 99.5943 85.9961 99.4655L86.2993 97.3391C89.8942 97.8546 92.7528 97.2103 94.8318 95.4491C98.1018 92.6354 98.5999 87.6955 98.5999 84.9893H100.766C100.766 90.2943 99.163 94.5685 96.2611 97.0814C94.247 98.7996 91.6916 99.6588 88.6381 99.6588Z" fill="#EA5045"/>
<path d="M120.626 33.9353C112.158 33.9353 105.25 27.0838 105.25 18.6859C105.25 10.288 112.158 3.43652 120.626 3.43652C126.495 3.43652 131.757 6.67971 134.399 11.8774L134.009 12.0707C131.454 7.00188 126.321 3.86608 120.626 3.86608C112.396 3.86608 105.683 10.5243 105.683 18.6859C105.683 26.8476 112.396 33.5058 120.626 33.5058C128.855 33.5058 135.568 26.8476 135.568 18.6859H136.002C136.002 27.0838 129.093 33.9353 120.626 33.9353Z" fill="#EA5045"/>
<path d="M130.032 10.2472L129.883 10.6504L134.11 12.1925L134.26 11.7894L130.032 10.2472Z" fill="#EA5045"/>
<path d="M134.057 7.76482L133.969 12.0381L134.402 12.0469L134.49 7.77363L134.057 7.76482Z" fill="#EA5045"/>
<path d="M29.065 63.8986V57.7344H30.8625C33.5045 57.7129 35.6484 55.5866 35.6484 52.9663V39.4351C35.6484 36.7933 33.5045 34.667 30.8625 34.667H6.10958C3.46755 34.667 1.3236 36.7933 1.3236 39.4136V52.9448C1.3236 55.5651 3.46755 57.6914 6.10958 57.6914H23.7376L29.065 63.8986ZM30.8625 35.0966C33.2663 35.0966 35.2153 37.0296 35.2153 39.4136V52.9448C35.2153 55.3289 33.2663 57.2619 30.8625 57.2619H28.6319V62.6958L23.9325 57.2619H6.10958C3.70576 57.2619 1.75672 55.3289 1.75672 52.9448V39.4136C1.75672 37.0296 3.70576 35.0966 6.10958 35.0966H30.8625Z" fill="#EA5045"/>
<path d="M35.0934 25.4362L38.9265 20.9903H40.0743C42.3698 20.9903 44.2539 19.1432 44.2539 16.845V8.81225C44.2539 6.53558 42.3915 4.66699 40.0743 4.66699H24.1788C21.8832 4.66699 19.9991 6.5141 19.9991 8.81225V16.845C19.9991 19.1217 21.8616 20.9903 24.1788 20.9903H35.0717V25.4362H35.0934ZM40.0959 5.11803C42.1533 5.11803 43.8424 6.77184 43.8424 8.83373V16.8665C43.8424 18.9069 42.1749 20.5822 40.0959 20.5822H38.7316L35.5265 24.2979V20.5822H24.2004C22.1431 20.5822 20.4539 18.9284 20.4539 16.8665V8.83373C20.4539 6.79332 22.1214 5.11803 24.2004 5.11803H40.0959Z" fill="#EA5045"/>
<path d="M25.1739 10.0146H39.207V10.4442H25.1739V10.0146Z" fill="#EA5045"/>
<path d="M25.1739 12.7861H39.207V13.2157H25.1739V12.7861Z" fill="#EA5045"/>
<path d="M29.9383 15.5781H39.207V16.0077H29.9383V15.5781Z" fill="#EA5045"/>
<path d="M27.8152 16.0074C27.4564 16.0074 27.1655 15.719 27.1655 15.3631C27.1655 15.0072 27.4564 14.7188 27.8152 14.7188C28.174 14.7188 28.4648 15.0072 28.4648 15.3631C28.4648 15.719 28.174 16.0074 27.8152 16.0074Z" fill="#EA5045"/>
<path d="M15.3789 44.0324C15.4006 43.1732 15.6821 42.4859 16.2668 41.992C16.8515 41.4765 17.6528 41.1973 18.6923 41.1973C19.6668 41.1973 20.4464 41.4335 21.0311 41.9275C21.6158 42.4215 21.919 43.0444 21.919 43.8391C21.919 44.7841 21.4426 45.5573 20.4681 46.1157C20.0133 46.3735 19.7101 46.6097 19.5585 46.8245C19.4069 47.0393 19.3203 47.297 19.3203 47.6192V47.9843H17.5229L17.5012 47.6192C17.4579 47.0822 17.5229 46.6527 17.7178 46.309C17.9127 45.9869 18.2375 45.6647 18.7139 45.3855C19.1687 45.1277 19.4502 44.8915 19.6018 44.6982C19.7751 44.4834 19.8401 44.2257 19.8401 43.925C19.8401 43.6028 19.7318 43.3451 19.4936 43.1518C19.2553 42.9585 18.9305 42.8511 18.5623 42.8511C18.1725 42.8511 17.8477 42.9585 17.6095 43.1732C17.3713 43.388 17.2413 43.6887 17.2197 44.0538H15.3789V44.0324ZM17.5878 50.9053C17.3713 50.712 17.263 50.4328 17.263 50.0677C17.263 49.7026 17.3713 49.4234 17.5878 49.2301C17.8044 49.0153 18.1076 48.9294 18.4974 48.9294C18.8872 48.9294 19.1904 49.0368 19.4069 49.2301C19.6235 49.4448 19.7318 49.724 19.7318 50.0677C19.7318 50.4328 19.6235 50.712 19.4069 50.9053C19.1904 51.1201 18.8872 51.206 18.4974 51.206C18.1076 51.206 17.8044 51.1201 17.5878 50.9053Z" fill="#EA5045"/>
<path d="M112.352 16.9248C112.352 15.9798 112.676 15.2281 113.348 14.6482C114.019 14.0683 114.864 13.7676 115.925 13.7676C116.943 13.7676 117.787 14.0253 118.437 14.5623C119.087 15.0992 119.411 15.7865 119.411 16.6027C119.411 17.1396 119.238 17.6551 118.913 18.1706C118.588 18.686 117.982 19.3519 117.138 20.1466L115.253 21.9292V22.0581H119.541V23.7549H112.46V22.3373L115.665 19.223C116.358 18.5572 116.813 18.0632 117.051 17.7195C117.289 17.3974 117.397 17.0752 117.397 16.753C117.397 16.3664 117.246 16.0442 116.964 15.7865C116.683 15.5288 116.315 15.4214 115.86 15.4214C115.383 15.4214 114.994 15.5717 114.712 15.8509C114.409 16.1302 114.257 16.4953 114.257 16.9463V16.9893H112.352V16.9248Z" fill="#EA5045"/>
<path d="M126.019 22.0367H121.211V20.2325C121.969 18.7935 123.268 16.7316 125.087 14.0039H127.989V20.3399H129.267V22.0367H127.989V23.7335H126.04V22.0367H126.019ZM123.073 20.4044H126.084V15.5933H125.975C124.936 17.1397 123.961 18.7076 123.073 20.297V20.4044Z" fill="#EA5045"/>
</g>
<defs>
<clipPath id="clip0">
<rect width="136" height="101.333" fill="white"/>
</clipPath>
</defs>
</svg>
