<svg width="136" height="112" viewBox="0 0 136 112" fill="none" xmlns="http://www.w3.org/2000/svg">
<g clip-path="url(#clip0)">
<path d="M80.0962 59.7542C79.4086 59.0715 78.2699 59.0715 77.5824 59.7542L69.9767 67.3061L67.6778 65.0234C66.9903 64.3408 65.8516 64.3408 65.1641 65.0234C64.4766 65.7061 64.4766 66.8367 65.1641 67.5194L68.7091 71.0393C69.0529 71.3806 69.5041 71.5513 69.9552 71.5513C70.4064 71.5513 70.8576 71.3806 71.2014 71.0393L80.0747 62.2288C80.7837 61.5461 80.7837 60.4368 80.0962 59.7542Z" fill="#EA5045"/>
<path d="M71.0498 111.337L70.7276 111.23C60.6726 108.115 52.0571 102.035 45.8264 93.6089C39.5743 85.1823 36.2656 75.1772 36.2656 64.7027V36.6925L37.1895 36.5645C42.131 35.8605 46.0843 31.9352 46.7933 27.0286L46.9222 26.1113H95.156L95.2849 27.0286C95.9939 31.9352 99.9472 35.8605 104.889 36.5645L105.813 36.6925V64.724C105.813 86.1637 91.9547 104.873 71.3506 111.251L71.0498 111.337ZM38.4141 38.5058V64.724C38.4141 85.1183 51.52 102.91 71.0498 109.118C90.5797 102.931 103.686 85.1397 103.686 64.724V38.5058C98.5506 37.3965 94.4685 33.3432 93.3513 28.2446H48.7484C47.6312 33.3432 43.549 37.3965 38.4141 38.5058Z" fill="#EA5045"/>
<path d="M71.0498 111.337L70.7276 111.23C60.6726 108.115 52.0571 102.035 45.8264 93.6089C39.5743 85.1823 36.2656 75.1772 36.2656 64.7027V36.6925L37.1895 36.5645C42.131 35.8605 46.0843 31.9352 46.7933 27.0286L46.9222 26.1113H95.156L95.2849 27.0286C95.9939 31.9352 99.9472 35.8605 104.889 36.5645L105.813 36.6925V64.724C105.813 86.1637 91.9547 104.873 71.3506 111.251L71.0498 111.337ZM38.4141 38.5058V64.724C38.4141 85.1183 51.52 102.91 71.0498 109.118C90.5797 102.931 103.686 85.1397 103.686 64.724V38.5058C98.5506 37.3965 94.4685 33.3432 93.3513 28.2446H48.7484C47.6312 33.3432 43.549 37.3965 38.4141 38.5058Z" fill="#EA5045"/>
<path d="M70.8563 104.041C70.0398 103.742 69.2234 103.422 68.4285 103.081L68.8582 102.099C69.6316 102.441 70.4266 102.739 71.2215 103.038L70.8563 104.041ZM71.6942 103.87L71.3074 102.867C72.1024 102.569 72.8973 102.249 73.6708 101.907L74.1005 102.889C73.3056 103.23 72.4891 103.571 71.6942 103.87ZM66.0651 101.971C65.2917 101.587 64.5182 101.161 63.7877 100.713L64.3248 99.7953C65.0553 100.222 65.8073 100.627 66.5593 101.011L66.0651 101.971ZM76.4424 101.758L75.9482 100.819C76.7002 100.435 77.4522 100.009 78.1612 99.582L78.7198 100.499C77.9893 100.926 77.2158 101.353 76.4424 101.758ZM61.5747 99.326C60.8657 98.8354 60.1567 98.3234 59.4692 97.79L60.1353 96.958C60.8013 97.47 61.4888 97.982 62.1978 98.4514L61.5747 99.326ZM80.9112 99.07L80.3097 98.1954C80.9972 97.726 81.6847 97.214 82.3507 96.702L83.0168 97.534C82.3293 98.0674 81.6202 98.5794 80.9112 99.07ZM57.4496 96.1474C56.8051 95.5714 56.1605 94.9741 55.5375 94.3768L56.2894 93.6301C56.891 94.2274 57.5141 94.8034 58.1372 95.3581L57.4496 96.1474ZM85.0149 95.8701L84.3059 95.0807C84.9289 94.5261 85.552 93.9288 86.1536 93.3314L86.927 94.0781C86.2825 94.6754 85.6594 95.2941 85.0149 95.8701ZM53.7757 92.4781C53.1956 91.8381 52.637 91.1555 52.0999 90.4942L52.9378 89.8328C53.4534 90.4942 54.012 91.1555 54.5706 91.7741L53.7757 92.4781ZM88.6673 92.1581L87.8509 91.4541C88.4095 90.8142 88.9466 90.1528 89.4623 89.4915L90.3217 90.1315C89.7845 90.8355 89.2259 91.5181 88.6673 92.1581ZM50.5529 88.4035C50.0588 87.6995 49.5861 86.9529 49.1349 86.2276L50.0588 85.6729C50.4885 86.3982 50.9612 87.1022 51.4338 87.8062L50.5529 88.4035ZM91.8256 88.0409L90.9233 87.4435C91.3959 86.7396 91.8471 86.0356 92.2768 85.3102L93.2007 85.8436C92.7924 86.5902 92.3198 87.3369 91.8256 88.0409ZM47.8673 83.9449C47.4591 83.1769 47.0939 82.3876 46.7286 81.5983L47.7169 81.1716C48.0607 81.9396 48.4259 82.7076 48.8127 83.4543L47.8673 83.9449ZM94.4683 83.5609L93.5014 83.0916C93.8882 82.345 94.2319 81.577 94.5757 80.809L95.564 81.2356C95.2202 82.0036 94.855 82.793 94.4683 83.5609ZM45.7618 79.209C45.461 78.3984 45.1817 77.5664 44.9454 76.7557L45.9766 76.4571C46.213 77.2677 46.4923 78.057 46.7716 78.8464L45.7618 79.209ZM96.5093 78.8037L95.4996 78.441C95.7789 77.6517 96.0367 76.8411 96.273 76.0304L97.3043 76.3291C97.0465 77.1397 96.7887 77.9717 96.5093 78.8037ZM44.2793 74.2384C44.086 73.4064 43.9141 72.5531 43.7637 71.6998L44.8165 71.5291C44.9454 72.3611 45.1172 73.1931 45.3106 74.0038L44.2793 74.2384ZM97.9274 73.8118L96.8746 73.5771C97.0465 72.7665 97.2184 71.9131 97.3473 71.0812L98.4 71.2518C98.2711 72.1051 98.0992 72.9585 97.9274 73.8118ZM43.4199 69.1399C43.334 68.2865 43.2695 67.4119 43.2266 66.5586L44.3008 66.5159C44.3438 67.3479 44.4082 68.2012 44.4942 69.0332L43.4199 69.1399ZM98.7223 68.6919L97.6481 68.5852C97.734 67.7532 97.777 66.8999 97.7985 66.0679L98.8727 66.1106C98.8512 66.9639 98.7868 67.8385 98.7223 68.6919ZM44.2578 63.9559H43.1836V61.396H44.2578V63.9559ZM98.8942 63.5293H97.8199V60.9693H98.8942V63.5293ZM44.2578 58.836H43.1836V56.2761H44.2578V58.836ZM98.8942 58.4094H97.8199V55.8494H98.8942V58.4094ZM44.2578 53.7161H43.1836V51.1562H44.2578V53.7161ZM98.8942 53.2895H97.8199V50.7295H98.8942V53.2895ZM44.2578 48.5962H43.1836V46.0362H44.2578V48.5962ZM98.8942 48.1695H97.8199V45.6096H98.8942V48.1695ZM44.2578 43.4763H43.1836V41.8763L43.4844 41.727C43.8711 41.535 44.2364 41.343 44.6016 41.1297L45.1387 42.047C44.8379 42.2176 44.5586 42.367 44.2578 42.5163V43.4763ZM98.8942 43.0496H97.8199V42.559C97.3902 42.3456 96.9605 42.111 96.5308 41.855L97.0894 40.9377C97.5836 41.2363 98.0778 41.4923 98.5934 41.7483L98.8942 41.8976V43.0496ZM47.3517 40.6177L46.6856 39.7644C47.3517 39.2524 47.9747 38.6977 48.5548 38.1217L49.3283 38.8684C48.7052 39.487 48.0392 40.0843 47.3517 40.6177ZM94.3609 40.3403C93.6733 39.7857 93.0288 39.1884 92.4272 38.5484L93.2007 37.8231C93.7808 38.4204 94.3823 38.9964 95.0269 39.5084L94.3609 40.3403ZM51.0471 36.8844L50.1877 36.2444C50.6819 35.5831 51.1545 34.8791 51.5413 34.1538L52.4866 34.6658C52.0784 35.4338 51.5842 36.1804 51.0471 36.8844ZM90.7514 36.5004C90.2357 35.7964 89.7631 35.0284 89.3548 34.2604L90.3002 33.7698C90.6869 34.4951 91.1166 35.2204 91.6108 35.8818L90.7514 36.5004ZM87.5716 34.0471H84.9934V32.9805H87.5716V34.0471ZM82.4152 34.0471H79.837V32.9805H82.4152V34.0471ZM77.2588 34.0471H74.6806V32.9805H77.2588V34.0471ZM72.1024 34.0471H69.5242V32.9805H72.1024V34.0471ZM66.946 34.0471H64.3678V32.9805H66.946V34.0471ZM61.7896 34.0471H59.2114V32.9805H61.7896V34.0471ZM56.6332 34.0471H54.055V32.9805H56.6332V34.0471Z" fill="#EA5045"/>
<path d="M131.379 70.953H121.045C118.488 70.953 116.426 68.8837 116.426 66.3664V56.2119H135.999V66.3451C135.999 68.8837 133.915 70.953 131.379 70.953ZM116.834 56.6172V66.3451C116.834 68.649 118.725 70.505 121.024 70.505H131.358C133.678 70.505 135.547 68.6277 135.547 66.3451V56.6172H116.834Z" fill="#EA5045"/>
<path d="M133.358 56.6179H119.07V51.3913C119.07 47.8074 122.014 44.8848 125.623 44.8848H126.783C130.393 44.8848 133.336 47.8074 133.336 51.3913V56.6179H133.358ZM119.5 56.1912H132.928V51.3913C132.928 48.042 130.178 45.3114 126.805 45.3114H125.645C122.272 45.3114 119.521 48.042 119.521 51.3913V56.1912H119.5Z" fill="#EA5045"/>
<path d="M126.136 64.1243C126.914 64.1243 127.545 63.4933 127.545 62.715C127.545 61.9366 126.914 61.3057 126.136 61.3057C125.358 61.3057 124.727 61.9366 124.727 62.715C124.727 63.4933 125.358 64.1243 126.136 64.1243Z" fill="#EA5045"/>
<path d="M101.946 18.9441H94.7482C92.793 18.9441 91.2031 17.3654 91.2031 15.4241V8.1709H105.491V15.4241C105.491 17.3654 103.901 18.9441 101.946 18.9441ZM91.6543 8.59756V15.4241C91.6543 17.1308 93.0508 18.5174 94.7696 18.5174H101.967C103.686 18.5174 105.082 17.1308 105.082 15.4241V8.59756H91.6543Z" fill="#EA5045"/>
<path d="M103.578 8.59719H93.1367V4.75725C93.1367 2.1333 95.2852 0 97.9279 0H98.7658C101.408 0 103.557 2.1333 103.557 4.75725V8.59719H103.578ZM93.5664 8.17053H103.149V4.75725C103.149 2.36796 101.194 0.426659 98.7658 0.426659H97.9279C95.5216 0.426659 93.5664 2.36796 93.5664 4.75725V8.17053Z" fill="#EA5045"/>
<path d="M98.3555 13.9084C98.8064 13.9084 99.1719 13.5455 99.1719 13.0978C99.1719 12.6501 98.8064 12.2871 98.3555 12.2871C97.9046 12.2871 97.5391 12.6501 97.5391 13.0978C97.5391 13.5455 97.9046 13.9084 98.3555 13.9084Z" fill="#EA5045"/>
<path d="M22.3444 78.1219H4.79115C2.1485 78.1219 0 75.9886 0 73.3646V57.7275H27.1355V73.3646C27.1355 75.9886 24.987 78.1219 22.3444 78.1219ZM0.4297 58.1542V73.3646C0.4297 75.7539 2.38483 77.6952 4.79115 77.6952H22.3444C24.7507 77.6952 26.7058 75.7539 26.7058 73.3646V58.1542H0.4297Z" fill="#EA5045"/>
<path d="M23.44 58.1535H3.69531V50.9429C3.69531 45.9724 7.75598 41.9404 12.762 41.9404H14.3734C19.3794 41.9404 23.44 45.9724 23.44 50.9429V58.1535ZM4.12501 57.7268H23.0103V50.9429C23.0103 46.207 19.143 42.3671 14.3734 42.3671H12.762C7.99231 42.3671 4.12501 46.207 4.12501 50.9429V57.7268Z" fill="#EA5045"/>
<path d="M13.8198 69.9354C15.2261 69.9354 16.3661 68.7923 16.3661 67.3822C16.3661 65.9722 15.2261 64.8291 13.8198 64.8291C12.4135 64.8291 11.2734 65.9722 11.2734 67.3822C11.2734 68.7923 12.4135 69.9354 13.8198 69.9354Z" fill="#EA5045"/>
</g>
<defs>
<clipPath id="clip0">
<rect width="136" height="111.337" fill="white"/>
</clipPath>
</defs>
</svg>
