<svg width="136" height="106" viewBox="0 0 136 106" fill="none" xmlns="http://www.w3.org/2000/svg">
<g clip-path="url(#clip0)">
<path d="M106.181 36.7138L71.2383 58.1973L72.3551 60.0149L107.298 38.5315L106.181 36.7138Z" fill="#EA5045"/>
<path d="M102.681 35.739L100.505 34.3948L101.059 33.4987L103.235 34.8429L102.681 35.739ZM98.3505 33.0293L96.1749 31.6851L96.7294 30.7889L98.9051 32.1332L98.3505 33.0293ZM93.9992 30.3195L91.8235 28.9753L92.3781 28.0792L94.5538 29.4234L93.9992 30.3195ZM89.6479 27.6098L87.4722 26.2656L88.0268 25.3695L90.2025 26.7137L89.6479 27.6098ZM85.3179 24.9001L83.1422 23.5559L83.6968 22.6597L85.8725 24.0039L85.3179 24.9001ZM80.9666 22.1903L78.7909 20.8461L79.3455 19.95L81.5212 21.2942L80.9666 22.1903ZM76.6153 19.4806L74.4609 18.1364L75.0155 17.2402L77.1912 18.5844L76.6153 19.4806Z" fill="#EA5045"/>
<path d="M72.2944 15.5898L37.3516 37.0732L38.4684 38.8909L73.4113 17.4075L72.2944 15.5898Z" fill="#EA5045"/>
<path d="M106.181 79.3847L71.2383 100.868L72.3551 102.686L107.298 81.2024L106.181 79.3847Z" fill="#EA5045"/>
<path d="M103.854 79.137L102.979 78.5822L103.534 77.6861L104.408 78.2409L103.854 79.137ZM100.803 77.2167L98.6277 75.8725L99.1823 74.9764L101.358 76.3206L100.803 77.2167ZM96.4521 74.507L94.2764 73.1628L94.831 72.2666L97.0067 73.6108L96.4521 74.507ZM92.1008 71.8186L89.9251 70.4744L90.4797 69.5782L92.6553 70.9224L92.1008 71.8186ZM87.7708 69.1088L85.5951 67.7646L86.1497 66.8685L88.3254 68.2127L87.7708 69.1088ZM83.4195 66.3991L81.2438 65.0549L81.7984 64.1587L83.974 65.5029L83.4195 66.3991ZM79.0681 63.6893L76.8925 62.3451L77.4471 61.449L79.6227 62.7932L79.0681 63.6893ZM74.7382 60.9796L72.5625 59.6354L73.1171 58.7393L75.2927 60.0835L74.7382 60.9796Z" fill="#EA5045"/>
<path d="M39.9296 80.0333L39.375 79.1158L41.5507 77.7716L42.1052 78.6891L39.9296 80.0333ZM44.3022 77.3449L43.7476 76.4274L45.9233 75.0832L46.4779 76.0007L44.3022 77.3449ZM48.6535 74.6564L48.099 73.739L50.2746 72.3948L50.8292 73.3122L48.6535 74.6564ZM53.0262 71.9894L52.4716 71.0719L54.6473 69.7277L55.2018 70.6452L53.0262 71.9894ZM57.3775 69.301L56.8229 68.3835L58.9986 67.0393L59.5532 67.9568L57.3775 69.301ZM61.7502 66.6126L61.1956 65.6951L63.3712 64.3509L63.9258 65.2684L61.7502 66.6126ZM66.1015 63.9455L65.5469 63.028L67.7226 61.6838L68.2771 62.6013L66.1015 63.9455ZM70.4741 61.2571L69.9195 60.3396L70.8794 59.7422L71.434 60.6597L70.4741 61.2571Z" fill="#EA5045"/>
<path d="M69.28 100.837L67.1043 99.4926L67.6589 98.5965L69.8345 99.9407L69.28 100.837ZM64.9286 98.1271L62.753 96.7829L63.3076 95.8867L65.4832 97.2309L64.9286 98.1271ZM60.5987 95.4173L58.423 94.0731L58.9776 93.177L61.1532 94.5212L60.5987 95.4173ZM56.2473 92.7289L54.0717 91.3847L54.6263 90.4886L56.8019 91.8328L56.2473 92.7289ZM51.896 90.0192L49.7204 88.675L50.2749 87.7789L52.4506 89.1231L51.896 90.0192ZM47.5447 87.3095L45.369 85.9652L45.9236 85.0691L48.0993 86.4133L47.5447 87.3095ZM43.2147 84.5997L41.0391 83.2555L41.5936 82.3594L43.7693 83.7036L43.2147 84.5997Z" fill="#EA5045"/>
<path d="M107.844 37.7236H105.711V80.6101H107.844V37.7236Z" fill="#EA5045"/>
<path d="M38.4142 80.6101H37.3477V78.6898H38.4142V80.6101ZM38.4142 76.1294H37.3477V73.5691H38.4142V76.1294ZM38.4142 71.0087H37.3477V68.4483H38.4142V71.0087ZM38.4142 65.8879H37.3477V63.3275H38.4142V65.8879ZM38.4142 60.7671H37.3477V58.2067H38.4142V60.7671ZM38.4142 55.6463H37.3477V53.086H38.4142V55.6463ZM38.4142 50.5256H37.3477V47.9652H38.4142V50.5256ZM38.4142 45.4048H37.3477V42.8444H38.4142V45.4048ZM38.4142 40.284H37.3477V37.7236H38.4142V40.284Z" fill="#EA5045"/>
<path d="M72.7569 16.3753L72.7344 17.6553L73.8007 17.674L73.8231 16.3941L72.7569 16.3753Z" fill="#EA5045"/>
<path d="M72.3946 97.9562L71.3281 97.9348L71.3708 95.4171L72.4373 95.4385L72.3946 97.9562ZM72.48 92.9421L71.4134 92.9207L71.4561 90.403L72.5226 90.4244L72.48 92.9421ZM72.5866 87.928L71.5201 87.9066L71.5628 85.3889L72.6293 85.4103L72.5866 87.928ZM72.6719 82.8926L71.6054 82.8712L71.6481 80.3535L72.7146 80.3748L72.6719 82.8926ZM72.7573 77.8785L71.6907 77.8571L71.7334 75.3394L72.7999 75.3608L72.7573 77.8785ZM72.8426 72.8644L71.7761 72.843L71.8187 70.3253L72.8852 70.3467L72.8426 72.8644ZM72.9279 67.8503L71.8614 67.8289L71.904 65.3112L72.9706 65.3326L72.9279 67.8503ZM73.0132 62.8362L71.9467 62.8149L71.9894 60.2971L73.0559 60.3185L73.0132 62.8362ZM73.0985 57.8221L72.032 57.8008L72.0747 55.2831L73.1412 55.3044L73.0985 57.8221ZM73.1839 52.808L72.1173 52.7867L72.16 50.269L73.2265 50.2903L73.1839 52.808ZM73.2692 47.7726L72.2027 47.7513L72.2453 45.2335L73.3118 45.2549L73.2692 47.7726ZM73.3758 42.7585L72.3093 42.7372L72.352 40.2194L73.4185 40.2408L73.3758 42.7585ZM73.4612 37.7444L72.3946 37.7231L72.4373 35.2054L73.5038 35.2267L73.4612 37.7444ZM73.5465 32.7303L72.48 32.709L72.5226 30.1913L73.5891 30.2126L73.5465 32.7303ZM73.6318 27.7162L72.5653 27.6949L72.6079 25.1772L73.6745 25.1985L73.6318 27.7162ZM73.7171 22.7021L72.6506 22.6808L72.6933 20.1631L73.7598 20.1844L73.7171 22.7021Z" fill="#EA5045"/>
<path d="M71.2842 100.443L71.2617 101.723L72.328 101.741L72.3505 100.461L71.2842 100.443Z" fill="#EA5045"/>
<path d="M40.7182 38.4733L39.5898 40.2842L68.9887 58.6143L70.1171 56.8035L40.7182 38.4733Z" fill="#EA5045"/>
<path d="M37.8832 84.8764C40.2392 84.8764 42.1492 82.9659 42.1492 80.6091C42.1492 78.2523 40.2392 76.3418 37.8832 76.3418C35.5271 76.3418 33.6172 78.2523 33.6172 80.6091C33.6172 82.9659 35.5271 84.8764 37.8832 84.8764Z" fill="#EA5045"/>
<path d="M71.3715 106C73.7275 106 75.6375 104.09 75.6375 101.733C75.6375 99.3764 73.7275 97.4658 71.3715 97.4658C69.0154 97.4658 67.1055 99.3764 67.1055 101.733C67.1055 104.09 69.0154 106 71.3715 106Z" fill="#EA5045"/>
<path d="M106.778 84.6635C109.134 84.6635 111.044 82.753 111.044 80.3962C111.044 78.0394 109.134 76.1289 106.778 76.1289C104.422 76.1289 102.512 78.0394 102.512 80.3962C102.512 82.753 104.422 84.6635 106.778 84.6635Z" fill="#EA5045"/>
<path d="M106.778 41.9907C109.134 41.9907 111.044 40.0801 111.044 37.7234C111.044 35.3666 109.134 33.4561 106.778 33.4561C104.422 33.4561 102.512 35.3666 102.512 37.7234C102.512 40.0801 104.422 41.9907 106.778 41.9907Z" fill="#EA5045"/>
<path d="M37.8832 41.9907C40.2392 41.9907 42.1492 40.0801 42.1492 37.7234C42.1492 35.3666 40.2392 33.4561 37.8832 33.4561C35.5271 33.4561 33.6172 35.3666 33.6172 37.7234C33.6172 40.0801 35.5271 41.9907 37.8832 41.9907Z" fill="#EA5045"/>
<path d="M73.2894 20.6538C75.6455 20.6538 77.5554 18.7432 77.5554 16.3865C77.5554 14.0297 75.6455 12.1191 73.2894 12.1191C70.9334 12.1191 69.0234 14.0297 69.0234 16.3865C69.0234 18.7432 70.9334 20.6538 73.2894 20.6538Z" fill="#EA5045"/>
<path d="M96.8618 19.9071C97.5686 19.9071 98.1416 19.3339 98.1416 18.6269C98.1416 17.9198 97.5686 17.3467 96.8618 17.3467C96.155 17.3467 95.582 17.9198 95.582 18.6269C95.582 19.3339 96.155 19.9071 96.8618 19.9071Z" fill="#EA5045"/>
<path d="M28.1768 61.0866C29.5904 61.0866 30.7364 59.9403 30.7364 58.5262C30.7364 57.1121 29.5904 55.9658 28.1768 55.9658C26.7632 55.9658 25.6172 57.1121 25.6172 58.5262C25.6172 59.9403 26.7632 61.0866 28.1768 61.0866Z" fill="#EA5045"/>
<path d="M117.334 62.367C118.041 62.367 118.614 61.7939 118.614 61.0868C118.614 60.3798 118.041 59.8066 117.334 59.8066C116.628 59.8066 116.055 60.3798 116.055 61.0868C116.055 61.7939 116.628 62.367 117.334 62.367Z" fill="#EA5045"/>
<path d="M72.223 63.3266C74.5791 63.3266 76.489 61.4161 76.489 59.0593C76.489 56.7025 74.5791 54.792 72.223 54.792C69.867 54.792 67.957 56.7025 67.957 59.0593C67.957 61.4161 69.867 63.3266 72.223 63.3266Z" fill="#EA5045"/>
<path d="M101.448 21.6779L92.0625 16.2585V5.41948L101.448 0L110.833 5.41948V16.2585L101.448 21.6779ZM92.4891 16.0238L101.448 21.1872L110.406 16.0238V5.67552L101.448 0.512077L92.4891 5.67552V16.0238Z" fill="#EA5045"/>
<path d="M101.444 0.277344H101.23V21.4005H101.444V0.277344Z" fill="#EA5045"/>
<path d="M92.2219 5.52601L92.1172 5.71191L110.665 16.1608L110.769 15.9749L92.2219 5.52601Z" fill="#EA5045"/>
<path d="M110.673 5.53209L92.1211 15.9746L92.2257 16.1606L110.778 5.71804L110.673 5.53209Z" fill="#EA5045"/>
<path d="M126.616 72.0324L117.23 66.6129V55.774L126.616 50.3545L136.001 55.774V66.6129L126.616 72.0324ZM117.657 66.3782L126.616 71.5417L135.574 66.3782V56.03L126.616 50.8666L117.657 56.03V66.3782Z" fill="#EA5045"/>
<path d="M126.616 50.6318H126.402V71.755H126.616V50.6318Z" fill="#EA5045"/>
<path d="M117.39 55.8785L117.285 56.0645L135.833 66.5134L135.937 66.3275L117.39 55.8785Z" fill="#EA5045"/>
<path d="M135.841 55.8885L117.289 66.3311L117.394 66.517L135.946 56.0745L135.841 55.8885Z" fill="#EA5045"/>
<path d="M14.2469 74.2085L14.1403 74.1445L0.0625 66.0153V49.6288L14.2683 41.4355L14.3749 41.4996L28.474 49.6288V66.0153L14.2469 74.2085ZM0.4891 65.7806L14.2683 73.7391L28.0474 65.7806V49.8848L14.2683 41.9263L0.4891 49.8635V65.7806Z" fill="#EA5045"/>
<path d="M14.2899 41.7129H13.8633V73.9097H14.2899V41.7129Z" fill="#EA5045"/>
<path d="M0.209333 49.6673L0 50.0391L28.2861 65.9742L28.4954 65.6024L0.209333 49.6673Z" fill="#EA5045"/>
<path d="M28.2835 49.6629L0.00390625 65.6143L0.213452 65.986L28.493 50.0346L28.2835 49.6629Z" fill="#EA5045"/>
</g>
<defs>
<clipPath id="clip0">
<rect width="136" height="106" fill="white"/>
</clipPath>
</defs>
</svg>
