<svg width="102" height="92" viewBox="0 0 102 92" fill="none" xmlns="http://www.w3.org/2000/svg">
<path d="M19.4607 67.1178C18.9936 64.5973 20.2659 62.1689 21.3241 61.2778C19.7433 63.1139 17.1619 62.5421 15.4845 59.484C16.7806 61.4852 15.8789 64.138 13.6211 65.324C16.4873 64.6566 19.0065 65.5963 19.4607 67.1178Z" fill="#C9F4F4"/>
<path d="M78.6638 16.2808C78.1967 13.7604 79.469 11.332 80.5272 10.4409C78.9464 12.277 76.3651 11.7052 74.6876 8.6471C75.9837 10.6483 75.082 13.3011 72.8243 14.487C75.7247 13.8855 78.1775 14.86 78.6638 16.2808Z" fill="#C9F4F4"/>
<path opacity="0.5" d="M38.5 46.5147L42.8422 46.2455L40.3618 50.901L40.3063 54.3666L36.9643 51.8475L38.5 46.5147Z" fill="#693300"/>
<path d="M66.0698 48.5147L70.4791 48.2105L72.6305 54.2893L67.8764 56.3673L64.6003 53.813L66.0698 48.5147Z" fill="#FCA13D"/>
<path opacity="0.7" d="M66.0703 48.5134L70.4789 48.2093L67.9321 52.8995L67.8766 56.3649L64.6011 53.811L66.0703 48.5134Z" fill="#693300"/>
<path d="M67.6358 65.1932L69.841 65.0405L70.9161 68.0792L68.5543 69.0683L66.9002 67.8422L67.6358 65.1932Z" fill="#FCA13D"/>
<path d="M42.4964 35.4853L43.8994 35.4192L44.5598 37.3362L43.0307 37.9716L42.0172 37.1623L42.4964 35.4853Z" fill="#FCA13D"/>
<path d="M14.4026 33.7628L15.8056 33.6967L16.5004 35.6801L14.9712 36.3157L13.9577 35.5062L14.4026 33.7628Z" fill="#FCA13D"/>
<path opacity="0.5" d="M50.9994 47.8797L53.2042 47.727L51.6869 49.362L51.9177 51.7545L50.2639 50.5284L50.9994 47.8797Z" fill="#693300"/>
<path opacity="0.5" d="M25.4098 44.3442L27.9487 44.184L26.811 46.7094L28.0986 48.0446L26.4361 48.7503L24.6128 47.3611L25.4098 44.3442Z" fill="#693300"/>
<path d="M4.73774 38.145L5.9741 38.0817L6.53025 39.8007L5.19936 40.3328L4.32126 39.6211L4.73774 38.145Z" fill="#FCA13D"/>
<path opacity="0.5" d="M4.73774 38.145L5.9741 38.0817L6.53025 39.8007L5.19936 40.3328L4.32126 39.6211L4.73774 38.145Z" fill="#693300"/>
<path d="M50.6812 33.5746L53.5212 33.3379L54.9061 37.2999L51.8443 38.5744L49.6855 37.0292L50.6812 33.5746Z" fill="#FCA13D"/>
<path opacity="0.5" d="M50.6812 33.5746L53.5212 33.3379L54.9061 37.2999L51.8443 38.5744L49.6855 37.0292L50.6812 33.5746Z" fill="#693300"/>
<path d="M29.7611 38.0179L30.4299 38.0013L30.7419 38.926L30.0428 39.2098L29.5372 38.8892L29.7611 38.0179Z" fill="#FCA13D"/>
<path opacity="0.5" d="M29.7611 38.0179L30.4299 38.0013L30.7419 38.926L30.0428 39.2098L29.5372 38.8892L29.7611 38.0179Z" fill="#693300"/>
<path d="M18.9603 40.3857L19.6955 40.3342L20.0074 41.2586L19.242 41.5771L18.7024 41.1909L18.9603 40.3857Z" fill="#FCA13D"/>
<path opacity="0.5" d="M18.9603 40.3857L19.6955 40.3342L20.0074 41.2586L19.242 41.5771L18.7024 41.1909L18.9603 40.3857Z" fill="#693300"/>
</svg>
