<svg width="267" height="201" viewBox="0 0 267 201" fill="none" xmlns="http://www.w3.org/2000/svg">
<path d="M206.887 119.272L258.887 127.672C260.187 127.872 261.487 126.972 261.687 125.672L266.487 95.6723C266.687 94.3723 265.787 93.0723 264.487 92.8723L210.087 84.0723L204.887 116.472C204.687 117.772 205.587 119.072 206.887 119.272Z" fill="#786EDF"/>
<path d="M203.887 122.773L258.287 131.573C259.587 131.773 260.887 130.873 261.087 129.573L265.887 99.5727C266.087 98.2727 265.187 96.9727 263.887 96.7727L209.487 87.9727L203.887 122.773Z" fill="#211B2A"/>
<path d="M237.085 107.972C236.285 112.972 239.685 117.572 244.685 118.472C249.685 119.372 254.285 115.872 255.185 110.872C255.985 105.872 252.585 101.272 247.585 100.372C242.585 99.5725 237.885 102.972 237.085 107.972Z" fill="#786EDF"/>
<path d="M175.285 169.173L20.785 144.272C8.98502 142.372 1.08503 131.272 2.98503 119.572L20.085 15.0725C21.985 3.37249 32.085 -0.82751 43.785 1.07249L198.285 25.9725C209.985 27.8725 217.985 38.8725 216.085 50.6725L199.985 151.272C198.085 163.072 187.085 171.072 175.285 169.173Z" fill="#211B2A"/>
<path d="M166.986 158.872L28.6862 136.572C18.1862 134.872 10.9862 125.172 12.6862 114.872L27.7862 23.0718C29.4862 12.7718 38.4862 9.07183 48.9862 10.7718L187.286 33.0718C197.786 34.7718 204.986 44.4718 203.286 54.7718L188.986 143.272C187.386 153.572 177.486 160.572 166.986 158.872Z" fill="#786EDF"/>
<path d="M168.086 150.873L52.1861 132.173C46.7861 131.273 43.0861 126.173 43.8861 120.773L51.8861 70.9732C52.7861 65.5732 57.8861 61.8732 63.2861 62.6732L179.186 81.3732C184.586 82.2732 188.286 87.3732 187.486 92.7732L179.486 142.573C178.686 148.073 173.586 151.773 168.086 150.873Z" fill="#4522B2"/>
<path d="M161.684 71.5723C152.084 78.4723 138.784 76.3723 131.884 66.7723C124.984 57.1723 127.084 43.8723 136.684 36.9723C146.284 30.0723 159.584 32.1723 166.484 41.7723C173.384 51.3723 171.184 64.6723 161.684 71.5723Z" fill="#FFBF40"/>
<path d="M134.286 64.9718C131.386 60.9718 130.286 56.1718 131.086 51.3718C131.886 46.5718 134.486 42.2718 138.486 39.3718C146.686 33.4718 158.186 35.2718 164.086 43.4718C169.986 51.6718 168.186 63.1718 159.986 69.0718C151.686 75.0718 140.286 73.1718 134.286 64.9718ZM161.786 45.1718C156.786 38.2718 146.986 36.6718 140.086 41.6718C136.686 44.0718 134.486 47.6718 133.886 51.7718C133.186 55.8718 134.186 59.9718 136.586 63.3718C141.586 70.2718 151.286 71.8718 158.286 66.8718C161.686 64.4718 163.886 60.8718 164.486 56.7718C165.186 52.6718 164.186 48.4718 161.786 45.1718Z" fill="#FFDF67"/>
<path d="M139.085 200.072L17.5851 160.172C6.18514 158.372 -1.61486 147.572 0.285136 136.172L20.3851 13.6719L166.285 57.5719C175.385 59.0719 181.585 67.6719 180.185 76.7719L162.985 182.772C161.185 194.172 150.485 201.972 139.085 200.072Z" fill="#211B2A"/>
<path d="M8.88527 147.372C8.88527 147.372 8.78527 147.272 8.78527 147.172C7.88527 145.272 7.38527 143.172 7.48527 141.072C7.48527 140.472 7.98527 140.072 8.48527 140.072C9.08527 140.072 9.48527 140.572 9.48527 141.072C9.38527 142.872 9.78527 144.672 10.5853 146.272C10.7853 146.772 10.5853 147.372 10.0853 147.572C9.78527 147.872 9.18527 147.772 8.88527 147.372ZM15.9853 153.572C15.7853 153.372 15.7853 152.972 15.8853 152.672C16.0853 152.172 16.5853 151.872 17.1853 152.072C17.6853 152.272 18.2853 152.372 18.8853 152.472L22.7853 153.772C23.2853 153.972 23.5853 154.472 23.3853 155.072C23.1853 155.572 22.6853 155.872 22.0853 155.672L18.3853 154.472C17.8853 154.372 17.1853 154.272 16.5853 154.072C16.2853 153.872 16.1853 153.772 15.9853 153.572ZM9.18527 132.172C8.98527 131.972 8.98527 131.672 8.98527 131.472L9.88527 125.772C9.98527 125.272 10.4853 124.872 11.0853 124.972C11.5853 125.072 11.9853 125.572 11.8853 126.172L10.9853 131.872C10.8853 132.372 10.3853 132.772 9.78527 132.672C9.58527 132.472 9.38527 132.372 9.18527 132.172ZM30.7853 158.272C30.5853 157.972 30.5853 157.672 30.6853 157.372C30.8853 156.872 31.3853 156.572 31.9853 156.772L37.4853 158.572C37.9853 158.772 38.2853 159.272 38.0853 159.872C37.8853 160.372 37.3853 160.672 36.7853 160.472L31.2853 158.672C31.0853 158.572 30.8853 158.372 30.7853 158.272ZM11.6853 116.872C11.4853 116.672 11.4853 116.372 11.4853 116.172L12.3853 110.472C12.4853 109.972 12.9853 109.572 13.5853 109.672C14.0853 109.772 14.4853 110.272 14.3853 110.872L13.4853 116.572C13.3853 117.072 12.8853 117.472 12.2853 117.372C12.0853 117.172 11.7853 117.072 11.6853 116.872ZM45.4853 163.072C45.2853 162.772 45.2853 162.472 45.3853 162.172C45.5853 161.672 46.0853 161.372 46.6853 161.572L52.1853 163.372C52.6853 163.572 52.9853 164.072 52.7853 164.672C52.5853 165.172 52.0853 165.472 51.4853 165.272L45.9853 163.472C45.7853 163.372 45.5853 163.272 45.4853 163.072ZM60.1853 167.872C59.9853 167.572 59.9853 167.272 60.0853 166.972C60.2853 166.472 60.7853 166.172 61.3853 166.372L66.8853 168.172C67.3853 168.372 67.6853 168.872 67.4853 169.472C67.2853 169.972 66.7853 170.272 66.1853 170.072L60.6853 168.272C60.4853 168.172 60.3853 168.072 60.1853 167.872ZM14.1853 101.572C13.9853 101.372 13.9853 101.072 13.9853 100.872L14.8853 95.1717C14.9853 94.6717 15.4853 94.2717 16.0853 94.3717C16.5853 94.4717 16.9853 94.9717 16.8853 95.5717L15.9853 101.272C15.8853 101.772 15.3853 102.172 14.7853 102.072C14.4853 101.872 14.2853 101.772 14.1853 101.572ZM74.9853 172.772C74.7853 172.472 74.7853 172.172 74.8853 171.872C75.0853 171.372 75.5853 171.072 76.1853 171.272L81.6853 173.072C82.1853 173.272 82.4853 173.772 82.2853 174.372C82.0853 174.872 81.5853 175.172 80.9853 174.972L75.4853 173.172C75.1853 173.072 75.0853 172.972 74.9853 172.772ZM16.5853 86.2717C16.3853 86.0717 16.3853 85.7717 16.3853 85.5717L17.2853 79.8717C17.3853 79.3717 17.8853 78.9717 18.4853 79.0717C18.9853 79.1717 19.3853 79.6717 19.2853 80.2717L18.3853 85.9717C18.2853 86.4717 17.7853 86.8717 17.1853 86.7717C16.9853 86.5717 16.7853 86.4717 16.5853 86.2717ZM89.6853 177.572C89.4853 177.272 89.4853 176.972 89.5853 176.672C89.7853 176.172 90.2853 175.872 90.8853 176.072L96.3853 177.872C96.8853 178.072 97.1853 178.572 96.9853 179.172C96.7853 179.672 96.2853 179.972 95.6853 179.772L90.1853 177.972C89.9853 177.872 89.7853 177.772 89.6853 177.572ZM19.0853 70.9717C18.8853 70.7717 18.8853 70.4717 18.8853 70.2717L19.7853 64.5717C19.8853 64.0717 20.3853 63.6717 20.9853 63.7717C21.4853 63.8717 21.8853 64.3717 21.7853 64.9717L20.8853 70.6717C20.7853 71.1717 20.2853 71.5717 19.6853 71.4717C19.4853 71.2717 19.1853 71.1717 19.0853 70.9717ZM104.385 182.472C104.185 182.172 104.185 181.872 104.285 181.572C104.485 181.072 104.985 180.772 105.585 180.972L111.085 182.772C111.585 182.972 111.885 183.472 111.685 184.072C111.485 184.572 110.985 184.872 110.385 184.672L104.885 182.872C104.685 182.772 104.485 182.572 104.385 182.472ZM21.4853 55.6717C21.2853 55.4717 21.2853 55.1717 21.2853 54.9717L22.1853 49.2717C22.2853 48.7717 22.7853 48.3717 23.3853 48.4717C23.8853 48.5717 24.2853 49.0717 24.1853 49.6717L23.2853 55.3717C23.1853 55.8717 22.6853 56.2717 22.0853 56.1717C21.8853 55.9717 21.6853 55.8717 21.4853 55.6717ZM119.085 187.272C118.885 186.972 118.885 186.672 118.985 186.372C119.185 185.872 119.685 185.572 120.285 185.772L125.785 187.572C126.285 187.772 126.585 188.272 126.385 188.872C126.185 189.372 125.685 189.672 125.085 189.472L119.585 187.672C119.385 187.572 119.185 187.472 119.085 187.272ZM23.9853 40.3717C23.7853 40.1717 23.7853 39.8717 23.7853 39.6717L24.2853 36.5717C24.4853 35.5717 24.6853 34.6717 25.0853 33.7717C25.2853 33.2717 25.8853 32.9717 26.3853 33.1717C26.8853 33.3717 27.1853 33.9717 26.9853 34.4717C26.6853 35.1717 26.4853 35.9717 26.3853 36.7717L25.8853 39.8717C25.7853 40.3717 25.2853 40.7717 24.6853 40.6717C24.3853 40.6717 24.1853 40.5717 23.9853 40.3717ZM133.785 192.072C133.585 191.772 133.585 191.472 133.685 191.172C133.885 190.672 134.385 190.372 134.985 190.572L140.485 192.372L140.285 192.972V193.372L139.985 194.372C139.885 194.372 139.885 194.372 139.785 194.372L134.285 192.572C134.085 192.372 133.985 192.272 133.785 192.072ZM148.585 191.572C148.285 191.172 148.385 190.472 148.785 190.172C150.185 189.072 151.285 187.672 152.085 186.072C152.285 185.572 152.885 185.372 153.385 185.572C153.885 185.772 154.085 186.372 153.885 186.872C152.985 188.772 151.685 190.472 149.985 191.772C149.585 192.072 148.985 192.072 148.585 191.572ZM31.8853 27.9717C31.8853 27.8717 31.7853 27.8717 31.7853 27.7717C31.5853 27.2717 31.7853 26.6717 32.3853 26.4717C34.2853 25.6717 36.4853 25.3717 38.5853 25.5717C39.1853 25.6717 39.5853 26.0717 39.4853 26.6717C39.3853 27.2717 38.9853 27.6717 38.3853 27.5717C36.5853 27.3717 34.7853 27.6717 33.1853 28.2717C32.5853 28.5717 32.0853 28.3717 31.8853 27.9717ZM46.8853 29.8717C46.6853 29.6717 46.6853 29.2717 46.7853 28.9717C46.9853 28.4717 47.4853 28.1717 48.0853 28.2717L53.6853 29.9717C54.1853 30.1717 54.4853 30.6717 54.3853 31.2717C54.1853 31.7717 53.6853 32.0717 53.0853 31.9717L47.4853 30.2717C47.1853 30.1717 46.9853 30.0717 46.8853 29.8717ZM154.085 177.572C153.885 177.372 153.885 177.072 153.885 176.872L154.785 171.172C154.885 170.672 155.385 170.272 155.985 170.372C156.485 170.472 156.885 170.972 156.785 171.572L155.885 177.272C155.785 177.772 155.285 178.172 154.685 178.072C154.485 177.972 154.285 177.872 154.085 177.572ZM61.6853 34.3717C61.4853 34.1717 61.4853 33.7717 61.5853 33.4717C61.7853 32.9717 62.2853 32.6717 62.8853 32.7717L68.4853 34.4717C68.9853 34.6717 69.2853 35.1717 69.1853 35.7717C68.9853 36.2717 68.4853 36.5717 67.8853 36.4717L62.2853 34.7717C61.9853 34.6717 61.7853 34.5717 61.6853 34.3717ZM156.585 162.272C156.385 162.072 156.385 161.772 156.385 161.572L157.285 155.872C157.385 155.372 157.885 154.972 158.485 155.072C158.985 155.172 159.385 155.672 159.285 156.272L158.385 161.972C158.285 162.472 157.785 162.872 157.185 162.772C156.985 162.672 156.785 162.572 156.585 162.272ZM76.4853 38.8717C76.2853 38.6717 76.2853 38.2717 76.3853 37.9717C76.5853 37.4717 77.0853 37.1717 77.6853 37.2717L83.2853 38.9717C83.7853 39.1717 84.0853 39.6717 83.9853 40.2717C83.7853 40.7717 83.2853 41.0717 82.6853 40.9717L76.9853 39.2717C76.7853 39.1717 76.5853 39.0717 76.4853 38.8717ZM159.085 146.972C158.885 146.772 158.885 146.472 158.885 146.272L159.785 140.572C159.885 140.072 160.385 139.672 160.985 139.772C161.485 139.872 161.885 140.372 161.785 140.972L160.885 146.672C160.785 147.172 160.285 147.572 159.685 147.472C159.385 147.372 159.185 147.272 159.085 146.972ZM91.2853 43.3717C91.0853 43.1717 91.0853 42.7717 91.1853 42.4717C91.3853 41.9717 91.8853 41.6717 92.4853 41.7717L98.0853 43.4717C98.5853 43.6717 98.8853 44.1717 98.7853 44.7717C98.5853 45.2717 98.0853 45.5717 97.4853 45.4717L91.8853 43.7717C91.5853 43.6717 91.4853 43.5717 91.2853 43.3717ZM161.485 131.772C161.285 131.572 161.285 131.272 161.285 131.072L162.185 125.372C162.285 124.872 162.785 124.472 163.385 124.572C163.885 124.672 164.285 125.172 164.185 125.772L163.285 131.472C163.185 131.972 162.685 132.372 162.085 132.272C161.885 132.072 161.685 131.972 161.485 131.772ZM106.185 47.8717C105.985 47.6717 105.985 47.2717 106.085 46.9717C106.285 46.4717 106.785 46.1717 107.385 46.2717L112.985 47.9717C113.485 48.1717 113.785 48.6717 113.685 49.2717C113.485 49.7717 112.985 50.0717 112.385 49.9717L106.785 48.2717C106.485 48.1717 106.285 48.0717 106.185 47.8717ZM163.985 116.472C163.785 116.272 163.785 115.972 163.785 115.772L164.685 110.072C164.785 109.572 165.285 109.172 165.885 109.272C166.385 109.372 166.785 109.872 166.685 110.472L165.785 116.172C165.685 116.672 165.185 117.072 164.585 116.972C164.385 116.772 164.085 116.672 163.985 116.472ZM120.985 52.3717C120.785 52.1717 120.785 51.7717 120.885 51.4717C121.085 50.9717 121.585 50.6717 122.185 50.7717L127.785 52.4717C128.285 52.6717 128.585 53.1717 128.485 53.7717C128.285 54.2717 127.785 54.5717 127.185 54.4717L121.585 52.7717C121.285 52.6717 121.085 52.5717 120.985 52.3717ZM166.485 101.172C166.285 100.972 166.285 100.672 166.285 100.472L167.185 94.7717C167.285 94.2717 167.785 93.8717 168.385 93.9717C168.885 94.0717 169.285 94.5717 169.185 95.1717L168.285 100.872C168.185 101.372 167.685 101.772 167.085 101.672C166.785 101.472 166.585 101.372 166.485 101.172ZM135.785 56.8717C135.585 56.6717 135.585 56.2717 135.685 55.9717C135.885 55.4717 136.385 55.1717 136.985 55.2717L142.585 56.9717C143.085 57.1717 143.385 57.6717 143.285 58.2717C143.085 58.7717 142.585 59.0717 141.985 58.9717L136.385 57.2717C136.085 57.1717 135.985 56.9717 135.785 56.8717ZM150.685 61.3717C150.485 61.1717 150.485 60.7717 150.585 60.4717C150.785 59.9717 151.285 59.6717 151.885 59.7717L157.485 61.4717C157.985 61.6717 158.285 62.1717 158.185 62.7717C157.985 63.2717 157.485 63.5717 156.885 63.4717L151.285 61.7717C150.985 61.6717 150.785 61.4717 150.685 61.3717ZM168.885 85.8717C168.685 85.6717 168.685 85.3717 168.685 85.1717L169.585 79.4717C169.685 78.9717 170.185 78.5717 170.785 78.6717C171.285 78.7717 171.685 79.2717 171.585 79.8717L170.685 85.5717C170.585 86.0717 170.085 86.4717 169.485 86.3717C169.285 86.1717 169.085 86.0717 168.885 85.8717ZM165.285 66.2717C165.085 65.9717 164.985 65.4717 165.285 65.0717C165.585 64.5717 166.185 64.4717 166.685 64.8717C168.385 66.0717 169.785 67.6717 170.785 69.5717C171.085 70.0717 170.885 70.6717 170.385 70.9717C169.885 71.2717 169.285 70.9717 168.985 70.5717C168.185 68.9717 166.985 67.5717 165.585 66.5717C165.385 66.4717 165.285 66.3717 165.285 66.2717Z" fill="#786EDF"/>
<path d="M128.084 178.572L16.1836 143.972L34.8836 33.2725L157.684 70.8725C160.984 71.7725 163.084 75.0725 162.484 78.4725L148.084 165.972C146.684 175.272 137.284 181.272 128.084 178.572Z" fill="url(#paint0_linear)"/>
<path d="M190.586 28.9726C190.486 29.8726 159.086 25.5726 120.586 19.3726C82.0862 13.1726 50.9862 7.37257 51.0862 6.47257C51.1862 5.57257 82.5862 9.87257 121.086 16.0726C159.586 22.2726 190.686 28.0726 190.586 28.9726Z" fill="url(#paint1_linear)"/>
<defs>
<linearGradient id="paint0_linear" x1="163.614" y1="76.1591" x2="89.8099" y2="104.474" gradientUnits="userSpaceOnUse">
<stop stop-color="#745C9B"/>
<stop offset="0.8104" stop-color="#211B2A"/>
</linearGradient>
<linearGradient id="paint1_linear" x1="54.1134" y1="8.38389" x2="81.0027" y2="-36.569" gradientUnits="userSpaceOnUse">
<stop stop-color="#211B2A"/>
<stop offset="0.4749" stop-color="#745C9B"/>
<stop offset="1" stop-color="#211B2A"/>
</linearGradient>
</defs>
</svg>
