<svg width="399" height="131" viewBox="0 0 399 131" fill="none" xmlns="http://www.w3.org/2000/svg">
<path d="M19.4607 67.1178C18.9936 64.5973 20.2659 62.1689 21.3241 61.2778C19.7433 63.1139 17.1619 62.5421 15.4845 59.484C16.7806 61.4852 15.8789 64.138 13.6211 65.324C16.4873 64.6566 19.0065 65.5963 19.4607 67.1178Z" fill="#C9F4F4"/>
<path d="M78.6638 16.2808C78.1967 13.7604 79.469 11.332 80.5272 10.4409C78.9464 12.277 76.3651 11.7052 74.6876 8.6471C75.9837 10.6483 75.082 13.3011 72.8243 14.487C75.7247 13.8855 78.1775 14.86 78.6638 16.2808Z" fill="#C9F4F4"/>
<path opacity="0.5" d="M38.5 46.5147L42.8422 46.2455L40.3618 50.901L40.3063 54.3666L36.9643 51.8475L38.5 46.5147Z" fill="#693300"/>
<path d="M66.0698 48.5147L70.4791 48.2105L72.6305 54.2893L67.8764 56.3673L64.6003 53.813L66.0698 48.5147Z" fill="#FCA13D"/>
<path opacity="0.7" d="M66.0703 48.5134L70.4789 48.2093L67.9321 52.8995L67.8766 56.3649L64.6011 53.811L66.0703 48.5134Z" fill="#693300"/>
<path d="M67.6358 65.1932L69.841 65.0405L70.9161 68.0792L68.5543 69.0683L66.9002 67.8422L67.6358 65.1932Z" fill="#FCA13D"/>
<path d="M42.4964 35.4853L43.8994 35.4192L44.5598 37.3362L43.0307 37.9716L42.0172 37.1623L42.4964 35.4853Z" fill="#FCA13D"/>
<path d="M14.4026 33.7628L15.8056 33.6967L16.5004 35.6801L14.9712 36.3157L13.9577 35.5062L14.4026 33.7628Z" fill="#FCA13D"/>
<path opacity="0.5" d="M50.9994 47.8797L53.2042 47.727L51.6869 49.362L51.9177 51.7545L50.2639 50.5284L50.9994 47.8797Z" fill="#693300"/>
<path opacity="0.5" d="M25.4098 44.3442L27.9487 44.184L26.811 46.7094L28.0986 48.0446L26.4361 48.7503L24.6128 47.3611L25.4098 44.3442Z" fill="#693300"/>
<path d="M4.73774 38.145L5.9741 38.0817L6.53025 39.8007L5.19936 40.3328L4.32126 39.6211L4.73774 38.145Z" fill="#FCA13D"/>
<path opacity="0.5" d="M4.73774 38.145L5.9741 38.0817L6.53025 39.8007L5.19936 40.3328L4.32126 39.6211L4.73774 38.145Z" fill="#693300"/>
<path d="M50.6812 33.5746L53.5212 33.3379L54.9061 37.2999L51.8443 38.5744L49.6855 37.0292L50.6812 33.5746Z" fill="#FCA13D"/>
<path opacity="0.5" d="M50.6812 33.5746L53.5212 33.3379L54.9061 37.2999L51.8443 38.5744L49.6855 37.0292L50.6812 33.5746Z" fill="#693300"/>
<path d="M29.7611 38.0179L30.4299 38.0013L30.7419 38.926L30.0428 39.2098L29.5372 38.8892L29.7611 38.0179Z" fill="#FCA13D"/>
<path opacity="0.5" d="M29.7611 38.0179L30.4299 38.0013L30.7419 38.926L30.0428 39.2098L29.5372 38.8892L29.7611 38.0179Z" fill="#693300"/>
<path d="M18.9603 40.3857L19.6955 40.3342L20.0074 41.2586L19.242 41.5771L18.7024 41.1909L18.9603 40.3857Z" fill="#FCA13D"/>
<path opacity="0.5" d="M18.9603 40.3857L19.6955 40.3342L20.0074 41.2586L19.242 41.5771L18.7024 41.1909L18.9603 40.3857Z" fill="#693300"/>
<path d="M314.384 49.9536C313.165 54.04 309.466 56.654 307.242 57.159C310.946 55.6579 314.298 58.4864 314.448 64.2977C314.059 60.3424 317.384 57.1118 321.59 57.0922C316.884 55.8775 313.901 52.5527 314.384 49.9536Z" fill="#C9F4F4"/>
<path d="M188.493 79.7134C187.275 83.7998 183.575 86.4138 181.351 86.9188C185.055 85.4176 188.408 88.2462 188.557 94.0574C188.168 90.1022 191.494 86.8716 195.7 86.852C190.993 85.5137 188.133 82.1882 188.493 79.7134Z" fill="#C9F4F4"/>
<path opacity="0.5" d="M270.673 65.8572L264.104 62.92L271.256 57.9403L273.955 52.8578L276.952 59.1504L270.673 65.8572Z" fill="#693300"/>
<path d="M231.605 41.9171L224.913 38.9804L226.35 28.3388L234.887 28.9174L237.76 35.2108L231.605 41.9171Z" fill="#FCA13D"/>
<path opacity="0.7" d="M231.605 41.9171L224.913 38.9805L232.189 34.0003L234.887 28.9177L237.76 35.2109L231.605 41.9171Z" fill="#693300"/>
<path d="M242.004 16.1475L238.657 14.6794L239.376 9.35945L243.584 9.71078L245.082 12.7949L242.004 16.1475Z" fill="#FCA13D"/>
<path d="M256.388 79.0322L254.281 78.0528L254.761 74.7121L257.483 74.9467L258.358 76.921L256.388 79.0322Z" fill="#FCA13D"/>
<path d="M296.443 102.966L294.335 101.986L294.815 98.5218L297.537 98.7565L298.412 100.731L296.443 102.966Z" fill="#FCA13D"/>
<path opacity="0.5" d="M253.305 54.3096L249.958 52.8414L253.417 51.5889L254.884 47.8726L256.383 50.9568L253.305 54.3096Z" fill="#693300"/>
<path opacity="0.5" d="M288.296 79.0114L284.453 77.2982L288.028 74.4375L287.149 71.4739L290.119 71.7074L291.742 75.1621L288.296 79.0114Z" fill="#693300"/>
<path d="M314.008 103.877L312.149 103.02L312.631 100.051L314.982 100.287L315.732 102.014L314.008 103.877Z" fill="#FCA13D"/>
<path opacity="0.5" d="M314.008 103.877L312.149 103.02L312.631 100.051L314.982 100.287L315.732 102.014L314.008 103.877Z" fill="#693300"/>
<path d="M242.888 75.6307L238.551 73.7968L239.51 66.8682L244.955 67.3369L246.952 71.2839L242.888 75.6307Z" fill="#FCA13D"/>
<path opacity="0.5" d="M242.888 75.6307L238.551 73.7968L239.51 66.8682L244.955 67.3369L246.952 71.2839L242.888 75.6307Z" fill="#693300"/>
<path d="M277.064 84.9972L276.072 84.5074L276.313 82.899L277.55 83.0167L278.049 83.8798L277.064 84.9972Z" fill="#FCA13D"/>
<path opacity="0.5" d="M277.064 84.9972L276.072 84.5074L276.313 82.899L277.55 83.0167L278.049 83.8798L277.064 84.9972Z" fill="#693300"/>
<path d="M294.774 89.7398L293.658 89.2506L293.898 87.6424L295.26 87.7595L295.759 88.7461L294.774 89.7398Z" fill="#FCA13D"/>
<path opacity="0.5" d="M294.774 89.7398L293.658 89.2506L293.898 87.6424L295.26 87.7595L295.759 88.7461L294.774 89.7398Z" fill="#693300"/>
<path d="M375.57 85.6814C369.209 71.4265 359.378 61.8584 352.198 64.964C352.018 65.0828 348.717 66.5236 348.536 66.6425C341.901 70.1734 344.611 82.5469 350.862 96.404C356.955 109.947 364.628 119.943 371.74 118.136C372.138 118.031 374.993 116.779 375.306 116.625C382.486 113.519 381.979 99.8525 375.57 85.6814Z" fill="#E2A700"/>
<path d="M349.096 97.1938C355.445 111.462 365.487 120.873 371.524 118.214C377.562 115.556 377.309 101.834 370.961 87.566C364.612 73.298 354.57 63.8867 348.533 66.5453C342.495 69.204 342.748 82.9257 349.096 97.1938Z" fill="#FFBF40"/>
<path d="M373.841 104.434C374.391 109.766 373.466 114.136 370.346 115.458C364.371 118.031 355.805 107.633 350.807 96.505C345.93 85.5586 343.954 72.4948 349.928 69.921C355.903 67.3472 364.348 77.5646 369.273 88.4272C371.656 93.7015 373.402 99.4999 373.841 104.434ZM348.76 80.6146C349.149 84.8508 350.615 90.1538 353.083 95.477C357.996 106.556 365.674 114.771 369.421 113.141C373.119 111.596 372.042 100.499 367.044 89.3714C362.083 78.3762 354.695 70.4402 350.949 72.0698C348.986 72.944 348.297 76.1132 348.76 80.6146Z" fill="#FFDF67"/>
<path d="M168.322 27.1689C160.121 38.3051 157.1 50.0455 162.711 54.1891C162.884 54.2754 165.474 56.1746 165.646 56.261C171.344 59.8003 179.717 52.2899 187.659 41.4128C195.429 30.7947 199.745 20.5218 195.17 15.8602C194.911 15.6012 192.666 13.961 192.407 13.7883C186.796 9.64467 176.437 16.0328 168.322 27.1689Z" fill="#E2A700"/>
<path d="M189.069 42.4833C197.245 31.3324 200.007 19.459 195.239 15.9633C190.471 12.4676 179.978 18.6733 171.803 29.8242C163.628 40.9751 160.865 52.8485 165.633 56.3442C170.401 59.8399 180.894 53.6342 189.069 42.4833Z" fill="#FFBF40"/>
<path d="M183.603 20.2628C187.488 17.5004 191.287 16.2918 193.704 18.1046C198.365 21.5577 194.135 32.6938 187.747 41.4128C181.445 49.9591 172.208 57.2105 167.547 53.7575C162.885 50.3044 167.029 39.3409 173.244 30.7946C176.266 26.651 179.978 22.7663 183.603 20.2628ZM176.352 49.9591C179.46 47.8009 182.913 44.3479 185.934 40.1179C192.322 31.4852 195.258 21.9893 192.322 19.8312C189.474 17.673 181.359 23.3706 174.971 32.0895C168.669 40.7222 165.82 49.8728 168.755 52.0309C170.309 53.1532 173.072 52.2899 176.352 49.9591Z" fill="#FFDF67"/>
<path d="M115.341 99.9753C122.216 93.101 122.216 81.9556 115.341 75.0813C108.467 68.207 97.3214 68.207 90.4471 75.0813C83.5728 81.9556 83.5728 93.101 90.4471 99.9753C97.3214 106.85 108.467 106.85 115.341 99.9753Z" fill="#FFBF40"/>
<path d="M102.886 102.567C94.4727 102.567 87.7422 95.8367 87.7422 87.5529C87.7422 83.5405 89.2954 79.7869 92.1429 76.8099C94.9905 73.8329 98.744 72.4092 102.756 72.4092C106.769 72.4092 110.523 73.9624 113.37 76.8099C116.218 79.6575 117.771 83.411 117.771 87.4235C117.9 95.8367 111.17 102.567 102.886 102.567ZM102.886 74.739C99.5206 74.739 96.2848 76.0333 93.8256 78.4926C91.3663 80.9518 90.072 84.1876 90.072 87.5529C90.072 94.5423 95.7671 100.367 102.886 100.367C109.875 100.367 115.7 94.6718 115.7 87.5529C115.7 84.1876 114.406 80.9518 111.946 78.4926C109.487 76.0333 106.251 74.739 102.886 74.739Z" fill="#FFDF67"/>
<path d="M286.931 65.5645C295.018 57.477 295.018 44.3648 286.931 36.2773C278.843 28.1899 265.731 28.1899 257.644 36.2773C249.556 44.3648 249.556 57.477 257.644 65.5645C265.731 73.6519 278.843 73.6519 286.931 65.5645Z" fill="#FFBF40"/>
<path d="M272.277 68.6148C262.379 68.6148 254.461 60.6965 254.461 50.9509C254.461 46.2304 256.288 41.8144 259.638 38.3121C262.988 34.8098 267.404 33.1348 272.125 33.1348C276.845 33.1348 281.261 34.9621 284.611 38.3121C287.961 41.6622 289.789 46.0781 289.789 50.7987C289.941 60.6965 282.023 68.6148 272.277 68.6148ZM272.277 35.8757C268.318 35.8757 264.511 37.3985 261.618 40.2917C258.725 43.1849 257.202 46.9918 257.202 50.9509C257.202 59.1738 263.902 66.0261 272.277 66.0261C280.5 66.0261 287.352 59.326 287.352 50.9509C287.352 46.9918 285.83 43.1849 282.936 40.2917C280.043 37.3985 276.236 35.8757 272.277 35.8757Z" fill="#FFDF67"/>
</svg>
