<svg width="236" height="213" viewBox="0 0 236 213" fill="none" xmlns="http://www.w3.org/2000/svg">
<path d="M214.394 142.97L64.0351 190.596C52.6011 194.15 40.58 187.961 36.942 176.675L5.92177 76.0365C2.46558 64.7344 9.68361 56.4755 21.1175 52.9214L171.477 5.29592C182.911 1.74182 194.932 7.93057 198.57 19.2166L228.746 116.121C232.188 127.243 225.828 139.416 214.394 142.97Z" fill="#211B2A"/>
<path d="M17.7689 63.6425C15.6329 64.3747 14.3511 66.66 15.0665 68.7683C15.7818 70.8766 18.0742 72.1212 20.2102 71.3889L166.105 25.1571C177.162 21.6433 187.304 22.735 191.962 37.7049L216.728 117.31C217.444 119.418 219.54 120.499 221.676 119.767C223.812 119.035 224.927 116.945 224.211 114.837L197.495 29.0706C194.043 17.7943 185.066 10.6272 169.541 15.4419L17.7689 63.6425Z" fill="#4522B2"/>
<path d="M219.894 89.3083L211.654 101.508L201.07 67.8524L210.525 59.3684L219.894 89.3083Z" fill="#786EDF"/>
<path d="M221.114 93.0346L212.869 105.236L202.278 71.5749L210.523 59.373L221.114 93.0346Z" fill="#211B2A"/>
<path d="M209.312 162.917L68.6011 207.455C57.5177 210.988 45.6904 204.985 42.2731 194.059L6.15296 76.2775L170.64 24.1664C179.583 21.3694 188.932 26.1455 191.635 34.9616L223.218 136.845C226.621 147.591 220.396 159.384 209.312 162.917Z" fill="#211B2A"/>
<path d="M55.3958 200.338C53.464 199.062 52.05 197.378 51.1678 195.464C50.9438 194.94 51.0836 194.384 51.6154 194.155C52.1472 193.926 52.7071 194.057 52.9312 194.58C53.7853 196.134 55.0033 197.656 56.3612 198.621C56.7531 198.948 56.9772 199.471 56.6554 200.044C56.5015 200.42 55.9557 200.469 55.3958 200.338ZM64.8857 202.203C64.6897 202.04 64.4937 201.876 64.2837 201.533C64.2416 200.993 64.5634 200.42 65.1092 200.371C65.4731 200.338 65.8229 200.126 66.1868 200.093L70.6513 198.604C71.1831 198.375 71.757 198.686 71.9811 199.21C72.2051 199.733 71.8833 200.306 71.3515 200.535L66.8871 202.023C66.5372 202.236 65.9914 202.285 65.6275 202.318C65.2636 202.35 65.0817 202.367 64.8857 202.203ZM48.6465 186.63C48.4505 186.467 48.2546 186.303 48.2405 186.123L46.5177 180.48C46.2937 179.956 46.6154 179.384 47.1472 179.155C47.679 178.926 48.253 179.237 48.477 179.76L50.1998 185.404C50.4239 185.927 50.1021 186.5 49.5703 186.729C49.2064 186.761 48.8425 186.794 48.6465 186.63ZM80.0985 197.574C79.9025 197.41 79.7065 197.247 79.6925 197.067C79.4684 196.543 79.7902 195.971 80.322 195.742L86.0461 193.959C86.5779 193.73 87.1518 194.041 87.3759 194.564C87.5999 195.087 87.2781 195.66 86.7463 195.889L81.0223 197.672C80.4764 197.721 80.2805 197.558 80.0985 197.574ZM43.9964 171.646C43.8004 171.483 43.6044 171.319 43.5904 171.139L41.8676 165.496C41.6435 164.972 41.9653 164.4 42.4971 164.171C43.0289 163.942 43.6028 164.253 43.8269 164.776L45.5497 170.42C45.7737 170.943 45.452 171.516 44.9202 171.745C44.5563 171.777 44.1924 171.81 43.9964 171.646ZM95.1154 192.781C94.9194 192.617 94.7234 192.454 94.7094 192.274C94.4853 191.75 94.8071 191.178 95.3389 190.949L101.063 189.166C101.595 188.937 102.169 189.248 102.393 189.771C102.617 190.295 102.295 190.867 101.763 191.096L96.0392 192.879C95.6753 192.912 95.4793 192.748 95.1154 192.781ZM39.3463 156.662C39.1503 156.499 38.9543 156.335 38.9402 156.155L37.2174 150.512C36.9934 149.988 37.3152 149.416 37.847 149.187C38.3788 148.958 38.9527 149.269 39.1767 149.792L40.8996 155.436C41.1236 155.959 40.8018 156.532 40.27 156.761C39.9061 156.793 39.5422 156.826 39.3463 156.662ZM110.314 187.972C110.118 187.808 109.922 187.645 109.908 187.465C109.684 186.941 110.006 186.369 110.538 186.14L116.262 184.357C116.794 184.128 117.367 184.438 117.592 184.962C117.816 185.485 117.494 186.058 116.962 186.287L111.042 187.906C110.874 188.103 110.496 187.955 110.314 187.972ZM34.7102 141.858C34.5142 141.695 34.3182 141.531 34.3041 141.351L32.5813 135.708C32.3573 135.184 32.6791 134.612 33.2109 134.383C33.7427 134.154 34.3166 134.465 34.5406 134.988L36.2635 140.632C36.4875 141.155 36.1657 141.728 35.6339 141.957C35.27 141.989 34.8921 141.842 34.7102 141.858ZM125.513 183.163C125.317 182.999 125.121 182.835 125.107 182.655C124.883 182.132 125.205 181.559 125.737 181.33L131.461 179.547C131.992 179.318 132.566 179.629 132.79 180.153C133.014 180.676 132.693 181.249 132.161 181.478L126.437 183.261C125.891 183.31 125.695 183.146 125.513 183.163ZM30.06 126.874C29.864 126.711 29.6681 126.547 29.654 126.367L27.9312 120.724C27.7071 120.2 28.0289 119.628 28.5607 119.399C29.0925 119.17 29.6665 119.481 29.8905 120.004L31.6133 125.648C31.8374 126.171 31.5156 126.744 30.9838 126.973C30.6199 127.005 30.256 127.038 30.06 126.874ZM140.53 178.37C140.334 178.206 140.138 178.042 140.124 177.863C139.9 177.339 140.222 176.767 140.753 176.538L146.477 174.754C147.009 174.525 147.583 174.836 147.807 175.36C148.031 175.883 147.709 176.456 147.178 176.685L141.454 178.468C141.09 178.5 140.894 178.337 140.53 178.37ZM25.4099 111.89C25.2139 111.727 25.0179 111.563 25.0039 111.383L23.2811 105.74C23.057 105.216 23.3788 104.644 23.9106 104.415C24.4424 104.186 25.0163 104.497 25.2404 105.02L26.9632 110.664C27.1872 111.187 26.8655 111.76 26.3337 111.989C25.9698 112.021 25.6059 112.054 25.4099 111.89ZM155.729 173.56C155.533 173.397 155.337 173.233 155.323 173.053C155.099 172.53 155.42 171.957 155.952 171.728L161.676 169.945C162.208 169.716 162.782 170.027 163.006 170.55C163.23 171.074 162.908 171.646 162.376 171.875L156.652 173.659C156.289 173.691 155.911 173.544 155.729 173.56ZM20.7738 97.0865C20.5778 96.9229 20.3818 96.7593 20.3678 96.5794L18.9111 91.9991C18.8831 91.6392 18.673 91.2957 18.645 90.9358C18.6029 90.396 18.9246 89.8235 19.4705 89.7744C20.0163 89.7253 20.5902 90.0361 20.6323 90.576C20.6604 90.9358 20.8704 91.2793 20.8845 91.4593L22.3411 96.0395C22.5652 96.563 22.2434 97.1355 21.7116 97.3645C21.3337 97.2173 21.1377 97.0537 20.7738 97.0865ZM170.927 168.751C170.731 168.588 170.535 168.424 170.521 168.244C170.297 167.721 170.619 167.148 171.151 166.919L176.875 165.136C177.407 164.907 177.981 165.218 178.205 165.741C178.429 166.265 178.107 166.837 177.575 167.066L171.851 168.849C171.487 168.882 171.123 168.915 170.927 168.751ZM21.0643 82.0207C20.4904 81.7099 20.4342 80.9901 20.7701 80.5976C22.0993 78.8472 23.6386 77.4405 25.5698 76.3608C26.1016 76.1318 26.6615 76.2627 26.8855 76.7861C27.1096 77.3096 26.9698 77.8658 26.438 78.0948C24.8566 78.9618 23.4852 80.1722 22.3239 81.7263C21.9881 82.1188 21.4563 82.3479 21.0643 82.0207ZM186.126 163.942C185.93 163.778 185.734 163.615 185.72 163.435C185.496 162.911 185.818 162.339 186.35 162.11L192.074 160.327C192.606 160.098 193.18 160.409 193.404 160.932C193.628 161.455 193.306 162.028 192.774 162.257L187.05 164.04C186.504 164.089 186.322 164.105 186.126 163.942ZM34.9889 74.9704C34.793 74.8068 34.597 74.6432 34.5829 74.4633C34.3589 73.9398 34.6807 73.3673 35.2125 73.1383L40.9365 71.3553C41.4683 71.1263 42.0422 71.4371 42.2663 71.9605C42.4904 72.484 42.1686 73.0565 41.6368 73.2855L35.7308 75.0849C35.3669 75.1176 35.1849 75.134 34.9889 74.9704ZM201.143 159.149C200.947 158.985 200.751 158.822 200.737 158.642C200.513 158.118 200.835 157.546 201.367 157.317L207.091 155.534C207.623 155.305 208.196 155.616 208.421 156.139C208.645 156.663 208.323 157.235 207.791 157.464L207.609 157.48L201.885 159.263C201.703 159.28 201.339 159.313 201.143 159.149ZM50.0058 70.1775C49.8098 70.0139 49.6138 69.8503 49.5998 69.6704C49.3757 69.1469 49.6975 68.5744 50.2293 68.3454L55.9534 66.5624C56.4852 66.3334 57.0591 66.6442 57.2832 67.1676C57.5072 67.6911 57.1854 68.2636 56.6536 68.4926L50.9296 70.2756C50.5657 70.3084 50.2018 70.3411 50.0058 70.1775ZM214.242 150.905C213.85 150.577 213.626 150.054 213.78 149.678C214.563 147.976 214.968 146.128 214.842 144.509C214.8 143.969 215.318 143.56 215.864 143.511C216.409 143.462 216.815 143.969 216.858 144.509C217.026 146.668 216.453 148.713 215.697 150.774C215.347 150.986 214.816 151.215 214.242 150.905ZM65.2046 65.3682C65.0086 65.2047 64.8126 65.0411 64.7986 64.8611C64.5745 64.3377 64.8963 63.7652 65.4281 63.5361L71.1522 61.7531C71.684 61.5241 72.2579 61.8349 72.482 62.3584C72.706 62.8818 72.3842 63.4544 71.8524 63.6834L66.1284 65.4664C65.7645 65.4991 65.4006 65.5318 65.2046 65.3682ZM212.881 135.806C212.685 135.642 212.489 135.479 212.475 135.299L210.752 129.655C210.528 129.132 210.85 128.559 211.381 128.33C211.913 128.101 212.487 128.412 212.711 128.936L214.434 134.579C214.658 135.103 214.336 135.675 213.804 135.904C213.441 135.937 213.077 135.97 212.881 135.806ZM80.4034 60.559C80.2074 60.3954 80.0114 60.2318 79.9974 60.0519C79.7734 59.5284 80.0951 58.9559 80.627 58.7269L86.351 56.9439C86.8828 56.7149 87.4567 57.0257 87.6808 57.5491C87.9048 58.0726 87.5831 58.6451 87.0512 58.8741L81.3272 60.6571C80.7813 60.7062 80.5994 60.7226 80.4034 60.559ZM208.231 120.822C208.035 120.659 207.839 120.495 207.825 120.315L206.102 114.671C205.878 114.148 206.199 113.575 206.731 113.346C207.263 113.117 207.837 113.428 208.061 113.952L209.784 119.595C210.008 120.119 209.686 120.691 209.154 120.92C208.79 120.953 208.427 120.986 208.231 120.822ZM95.4203 55.7661C95.2243 55.6025 95.0283 55.4389 95.0143 55.259C94.7902 54.7355 95.112 54.163 95.6438 53.934L101.368 52.151C101.9 51.922 102.474 52.2328 102.698 52.7562C102.922 53.2797 102.6 53.8522 102.068 54.0812L96.3441 55.8642C95.9802 55.897 95.7982 55.9133 95.4203 55.7661ZM203.58 105.838C203.384 105.675 203.188 105.511 203.174 105.331L201.452 99.6875C201.228 99.164 201.549 98.5915 202.081 98.3625C202.613 98.1335 203.187 98.4443 203.411 98.9677L205.134 104.611C205.358 105.135 205.036 105.707 204.504 105.936C204.14 105.969 203.776 106.002 203.58 105.838ZM110.619 50.9568C110.423 50.7933 110.227 50.6297 110.213 50.4497C109.989 49.9263 110.311 49.3538 110.843 49.1247L116.567 47.3417C117.098 47.1127 117.672 47.4235 117.896 47.947C118.121 48.4704 117.799 49.043 117.267 49.272L111.543 51.055C111.179 51.0877 110.815 51.1204 110.619 50.9568ZM198.944 91.0341C198.748 90.8705 198.552 90.7069 198.538 90.527L196.816 84.8835C196.591 84.36 196.913 83.7875 197.445 83.5585C197.977 83.3295 198.551 83.6403 198.775 84.1637L200.498 89.8072C200.722 90.3307 200.4 90.9032 199.868 91.1322C199.504 91.165 199.126 91.0177 198.944 91.0341ZM125.818 46.1476C125.622 45.984 125.426 45.8204 125.412 45.6405C125.188 45.117 125.51 44.5445 126.041 44.3155L131.765 42.5325C132.297 42.3035 132.871 42.6143 133.095 43.1377C133.319 43.6612 132.998 44.2337 132.466 44.4627L126.742 46.2457C126.378 46.2785 126.014 46.3112 125.818 46.1476ZM194.294 76.0501C194.098 75.8866 193.902 75.723 193.888 75.543L192.165 69.8995C191.941 69.3761 192.263 68.8035 192.795 68.5745C193.327 68.3455 193.901 68.6563 194.125 69.1797L195.847 74.8233C196.072 75.3467 195.75 75.9193 195.218 76.1483C194.854 76.181 194.49 76.2137 194.294 76.0501ZM141.017 41.3383C140.821 41.1748 140.625 41.0112 140.611 40.8312C140.387 40.3078 140.708 39.7353 141.24 39.5062L146.964 37.7232C147.496 37.4942 148.07 37.805 148.294 38.3285C148.518 38.8519 148.196 39.4245 147.665 39.6535L141.94 41.4365C141.395 41.4856 141.213 41.5019 141.017 41.3383ZM189.644 61.0662C189.448 60.9026 189.252 60.739 189.238 60.5591L187.515 54.9155C187.291 54.3921 187.613 53.8196 188.145 53.5905C188.677 53.3615 189.25 53.6723 189.475 54.1958L191.197 59.8393C191.421 60.3628 191.1 60.9353 190.568 61.1643C190.204 61.197 189.84 61.2297 189.644 61.0662ZM156.034 36.5454C155.838 36.3819 155.642 36.2183 155.628 36.0383C155.404 35.5149 155.725 34.9424 156.257 34.7133L161.981 32.9303C162.513 32.7013 163.087 33.0121 163.311 33.5356C163.535 34.059 163.213 34.6316 162.681 34.8606L156.957 36.6436C156.607 36.8562 156.23 36.709 156.034 36.5454ZM185.008 46.2621C184.812 46.0986 184.616 45.935 184.602 45.755L182.879 40.1115C182.655 39.5881 182.977 39.0155 183.509 38.7865C184.04 38.5575 184.614 38.8683 184.838 39.3918L186.561 45.0353C186.785 45.5587 186.464 46.1313 185.932 46.3603C185.568 46.393 185.19 46.2458 185.008 46.2621ZM171.274 32.276C170.897 32.1288 170.687 31.7853 170.658 31.4254C170.616 30.8856 171.134 30.4766 171.68 30.4276C173.877 30.4112 175.921 30.7711 177.825 31.6871C178.203 31.8343 178.441 32.5377 178.301 33.0939C177.979 33.6664 177.433 33.7155 176.873 33.5847C175.166 32.8322 173.486 32.4396 171.666 32.6032C171.652 32.4232 171.456 32.2596 171.274 32.276Z" fill="#786EDF"/>
<path d="M207.513 102.522L160.695 117.413C158.373 118.165 155.897 116.939 155.169 114.65L147.329 89.2823C146.602 86.994 147.874 84.5258 150.196 83.7739L201.308 67.5922L210.365 96.8342C211.107 99.3023 209.835 101.77 207.513 102.522Z" fill="#786EDF"/>
<path d="M213.031 104.962L161.924 121.142C159.602 121.894 157.126 120.668 156.398 118.38L148.587 93.3748C147.859 91.0867 149.132 88.6189 151.453 87.8671L202.561 71.6876L213.031 104.962Z" fill="#211B2A"/>
<path d="M177.923 95.214C179.395 99.9787 176.679 105.12 171.847 106.643C167.015 108.165 161.86 105.546 160.388 100.781C158.916 96.0164 161.632 90.8751 166.464 89.3524C171.296 87.8296 176.452 90.4494 177.923 95.214Z" fill="#211B2A"/>
<path d="M178.65 97.3429C180.122 102.107 177.406 107.249 172.573 108.771C167.741 110.294 162.586 107.674 161.114 102.91C159.642 98.1451 162.359 93.004 167.191 91.4813C172.023 89.9586 177.178 92.5783 178.65 97.3429Z" fill="#786EDF"/>
<path d="M164.05 12.3448C164.306 13.2293 135.74 23.0937 100.167 34.2799C64.5933 45.4662 35.5316 53.7416 35.0802 52.6925C34.8248 51.808 63.3905 41.9436 98.9639 30.7574C134.537 19.5711 163.795 11.4602 164.05 12.3448Z" fill="url(#paint0_linear)"/>
<path d="M12.9634 81.9584C13.4953 81.7308 21.7365 106.007 31.1843 136.014C40.6321 166.022 47.7947 190.572 47.0657 190.634C46.5338 190.862 38.2926 166.586 28.8448 136.578C19.397 106.571 12.4316 82.186 12.9634 81.9584Z" fill="url(#paint1_linear)"/>
<defs>
<linearGradient id="paint0_linear" x1="38.5965" y1="53.3057" x2="46.2403" y2="-3.50118" gradientUnits="userSpaceOnUse">
<stop stop-color="#211B2A"/>
<stop offset="0.4749" stop-color="#745C9B"/>
<stop offset="1" stop-color="#211B2A"/>
</linearGradient>
<linearGradient id="paint1_linear" x1="47.2749" y1="187.887" x2="8.37075" y2="186.161" gradientUnits="userSpaceOnUse">
<stop stop-color="#211B2A"/>
<stop offset="0.4749" stop-color="#745C9B"/>
<stop offset="1" stop-color="#211B2A"/>
</linearGradient>
</defs>
</svg>
