<svg width="141" height="97" viewBox="0 0 141 97" fill="none" xmlns="http://www.w3.org/2000/svg">
<path d="M133.384 41.9536C132.165 46.04 128.466 48.654 126.242 49.159C129.946 47.6579 133.298 50.4864 133.448 56.2977C133.059 52.3424 136.384 49.1118 140.59 49.0922C135.884 47.8775 132.901 44.5527 133.384 41.9536Z" fill="#C9F4F4"/>
<path d="M7.49335 71.7134C6.27454 75.7998 2.57524 78.4138 0.350937 78.9188C4.05518 77.4176 7.40758 80.2462 7.5571 86.0574C7.16843 82.1022 10.4939 78.8716 14.6995 78.852C9.99308 77.5137 7.13326 74.1882 7.49335 71.7134Z" fill="#C9F4F4"/>
<path opacity="0.5" d="M89.673 57.8572L83.104 54.92L90.2563 49.9403L92.955 44.8578L95.9517 51.1504L89.673 57.8572Z" fill="#693300"/>
<path d="M50.6053 33.9171L43.9126 30.9804L45.3497 20.3388L53.8874 20.9174L56.7605 27.2108L50.6053 33.9171Z" fill="#FCA13D"/>
<path opacity="0.7" d="M50.6053 33.9171L43.9126 30.9805L51.1886 26.0003L53.8873 20.9177L56.7603 27.2109L50.6053 33.9171Z" fill="#693300"/>
<path d="M61.0041 8.14754L57.6575 6.6794L58.3761 1.35945L62.5837 1.71078L64.0819 4.79486L61.0041 8.14754Z" fill="#FCA13D"/>
<path d="M75.3882 71.0322L73.2808 70.0528L73.7608 66.7121L76.4834 66.9467L77.3582 68.921L75.3882 71.0322Z" fill="#FCA13D"/>
<path d="M115.443 94.9658L113.335 93.9864L113.815 90.5218L116.537 90.7565L117.412 92.7309L115.443 94.9658Z" fill="#FCA13D"/>
<path opacity="0.5" d="M72.3049 46.3096L68.9582 44.8414L72.4165 43.5889L73.8845 39.8726L75.3827 42.9568L72.3049 46.3096Z" fill="#693300"/>
<path opacity="0.5" d="M107.296 71.0114L103.453 69.2982L107.028 66.4375L106.149 63.4739L109.119 63.7074L110.742 67.1621L107.296 71.0114Z" fill="#693300"/>
<path d="M133.008 95.8769L131.149 95.0203L131.631 92.0508L133.982 92.2868L134.732 94.0141L133.008 95.8769Z" fill="#FCA13D"/>
<path opacity="0.5" d="M133.008 95.8769L131.149 95.0203L131.631 92.0508L133.982 92.2868L134.732 94.0141L133.008 95.8769Z" fill="#693300"/>
<path d="M61.8883 67.6307L57.5505 65.7968L58.5101 58.8682L63.9554 59.3369L65.9519 63.2839L61.8883 67.6307Z" fill="#FCA13D"/>
<path opacity="0.5" d="M61.8883 67.6307L57.5505 65.7968L58.5101 58.8682L63.9554 59.3369L65.9519 63.2839L61.8883 67.6307Z" fill="#693300"/>
<path d="M96.0641 76.9972L95.0721 76.5074L95.3126 74.899L96.5505 75.0167L97.0492 75.8798L96.0641 76.9972Z" fill="#FCA13D"/>
<path opacity="0.5" d="M96.0641 76.9972L95.0721 76.5074L95.3126 74.899L96.5505 75.0167L97.0492 75.8798L96.0641 76.9972Z" fill="#693300"/>
<path d="M113.774 81.7398L112.658 81.2506L112.898 79.6424L114.26 79.7595L114.759 80.7461L113.774 81.7398Z" fill="#FCA13D"/>
<path opacity="0.5" d="M113.774 81.7398L112.658 81.2506L112.898 79.6424L114.26 79.7595L114.759 80.7461L113.774 81.7398Z" fill="#693300"/>
</svg>
