<svg width="621" height="421" viewBox="0 0 621 421" fill="none" xmlns="http://www.w3.org/2000/svg">
<path d="M353.416 323.028H322.938V246.029H425.603V274.904H353.416V323.028Z" fill="#4F0388"/>
<path d="M456.081 420.877H398.332V392.002H456.081C464.102 392.002 470.519 387.19 470.519 382.377V353.503H427.207V324.628H500.998V383.981C500.998 403.231 481.748 420.877 456.081 420.877Z" fill="#4F0388"/>
<path d="M229.877 101.66H175.336V156.201H229.877V101.66Z" fill="#4F0388"/>
<path d="M144.875 42.3018C128.833 42.3018 116 55.135 116 71.1765V215.55H237.915V186.675H144.875V71.1765H263.582V159.405H292.456V42.3018H144.875Z" fill="#4F0388"/>
<path d="M229.877 305.387H175.336V359.928H229.877V305.387Z" fill="#4F0388"/>
<path d="M438.419 101.66H382.273V156.201H438.419V101.66Z" fill="#4F0388"/>
<path d="M411.148 186.68H382.273V215.554H411.148V186.68Z" fill="#4F0388"/>
<path d="M470.519 42.3018H322.938V215.55H351.812V186.675V161.009V71.1765H470.519V159.405V186.675V215.55H500.998V71.1765C500.998 55.135 488.165 42.3018 470.519 42.3018Z" fill="#4F0388"/>
<path d="M441.062 275.304V300.971H466.729V275.304H441.062Z" fill="#4F0388"/>
<path d="M467.16 249.634V275.301H492.827V249.634H467.16Z" fill="#4F0388"/>
<path d="M399.937 323.029H369.458V361.529H322.938V393.612V420.882H353.416V392.008H399.937V323.029Z" fill="#4F0388"/>
<path d="M292.445 186.678H263.57V215.552H292.445V186.678Z" fill="#4F0388"/>
<path d="M144.875 392.004V273.297H261.978V359.921H292.456V242.818H116V390.4C116 406.442 128.833 419.275 144.875 419.275H292.456V390.4L144.875 392.004Z" fill="#4F0388"/>
<path d="M42.2723 110.834H35.9925L34.8959 114.385H30L36.9717 95.376H41.2801L48.304 114.385H43.382L42.2723 110.834ZM37.0892 107.296H41.1756L39.1259 100.703L37.0892 107.296Z" fill="#4F0388"/>
<path d="M54.2835 107.936V114.385H49.701V95.376H57.2863C58.7398 95.376 60.0236 95.6458 61.1377 96.1854C62.2605 96.7164 63.1265 97.4779 63.7358 98.4702C64.3537 99.4537 64.6627 100.572 64.6627 101.825C64.6627 103.679 63.9969 105.163 62.6652 106.277C61.3422 107.383 59.5232 107.936 57.208 107.936H54.2835ZM54.2835 104.397H57.2863C58.1741 104.397 58.8486 104.175 59.3099 103.732C59.7799 103.288 60.0149 102.661 60.0149 101.852C60.0149 100.964 59.7756 100.254 59.2969 99.7235C58.8182 99.1926 58.1654 98.9228 57.3385 98.9141H54.2835V104.397Z" fill="#4F0388"/>
<path d="M72 114.385H67.4305V95.376H72V114.385Z" fill="#4F0388"/>
<path d="M570.505 103.827H560.012L558.18 109.761H550L561.648 78H568.847L580.583 109.761H572.359L570.505 103.827ZM561.845 97.9158H568.672L565.248 86.9L561.845 97.9158Z" fill="#4F0388"/>
<path d="M590.573 98.9847V109.761H582.917V78H595.59C598.019 78 600.164 78.4508 602.026 79.3524C603.901 80.2395 605.348 81.512 606.366 83.1698C607.399 84.8131 607.915 86.6818 607.915 88.7759C607.915 91.8735 606.803 94.353 604.578 96.2144C602.367 98.0613 599.328 98.9847 595.46 98.9847H590.573ZM590.573 93.0732H595.59C597.074 93.0732 598.201 92.7024 598.972 91.9607C599.757 91.2191 600.15 90.172 600.15 88.8196C600.15 87.3362 599.75 86.151 598.95 85.2639C598.15 84.3769 597.059 83.926 595.678 83.9115H590.573V93.0732Z" fill="#4F0388"/>
<path d="M620.174 109.761H612.54V78H620.174V109.761Z" fill="#4F0388"/>
<path d="M571.576 42.0703H568.598V34.5449H578.631V37.3669H571.576V42.0703Z" fill="#4F0388"/>
<path d="M581.609 51.6333H575.965V48.8113H581.609C582.393 48.8113 583.02 48.3409 583.02 47.8706V45.0486H578.787V42.2266H585.999V48.0274C585.999 49.9087 584.117 51.6333 581.609 51.6333Z" fill="#4F0388"/>
<path d="M559.502 20.4355H554.172V25.766H559.502V20.4355Z" fill="#4F0388"/>
<path d="M551.193 14.6338C549.625 14.6338 548.371 15.888 548.371 17.4558V31.5659H560.286V28.7439H551.193V17.4558H562.795V26.0786H565.617V14.6338H551.193Z" fill="#4F0388"/>
<path d="M559.502 40.3457H554.172V45.6762H559.502V40.3457Z" fill="#4F0388"/>
<path d="M579.882 20.4355H574.395V25.766H579.882V20.4355Z" fill="#4F0388"/>
<path d="M577.217 28.7441H574.395V31.5662H577.217V28.7441Z" fill="#4F0388"/>
<path d="M583.021 14.6338H568.598V31.5659H571.42V28.7439V26.2354V17.4558H583.021V26.0786V28.7439V31.5659H586V17.4558C586 15.888 584.746 14.6338 583.021 14.6338Z" fill="#4F0388"/>
<path d="M580.141 37.4066V39.915H582.649V37.4066H580.141Z" fill="#4F0388"/>
<path d="M582.691 34.8988V37.4072H585.2V34.8988H582.691Z" fill="#4F0388"/>
<path d="M576.123 42.0703H573.144V45.833H568.598V48.9686V51.6338H571.576V48.8118H576.123V42.0703Z" fill="#4F0388"/>
<path d="M565.615 28.7441H562.793V31.5662H565.615V28.7441Z" fill="#4F0388"/>
<path d="M551.193 48.8109V37.2093H562.638V45.6753H565.617V34.2305H548.371V48.6541C548.371 50.2219 549.625 51.4761 551.193 51.4761H565.617V48.6541L551.193 48.8109Z" fill="#4F0388"/>
<path d="M17.6752 66.5318H15.4062V60.7998H23.049V62.9493H17.6752V66.5318Z" fill="#4F0388"/>
<path d="M25.3147 73.8154H21.0156V71.6659H25.3147C25.9117 71.6659 26.3894 71.3077 26.3894 70.9494V68.7999H23.1651V66.6504H28.6583V71.0688C28.6583 72.5018 27.2253 73.8154 25.3147 73.8154Z" fill="#4F0388"/>
<path d="M8.47816 50.0527H4.41797V54.1129H8.47816V50.0527Z" fill="#4F0388"/>
<path d="M2.14951 45.6338C0.955339 45.6338 0 46.5891 0 47.7833V58.5309H9.07572V56.3814H2.14951V47.7833H10.9864V54.3513H13.1359V45.6338H2.14951Z" fill="#4F0388"/>
<path d="M8.47816 65.2188H4.41797V69.2789H8.47816V65.2188Z" fill="#4F0388"/>
<path d="M24.0038 50.0527H19.8242V54.1129H24.0038V50.0527Z" fill="#4F0388"/>
<path d="M21.9737 56.3818H19.8242V58.5313H21.9737V56.3818Z" fill="#4F0388"/>
<path d="M26.3926 45.6338H15.4062V58.5309H17.5558V56.3814V54.4707V47.7833H26.3926V54.3513V56.3814V58.5309H28.6616V47.7833C28.6616 46.5891 27.7062 45.6338 26.3926 45.6338Z" fill="#4F0388"/>
<path d="M24.1992 62.9799V64.8906H26.1099V62.9799H24.1992Z" fill="#4F0388"/>
<path d="M26.1406 61.0688V62.9795H28.0513V61.0688H26.1406Z" fill="#4F0388"/>
<path d="M21.1383 66.5312H18.8694V69.3973H15.4062V71.7856V73.8157H17.6752V71.6662H21.1383V66.5312Z" fill="#4F0388"/>
<path d="M13.1339 56.3818H10.9844V58.5313H13.1339V56.3818Z" fill="#4F0388"/>
<path d="M2.14951 71.6664V62.8295H10.867V69.278H13.1359V60.5605H0V71.5469C0 72.7411 0.955339 73.6965 2.14951 73.6965H13.1359V71.5469L2.14951 71.6664Z" fill="#4F0388"/>
<path d="M67.9929 23.9229H58.2742L56.5769 29.4187H49L59.7896 0H66.4573L77.3276 29.4187H69.7103L67.9929 23.9229ZM59.9714 18.4473H66.2956L63.1234 8.24371L59.9714 18.4473Z" fill="#4F0388"/>
<path d="M86.5816 19.4374V29.4187H79.4896V0H91.2288C93.4783 0 95.4651 0.417573 97.1893 1.25272C98.927 2.0744 100.267 3.25303 101.21 4.78862C102.167 6.31075 102.645 8.04165 102.645 9.98135C102.645 12.8505 101.614 15.1471 99.5533 16.8713C97.5059 18.582 94.6906 19.4374 91.1076 19.4374H86.5816ZM86.5816 13.9618H91.2288C92.6027 13.9618 93.6467 13.6183 94.3606 12.9313C95.088 12.2443 95.4517 11.2745 95.4517 10.0218C95.4517 8.64781 95.0812 7.54999 94.3404 6.72832C93.5995 5.90664 92.5893 5.48907 91.3096 5.4756H86.5816V13.9618Z" fill="#4F0388"/>
<path d="M114 29.4187H106.928V0H114V29.4187Z" fill="#4F0388"/>
</svg>
