<svg width="1920" height="1171" viewBox="0 0 1920 1171" fill="none" xmlns="http://www.w3.org/2000/svg">
<path d="M1482.01 196.671C1496.9 190.226 1516.05 172.357 1516.05 172.357C1516.05 172.357 1498.95 174.423 1491.26 170.293C1504.08 164.787 1516.72 159.731 1525.19 144.088C1517.56 150.648 1503.69 147.268 1503.69 147.268C1503.69 147.268 1525.52 133.192 1530.6 120.92C1526.96 123.827 1520.71 125.405 1516.31 123.342L1536.89 97.0215C1536.89 97.0215 1554.17 119.748 1560.79 122.454C1556.39 124.517 1546.83 123.827 1543.18 120.92C1546.72 128.322 1569.33 147.268 1569.33 147.268C1569.33 147.268 1553.69 149.496 1545.42 144.326C1554.37 158.23 1564.35 163.181 1580.37 170.752C1572.42 172.387 1556.87 171.44 1556.87 171.44C1556.87 171.44 1576.12 190.226 1591.01 196.671C1556.77 207.498 1501 202.403 1482.01 196.671Z" fill="#380E67"/>
<path d="M1588.01 162.072C1604.26 155.019 1625.17 135.465 1625.17 135.465C1625.17 135.465 1606.5 137.725 1598.1 133.205C1612.1 127.18 1625.9 121.647 1635.15 104.528C1626.82 111.707 1611.68 108.008 1611.68 108.008C1611.68 108.008 1635.51 92.6041 1641.06 79.175C1637.08 82.3559 1630.26 84.0825 1625.45 81.8248L1647.93 53.0215C1647.93 53.0215 1666.79 77.8925 1674.02 80.853C1669.21 83.1107 1658.77 82.3559 1654.8 79.175C1658.65 87.2746 1683.34 108.008 1683.34 108.008C1683.34 108.008 1666.26 110.446 1657.24 104.789C1667.01 120.004 1677.9 125.423 1695.4 133.708C1686.72 135.497 1669.73 134.461 1669.73 134.461C1669.73 134.461 1690.76 155.019 1707.01 162.072C1669.62 173.921 1608.74 168.345 1588.01 162.072Z" fill="#380E67"/>
<path d="M440.01 160.948C449.434 156.813 461.556 145.35 461.556 145.35C461.556 145.35 450.733 146.675 445.863 144.026C453.98 140.494 461.981 137.251 467.346 127.215C462.512 131.423 453.735 129.255 453.735 129.255C453.735 129.255 467.554 120.225 470.77 112.353C468.463 114.218 464.507 115.23 461.72 113.906L474.752 97.0215C474.752 97.0215 485.687 111.601 489.881 113.337C487.092 114.66 481.041 114.218 478.735 112.353C480.971 117.101 495.285 129.255 495.285 129.255C495.285 129.255 485.384 130.684 480.152 127.368C485.815 136.287 492.131 139.464 502.277 144.32C497.244 145.369 487.395 144.762 487.395 144.762C487.395 144.762 499.586 156.813 509.01 160.948C487.332 167.893 452.028 164.625 440.01 160.948Z" fill="#380E67"/>
<path d="M488.01 203.072C504.263 196.019 525.169 176.465 525.169 176.465C525.169 176.465 506.503 178.725 498.104 174.205C512.103 168.18 525.902 162.647 535.154 145.528C526.819 152.707 511.681 149.008 511.681 149.008C511.681 149.008 535.513 133.604 541.06 120.175C537.081 123.356 530.259 125.082 525.452 122.825L547.928 94.0215C547.928 94.0215 566.786 118.893 574.019 121.853C569.21 124.111 558.773 123.356 554.797 120.175C558.653 128.275 583.34 149.008 583.34 149.008C583.34 149.008 566.265 151.446 557.24 145.789C567.008 161.004 577.899 166.423 595.398 174.708C586.718 176.497 569.733 175.461 569.733 175.461C569.733 175.461 590.756 196.019 607.01 203.072C569.624 214.921 508.737 209.345 488.01 203.072Z" fill="#380E67"/>
<path d="M572.01 231.39C585.258 225.675 602.299 209.829 602.299 209.829C602.299 209.829 587.084 211.66 580.238 207.998C591.649 203.115 602.897 198.632 610.438 184.76C603.644 190.577 591.305 187.58 591.305 187.58C591.305 187.58 610.731 175.097 615.252 164.215C612.009 166.792 606.448 168.192 602.53 166.362L620.851 143.021C620.851 143.021 636.222 163.176 642.118 165.575C638.198 167.404 629.691 166.792 626.45 164.215C629.593 170.778 649.716 187.58 649.716 187.58C649.716 187.58 635.797 189.555 628.441 184.971C636.403 197.3 645.281 201.691 659.544 208.405C652.469 209.855 638.624 209.015 638.624 209.015C638.624 209.015 655.761 225.675 669.01 231.39C638.536 240.992 588.905 236.473 572.01 231.39Z" fill="#380E67"/>
<path d="M218.347 21.6842C120.206 -16.4744 32.9947 3.74405 0 21.6842V1171H1920V63.9718C1682.24 135.305 1296.61 281.414 986 298.705C675.385 315.996 369.083 80.2924 218.347 21.6842Z" fill="url(#paint0_linear_11333_53301)"/>
<defs>
<linearGradient id="paint0_linear_11333_53301" x1="960" y1="0.00292969" x2="960" y2="1028" gradientUnits="userSpaceOnUse">
<stop offset="0.322957" stop-color="#370E66"/>
<stop offset="1" stop-color="#230446"/>
</linearGradient>
</defs>  
</svg>
