<svg width="59" height="59" viewBox="0 0 59 59" fill="none" xmlns="http://www.w3.org/2000/svg">
<path d="M43.9309 43.9307C52.0184 35.8433 52.0184 22.731 43.9309 14.6436C35.8435 6.55614 22.7311 6.55614 14.6436 14.6436C6.55619 22.731 6.55619 35.8433 14.6436 43.9307C22.7311 52.0181 35.8435 52.0181 43.9309 43.9307Z" fill="#FFBF40"/>
<path d="M29.2771 46.981C19.3792 46.981 11.4609 39.0627 11.4609 29.3171C11.4609 24.5966 13.2882 20.1806 16.6383 16.6783C19.9883 13.176 24.4043 11.501 29.1248 11.501C33.8453 11.501 38.2613 13.3283 41.6114 16.6783C44.9614 20.0284 46.7887 24.4443 46.7887 29.1649C46.941 39.0627 39.0227 46.981 29.2771 46.981ZM29.2771 14.2419C25.318 14.2419 21.5111 15.7647 18.6179 18.6579C15.7246 21.5511 14.2019 25.358 14.2019 29.3171C14.2019 37.54 20.902 44.3924 29.2771 44.3924C37.4999 44.3924 44.3523 37.6923 44.3523 29.3171C44.3523 25.358 42.8296 21.5511 39.9363 18.6579C37.0431 15.7647 33.2362 14.2419 29.2771 14.2419Z" fill="#FFDF67"/>
</svg>
