<svg width="47" height="54" viewBox="0 0 47 54" fill="none" xmlns="http://www.w3.org/2000/svg">
<path d="M11.3233 17.5352C3.12227 28.6713 0.100848 40.4117 5.71207 44.5553C5.88472 44.6417 8.47451 46.5408 8.64717 46.6272C14.3447 50.1666 22.7184 42.6562 30.6604 31.779C38.4298 21.1609 42.7461 10.888 38.1708 6.22639C37.9118 5.96741 35.6673 4.32721 35.4084 4.15455C29.7971 0.0108838 19.438 6.39904 11.3233 17.5352Z" fill="#E2A700"/>
<path d="M32.0693 32.8495C40.2448 21.6986 43.0071 9.82521 38.2392 6.32949C33.4712 2.83377 22.9785 9.03951 14.803 20.1904C6.62753 31.3413 3.8652 43.2147 8.63316 46.7104C13.4011 50.2061 23.8939 44.0004 32.0693 32.8495Z" fill="#FFBF40"/>
<path d="M26.6035 10.6285C30.4882 7.86608 34.2865 6.65751 36.7037 8.47037C41.3653 11.9234 37.1353 23.0595 30.7471 31.7785C24.4453 40.3248 15.2084 47.5762 10.5467 44.1232C5.88511 40.6701 10.0288 29.7067 16.2443 21.1604C19.2657 17.0167 22.9777 13.132 26.6035 10.6285ZM19.352 40.3248C22.4598 38.1667 25.9128 34.7136 28.9343 30.4836C35.3224 21.851 38.2575 12.3551 35.3224 10.1969C32.4737 8.03873 24.359 13.7363 17.9708 22.4553C11.669 31.0879 8.82021 40.2385 11.7553 42.3967C13.3092 43.5189 16.0716 42.6556 19.352 40.3248Z" fill="#FFDF67"/>
</svg>
