<svg width="50" height="50" viewBox="0 0 50 50" fill="none" xmlns="http://www.w3.org/2000/svg">
<path d="M37.3413 37.3411C44.2156 30.4668 44.2156 19.3213 37.3413 12.447C30.467 5.57271 19.3214 5.57271 12.4471 12.447C5.57276 19.3213 5.57276 30.4668 12.4471 37.3411C19.3214 44.2154 30.467 44.2154 37.3413 37.3411Z" fill="#FFBF40"/>
<path d="M24.8849 39.9334C16.4718 39.9334 9.74121 33.2029 9.74121 24.9191C9.74121 20.9067 11.2944 17.1531 14.142 14.1761C16.9895 11.1992 20.7431 9.77539 24.7555 9.77539C28.768 9.77539 32.5215 11.3286 35.3691 14.1761C38.2166 17.0237 39.7698 20.7773 39.7698 24.7897C39.8993 33.2029 33.1687 39.9334 24.8849 39.9334ZM24.8849 12.1052C21.5197 12.1052 18.2838 13.3995 15.8246 15.8588C13.3654 18.318 12.071 21.5539 12.071 24.9191C12.071 31.9085 17.7661 37.7331 24.8849 37.7331C31.8744 37.7331 37.6989 32.038 37.6989 24.9191C37.6989 21.5539 36.4045 18.318 33.9453 15.8588C31.4861 13.3995 28.2502 12.1052 24.8849 12.1052Z" fill="#FFDF67"/>
</svg>
