<svg width="43" height="32" viewBox="0 0 43 32" fill="none" xmlns="http://www.w3.org/2000/svg">
<rect width="43" height="31" fill="#230446"/>
<path d="M22.13 23.3076C21.88 23.5542 21.64 23.6364 21.32 23.6364C21 23.6364 20.75 23.5542 20.51 23.3076L15 17.6454L15 29.8022C15 30.9326 15.9 31.8574 17 31.8574L26 31.8574C27.1 31.8574 28 30.9326 28 29.8022L28 17.2651L22.13 23.3076Z" fill="#2E267E"/>
<path d="M21.32 17.1625C21 17.1625 20.75 17.0802 20.51 16.8336L15 11.1611L15 14.3159L21.32 20.8105L28 13.946L28 10.7911L22.13 16.8233C21.88 16.9878 21.64 17.1625 21.32 17.1625Z" fill="#2E267E"/>
<path d="M21.32 14.335L28 7.47056L28 -0.000120163L15 -0.000118995L15 7.8405L21.32 14.335Z" fill="#2E267E"/>
</svg>
