<svg width="336" height="131" viewBox="0 0 336 131" fill="none" xmlns="http://www.w3.org/2000/svg">
<path d="M162.568 11.788L104.573 112.268C100.102 119.986 105.697 129.651 114.613 129.651L230.629 129.651C239.545 129.651 245.115 119.986 240.669 112.268L182.649 11.788C178.178 4.07028 167.039 4.07028 162.568 11.788Z" stroke="#EA5045" stroke-miterlimit="10"/>
<path fill-rule="evenodd" clip-rule="evenodd" d="M156.894 82.5781H152.346C150.16 82.5781 148.371 84.3666 148.371 86.5526V103.422C148.371 105.608 150.16 107.396 152.346 107.396H156.916C159.102 107.396 160.891 105.608 160.891 103.422V86.5526C160.868 84.3666 159.08 82.5781 156.894 82.5781Z" fill="white"/>
<path fill-rule="evenodd" clip-rule="evenodd" d="M174.361 71.0762H169.791C167.605 71.0762 165.816 72.8647 165.816 75.0506V103.424C165.816 105.61 167.605 107.398 169.791 107.398H174.361C176.547 107.398 178.336 105.61 178.336 103.424V75.0506C178.336 72.8647 176.547 71.0762 174.361 71.0762Z" fill="white"/>
<path fill-rule="evenodd" clip-rule="evenodd" d="M192.025 59.7695H187.455C185.269 59.7695 183.48 61.558 183.48 63.744V103.422C183.48 105.608 185.269 107.396 187.455 107.396H192.025C194.211 107.396 196 105.608 196 103.422V63.7219C195.978 61.558 194.211 59.7695 192.025 59.7695Z" fill="white"/>
<path fill-rule="evenodd" clip-rule="evenodd" d="M170.784 62.2869C170.784 63.0597 171.402 63.678 172.175 63.678C172.948 63.678 173.566 63.0597 173.566 62.2869V55.8174C173.566 55.4421 173.456 55.0888 173.168 54.8017C173.058 54.6913 172.926 54.603 172.771 54.5368C172.749 54.5368 172.727 54.5147 172.705 54.4926C172.55 54.4485 172.352 54.4043 172.175 54.4043H165.683C164.911 54.4043 164.292 55.0225 164.292 55.7953C164.292 56.5682 164.911 57.1864 165.683 57.1864H168.819L161.908 64.1196L157.469 59.6815C156.917 59.1295 156.056 59.1295 155.504 59.6815L147.379 67.807C146.827 68.359 146.827 69.2201 147.379 69.7721C147.931 70.3241 148.792 70.3241 149.344 69.7721L156.476 62.6181L160.914 67.0562C161.466 67.6082 162.327 67.6082 162.879 67.0562L170.784 59.1515V62.2869Z" fill="#EA5045"/>
<rect x="267.336" y="53.5273" width="67.2905" height="24.9504" rx="4.5" stroke="#EA5045"/>
<path d="M280.75 72.1472V60.4951H284.039C285.053 60.4951 285.949 60.7192 286.728 61.1674C287.507 61.6155 288.107 62.2531 288.529 63.08C288.956 63.907 289.172 64.8566 289.177 65.929V66.6733C289.177 67.7723 288.964 68.7353 288.537 69.5623C288.115 70.3892 287.51 71.0241 286.72 71.4669C285.936 71.9098 285.021 72.1365 283.975 72.1472H280.75ZM282.287 61.7596V70.8907H283.903C285.088 70.8907 286.008 70.5226 286.664 69.7864C287.326 69.0501 287.656 68.0017 287.656 66.6413V65.961C287.656 64.6379 287.344 63.6109 286.72 62.8799C286.101 62.1437 285.221 61.7702 284.079 61.7596H282.287Z" fill="#EA5045"/>
<path d="M294.867 72.3072C293.693 72.3072 292.738 71.9231 292.002 71.1548C291.266 70.3812 290.898 69.3489 290.898 68.0578V67.7857C290.898 66.9267 291.06 66.1611 291.386 65.4889C291.716 64.8113 292.175 64.2831 292.762 63.9043C293.354 63.5202 293.995 63.3281 294.683 63.3281C295.809 63.3281 296.684 63.6989 297.308 64.4405C297.932 65.1821 298.244 66.2438 298.244 67.6256V68.2418H292.378C292.399 69.0955 292.647 69.7864 293.122 70.3145C293.602 70.8374 294.211 71.0988 294.947 71.0988C295.47 71.0988 295.913 70.9921 296.275 70.7787C296.638 70.5653 296.956 70.2825 297.228 69.9304L298.132 70.6347C297.406 71.7497 296.318 72.3072 294.867 72.3072ZM294.683 64.5445C294.085 64.5445 293.584 64.7633 293.178 65.2008C292.773 65.6329 292.522 66.2411 292.426 67.0254H296.764V66.9134C296.721 66.1611 296.518 65.5796 296.155 65.1687C295.793 64.7526 295.302 64.5445 294.683 64.5445Z" fill="#EA5045"/>
<path d="M301.357 63.4882L301.397 64.4485C302.032 63.7016 302.888 63.3281 303.966 63.3281C305.177 63.3281 306.001 63.7923 306.439 64.7206C306.727 64.3044 307.101 63.9683 307.559 63.7122C308.024 63.4562 308.57 63.3281 309.2 63.3281C311.099 63.3281 312.065 64.3338 312.097 66.3452V72.1472H310.616V66.4332C310.616 65.8143 310.475 65.3528 310.192 65.0487C309.91 64.7393 309.435 64.5845 308.768 64.5845C308.218 64.5845 307.762 64.7499 307.399 65.0807C307.037 65.4062 306.826 65.8463 306.767 66.4012V72.1472H305.279V66.4732C305.279 65.2141 304.662 64.5845 303.43 64.5845C302.459 64.5845 301.795 64.998 301.437 65.825V72.1472H299.957V63.4882H301.357Z" fill="#EA5045"/>
<path d="M313.946 67.7376C313.946 66.8893 314.111 66.1264 314.442 65.4488C314.778 64.7713 315.242 64.2484 315.834 63.8803C316.432 63.5122 317.112 63.3281 317.875 63.3281C319.054 63.3281 320.006 63.7362 320.732 64.5525C321.463 65.3688 321.828 66.4545 321.828 67.8097V67.9137C321.828 68.7567 321.666 69.5143 321.34 70.1865C321.02 70.8534 320.559 71.3736 319.956 71.747C319.358 72.1205 318.67 72.3072 317.891 72.3072C316.717 72.3072 315.765 71.8991 315.034 71.0828C314.308 70.2665 313.946 69.1862 313.946 67.8417V67.7376ZM315.434 67.9137C315.434 68.874 315.656 69.645 316.098 70.2265C316.546 70.8081 317.144 71.0988 317.891 71.0988C318.643 71.0988 319.241 70.8054 319.684 70.2185C320.126 69.6263 320.348 68.7993 320.348 67.7376C320.348 66.788 320.121 66.0197 319.668 65.4328C319.219 64.8406 318.622 64.5445 317.875 64.5445C317.144 64.5445 316.554 64.8353 316.106 65.4168C315.658 65.9984 315.434 66.8307 315.434 67.9137Z" fill="#EA5045"/>
<rect x="240.824" y="0.5" width="51.2222" height="18.8444" rx="4.5" stroke="#EA5045"/>
<path d="M250.961 14.6213V5.71094H253.476C254.251 5.71094 254.937 5.88229 255.532 6.225C256.128 6.56771 256.587 7.05525 256.909 7.68763C257.236 8.32001 257.401 9.04622 257.405 9.86627V10.4354C257.405 11.2759 257.242 12.0123 256.915 12.6447C256.593 13.277 256.13 13.7625 255.526 14.1012C254.927 14.4398 254.227 14.6132 253.427 14.6213H250.961ZM252.136 6.67786V13.6605H253.372C254.278 13.6605 254.982 13.379 255.483 12.816C255.989 12.253 256.242 11.4513 256.242 10.4109V9.89075C256.242 8.87895 256.004 8.09357 255.526 7.53463C255.053 6.97161 254.38 6.68602 253.507 6.67786H252.136Z" fill="#EA5045"/>
<path d="M261.756 14.7437C260.859 14.7437 260.128 14.45 259.565 13.8625C259.002 13.2709 258.721 12.4815 258.721 11.4941V11.2861C258.721 10.6292 258.845 10.0437 259.094 9.52968C259.347 9.01154 259.698 8.60764 260.147 8.31797C260.6 8.02422 261.089 7.87734 261.615 7.87734C262.476 7.87734 263.145 8.16089 263.623 8.72799C264.1 9.29509 264.339 10.107 264.339 11.1637V11.6349H259.853C259.869 12.2877 260.059 12.816 260.422 13.2199C260.789 13.6197 261.254 13.8197 261.817 13.8197C262.217 13.8197 262.556 13.7381 262.833 13.5749C263.111 13.4117 263.354 13.1954 263.562 12.9262L264.253 13.4647C263.698 14.3174 262.866 14.7437 261.756 14.7437ZM261.615 8.80755C261.159 8.80755 260.775 8.97482 260.465 9.30937C260.155 9.63984 259.963 10.1049 259.89 10.7047H263.207V10.619C263.174 10.0437 263.019 9.59904 262.742 9.28489C262.464 8.96666 262.089 8.80755 261.615 8.80755Z" fill="#EA5045"/>
<path d="M266.719 7.99974L266.75 8.73411C267.235 8.16293 267.89 7.87734 268.714 7.87734C269.641 7.87734 270.271 8.23229 270.605 8.94218C270.826 8.62395 271.111 8.36692 271.462 8.17109C271.817 7.97526 272.235 7.87734 272.717 7.87734C274.169 7.87734 274.908 8.64639 274.932 10.1845V14.6213H273.8V10.2518C273.8 9.77855 273.692 9.42565 273.476 9.19309C273.259 8.95646 272.896 8.83815 272.386 8.83815C271.966 8.83815 271.617 8.96462 271.34 9.21757C271.062 9.46644 270.901 9.80303 270.856 10.2273V14.6213H269.718V10.2824C269.718 9.31957 269.247 8.83815 268.304 8.83815C267.562 8.83815 267.054 9.15434 266.781 9.78671V14.6213H265.648V7.99974H266.719Z" fill="#EA5045"/>
<path d="M276.346 11.2493C276.346 10.6006 276.472 10.0172 276.725 9.49908C276.982 8.98094 277.337 8.58112 277.79 8.29961C278.247 8.0181 278.767 7.87734 279.351 7.87734C280.252 7.87734 280.981 8.18945 281.535 8.81367C282.094 9.43789 282.374 10.2681 282.374 11.3044V11.384C282.374 12.0286 282.249 12.6079 282 13.122C281.756 13.632 281.403 14.0298 280.942 14.3154C280.485 14.6009 279.959 14.7437 279.363 14.7437C278.465 14.7437 277.737 14.4316 277.178 13.8074C276.623 13.1832 276.346 12.357 276.346 11.3289V11.2493ZM277.484 11.384C277.484 12.1184 277.653 12.7079 277.992 13.1526C278.335 13.5973 278.792 13.8197 279.363 13.8197C279.938 13.8197 280.395 13.5953 280.734 13.1465C281.072 12.6936 281.242 12.0612 281.242 11.2493C281.242 10.5231 281.068 9.93563 280.721 9.48684C280.379 9.03398 279.922 8.80755 279.351 8.80755C278.792 8.80755 278.341 9.0299 277.998 9.4746C277.655 9.91931 277.484 10.5558 277.484 11.384Z" fill="#EA5045"/>
<rect x="0.734375" y="66.7842" width="75.8885" height="28.2176" rx="4.5" stroke="#EA5045"/>
<path d="M15.9023 87.8154V74.6963H19.6056C20.7469 74.6963 21.7561 74.9486 22.6331 75.4532C23.5101 75.9577 24.1859 76.6756 24.6604 77.6066C25.141 78.5377 25.3843 79.6069 25.3903 80.8143V81.6523C25.3903 82.8897 25.15 83.974 24.6694 84.905C24.1949 85.8361 23.5131 86.5509 22.6241 87.0495C21.7411 87.5481 20.7109 87.8034 19.5335 87.8154H15.9023ZM17.6323 76.1199V86.4008H19.4524C20.786 86.4008 21.8222 85.9863 22.561 85.1573C23.3059 84.3284 23.6783 83.148 23.6783 81.6163V80.8504C23.6783 79.3607 23.3269 78.2043 22.6241 77.3814C21.9273 76.5524 20.9361 76.1319 19.6507 76.1199H17.6323Z" fill="#EA5045"/>
<path d="M31.7966 87.9956C30.4751 87.9956 29.3999 87.5631 28.5709 86.6981C27.742 85.8271 27.3275 84.6648 27.3275 83.2111V82.9047C27.3275 81.9376 27.5107 81.0756 27.8771 80.3188C28.2496 79.5559 28.7661 78.9612 29.4269 78.5347C30.0937 78.1022 30.8145 77.886 31.5894 77.886C32.8569 77.886 33.842 78.3034 34.5448 79.1384C35.2476 79.9734 35.599 81.1687 35.599 82.7245V83.4183H28.9944C29.0184 84.3794 29.2978 85.1573 29.8324 85.752C30.373 86.3407 31.0578 86.635 31.8867 86.635C32.4754 86.635 32.974 86.5149 33.3825 86.2746C33.7909 86.0343 34.1483 85.716 34.4547 85.3195L35.4729 86.1124C34.6559 87.3679 33.4305 87.9956 31.7966 87.9956ZM31.5894 79.2555C30.9166 79.2555 30.352 79.5018 29.8954 79.9944C29.4389 80.4809 29.1566 81.1657 29.0485 82.0488H33.9321V81.9226C33.884 81.0756 33.6558 80.4209 33.2473 79.9583C32.8388 79.4898 32.2862 79.2555 31.5894 79.2555Z" fill="#EA5045"/>
<path d="M39.104 78.0662L39.1491 79.1474C39.8639 78.3064 40.828 77.886 42.0414 77.886C43.405 77.886 44.3331 78.4086 44.8256 79.4538C45.15 78.9852 45.5705 78.6068 46.0871 78.3185C46.6097 78.0301 47.2254 77.886 47.9342 77.886C50.0727 77.886 51.1599 79.0183 51.196 81.2829V87.8154H49.529V81.382C49.529 80.6852 49.3699 80.1656 49.0515 79.8232C48.7331 79.4748 48.1985 79.3006 47.4476 79.3006C46.8289 79.3006 46.3153 79.4868 45.9069 79.8592C45.4984 80.2257 45.2611 80.7212 45.1951 81.3459V87.8154H43.5191V81.427C43.5191 80.0094 42.8253 79.3006 41.4377 79.3006C40.3445 79.3006 39.5966 79.7661 39.1941 80.6972V87.8154H37.5272V78.0662H39.104Z" fill="#EA5045"/>
<path d="M53.2774 82.8507C53.2774 81.8956 53.4636 81.0366 53.836 80.2737C54.2144 79.5108 54.737 78.9222 55.4038 78.5077C56.0766 78.0932 56.8425 77.886 57.7015 77.886C59.029 77.886 60.1012 78.3455 60.9181 79.2645C61.7411 80.1836 62.1526 81.406 62.1526 82.9318V83.0489C62.1526 83.998 61.9694 84.851 61.6029 85.6078C61.2425 86.3587 60.7229 86.9444 60.0441 87.3649C59.3714 87.7854 58.5965 87.9956 57.7195 87.9956C56.3979 87.9956 55.3257 87.5361 54.5028 86.617C53.6858 85.698 53.2774 84.4816 53.2774 82.9678V82.8507ZM54.9533 83.0489C54.9533 84.1301 55.2026 84.9981 55.7011 85.6529C56.2057 86.3077 56.8785 86.635 57.7195 86.635C58.5664 86.635 59.2392 86.3046 59.7378 85.6439C60.2364 84.9771 60.4857 84.046 60.4857 82.8507C60.4857 81.7814 60.2304 80.9164 59.7198 80.2557C59.2152 79.5889 58.5424 79.2555 57.7015 79.2555C56.8785 79.2555 56.2147 79.5829 55.7102 80.2377C55.2056 80.8924 54.9533 81.8295 54.9533 83.0489Z" fill="#EA5045"/>
</svg>
