<svg width="1920" height="1922" viewBox="0 0 1920 1922" fill="none" xmlns="http://www.w3.org/2000/svg">
<path d="M949.386 1591.24L1770.54 870.031C1897.11 758.869 1854.9 552.242 1694.87 499.614L640.947 153.002C480.925 100.378 324.313 241.615 360.195 406.208L592.978 1474.04C628.317 1636.14 824.732 1700.74 949.386 1591.24Z" stroke="#4E55A2" stroke-miterlimit="10"/>
<path d="M915.044 1506.64L1736.18 785.426C1862.75 674.264 1820.55 467.637 1660.52 415.01L606.595 68.3974C446.574 15.7732 289.962 157.011 325.843 321.603L558.617 1389.43C593.966 1551.54 790.381 1616.13 915.044 1506.64Z" stroke="#EA5045" stroke-miterlimit="10"/>
<path d="M875.073 1619.43L1696.22 898.214C1822.79 787.052 1780.59 580.425 1620.56 527.798L566.635 181.186C406.613 128.561 250.001 269.799 285.882 434.391L518.656 1502.22C553.995 1664.32 750.42 1728.92 875.073 1619.43Z" stroke="#999999" stroke-miterlimit="10"/>
</svg>
