<svg width="126" height="142" viewBox="0 0 126 142" fill="none" xmlns="http://www.w3.org/2000/svg">
<path d="M26.5253 50.1191H24.0277V57.2374H20.2812V72.7727H24.0277V79.8909H26.5253V72.7727H30.2718V57.2374H26.5253V50.1191Z" fill="#EA5045"/>
<path d="M80.5726 60.5844H76.8261V53.8408H74.3285V60.5844H70.582V75.3704H74.3285V82.1141H76.8261V75.3704H80.5726V60.5844Z" fill="white"/>
<path d="M39.0878 60.2354H36.5902V68.3277H32.8438V88.3088H36.5902V96.3761H39.0878V88.3088H42.8343V68.3277H39.0878V60.2354Z" fill="white"/>
<path d="M51.4511 45.3477H48.9535V53.5899H45.207V76.4182H48.9535V84.6355H51.4511V76.4182H55.1976V53.5899H51.4511V45.3477Z" fill="white"/>
<path d="M64.0644 61.6807H61.5668V66.9007H57.8203V92.2517H61.5668V97.4718H64.0644V92.2517H67.8109V66.9007H64.0644V61.6807Z" fill="white"/>
<path d="M118.863 61.0602L18.3835 3.06512C10.6658 -1.40565 1 4.18906 1 13.1056V129.121C1 138.037 10.6658 143.607 18.3835 139.161L118.863 81.1412C126.581 76.6704 126.581 65.531 118.863 61.0602Z" stroke="#EA5045" stroke-miterlimit="10"/>
</svg>
