<svg width="1913" height="1292" viewBox="0 0 1913 1292" fill="none" xmlns="http://www.w3.org/2000/svg">
<g opacity="0.5">
<path d="M561.049 773.392L1612.09 473.807C1774.09 427.633 1824.54 222.862 1702.52 106.715L898.92 -658.223C776.906 -774.363 574.868 -713.896 536.73 -549.812L289.292 514.717C251.73 676.322 401.494 818.876 561.049 773.392Z" stroke="#4E55A2" stroke-miterlimit="10"/>
<path d="M566.29 682.238L1617.32 382.646C1779.33 336.472 1829.77 131.701 1707.75 15.5534L904.155 -749.384C782.14 -865.525 580.103 -805.057 541.964 -640.973L294.52 423.549C256.964 585.161 406.728 727.715 566.29 682.238Z" stroke="#EA5045" stroke-miterlimit="10"/>
<path d="M481.83 766.999L1532.87 467.414C1694.87 421.24 1745.32 216.47 1623.3 100.322L819.702 -664.615C697.687 -780.756 495.649 -720.289 457.511 -556.205L210.066 508.318C172.504 669.922 322.275 812.484 481.83 766.999Z" stroke="#999999" stroke-miterlimit="10"/>
</g>
</svg>
