<svg width="89" height="43" viewBox="0 0 89 43" fill="none" xmlns="http://www.w3.org/2000/svg">
<path d="M15.9614 25.1099C15.9614 19.3505 15.9614 13.7355 15.9614 8.117C15.8892 8.09293 15.817 8.0723 15.7447 8.04823C14.531 9.89125 13.3138 11.7308 12.1034 13.5773C9.73774 17.1877 7.39271 20.8153 4.98922 24.4016C4.7554 24.7489 4.19837 25.0343 3.772 25.0652C2.54447 25.1512 1.30662 25.0962 0 25.0962C0 17.0501 0 9.09697 0 1.06814C1.4304 1.06814 2.84018 1.06814 4.43219 1.06814C4.43219 6.65909 4.43219 12.2569 4.43219 17.8547C4.54566 17.8891 4.65569 17.9235 4.76916 17.9613C5.41559 16.9504 6.06546 15.943 6.70501 14.932C9.49705 10.5342 12.296 6.13988 15.0674 1.72489C15.4043 1.18849 15.7551 0.944357 16.4049 0.968426C17.7081 1.02 19.0182 0.98218 20.4692 0.98218C20.4692 6.75193 20.4692 12.4013 20.4692 18.0507C20.5552 18.0748 20.6411 18.0989 20.7271 18.1229C21.6967 16.6169 22.6767 15.1177 23.636 13.6014C26.2046 9.54397 28.7628 5.4797 31.3416 1.43262C31.4792 1.21943 31.7886 0.989057 32.0225 0.98218C33.3222 0.93748 34.6254 0.961549 36.1624 0.961549C34.9108 2.88021 33.783 4.6132 32.6586 6.34275C28.7594 12.336 24.8498 18.3155 20.9781 24.3259C20.5999 24.9139 20.201 25.1443 19.5271 25.1202C18.4061 25.079 17.2783 25.1099 15.9614 25.1099Z" fill="#F9F9F9"/>
<path d="M64.9858 19.0683C65.1439 21.3995 67.6403 22.854 70.0403 21.9875C70.8793 21.6849 71.5498 21.7021 72.3131 22.0391C73.0524 22.3658 73.8157 22.6374 74.7201 22.9916C71.2369 25.1647 67.8225 26.5263 63.8614 24.6867C61.7949 23.724 61.0418 21.3101 61.2103 19.3261C61.7123 13.3501 67.121 9.8291 72.0449 9.28238C74.6032 8.99699 76.7075 9.71907 78.2376 11.7787C79.6233 13.6424 79.558 16.6717 78.1448 18.5078C77.911 18.8138 77.3161 18.972 76.8863 18.9754C73.1246 19.0167 69.3595 19.0029 65.5978 19.0132C65.419 19.0132 65.2333 19.0476 64.9858 19.0683ZM66.5915 15.8155C69.4283 15.8155 72.2547 15.8155 75.0811 15.8155C75.0295 14.2922 74.0702 13.106 72.6914 12.9581C71.8008 12.8618 70.8793 12.8618 69.9922 12.9719C68.4586 13.1644 66.7944 14.5983 66.5915 15.8155Z" fill="#F9F9F9"/>
<path d="M45.0107 10.9288C45.5058 9.35059 45.5058 9.35059 45.5058 9.35059C45.5058 9.35059 47.5826 9.41936 49.2469 9.51563C48.6108 11.4721 43.7866 25.1641 43.7866 25.1641C43.7866 25.1641 41.2456 25.1435 40.2003 25.1435C41.0186 22.6609 41.837 20.3468 42.5281 17.9949C42.7894 17.1009 42.9373 16.0969 42.8238 15.1822C42.6416 13.714 41.6685 13.0022 40.2174 12.8991C37.5148 12.7065 35.2557 13.5558 33.6981 15.8287C31.7416 18.6757 32.2746 21.4127 36.0982 22.0867C37.2535 22.1795 37.8174 21.87 38.6117 21.76C38.6117 22.5165 37.8243 24.9028 37.4976 25.0231C34.9325 25.9584 32.4156 25.759 30.3353 23.9538C28.6573 22.4958 28.5404 20.3709 28.9805 18.325C29.9296 13.9341 34.2208 10.1277 38.7114 9.55346C41.7682 9.16147 42.1258 9.35059 45.0107 10.9288Z" fill="#F9F9F9"/>
<path d="M86.9993 21.8267C86.9993 22.9304 86.9993 23.9688 86.9993 25.0966C85.3833 25.0966 83.8016 25.2342 82.2543 25.0623C80.1155 24.825 78.8811 22.7482 79.5344 20.6404C80.8926 16.2632 82.3161 11.9032 83.6743 7.52606C83.8669 6.90026 84.1695 6.63206 84.7953 6.51171C85.8509 6.30884 86.8859 6.00626 88.134 5.69336C87.522 7.69799 86.9478 9.58227 86.3288 11.6075C87.0819 11.6075 87.7042 11.6075 88.3885 11.6075C88.3885 12.8316 88.3885 13.9354 88.3885 15.1354C87.2985 15.1354 86.2566 15.1354 85.146 15.1354C84.6027 16.8649 84.0491 18.5188 83.5677 20.1968C83.3649 20.9051 83.6296 21.4519 84.4549 21.5481C85.2698 21.641 86.0847 21.7235 86.9993 21.8267Z" fill="#F9F9F9"/>
<path d="M57.5741 3.70898C56.7213 6.26377 55.9202 8.70164 55.0984 11.1361C53.6439 15.4445 52.155 19.7391 50.735 24.0578C50.4702 24.8659 50.116 25.2407 49.2358 25.1616C48.3796 25.0859 47.5131 25.1444 46.4609 25.1444C48.8369 17.9339 51.1751 10.8369 53.5235 3.70898C54.8336 3.70898 56.1024 3.70898 57.5741 3.70898Z" fill="#F9F9F9"/>
<path d="M52.918 25.1448C53.671 22.7654 54.3621 20.496 55.1014 18.2404C56.5765 13.7394 58.0997 9.25222 59.5508 4.74095C59.8293 3.87789 60.2419 3.5478 61.1497 3.6372C62.0402 3.7266 62.9445 3.65783 63.9864 3.65783C63.1921 6.05445 62.446 8.3479 61.6723 10.6345C60.1422 15.1526 58.5743 19.6605 57.0854 24.1924C56.8378 24.942 56.5215 25.2136 55.7513 25.1551C54.8607 25.0932 53.9564 25.1448 52.918 25.1448Z" fill="#F9F9F9"/>
<path d="M43.3891 41.0447C40.9306 42.9771 37.8188 43.5823 35.4738 42.1828C34.4525 41.5742 34.0571 40.6114 33.954 39.4561C33.5345 34.7248 37.8841 31.8365 41.3707 31.4273C42.1581 31.3345 43.0246 31.3826 43.7777 31.613C46.4975 32.4416 47.56 35.581 45.9405 37.9122C45.7754 38.1495 45.3215 38.2905 44.9983 38.2973C42.4951 38.3283 39.9953 38.3145 37.4921 38.3145C37.2067 38.3145 36.9214 38.3145 36.6325 38.3145C36.6497 39.3461 37.0726 40.2057 38.0904 40.4533C39.1323 40.7077 41.1266 39.7725 41.1266 39.7725C41.1266 39.7725 42.392 40.4567 43.3891 41.0447ZM43.7158 36.0383C43.6126 34.9689 43.0453 34.209 42.1375 34.0749C41.4911 33.9786 40.9512 33.903 40.322 34.0371C39.232 34.2675 38.1111 34.8073 37.6297 36.0383C39.71 36.0383 41.6836 36.0383 43.7158 36.0383Z" fill="#F9F9F9"/>
<path d="M68.0615 42.8495C66.4145 42.8426 65.1044 42.5366 64.1176 41.4122C63.1789 40.3428 63.0242 39.0947 63.3405 37.7605C64.0385 34.8275 66.0741 33.1358 68.732 32.0596C70.0283 31.5335 71.3659 31.2584 72.7688 31.5747C74.8044 32.0389 76.5442 33.5966 75.9975 36.4849C75.3133 40.0678 70.943 43.0386 68.0615 42.8495ZM68.5979 40.4563C70.269 40.4769 72.4765 38.9537 73.0336 37.3445C73.3293 36.4986 73.4118 35.6081 72.7585 34.8722C72.0673 34.0951 71.2146 33.7513 70.1246 33.9782C68.5945 34.298 67.5011 35.2264 66.6346 36.423C66.0294 37.2585 65.8953 38.2419 66.4317 39.2013C66.8993 40.0265 67.6489 40.4185 68.5979 40.4563Z" fill="#F9F9F9"/>
<path d="M16.3595 42.6737C16.9991 40.7275 17.5802 38.9498 18.1682 37.1687C18.6942 35.5698 18.5842 34.9131 17.6593 34.246C16.8031 33.6271 15.4277 33.7062 14.3652 34.4351C13.5056 35.03 12.9589 35.838 12.6529 36.8386C12.1165 38.5819 11.5388 40.3149 11.0024 42.0582C10.8649 42.5018 10.6654 42.715 10.1703 42.684C9.51353 42.6428 8.84991 42.6737 8.0625 42.6737C8.51982 41.2708 8.94275 39.9745 9.36224 38.6748C10.0362 36.5842 10.7239 34.497 11.3669 32.3996C11.5182 31.9044 11.752 31.7222 12.2712 31.7634C12.8798 31.8116 13.4918 31.7738 14.1555 31.7738C14.1795 32.0145 14.2002 32.2345 14.2277 32.5027C14.3824 32.4271 14.5268 32.3721 14.6575 32.293C15.9882 31.5021 17.4186 31.2374 18.9281 31.5812C20.8605 32.0213 21.923 33.8025 21.3487 35.7005C20.6989 37.853 19.9562 39.9779 19.2822 42.1236C19.1447 42.5568 18.9281 42.7047 18.4879 42.684C17.8277 42.6496 17.1676 42.6737 16.3595 42.6737Z" fill="#F9F9F9"/>
<path d="M36.386 31.777C34.6048 33.926 32.9716 35.9031 31.3314 37.8734C30.1279 39.3175 28.5841 41.274 27.3462 42.6872C25.9708 42.7594 24.4029 42.7182 24.4029 42.7182C24.4029 42.7182 22.5049 31.9558 22.5117 31.8285C23.4883 31.8285 24.4614 31.8285 25.5513 31.8285C25.7542 33.0561 25.9674 34.3214 26.1737 35.5868C26.38 36.859 26.5829 38.1312 26.8236 39.627C27.6385 38.678 28.3296 37.894 28.9932 37.0928C30.3274 35.4836 33.4358 31.7598 33.4358 31.7598C33.4358 31.7598 35.4507 31.777 36.386 31.777Z" fill="#F9F9F9"/>
<path d="M56.6627 33.2037C55.9407 33.7333 55.2186 34.2593 54.6169 34.6995C54.0186 34.335 53.5062 33.8123 52.9389 33.7401C52.3406 33.6679 51.6666 33.9808 51.0684 34.2215C50.8173 34.3212 50.5354 34.6685 50.5216 34.9161C50.5113 35.1052 50.8758 35.3803 51.1302 35.4972C51.6563 35.7413 52.234 35.8754 52.7635 36.1127C53.8776 36.6113 54.9298 37.2336 55.1154 38.5815C55.3149 40.0222 54.524 41.0572 53.4134 41.7758C51.3159 43.134 49.0878 43.2372 46.8356 42.1094C46.4986 41.9409 46.2201 41.6555 45.8281 41.3632C46.6877 40.7133 47.4373 40.1426 48.3967 39.417C48.5033 39.6096 48.603 39.8262 48.7371 40.0153C49.4798 41.0503 51.1131 40.8887 52.0174 40.1185C52.5503 39.6646 52.4025 39.0319 51.7217 38.7809C50.8345 38.4543 49.8614 38.272 49.0637 37.7941C47.4201 36.8038 47.2654 35.3665 48.3004 33.747C49.803 31.3917 54.0976 30.7934 56.0473 32.3716C56.2948 32.5711 56.5974 32.6983 56.8759 32.8599C56.8072 32.9768 56.735 33.0903 56.6627 33.2037Z" fill="#F9F9F9"/>
<path d="M3.23047 42.6736C4.94283 37.4128 6.61392 32.286 8.31252 27.0664C7.70735 27.0355 7.17095 27.008 6.44887 26.9736C8.04432 25.5294 9.52287 24.1884 11.1389 22.7236C11.5928 24.6182 12.0192 26.3856 12.4731 28.2802C11.9711 28.0086 11.5928 27.8023 11.1218 27.5444C10.5338 29.3014 9.96299 30.9966 9.39908 32.6918C8.37098 35.7795 7.336 38.8604 6.33197 41.955C6.15661 42.4983 5.89184 42.7286 5.31418 42.6874C4.68494 42.6392 4.04539 42.6736 3.23047 42.6736Z" fill="#F9F9F9"/>
<path d="M61.7463 40.2907C61.7463 41.1331 61.7463 41.783 61.7463 42.7457C60.0305 42.7939 59.0746 43.0105 57.8643 42.7457C56.5439 42.4569 56.0522 40.8546 56.4511 39.5686C57.4104 36.4602 58.4007 33.3622 59.3635 30.2572C59.501 29.8137 59.6936 29.542 60.2059 29.4595C60.9486 29.3392 61.6741 29.1088 62.5681 28.8818C62.1211 30.326 61.7188 31.6257 61.289 33.0149C61.7945 33.0149 62.2277 33.0149 62.7332 33.0149C62.7332 33.8435 62.7332 34.5966 62.7332 35.4837C62.3412 35.4837 61.9251 35.5215 61.5194 35.4768C60.7732 35.3977 60.34 35.6109 60.1715 36.4224C59.9996 37.2442 58.5417 40.2253 59.4288 40.3079C59.8964 40.3526 60.6701 40.3113 61.7463 40.2907Z" fill="#F9F9F9"/>
<path d="M75.3008 42.6742C76.4183 39.418 77.4567 36.3165 78.5467 33.2356C78.8149 32.4792 79.0693 31.7537 79.0693 31.7537C79.0693 31.7537 81.3284 31.678 81.6482 31.678C81.6826 31.9153 81.3559 32.4998 81.38 32.6717C82.4906 32.3073 83.8866 31.6608 85.238 31.2207C84.9869 32.1972 84.846 32.9124 84.5984 33.5864C83.67 33.913 82.7863 34.1915 82.3359 34.336C80.9502 34.7795 80.541 35.5772 79.9083 37.1864C79.0556 39.6656 77.969 42.6708 77.969 42.6708C77.969 42.6708 76.1329 42.6742 75.3008 42.6742Z" fill="#F9F9F9"/>
</svg>
