<svg width="145" height="36" viewBox="0 0 145 36" fill="none" xmlns="http://www.w3.org/2000/svg">
<path d="M135.613 25.8935H138.211L136.895 23.001L135.613 25.8935Z" fill="white"/>
<path d="M144.586 16.8325C144.516 16.6234 144.413 16.4492 144.309 16.2401C144.239 16.1007 144.135 15.9613 144.032 15.8567C143.893 15.6476 143.754 15.4734 143.581 15.2991C143.408 15.1249 143.235 14.9855 143.027 14.8461C142.889 14.7415 142.75 14.6718 142.646 14.5673C142.542 14.4976 142.404 14.4279 142.265 14.3582C141.642 14.0445 140.949 13.8703 140.222 13.8703V8.18974C140.222 3.65924 136.585 0 132.082 0C129.9 0 127.857 0.836399 126.333 2.40465C124.809 3.97289 123.909 6.02904 123.909 8.18974V13.8703C121.276 13.8703 119.129 16.031 119.129 18.6796V31.2256C119.129 33.8742 121.276 36 123.909 36H130.143H140.187C140.707 36 141.191 35.9303 141.676 35.7561C141.953 35.6515 142.231 35.5469 142.473 35.4076C142.75 35.2682 142.993 35.0939 143.235 34.8848C143.581 34.606 143.893 34.2575 144.17 33.8741C144.274 33.7348 144.343 33.6302 144.413 33.4908C144.69 32.9332 144.897 32.3408 144.967 31.6786C144.967 31.5044 145.001 31.365 145.001 31.1907V18.6447C145.001 18.3311 144.967 17.9826 144.897 17.6689C144.794 17.3901 144.69 17.1113 144.586 16.8325ZM127.753 8.18974C127.753 5.81994 129.658 3.86834 132.048 3.86834C134.438 3.86834 136.343 5.78509 136.343 8.18974V13.8703H127.753V8.18974ZM129.9 29.2391C129.138 30.0407 128.169 30.424 126.922 30.424C125.675 30.424 124.636 30.0058 123.874 29.2391C123.112 28.4376 122.731 27.2527 122.731 25.7541V19.3766H124.532V25.9284C124.532 26.7996 124.74 27.4618 125.155 27.9497C125.571 28.4027 126.125 28.6467 126.887 28.6467C127.649 28.6467 128.203 28.4376 128.619 28.0194C129.035 27.6012 129.242 26.9739 129.242 26.2072V19.3766H131.043V26.1026C131.043 27.3921 130.662 28.4724 129.9 29.2391ZM140.083 30.0755L139.633 29.0997L138.906 27.4618H134.888L133.745 30.0755H131.84L136.897 18.8538L140.187 26.0678L142.023 30.0755H140.083Z" fill="white"/>
<path d="M12.3281 17.8086H14.1984V29.797H18.6664V31.6789H12.3281V17.8086Z" fill="white"/>
<path d="M18.5977 24.6743C18.5977 22.6878 19.3596 20.9453 20.8489 19.5165C22.3383 18.0876 24.1393 17.3906 26.252 17.3906C28.2955 17.3906 30.0619 18.1225 31.5512 19.5513C33.0405 20.9802 33.7678 22.6878 33.7678 24.6743C33.7678 26.7653 33.0405 28.5426 31.5512 29.9715C30.0965 31.4352 28.2955 32.1322 26.1481 32.1322C24.0354 32.1322 22.2343 31.4003 20.7797 29.9366C19.325 28.4729 18.5977 26.7304 18.5977 24.6743ZM31.7936 24.744C31.7936 23.2106 31.2395 21.9211 30.1658 20.8756C29.0921 19.8301 27.7067 19.3074 26.1135 19.3074C24.5895 19.3074 23.308 19.8301 22.1997 20.9105C21.126 21.9908 20.5719 23.2454 20.5719 24.744C20.5719 26.2425 21.126 27.532 22.2343 28.5775C23.3427 29.623 24.6934 30.1457 26.3213 30.1457C27.8106 30.1457 29.0921 29.623 30.1658 28.5426C31.2395 27.4971 31.7936 26.2077 31.7936 24.744Z" fill="white"/>
<path d="M48.5234 17.8086H50.3937V23.4543L56.2471 17.8086H58.8793L52.2294 24.221L58.914 31.644H56.5242L50.4284 24.8831V31.644H48.5581L48.5234 17.8086Z" fill="white"/>
<path d="M72.043 17.8086H73.9133V23.1406H80.4939V17.8086H82.3643V31.6789H80.4939V25.0225H73.9133V31.6789H72.043V17.8086Z" fill="white"/>
<path d="M90.1179 17.2861L96.6293 31.6792H94.6551L93.0619 28.1245H87.2086L85.6153 31.6792H83.6758L90.1179 17.2861ZM90.1179 21.6075L87.9013 26.5562H92.3346L90.1179 21.6075Z" fill="white"/>
<path d="M97.9453 17.8086H99.8156V31.6789H97.9453V17.8086Z" fill="white"/>
<path d="M102.141 17.251L112.323 27.7757V17.8086H114.194V32.3062L104.011 21.8163V31.644H102.141V17.251Z" fill="white"/>
<path d="M8.48561 24.2558C9.14368 23.524 9.5593 22.6179 9.5593 21.6769C9.5593 19.7253 8.20853 17.8086 5.16063 17.8086H1.8703H0V31.6789H1.8703H6.09578C7.44655 31.6789 8.55488 31.2955 9.35149 30.5985C10.1481 29.8667 10.5984 28.856 10.5984 27.706C10.633 26.3468 9.87101 24.9877 8.48561 24.2558ZM5.126 19.6905C6.92703 19.6905 7.689 20.5966 7.689 21.7118C7.689 22.827 6.96166 23.7331 5.126 23.7331H1.8703V19.6905H5.126ZM6.09578 29.797H1.8703V25.5801H6.09578C8.00072 25.5801 8.76269 26.5211 8.76269 27.706C8.76269 28.8909 7.96608 29.797 6.09578 29.797Z" fill="white"/>
<path d="M42.5322 30.1454C40.9044 30.1454 39.5536 29.6227 38.4453 28.5772C37.337 27.5317 36.7828 26.2422 36.7828 24.7437C36.7828 23.2451 37.337 21.9905 38.4106 20.9102C39.4843 19.8298 40.8005 19.3071 42.3244 19.3071C43.6405 19.3071 44.8181 19.6556 45.7879 20.3874L47.1041 18.9237C45.7533 17.8782 44.2293 17.3555 42.463 17.3555C40.3502 17.3555 38.5492 18.0873 37.0599 19.4813C35.5706 20.9102 34.8086 22.6178 34.8086 24.6391C34.8086 26.6953 35.5359 28.4726 37.0252 29.9363C38.5146 31.4 40.2809 32.1318 42.3937 32.1318C44.1947 32.1318 45.7533 31.6091 47.0694 30.5985L45.7187 29.0999C44.8181 29.7969 43.7445 30.1454 42.5322 30.1454Z" fill="white"/>
<path d="M66.0479 30.1454C64.42 30.1454 63.0692 29.6227 61.9609 28.5772C60.8526 27.5317 60.2984 26.2422 60.2984 24.7437C60.2984 23.2451 60.8526 21.9905 61.9263 20.9102C63 19.8298 64.3161 19.3071 65.84 19.3071C67.1562 19.3071 68.3338 19.6556 69.3036 20.3874L70.6197 18.9237C69.2689 17.8782 67.745 17.3555 65.9786 17.3555C63.8658 17.3555 62.0648 18.0873 60.5755 19.4813C59.0862 20.9102 58.3242 22.6178 58.3242 24.6391C58.3242 26.6953 59.0516 28.4726 60.5409 29.9363C62.0302 31.4 63.7966 32.1318 65.9093 32.1318C67.7103 32.1318 69.2689 31.6091 70.5851 30.5985L69.2343 29.0999C68.2991 29.7969 67.2601 30.1454 66.0479 30.1454Z" fill="white"/>
</svg>
