<svg width="106" height="39" viewBox="0 0 106 39" fill="none" xmlns="http://www.w3.org/2000/svg">
<path d="M27.4674 5.43211C27.4674 5.41284 27.4674 5.41284 27.4674 5.43211C27.3903 5.33574 27.3132 5.27792 27.2361 5.20082L27.2168 5.18154C27.2168 5.18154 27.2168 5.18154 27.1975 5.18154C27.1783 5.16227 27.1782 5.16227 27.159 5.14299C24.2293 2.32894 20.2395 0.613516 15.8642 0.671339C7.19072 0.786985 0.0977441 7.86068 0.00137224 16.5342C-0.0564509 21.0058 1.71679 25.0534 4.62722 28.0024C4.68505 28.0602 4.7236 28.0795 4.6465 28.0217C4.6465 28.0217 4.6465 28.0217 4.66577 28.0217C4.70432 28.0602 4.74287 28.0988 4.80069 28.1566C4.83924 28.1952 4.89707 28.253 4.93561 28.2915L5.244 28.5806C5.49457 28.7927 5.74514 29.0047 5.9957 29.2167C6.05353 29.2552 6.11135 29.3131 6.16917 29.3516C9.21453 31.9537 16.8665 38.9503 16.8665 38.9503L27.1975 28.2722C30.4356 25.1691 32.3631 20.7552 32.1318 15.9366C31.9197 11.9661 30.2814 8.24617 27.4674 5.43211ZM23.439 25.4775C23.0343 25.8051 22.6488 26.1521 22.2826 26.5376L20.49 28.3879L16.7315 32.2813L13.7247 29.7178L13.3971 29.448L13.3007 29.3709H13.2814L9.56146 26.1906C6.74741 24.2246 4.81997 21.0251 4.6465 17.3051C4.39593 11.9469 7.84604 7.28245 12.761 5.79832C12.9538 5.7405 14.5728 5.37429 15.4787 5.33574C21.82 5.02735 27.2361 9.82667 27.5445 16.1487C27.7179 19.8686 26.0989 23.2416 23.439 25.4775Z" fill="white"/>
<path d="M17.9443 21.4878C15.4001 22.2973 13.0293 21.083 12.2005 18.5195C11.391 15.9561 12.6246 13.5853 15.1688 12.7758C16.5373 12.3517 17.8479 12.5252 19.1008 13.2769L20.5271 10.7712C19.6983 10.2316 18.7731 9.9039 17.7708 9.76898L17.0384 7.45605L15.3615 7.97646L15.9205 9.74971C15.5928 9.78825 15.2652 9.84608 14.9375 9.92318L14.3785 8.14993L12.7017 8.67034L13.2606 10.4629C9.61776 12.0434 7.80597 15.7055 9.02025 19.5025C10.2731 23.4152 14.0316 25.362 18.0407 24.3597L18.5803 26.0751L20.2572 25.5547L19.6983 23.7815C19.9681 23.6658 20.2187 23.5309 20.4692 23.3767L21.0475 25.1885L22.7243 24.6681L21.9534 22.2395C22.6087 21.6034 23.1098 20.8325 23.4375 20.0037L20.8547 18.7894C20.2765 20.1579 19.2935 21.0638 17.9443 21.4878Z" fill="white"/>
<path d="M44.642 16.2062H41.3268V19.3865C41.3268 20.967 40.633 21.5452 39.515 21.5452C38.3971 21.5452 37.7033 20.967 37.7033 19.3865V7.35925C37.7033 5.77875 38.3971 5.16197 39.515 5.16197C40.633 5.16197 41.3268 5.75948 41.3268 7.35925V9.74928H44.642V7.59055C44.642 4.02479 42.8688 2.00098 39.4187 2.00098C35.9878 2.00098 34.1953 4.04406 34.1953 7.59055V19.1552C34.1953 22.7209 35.9686 24.7447 39.4187 24.7447C42.8495 24.7447 44.642 22.7017 44.642 19.1552V16.2062Z" fill="white"/>
<path d="M53.7739 18.2687V21.7574C53.7739 23.5692 53.9089 23.9161 54.0823 24.4943H57.6481C57.3012 23.6655 57.2626 22.8753 57.2626 21.7959V18.3651C57.2626 16.0521 56.6844 14.356 54.9497 13.6236C56.5109 12.8912 57.2433 11.407 57.2433 9.11337V7.35941C57.2433 3.92857 55.6821 2.23242 52.0585 2.23242H46.7773V24.4943H50.266V15.4354H51.4803C53.0608 15.4354 53.7739 16.2063 53.7739 18.2687ZM50.266 5.43197H51.9429C53.1764 5.43197 53.7161 6.12585 53.7161 7.72562V9.9229C53.7161 11.6961 52.9259 12.2744 51.6152 12.2744H50.2467V5.43197H50.266Z" fill="white"/>
<path d="M62.5076 24.4946H66.0155V17.1318L70.4294 2.25195H67.0949L64.4157 12.3903L61.7559 2.25195H58.0938L62.5076 17.1318V24.4946Z" fill="white"/>
<path d="M82.186 10.6363V7.74515C82.186 4.17939 80.4706 2.25195 76.9627 2.25195H71.8164V24.5139H75.3051V16.1295H76.9627C80.4706 16.1295 82.186 14.2021 82.186 10.6363ZM78.6974 10.8676C78.6974 12.4481 78.0999 12.9685 76.9819 12.9685H75.3243V5.43222H76.9819C78.0999 5.43222 78.6974 5.93336 78.6974 7.53313V10.8676Z" fill="white"/>
<path d="M93.5983 2.25195H82.8047V5.43223H86.4475V24.4946H89.9555V5.43223H93.5983V2.25195Z" fill="white"/>
<path d="M100.148 1.98145C96.7173 1.98145 94.8477 4.02453 94.8477 7.57101V19.1356C94.8477 22.7014 96.7173 24.7252 100.148 24.7252C103.579 24.7252 105.449 22.6821 105.449 19.1356V7.57101C105.468 4.02453 103.579 1.98145 100.148 1.98145ZM101.96 19.3862C101.96 20.9667 101.266 21.5835 100.148 21.5835C99.0302 21.5835 98.3363 20.986 98.3363 19.3862V7.359C98.3363 5.7785 99.0302 5.16172 100.148 5.16172C101.266 5.16172 101.96 5.75922 101.96 7.359V19.3862Z" fill="white"/>
<path d="M38.6481 34.4008L36.9327 27.9824H34.8125V38.699H36.3352V30.9507L38.4168 38.699H40.1515V27.9824H38.6481V34.4008Z" fill="white"/>
<path d="M43.6172 38.699H48.2238V37.1763H45.3133V34.0346H47.6263V32.5119H45.3133V29.5244H48.2238V27.9824H43.6172V38.699Z" fill="white"/>
<path d="M56.9576 36.5017L56.1095 27.9824H54.4905L53.6809 36.4439L52.775 27.9824H51.1367L52.3317 38.699H54.6447L55.2614 32.9938L55.8782 38.699H58.114L59.3091 27.9824H57.8249L56.9576 36.5017Z" fill="white"/>
<path d="M63.8756 30.45C63.8756 29.679 64.184 29.3899 64.7236 29.3899C65.2633 29.3899 65.5717 29.679 65.5717 30.45V30.8933H67.1715V30.5656C67.1715 28.8502 66.3234 27.8672 64.6851 27.8672C63.0468 27.8672 62.1987 28.8502 62.1987 30.5656C62.1987 33.6302 65.4946 34.035 65.4946 36.2515C65.4946 37.0225 65.167 37.2924 64.6273 37.2924C64.0876 37.2924 63.7599 37.0225 63.7599 36.2515V35.4806H62.1602V36.1359C62.1602 37.8513 63.0082 38.8343 64.6658 38.8343C66.3234 38.8343 67.1715 37.8513 67.1715 36.1359C67.1715 33.0713 63.8756 32.6665 63.8756 30.45Z" fill="white"/>
<path d="M72.877 27.9824H70.3906V38.699H72.0675V34.6706H72.8577C74.5346 34.6706 75.3634 33.7455 75.3634 32.03V30.6423C75.3827 28.9269 74.5539 27.9824 72.877 27.9824ZM73.7058 32.1264C73.7058 32.8974 73.4167 33.1287 72.877 33.1287H72.0868V29.5051H72.877C73.4167 29.5051 73.7058 29.7557 73.7058 30.5074V32.1264Z" fill="white"/>
<path d="M80.8565 27.8672C79.1989 27.8672 78.293 28.8502 78.293 30.5656V36.1359C78.293 37.8513 79.1989 38.8343 80.8565 38.8343C82.5141 38.8343 83.4199 37.8513 83.4199 36.1359V30.5656C83.4007 28.8502 82.5141 27.8672 80.8565 27.8672ZM81.7238 36.2323C81.7238 37.0032 81.3961 37.2924 80.8565 37.2924C80.3168 37.2924 79.9891 37.0032 79.9891 36.2323V30.45C79.9891 29.679 80.3168 29.3899 80.8565 29.3899C81.3961 29.3899 81.7238 29.679 81.7238 30.45V36.2323Z" fill="white"/>
<path d="M88.4347 27.9824H86.7578V38.699H88.4347V27.9824Z" fill="white"/>
<path d="M95.7575 34.4008L94.0421 27.9824H91.9219V38.699H93.4445V30.9507L95.5262 38.699H97.2609V27.9824H95.7575V34.4008Z" fill="white"/>
<path d="M100.246 29.5244H102V38.699H103.696V29.5244H105.45V27.9824H100.246V29.5244Z" fill="white"/>
</svg>
