<svg width="93" height="62" viewBox="0 0 93 62" fill="none" xmlns="http://www.w3.org/2000/svg">
<path d="M35.4156 39.8898C34.9485 39.1892 34.4814 38.5352 34.0143 37.8813C33.2669 36.8536 32.5662 35.7793 31.8189 34.7516C31.6787 34.5181 31.5386 34.4246 31.2116 34.5181C30.1373 34.845 28.9228 33.9575 28.8761 32.7898C28.8294 31.9957 29.1096 31.4351 29.8103 31.0615C29.9971 30.9213 30.1373 30.7812 30.1373 30.5009C30.0906 29.4733 30.1373 28.3989 30.1373 27.3713C30.1373 25.4094 30.1373 23.4009 30.184 21.439C30.184 21.2521 30.184 21.0653 30.184 20.9252C30.2307 20.6916 30.1373 20.5515 29.9037 20.4113C28.8761 19.8041 28.8761 18.4495 29.9037 17.8422C30.1373 17.7021 30.184 17.562 30.184 17.3284C30.184 15.9271 30.2307 14.5725 30.2307 13.1711C30.2307 12.8909 30.184 12.704 29.9037 12.5172C29.1563 12.0034 28.9695 11.256 29.203 10.4152C29.3899 9.6211 30.0438 9.2007 30.8379 9.06057C31.0248 9.01386 31.2583 9.01385 31.4452 9.15399C31.7254 9.29412 31.959 9.2007 32.1458 8.96714C32.1458 8.92043 32.1925 8.92043 32.1925 8.87372C32.5662 8.3599 32.5662 7.89279 32.1458 7.37897C32.0524 7.23884 31.959 7.28555 31.8189 7.33226C30.6978 7.98621 29.53 7.00528 29.5767 6.07106C29.5767 5.41711 29.9037 4.99671 30.4175 4.66973C30.9781 4.38946 31.4919 4.43618 31.959 4.80986C32.1925 4.99671 32.3794 4.95 32.6129 4.80986C33.3136 4.38946 34.061 4.01578 34.7617 3.64209C35.1353 3.45524 35.3689 3.22169 35.3222 2.75458C35.2288 1.96049 35.6492 1.39996 36.3031 1.11969C36.8636 0.886138 37.5176 0.886138 38.0314 1.25983C38.6387 1.63351 38.9189 2.24076 38.7788 2.94142C38.7321 3.2684 38.8255 3.40853 39.1058 3.54867C39.5262 3.78222 39.9466 3.96907 40.3203 4.20262C40.5538 4.34275 40.694 4.29604 40.8808 4.1092C41.0676 3.87564 41.2545 3.59538 41.488 3.40853C41.6749 3.22169 41.7216 3.08156 41.6282 2.80129C41.3479 2.28747 41.5815 1.86707 41.9084 1.49338C42.5157 0.839427 43.6367 1.07298 44.0104 1.91378C44.1039 2.10062 44.1506 2.19405 44.3841 2.19405C45.5052 2.28747 46.5795 2.4276 47.7006 2.47431C47.8875 2.47431 48.0276 2.47431 48.2144 2.33418C48.775 1.86707 49.4756 2.10062 49.6158 2.848C49.6625 2.98813 49.7092 3.08156 49.8493 3.17498C50.7835 3.73551 51.7178 4.29604 52.652 4.85657C52.8855 4.99671 53.0257 4.95 53.2125 4.80986C53.8665 4.20262 54.754 4.1092 55.4546 4.48289C56.2487 4.85657 56.7158 5.74408 56.6224 6.63159C56.6224 6.81844 56.5757 6.95857 56.4823 7.14541C56.3421 7.37897 56.3889 7.56581 56.6224 7.70595C57.0428 8.03292 57.4632 8.40661 57.8836 8.7803C58.1172 8.96714 58.304 9.06057 58.631 8.87372C59.7053 8.21977 61.1534 9.01386 61.2001 10.4619C61.2001 10.8823 61.0132 11.256 60.733 11.583C60.5461 11.7698 60.5461 11.9099 60.6396 12.1435C61.2001 13.1711 61.7139 14.1988 62.2744 15.2731C62.3679 15.46 62.4613 15.6001 62.7416 15.6001C63.3488 15.6468 63.7692 16.1606 63.7225 16.8146C63.6758 17.3751 63.2554 17.7488 62.6481 17.7021C62.2744 17.6554 62.0409 17.7955 61.8073 18.0758C61.7606 18.1692 61.7139 18.2159 61.6672 18.2626C61.1534 18.8699 61.1534 18.8699 61.7606 19.4771C62.1343 19.8508 62.508 20.2245 62.8817 20.5982C63.0685 20.785 63.2087 20.8317 63.4422 20.6916C64.0962 20.3646 64.937 20.5515 65.4508 21.0653C65.6844 21.2989 65.8712 21.6258 65.8245 21.9528C65.8245 22.0929 65.8245 22.2331 65.8245 22.3732C65.8245 23.6344 64.6567 24.4285 63.4889 23.868C63.162 23.7278 63.0218 23.7745 62.7883 24.0081C62.3212 24.4752 61.854 24.9423 61.3402 25.3627C61.1534 25.5496 61.1067 25.7364 61.3402 25.9232C61.4804 26.0634 61.6205 26.2502 61.7606 26.4371C61.9942 26.6706 62.1343 26.9509 62.6014 26.764C62.8817 26.6239 63.3955 26.9976 63.5356 27.3713C63.6758 27.745 63.7225 28.1187 63.4422 28.4923C63.2554 28.7259 62.9751 28.9595 62.6014 28.9128C62.4146 28.866 62.3212 29.0062 62.2277 29.1463C61.6205 30.2674 61.0132 31.3417 60.406 32.4628C60.2659 32.6963 60.4527 32.8365 60.5461 32.9766C61.2001 33.724 60.9665 35.1253 60.0323 35.5924C59.4251 35.9194 58.8645 35.8727 58.304 35.5457C58.1172 35.4056 57.977 35.4056 57.7902 35.5924C57.3231 36.0128 56.856 36.3865 56.3421 36.7602C56.1086 36.947 56.1086 37.0872 56.202 37.3207C56.7625 38.8155 55.5481 40.2168 54.1467 40.1234C53.6796 40.0767 53.2592 39.8898 52.8855 39.5629C52.652 39.3293 52.5118 39.3293 52.2316 39.4694C51.3441 39.9833 50.4098 40.4971 49.4756 41.0109C49.3355 41.1043 49.2421 41.1977 49.1954 41.4313C49.1019 42.0385 48.4013 42.3655 47.9342 41.9451C47.5138 41.5247 46.9999 41.6181 46.5795 41.6649C45.8789 41.7583 45.2249 41.805 44.5243 41.805C44.0571 41.805 43.6835 41.805 43.4966 42.3655C43.3565 42.7392 43.0295 42.8793 42.6091 42.8326C42.469 42.8326 42.3756 42.7859 42.2354 42.7859C41.3946 42.7392 40.9275 42.0385 41.2545 41.2912C41.3946 40.9642 41.3479 40.6839 41.0676 40.4504C40.7874 40.2168 40.694 39.7497 40.3203 39.703C39.9933 39.6096 39.713 39.9833 39.386 40.0767C39.2926 40.1234 39.1992 40.2168 39.1058 40.2168C38.6387 40.3569 38.4518 40.6372 38.4985 41.1977C38.592 41.9451 37.7979 42.9728 36.7702 42.6925C36.6301 42.6458 36.5367 42.6925 36.3965 42.6925C35.6025 42.6925 34.9485 42.0853 34.9952 41.3379C35.0886 40.5905 34.7617 40.2635 34.1544 39.9833C33.407 39.6563 32.7998 39.2359 32.1458 38.8622C31.9123 38.7221 31.7721 38.7221 31.5853 38.9089C31.0248 39.3293 30.2307 39.2826 29.7169 38.8155C29.1563 38.3017 28.9695 37.601 29.3899 36.947C29.7169 36.3398 30.3708 36.0595 31.1182 36.2464C31.7254 36.3865 32.2393 37.0405 32.1925 37.6944C32.1925 38.1148 32.3327 38.3017 32.6597 38.5352C33.4537 38.9556 34.2011 39.4227 34.9952 39.8898C35.0886 39.8431 35.1821 39.9366 35.4156 39.8898ZM54.754 29.8003C54.6138 28.6792 55.875 27.8851 56.9027 28.3522C57.1362 28.4456 57.2297 28.3989 57.4165 28.2588C58.2106 27.5114 59.0047 26.764 59.7521 26.0167C60.2192 25.5496 60.2192 25.5496 59.7988 25.0357C59.4251 24.5686 59.0981 24.1949 58.4441 24.5219C58.3974 24.5219 58.3507 24.5219 58.3507 24.5219C57.3698 24.662 56.6224 24.2884 56.0619 23.541C55.5013 22.7936 55.4546 21.9528 55.875 21.112C56.3421 20.1311 57.7435 19.337 59.0047 20.0377C59.1915 20.1311 59.2849 20.1311 59.4251 19.9442C59.6586 19.664 59.8922 19.3837 60.1724 19.1034C60.3593 18.9166 60.3126 18.7765 60.1257 18.6363C59.2849 17.7955 58.3974 16.908 57.5566 16.0672C57.4165 15.9271 57.2764 15.8804 57.0895 15.9738C56.856 16.1139 56.5757 16.2074 56.2954 16.1606C55.6882 16.0205 55.1744 15.6935 54.9875 15.0863C54.8474 14.5258 54.8941 13.9185 55.3612 13.4981C55.5481 13.358 55.5481 13.1711 55.5481 12.9843C55.3145 11.6297 55.0809 10.2751 54.8007 8.92043C54.754 8.73359 54.754 8.45332 54.427 8.45332C53.5862 8.45332 53.1191 7.9395 52.7454 7.23884C52.652 7.00528 52.5118 6.91186 52.2783 6.95857C51.9513 7.00528 51.5776 7.05199 51.2506 7.0987C50.1763 7.19213 49.1019 7.28555 48.0276 7.42568C47.8875 7.42568 47.6539 7.37897 47.6539 7.61253C47.6539 7.84608 47.6072 8.07964 47.9342 8.21977C49.0552 8.73359 50.223 9.24741 51.3441 9.76123C51.5776 9.90137 51.8112 9.90136 52.0447 9.71452C52.3717 9.48097 52.8855 9.57439 53.2125 9.85465C53.4928 10.1349 53.7263 10.602 53.4928 11.0224C53.2125 11.4895 52.9322 11.6764 52.325 11.583C51.9513 11.5363 51.6243 11.256 51.5309 10.7422C51.4842 10.5553 51.4375 10.3685 51.2039 10.2751C50.0829 9.76123 48.9151 9.24741 47.794 8.73359C47.5138 8.59346 47.3269 8.64017 47.0934 8.87372C46.5328 9.34083 45.9256 9.6211 45.1782 9.38754C44.4308 9.15399 44.0104 8.64017 43.7769 7.9395C43.7302 7.75266 43.6367 7.61253 43.4032 7.61253C42.4223 7.61253 41.4413 7.42568 40.4604 7.42568C40.2268 7.42568 40.0867 7.47239 39.9933 7.70595C39.8064 8.03292 39.5262 8.26648 39.1525 8.31319C38.8255 8.3599 38.7788 8.50003 38.7788 8.7803C38.7788 9.94808 38.7321 11.1159 38.6854 12.2836C38.6854 12.4705 38.7321 12.5639 38.8722 12.704C39.2926 13.031 39.2926 13.4514 38.8722 13.7784C38.7321 13.8718 38.6387 13.9652 38.6387 14.1521C38.6387 14.9929 38.592 15.8337 38.5452 16.6745C38.5452 16.908 38.592 17.0949 38.7788 17.235C39.2926 17.6087 39.4328 18.1692 39.3393 18.7765C39.2926 19.2436 38.6854 19.9909 38.265 19.9909C37.7979 19.9909 37.284 20.0377 36.8637 19.664C36.6768 19.4771 36.5367 19.4771 36.3965 19.7107C36.0696 20.1778 35.7426 20.6449 35.3689 21.112C35.1821 21.3456 35.2288 21.4857 35.4623 21.5791C35.9761 21.8127 36.4433 22.0929 36.9571 22.3732C37.1439 22.4666 37.3308 22.5133 37.5643 22.4666C37.9847 22.3265 38.3117 22.5601 38.3584 22.9337C38.4051 23.4009 38.1248 23.6811 37.611 23.5877C37.3775 23.541 37.284 23.5877 37.1439 23.7745C35.9294 25.3627 34.7149 26.9509 33.5005 28.5858C32.9399 29.3331 32.3794 30.0805 31.7721 30.8279C31.7254 30.9213 31.5853 30.968 31.6787 31.1082C31.9123 31.4819 32.4261 31.622 32.7998 31.3884C33.5472 30.8746 34.2945 30.3608 35.0886 29.8937C35.4156 29.7068 35.4623 29.5667 35.3222 29.193C34.8084 28.1187 35.6492 26.7173 36.8169 26.5305C37.8446 26.3904 38.7321 26.9509 39.0124 27.8851C39.2926 28.7726 38.9189 29.7535 38.0781 30.2207C37.8446 30.3608 37.7979 30.5009 37.8446 30.7345C38.0781 32.2292 38.3584 33.724 38.5452 35.2654C38.592 35.499 38.6854 35.6858 38.9189 35.826C39.1525 35.9194 39.386 36.0128 39.5262 36.2464C39.6196 36.5266 39.9466 36.5266 40.3203 36.5266C41.2078 36.4799 42.0486 36.5734 42.9361 36.4332C43.1696 36.3865 43.2631 36.3865 43.3098 36.153C43.4966 35.4523 43.9637 34.9852 44.6644 34.7983C45.4585 34.6115 46.1591 34.7516 46.673 35.4056C46.8131 35.5924 46.9532 35.6391 47.1868 35.5457C48.3078 35.0786 49.3822 34.6115 50.5033 34.1444C50.8302 34.0043 51.1105 33.9108 51.1105 33.4437C51.1105 33.3036 51.2506 33.1635 51.3441 33.07C51.671 32.6963 52.1849 32.6029 52.6053 32.8365C53.0257 33.07 53.3059 33.6306 53.1658 34.0042C52.9322 34.7983 52.2316 35.0319 51.5309 34.6582C51.3441 34.5648 51.1572 34.5181 50.9704 34.6115C49.8026 35.1253 48.6348 35.5924 47.5138 36.1062C47.2802 36.1997 47.1868 36.3398 47.1868 36.6201C47.1868 36.9003 47.4203 36.9003 47.5605 36.947C48.9618 37.1339 50.3631 37.274 51.7645 37.5076C52.0447 37.5543 52.1849 37.5076 52.325 37.2273C52.6053 36.6201 53.1658 36.1997 53.8198 36.1062C54.2869 36.0595 54.3336 35.7793 54.427 35.4523C54.5204 34.9385 54.6138 34.4714 54.7073 33.9575C54.8941 33.1167 55.0342 32.2759 55.2211 31.4351C55.2678 31.2483 55.2211 31.1082 55.0809 31.0147C54.8474 30.5476 54.6605 30.2207 54.754 29.8003ZM30.6511 30.1272C30.6044 30.1272 30.6044 30.1272 30.5577 30.1272C30.5577 30.2207 30.5577 30.3141 30.5577 30.4075C30.5577 30.5476 30.511 30.7345 30.6978 30.7812C30.8846 30.8279 31.0248 30.8279 31.1649 30.6878C31.2116 30.6411 31.2583 30.5943 31.2583 30.5476C33.1268 28.072 35.0419 25.5963 36.9104 23.1673C37.0972 22.887 36.9571 22.7936 36.7702 22.7002C36.2097 22.3732 35.6025 22.0929 35.0419 21.8127C34.8084 21.7193 34.7149 21.766 34.5748 21.9528C34.2011 22.4666 33.8274 22.9804 33.407 23.4943C33.2202 23.7278 33.1735 23.9147 33.3136 24.1949C33.6406 24.8489 33.4537 25.5963 32.8465 26.0167C32.3327 26.3904 31.4919 26.2502 31.0248 25.7831C30.6044 25.3627 30.5577 24.8489 30.7445 24.3351C30.9313 23.7745 31.3985 23.4476 32.0057 23.4009C32.1458 23.4009 32.3327 23.4476 32.3794 23.214C32.6129 22.4666 32.8465 21.766 33.0801 21.0186C33.1268 20.8317 33.0801 20.7383 32.9399 20.6449C32.6597 20.5048 32.3794 20.3646 32.0991 20.1778C31.8189 19.9909 31.5386 19.9442 31.305 20.2712C31.1649 20.4113 30.9781 20.5048 30.7912 20.5048C30.5577 20.5515 30.511 20.6449 30.511 20.8317C30.511 20.9719 30.511 21.0653 30.511 21.2054C30.6511 24.1949 30.6511 27.1377 30.6511 30.1272ZM34.9018 12.9843C34.7149 13.2646 34.5748 13.4981 34.4347 13.7784C33.5939 15.133 32.7998 16.4876 31.959 17.7955C31.7721 18.0758 31.6787 18.3093 31.8656 18.6363C32.0057 18.8699 32.0057 19.1501 31.959 19.3837C31.9123 19.5238 31.959 19.664 32.0991 19.7107C32.4261 19.8975 32.7531 20.0844 33.0801 20.2245C33.2669 20.3179 33.407 20.2712 33.4537 20.0377C33.734 19.1034 34.0143 18.1692 34.3413 17.235C34.388 17.0014 34.388 16.8613 34.2011 16.7212C33.8274 16.3942 33.7807 15.787 34.1077 15.4133C34.388 15.0863 34.8084 14.9462 35.2288 15.133C35.6025 15.2731 35.836 15.6935 35.836 16.1139C35.7893 16.5343 35.509 16.8613 35.0886 16.9547C34.9018 17.0014 34.7617 17.0014 34.7149 17.235C34.4814 18.0758 34.2011 18.8699 33.9209 19.7107C33.6406 20.5982 33.6406 20.5982 34.5281 21.0186C34.7149 21.112 34.8551 21.112 34.9952 20.9252C35.4156 20.3646 35.836 19.8041 36.2564 19.2436C36.3498 19.1501 36.3498 19.0567 36.3498 18.9166C36.163 18.3561 36.3031 17.8422 36.7235 17.3751C36.9104 17.1883 36.8636 17.0014 36.7702 16.8146C36.3965 15.9738 35.9761 15.1797 35.6025 14.3389C35.3222 13.9185 35.1353 13.4981 34.9018 12.9843ZM35.836 32.6496C36.163 32.6496 36.3965 32.7898 36.5367 33.1167C36.6768 33.397 36.6768 33.724 36.49 33.9108C36.0696 34.3312 36.2564 34.7983 36.3031 35.2654C36.3031 35.3589 36.3965 35.4523 36.49 35.499C36.7235 35.5924 36.9104 35.7326 37.1439 35.8727C37.5176 36.0595 37.7044 35.7326 37.9847 35.6391C38.1716 35.5457 38.0781 35.3589 38.0781 35.2187C37.8446 33.724 37.611 32.1825 37.3775 30.6878C37.3308 30.4542 37.284 30.3608 37.0038 30.3608C36.5367 30.3608 36.1163 30.2207 35.7426 29.8937C35.6025 29.8003 35.509 29.8003 35.3689 29.8937C34.4814 30.4542 33.5939 31.0615 32.7064 31.622C32.4728 31.7621 32.4261 31.949 32.5195 32.1825C32.6129 32.5095 32.6597 32.8365 32.5662 33.1167C32.5195 33.2569 32.5662 33.3503 32.7064 33.397C33.5939 33.8641 34.4814 34.3779 35.3689 34.8451C35.4156 34.8918 35.509 34.9385 35.5557 34.8918C35.6492 34.8451 35.6025 34.7516 35.6025 34.6582C35.5557 34.3779 35.4623 34.1911 35.2288 34.0042C34.9485 33.7707 34.8551 33.4437 34.9952 33.1167C35.1821 32.8365 35.4156 32.6029 35.836 32.6496ZM38.3584 8.87372C38.3584 8.03292 38.0314 7.79937 37.3775 8.17306C37.284 8.21977 37.1906 8.26648 37.0972 8.31319C36.6301 8.54675 36.4433 9.43425 36.7235 9.85465C37.1906 10.5086 36.9571 11.1159 36.163 11.3027C36.0229 11.3027 35.8827 11.3027 35.836 11.4428C35.6025 11.8165 35.4156 12.1435 35.1821 12.5172C35.1353 12.6106 35.1353 12.7507 35.1821 12.8909C35.7426 14.0586 36.3498 15.2264 36.8637 16.3942C37.0505 16.8146 37.284 17.0482 37.7512 16.9547C37.9847 16.908 38.0781 16.8613 38.0781 16.6278C38.0781 15.9738 38.1248 15.3198 38.1248 14.6659C38.1248 14.2455 38.2183 13.8718 37.8913 13.4981C37.7044 13.3113 37.7979 12.9843 37.9847 12.8442C38.2183 12.6573 38.2183 12.4705 38.2183 12.1902C38.265 11.0691 38.2183 9.94808 38.3584 8.87372ZM58.8178 12.0034C58.6777 11.9566 58.5843 12.0501 58.5376 12.1435C58.2573 12.5172 58.0237 12.8909 57.7435 13.2646C57.6033 13.4047 57.6501 13.5448 57.7435 13.685C58.0705 14.1521 58.0705 14.6192 57.8836 15.133C57.7902 15.3198 57.8369 15.46 57.977 15.5534C58.8178 16.4409 59.7053 17.2817 60.5461 18.1692C60.6863 18.3093 60.8264 18.3093 60.9665 18.1692C61.2001 17.889 61.4336 17.6087 61.6672 17.3751C61.7606 17.2817 61.8073 17.1883 61.7606 17.0482C61.5738 16.7212 61.6672 16.3475 61.854 16.0672C61.9475 15.8804 61.9942 15.7402 61.854 15.5534C61.2935 14.479 60.733 13.358 60.1724 12.2836C60.1257 12.1902 60.079 12.0501 59.9389 12.0968C59.5185 12.1435 59.1915 12.0968 58.8178 12.0034ZM59.3316 32.2292C59.6586 32.3694 59.8455 32.1825 59.9856 31.8555C60.5461 30.8746 61.06 29.847 61.6205 28.866C61.7606 28.6325 61.7606 28.4456 61.6205 28.2588C61.4804 28.072 61.3869 27.7917 61.5271 27.6048C61.7139 27.2312 61.5271 26.9976 61.2935 26.7173C61.1067 26.5305 60.9665 26.3436 60.8264 26.1568C60.733 26.0167 60.6396 26.0167 60.4994 26.1568C59.5652 27.0443 58.6777 27.8851 57.7435 28.7726C57.6501 28.866 57.6033 29.0062 57.6968 29.1463C57.977 29.6601 57.8369 30.1739 57.5566 30.6411C57.4632 30.8279 57.4165 30.9213 57.5566 31.1082C57.7902 31.4351 57.977 31.7154 58.1639 32.0424C58.304 32.2759 58.4441 32.5095 58.8178 32.3227C58.958 32.2292 59.1448 32.2759 59.3316 32.2292ZM30.6978 15.3666C30.6978 15.9271 30.7445 16.4876 30.6978 17.0014C30.6511 17.4686 30.7912 17.7488 31.2583 17.8889C31.4452 17.9357 31.5386 17.9357 31.632 17.7488C31.9123 17.2817 32.1925 16.8146 32.4728 16.3475C33.1735 15.1797 33.8741 14.0119 34.5748 12.8909C34.6682 12.7507 34.7149 12.6106 34.6215 12.4238C34.2945 11.7231 33.9676 11.0691 33.6406 10.3685C33.5472 10.2283 33.4537 10.0882 33.3136 10.2283C33.1268 10.3218 32.8465 10.3218 32.8932 10.6487C33.0801 11.8165 32.2393 12.8442 31.0715 12.8909C30.7912 12.8909 30.6978 13.031 30.6978 13.2646C30.6978 14.0119 30.6978 14.6659 30.6978 15.3666ZM44.2907 41.2445C45.2249 41.1043 46.1591 41.0576 47.1401 41.0576C47.2335 41.0576 47.3269 41.0109 47.3736 41.0109C47.6072 40.9642 47.7006 40.8241 47.5138 40.6372C47.0467 40.03 46.5795 39.376 46.1591 38.7688C46.019 38.6286 45.9256 38.5352 45.692 38.5819C44.9447 38.7688 44.3374 38.5819 43.8236 38.0681C43.6835 37.928 43.5433 37.8813 43.3565 37.9747C42.6091 38.3951 41.815 38.7688 41.0676 39.1892C40.9275 39.2826 40.8341 39.3293 40.9742 39.5162C41.2078 39.7964 41.4413 40.03 41.6282 40.3102C41.7216 40.4504 41.815 40.4504 42.0019 40.4037C42.5624 40.2168 43.0762 40.4037 43.3565 40.8241C43.6367 41.1977 43.917 41.2912 44.2907 41.2445ZM46.2993 5.51053C46.4861 5.55724 46.5795 5.41711 46.673 5.32369C47.1401 4.76315 47.5605 4.15591 48.0276 3.59538C48.2144 3.31511 48.2144 3.2684 47.8407 3.22169C46.7197 3.03484 45.5986 3.08156 44.5243 2.848C44.3374 2.80129 44.1973 2.89471 44.0571 3.08156C43.8236 3.45524 43.4499 3.82893 42.9828 3.73551C42.3756 3.59538 42.0953 3.82893 41.815 4.24933C41.7683 4.29604 41.7216 4.38946 41.6749 4.43618C41.3946 4.66973 41.4413 4.80986 41.7683 4.99671C42.469 5.3704 43.2163 5.7908 43.917 6.21119C44.1039 6.30462 44.1973 6.21119 44.3374 6.11777C44.7111 5.74408 45.1782 5.51053 45.7387 5.60395C45.8322 5.51053 46.0657 5.51053 46.2993 5.51053ZM47.7006 6.77173C47.9342 6.72502 48.121 6.6783 48.3078 6.6783C49.6158 6.63159 50.877 6.35133 52.1849 6.35133C52.4184 6.35133 52.5586 6.25791 52.6053 6.02435C52.652 5.7908 52.7454 5.60395 52.4651 5.41711C51.5309 4.90329 50.6434 4.34275 49.7092 3.82893C49.4289 3.64209 48.7282 3.78222 48.4947 4.06249C48.1677 4.48289 47.8407 4.90329 47.5138 5.32369C46.9999 6.02435 46.9999 6.02435 47.4671 6.6783C47.5138 6.72502 47.5605 6.77173 47.7006 6.77173ZM48.8684 40.5905C49.1019 40.5438 49.2421 40.4504 49.3822 40.3569C50.223 39.8898 51.0171 39.4694 51.8112 39.0023C51.9513 38.9089 52.1849 38.8622 52.1382 38.5819C52.0914 38.3017 51.998 38.1615 51.671 38.0681C51.0638 37.8813 50.4566 37.928 49.8026 37.8346C48.9618 37.6944 48.121 37.601 47.2335 37.5076C47.0934 37.5076 46.9532 37.5543 46.9065 37.6944C46.8131 37.8346 46.7664 37.9747 46.6263 38.0681C46.4394 38.255 46.4861 38.3951 46.5795 38.5819C46.9532 39.0958 47.3736 39.6096 47.7473 40.1701C48.0743 40.4971 48.5414 40.4037 48.8684 40.5905ZM62.6948 21.2521C62.6481 21.2054 62.6481 21.112 62.6014 21.112C62.0409 20.5515 61.4804 19.9909 60.9198 19.4304C60.8264 19.337 60.733 19.337 60.6396 19.4771C60.406 19.7574 60.1257 20.0377 59.8922 20.3179C59.7521 20.4581 59.7521 20.5982 59.8922 20.7383C60.6396 21.7193 60.6396 22.7469 59.8922 23.7278C59.7521 23.9147 59.7521 24.0081 59.8922 24.1949C60.079 24.4285 60.3126 24.662 60.4994 24.8956C60.6863 25.1292 60.8264 25.1292 61.0132 24.9423C61.4804 24.4752 61.9475 23.9614 62.508 23.541C62.6948 23.4009 62.7416 23.214 62.6014 22.9805C62.3679 22.5133 62.3679 22.0929 62.6014 21.6258C62.6014 21.439 62.6481 21.3923 62.6948 21.2521ZM56.6691 31.2483C56.6691 31.2483 56.529 31.295 56.4356 31.295C55.9217 31.3417 55.875 31.3417 55.8283 31.8555C55.7816 32.3227 55.6415 32.7431 55.5481 33.1635C55.4079 34.051 55.1744 34.8918 54.9875 35.7326C54.9408 35.8727 54.8941 36.0595 55.1277 36.153C55.3612 36.2464 55.5481 36.5734 55.875 36.2931C56.3889 35.8727 56.9027 35.4523 57.4165 35.0319C57.5566 34.9385 57.6033 34.7983 57.5099 34.6582C57.2297 34.051 57.3698 33.4904 57.7435 32.9766C57.8369 32.8365 57.8836 32.7431 57.7902 32.5562C57.5099 32.1825 57.2297 31.7621 56.9494 31.3417C56.9027 31.2483 56.856 31.2016 56.6691 31.2483ZM55.3612 8.54675C55.3612 8.73359 55.3612 8.92043 55.4079 9.06057C55.6882 10.0882 55.7816 11.1626 56.0152 12.1902C56.1553 12.8442 56.1086 12.8442 56.7625 13.031C56.9961 13.0777 57.1829 13.031 57.3231 12.8442C57.5566 12.5172 57.7902 12.1902 58.0237 11.8632C58.1639 11.6764 58.1639 11.5363 58.0237 11.3494C57.6501 10.8356 57.5566 10.3218 57.8369 9.71452C57.9303 9.57439 57.8369 9.43425 57.7435 9.34083C57.2297 8.92043 56.7625 8.50003 56.2487 8.07964C56.1086 7.98621 56.0152 7.89279 55.875 8.03292C55.6882 8.17306 55.3145 8.17306 55.3612 8.54675ZM36.1163 39.2359C36.0229 38.2082 35.9294 37.2273 35.836 36.1997C35.7893 35.8727 35.6025 35.6858 35.3222 35.5457C34.388 35.0319 33.4537 34.5181 32.5195 34.051C32.4261 34.0042 32.286 33.8174 32.1925 33.9575C32.0991 34.0977 32.1925 34.1911 32.286 34.3312C32.8932 35.2187 33.5005 36.0595 34.1077 36.947C34.6682 37.7411 35.2288 38.5352 35.7893 39.3293C35.836 39.4227 35.8827 39.5162 36.0696 39.5162C36.163 39.4694 36.163 39.376 36.1163 39.2359ZM36.4433 4.38946C36.3031 4.38946 36.2564 4.5296 36.2097 4.57631C35.836 5.09013 35.4623 5.60395 35.0419 6.11777C34.4814 6.86515 33.9209 7.65924 33.3136 8.40661C33.0801 8.73359 33.3136 8.92043 33.4537 9.15399C33.5939 9.38754 33.7807 9.24741 33.9209 9.15399C34.5748 8.82701 35.1821 8.50003 35.836 8.17306C36.0229 8.07964 36.1163 7.9395 36.163 7.70595C36.3031 6.6783 36.3965 5.60395 36.6301 4.57631C36.6301 4.5296 36.5834 4.43618 36.4433 4.38946ZM36.4433 36.4799C36.5367 37.3674 36.6768 38.255 36.7702 39.0958C36.7702 39.2826 36.9104 39.3293 37.0505 39.376C37.3775 39.4694 37.6577 39.6096 37.8913 39.8431C37.9847 39.9833 38.1248 39.9833 38.265 39.8898C38.5452 39.7497 38.7788 39.6096 39.0591 39.4694C39.8999 39.0958 39.8999 39.0958 39.3393 38.3951C39.1058 38.1148 38.9189 38.0214 38.5452 38.0681C37.8446 38.2082 37.1439 37.601 37.1439 36.8536C37.1439 36.4799 37.0038 36.2931 36.6768 36.1997C36.4433 36.1997 36.3965 36.2464 36.4433 36.4799ZM39.2459 5.83751C39.4328 5.88422 39.5262 5.7908 39.6196 5.74408C39.8064 5.55724 39.9466 5.32369 40.1334 5.18355C40.3203 4.99671 40.2736 4.90329 40.04 4.76315C39.6196 4.5296 39.1992 4.29604 38.7788 4.06249C38.6387 3.96907 38.4985 4.01578 38.3584 4.1092C38.0781 4.34275 37.7979 4.5296 37.4242 4.57631C37.284 4.57631 37.2373 4.66973 37.1906 4.80986C37.1906 4.99671 37.1906 5.23026 37.0972 5.41711C36.9104 6.07106 37.0038 6.81844 36.7702 7.47239C36.7702 7.56581 36.6301 7.70595 36.8637 7.70595C37.1439 7.65924 37.4242 7.33226 37.4709 7.05199C37.5176 6.58488 37.7512 6.21119 38.1248 5.97764C38.5452 5.69737 38.9189 5.74408 39.2459 5.83751ZM32.4261 6.95857C32.4728 7.23884 32.6129 7.42568 32.7064 7.65924C32.8465 7.9395 32.9399 8.03292 33.1268 7.70595C33.9676 6.53817 34.8551 5.41711 35.6959 4.24933C35.7426 4.15591 35.8827 4.1092 35.7893 4.01578C35.6959 3.92235 35.6025 4.01578 35.509 4.06249C34.6215 4.5296 33.734 5.04342 32.8465 5.51053C32.7998 5.55724 32.6597 5.60395 32.6597 5.69737C32.6597 6.11777 32.6597 6.58488 32.4261 6.95857ZM42.0486 37.0872C41.9552 37.0872 41.815 37.0872 41.7216 37.0872C41.2078 37.0872 40.6472 37.1339 40.1334 37.1806C39.8532 37.1806 39.6663 37.3207 39.5729 37.5543C39.4795 37.7878 39.6663 37.8813 39.7597 38.0214C39.9466 38.255 40.0867 38.4418 40.2736 38.6754C40.367 38.8155 40.5071 38.8622 40.6472 38.7688C41.488 38.3484 42.2821 37.928 43.1229 37.5076C43.2163 37.4609 43.3565 37.4142 43.3098 37.274C43.2631 37.1339 43.1229 37.1339 43.0295 37.1339C42.6558 37.0872 42.3288 37.0872 42.0486 37.0872ZM43.2631 6.95857C43.4032 6.95857 43.59 7.05199 43.6367 6.86515C43.6835 6.6783 43.4966 6.63159 43.3565 6.53817C42.7492 6.21119 42.0953 5.83751 41.488 5.51053C40.8341 5.13684 40.8808 5.13684 40.4137 5.69737C40.2736 5.83751 40.1801 5.97764 40.04 6.11777C39.8999 6.25791 39.9466 6.39804 39.9933 6.53817C40.0867 6.72502 40.1334 6.81844 40.367 6.86515C41.3479 6.86515 42.3288 6.91186 43.2631 6.95857ZM34.9485 12.2836C35.0886 12.0968 35.1821 11.9566 35.2288 11.8165C35.3222 11.6764 35.4156 11.4895 35.509 11.3494C35.6025 11.2093 35.5557 11.0691 35.4623 10.929C35.1353 10.5086 35.1821 10.0882 35.6025 9.80794C35.8827 9.6211 35.9294 9.34083 36.0229 9.06057C36.0229 9.01386 36.0696 8.92043 35.9761 8.92043C35.9294 8.92043 35.8827 8.92043 35.836 8.96714C35.2288 9.29412 34.6682 9.57439 34.061 9.90136C33.8741 9.99479 33.8741 10.0882 33.9209 10.2751C34.2478 10.8823 34.5748 11.5363 34.9485 12.2836ZM32.9399 23.541C33.0333 23.541 33.0801 23.4476 33.1735 23.3541C33.4537 22.9337 33.7807 22.5601 34.061 22.1397C34.5748 21.3923 34.5748 21.3923 33.7807 21.0186C33.7807 21.0186 33.7807 21.0186 33.734 21.0186C33.5939 20.9252 33.5005 20.9719 33.5005 21.112C33.2669 21.8594 33.0333 22.5601 32.7998 23.3074C32.7531 23.4476 32.7998 23.4943 32.9399 23.541Z" fill="white"/>
<path d="M0.710938 51.3672H3.46204C4.17092 51.3672 4.82916 51.5022 5.41989 51.7554C6.01062 52.0085 6.50007 52.363 6.92202 52.8018C7.34397 53.2406 7.66465 53.7639 7.88407 54.3715C8.10348 54.9791 8.22163 55.6373 8.22163 56.3293C8.22163 57.0213 8.10348 57.6795 7.86719 58.2703C7.6309 58.861 7.31022 59.3842 6.88827 59.823C6.46632 60.2619 5.95998 60.6163 5.38613 60.8695C4.7954 61.1226 4.15404 61.2577 3.44517 61.2577H0.710938V51.3672ZM2.63502 59.5699H2.9557C3.54643 59.5699 4.05277 59.4855 4.47472 59.3336C4.89667 59.1817 5.23423 58.9623 5.4874 58.6753C5.75744 58.3884 5.9431 58.0509 6.06125 57.6458C6.1794 57.2407 6.24691 56.8019 6.24691 56.3124C6.24691 55.2322 5.97686 54.4221 5.41989 53.8651C4.87979 53.325 4.05277 53.0381 2.9557 53.0381H2.63502V59.5699Z" fill="white"/>
<path d="M11.1077 61.2398H9.18359V51.3662H11.1077V61.2398Z" fill="white"/>
<path d="M21.2336 55.991V56.2442C21.2336 56.9362 21.1492 57.6113 20.9636 58.2358C20.7779 58.8771 20.5079 59.4341 20.1366 59.9067C19.7653 60.3962 19.2927 60.7843 18.7357 61.0713C18.1787 61.3582 17.5036 61.5101 16.7441 61.5101C16.0184 61.5101 15.377 61.3751 14.7863 61.0882C14.1955 60.8012 13.723 60.4299 13.301 59.9573C12.8959 59.4847 12.5752 58.9447 12.3558 58.3202C12.1364 57.6957 12.0352 57.0374 12.0352 56.3623C12.0352 55.6534 12.1533 54.9783 12.3727 54.3538C12.5921 53.7125 12.9297 53.1724 13.3348 52.6829C13.7567 52.2103 14.263 51.8222 14.8538 51.5352C15.4445 51.2483 16.1027 51.1133 16.8454 51.1133C17.6893 51.1133 18.4657 51.3158 19.1408 51.7209C19.8328 52.126 20.356 52.7167 20.7442 53.4762L19.0395 54.3876C18.837 53.9488 18.55 53.5606 18.145 53.2737C17.7568 52.9699 17.3011 52.818 16.7779 52.818C16.3222 52.818 15.9171 52.9192 15.5626 53.1386C15.2082 53.358 14.9213 53.6281 14.685 53.9657C14.4487 54.3032 14.2799 54.6914 14.1618 55.1134C14.0436 55.5353 13.993 55.9404 13.993 56.3623C13.993 56.7674 14.0436 57.1893 14.1618 57.5944C14.2799 57.9995 14.4487 58.3708 14.685 58.7084C14.9213 59.0459 15.2082 59.316 15.5626 59.5185C15.9171 59.721 16.3222 59.8223 16.7779 59.8223C17.0817 59.8223 17.3517 59.7548 17.6218 59.6366C17.8918 59.5185 18.1281 59.3497 18.3306 59.1472C18.5332 58.9447 18.7019 58.7084 18.8201 58.4383C18.9382 58.1683 19.0057 57.8813 19.0226 57.5944H16.9298V56.0248H21.2336V55.991Z" fill="white"/>
<path d="M24.1038 61.2398H22.1797V51.3662H24.1038V61.2398Z" fill="white"/>
<path d="M28.7126 61.2398H26.7885V53.054H24.7969V51.3662H30.7042V53.054H28.7126V61.2398Z" fill="white"/>
<path d="M32.3902 59.1643L31.58 61.2403H29.5547L33.4029 51.0967H34.8881L38.635 61.2403H36.5759L35.8164 59.1643H32.3902ZM34.0442 53.9997H34.0105L32.9303 57.5947H35.2763L34.0442 53.9997Z" fill="white"/>
<path d="M41.1506 59.5689H43.868V61.2398H39.2266V51.3662H41.1506V59.5689Z" fill="white"/>
<path d="M48.3945 50.8936L55.8039 58.6574V51.3661H57.036V61.6448L49.6266 53.881V61.2397H48.3945V50.8936Z" fill="white"/>
<path d="M63.2804 51.1641C63.9893 51.1641 64.6476 51.2991 65.2889 51.5691C65.9134 51.8392 66.4704 52.2105 66.9261 52.6831C67.3987 53.1557 67.77 53.6958 68.04 54.3202C68.3101 54.9447 68.4451 55.603 68.4451 56.3118C68.4451 57.0376 68.3101 57.7296 68.04 58.3541C67.77 58.9786 67.3987 59.5186 66.9261 59.9912C66.4535 60.4469 65.9134 60.8014 65.2889 61.0714C64.6644 61.3415 63.9893 61.4596 63.2636 61.4596C62.5547 61.4596 61.8796 61.3246 61.2382 61.0714C60.6137 60.8014 60.0568 60.4469 59.601 59.9912C59.1285 59.5355 58.7572 58.9954 58.4871 58.3541C58.2171 57.7296 58.082 57.0376 58.082 56.3118C58.082 55.603 58.2171 54.9447 58.4871 54.3202C58.7572 53.6958 59.1285 53.1557 59.601 52.6831C60.0736 52.2105 60.6137 51.8392 61.2382 51.5691C61.8965 51.2991 62.5716 51.1641 63.2804 51.1641ZM63.2804 60.295C63.8205 60.295 64.31 60.1938 64.7995 59.9912C65.272 59.7887 65.694 59.5018 66.0653 59.1473C66.4197 58.7929 66.7067 58.3709 66.9261 57.8815C67.1286 57.392 67.2468 56.8688 67.2468 56.295C67.2468 55.7549 67.1455 55.2485 66.9598 54.7591C66.7742 54.2696 66.5041 53.8477 66.1497 53.4932C65.7953 53.1388 65.3902 52.835 64.9007 52.6324C64.4113 52.413 63.888 52.3118 63.3142 52.3118C62.7403 52.3118 62.2003 52.413 61.7277 52.6324C61.2382 52.8519 60.8331 53.1388 60.4787 53.4932C60.1243 53.8477 59.8542 54.2865 59.6686 54.7591C59.4829 55.2485 59.3816 55.7549 59.3816 56.295C59.3816 56.8688 59.4829 57.392 59.7023 57.8815C59.9049 58.3709 60.1918 58.7929 60.5631 59.1473C60.9175 59.5018 61.3395 59.7887 61.8121 59.9912C62.234 60.1938 62.7403 60.295 63.2804 60.295Z" fill="white"/>
<path d="M72.2891 61.2398H71.057V52.497H68.7109V51.3662H74.6351V52.497H72.2891V61.2398Z" fill="white"/>
<path d="M76.7946 61.2398H75.5625V51.3662H76.7946V61.2398Z" fill="white"/>
<path d="M85.8446 53.2572C85.4902 52.9365 85.0851 52.7002 84.6294 52.5315C84.1737 52.3627 83.718 52.2783 83.2454 52.2783C82.6885 52.2783 82.1821 52.3796 81.7095 52.599C81.2369 52.8184 80.815 53.1053 80.4774 53.4766C80.123 53.8479 79.853 54.2699 79.6504 54.7593C79.4479 55.2488 79.3466 55.772 79.3466 56.3121C79.3466 56.8522 79.4479 57.3585 79.6335 57.848C79.8192 58.3375 80.1061 58.7594 80.4437 59.1307C80.7981 59.502 81.2032 59.789 81.6758 60.0084C82.1484 60.2278 82.6547 60.3291 83.2117 60.3291C83.7011 60.3291 84.1737 60.2447 84.6125 60.059C85.0682 59.8902 85.4733 59.6371 85.8446 59.2995V60.751C85.4564 60.9704 85.0345 61.1561 84.5788 61.2742C84.1231 61.3924 83.6843 61.443 83.2454 61.443C82.5366 61.443 81.8783 61.308 81.2538 61.0548C80.6293 60.7848 80.0893 60.4303 79.6167 59.9746C79.1441 59.5189 78.7728 58.9788 78.5027 58.3543C78.2327 57.7299 78.0977 57.0716 78.0977 56.3459C78.0977 55.6201 78.2327 54.9281 78.5027 54.3036C78.7728 53.6623 79.161 53.1222 79.6335 52.6496C80.1061 52.177 80.6631 51.8226 81.3045 51.5525C81.9458 51.2825 82.6209 51.1475 83.3467 51.1475C83.7855 51.1475 84.2075 51.1981 84.6294 51.3162C85.0514 51.4175 85.4564 51.5863 85.8278 51.8226V53.2572H85.8446Z" fill="white"/>
<path d="M87.3125 51.3662H92.6122V52.497H88.5446V55.265H92.494V56.3958H88.5446V60.1259H92.6122V61.2567H87.3125V51.3662Z" fill="white"/>
</svg>
