<?xml version="1.0" encoding="utf-8"?>
<!-- Generator: Adobe Illustrator 23.0.6, SVG Export Plug-In . SVG Version: 6.00 Build 0)  -->
<svg version="1.1" id="Слой_1" xmlns="http://www.w3.org/2000/svg" xmlns:xlink="http://www.w3.org/1999/xlink" x="0px" y="0px"
	 viewBox="0 0 222 28" style="enable-background:new 0 0 222 28;" xml:space="preserve">
<style type="text/css">
	.st0{fill:#EA5146;}
	.st1{fill:#4E56A2;}
	.st2{fill:#FFFFFF;}
	.st3{fill:#E3131B;}
	.st4{fill-rule:evenodd;clip-rule:evenodd;fill:#E3131B;}
</style>
<path class="st0" d="M31.7,25L22.3,9.3c-1.4-2.4,0.3-5.5,3.1-5.5l18.5-0.1c2.8,0,4.6,3,3.2,5.5L37.9,25C36.5,27.4,33.1,27.4,31.7,25
	z"/>
<path class="st1" d="M9.9,5.4L0.5,21.1c-1.4,2.4,0.3,5.5,3.1,5.5l18.5,0.1c2.8,0,4.6-3,3.2-5.5L16.1,5.5C14.7,3.1,11.3,3.1,9.9,5.4z
	"/>
<path class="st2" d="M71,22.6h-9.7l-1.8,4.5h-6.6L63,4.1h6.4l10.2,23h-6.8L71,22.6z M69.1,17.8l-3-7.3l-3,7.3H69.1L69.1,17.8z"/>
<path class="st2" d="M81.4,4.1h6.5v17.8h11v5.1H81.4V4.1z"/>
<path class="st2" d="M117.3,5.2c1.5,0.7,2.7,1.7,3.5,3c0.8,1.3,1.2,2.8,1.2,4.5c0,1.7-0.4,3.2-1.2,4.5c-0.8,1.3-2,2.2-3.5,2.9
	c-1.5,0.7-3.3,1-5.4,1h-4v6h-6.5v-23h10.5C114,4.1,115.8,4.5,117.3,5.2z M114.5,15.1c0.7-0.6,1-1.4,1-2.5c0-1.1-0.3-1.9-1-2.5
	c-0.7-0.6-1.7-0.9-3-0.9h-3.6V16h3.6C112.8,16,113.8,15.7,114.5,15.1z"/>
<path class="st2" d="M140.4,6.4h-7.1V3.8h17.2v2.6h-7.1v20.7h-3V6.4z"/>
<path class="st2" d="M165.5,22.5c0,1.7,0,3.2,0.1,4.6h-2.7l-0.2-2.7h-0.1c-0.8,1.3-2.6,3.1-5.5,3.1c-2.6,0-5.8-1.4-5.8-7.3v-9.8h3
	v9.2c0,3.2,1,5.3,3.7,5.3c2,0,3.4-1.4,4-2.8c0.2-0.4,0.3-1,0.3-1.6V10.4h3L165.5,22.5L165.5,22.5z"/>
<path class="st2" d="M170.5,15.6c0-2,0-3.7-0.1-5.2h2.7l0.1,3.3h0.1c0.8-2.2,2.6-3.7,4.6-3.7c0.3,0,0.6,0,0.9,0.1V13
	c-0.3-0.1-0.6-0.1-1-0.1c-2.1,0-3.7,1.6-4.1,3.9c-0.1,0.4-0.1,0.9-0.1,1.4v8.9h-3L170.5,15.6L170.5,15.6z"/>
<path class="st2" d="M184.9,18L184.9,18c0.5-0.6,1.1-1.3,1.6-1.9l4.9-5.8h3.7l-6.4,6.9l7.3,9.8h-3.7l-5.8-8l-1.6,1.7v6.3h-3V2.6h3
	V18z"/>
<path class="st2" d="M155.3,3.3c-1,0-1.9,0.8-1.9,1.9c0,1,0.8,1.9,1.9,1.9s1.9-0.8,1.9-1.9C157.2,4.1,156.4,3.3,155.3,3.3z"/>
<path class="st2" d="M161.4,3.3c-1,0-1.9,0.8-1.9,1.9c0,1,0.8,1.9,1.9,1.9c1,0,1.9-0.8,1.9-1.9C163.2,4.1,162.4,3.3,161.4,3.3z"/>
<path class="st3" d="M215.2,6.8l5.8-1.9l-3.6,5V3.7l3.6,5L215.2,6.8z M214.2,10.2c-1.9,3-5.9,3.9-8.9,2c-3-1.9-3.9-5.9-2-8.9
	c1.9-3,5.9-3.9,8.9-2c0.8,0.5,1.5,1.2,2,2c-1.9-2.1-5.2-2.3-7.3-0.4s-2.3,5.2-0.4,7.3c1.9,2.1,5.2,2.3,7.3,0.4
	C214,10.5,214.1,10.4,214.2,10.2z"/>
<path class="st4" d="M212,1.5c-2.9-1.7-6.6-0.9-8.4,2c-1.8,2.9-1,6.7,1.9,8.5c2,1.3,4.6,1.2,6.5,0.1c-2,0.6-4.2,0.1-5.7-1.6
	c-2-2.3-1.8-5.7,0.4-7.7C208.2,1.4,210.2,1,212,1.5z M213.6,10.4c0.1-0.1,0.3-0.2,0.4-0.4l0.5,0.4c-2,3.2-6.2,4.1-9.3,2.1
	s-4.1-6.2-2.1-9.3c2-3.2,6.2-4.1,9.3-2.1c0.8,0.5,1.6,1.3,2.1,2.1L214,3.5c-1.8-2-4.9-2.2-6.9-0.4c-2,1.8-2.2,4.9-0.4,6.9
	C208.6,12,211.6,12.2,213.6,10.4z M217.1,2.7l1.8,2.5l2.9-1l-1.8,2.5l1.8,2.5l-2.9-1l-1.8,2.5V7.7l-2.9-1l2.9-1V2.7z M217.1,6.5
	l-0.9,0.3l0.9,0.3V6.5z M217.8,7.3v-1l0.9-0.3l0.6,0.8l-0.6,0.8L217.8,7.3z M217.8,7.9v1l0.6-0.8L217.8,7.9z M219.3,7.8l0.9,0.3
	l-0.6-0.8L219.3,7.8z M219.7,6.2l0.6-0.8l-0.9,0.3L219.7,6.2z M218.3,5.4l-0.6,0.2v-1L218.3,5.4z"/>
</svg>
