<svg width="118" height="20" viewBox="0 0 118 20" fill="none" xmlns="http://www.w3.org/2000/svg">
<path d="M14.4648 11.8475C13.5188 14.2862 11.3293 15.5467 8.74604 15.3201C6.53103 15.1247 4.58511 13.36 4.03278 11.043C3.42662 8.49948 4.53129 5.80861 6.69531 4.55665C8.7347 3.37551 11.2754 3.66159 13.1222 5.32142C13.5669 5.72081 13.9182 6.22499 14.3572 6.73484C15.4222 5.97573 16.3314 5.32992 17.2293 4.68978C15.1135 0.880084 10.1878 -0.776922 5.98436 0.831931C1.64216 2.49177 -0.799449 7.11722 0.237241 11.7228C1.28243 16.3681 5.48584 19.3961 10.3067 18.974C14.5611 18.603 18.3283 14.8924 18.5663 10.6975C17.7703 10.6975 14.7537 10.6805 14.7537 10.6805C14.7537 10.6805 14.8132 10.9439 14.4648 11.8475Z" fill="white"/>
<path d="M59.8877 0.651393C57.5112 0.421961 55.0951 0.608905 52.5827 0.608905C52.5827 0.620235 52.5827 0.628733 52.5827 0.640063H52.5742V18.6037H55.9279V15.9015C57.313 15.9128 58.8284 15.9157 59.392 15.8732C63.2555 15.5843 66.19 12.3071 66.2863 8.22547C66.3798 4.44976 63.5983 1.00829 59.8877 0.651393ZM61.675 10.8172C60.7884 12.191 58.1316 12.4912 55.9279 12.5082V3.93991C58.2052 3.9654 60.9329 4.31097 61.777 5.84618C62.6862 7.50035 62.7032 9.2225 61.675 10.8172Z" fill="white"/>
<path d="M79.2675 10.4854C78.0552 7.35829 75.4069 5.80326 72.1722 6.2253C69.4586 6.58219 67.1445 8.95865 66.8499 11.6948C66.5157 14.7822 68.2322 17.5241 71.1496 18.5551C74.0388 19.5748 77.197 18.6854 78.769 16.3259C77.9306 15.6858 77.0837 15.04 76.1801 14.3489C75.2001 15.2949 74.1209 15.6858 72.8463 15.3148C73.8575 14.3829 74.9197 13.6124 75.9875 12.8448C77.0497 12.0744 78.1232 11.3068 79.2675 10.4854ZM70.4528 13.3065C70.1045 11.8506 70.5293 10.8819 71.4867 10.1568C72.4752 9.40901 73.5374 9.41751 74.863 10.1681C73.2882 11.2898 71.9342 12.2528 70.4528 13.3065Z" fill="white"/>
<path d="M25.7755 6.14847C22.2349 6.1598 19.4308 8.99512 19.4336 12.5612C19.4364 16.0848 22.3227 18.9825 25.8124 18.9711C29.2992 18.9598 32.2591 16.0424 32.2818 12.5952C32.3073 9.06593 29.3501 6.13714 25.7755 6.14847ZM25.7529 15.5382C24.1695 15.5013 22.9459 14.2239 22.9346 12.5895C22.9232 10.8646 24.1497 9.6041 25.8322 9.61544C27.5288 9.62677 28.7412 10.8787 28.7213 12.6037C28.7015 14.3032 27.4127 15.5778 25.7529 15.5382Z" fill="white"/>
<path d="M42.3432 6.7552C42.2469 6.80619 41.9608 7.01863 41.6974 7.18858V6.18587H38.3438C38.3438 10.5819 38.3438 14.6069 38.3438 18.6035C39.5051 18.6035 40.5616 18.6035 41.6974 18.6035V13.4484C41.7003 13.2048 41.7031 12.9612 41.7087 12.7176C41.7512 11.0294 42.5698 9.96441 43.9238 9.66983C45.847 9.25063 47.1783 10.3978 47.2406 12.6354C47.2972 14.638 47.2519 16.6406 47.2519 18.5922C48.5322 18.5922 49.5859 18.5922 50.6594 18.5922C50.6594 16.3573 50.7727 14.233 50.6368 12.1228C50.2997 6.87417 45.7394 4.98207 42.3432 6.7552Z" fill="white"/>
<path d="M112.516 15.0166C112.516 16.6311 112.516 18.1578 112.516 19.7384C114.252 19.7384 115.827 19.7384 117.402 19.7384C117.402 18.1097 117.402 16.583 117.402 15.0166C115.73 15.0166 114.158 15.0166 112.516 15.0166Z" fill="white"/>
<path d="M35.041 0.325221C33.9902 0.319556 33.0384 1.24861 33.0469 2.27114C33.0554 3.305 34.01 4.22272 35.0552 4.20573C36.1174 4.18874 37.0662 3.26818 37.0691 2.25131C37.0747 1.24578 36.1117 0.330886 35.041 0.325221Z" fill="white"/>
<path d="M95.5456 0.324726C94.523 0.299233 93.5005 1.23962 93.4807 2.22533C93.4637 3.22519 94.4267 4.18541 95.4663 4.20523C96.5341 4.22506 97.4688 3.34416 97.4943 2.29897C97.5255 1.24245 96.6446 0.35305 95.5456 0.324726Z" fill="white"/>
<path d="M93.788 18.6032H93.8305C93.8305 18.6117 93.8305 18.6202 93.8305 18.6287C94.9606 18.6287 96.0172 18.6287 97.0963 18.6287C97.0963 18.6202 97.0963 18.6117 97.0963 18.6032H97.1388V6.18555H93.7852V18.6032H93.788Z" fill="white"/>
<path d="M107.379 7.09478C104.325 5.64737 101.113 6.20537 99.3431 8.85092C97.7682 11.2047 97.8872 14.3998 99.6349 16.6403C101.368 18.8638 103.646 19.4048 106.691 18.3228C106.821 18.2774 107.158 18.082 107.379 18.0112V18.606H110.733V6.18555H107.379V7.09478ZM104.637 15.5413C103.04 15.5611 101.708 14.1958 101.717 12.5445C101.725 10.8705 103.023 9.5817 104.665 9.61286C106.277 9.64402 107.382 10.8507 107.376 12.5756C107.373 14.278 106.226 15.5214 104.637 15.5413Z" fill="white"/>
<path d="M88.9687 0.636719C88.9403 0.636719 88.9148 0.636719 88.8865 0.636719C88.8865 2.78375 88.9687 5.06107 88.9687 7.21942C88.4107 6.8597 88.4107 6.8597 88.2492 6.78888C85.4167 5.54259 82.6466 6.31586 80.9471 8.82828C79.3609 11.1736 79.4713 14.3715 81.2133 16.6205C82.944 18.8525 85.2779 19.4189 88.269 18.3284C88.3908 18.2831 88.7307 18.1245 88.9715 18.0509V18.6004H92.3252V10.2332C92.3308 10.0434 92.3337 9.84797 92.3337 9.6497C92.3337 6.65009 92.3337 3.65049 92.3337 0.636719C92.3308 0.636719 92.328 0.636719 92.3252 0.636719C91.1242 0.636719 90.0932 0.636719 88.9687 0.636719ZM86.2551 15.5413C84.6604 15.5781 83.315 14.2242 83.3094 12.5728C83.3037 10.8988 84.5925 9.59588 86.2325 9.61287C87.847 9.62987 88.963 10.828 88.9687 12.5502C88.9715 14.2582 87.8442 15.5044 86.2551 15.5413Z" fill="white"/>
<path d="M33.3672 18.6032H33.404C33.404 18.6173 33.404 18.6315 33.404 18.6457C34.52 18.6457 35.5454 18.6457 36.7209 18.6457C36.7209 18.6315 36.7209 18.6173 36.7209 18.6032C36.7209 14.5102 36.7209 10.5362 36.7209 6.4688V6.18555H33.3672V18.6032Z" fill="white"/>
</svg>
