<svg width="125" height="72" viewBox="0 0 125 72" fill="none" xmlns="http://www.w3.org/2000/svg">
<path d="M62.2483 48.5541L45.4883 24.277L62.2483 0L79.0084 24.277L62.2483 48.5541ZM48.161 24.277L62.1927 44.6564L76.2244 24.277L62.2483 3.89769L48.161 24.277Z" fill="#C4C4C4"/>
<path d="M0 65.203C0 61.9178 2.44998 59.3564 5.84654 59.3564C8.51924 59.3564 10.7465 61.0826 11.3033 63.5882H8.96469C8.57492 62.3076 7.29425 61.528 5.84654 61.528C3.67497 61.528 2.22725 63.0314 2.22725 65.203C2.22725 67.3746 3.67497 68.8779 5.84654 68.8779C7.29425 68.8779 8.57492 68.0984 8.96469 66.8177H11.3033C10.8022 69.2677 8.51924 71.0495 5.84654 71.0495C2.44998 71.0495 0 68.4882 0 65.203Z" fill="#C4C4C4"/>
<path d="M12.0801 65.203C12.0801 61.9178 14.6414 59.3564 17.8709 59.3564C21.1004 59.3564 23.7175 61.9178 23.7175 65.203C23.7175 68.4882 21.1004 71.0495 17.8709 71.0495C14.6414 71.0495 12.0801 68.4882 12.0801 65.203ZM21.4902 65.203C21.4902 63.0314 19.9311 61.528 17.8709 61.528C15.8107 61.528 14.2516 63.0314 14.2516 65.203C14.2516 67.3746 15.8107 68.8779 17.8709 68.8779C19.9311 68.8779 21.4902 67.3189 21.4902 65.203Z" fill="#C4C4C4"/>
<path d="M27.5046 59.5793V70.7713H25.2773V59.5793H27.5046Z" fill="#C4C4C4"/>
<path d="M37.8033 59.5793V70.7713H36.1329L31.7898 63.8111V70.7713H29.5625V59.5793H31.2329L35.6318 66.4838V59.5793H37.8033Z" fill="#C4C4C4"/>
<path d="M39.2559 67.3189H41.4831C41.4831 68.3211 42.1513 68.8223 43.3763 68.8223C44.4899 68.8223 45.0467 68.3211 45.0467 67.7086C45.0467 66.9291 44.1558 66.5393 43.0979 66.2052C41.4831 65.6484 39.5343 64.9803 39.5343 62.6416C39.5343 60.4701 41.3161 59.3564 43.1535 59.3564C45.1024 59.3564 46.9399 60.4701 46.9399 62.9757H44.7683C44.7683 61.9735 44.2115 61.528 43.2092 61.528C42.3183 61.528 41.7615 61.9735 41.7615 62.6416C41.7615 63.4769 42.5411 63.811 43.599 64.2007C45.2138 64.7575 47.3296 65.37 47.3296 67.7643C47.3296 69.9359 45.5478 71.0495 43.4876 71.0495C41.149 71.0495 39.2559 69.8802 39.2559 67.3189Z" fill="#C4C4C4"/>
<path d="M55.1205 61.6952H52.3921V70.7713H50.1649V61.6952H47.4922V59.5793H52.3921H55.1205V61.6952Z" fill="#C4C4C4"/>
<path d="M62.9757 68.7111V70.827H57.0735H56.3496V59.5793H58.5769H62.92V61.6952H58.5769V64.0895H62.5302V66.1497H58.5769V68.6554H62.9757V68.7111Z" fill="#C4C4C4"/>
<path d="M70.9385 68.7111V70.827H64.5352V59.5793H66.7624V68.6554H70.9385V68.7111Z" fill="#C4C4C4"/>
<path d="M78.8458 68.7111V70.827H72.9436H72.1641V59.5793H74.3913H78.7345V61.6952H74.3913V64.0895H78.3447V66.1497H74.3913V68.6554H78.8458V68.7111Z" fill="#C4C4C4"/>
<path d="M85.7469 64.7573H91.0923V66.7062V70.7709H89.0321V69.3789C88.2526 70.4368 87.0276 70.9936 85.4685 70.9936C82.2947 70.9936 79.9004 68.4323 79.9004 65.1471C79.9004 61.8619 82.3504 59.3005 85.6913 59.3005C88.364 59.3005 90.5912 61.0267 91.148 63.3096H88.8651C88.4753 62.3073 87.1946 61.4721 85.7469 61.4721C83.5754 61.4721 82.1276 62.9755 82.1276 65.1471C82.1276 67.43 83.631 68.9334 85.7469 68.9334C87.3617 68.9334 88.6424 68.1539 88.9764 66.6505H85.8583V64.7573H85.7469Z" fill="#C4C4C4"/>
<path d="M96.4952 66.9293H95.1589V70.827H92.9316V59.5793H95.1589H97.2191C99.2793 59.5793 100.95 61.2498 100.95 63.31C100.95 64.702 100.059 65.927 98.8339 66.5395L102.286 70.827H99.6691L96.4952 66.9293ZM95.1032 64.9804H97.1634C97.9986 64.9804 98.6668 64.2566 98.6668 63.31C98.6668 62.3634 97.9986 61.6396 97.1634 61.6396H95.1032V64.9804Z" fill="#C4C4C4"/>
<path d="M109.357 68.7668H105.014L104.345 70.7713H101.951L105.738 59.5793H108.466L112.252 70.7713H109.858L109.357 68.7668ZM108.689 66.7066L107.185 62.0293L105.682 66.7066H108.689Z" fill="#C4C4C4"/>
<path d="M124.445 70.827H122.273V63.31L119.768 69.0452H118.153L115.647 63.31V70.827H113.42V59.5793H115.647H115.926L118.932 66.4281L121.883 59.5793H124.389V70.827H124.445Z" fill="#C4C4C4"/>
<path d="M68.7682 17.5396L51.5627 24.2213C51.0059 24.4441 51.0616 25.2236 51.6184 25.3906L55.9615 26.6713L57.5763 31.8497C57.7433 32.4065 58.4115 32.5735 58.8013 32.1281L61.0842 29.8451L65.5387 33.0747C66.0955 33.4644 66.875 33.186 66.9864 32.5179L69.9375 18.4862C70.1046 17.8737 69.3807 17.2612 68.7682 17.5396ZM66.5966 20.6577L58.6342 27.7293C58.5785 27.7849 58.5228 27.8963 58.4672 28.0077L58.1331 30.736C58.1331 30.8474 58.0217 30.8474 57.966 30.736L56.6854 26.6713C56.6297 26.5043 56.6854 26.2815 56.8524 26.1702L66.2625 20.3236C66.5409 20.2123 66.7637 20.4907 66.5966 20.6577Z" fill="#C4C4C4"/>
</svg>
