<svg width="93" height="30" viewBox="0 0 93 30" fill="none" xmlns="http://www.w3.org/2000/svg">
<path fill-rule="evenodd" clip-rule="evenodd" d="M25.4922 25.2495C23.8499 25.1579 22.1924 25.3136 20.5501 24.9137C18.3431 24.3459 16.4567 23.2073 14.6587 21.913C13.2851 20.9057 11.9236 19.8709 10.5256 18.9124C7.90647 17.0656 4.33804 17.2731 0.9375 17.209C0.9375 16.3543 0.96192 15.5027 0.96192 14.6479C0.96192 13.7841 0.9375 12.9294 0.9375 12.0777C4.33804 12.0136 7.90647 12.2212 10.5256 10.3713C11.9236 9.41588 13.2851 8.38106 14.6587 7.37067C16.4567 6.07639 18.3431 4.94084 20.5501 4.37001C22.1924 3.97013 23.8499 4.12581 25.4922 4.03423C24.6955 3.06352 23.9018 2.28817 23.0135 1.39683C22.7693 1.15262 22.5648 0.865683 22.7693 0.505482C22.922 0.221595 23.2059 0.142229 23.5142 0.142229C24.5673 0.130018 25.5807 0.078125 26.6339 0.078125C27.455 0.078125 28.1357 0.389485 28.7127 0.96947C30.2267 2.52016 31.7408 4.03423 33.2426 5.58493C34.0516 6.41217 34.0271 7.03183 33.203 7.88655C31.7133 9.41282 30.1748 10.9238 28.673 12.4776C28.1205 13.0331 27.4672 13.317 26.6949 13.3445C25.6937 13.3689 24.6924 13.3689 23.6912 13.3689C23.3188 13.3689 22.9464 13.3048 22.7663 12.9172C22.5343 12.4898 22.8548 12.2334 23.1143 11.9617C23.9232 11.1741 24.7199 10.3988 25.6693 9.47998C23.1662 9.18388 21.0355 9.42809 19.149 10.7346C17.4793 11.8976 15.837 13.1003 14.1306 14.2908C13.9383 14.419 13.8223 14.535 13.8101 14.6541C13.8223 14.7578 13.9383 14.8738 14.1306 15.002C15.837 16.1925 17.4793 17.3952 19.149 18.5583C21.0355 19.8648 23.1662 20.109 25.6693 19.8129C24.7199 18.894 23.9232 18.1187 23.1143 17.3311C22.8579 17.0595 22.5373 16.8 22.7663 16.3757C22.9464 15.988 23.3188 15.9239 23.6912 15.9239C24.6924 15.9239 25.6937 15.9239 26.6949 15.9483C27.4642 15.9728 28.1205 16.2597 28.673 16.8153C30.1748 18.366 31.7164 19.88 33.203 21.4063C34.0241 22.261 34.0485 22.8807 33.2426 23.7079C31.7408 25.2586 30.2267 26.7727 28.7127 28.3234C28.1357 28.9064 27.455 29.2147 26.6339 29.2147C25.5807 29.2147 24.5673 29.1628 23.5142 29.1506C23.2059 29.1506 22.925 29.0743 22.7693 28.7874C22.5648 28.4241 22.7693 28.1402 23.0135 27.896C23.8988 26.9955 24.6955 26.2202 25.4922 25.2495Z" fill="white"/>
<path d="M45.4141 25.2672V2.892L48.9794 2.2998V9.96476C49.3732 9.82739 49.825 9.70834 50.3348 9.61066C50.8659 9.51298 51.3849 9.46414 51.8977 9.46414C53.134 9.46414 54.1566 9.64119 54.9624 9.99834C55.7866 10.3341 56.446 10.8164 56.9374 11.4483C57.4289 12.0588 57.7738 12.8006 57.9692 13.6675C58.1859 14.5344 58.2928 15.5021 58.2928 16.5674V25.2672H54.7274V17.1291C54.7274 16.3019 54.6694 15.5998 54.5503 15.0289C54.4527 14.4367 54.2756 13.9636 54.0192 13.6095C53.7842 13.234 53.4606 12.9685 53.0454 12.8097C52.6333 12.6327 52.1236 12.5442 51.5131 12.5442C51.043 12.5442 50.5607 12.593 50.0692 12.6907C49.5777 12.7884 49.2145 12.8769 48.9794 12.9563V25.2672H45.4141Z" fill="white"/>
<path d="M74.8958 24.7934C74.209 24.9705 73.3146 25.1475 72.2126 25.3276C71.1137 25.5261 69.9049 25.6237 68.5892 25.6237C67.3529 25.6237 66.309 25.4467 65.4665 25.0895C64.6423 24.7354 63.9738 24.2409 63.464 23.6091C62.9725 22.9772 62.6184 22.2293 62.4017 21.3593C62.185 20.471 62.0781 19.5034 62.0781 18.4594V9.78711H65.6435V17.8947C65.6435 19.5522 65.8786 20.7366 66.3517 21.4448C66.8432 22.156 67.6887 22.5101 68.8853 22.5101C69.3188 22.5101 69.7706 22.4918 70.2406 22.4521C70.7321 22.4125 71.0954 22.3636 71.3304 22.3056V9.78711H74.8958V24.7934Z" fill="white"/>
<path d="M88.4565 17.4832C88.4565 15.963 88.1513 14.7603 87.5438 13.872C86.9547 12.9837 86.0114 12.5411 84.7141 12.5411C84.1249 12.5411 83.5633 12.6296 83.0352 12.8067C82.5254 12.9837 82.1103 13.1821 81.7989 13.3989V22.3062C82.0553 22.3642 82.3789 22.4253 82.7727 22.4833C83.1848 22.5229 83.6762 22.5413 84.247 22.5413C85.5627 22.5413 86.5945 22.0986 87.3423 21.2104C88.081 20.3037 88.4565 19.0614 88.4565 17.4832ZM92.1104 17.5412C92.1104 18.7836 91.9242 19.91 91.5518 20.9143C91.1977 21.9002 90.6788 22.7488 89.9889 23.4601C89.3204 24.1713 88.5054 24.7116 87.5438 25.0871C86.5822 25.4626 85.4894 25.6488 84.2715 25.6488C83.0932 25.6488 81.9637 25.5602 80.8831 25.3832C79.8208 25.2061 78.9387 25.0077 78.2305 24.791V2.892L81.7958 2.2998V10.3189C82.2079 10.1021 82.7086 9.90371 83.2977 9.72666C83.9052 9.54961 84.5737 9.46109 85.3002 9.46109C86.3808 9.46109 87.3423 9.6595 88.1879 10.0533C89.0518 10.4287 89.7691 10.9721 90.3399 11.6803C90.9108 12.3915 91.3412 13.2493 91.6373 14.2536C91.9517 15.2426 92.1104 16.3385 92.1104 17.5412Z" fill="white"/>
</svg>
