<svg width="1861" height="1442" viewBox="0 0 1861 1442" fill="none" xmlns="http://www.w3.org/2000/svg">
<path d="M885.386 1591.24L1706.54 870.031C1833.11 758.869 1790.9 552.242 1630.87 499.614L576.947 153.002C416.925 100.378 260.313 241.615 296.195 406.208L528.978 1474.04C564.317 1636.14 760.732 1700.74 885.386 1591.24Z" stroke="#4E55A2" stroke-miterlimit="10"/>
<path d="M851.044 1506.64L1672.18 785.426C1798.75 674.264 1756.55 467.637 1596.52 415.01L542.595 68.3974C382.574 15.7732 225.962 157.011 261.843 321.603L494.617 1389.43C529.966 1551.54 726.381 1616.13 851.044 1506.64Z" stroke="#EA5045" stroke-miterlimit="10"/>
<path d="M811.073 1619.43L1632.22 898.214C1758.79 787.052 1716.59 580.425 1556.56 527.798L502.635 181.186C342.613 128.561 186.001 269.799 221.882 434.391L454.656 1502.22C489.995 1664.32 686.42 1728.92 811.073 1619.43Z" stroke="#999999" stroke-miterlimit="10"/>
</svg>
