<svg width="125" height="31" viewBox="0 0 125 31" fill="none" xmlns="http://www.w3.org/2000/svg">
<path d="M116.508 22.8733C109.223 22.8733 106.777 14.3285 111.397 9.67547C112.904 8.15685 114.512 7.39551 116.735 7.39551H124.255V22.4238C124.255 25.4489 122.85 27.8099 120.319 29.2029C117.962 30.4948 114.674 30.2356 111.896 30.2356V27.5223C114.07 27.5223 117.622 27.7167 119.193 26.8096C120.639 25.9835 121.376 24.643 121.376 22.7518V10.1088H116.735C110.126 10.1088 110.106 20.1722 116.508 20.1722C117.913 20.1722 119.153 19.7794 120.218 19.0059V21.9055C119.067 22.5534 117.828 22.8733 116.508 22.8733Z" fill="white"/>
<path d="M83.2617 16.6404V0.376953H86.1086V16.6404C86.1086 19.4266 87.2547 20.0259 89.7452 20.0259V22.6987C85.2096 22.6987 83.2617 21.2044 83.2617 16.6404Z" fill="white"/>
<path d="M77.122 7.39502H80.1957L76.3647 14.0608C80.4427 15.1663 80.2564 19.054 80.2564 22.6987H77.4703C77.4703 20.5402 77.7456 18.4871 76.2189 17.0737C74.9595 15.8953 73.0318 15.7738 71.169 16.0006V22.6987H68.3828V0.376953H71.169V13.4817C72.0599 13.3561 72.9427 13.3561 73.8337 13.4817L77.122 7.39502Z" fill="white"/>
<path d="M56.4375 22.7003V14.0017C56.4375 10.8753 57.0935 8.729 59.41 7.87047C61.2525 7.19013 63.3462 7.39666 65.5452 7.39666V10.0816C64.2129 10.0816 61.7223 9.89531 60.6491 10.3286C59.4302 10.8227 59.2237 12.1024 59.2237 14.0017V22.7003H56.4375Z" fill="white"/>
<path d="M40.8078 9.64354C45.4487 4.89733 53.9004 8.11681 53.9004 15.062C53.9004 23.5136 42.3345 25.5992 39.196 18.0466C38.0419 15.2483 38.5967 11.8425 40.8078 9.64354ZM46.2586 10.1092C39.9493 10.1092 39.9493 20.0147 46.2586 20.0147C52.5802 20.0188 52.5802 10.1092 46.2586 10.1092Z" fill="white"/>
<path d="M36.8492 10.0772H33.2004V22.7H30.3535V10.0772H28.2031L29.4747 7.39226H30.3575C30.3575 2.84044 33.7998 0.341797 38.1127 0.341797V3.02672C34.8446 3.02672 33.2045 4.48055 33.2045 7.39226H36.8492V10.0772Z" fill="white"/>
<path fill-rule="evenodd" clip-rule="evenodd" d="M19.6004 20.1726C18.2883 20.0997 16.9681 20.2252 15.656 19.9053C13.8944 19.4517 12.3879 18.5446 10.9543 17.5119C9.85688 16.706 8.77157 15.8799 7.65387 15.1186C5.56424 13.6405 2.71328 13.8024 0 13.7538C0 13.0735 0.0202483 12.3932 0.0202483 11.7088C0.0202483 11.0163 0 10.3359 0 9.65558C2.71328 9.60294 5.56424 9.76897 7.65387 8.29489C8.77157 7.52951 9.85688 6.70743 10.9543 5.90154C12.3879 4.86888 13.8944 3.96175 15.656 3.50819C16.9681 3.18827 18.2883 3.31381 19.6004 3.24091C18.9646 2.46743 18.3288 1.84783 17.6241 1.13509C17.4298 0.940704 17.2637 0.713922 17.4298 0.422346C17.5512 0.195565 17.778 0.13482 18.0251 0.13482C18.8633 0.118622 19.6733 0.078125 20.5116 0.078125C21.1676 0.078125 21.7103 0.325155 22.1719 0.790866C23.3828 2.03006 24.5896 3.23686 25.7883 4.47606C26.4322 5.13616 26.4119 5.63021 25.7559 6.31461C24.5693 7.53356 23.3382 8.74036 22.1395 9.97956C21.6981 10.425 21.1757 10.6518 20.5601 10.672C19.7624 10.6923 18.9605 10.6923 18.1627 10.6923C17.8671 10.6923 17.5674 10.6396 17.4257 10.3319C17.2394 9.9917 17.4986 9.78517 17.7011 9.56649C18.345 8.93879 18.9808 8.31919 19.7381 7.5862C17.7416 7.34727 16.0407 7.54571 14.5342 8.58647C13.2019 9.51384 11.8898 10.4736 10.5291 11.4253C10.3752 11.5265 10.2821 11.6197 10.274 11.7128C10.2861 11.7938 10.3752 11.8869 10.5291 11.9922C11.8898 12.9399 13.2019 13.8996 14.5342 14.8311C16.0407 15.8718 17.7416 16.0703 19.7381 15.8313C18.9808 15.0983 18.345 14.4787 17.7011 13.851C17.4946 13.6324 17.2394 13.4299 17.4257 13.0856C17.5674 12.7779 17.8671 12.7252 18.1627 12.7252C18.9605 12.7252 19.7624 12.7252 20.5601 12.7455C21.1757 12.7657 21.6981 12.9925 22.1395 13.438C23.3382 14.6772 24.5693 15.884 25.7559 17.1029C26.4119 17.7833 26.4322 18.2814 25.7883 18.9415C24.5896 20.1807 23.3787 21.3875 22.1719 22.6267C21.7103 23.0924 21.1676 23.3394 20.5116 23.3394C19.6733 23.3394 18.8633 23.2989 18.021 23.2868C17.774 23.2868 17.5512 23.226 17.4257 22.9992C17.2637 22.7117 17.4257 22.4849 17.6201 22.2865C18.3288 21.5656 18.9646 20.946 19.6004 20.1726Z" fill="white"/>
<path d="M93.879 9.64354C98.5199 4.89733 106.972 8.11681 106.972 15.062C106.972 23.5136 95.4057 25.5992 92.2713 18.0466C91.1131 15.2483 91.676 11.8425 93.879 9.64354ZM99.342 10.1092C93.0205 10.1092 93.0205 20.0147 99.342 20.0147C105.651 20.0188 105.651 10.1092 99.342 10.1092Z" fill="white"/>
</svg>
