<svg width="263" height="40" fill="none" xmlns="http://www.w3.org/2000/svg">
<path d="M249.333.916c-7.285 0-13.21 5.925-13.21 13.21 0 7.284 5.925 13.21 13.21 13.21 7.285 0 13.21-5.926 13.21-13.21 0-7.285-5.925-13.21-13.21-13.21zm0 22.826a9.576 9.576 0 01-9.616-9.616 9.576 9.576 0 019.616-9.616 9.576 9.576 0 019.616 9.616c-.097 5.245-4.371 9.616-9.616 9.616zM100.625.916c-3.69 0-6.605 2.914-7.382 5.342V1.984H82.268v3.594h7.382v17.29h-7.382v3.593h20.106v-3.594h-9.13V11.892c0-1.652 1.456-7.577 6.313-7.577 1.457 0 2.914.389 3.788 1.457-.291.486-.583 1.069-.583 1.652a2.82 2.82 0 002.817 2.816c1.651 0 2.817-1.36 2.817-3.01 0-2.72-3.108-6.314-7.771-6.314zM194.356.916c-3.691 0-6.605 2.914-7.382 5.342V1.984h-10.976v3.594h7.382V22.77h-7.382v3.594h20.106V22.77h-9.13V11.892c0-1.652 1.457-7.577 6.313-7.577 1.457 0 2.914.389 3.788 1.457-.291.486-.582 1.069-.582 1.652a2.818 2.818 0 002.816 2.816c1.652 0 2.817-1.36 2.817-3.01 0-2.817-3.108-6.314-7.77-6.314zM134.524 12.474a2.82 2.82 0 002.817-2.816v-.389c-.389-3.302-5.44-8.353-12.044-8.353-7.382 0-13.404 5.925-13.404 13.21 0 7.284 6.022 13.21 13.404 13.21 5.148 0 9.616-2.817 11.85-6.994l-2.914-1.943c-1.749 3.108-5.051 5.343-8.936 5.343a9.576 9.576 0 01-9.616-9.616c0-5.343 4.176-9.616 9.616-9.616 3.011 0 5.439 1.165 7.187 3.108-.485.486-.777 1.165-.777 1.942-.097 1.652 1.166 2.914 2.817 2.914zM223.498 5.578h2.914l-6.411 16.61-6.993-16.61h3.011V1.984h-10.587v3.594h3.691l8.936 21.466-4.954 12.918h3.885L230.2 5.578h3.788V1.984h-10.49v3.594zM43.805 11.309c0-6.41-4.274-10.393-9.519-10.393-4.176 0-7.576 3.01-9.13 6.022C23.7 3.15 20.3.916 16.317.916c-3.982 0-7.285 2.914-8.353 5.342V1.984H.582v3.594h3.885v20.786h3.594v-14.57c0-1.65 2.04-7.576 7.77-7.576 2.72 0 6.508 2.526 6.508 7.48v14.666h3.594v-14.57c0-1.65 1.748-7.479 7.77-7.479 2.72 0 6.508 2.234 6.508 7.285v14.861h7.48v-3.594h-3.886V11.31zM64.88.916c-7.286 0-13.308 5.828-13.308 13.112 0 .292 0 1.166.097 1.36.68 6.702 6.411 11.947 13.307 11.947 5.148 0 9.616-2.816 11.85-6.993l-2.914-1.943c-1.748 3.206-5.05 5.343-8.936 5.343-4.953 0-9.033-3.691-9.616-8.354h22.243c0-.485.097-.874.097-1.36C77.7 6.744 72.261.916 64.88.916zm-9.325 10.878c.97-4.273 4.856-7.381 9.421-7.381 4.565 0 7.868 3.108 8.936 7.381H55.555zM166.577 1.984h-3.594v14.473c0 3.302-3.496 7.77-7.867 7.77-2.72 0-6.508-2.622-6.508-7.285V1.984h-7.479v3.594h3.885v11.559c0 6.41 4.274 10.198 9.519 10.198 3.691 0 6.605-2.33 8.353-4.662v3.788h7.479v-3.594h-3.885l.097-20.883z" fill="#C4C4C4"></path>
</svg>