<svg width="291" height="589" viewBox="0 0 291 589" fill="none" xmlns="http://www.w3.org/2000/svg">
<g clip-path="url(#clip0_11333_58758)">
<path d="M246.181 15.0215H38.7716C17.4948 15.0215 0.158203 32.3042 0.158203 53.6719V549.371C0.158203 570.739 17.4948 588.021 38.9292 588.021H246.181C267.615 588.021 284.952 570.739 284.952 549.371V53.6719C284.952 32.3042 267.615 15.0215 246.181 15.0215ZM283.848 545.757C283.848 549.842 283.218 553.613 281.957 557.227C281.8 557.541 281.8 557.855 281.642 558.012C281.484 558.327 281.484 558.641 281.327 558.798C281.327 558.955 281.169 559.269 281.012 559.426C280.696 560.055 280.539 560.683 280.224 561.155C280.066 561.469 279.908 561.626 279.908 561.94C279.751 562.255 279.593 562.726 279.278 563.04C279.12 563.354 278.963 563.511 278.963 563.826C278.805 564.14 278.647 564.297 278.49 564.611C278.017 565.24 277.702 566.025 277.229 566.654C277.071 566.811 276.914 567.125 276.756 567.282C276.599 567.596 276.441 567.754 276.283 567.911C276.126 568.068 275.968 568.382 275.811 568.539C275.653 568.696 275.495 569.011 275.338 569.168C275.18 569.325 275.023 569.639 274.707 569.796C274.392 570.267 273.919 570.739 273.604 571.053C272.974 571.681 272.343 572.31 271.713 572.938C271.555 573.096 271.398 573.253 271.082 573.41C270.61 573.881 270.137 574.195 269.664 574.51C269.506 574.667 269.191 574.824 269.034 574.981C268.403 575.452 267.615 576.081 266.985 576.552C266.669 576.709 266.512 576.866 266.197 577.023C265.724 577.338 265.251 577.652 264.778 577.966C264.463 578.123 264.305 578.28 263.99 578.437C263.202 578.909 262.414 579.223 261.468 579.694C261.311 579.851 260.996 579.851 260.838 580.009C260.523 580.166 260.365 580.166 260.05 580.323C259.735 580.48 259.577 580.48 259.262 580.637C258.632 580.794 258.001 581.108 257.371 581.266C257.213 581.266 256.898 581.423 256.74 581.423C255.952 581.737 255.007 581.894 254.219 582.051C253.903 582.051 253.588 582.208 253.273 582.208C252.958 582.208 252.643 582.365 252.327 582.365C251.697 582.522 251.224 582.522 250.594 582.68C250.436 582.68 250.436 582.68 250.278 582.68C250.121 582.68 250.121 582.68 249.963 582.68C249.963 582.68 249.963 582.68 249.806 582.68C250.278 582.68 250.909 582.522 251.382 582.522C251.697 582.522 251.855 582.365 252.17 582.365C252.485 582.365 252.643 582.208 252.958 582.208C253.746 582.051 254.534 581.894 255.322 581.58C255.637 581.58 255.795 581.423 256.11 581.423C256.583 581.266 257.055 581.108 257.528 580.951C258.316 580.637 258.947 580.323 259.735 580.166C260.05 580.009 260.208 580.009 260.365 579.851C260.523 579.694 260.838 579.694 260.996 579.537C261.468 579.38 261.941 579.066 262.414 578.752C262.887 578.437 263.36 578.28 263.675 577.966C264.148 577.652 264.463 577.495 264.778 577.18C264.778 577.18 264.936 577.181 264.936 577.023C265.566 576.552 266.197 576.081 266.827 575.609C266.985 575.452 267.3 575.295 267.457 575.138C268.088 574.667 268.561 574.195 269.034 573.724C270.294 572.467 271.555 571.21 272.658 569.796C272.816 569.639 272.974 569.325 273.131 569.168C274.707 567.125 276.126 564.768 277.229 562.255C277.387 561.94 277.544 561.469 277.702 560.998C278.49 559.112 279.12 557.07 279.436 555.027C279.593 554.556 279.593 554.242 279.593 553.77C279.908 552.042 279.908 550.314 279.908 548.586V53.6719C279.908 36.2321 266.512 21.6203 249.49 19.8921C249.175 19.8921 248.86 19.8921 248.545 19.7349C248.23 19.7349 247.914 19.7349 247.599 19.7349C246.969 19.7349 246.496 19.7349 245.865 19.7349H38.7716C38.1412 19.7349 37.6684 19.7349 37.0379 19.7349C19.0709 20.6776 4.72877 35.4465 4.72877 53.6719V549.371C4.72877 566.811 17.9676 581.266 34.9891 583.151C34.8315 583.151 34.5162 583.151 34.3586 583.151C33.7282 583.151 33.0978 582.994 32.625 582.837C29 582.208 25.6903 581.108 22.5382 579.694C22.3806 579.537 22.0654 579.537 21.9078 579.38C21.2774 579.066 20.8046 578.752 20.1741 578.437C19.8589 578.28 19.7013 578.123 19.3861 577.966C18.1253 577.18 17.022 576.395 15.7612 575.452C15.6036 575.295 15.2884 575.138 15.1307 574.981C14.5003 574.51 13.8699 574.038 13.3971 573.41C13.2395 573.253 13.0819 573.096 12.7667 572.938C12.6091 572.781 12.2938 572.467 12.1362 572.31C11.9786 572.153 11.6634 571.839 11.5058 571.681C11.3482 571.524 11.1906 571.367 11.033 571.21C10.8754 571.053 10.7178 570.896 10.5602 570.739C9.61455 569.639 8.66891 568.539 7.88088 567.439C7.72328 567.282 7.56567 566.968 7.40807 566.811C6.93525 566.182 6.46243 565.554 6.14722 564.768C5.98961 564.454 5.83201 564.297 5.6744 563.983C4.57116 562.097 3.78313 560.212 2.99511 558.17C2.8375 557.855 2.8375 557.541 2.67989 557.384C2.20708 555.97 1.89187 554.556 1.57665 553.142C1.57665 552.828 1.41905 552.513 1.41905 552.199C1.10384 550.157 0.946232 547.957 0.946232 545.915V53.6719C0.946232 53.3577 0.946232 52.8863 0.946232 52.5721C0.946232 52.2578 0.946232 51.9436 0.946232 51.7865C0.946232 51.158 0.946232 50.5296 1.10384 50.0582C1.10384 49.744 1.10384 49.4298 1.26144 49.1155C1.26144 48.9584 1.26144 48.8013 1.26144 48.6442C1.26144 48.4871 1.26144 48.33 1.41905 48.0157C1.41905 47.7015 1.57665 47.3873 1.57665 47.073C1.73426 46.6017 1.73426 45.9732 1.89187 45.5019C1.89187 45.1876 2.04947 45.0305 2.04947 44.7163C2.20708 43.9307 2.52229 43.1451 2.67989 42.3596C2.99511 42.0453 3.15271 41.8882 3.15271 41.574C3.31032 41.2598 3.31032 40.9455 3.46792 40.6313C3.62553 40.3171 3.62553 40.16 3.78313 39.8457C3.94074 39.6886 3.94074 39.3744 4.09835 39.2173C4.25595 38.903 4.25595 38.7459 4.41356 38.5888C4.57116 38.4317 4.57116 38.2746 4.72877 38.1175C4.88637 37.8032 4.88637 37.6461 5.04398 37.3319C5.20159 36.8605 5.5168 36.3892 5.6744 36.075C5.83201 35.9178 5.98961 35.6036 5.98961 35.4465C6.14722 35.1323 6.30483 34.9751 6.46243 34.6609C7.56567 32.9326 8.66891 31.2044 9.92976 29.6332C10.0874 29.4761 10.245 29.1619 10.4026 29.0048C10.5602 28.6905 10.8754 28.5334 11.033 28.2192C11.3482 27.7478 11.821 27.4336 12.1362 27.1194C12.6091 26.648 13.0819 26.3338 13.5547 25.8624C14.0275 25.5482 14.5003 25.0769 14.8155 24.7626C14.9731 24.6055 15.2884 24.4484 15.446 24.1342C15.9188 23.8199 16.3916 23.3486 16.8644 23.0344C17.3372 22.7201 17.81 22.4059 18.2829 22.0917C18.7557 21.7774 19.2285 21.4632 19.8589 21.149C20.1741 20.9919 20.3317 20.8348 20.6469 20.6776C20.9622 20.5205 21.1198 20.3634 21.435 20.2063C21.7502 20.0492 21.9078 19.8921 22.223 19.7349C22.5382 19.5778 22.6958 19.4207 23.011 19.4207C23.4838 19.1065 24.1143 18.9494 24.5871 18.7923C24.9023 18.6351 25.0599 18.6351 25.3751 18.478C25.6903 18.3209 25.8479 18.3209 26.1631 18.1638C26.4784 18.0067 26.636 18.0067 26.9512 17.8496C27.2664 17.6924 27.5816 17.6924 27.8968 17.5353C28.212 17.3782 28.5272 17.3782 28.6848 17.2211C29 17.064 29.3153 17.064 29.6305 17.064C29.9457 17.064 30.2609 16.9069 30.5761 16.9069C31.2065 16.7498 31.8369 16.5926 32.3098 16.5926C32.7826 16.5926 33.0978 16.5926 33.413 16.4355C34.0434 16.2784 34.6739 16.2784 35.3043 16.2784C35.7771 16.2784 36.4075 16.1213 36.8803 16.1213C37.1955 16.1213 37.5108 16.1213 37.826 16.1213C38.1412 16.1213 38.4564 16.1213 38.7716 16.1213H246.023C246.338 16.1213 246.654 16.1213 246.969 16.1213C247.284 16.1213 247.442 16.1213 247.757 16.1213C248.387 16.1213 249.018 16.1213 249.648 16.2784C249.963 16.2784 250.278 16.2784 250.594 16.4355C250.909 16.4355 251.224 16.5926 251.539 16.5926C251.855 16.5926 252.17 16.7498 252.485 16.7498C252.8 16.7498 253.115 16.9069 253.431 16.9069C253.746 16.9069 254.061 17.064 254.376 17.064C254.691 17.064 254.849 17.2211 255.164 17.2211H255.322C255.637 17.2211 255.795 17.3782 256.11 17.3782C256.425 17.5353 256.74 17.5353 257.213 17.6924C257.528 17.6924 257.686 17.8496 257.844 17.8496C258.316 18.0067 258.947 18.1638 259.42 18.3209C259.735 18.478 260.05 18.6351 260.523 18.7923C260.838 18.9494 260.996 18.9494 261.311 19.1065C261.626 19.2636 261.784 19.4207 262.099 19.4207C262.414 19.5778 262.572 19.7349 262.887 19.7349C264.778 20.6776 266.512 21.7774 268.245 23.0344C268.403 23.1915 268.718 23.3486 268.876 23.5057C269.664 24.1342 270.294 24.6055 271.082 25.234C271.398 25.5482 271.713 25.7053 272.028 26.0196C273.289 27.1194 274.392 28.3763 275.495 29.6332C275.653 29.7903 275.811 30.1046 276.126 30.2617C276.441 30.733 276.914 31.2044 277.229 31.6757C277.387 31.99 277.544 32.1471 277.702 32.4613C278.017 32.9326 278.332 33.2469 278.49 33.7182C278.647 33.8753 278.805 34.1896 278.963 34.3467C279.278 34.818 279.436 35.1323 279.751 35.6036C279.908 35.7607 279.908 36.075 280.066 36.2321C280.381 37.0176 280.854 37.6461 281.169 38.4317C281.327 38.5888 281.327 38.7459 281.484 39.0601C281.8 39.8457 282.115 40.6313 282.272 41.2598C282.43 41.574 282.43 41.8882 282.588 42.0453C283.06 43.6165 283.533 45.3448 283.848 47.073C283.848 47.2301 283.848 47.3873 284.006 47.7015C284.006 48.0157 284.164 48.33 284.164 48.6442C284.164 48.9584 284.164 49.2726 284.321 49.5869C284.321 49.9011 284.321 50.2153 284.479 50.5296C284.479 51.158 284.479 51.6294 284.637 52.2578C284.637 52.5721 284.637 53.0434 284.637 53.3577V545.757H283.848Z" fill="#000004"/>
<path d="M35.1451 583.151C34.8299 583.151 34.5147 583.151 34.1995 582.994C33.5691 582.994 32.9387 582.837 32.4659 582.679C28.8409 582.051 25.5312 580.951 22.3791 579.537C22.2215 579.38 21.9063 579.38 21.7487 579.223C21.1182 578.909 20.6454 578.595 20.015 578.28C19.6998 578.123 19.5422 577.966 19.227 577.809C17.9661 577.023 16.8629 576.238 15.602 575.295C15.4444 575.138 15.1292 574.981 14.9716 574.824C14.3412 574.352 13.7108 573.881 13.238 573.253C13.0804 573.095 12.9227 572.938 12.6075 572.781C12.4499 572.624 12.1347 572.31 11.9771 572.153C11.8195 571.996 11.5043 571.681 11.3467 571.524C11.1891 571.367 11.0315 571.21 10.8739 571.053C10.7163 570.896 10.5587 570.739 10.4011 570.582C9.45542 569.482 8.50979 568.382 7.72176 567.282C7.56415 567.125 7.40655 566.811 7.24894 566.654C6.77613 566.025 6.30331 565.397 5.9881 564.611C5.83049 564.297 5.67289 564.14 5.51528 563.826C4.41204 561.94 3.62401 560.055 2.83598 558.012C2.67838 557.698 2.67838 557.384 2.52077 557.227C2.04795 555.813 1.73274 554.399 1.41753 552.985C1.41753 552.67 1.25993 552.356 1.25993 552.042C0.944715 549.999 0.787109 547.8 0.787109 545.757V57.2855C1.10232 37.1747 17.1781 20.6776 37.0364 19.7349C19.0694 20.6776 4.72725 35.4464 4.72725 53.6718V549.371C4.72725 566.811 18.1237 581.265 35.1451 583.151Z" fill="url(#paint0_linear_11333_58758)"/>
<path d="M283.847 57.2855V545.757C283.847 549.842 283.217 553.613 281.956 557.227C281.798 557.541 281.798 557.855 281.641 558.013C281.483 558.327 281.483 558.641 281.326 558.798C281.326 558.955 281.168 559.269 281.01 559.427C280.695 560.055 280.538 560.683 280.222 561.155C280.065 561.469 279.907 561.626 279.907 561.94C279.749 562.255 279.592 562.726 279.277 563.04C279.119 563.354 278.961 563.512 278.961 563.826C278.804 564.14 278.646 564.297 278.489 564.611C278.016 565.24 277.701 566.025 277.228 566.654C277.07 566.811 276.913 567.125 276.755 567.282C276.597 567.597 276.44 567.754 276.282 567.911C276.125 568.225 275.967 568.382 275.809 568.539C275.652 568.696 275.494 569.011 275.337 569.168C275.179 569.325 275.021 569.639 274.706 569.796C274.391 570.268 273.918 570.739 273.603 571.053C272.972 571.682 272.342 572.31 271.712 572.938C271.554 573.096 271.396 573.253 271.081 573.41C270.608 573.881 270.136 574.195 269.663 574.51C269.505 574.667 269.19 574.824 269.032 574.981C268.402 575.452 267.614 576.081 266.983 576.552C266.668 576.709 266.511 576.866 266.195 577.024C265.723 577.338 265.25 577.652 264.777 577.966C264.462 578.123 264.304 578.28 263.989 578.438C263.201 578.909 262.413 579.223 261.467 579.694C261.31 579.852 260.994 579.852 260.837 580.009C260.522 580.166 260.364 580.166 260.049 580.323C259.734 580.48 259.576 580.48 259.261 580.637C258.63 580.794 258 581.108 257.369 581.266C257.212 581.266 256.897 581.423 256.739 581.423C255.951 581.737 255.005 581.894 254.217 582.051C253.902 582.051 253.587 582.208 253.272 582.208C252.957 582.208 252.641 582.365 252.326 582.365C251.696 582.523 251.223 582.523 250.592 582.68C250.277 582.68 249.962 582.68 249.647 582.837C266.668 581.108 280.065 566.497 280.065 549.057V53.6718C280.065 35.9178 266.195 21.1489 248.701 19.7349C268.402 21.1489 283.847 37.4889 283.847 57.2855Z" fill="url(#paint1_linear_11333_58758)"/>
<path d="M283.846 545.757V549.371C283.846 570.11 266.982 586.921 246.178 586.921H38.7693C17.9654 586.921 1.10156 570.11 1.10156 549.371V545.757C1.10156 547.956 1.25917 549.999 1.57438 552.041C1.57438 552.356 1.73199 552.67 1.73199 552.984C2.0472 554.398 2.36241 555.812 2.83523 557.226C2.99283 557.541 2.99283 557.855 3.15044 558.012C3.93847 560.054 4.72649 561.94 5.82973 563.825C5.98734 564.139 6.14495 564.296 6.30255 564.611C6.77537 565.239 7.09058 566.025 7.5634 566.653C7.721 566.81 7.87861 567.125 8.03621 567.282C8.82424 568.381 9.76988 569.638 10.7155 570.581C10.8731 570.738 11.0307 570.895 11.1883 571.052C11.3459 571.21 11.5035 571.367 11.6611 571.524C11.8188 571.681 12.134 571.995 12.2916 572.152C12.4492 572.309 12.7644 572.624 12.922 572.781C13.0796 572.938 13.2372 573.095 13.5524 573.252C14.1828 573.723 14.6557 574.195 15.2861 574.823C15.4437 574.98 15.7589 575.137 15.9165 575.295C17.0197 576.237 18.2806 577.023 19.5414 577.808C19.8566 577.966 20.0142 578.123 20.3295 578.28C20.8023 578.594 21.4327 578.908 22.0631 579.222C22.2207 579.38 22.5359 579.38 22.6935 579.537C25.8457 581.108 29.1554 582.208 32.7803 582.679C33.4107 582.836 33.8836 582.836 34.514 582.993C35.1444 582.993 35.7748 583.15 36.4052 583.15C36.7205 583.15 37.0357 583.15 37.3509 583.15C37.9813 583.15 38.4541 583.15 39.0845 583.15H246.336C246.967 583.15 247.439 583.15 248.07 583.15C248.385 583.15 248.7 583.15 249.015 583.15C249.488 583.15 249.961 582.993 250.434 582.993C250.591 582.993 250.591 582.993 250.749 582.993C251.379 582.993 252.01 582.836 252.483 582.679C252.798 582.679 253.113 582.522 253.428 582.522C253.744 582.522 254.059 582.365 254.374 582.365C255.162 582.208 256.108 581.893 256.896 581.736C257.053 581.736 257.368 581.579 257.526 581.579C258.157 581.422 258.787 581.108 259.417 580.951C259.733 580.794 259.89 580.794 260.205 580.636C260.521 580.479 260.678 580.479 260.993 580.322C261.151 580.165 261.466 580.165 261.624 580.008C262.412 579.694 263.358 579.222 264.146 578.751C264.461 578.594 264.618 578.437 264.934 578.28C265.406 577.966 265.879 577.651 266.352 577.337C266.667 577.18 266.825 577.023 267.14 576.866C267.928 576.394 268.558 575.923 269.189 575.295C269.347 575.137 269.662 574.98 269.819 574.823C270.292 574.509 270.765 574.038 271.238 573.723C271.395 573.566 271.711 573.409 271.868 573.252C272.499 572.624 273.129 571.995 273.759 571.367C274.232 570.895 274.548 570.581 274.863 570.11C275.02 569.953 275.178 569.638 275.493 569.481C275.651 569.324 275.808 569.01 275.966 568.853C276.124 568.696 276.281 568.381 276.439 568.224C276.596 568.067 276.754 567.753 276.912 567.596C277.069 567.439 277.227 567.125 277.384 566.967C277.857 566.339 278.33 565.553 278.645 564.925C278.803 564.611 278.96 564.454 279.118 564.139C279.276 563.825 279.433 563.668 279.433 563.354C279.591 563.04 279.748 562.568 280.064 562.254C280.221 561.94 280.379 561.783 280.379 561.468C280.694 560.84 280.852 560.211 281.167 559.74C281.325 559.583 281.325 559.269 281.482 559.112C281.64 558.797 281.64 558.64 281.797 558.326C281.955 558.012 281.955 557.698 282.113 557.54C283.216 553.613 283.846 549.842 283.846 545.757Z" fill="url(#paint2_linear_11333_58758)"/>
<path d="M283.846 53.6722V57.2858C283.846 37.8035 268.874 21.7777 249.803 19.8924C249.488 19.8924 249.173 19.8924 248.858 19.7352C248.542 19.7352 248.227 19.7352 247.912 19.7352C247.282 19.7352 246.809 19.7352 246.178 19.7352H38.7693C38.1389 19.7352 37.6661 19.7352 37.0357 19.7352C17.1773 20.6779 1.10156 37.175 1.10156 57.2858V53.6722C1.10156 53.3579 1.10156 52.8866 1.10156 52.5724C1.10156 52.2581 1.10156 51.9439 1.10156 51.7868C1.10156 51.1583 1.10156 50.5299 1.25917 50.0585C1.25917 49.7443 1.25917 49.4301 1.41677 49.1158C1.41677 48.9587 1.41677 48.8016 1.41677 48.6445C1.41677 48.4874 1.41677 48.3302 1.57438 48.016C1.57438 47.7018 1.73199 47.3876 1.73199 47.0733C1.88959 46.602 1.88959 45.9735 2.0472 45.5022C2.0472 45.1879 2.2048 45.0308 2.2048 44.7166C2.36241 43.931 2.67762 43.1454 2.83523 42.3599C2.99283 42.0456 3.15044 41.8885 3.15044 41.5743C3.30804 41.26 3.30804 40.9458 3.46565 40.6316C3.62325 40.3174 3.62325 40.1602 3.78086 39.846C3.93847 39.6889 3.93846 39.3747 4.09607 39.2176C4.25368 38.9033 4.25368 38.7462 4.41128 38.5891C4.56889 38.432 4.56889 38.2749 4.72649 38.1177C4.8841 37.8035 4.8841 37.6464 5.0417 37.3322C5.19931 36.8608 5.51452 36.3895 5.67213 36.0752C5.82973 35.9181 5.98734 35.6039 5.98734 35.4468C6.14494 35.1326 6.30255 34.9754 6.46016 34.6612C7.5634 32.9329 8.66664 31.2047 9.92748 29.6335C10.0851 29.4764 10.2427 29.1622 10.4003 29.005C10.5579 28.6908 10.8731 28.5337 11.0307 28.2195C11.3459 27.7481 11.8187 27.4339 12.134 27.1197C12.6068 26.6483 13.0796 26.3341 13.5524 25.8627C14.0252 25.5485 14.498 25.0772 14.8133 24.7629C14.9709 24.6058 15.2861 24.4487 15.4437 24.1345C15.9165 23.8202 16.3893 23.3489 16.8621 23.0347C17.3349 22.7204 17.8078 22.4062 18.2806 22.092C18.7534 21.7777 19.2262 21.4635 19.8566 21.1493C20.1719 20.9922 20.3295 20.835 20.6447 20.6779C20.9599 20.5208 21.1175 20.3637 21.4327 20.2066C21.7479 20.0495 21.9055 19.8924 22.2207 19.7352C22.5359 19.5781 22.6935 19.421 23.0088 19.421C23.4816 19.1068 24.112 18.9497 24.5848 18.7925C24.9 18.6354 25.0576 18.6354 25.3728 18.4783C25.6881 18.3212 25.8457 18.3212 26.1609 18.1641C26.4761 18.007 26.6337 18.007 26.9489 17.8499C27.2641 17.6927 27.5793 17.6927 27.8945 17.5356C28.2097 17.3785 28.525 17.3785 28.6826 17.2214C28.9978 17.0643 29.313 17.0643 29.6282 17.0643C29.9434 17.0643 30.2586 16.9072 30.5738 16.9072C31.2042 16.75 31.8347 16.5929 32.3075 16.5929C32.7803 16.5929 33.0955 16.5929 33.4107 16.4358C34.0412 16.2787 34.6716 16.2787 35.302 16.2787C35.7748 16.2787 36.4052 16.1216 36.8781 16.1216C37.1933 16.1216 37.5085 16.1216 37.8237 16.1216C38.1389 16.1216 38.4541 16.1216 38.7693 16.1216H246.021C246.336 16.1216 246.651 16.1216 246.966 16.1216C247.282 16.1216 247.439 16.1216 247.754 16.1216C248.385 16.1216 249.015 16.1216 249.646 16.2787C249.961 16.2787 250.276 16.2787 250.591 16.4358C250.907 16.4358 251.222 16.5929 251.537 16.5929C251.852 16.5929 252.167 16.75 252.483 16.75C252.798 16.75 253.113 16.9072 253.428 16.9072C253.744 16.9072 254.059 17.0643 254.374 17.0643C254.689 17.0643 254.847 17.2214 255.162 17.2214H255.32C255.635 17.2214 255.792 17.3785 256.108 17.3785C256.423 17.5356 256.738 17.5356 257.211 17.6927C257.526 17.6927 257.684 17.8499 257.841 17.8499C258.314 18.007 258.944 18.1641 259.417 18.3212C259.733 18.4783 260.048 18.6354 260.521 18.7925C260.836 18.9497 260.993 18.9497 261.309 19.1068C261.624 19.2639 261.781 19.421 262.097 19.421C262.412 19.5781 262.569 19.7352 262.885 19.7352C264.776 20.6779 266.51 21.7777 268.243 23.0347C268.401 23.1918 268.716 23.3489 268.874 23.506C269.662 24.1345 270.292 24.6058 271.08 25.2343C271.395 25.5485 271.711 25.7056 272.026 26.0199C273.287 27.1197 274.39 28.3766 275.493 29.6335C275.651 29.7906 275.808 30.1049 276.124 30.262C276.439 30.7333 276.912 31.2047 277.227 31.676C277.384 31.9902 277.542 32.1474 277.7 32.4616C278.015 32.9329 278.33 33.2472 278.488 33.7185C278.645 33.8756 278.803 34.1899 278.96 34.347C279.276 34.8183 279.433 35.1326 279.748 35.6039C279.906 35.761 279.906 36.0752 280.064 36.2324C280.379 37.0179 280.852 37.6464 281.167 38.432C281.324 38.5891 281.325 38.7462 281.482 39.0604C281.797 39.846 282.113 40.6316 282.27 41.2601C282.428 41.5743 282.428 41.8885 282.585 42.0456C283.058 43.6168 283.531 45.3451 283.846 47.0733C283.846 47.2304 283.846 47.3876 284.004 47.7018C284.004 48.016 284.161 48.3302 284.161 48.6445C284.161 48.9587 284.161 49.2729 284.319 49.5872C284.319 49.9014 284.319 50.2156 284.477 50.5299C284.477 51.1583 284.477 51.6297 284.634 52.2581C283.846 52.8866 283.846 53.3579 283.846 53.6722Z" fill="url(#paint3_linear_11333_58758)"/>
<path d="M247.912 19.7349C247.282 19.7349 246.809 19.7349 246.179 19.7349H38.7694C38.139 19.7349 37.6662 19.7349 37.0357 19.7349C19.0687 20.6776 4.72656 35.4464 4.72656 53.6718V549.371C4.72656 567.125 18.5959 581.894 36.0901 583.308C36.4053 583.308 36.7205 583.308 37.0357 583.308C37.6662 583.308 38.139 583.308 38.7694 583.308H246.021C246.651 583.308 247.124 583.308 247.755 583.308C248.07 583.308 248.385 583.308 248.7 583.308C266.194 581.894 280.064 567.282 280.064 549.371V53.6718C280.221 35.4464 265.879 20.6776 247.912 19.7349ZM277.384 549.371C277.384 565.554 264.776 579.066 248.7 580.323C248.385 580.323 248.07 580.323 247.755 580.323C247.282 580.323 246.651 580.323 246.179 580.323H38.7694C38.2966 580.323 37.6662 580.323 37.1933 580.323C36.8781 580.323 36.5629 580.323 36.4053 580.323C20.3295 579.066 7.72107 565.397 7.72107 549.371V53.6718C7.72107 37.1747 20.6447 23.5056 37.1933 22.5629C37.6662 22.5629 38.2966 22.5629 38.7694 22.5629H246.021C246.494 22.5629 247.124 22.5629 247.597 22.5629C264.146 23.5056 277.069 37.0176 277.069 53.6718V549.371H277.384Z" fill="#250F3E"/>
<path d="M277.386 53.829V549.528C277.386 552.67 276.913 555.656 276.125 558.327C275.494 560.526 274.549 562.726 273.288 564.768C272.973 565.24 272.815 565.554 272.5 566.025C272.185 566.654 271.712 567.282 271.239 567.753C269.978 569.325 268.717 570.896 267.299 572.31C269.978 567.596 271.554 562.097 271.554 556.284V550.628C271.554 550.314 271.554 549.999 271.554 549.528V53.829C271.554 53.5148 271.554 53.2005 271.554 52.7292V47.073C271.554 41.1026 269.978 35.6036 267.299 30.8901C273.445 36.7034 277.386 44.8734 277.386 53.829Z" fill="url(#paint4_linear_11333_58758)"/>
<path d="M247.598 25.3911C246.967 25.3911 246.494 25.3911 246.022 25.3911H38.77C38.2972 25.3911 37.8244 25.3911 37.3516 25.3911H37.194C22.2214 26.3338 10.5586 38.7459 10.5586 53.6719V549.371C10.5586 563.983 22.0638 576.395 36.5635 577.495C36.7211 577.495 37.0364 577.495 37.194 577.495H37.3516C37.8244 577.495 38.2972 577.495 38.77 577.495H246.022C246.494 577.495 246.967 577.495 247.44 577.495H247.598C247.913 577.495 248.07 577.495 248.386 577.495C263.043 576.395 274.391 563.983 274.391 549.371V53.6719C274.548 38.5888 262.728 26.1767 247.598 25.3911ZM266.983 549.371C266.983 560.055 258.63 569.168 247.913 569.953C247.755 569.953 247.755 569.953 247.598 569.953H247.44C247.125 569.953 246.81 569.953 246.337 569.953H38.77C38.4548 569.953 37.982 569.953 37.6668 569.953H37.5092C37.3516 569.953 37.3516 569.953 37.194 569.953C26.4768 569.168 18.1237 560.055 18.1237 549.371V53.6719C18.1237 42.8309 26.6344 33.7182 37.5092 33.0898H37.6668H37.982C38.2972 33.0898 38.6124 33.0898 38.9276 33.0898H246.179C246.494 33.0898 246.81 33.0898 247.125 33.0898H247.282C258.315 33.7182 266.983 42.6738 266.983 53.829V549.371Z" fill="#250F3E"/>
<path d="M212.925 32.9326V35.6036C212.925 44.7163 205.517 52.1007 196.376 52.1007H88.574C79.4329 52.1007 72.0254 44.7163 72.0254 35.6036V32.9326H212.925V32.9326Z" fill="black"/>
<path d="M212.925 32.9326V35.6036C212.925 44.7163 205.517 52.1007 196.376 52.1007H88.574C79.4329 52.1007 72.0254 44.7163 72.0254 35.6036V32.9326H212.925V32.9326Z" fill="#250F3E"/>
<path d="M271.553 550.471V556.127C271.553 561.94 269.977 567.439 267.298 572.153C262.255 576.709 255.793 579.851 248.701 580.323C248.385 580.323 248.07 580.323 247.755 580.323C247.282 580.323 246.652 580.323 246.179 580.323H38.9273C38.4544 580.323 37.824 580.323 37.3512 580.323C37.036 580.323 36.7208 580.323 36.5632 580.323C36.0904 580.323 35.7751 580.323 35.3023 580.166C28.5253 579.38 22.5363 576.395 17.8081 572.153C15.1288 567.439 13.5527 561.94 13.5527 555.97V549.214C13.5527 556.913 17.0201 563.826 22.5363 568.539C26.4764 571.996 31.5198 574.195 37.036 574.51C37.1936 574.51 37.3512 574.51 37.5088 574.51H37.6664H37.824C38.2968 574.51 38.7697 574.51 39.0849 574.51H246.336C246.809 574.51 247.282 574.51 247.597 574.51H247.755H247.912C248.07 574.51 248.385 574.51 248.543 574.51C260.994 573.724 271.081 563.197 271.553 550.471Z" fill="url(#paint5_linear_11333_58758)"/>
<path d="M277.385 53.8286C277.385 37.1743 264.461 23.6624 247.912 22.7197C247.44 22.7197 246.809 22.7197 246.336 22.7197H38.9273C38.4544 22.7197 37.824 22.7197 37.3512 22.7197C36.7208 22.7197 36.0904 22.8768 35.3023 22.8768C28.5253 23.6624 22.5363 26.6476 17.8081 30.8897C15.1288 35.6032 13.5527 41.1022 13.5527 47.0726V53.8286C13.5527 46.1299 17.0201 39.2168 22.5363 34.5034C26.634 31.0468 31.835 28.8472 37.5088 28.533H37.6664H37.824C38.2968 28.533 38.612 28.533 39.0849 28.533H246.336C246.652 28.533 246.967 28.533 247.44 28.533H247.755C260.679 29.1615 271.081 39.6882 271.553 52.7288V47.0726C271.553 41.1022 269.977 35.6032 267.298 30.8897C273.445 36.703 277.385 44.873 277.385 53.8286Z" fill="url(#paint6_linear_11333_58758)"/>
<path d="M17.6493 572.152C11.5026 566.496 7.5625 558.326 7.5625 549.37V53.6713C7.5625 44.7157 11.345 36.5457 17.6493 30.7324C14.97 35.4459 13.3939 40.9449 13.3939 46.9153V555.969C13.3939 561.94 14.97 567.439 17.6493 572.152Z" fill="url(#paint7_linear_11333_58758)"/>
<path d="M277.383 53.8286V549.528C277.383 552.67 276.91 555.655 276.122 558.326C275.492 560.526 274.546 562.725 273.285 564.768C272.97 565.239 272.812 565.554 272.497 566.025C272.182 566.653 271.709 567.282 271.236 567.753C269.976 569.324 268.715 570.895 267.139 572.31C269.818 567.596 271.394 562.097 271.394 556.284V47.2298C271.394 41.2594 269.818 35.7603 267.139 31.0469C273.443 36.703 277.383 44.873 277.383 53.8286Z" fill="url(#paint8_linear_11333_58758)"/>
<path d="M247.598 32.9326H247.441H247.125C246.81 32.9326 246.495 32.9326 246.18 32.9326H216.235C214.501 33.0897 213.083 34.3467 212.925 36.0749C212.925 36.232 212.925 36.232 212.925 36.3892C212.452 45.1876 205.202 52.1007 196.376 52.1007H145.312H139.481H88.5741C79.7482 52.1007 72.4984 45.1876 72.0256 36.3892C72.0256 36.232 72.0256 36.0749 72.0256 36.0749C71.8679 34.3467 70.4495 33.0897 68.7158 32.9326H38.7707C38.4555 32.9326 38.1403 32.9326 37.8251 32.9326H37.5099H37.3523C26.4775 33.7182 17.9668 42.6738 17.9668 53.5147V549.214C17.9668 559.898 26.3199 569.011 37.0371 569.796C37.1947 569.796 37.1947 569.796 37.3523 569.796H37.5099C37.8251 569.796 38.2979 569.796 38.6131 569.796H139.323H145.155H245.865C246.18 569.796 246.653 569.796 246.968 569.796H247.125C247.283 569.796 247.283 569.796 247.441 569.796C258.158 569.011 266.511 559.898 266.511 549.214V53.6719C266.984 42.6738 258.473 33.7182 247.598 32.9326Z" fill="url(#paint9_linear_11333_58758)"/>
<path d="M130.752 88.8546L124.205 99.8307C123.196 101.523 124.407 103.67 126.377 103.681L139.35 103.752C141.32 103.763 142.555 101.627 141.564 99.926L135.138 88.8793C134.164 87.2008 131.745 87.1875 130.752 88.8546Z" fill="#4E55A2"/>
<path d="M146.146 102.489L139.6 91.5128C138.59 89.821 139.802 87.6738 141.772 87.6623L154.745 87.5918C156.715 87.5804 157.949 89.7162 156.959 91.4176L150.532 102.464C149.559 104.143 147.141 104.156 146.146 102.489Z" fill="#EA5045"/>
<path d="M110.782 111.869C110.686 111.919 110.676 112.077 110.774 112.148C113.773 113.98 117.631 114.235 120.857 112.802L120.905 112.777L120.953 112.752C121.001 112.727 121.05 112.702 121.061 112.666C121.169 112.579 121.178 112.422 121.032 112.375C117.791 111.311 114.077 110.218 110.782 111.869Z" fill="#133A1C"/>
<path d="M143.337 66.8513C143.459 66.8494 143.553 66.6782 143.466 66.5705C141.159 63.1886 137.21 61.0565 133.088 60.9999C133.052 60.9883 133.052 60.9883 133.015 60.9768C132.979 60.9653 132.979 60.9653 132.967 61.0018C132.919 61.0268 132.846 61.0037 132.798 61.0287C132.629 61.0556 132.571 61.2383 132.694 61.3576C135.658 64.0626 139.025 67.0158 143.337 66.8513Z" fill="#133A1C"/>
<path d="M110.683 93.1077C110.758 93.252 110.989 93.2847 111.083 93.1136C113.898 88.6575 114.33 82.966 112.315 78.1492C112.327 78.1127 112.29 78.1011 112.302 78.0646C112.313 78.028 112.277 78.0165 112.277 78.0165C112.215 77.9568 112.202 77.8722 112.14 77.8126C112.029 77.6567 111.786 77.6605 111.729 77.8433C110.035 82.6939 108.303 88.1754 110.683 93.1077Z" fill="#603129"/>
<path d="M145.495 76.8178C145.387 76.9043 145.451 77.0851 145.56 77.1198C149.428 77.9804 153.616 76.8118 156.556 74.1234L156.604 74.0984C156.604 74.0984 156.615 74.0618 156.652 74.0734C156.7 74.0484 156.723 73.9753 156.771 73.9503C156.854 73.8157 156.79 73.6348 156.621 73.6617C152.718 73.6744 148.369 73.8274 145.495 76.8178Z" fill="#912B23"/>
<path d="M168.024 97.4825C166.47 97.3129 162.625 95.6156 164.253 93.5174C164.859 92.7443 165.961 92.6907 166.686 93.3218C167.509 94.024 168.024 95.1917 168.295 96.2419C168.68 93.7511 168.883 91.2026 168.843 88.6578C168.835 88.1731 169.611 88.1367 169.618 88.6214C169.635 89.712 169.604 90.8276 169.537 91.9317C169.95 91.2586 170.572 90.6913 171.268 90.2682C172.013 89.8202 173.267 89.4127 173.792 90.4227C174.217 91.2402 173.613 92.1345 172.916 92.5575C171.883 93.1555 170.627 93.4418 169.465 93.557L169.429 93.5455C169.24 95.415 168.93 97.2865 168.547 99.1349C169.12 98.5926 169.718 98.0984 170.428 97.76C171.234 97.3716 172.479 97.1218 173.098 97.9606C173.68 98.7878 173.049 99.5128 172.303 99.8397C171.076 100.416 169.648 100.608 168.302 100.545C168.265 100.533 168.229 100.522 168.229 100.522C167.669 102.676 166.974 104.747 166.085 106.797C165.898 107.261 165.214 106.884 165.4 106.42C166.628 103.553 167.538 100.545 168.108 97.4691C168.06 97.4941 168.024 97.4825 168.024 97.4825Z" fill="#1E512C"/>
<path d="M163.718 88.083C163.005 86.6518 161.63 85.534 160.074 85.2432C160.174 84.672 160.153 84.1026 160.011 83.5352C159.651 82.256 158.738 81.2037 157.47 80.7629C158.101 80.0379 158.181 78.8973 157.731 78.0316C157.342 77.2256 156.594 76.6677 155.788 76.2924C156.498 75.954 157.144 75.4348 157.654 74.7117C158.247 73.854 158.472 72.7596 158.311 71.7439C159.322 72.8675 160.836 73.5468 162.348 73.3413C161.805 74.2952 161.751 75.4839 162.191 76.5073C162.643 77.4941 163.564 78.2675 164.647 78.5293C164.045 79.5448 163.968 80.8066 164.385 81.9031C164.802 82.9995 165.737 83.8576 166.833 84.204C165.448 85.5348 164.494 87.283 164.172 89.191C164.045 88.8294 163.882 88.4562 163.718 88.083Z" fill="#256338"/>
<path d="M159.535 73.9795C161.16 77.8691 162.555 81.8471 163.674 85.9386C163.739 86.2406 163.293 86.3809 163.227 86.0789C162.097 82.024 160.713 78.0094 159.089 74.1198C158.964 73.8793 159.422 73.7025 159.535 73.9795Z" fill="#1E512C"/>
<path d="M167.029 89.0499C167.262 87.6766 166.887 86.1916 165.962 85.1758C166.309 84.8431 166.605 84.4143 166.792 83.9508C167.211 82.8776 167.108 81.6792 166.45 80.7077C167.271 80.5252 167.914 79.7636 168.058 78.925C168.18 78.1595 167.986 77.3747 167.588 76.7264C168.268 76.8612 168.97 76.8017 169.719 76.596C170.575 76.3038 171.292 75.6865 171.704 74.8922C171.81 76.2118 172.544 77.4487 173.706 78.0972C172.852 78.5105 172.161 79.2971 171.982 80.2453C171.766 81.182 172.012 82.1842 172.63 82.9018C171.702 83.292 170.989 84.1517 170.725 85.1134C170.461 86.075 170.672 87.1869 171.267 87.9775C169.597 88.1734 168.033 88.9251 166.827 90.0713C166.894 89.7308 166.998 89.4019 167.029 89.0499Z" fill="#256338"/>
<path d="M171.386 77.042C170.508 80.583 169.436 84.1027 168.12 87.505C168.039 87.7608 167.637 87.6338 167.718 87.378C169.034 83.9757 170.143 80.4675 170.984 76.915C171.065 76.6592 171.467 76.7862 171.386 77.042Z" fill="#1E512C"/>
<path d="M169.073 112.604C167.132 113.277 165.047 113.261 163.122 112.613C164.486 110.712 165.581 108.647 166.504 106.487C166.751 105.962 165.885 105.648 165.675 106.185C164.763 108.308 163.68 110.337 162.327 112.201C161.277 110.945 160.624 109.452 160.416 107.819C160.322 107.226 159.464 107.397 159.522 107.978C159.781 109.829 160.571 111.525 161.781 112.912C161.567 113.207 161.329 113.453 161.115 113.747C159.151 116.02 156.879 117.995 154.755 120.137C154.349 120.532 154.93 121.238 155.336 120.843C157.508 118.676 159.839 116.64 161.863 114.305C162.113 114.022 162.375 113.703 162.589 113.409C164.831 114.198 167.232 114.233 169.486 113.458C170.004 113.22 169.615 112.414 169.073 112.604Z" fill="#1E512C"/>
<path d="M166.756 106.447C168.007 106.561 169.324 105.571 169.377 104.261C169.429 102.951 168.525 101.741 167.19 101.64C165.94 101.527 164.622 102.517 164.57 103.827C164.47 105.162 165.385 106.335 166.756 106.447Z" fill="#D64B34"/>
<path d="M159.2 109.244C160.45 109.358 161.768 108.367 161.82 107.058C161.872 105.748 160.968 104.538 159.634 104.437C158.383 104.324 157.065 105.314 157.013 106.624C156.925 107.922 157.828 109.132 159.2 109.244Z" fill="#D64B34"/>
<path d="M169.032 115.405C170.282 115.518 171.6 114.528 171.652 113.218C171.704 111.908 170.8 110.698 169.466 110.598C168.215 110.484 166.898 111.475 166.845 112.784C166.793 114.094 167.708 115.268 169.032 115.405Z" fill="#D64B34"/>
<path d="M118.161 89.9242C118.123 89.7915 117.94 89.7337 117.832 89.8203C114.631 92.8279 113.03 97.3862 113.656 101.764C113.644 101.801 113.644 101.801 113.669 101.849C113.658 101.885 113.694 101.897 113.694 101.897C113.719 101.945 113.733 102.03 113.758 102.078C113.796 102.21 114.016 102.28 114.098 102.145C116.49 98.5198 119.032 94.4195 118.161 89.9242Z" fill="#133A1C"/>
<path d="M158.782 110.318C158.781 110.196 158.634 110.15 158.527 110.237C155.86 112.569 154.486 116.154 154.905 119.663C154.905 119.663 154.893 119.699 154.93 119.711C154.93 119.711 154.918 119.748 154.955 119.759C154.98 119.807 154.968 119.844 154.993 119.892C155.032 120.025 155.178 120.071 155.26 119.936C157.229 117.142 159.372 113.92 158.782 110.318Z" fill="#912B23"/>
<path d="M135.262 122.419C133.173 122.16 130.953 122.825 129.533 124.266C128.968 123.766 128.331 123.363 127.648 123.108C126.015 122.551 124.213 122.786 122.836 123.837C122.538 122.618 121.336 121.716 120.061 121.554C118.907 121.39 117.737 121.784 116.777 122.405C116.943 121.372 116.841 120.295 116.412 119.235C115.932 117.958 114.934 116.919 113.701 116.369C115.661 116.144 117.496 114.915 118.402 113.192C119.041 114.479 120.316 115.404 121.726 115.649C123.135 115.894 124.644 115.446 125.671 114.484C126.323 115.856 127.648 116.877 129.108 117.218C130.567 117.559 132.21 117.194 133.395 116.242C133.785 118.696 135.021 121.016 136.806 122.746C136.294 122.584 135.76 122.496 135.262 122.419Z" fill="#256338"/>
<path d="M116.989 116.644C122.4 117.711 127.695 119.143 132.886 120.904C133.251 121.02 133.103 121.616 132.738 121.5C127.547 119.739 122.204 118.332 116.841 117.241C116.416 117.187 116.564 116.59 116.989 116.644Z" fill="#1E512C"/>
<path d="M116.361 105.794C118.166 104.918 122.035 101.196 119.146 99.3993C118.069 98.7374 116.73 99.1584 116.116 100.21C115.42 101.397 115.348 103.022 115.431 104.415C113.835 101.579 112.516 98.6305 111.437 95.5566C111.222 94.966 110.318 95.2832 110.497 95.8622C110.966 97.176 111.471 98.5014 112.025 99.8018C111.227 99.1476 110.215 98.7877 109.231 98.5971C108.136 98.3718 106.465 98.4465 106.257 99.8679C106.081 101.058 107.197 101.853 108.23 102.019C109.749 102.298 111.346 102.079 112.794 101.693C112.831 101.704 112.842 101.668 112.879 101.679C113.919 103.857 115.103 105.959 116.432 107.987C115.517 107.577 114.578 107.24 113.559 107.159C112.418 107.08 110.833 107.263 110.454 108.59C110.109 109.807 111.198 110.433 112.254 110.525C113.977 110.668 115.741 110.301 117.367 109.609C117.415 109.584 117.451 109.595 117.463 109.559C119.063 111.873 120.855 114.087 122.778 116.142C123.197 116.596 123.865 115.883 123.409 115.417C120.672 112.502 118.271 109.292 116.217 105.869C116.313 105.819 116.35 105.831 116.361 105.794Z" fill="#1E512C"/>
<path d="M114.09 93.9033C115.575 94.2921 117.366 93.3308 117.668 91.7382C118.007 90.1572 117.146 88.5586 115.503 88.1601C114.018 87.7712 112.227 88.7326 111.925 90.3252C111.634 91.8812 112.495 93.4798 114.09 93.9033Z" fill="#D64B34"/>
<path d="M109.475 97.0661C110.594 97.3395 111.868 96.6165 112.105 95.4856C112.353 94.3181 111.717 93.1523 110.524 92.8559C109.405 92.5825 108.131 93.3055 107.894 94.4364C107.658 95.5674 108.283 96.7697 109.475 97.0661Z" fill="#D64B34"/>
<path d="M171.232 89.493C172.48 89.4855 173.639 88.3644 173.57 87.0564C173.489 85.785 172.466 84.698 171.133 84.7189C169.885 84.7263 168.727 85.8475 168.795 87.1554C168.876 88.4269 169.899 89.5139 171.232 89.493Z" fill="#D64B34"/>
<path d="M165.22 91.9749C166.469 91.9675 167.627 90.8463 167.558 89.5384C167.477 88.2669 166.454 87.18 165.121 87.2008C163.873 87.2083 162.715 88.3294 162.784 89.6374C162.901 90.9204 163.887 91.9958 165.22 91.9749Z" fill="#D64B34"/>
<path d="M122.622 118.665C123.674 119.279 125.195 118.916 125.748 117.804C126.336 116.704 126.012 115.315 124.887 114.679C123.835 114.065 122.313 114.428 121.761 115.54C121.208 116.651 121.497 118.029 122.622 118.665Z" fill="#D64B34"/>
<path d="M119.983 113.41C120.802 113.87 122.046 113.621 122.493 112.717C122.939 111.813 122.716 110.737 121.799 110.206C120.98 109.746 119.735 109.996 119.289 110.9C118.842 111.804 119.102 112.891 119.983 113.41Z" fill="#D64B34"/>
<path d="M168.837 116.147C168.945 116.061 168.881 115.88 168.76 115.882C164.881 115.058 160.682 116.263 157.815 118.974L157.767 118.999L157.755 119.036C157.744 119.073 157.684 119.134 157.673 119.171C157.59 119.305 157.653 119.486 157.823 119.459C161.627 119.375 165.963 119.138 168.837 116.147Z" fill="#603129"/>
<path d="M163.012 77.2097C163.099 77.3175 163.28 77.254 163.314 77.1444C164.404 73.188 163.462 68.7908 160.843 65.6319L160.818 65.5838C160.818 65.5838 160.782 65.5723 160.793 65.5357C160.768 65.4876 160.695 65.4645 160.67 65.4164C160.547 65.2972 160.366 65.3606 160.357 65.5183C160.165 69.5576 160.103 74.0796 163.012 77.2097Z" fill="#133A1C"/>
<path d="M152.464 73.7148C151.989 73.5647 151.466 73.4396 150.956 73.3991C150.726 73.3663 150.483 73.3701 150.229 73.4104C150.108 73.4123 150.012 73.4623 149.891 73.4642C149.843 73.4892 149.795 73.5142 149.71 73.5277C149.662 73.5527 149.589 73.5296 149.529 73.5911C149.396 73.6296 149.289 73.7161 149.181 73.8026C148.965 73.9757 148.75 74.1488 148.596 74.3815C148.525 74.4795 148.442 74.6142 148.407 74.7238C148.373 74.8334 148.327 74.9796 148.292 75.0892C148.315 75.0161 148.229 74.9084 148.215 74.8238C148.202 74.7391 148.152 74.643 148.09 74.5833C147.84 74.1024 147.542 73.6465 147.136 73.2771C146.731 72.9077 146.242 72.6729 145.682 72.5362C144.186 72.1839 142.922 72.7492 142.004 73.7453C141.979 73.6972 141.954 73.6492 141.918 73.6376C141.572 73.2067 141.408 72.8335 140.954 72.4891C140.133 71.908 139.052 71.7674 138.137 72.1211C137.891 71.1189 137.318 70.134 136.689 69.453C136.295 69.047 135.827 68.618 135.314 68.3351C136.201 68.4546 137.157 68.3548 137.964 68.0876C138.857 67.8069 139.759 67.3686 140.488 66.7147C140.955 67.9074 141.952 68.8251 143.369 68.7908C144.581 68.7718 145.493 68.1757 146.243 67.3276C146.753 68.1317 147.439 68.63 148.266 68.811C149.157 69.1728 150.128 69.2788 151.117 68.9482C151.047 70.6947 152.045 72.4972 153.339 73.8708C153.012 73.8881 152.757 73.8072 152.464 73.7148Z" fill="#256338"/>
<path d="M155.612 72.5381C155.38 72.3842 155.147 72.2302 154.903 72.1128C154.793 72.0782 154.658 71.9955 154.537 71.9974C154.464 71.9743 154.428 71.9627 154.354 71.9396C154.281 71.9165 154.245 71.905 154.172 71.8819C154.014 71.8722 153.856 71.8626 153.687 71.8895C153.36 71.9067 153.046 72.0086 152.769 72.122C152.625 72.197 152.481 72.272 152.373 72.3585C152.265 72.4451 152.146 72.5681 152.038 72.6547C152.098 72.5931 152.108 72.4354 152.094 72.3508C152.129 72.2411 152.116 72.1565 152.15 72.0469C152.225 71.4275 152.143 70.7985 151.964 70.2195C151.749 69.629 151.437 69.0884 150.97 68.6594C149.703 67.455 148.112 67.2739 146.615 67.6852C146.59 67.6371 146.613 67.564 146.588 67.5159C146.506 66.8869 146.571 66.4253 146.283 65.8117C145.831 64.8248 144.935 64.0995 143.889 63.8492C144.395 62.8838 144.62 61.7893 144.397 60.7141C144.24 59.9408 143.888 59.1463 143.309 58.5615C144.057 59.1195 144.984 59.4928 145.836 59.7219C146.846 59.9606 148.06 60.0628 149.123 59.8764C148.904 61.3344 149.327 62.7944 150.709 63.6333C151.896 64.3299 153.156 64.2859 154.373 63.8668C154.402 64.9209 154.829 65.8596 155.469 66.5041C156.002 67.2351 156.714 67.7816 157.604 68.1434C156.792 68.9318 156.24 70.0435 156.197 71.1956C156.197 71.9592 156.357 72.8537 156.757 73.6232C156.435 73.2403 156.03 72.8709 155.612 72.5381Z" fill="#256338"/>
<path d="M138.16 68.7507C140.443 69.03 142.645 69.5652 144.872 70.1485C146.953 70.6856 149.046 71.1861 150.929 72.2233C151.173 72.3407 150.973 72.7195 150.74 72.5656C148.773 71.5419 146.644 71.0298 144.526 70.4812C142.408 69.9326 140.231 69.4455 138.069 69.1642C137.802 69.1199 137.881 68.7429 138.16 68.7507Z" fill="#1E512C"/>
<path d="M145.639 60.4645C147.55 61.7921 149.177 63.512 150.743 65.1723C152.431 66.9519 154 68.8545 155.462 70.8437C155.635 71.0592 155.286 71.2707 155.15 71.0668C153.738 69.1738 152.231 67.3308 150.604 65.6109C149.014 63.9025 147.325 62.1229 145.414 60.7953C145.181 60.6414 145.442 60.3222 145.639 60.4645Z" fill="#1E512C"/>
<path d="M154.22 71.9775C154.612 73.0259 154.064 74.3799 152.942 74.749C151.821 75.118 150.576 74.6042 150.171 73.4712C149.779 72.4228 150.327 71.0688 151.449 70.6997C152.559 70.3672 153.778 70.8329 154.22 71.9775Z" fill="#D64B34"/>
<path d="M159.079 73.2714C159.472 74.3198 158.923 75.6738 157.802 76.0429C156.68 76.412 155.436 75.8981 155.03 74.7651C154.638 73.7168 155.187 72.3628 156.308 71.9937C157.418 71.6612 158.674 72.1384 159.079 73.2714Z" fill="#D64B34"/>
<path d="M145.126 124.409C146.882 124.321 148.674 125.008 149.822 126.335C150.301 125.964 150.842 125.653 151.458 125.486C152.858 125.124 154.329 125.429 155.435 126.381C155.747 125.394 156.766 124.712 157.832 124.646C158.813 124.595 159.74 124.968 160.55 125.586C160.463 124.714 160.619 123.839 160.981 122.949C161.462 121.935 162.322 121.122 163.371 120.729C161.741 120.416 160.293 119.275 159.603 117.77C159.001 118.786 157.897 119.482 156.735 119.597C155.573 119.712 154.317 119.235 153.504 118.375C152.878 119.464 151.751 120.233 150.518 120.446C149.26 120.611 147.933 120.232 147.01 119.337C146.569 121.368 145.422 123.217 143.843 124.526C144.254 124.495 144.714 124.44 145.126 124.409Z" fill="#256338"/>
<path d="M160.669 120.76C156.12 121.292 151.625 122.162 147.206 123.298C146.893 123.4 146.985 123.871 147.324 123.817C151.742 122.681 156.237 121.811 160.787 121.279C161.077 121.25 160.96 120.731 160.669 120.76Z" fill="#1E512C"/>
<path d="M145.396 124.053C146.535 123.248 147.997 122.946 149.276 123.35C149.426 122.875 149.674 122.471 149.996 122.09C150.783 121.254 151.879 120.837 152.997 120.989C152.803 120.204 153.212 119.289 153.884 118.817C154.507 118.371 155.28 118.214 156.057 118.299C155.673 117.735 155.384 117.121 155.263 116.36C155.141 115.477 155.393 114.552 155.928 113.876C154.735 114.344 153.29 114.209 152.237 113.474C152.263 114.407 151.805 115.347 151.099 115.928C150.357 116.497 149.366 116.706 148.466 116.502C148.518 117.483 148.073 118.508 147.344 119.162C146.615 119.816 145.553 120.124 144.568 119.933C145.089 121.464 145.104 123.197 144.619 124.732C144.858 124.486 145.121 124.288 145.396 124.053Z" fill="#1E512C"/>
<path d="M154.153 115.044C151.377 117.342 148.749 119.807 146.306 122.451C146.127 122.636 146.398 122.923 146.577 122.738C149.02 120.094 151.648 117.628 154.424 115.33C154.628 115.194 154.32 114.896 154.153 115.044Z" fill="#133A1C"/>
<path d="M149.115 129.208C147.65 127.74 146.136 126.297 144.611 124.891C146.192 125.229 147.794 125.374 149.268 125.036C151.297 124.592 152.332 122.588 151.454 120.662C150.487 118.508 147.688 117.824 145.547 118.112C143.528 118.399 141.823 119.468 140.6 121.05C139.046 119.354 137.005 118.307 134.741 117.712C132.587 117.152 129.871 117.861 129.084 120.225C128.378 122.333 130.645 123.934 132.351 124.513C133.582 124.942 134.782 124.96 136.004 124.783C134.557 126.054 133.135 127.373 131.738 128.741C130.676 129.812 132.398 131.36 133.448 130.326C135.657 128.17 137.915 126.111 140.297 124.17C142.828 126.337 145.262 128.553 147.566 130.929C148.601 131.979 150.15 130.258 149.115 129.208ZM148.547 120.829C148.794 121.068 149.051 121.27 149.297 121.508C149.445 122.439 149.149 122.868 148.397 122.831C147.854 123.022 146.87 122.831 146.323 122.779C145.121 122.64 143.954 122.392 142.796 121.986C144.264 120.52 146.724 119.73 148.547 120.829ZM131.609 120.5C132.658 118.581 136.043 120.334 137.945 121.819C136.874 122.285 135.727 122.606 134.527 122.588C133.617 122.542 130.809 122.016 131.609 120.5Z" fill="white"/>
<path d="M123.454 72.7868C123.146 73.2522 122.838 73.7176 122.64 74.2177C122.523 74.4619 122.442 74.7177 122.409 74.9485C122.375 75.0582 122.376 75.1794 122.367 75.3371C122.344 75.4102 122.369 75.4583 122.346 75.5313C122.359 75.616 122.348 75.6525 122.324 75.7256C122.351 75.8949 122.39 76.0276 122.428 76.1603C122.505 76.4258 122.655 76.7143 122.828 76.9298C122.915 77.0375 123.001 77.1453 123.124 77.2646C123.211 77.3723 123.357 77.4185 123.48 77.5378C123.407 77.5147 123.274 77.5531 123.201 77.53C123.117 77.5435 122.995 77.5454 122.911 77.5588C122.33 77.6164 121.787 77.8067 121.283 78.1297C120.791 78.4162 120.373 78.847 120.054 79.349C119.204 80.7683 119.384 82.2321 120.07 83.494C120.022 83.519 119.974 83.544 119.938 83.5325C119.395 83.7228 118.936 83.7785 118.456 84.1496C117.606 84.8053 117.114 85.8554 117.179 86.9211C116.075 86.8535 114.903 87.1264 113.976 87.5167C113.41 87.7801 112.858 88.1281 112.404 88.5473C112.839 87.6799 113.041 86.6586 113.04 85.7738C113.036 84.7678 112.898 83.6791 112.471 82.7404C113.827 82.6464 115.089 81.96 115.551 80.4983C115.944 79.2558 115.623 78.1093 115.013 77.1128C115.979 76.8553 116.721 76.2861 117.195 75.5514C117.837 74.7899 118.27 73.8013 118.265 72.6741C120.032 73.3131 122.171 72.9039 124.012 72.0387C123.822 72.2598 123.656 72.5291 123.454 72.7868Z" fill="#1E512C"/>
<path d="M113.755 85.7991C114.774 83.5892 116.075 81.5083 117.376 79.4274C118.594 77.4811 119.823 75.4982 121.459 73.8848C121.638 73.7002 121.945 73.9984 121.766 74.183C120.083 75.8214 118.842 77.8408 117.601 79.8602C116.36 81.8796 115.13 83.8624 114.122 86.0357C114.004 86.28 113.637 86.0433 113.755 85.7991Z" fill="#0E3317"/>
<path d="M132.419 71.7612C132.049 72.167 131.742 72.6324 131.47 73.1094C131.353 73.3536 131.235 73.5979 131.166 73.8171C131.131 73.9268 131.085 74.0729 131.087 74.1941C131.064 74.2672 131.089 74.3153 131.066 74.3884C131.043 74.4615 131.031 74.498 131.045 74.5827C131.035 74.7404 131.074 74.8731 131.1 75.0424C131.166 75.3444 131.279 75.6214 131.404 75.8618C131.491 75.9696 131.566 76.1138 131.652 76.2216C131.739 76.3293 131.873 76.412 131.96 76.5198C131.887 76.4967 131.766 76.4986 131.681 76.512C131.596 76.5255 131.487 76.4908 131.402 76.5043C130.833 76.5253 130.229 76.656 129.711 76.8944C129.194 77.1328 128.715 77.5039 128.359 77.9943C127.374 79.3309 127.397 80.7851 127.975 82.1336C127.927 82.1586 127.891 82.147 127.806 82.1605C127.239 82.3027 126.79 82.3218 126.25 82.6333C125.338 83.2294 124.759 84.1718 124.655 85.2643C123.549 85.0755 122.375 85.2273 121.435 85.5329C120.856 85.7116 120.279 86.0116 119.752 86.4077C120.248 85.6 120.56 84.6133 120.643 83.715C120.749 82.7437 120.707 81.605 120.413 80.6278C121.77 80.655 123.107 80.1129 123.716 78.6974C124.206 77.5261 124.018 76.3412 123.516 75.2581C124.484 75.1218 125.324 74.6238 125.859 73.9487C126.6 73.2584 127.094 72.3294 127.247 71.2119C128.956 72.0336 131.111 71.8302 133.015 71.1458C132.811 71.2823 132.621 71.5035 132.419 71.7612Z" fill="#256338"/>
<path d="M134.373 67.3561C134.121 67.5176 133.869 67.6791 133.642 67.8887C133.535 67.9753 133.415 68.0984 133.344 68.1964C133.285 68.258 133.273 68.2945 133.213 68.3561C133.154 68.4176 133.106 68.4426 133.083 68.5157C133 68.6503 132.906 68.8215 132.848 69.0042C132.744 69.3331 132.676 69.6735 132.694 70.0005C132.684 70.1582 132.711 70.3275 132.738 70.4968C132.765 70.6661 132.84 70.8103 132.867 70.9796C132.817 70.8834 132.67 70.8372 132.609 70.7776C132.511 70.7064 132.401 70.6717 132.34 70.6121C131.765 70.2696 131.107 70.0617 130.439 70.0116C129.772 69.9614 129.106 70.0325 128.456 70.3093C126.698 71.0399 125.873 72.5073 125.632 74.1595C125.559 74.1364 125.522 74.1249 125.449 74.1018C124.828 73.9054 124.351 73.6341 123.66 73.6571C122.485 73.6876 121.391 74.2259 120.702 75.1337C119.984 74.2237 118.992 73.5484 117.873 73.275C117.046 73.094 116.113 73.1208 115.293 73.4245C116.171 72.938 116.934 72.1746 117.492 71.4265C118.181 70.5187 118.77 69.4186 119.055 68.2627C120.401 69.0901 122.017 69.3193 123.419 68.3155C124.618 67.4483 125.106 66.1558 125.243 64.8325C126.316 65.2521 127.396 65.2715 128.323 64.8812C129.277 64.6602 130.106 64.1988 130.847 63.5084C131.289 64.653 132.104 65.6341 133.252 66.1979C133.985 66.5501 134.97 66.7407 135.878 66.6659C135.432 66.8062 134.877 67.0331 134.373 67.3561Z" fill="#256338"/>
<path d="M121.371 83.705C122.635 81.6126 124.132 79.674 125.629 77.7355C127.043 75.9316 128.469 74.0911 130.289 72.6566C130.504 72.4835 130.8 72.8182 130.548 72.9798C128.68 74.4393 127.243 76.3163 125.806 78.1933C124.368 80.0703 122.931 81.9473 121.727 83.9782C121.584 84.1744 121.217 83.9377 121.371 83.705Z" fill="#1E512C"/>
<path d="M116.471 72.7514C118.571 71.4458 120.97 70.5961 123.273 69.7964C125.756 68.9333 128.278 68.2029 130.875 67.6168C131.14 67.5399 131.244 67.9747 130.978 68.0515C128.503 68.6358 126.041 69.3046 123.642 70.1543C121.291 70.979 118.808 71.8421 116.659 73.1727C116.467 73.2727 116.267 72.8879 116.471 72.7514Z" fill="#1E512C"/>
<path d="M132.078 68.5186C133.303 68.5843 134.388 69.7309 134.237 70.9696C134.124 72.2198 133.085 73.2179 131.786 73.1291C130.561 73.0635 129.477 71.9168 129.627 70.6782C129.741 69.4279 130.78 68.4299 132.078 68.5186Z" fill="#D64B34"/>
<path d="M136.264 64.1747C137.489 64.2404 138.574 65.387 138.423 66.6257C138.31 67.8759 137.271 68.874 135.972 68.7852C134.747 68.7196 133.663 67.5729 133.813 66.3343C133.952 65.1321 134.954 64.1225 136.264 64.1747Z" fill="#D64B34"/>
</g>
<path d="M213.566 22.1862C196.071 22.1862 196.8 14.2004 199.352 10.2075C201.174 0.225183 213.93 -4.56597 275.161 5.81516C292.291 8.7194 291.198 22.1862 290.833 34.165C290.469 46.1438 275.161 45.7445 275.161 34.165C275.161 24.9014 270.058 22.3193 267.507 22.1862H213.566Z" fill="white"/>
<defs>
<linearGradient id="paint0_linear_11333_58758" x1="1.16852" y1="301.435" x2="5.34223" y2="301.435" gradientUnits="userSpaceOnUse">
<stop stop-color="#666666"/>
<stop offset="1"/>
</linearGradient>
<linearGradient id="paint1_linear_11333_58758" x1="280.313" y1="301.464" x2="284.451" y2="301.464" gradientUnits="userSpaceOnUse">
<stop offset="1" stop-color="#666666"/>
</linearGradient>
<linearGradient id="paint2_linear_11333_58758" x1="142.495" y1="586.909" x2="142.495" y2="553.965" gradientUnits="userSpaceOnUse">
<stop stop-color="#959595"/>
<stop offset="1"/>
</linearGradient>
<linearGradient id="paint3_linear_11333_58758" x1="142.495" y1="47.5514" x2="142.495" y2="6.41813" gradientUnits="userSpaceOnUse">
<stop stop-color="#250F3E"/>
<stop offset="1" stop-color="#808080"/>
</linearGradient>
<linearGradient id="paint4_linear_11333_58758" x1="267.295" y1="301.65" x2="277.343" y2="301.65" gradientUnits="userSpaceOnUse">
<stop stop-color="#F0F0F0"/>
<stop offset="0.00564521" stop-color="#EDEDED"/>
<stop offset="0.142" stop-color="#B4B4B4"/>
<stop offset="0.2742" stop-color="#858585"/>
<stop offset="0.399" stop-color="#606060"/>
<stop offset="0.5146" stop-color="#464646"/>
<stop offset="0.6177" stop-color="#363636"/>
<stop offset="0.6978" stop-color="#303030"/>
</linearGradient>
<linearGradient id="paint5_linear_11333_58758" x1="13.4093" y1="565.059" x2="271.588" y2="565.059" gradientUnits="userSpaceOnUse">
<stop stop-color="#131313"/>
<stop offset="0.0166414" stop-color="#1A1A1A"/>
<stop offset="0.1304" stop-color="#454545"/>
<stop offset="0.2407" stop-color="#666666"/>
<stop offset="0.3454" stop-color="#7E7E7E"/>
<stop offset="0.442" stop-color="#8D8D8D"/>
<stop offset="0.5229" stop-color="#929292"/>
<stop offset="0.5899" stop-color="#8B8B8B"/>
<stop offset="0.6907" stop-color="#767676"/>
<stop offset="0.813" stop-color="#545454"/>
<stop offset="0.9509" stop-color="#252525"/>
<stop offset="1" stop-color="#131313"/>
</linearGradient>
<linearGradient id="paint6_linear_11333_58758" x1="13.4093" y1="38.2729" x2="277.364" y2="38.2729" gradientUnits="userSpaceOnUse">
<stop stop-color="#250F3E"/>
<stop offset="0.0166414" stop-color="#1A1A1A"/>
<stop offset="0.1304" stop-color="#250F3E"/>
<stop offset="0.2407" stop-color="#666666"/>
<stop offset="0.3454" stop-color="#7E7E7E"/>
<stop offset="0.442" stop-color="#8D8D8D"/>
<stop offset="0.5229" stop-color="#929292"/>
<stop offset="0.5899" stop-color="#8B8B8B"/>
<stop offset="0.6907" stop-color="#767676"/>
<stop offset="0.813" stop-color="#545454"/>
<stop offset="0.9509" stop-color="#250F3E"/>
<stop offset="1" stop-color="#250F3E"/>
</linearGradient>
<linearGradient id="paint7_linear_11333_58758" x1="7.63988" y1="301.478" x2="13.601" y2="301.478" gradientUnits="userSpaceOnUse">
<stop stop-color="#B4A2C9"/>
<stop offset="0.2305" stop-color="#79658F"/>
<stop offset="0.597" stop-color="#4E336D"/>
<stop offset="0.8634" stop-color="#30154F"/>
<stop offset="1" stop-color="#250F3E"/>
</linearGradient>
<linearGradient id="paint8_linear_11333_58758" x1="267.264" y1="301.679" x2="277.34" y2="301.679" gradientUnits="userSpaceOnUse">
<stop stop-color="#250F3E"/>
<stop offset="0.1366" stop-color="#331456"/>
<stop offset="0.403" stop-color="#6C4F8D"/>
<stop offset="0.7695" stop-color="#573D74"/>
<stop offset="1" stop-color="#57288D"/>
</linearGradient>
<linearGradient id="paint9_linear_11333_58758" x1="-48.339" y1="111.224" x2="332.126" y2="492.877" gradientUnits="userSpaceOnUse">
<stop stop-color="#4E0387"/>
<stop offset="1" stop-color="#25044A"/>
</linearGradient>
<clipPath id="clip0_11333_58758">
<rect width="287" height="573" fill="white" transform="translate(0 15.0215)"/>
</clipPath>
</defs>
</svg>
