<svg width="285" height="573" viewBox="0 0 285 573" fill="none" xmlns="http://www.w3.org/2000/svg">
<path d="M246.183 0H38.7736C17.4968 0 0.160156 17.2827 0.160156 38.6504V534.35C0.160156 555.717 17.4968 573 38.9312 573H246.183C267.617 573 284.954 555.717 284.954 534.35V38.6504C284.954 17.2827 267.617 0 246.183 0ZM283.85 530.736C283.85 534.821 283.22 538.592 281.959 542.205C281.802 542.52 281.802 542.834 281.644 542.991C281.486 543.305 281.486 543.619 281.329 543.777C281.329 543.934 281.171 544.248 281.014 544.405C280.698 545.033 280.541 545.662 280.225 546.133C280.068 546.448 279.91 546.605 279.91 546.919C279.753 547.233 279.595 547.704 279.28 548.019C279.122 548.333 278.965 548.49 278.965 548.804C278.807 549.118 278.649 549.276 278.492 549.59C278.019 550.218 277.704 551.004 277.231 551.632C277.073 551.789 276.916 552.104 276.758 552.261C276.601 552.575 276.443 552.732 276.285 552.889C276.128 553.046 275.97 553.361 275.813 553.518C275.655 553.675 275.497 553.989 275.34 554.146C275.182 554.303 275.025 554.617 274.709 554.775C274.394 555.246 273.921 555.717 273.606 556.031C272.976 556.66 272.345 557.288 271.715 557.917C271.557 558.074 271.4 558.231 271.084 558.388C270.612 558.86 270.139 559.174 269.666 559.488C269.508 559.645 269.193 559.802 269.035 559.959C268.405 560.431 267.617 561.059 266.987 561.531C266.671 561.688 266.514 561.845 266.199 562.002C265.726 562.316 265.253 562.63 264.78 562.945C264.465 563.102 264.307 563.259 263.992 563.416C263.204 563.887 262.416 564.202 261.47 564.673C261.313 564.83 260.998 564.83 260.84 564.987C260.525 565.144 260.367 565.144 260.052 565.301C259.737 565.458 259.579 565.458 259.264 565.616C258.634 565.773 258.003 566.087 257.373 566.244C257.215 566.244 256.9 566.401 256.742 566.401C255.954 566.715 255.009 566.872 254.221 567.03C253.905 567.03 253.59 567.187 253.275 567.187C252.96 567.187 252.645 567.344 252.329 567.344C251.699 567.501 251.226 567.501 250.596 567.658C250.438 567.658 250.438 567.658 250.28 567.658C250.123 567.658 250.123 567.658 249.965 567.658C249.965 567.658 249.965 567.658 249.808 567.658C250.28 567.658 250.911 567.501 251.384 567.501C251.699 567.501 251.856 567.344 252.172 567.344C252.487 567.344 252.644 567.187 252.96 567.187C253.748 567.03 254.536 566.872 255.324 566.558C255.639 566.558 255.797 566.401 256.112 566.401C256.585 566.244 257.057 566.087 257.53 565.93C258.318 565.616 258.949 565.301 259.737 565.144C260.052 564.987 260.21 564.987 260.367 564.83C260.525 564.673 260.84 564.673 260.998 564.516C261.47 564.359 261.943 564.044 262.416 563.73C262.889 563.416 263.362 563.259 263.677 562.945C264.15 562.63 264.465 562.473 264.78 562.159C264.78 562.159 264.938 562.159 264.938 562.002C265.568 561.531 266.199 561.059 266.829 560.588C266.987 560.431 267.302 560.274 267.459 560.117C268.09 559.645 268.563 559.174 269.035 558.703C270.296 557.446 271.557 556.189 272.66 554.775C272.818 554.617 272.976 554.303 273.133 554.146C274.709 552.104 276.128 549.747 277.231 547.233C277.389 546.919 277.546 546.448 277.704 545.976C278.492 544.091 279.122 542.048 279.437 540.006C279.595 539.534 279.595 539.22 279.595 538.749C279.91 537.021 279.91 535.292 279.91 533.564V38.6504C279.91 21.2106 266.514 6.59885 249.492 4.87058C249.177 4.87058 248.862 4.87058 248.547 4.71346C248.232 4.71346 247.916 4.71346 247.601 4.71346C246.971 4.71346 246.498 4.71346 245.867 4.71346H38.7736C38.1431 4.71346 37.6703 4.71346 37.0399 4.71346C19.0728 5.65616 4.73072 20.425 4.73072 38.6504V534.35C4.73072 551.789 17.9696 566.244 34.991 568.129C34.8334 568.129 34.5182 568.129 34.3606 568.129C33.7302 568.129 33.0998 567.972 32.6269 567.815C29.002 567.187 25.6923 566.087 22.5402 564.673C22.3826 564.516 22.0673 564.516 21.9097 564.359C21.2793 564.044 20.8065 563.73 20.1761 563.416C19.8609 563.259 19.7033 563.102 19.3881 562.945C18.1272 562.159 17.024 561.373 15.7631 560.431C15.6055 560.274 15.2903 560.117 15.1327 559.959C14.5023 559.488 13.8719 559.017 13.399 558.388C13.2414 558.231 13.0838 558.074 12.7686 557.917C12.611 557.76 12.2958 557.446 12.1382 557.288C11.9806 557.131 11.6654 556.817 11.5078 556.66C11.3502 556.503 11.1926 556.346 11.035 556.189C10.8773 556.032 10.7197 555.874 10.5621 555.717C9.6165 554.617 8.67087 553.518 7.88284 552.418C7.72523 552.261 7.56762 551.947 7.41002 551.789C6.9372 551.161 6.46439 550.532 6.14917 549.747C5.99157 549.433 5.83396 549.276 5.67636 548.961C4.57312 547.076 3.78509 545.191 2.99706 543.148C2.83945 542.834 2.83945 542.52 2.68185 542.362C2.20903 540.948 1.89382 539.534 1.57861 538.12C1.57861 537.806 1.421 537.492 1.421 537.178C1.10579 535.135 0.948185 532.936 0.948185 530.893V38.6504C0.948185 38.3362 0.948185 37.8648 0.948185 37.5506C0.948185 37.2364 0.948185 36.9221 0.948185 36.765C0.948185 36.1366 0.948185 35.5081 1.10579 35.0367C1.10579 34.7225 1.10579 34.4083 1.2634 34.0941C1.2634 33.9369 1.2634 33.7798 1.2634 33.6227C1.2634 33.4656 1.2634 33.3085 1.421 32.9942C1.421 32.68 1.57861 32.3658 1.57861 32.0515C1.73621 31.5802 1.73621 30.9517 1.89382 30.4804C1.89382 30.1662 2.05142 30.009 2.05142 29.6948C2.20903 28.9092 2.52424 28.1237 2.68185 27.3381C2.99706 27.0239 3.15466 26.8667 3.15466 26.5525C3.31227 26.2383 3.31227 25.924 3.46988 25.6098C3.62748 25.2956 3.62748 25.1385 3.78509 24.8242C3.94269 24.6671 3.94269 24.3529 4.1003 24.1958C4.2579 23.8815 4.2579 23.7244 4.41551 23.5673C4.57312 23.4102 4.57312 23.2531 4.73072 23.096C4.88833 22.7817 4.88833 22.6246 5.04593 22.3104C5.20354 21.839 5.51875 21.3677 5.67636 21.0535C5.83396 20.8964 5.99157 20.5821 5.99157 20.425C6.14917 20.1108 6.30678 19.9537 6.46438 19.6394C7.56762 17.9112 8.67087 16.1829 9.93171 14.6117C10.0893 14.4546 10.2469 14.1404 10.4045 13.9833C10.5621 13.669 10.8773 13.5119 11.035 13.1977C11.3502 12.7263 11.823 12.4121 12.1382 12.0979C12.611 11.6265 13.0838 11.3123 13.5566 10.841C14.0295 10.5267 14.5023 10.0554 14.8175 9.74116C14.9751 9.58404 15.2903 9.42693 15.4479 9.1127C15.9207 8.79846 16.3935 8.32712 16.8664 8.01289C17.3392 7.69866 17.812 7.38443 18.2848 7.07019C18.7576 6.75596 19.2304 6.44173 19.8609 6.1275C20.1761 5.97039 20.3337 5.81327 20.6489 5.65616C20.9641 5.49904 21.1217 5.34192 21.4369 5.18481C21.7521 5.02769 21.9097 4.87058 22.225 4.71346C22.5402 4.55635 22.6978 4.39923 23.013 4.39923C23.4858 4.085 24.1162 3.92789 24.589 3.77077C24.9043 3.61366 25.0619 3.61366 25.3771 3.45654C25.6923 3.29942 25.8499 3.29942 26.1651 3.14231C26.4803 2.98519 26.6379 2.98519 26.9531 2.82808C27.2683 2.67096 27.5835 2.67096 27.8988 2.51385C28.214 2.35673 28.5292 2.35673 28.6868 2.19962C29.002 2.0425 29.3172 2.0425 29.6324 2.0425C29.9476 2.0425 30.2628 1.88539 30.5781 1.88539C31.2085 1.72827 31.8389 1.57115 32.3117 1.57115C32.7845 1.57115 33.0998 1.57115 33.415 1.41404C34.0454 1.25692 34.6758 1.25692 35.3062 1.25692C35.779 1.25692 36.4095 1.09981 36.8823 1.09981C37.1975 1.09981 37.5127 1.09981 37.8279 1.09981C38.1431 1.09981 38.4583 1.09981 38.7736 1.09981H246.025C246.34 1.09981 246.655 1.09981 246.971 1.09981C247.286 1.09981 247.443 1.09981 247.759 1.09981C248.389 1.09981 249.02 1.09981 249.65 1.25692C249.965 1.25692 250.28 1.25692 250.596 1.41404C250.911 1.41404 251.226 1.57115 251.541 1.57115C251.856 1.57115 252.172 1.72827 252.487 1.72827C252.802 1.72827 253.117 1.88539 253.433 1.88539C253.748 1.88539 254.063 2.0425 254.378 2.0425C254.693 2.0425 254.851 2.19962 255.166 2.19962H255.324C255.639 2.19962 255.797 2.35673 256.112 2.35673C256.427 2.51385 256.742 2.51385 257.215 2.67096C257.53 2.67096 257.688 2.82808 257.845 2.82808C258.318 2.98519 258.949 3.14231 259.422 3.29942C259.737 3.45654 260.052 3.61366 260.525 3.77077C260.84 3.92789 260.998 3.92789 261.313 4.085C261.628 4.24212 261.786 4.39923 262.101 4.39923C262.416 4.55635 262.574 4.71346 262.889 4.71346C264.78 5.65616 266.514 6.75596 268.247 8.01289C268.405 8.17 268.72 8.32712 268.878 8.48423C269.666 9.1127 270.296 9.58404 271.084 10.2125C271.4 10.5267 271.715 10.6838 272.03 10.9981C273.291 12.0979 274.394 13.3548 275.497 14.6117C275.655 14.7689 275.813 15.0831 276.128 15.2402C276.443 15.7115 276.916 16.1829 277.231 16.6542C277.389 16.9685 277.546 17.1256 277.704 17.4398C278.019 17.9112 278.334 18.2254 278.492 18.6967C278.649 18.8539 278.807 19.1681 278.965 19.3252C279.28 19.7965 279.437 20.1108 279.753 20.5821C279.91 20.7392 279.91 21.0535 280.068 21.2106C280.383 21.9962 280.856 22.6246 281.171 23.4102C281.329 23.5673 281.329 23.7244 281.486 24.0387C281.802 24.8242 282.117 25.6098 282.274 26.2383C282.432 26.5525 282.432 26.8667 282.59 27.0239C283.062 28.595 283.535 30.3233 283.85 32.0515C283.85 32.2087 283.85 32.3658 284.008 32.68C284.008 32.9942 284.166 33.3085 284.166 33.6227C284.166 33.9369 284.166 34.2512 284.323 34.5654C284.323 34.8796 284.323 35.1939 284.481 35.5081C284.481 36.1366 284.481 36.6079 284.638 37.2364C284.638 37.5506 284.638 38.0219 284.638 38.3362V530.736H283.85Z" fill="#000004"/>
<path d="M35.1471 568.13C34.8319 568.13 34.5167 568.13 34.2015 567.973C33.571 567.973 32.9406 567.816 32.4678 567.659C28.8429 567.03 25.5332 565.93 22.381 564.516C22.2234 564.359 21.9082 564.359 21.7506 564.202C21.1202 563.888 20.6474 563.573 20.017 563.259C19.7017 563.102 19.5441 562.945 19.2289 562.788C17.9681 562.002 16.8648 561.217 15.604 560.274C15.4464 560.117 15.1312 559.96 14.9736 559.803C14.3432 559.331 13.7127 558.86 13.2399 558.232C13.0823 558.074 12.9247 557.917 12.6095 557.76C12.4519 557.603 12.1367 557.289 11.9791 557.132C11.8215 556.975 11.5062 556.66 11.3486 556.503C11.191 556.346 11.0334 556.189 10.8758 556.032C10.7182 555.875 10.5606 555.718 10.403 555.561C9.45738 554.461 8.51174 553.361 7.72371 552.261C7.56611 552.104 7.4085 551.79 7.2509 551.633C6.77808 551.004 6.30526 550.376 5.99005 549.59C5.83244 549.276 5.67484 549.119 5.51723 548.805C4.41399 546.919 3.62596 545.034 2.83794 542.991C2.68033 542.677 2.68033 542.363 2.52273 542.206C2.04991 540.792 1.7347 539.378 1.41949 537.964C1.41949 537.649 1.26188 537.335 1.26188 537.021C0.946668 534.978 0.789062 532.779 0.789062 530.736V42.2645C1.10427 22.1537 17.1801 5.65656 37.0384 4.71387C19.0713 5.65656 4.7292 20.4254 4.7292 38.6508V534.35C4.7292 551.79 18.1257 566.245 35.1471 568.13Z" fill="url(#paint0_linear)"/>
<path d="M283.849 42.2645V530.737C283.849 534.821 283.219 538.592 281.958 542.206C281.8 542.52 281.8 542.834 281.643 542.992C281.485 543.306 281.485 543.62 281.327 543.777C281.327 543.934 281.17 544.248 281.012 544.406C280.697 545.034 280.539 545.662 280.224 546.134C280.067 546.448 279.909 546.605 279.909 546.919C279.751 547.234 279.594 547.705 279.279 548.019C279.121 548.333 278.963 548.491 278.963 548.805C278.806 549.119 278.648 549.276 278.491 549.59C278.018 550.219 277.703 551.004 277.23 551.633C277.072 551.79 276.915 552.104 276.757 552.261C276.599 552.576 276.442 552.733 276.284 552.89C276.127 553.204 275.969 553.361 275.811 553.518C275.654 553.675 275.496 553.99 275.338 554.147C275.181 554.304 275.023 554.618 274.708 554.775C274.393 555.247 273.92 555.718 273.605 556.032C272.974 556.661 272.344 557.289 271.714 557.917C271.556 558.075 271.398 558.232 271.083 558.389C270.61 558.86 270.138 559.174 269.665 559.489C269.507 559.646 269.192 559.803 269.034 559.96C268.404 560.431 267.616 561.06 266.985 561.531C266.67 561.688 266.513 561.845 266.197 562.003C265.725 562.317 265.252 562.631 264.779 562.945C264.464 563.102 264.306 563.259 263.991 563.417C263.203 563.888 262.415 564.202 261.469 564.673C261.312 564.831 260.996 564.831 260.839 564.988C260.524 565.145 260.366 565.145 260.051 565.302C259.736 565.459 259.578 565.459 259.263 565.616C258.632 565.773 258.002 566.087 257.371 566.245C257.214 566.245 256.899 566.402 256.741 566.402C255.953 566.716 255.007 566.873 254.219 567.03C253.904 567.03 253.589 567.187 253.274 567.187C252.958 567.187 252.643 567.344 252.328 567.344C251.698 567.502 251.225 567.502 250.594 567.659C250.279 567.659 249.964 567.659 249.649 567.816C266.67 566.087 280.067 551.476 280.067 534.036V38.6508C280.067 20.8968 266.197 6.12791 248.703 4.71387C268.404 6.12791 283.849 22.4679 283.849 42.2645Z" fill="url(#paint1_linear)"/>
<path d="M283.85 530.736V534.35C283.85 555.089 266.986 571.901 246.182 571.901H38.7732C17.9693 571.901 1.10547 555.089 1.10547 534.35V530.736C1.10547 532.936 1.26307 534.978 1.57829 537.021C1.57829 537.335 1.73589 537.649 1.73589 537.964C2.0511 539.378 2.36631 540.792 2.83913 542.206C2.99674 542.52 2.99674 542.834 3.15434 542.991C3.94237 545.034 4.7304 546.919 5.83364 548.805C5.99125 549.119 6.14885 549.276 6.30646 549.59C6.77927 550.219 7.09449 551.004 7.5673 551.633C7.72491 551.79 7.88252 552.104 8.04012 552.261C8.82815 553.361 9.77378 554.618 10.7194 555.561C10.877 555.718 11.0346 555.875 11.1922 556.032C11.3498 556.189 11.5074 556.346 11.6651 556.503C11.8227 556.66 12.1379 556.975 12.2955 557.132C12.4531 557.289 12.7683 557.603 12.9259 557.76C13.0835 557.917 13.2411 558.074 13.5563 558.232C14.1867 558.703 14.6596 559.174 15.29 559.803C15.4476 559.96 15.7628 560.117 15.9204 560.274C17.0236 561.217 18.2845 562.002 19.5453 562.788C19.8605 562.945 20.0182 563.102 20.3334 563.259C20.8062 563.573 21.4366 563.888 22.067 564.202C22.2246 564.359 22.5398 564.359 22.6975 564.516C25.8496 566.087 29.1593 567.187 32.7842 567.658C33.4146 567.816 33.8875 567.816 34.5179 567.973C35.1483 567.973 35.7787 568.13 36.4092 568.13C36.7244 568.13 37.0396 568.13 37.3548 568.13C37.9852 568.13 38.458 568.13 39.0884 568.13H246.34C246.97 568.13 247.443 568.13 248.074 568.13C248.389 568.13 248.704 568.13 249.019 568.13C249.492 568.13 249.965 567.973 250.438 567.973C250.595 567.973 250.595 567.973 250.753 567.973C251.383 567.973 252.014 567.816 252.487 567.658C252.802 567.658 253.117 567.501 253.432 567.501C253.747 567.501 254.063 567.344 254.378 567.344C255.166 567.187 256.112 566.873 256.9 566.716C257.057 566.716 257.372 566.559 257.53 566.559C258.16 566.402 258.791 566.087 259.421 565.93C259.736 565.773 259.894 565.773 260.209 565.616C260.525 565.459 260.682 565.459 260.997 565.302C261.155 565.145 261.47 565.145 261.628 564.988C262.416 564.673 263.361 564.202 264.149 563.731C264.465 563.573 264.622 563.416 264.937 563.259C265.41 562.945 265.883 562.631 266.356 562.317C266.671 562.159 266.829 562.002 267.144 561.845C267.932 561.374 268.562 560.903 269.193 560.274C269.35 560.117 269.666 559.96 269.823 559.803C270.296 559.488 270.769 559.017 271.242 558.703C271.399 558.546 271.715 558.389 271.872 558.232C272.503 557.603 273.133 556.975 273.763 556.346C274.236 555.875 274.551 555.561 274.867 555.089C275.024 554.932 275.182 554.618 275.497 554.461C275.655 554.304 275.812 553.989 275.97 553.832C276.127 553.675 276.285 553.361 276.443 553.204C276.6 553.047 276.758 552.733 276.915 552.575C277.073 552.418 277.231 552.104 277.388 551.947C277.861 551.318 278.334 550.533 278.649 549.904C278.807 549.59 278.964 549.433 279.122 549.119C279.28 548.805 279.437 548.647 279.437 548.333C279.595 548.019 279.752 547.548 280.068 547.233C280.225 546.919 280.383 546.762 280.383 546.448C280.698 545.819 280.856 545.191 281.171 544.72C281.328 544.563 281.328 544.248 281.486 544.091C281.644 543.777 281.644 543.62 281.801 543.306C281.959 542.991 281.959 542.677 282.116 542.52C283.22 538.592 283.85 534.821 283.85 530.736Z" fill="url(#paint2_linear)"/>
<path d="M283.85 38.6502V42.2639C283.85 22.7815 268.878 6.75576 249.807 4.87038C249.492 4.87038 249.177 4.87038 248.862 4.71326C248.546 4.71326 248.231 4.71326 247.916 4.71326C247.286 4.71326 246.813 4.71326 246.182 4.71326H38.7732C38.1428 4.71326 37.67 4.71326 37.0396 4.71326C17.1812 5.65596 1.10547 22.1531 1.10547 42.2639V38.6502C1.10547 38.336 1.10547 37.8646 1.10547 37.5504C1.10547 37.2362 1.10547 36.9219 1.10547 36.7648C1.10547 36.1363 1.10547 35.5079 1.26307 35.0365C1.26307 34.7223 1.26307 34.4081 1.42068 34.0938C1.42068 33.9367 1.42068 33.7796 1.42068 33.6225C1.42068 33.4654 1.42068 33.3083 1.57829 32.994C1.57829 32.6798 1.73589 32.3656 1.73589 32.0513C1.8935 31.58 1.8935 30.9515 2.0511 30.4802C2.0511 30.166 2.20871 30.0088 2.20871 29.6946C2.36631 28.909 2.68153 28.1235 2.83913 27.3379C2.99674 27.0237 3.15434 26.8665 3.15434 26.5523C3.31195 26.2381 3.31195 25.9238 3.46955 25.6096C3.62716 25.2954 3.62716 25.1383 3.78477 24.824C3.94237 24.6669 3.94237 24.3527 4.09998 24.1956C4.25758 23.8813 4.25758 23.7242 4.41519 23.5671C4.57279 23.41 4.57279 23.2529 4.7304 23.0958C4.88801 22.7815 4.88801 22.6244 5.04561 22.3102C5.20322 21.8388 5.51843 21.3675 5.67603 21.0533C5.83364 20.8962 5.99125 20.5819 5.99125 20.4248C6.14885 20.1106 6.30646 19.9535 6.46406 19.6392C7.5673 17.911 8.67054 16.1827 9.93139 14.6115C10.089 14.4544 10.2466 14.1402 10.4042 13.9831C10.5618 13.6688 10.877 13.5117 11.0346 13.1975C11.3498 12.7262 11.8227 12.4119 12.1379 12.0977C12.6107 11.6263 13.0835 11.3121 13.5563 10.8408C14.0291 10.5265 14.502 10.0552 14.8172 9.74096C14.9748 9.58384 15.29 9.42673 15.4476 9.1125C15.9204 8.79827 16.3932 8.32692 16.866 8.01269C17.3389 7.69846 17.8117 7.38423 18.2845 7.07C18.7573 6.75576 19.2301 6.44153 19.8605 6.1273C20.1758 5.97019 20.3334 5.81307 20.6486 5.65596C20.9638 5.49884 21.1214 5.34173 21.4366 5.18461C21.7518 5.0275 21.9094 4.87038 22.2246 4.71326C22.5398 4.55615 22.6975 4.39903 23.0127 4.39903C23.4855 4.0848 24.1159 3.92769 24.5887 3.77057C24.9039 3.61346 25.0615 3.61346 25.3767 3.45634C25.692 3.29923 25.8496 3.29923 26.1648 3.14211C26.48 2.98499 26.6376 2.98499 26.9528 2.82788C27.268 2.67076 27.5832 2.67076 27.8984 2.51365C28.2136 2.35653 28.5289 2.35653 28.6865 2.19942C29.0017 2.0423 29.3169 2.0423 29.6321 2.0423C29.9473 2.0423 30.2625 1.88519 30.5777 1.88519C31.2082 1.72807 31.8386 1.57096 32.3114 1.57096C32.7842 1.57096 33.0994 1.57096 33.4146 1.41384C34.0451 1.25672 34.6755 1.25672 35.3059 1.25672C35.7787 1.25672 36.4091 1.09961 36.882 1.09961C37.1972 1.09961 37.5124 1.09961 37.8276 1.09961C38.1428 1.09961 38.458 1.09961 38.7732 1.09961H246.025C246.34 1.09961 246.655 1.09961 246.97 1.09961C247.286 1.09961 247.443 1.09961 247.758 1.09961C248.389 1.09961 249.019 1.09961 249.65 1.25672C249.965 1.25672 250.28 1.25672 250.595 1.41384C250.911 1.41384 251.226 1.57096 251.541 1.57096C251.856 1.57096 252.171 1.72807 252.487 1.72807C252.802 1.72807 253.117 1.88519 253.432 1.88519C253.747 1.88519 254.063 2.0423 254.378 2.0423C254.693 2.0423 254.851 2.19942 255.166 2.19942H255.323C255.639 2.19942 255.796 2.35653 256.111 2.35653C256.427 2.51365 256.742 2.51365 257.215 2.67076C257.53 2.67076 257.688 2.82788 257.845 2.82788C258.318 2.98499 258.948 3.14211 259.421 3.29923C259.736 3.45634 260.052 3.61346 260.524 3.77057C260.84 3.92769 260.997 3.92769 261.312 4.0848C261.628 4.24192 261.785 4.39903 262.101 4.39903C262.416 4.55615 262.573 4.71326 262.889 4.71326C264.78 5.65596 266.513 6.75576 268.247 8.01269C268.405 8.1698 268.72 8.32692 268.878 8.48404C269.666 9.1125 270.296 9.58384 271.084 10.2123C271.399 10.5265 271.714 10.6837 272.03 10.9979C273.291 12.0977 274.394 13.3546 275.497 14.6115C275.655 14.7687 275.812 15.0829 276.127 15.24C276.443 15.7113 276.915 16.1827 277.231 16.654C277.388 16.9683 277.546 17.1254 277.703 17.4396C278.019 17.911 278.334 18.2252 278.491 18.6965C278.649 18.8537 278.807 19.1679 278.964 19.325C279.28 19.7963 279.437 20.1106 279.752 20.5819C279.91 20.739 279.91 21.0533 280.068 21.2104C280.383 21.996 280.856 22.6244 281.171 23.41C281.328 23.5671 281.328 23.7242 281.486 24.0385C281.801 24.824 282.116 25.6096 282.274 26.2381C282.432 26.5523 282.432 26.8665 282.589 27.0237C283.062 28.5948 283.535 30.3231 283.85 32.0513C283.85 32.2085 283.85 32.3656 284.008 32.6798C284.008 32.994 284.165 33.3083 284.165 33.6225C284.165 33.9367 284.165 34.251 284.323 34.5652C284.323 34.8794 284.323 35.1937 284.48 35.5079C284.48 36.1364 284.481 36.6077 284.638 37.2362C283.85 37.8646 283.85 38.336 283.85 38.6502Z" fill="url(#paint3_linear)"/>
<path d="M247.916 4.71387C247.286 4.71387 246.813 4.71387 246.182 4.71387H38.7733C38.1429 4.71387 37.6701 4.71387 37.0396 4.71387C19.0726 5.65656 4.73047 20.4254 4.73047 38.6508V534.35C4.73047 552.104 18.5998 566.873 36.094 568.287C36.4092 568.287 36.7244 568.287 37.0396 568.287C37.6701 568.287 38.1429 568.287 38.7733 568.287H246.025C246.655 568.287 247.128 568.287 247.758 568.287C248.074 568.287 248.389 568.287 248.704 568.287C266.198 566.873 280.068 552.261 280.068 534.35V38.6508C280.225 20.4254 265.883 5.65656 247.916 4.71387ZM277.388 534.35C277.388 550.533 264.78 564.045 248.704 565.302C248.389 565.302 248.074 565.302 247.758 565.302C247.286 565.302 246.655 565.302 246.182 565.302H38.7733C38.3005 565.302 37.6701 565.302 37.1972 565.302C36.882 565.302 36.5668 565.302 36.4092 565.302C20.3334 564.045 7.72498 550.376 7.72498 534.35V38.6508C7.72498 22.1537 20.6486 8.48464 37.1972 7.54195C37.6701 7.54195 38.3005 7.54195 38.7733 7.54195H246.025C246.498 7.54195 247.128 7.54195 247.601 7.54195C264.149 8.48464 277.073 21.9966 277.073 38.6508V534.35H277.388Z" fill="#250F3E"/>
<path d="M277.388 38.808V534.507C277.388 537.649 276.915 540.635 276.127 543.305C275.496 545.505 274.551 547.705 273.29 549.747C272.975 550.219 272.817 550.533 272.502 551.004C272.187 551.633 271.714 552.261 271.241 552.732C269.98 554.304 268.719 555.875 267.301 557.289C269.98 552.575 271.556 547.076 271.556 541.263V535.607C271.556 535.293 271.556 534.978 271.556 534.507V38.808C271.556 38.4938 271.556 38.1795 271.556 37.7082V32.052C271.556 26.0816 269.98 20.5826 267.301 15.8691C273.447 21.6824 277.388 29.8524 277.388 38.808Z" fill="url(#paint4_linear)"/>
<path d="M247.598 10.3701C246.967 10.3701 246.494 10.3701 246.022 10.3701H38.77C38.2972 10.3701 37.8244 10.3701 37.3516 10.3701H37.194C22.2214 11.3128 10.5586 23.7249 10.5586 38.6509V534.35C10.5586 548.962 22.0638 561.374 36.5635 562.474C36.7211 562.474 37.0364 562.474 37.194 562.474H37.3516C37.8244 562.474 38.2972 562.474 38.77 562.474H246.022C246.494 562.474 246.967 562.474 247.44 562.474H247.598C247.913 562.474 248.07 562.474 248.386 562.474C263.043 561.374 274.391 548.962 274.391 534.35V38.6509C274.548 23.5678 262.728 11.1557 247.598 10.3701ZM266.983 534.35C266.983 545.034 258.63 554.147 247.913 554.932C247.755 554.932 247.755 554.932 247.598 554.932H247.44C247.125 554.932 246.81 554.932 246.337 554.932H38.77C38.4548 554.932 37.982 554.932 37.6668 554.932H37.5092C37.3516 554.932 37.3516 554.932 37.194 554.932C26.4768 554.147 18.1237 545.034 18.1237 534.35V38.6509C18.1237 27.8099 26.6344 18.6972 37.5092 18.0688H37.6668H37.982C38.2972 18.0688 38.6124 18.0688 38.9276 18.0688H246.179C246.494 18.0688 246.81 18.0688 247.125 18.0688H247.282C258.315 18.6972 266.983 27.6528 266.983 38.808V534.35Z" fill="#250F3E"/>
<path d="M212.923 17.9121V20.5831C212.923 29.6958 205.515 37.0802 196.374 37.0802H88.572C79.4309 37.0802 72.0234 29.6958 72.0234 20.5831V17.9121H212.923Z" fill="black"/>
<path d="M212.927 17.9111V20.5821C212.927 29.6948 205.519 37.0792 196.378 37.0792H88.5759C79.4348 37.0792 72.0273 29.6948 72.0273 20.5821V17.9111H212.927Z" fill="#250F3E"/>
<path d="M271.555 535.449V541.105C271.555 546.919 269.979 552.418 267.3 557.131C262.257 561.688 255.795 564.83 248.702 565.301C248.387 565.301 248.072 565.301 247.757 565.301C247.284 565.301 246.654 565.301 246.181 565.301H38.9292C38.4564 565.301 37.826 565.301 37.3532 565.301C37.0379 565.301 36.7227 565.301 36.5651 565.301C36.0923 565.301 35.7771 565.301 35.3043 565.144C28.5272 564.359 22.5382 561.373 17.81 557.131C15.1307 552.418 13.5547 546.919 13.5547 540.948V534.192C13.5547 541.891 17.022 548.804 22.5382 553.518C26.4784 556.974 31.5217 559.174 37.0379 559.488C37.1956 559.488 37.3532 559.488 37.5108 559.488H37.6684H37.826C38.2988 559.488 38.7716 559.488 39.0868 559.488H246.338C246.811 559.488 247.284 559.488 247.599 559.488H247.757H247.914C248.072 559.488 248.387 559.488 248.545 559.488C260.996 558.702 271.082 548.176 271.555 535.449Z" fill="url(#paint5_linear)"/>
<path d="M277.387 38.8071C277.387 22.1529 264.463 8.64093 247.914 7.69824C247.442 7.69824 246.811 7.69824 246.338 7.69824H38.9292C38.4564 7.69824 37.826 7.69824 37.3532 7.69824C36.7227 7.69824 36.0923 7.85536 35.3043 7.85536C28.5272 8.64093 22.5382 11.6261 17.81 15.8682C15.1307 20.5817 13.5547 26.0807 13.5547 32.0511V38.8071C13.5547 31.1084 17.022 24.1954 22.5382 19.4819C26.636 16.0254 31.837 13.8257 37.5108 13.5115H37.6684H37.826C38.2988 13.5115 38.614 13.5115 39.0868 13.5115H246.338C246.654 13.5115 246.969 13.5115 247.442 13.5115H247.757C260.68 14.14 271.082 24.6667 271.555 37.7073V32.0511C271.555 26.0807 269.979 20.5817 267.3 15.8682C273.447 21.6815 277.387 29.8515 277.387 38.8071Z" fill="url(#paint6_linear)"/>
<path d="M17.6532 557.131C11.5065 551.475 7.56641 543.305 7.56641 534.349V38.6498C7.56641 29.6942 11.3489 21.5242 17.6532 15.7109C14.9739 20.4244 13.3978 25.9234 13.3978 31.8938V540.948C13.3978 546.918 14.9739 552.417 17.6532 557.131Z" fill="url(#paint7_linear)"/>
<path d="M277.389 38.8071V534.506C277.389 537.649 276.916 540.634 276.128 543.305C275.498 545.504 274.552 547.704 273.291 549.746C272.976 550.218 272.818 550.532 272.503 551.003C272.188 551.632 271.715 552.26 271.242 552.732C269.981 554.303 268.721 555.874 267.145 557.288C269.824 552.575 271.4 547.076 271.4 541.262V32.2083C271.4 26.2379 269.824 20.7389 267.145 16.0254C273.449 21.6815 277.389 29.8516 277.389 38.8071Z" fill="url(#paint8_linear)"/>
<path d="M247.6 17.9111H247.443H247.127C246.812 17.9111 246.497 17.9111 246.182 17.9111H216.237C214.503 18.0682 213.085 19.3252 212.927 21.0534C212.927 21.2106 212.927 21.2106 212.927 21.3677C212.454 30.1661 205.204 37.0792 196.378 37.0792H145.314H139.483H88.5761C79.7502 37.0792 72.5003 30.1661 72.0275 21.3677C72.0275 21.2106 72.0275 21.0534 72.0275 21.0534C71.8699 19.3252 70.4514 18.0682 68.7178 17.9111H38.7727C38.4575 17.9111 38.1423 17.9111 37.8271 17.9111H37.5119H37.3543C26.4795 18.6967 17.9688 27.6523 17.9688 38.4933V534.193C17.9688 544.876 26.3219 553.989 37.039 554.775C37.1966 554.775 37.1966 554.775 37.3543 554.775H37.5119C37.8271 554.775 38.2999 554.775 38.6151 554.775H139.325H145.157H245.867C246.182 554.775 246.655 554.775 246.97 554.775H247.127C247.285 554.775 247.285 554.775 247.443 554.775C258.16 553.989 266.513 544.876 266.513 534.193V38.6504C266.986 27.6523 258.475 18.6967 247.6 17.9111Z" fill="url(#paint9_linear)"/>
<defs>
<linearGradient id="paint0_linear" x1="1.17047" y1="286.414" x2="5.34418" y2="286.414" gradientUnits="userSpaceOnUse">
<stop stop-color="#666666"/>
<stop offset="1"/>
</linearGradient>
<linearGradient id="paint1_linear" x1="280.315" y1="286.443" x2="284.453" y2="286.443" gradientUnits="userSpaceOnUse">
<stop offset="1" stop-color="#666666"/>
</linearGradient>
<linearGradient id="paint2_linear" x1="142.499" y1="571.888" x2="142.499" y2="538.944" gradientUnits="userSpaceOnUse">
<stop stop-color="#959595"/>
<stop offset="1"/>
</linearGradient>
<linearGradient id="paint3_linear" x1="142.499" y1="32.5295" x2="142.499" y2="-8.60384" gradientUnits="userSpaceOnUse">
<stop stop-color="#250F3E"/>
<stop offset="1" stop-color="#808080"/>
</linearGradient>
<linearGradient id="paint4_linear" x1="267.297" y1="286.629" x2="277.345" y2="286.629" gradientUnits="userSpaceOnUse">
<stop stop-color="#F0F0F0"/>
<stop offset="0.00564521" stop-color="#EDEDED"/>
<stop offset="0.142" stop-color="#B4B4B4"/>
<stop offset="0.2742" stop-color="#858585"/>
<stop offset="0.399" stop-color="#606060"/>
<stop offset="0.5146" stop-color="#464646"/>
<stop offset="0.6177" stop-color="#363636"/>
<stop offset="0.6978" stop-color="#303030"/>
</linearGradient>
<linearGradient id="paint5_linear" x1="13.4113" y1="550.038" x2="271.59" y2="550.038" gradientUnits="userSpaceOnUse">
<stop stop-color="#131313"/>
<stop offset="0.0166414" stop-color="#1A1A1A"/>
<stop offset="0.1304" stop-color="#454545"/>
<stop offset="0.2407" stop-color="#666666"/>
<stop offset="0.3454" stop-color="#7E7E7E"/>
<stop offset="0.442" stop-color="#8D8D8D"/>
<stop offset="0.5229" stop-color="#929292"/>
<stop offset="0.5899" stop-color="#8B8B8B"/>
<stop offset="0.6907" stop-color="#767676"/>
<stop offset="0.813" stop-color="#545454"/>
<stop offset="0.9509" stop-color="#252525"/>
<stop offset="1" stop-color="#131313"/>
</linearGradient>
<linearGradient id="paint6_linear" x1="13.4113" y1="23.2514" x2="277.366" y2="23.2514" gradientUnits="userSpaceOnUse">
<stop stop-color="#250F3E"/>
<stop offset="0.0166414" stop-color="#1A1A1A"/>
<stop offset="0.1304" stop-color="#250F3E"/>
<stop offset="0.2407" stop-color="#666666"/>
<stop offset="0.3454" stop-color="#7E7E7E"/>
<stop offset="0.442" stop-color="#8D8D8D"/>
<stop offset="0.5229" stop-color="#929292"/>
<stop offset="0.5899" stop-color="#8B8B8B"/>
<stop offset="0.6907" stop-color="#767676"/>
<stop offset="0.813" stop-color="#545454"/>
<stop offset="0.9509" stop-color="#250F3E"/>
<stop offset="1" stop-color="#250F3E"/>
</linearGradient>
<linearGradient id="paint7_linear" x1="7.64379" y1="286.456" x2="13.6049" y2="286.456" gradientUnits="userSpaceOnUse">
<stop stop-color="#B4A2C9"/>
<stop offset="0.2305" stop-color="#79658F"/>
<stop offset="0.597" stop-color="#4E336D"/>
<stop offset="0.8634" stop-color="#30154F"/>
<stop offset="1" stop-color="#250F3E"/>
</linearGradient>
<linearGradient id="paint8_linear" x1="267.27" y1="286.657" x2="277.346" y2="286.657" gradientUnits="userSpaceOnUse">
<stop stop-color="#250F3E"/>
<stop offset="0.1366" stop-color="#331456"/>
<stop offset="0.403" stop-color="#6C4F8D"/>
<stop offset="0.7695" stop-color="#573D74"/>
<stop offset="1" stop-color="#57288D"/>
</linearGradient>
<linearGradient id="paint9_linear" x1="-48.3371" y1="96.2026" x2="332.128" y2="477.855" gradientUnits="userSpaceOnUse">
<stop stop-color="#4E0387"/>
<stop offset="1" stop-color="#25044A"/>
</linearGradient>
</defs>
</svg>
