<svg width="719" height="321" viewBox="0 0 719 321" fill="none" xmlns="http://www.w3.org/2000/svg">
<path d="M546.06 142.152H517.595V229.526H546.06V142.152Z" fill="#4F0388"/>
<path d="M534.004 65.7007H529.763V244.465H534.004V65.7007Z" fill="#4F0388"/>
<path d="M589.149 48.5012H560.684V158.973H589.149V48.5012Z" fill="#4F0388"/>
<path d="M576.983 15.9874H572.741V214.837H576.983V15.9874Z" fill="#4F0388"/>
<path d="M503.083 219.859H474.618V278.359H503.083V219.859Z" fill="#4F0388"/>
<path d="M490.917 201.154H486.675V307.86H490.917V201.154Z" fill="#4F0388"/>
<path d="M718.3 56.536H689.835V92.8161H718.3V56.536Z" fill="#4F0388"/>
<path d="M706.134 44.8613H701.892V159.225H706.134V44.8613Z" fill="#4F0388"/>
<path d="M675.212 24.273H646.747V146.42H675.212V24.273Z" fill="#4F0388"/>
<path d="M663.046 0.546875H658.804V183.705H663.046V0.546875Z" fill="#4F0388"/>
<path d="M632.124 83.652H603.659V206.05H632.124V83.652Z" fill="#4F0388"/>
<path d="M620.069 42.0994H615.827V220.863H620.069V42.0994Z" fill="#4F0388"/>
<path d="M377.393 180.818H348.928V268.191H377.393V180.818Z" fill="#4F0388"/>
<path d="M365.226 152.572H360.985V283.13H365.226V152.572Z" fill="#4F0388"/>
<path d="M420.367 87.0412H391.903V197.513H420.367V87.0412Z" fill="#4F0388"/>
<path d="M408.312 54.5274H404.071V253.377H408.312V54.5274Z" fill="#4F0388"/>
<path d="M334.305 253.88H305.84V298.068H334.305V253.88Z" fill="#4F0388"/>
<path d="M322.138 239.694H317.896V320.414H322.138V239.694Z" fill="#4F0388"/>
<path d="M463.456 170.398H434.991V244.59H463.456V170.398Z" fill="#4F0388"/>
<path d="M451.289 80.639H447.047V259.403H451.289V80.639Z" fill="#4F0388"/>
<path d="M207.537 156.313H182.945V222.993H207.537V156.313Z" fill="#4F0388"/>
<path d="M197.122 97.9687H193.457V234.394H197.122V97.9687Z" fill="#4F0388"/>
<path d="M244.764 84.8428H220.172V169.151H244.764V84.8428Z" fill="#4F0388"/>
<path d="M234.253 60.0296H230.588V211.784H234.253V60.0296Z" fill="#4F0388"/>
<path d="M170.407 215.616H145.815V260.261H170.407V215.616Z" fill="#4F0388"/>
<path d="M159.896 201.341H156.232V282.775H159.896V201.341Z" fill="#4F0388"/>
<path d="M356.343 90.9747H331.751V118.662H356.343V90.9747Z" fill="#4F0388"/>
<path d="M345.832 82.065H342.168V169.343H345.832V82.065Z" fill="#4F0388"/>
<path d="M319.117 66.3529H294.525V159.57H319.117V66.3529Z" fill="#4F0388"/>
<path d="M308.606 48.2461H304.942V188.024H308.606V48.2461Z" fill="#4F0388"/>
<path d="M281.892 111.668H257.3V205.078H281.892V111.668Z" fill="#4F0388"/>
<path d="M271.477 79.9572H267.812V216.382H271.477V79.9572Z" fill="#4F0388"/>
<path d="M61.8178 185.821H37.2258V252.501H61.8178V185.821Z" fill="#4F0388"/>
<path d="M51.3067 164.265H47.642V263.901H51.3067V164.265Z" fill="#4F0388"/>
<path d="M98.9456 114.255H74.3537V198.563H98.9456V114.255Z" fill="#4F0388"/>
<path d="M88.5308 89.4418H84.8661V241.196H88.5308V89.4418Z" fill="#4F0388"/>
<path d="M24.592 241.579H0V275.302H24.592V241.579Z" fill="#4F0388"/>
<path d="M14.0809 230.753H10.4162V292.355H14.0809V230.753Z" fill="#4F0388"/>
<path d="M136.171 177.869H111.579V234.489H136.171V177.869Z" fill="#4F0388"/>
<path d="M125.66 109.369H121.996V245.794H125.66V109.369Z" fill="#4F0388"/>
</svg>
