<svg width="72" height="40" viewBox="0 0 72 40" fill="none" xmlns="http://www.w3.org/2000/svg">
<path d="M29.9655 30.6102C29.0294 30.6694 28.2473 30.5865 27.4416 30.0058C22.2396 26.2613 17.002 22.5642 11.7763 18.8553C9.32342 17.1134 6.89424 15.3596 4.33471 13.5348C4.33471 19.2819 4.33471 24.9223 4.33471 30.5983C3.13789 30.5983 2.04772 30.5983 0.910156 30.5983C0.910156 20.4431 0.910156 10.3354 0.910156 0.132812C1.73963 0.180211 2.50986 -0.0212332 3.33934 0.57125C8.89683 4.58829 14.5017 8.53423 20.0829 12.5157C22.05 13.914 24.017 15.3241 25.9841 16.7342C26.0907 16.8171 26.2092 16.8764 26.4225 17.0186C26.4225 11.3544 26.4225 5.77325 26.4225 0.156512C27.643 0.156512 28.7806 0.156512 29.9655 0.156512C29.9655 10.2761 29.9655 20.4194 29.9655 30.6102Z" fill="#C4C4C4"/>
<path d="M71.8307 30.5984C69.4371 30.5984 67.1145 30.5984 64.7209 30.5984C64.7209 30.3615 64.7209 30.1482 64.7209 29.9349C64.7209 26.7947 64.7209 23.6545 64.7209 20.5144C64.7209 18.8199 63.9862 17.8482 62.3747 17.4809C59.6256 16.8765 56.8764 16.8765 54.1155 17.4453C52.3143 17.8127 51.7337 18.9621 51.7218 20.5144C51.6863 23.5953 51.71 26.6762 51.71 29.7571C51.71 30.0297 51.71 30.3022 51.71 30.5984C49.2689 30.5984 46.9109 30.5984 44.4698 30.5984C44.4698 30.397 44.4698 30.2193 44.4698 30.0297C44.4698 27.3872 44.4698 24.7447 44.4698 22.0904C44.4698 19.0924 45.9629 16.9713 48.8187 15.9878C49.6718 15.7034 50.5487 15.5138 51.5085 15.2531C51.0701 15.1702 50.6909 15.1228 50.3117 15.0398C48.4276 14.6132 46.7094 13.9141 45.5363 12.267C44.8846 11.3664 44.5054 10.3355 44.4817 9.24534C44.4343 6.22367 44.4698 3.21386 44.4698 0.144793C46.8753 0.144793 49.2452 0.144793 51.71 0.144793C51.71 0.346237 51.71 0.559531 51.71 0.760976C51.71 3.81819 51.71 6.87541 51.71 9.94447C51.71 10.8924 51.8759 11.8523 52.6461 12.4566C53.1556 12.8595 53.8429 13.0965 54.4946 13.2268C57.1727 13.8075 59.8507 13.689 62.5169 13.0965C63.8559 12.8002 64.7209 11.6627 64.7209 10.2052C64.7328 7.065 64.7209 3.92484 64.7209 0.784675C64.7209 0.571381 64.7209 0.358087 64.7209 0.121094C67.1145 0.121094 69.4489 0.121094 71.8189 0.121094C71.8307 0.23959 71.8544 0.334388 71.8544 0.429185C71.8544 3.23756 71.8781 6.03408 71.8307 8.84245C71.7833 11.5916 70.2429 13.6653 67.6241 14.5658C66.7591 14.8621 65.8703 15.0517 64.9224 15.3005C65.503 15.419 66.0481 15.4901 66.5695 15.6442C68.4654 16.1892 70.2073 17.0187 71.1079 18.9028C71.4752 19.6849 71.7715 20.5736 71.7952 21.4268C71.89 24.3655 71.8426 27.3042 71.8426 30.2548C71.8544 30.3614 71.8426 30.4562 71.8307 30.5984Z" fill="#C4C4C4"/>
<path d="M40.877 0.144531C40.877 10.3115 40.877 20.4312 40.877 30.5863C38.4597 30.5863 36.0542 30.5863 33.625 30.5863C33.625 20.443 33.625 10.3115 33.625 0.144531C36.0423 0.144531 38.436 0.144531 40.877 0.144531Z" fill="#C4C4C4"/>
<path d="M2.28382 36.1679C2.28382 37.3766 2.28382 38.4312 2.28382 39.5214C1.67949 39.5214 1.11071 39.5214 0.636719 39.5214C0.684117 39.1659 0.767065 38.8104 0.767065 38.4549C0.778915 36.9145 0.755215 35.374 0.755215 33.8336C0.755215 33.6203 0.790764 33.407 0.802614 33.2529C1.84538 32.85 2.42602 33.3596 2.9474 34.1179C3.50434 34.9237 4.12052 35.694 4.7604 36.559C5.37659 35.7532 5.95722 34.9948 6.5497 34.2246C6.60895 34.1417 6.68005 34.0824 6.72745 33.9876C7.13034 33.17 7.80577 32.9922 8.68264 33.2292C8.68264 35.2911 8.68264 37.3885 8.68264 39.5214C8.13756 39.5214 7.62802 39.5214 7.03554 39.5214C7.03554 38.4194 7.03554 37.3292 7.03554 36.239C6.98814 36.2272 6.94074 36.2035 6.90519 36.1916C6.41936 36.8315 5.92167 37.4714 5.43583 38.1113C5.29364 38.3009 5.18699 38.5142 5.00925 38.6801C4.71301 38.9645 4.41676 39.0119 4.12052 38.6208C3.55174 37.8387 2.95925 37.0685 2.28382 36.1679Z" fill="#C4C4C4"/>
<path d="M20.9959 33.2771C21.8017 33.2771 22.6193 33.2534 23.4251 33.2771C24.3257 33.3127 24.7878 33.7985 24.7878 34.6991C24.7997 35.7893 24.7997 36.8676 24.7878 37.9578C24.776 38.8228 24.4086 39.3442 23.5554 39.3797C21.7424 39.439 19.9413 39.3797 18.1283 39.3442C17.4766 39.3323 17.2396 38.8583 17.2159 38.3132C17.1803 37.0098 17.1803 35.7063 17.204 34.4029C17.2159 33.6919 17.6188 33.3245 18.4364 33.289C19.3014 33.2534 20.1546 33.289 20.9959 33.2771ZM18.9933 37.8867C20.3442 37.8867 21.6121 37.8867 22.9985 37.8867C22.9985 36.915 23.0104 35.9552 22.9748 34.9953C22.9748 34.9005 22.6667 34.7346 22.5008 34.7346C21.4817 34.7109 20.4508 34.7346 19.4318 34.7109C19.0881 34.6991 18.9815 34.8531 18.9933 35.1612C18.9933 36.05 18.9933 36.9387 18.9933 37.8867Z" fill="#C4C4C4"/>
<path d="M33.5078 33.2409C34.3728 33.0157 34.9653 33.2527 35.5578 33.7978C36.6006 34.7695 37.7381 35.6464 38.8402 36.5706C38.9231 36.6417 39.0298 36.6891 39.2194 36.8076C39.2194 35.5634 39.2194 34.4022 39.2194 33.2053C39.8 33.2053 40.2977 33.2053 40.902 33.2053C40.902 33.5845 40.902 33.9519 40.902 34.3192C40.902 35.7649 40.9139 37.1987 40.8902 38.6443C40.8902 38.9406 40.7835 39.4738 40.7243 39.4738C40.274 39.4857 39.7289 39.5212 39.3971 39.2842C38.615 38.751 37.9277 38.0637 37.1931 37.4475C36.5887 36.9261 35.9725 36.4166 35.2616 35.8241C35.2616 37.1157 35.2616 38.277 35.2616 39.5449C34.752 39.5449 34.3017 39.5923 33.8752 39.5212C33.733 39.4975 33.5434 39.1657 33.5315 38.9761C33.496 37.9926 33.5197 36.9972 33.5197 36.0137C33.5078 35.0894 33.5078 34.1652 33.5078 33.2409Z" fill="#C4C4C4"/>
<path d="M56.4142 33.2051C56.4142 33.6672 56.4142 34.082 56.4142 34.5559C54.8974 34.5559 53.3925 34.5559 51.8402 34.5559C51.8402 34.864 51.8402 35.1129 51.8402 35.4447C52.5393 35.4447 53.2266 35.4565 53.902 35.4447C54.2812 35.4447 54.6012 35.4921 54.4945 35.9897C54.4116 36.3808 54.7789 37.0207 53.902 36.9614C53.2147 36.9259 52.5275 36.9496 51.8165 36.9496C51.8165 37.2695 51.8165 37.5421 51.8165 37.8738C53.3332 37.8738 54.8619 37.8738 56.509 37.8738C56.509 38.336 56.5445 38.7389 56.4853 39.1418C56.4734 39.2603 56.2246 39.4262 56.0942 39.4262C54.1864 39.4499 52.2668 39.4499 50.359 39.4262C50.2168 39.4262 49.9679 39.201 49.9679 39.0825C49.9442 37.1392 49.9561 35.184 49.9561 33.2051C52.1246 33.2051 54.2457 33.2051 56.4142 33.2051Z" fill="#C4C4C4"/>
<path d="M67.8368 35.3385C68.3938 34.6986 68.8915 34.0824 69.4247 33.5255C69.6025 33.3359 69.9105 33.2056 70.1594 33.1819C70.6926 33.1345 71.2377 33.17 71.9605 33.17C71.1429 34.0469 70.503 34.8645 69.7328 35.5281C68.8204 36.3102 68.4412 37.1989 68.6189 38.372C68.6782 38.7394 68.6308 39.1067 68.6308 39.557C68.1094 39.557 67.6354 39.6044 67.1851 39.5333C67.0192 39.5096 66.8059 39.2252 66.7822 39.0475C66.7348 38.5261 66.7348 37.981 66.7822 37.4596C66.8296 36.8553 66.5808 36.4405 66.166 36.0258C65.301 35.1489 64.4715 34.2365 63.5117 33.2174C64.3886 33.2174 65.1351 33.1345 65.8461 33.253C66.166 33.3004 66.4267 33.7507 66.6874 34.0351C67.0548 34.4261 67.4221 34.8645 67.8368 35.3385Z" fill="#C4C4C4"/>
</svg>
