<svg width="30" height="30" viewBox="0 0 30 30" fill="none" xmlns="http://www.w3.org/2000/svg">
<mask id="mask0_1213_15143" style="mask-type:alpha" maskUnits="userSpaceOnUse" x="0" y="0" width="30" height="30">
<path d="M24.7266 0H5.27344C2.361 0 0 2.361 0 5.27344V24.7266C0 27.639 2.361 30 5.27344 30H24.7266C27.639 30 30 27.639 30 24.7266V5.27344C30 2.361 27.639 0 24.7266 0Z" fill="white"/>
</mask>
<g mask="url(#mask0_1213_15143)">
<path d="M24.7266 0H5.27344C2.361 0 0 2.361 0 5.27344V24.7266C0 27.639 2.361 30 5.27344 30H24.7266C27.639 30 30 27.639 30 24.7266V5.27344C30 2.361 27.639 0 24.7266 0Z" fill="#29C5A6"/>
<path d="M-0.767742 8.387C-0.418642 8.387 1.26 7.35449 4.26817 5.28946L7.656 4.74609L10.1212 5.64998L12.0685 7.53265C12.9686 8.63104 13.4186 9.18024 13.4186 9.18024L15.1623 9.95358C15.1623 9.95358 16.1789 9.6958 18.2121 9.18024L19.9403 9.95358L21.6955 11.77L23.8082 16.247L26.111 18.3435L28.7869 18.6319L31.3533 18.4698L33.6944 39.71C8.61582 36.2463 -3.92346 33.9238 -3.92346 32.7424C-3.92346 30.9703 -1.29139 8.387 -0.767742 8.387Z" fill="#24AD92"/>
<path d="M0.0724717 7.28429C2.52942 5.28997 5.09735 4.34285 7.76289 4.46333L7.77411 4.46383L7.78529 4.46482C8.91935 4.56459 9.84107 4.87747 10.6135 5.39005C11.2327 5.80089 11.7124 6.2968 12.2427 7.00407C12.3742 7.17943 12.7872 7.75499 12.8052 7.77957C13.3592 8.53747 13.7292 8.88366 14.2349 9.05251L14.2484 9.057L14.2616 9.06222C14.8177 9.28177 15.4199 9.2666 16.5415 9.06807C16.6067 9.05652 16.6637 9.04629 16.7748 9.02622C17.6225 8.87305 17.9888 8.82151 18.4564 8.81564C19.1132 8.80738 19.6786 8.93322 20.1832 9.23769C20.7415 9.57451 21.1796 10.2203 21.7015 11.318C21.9049 11.7459 22.619 13.3843 22.7406 13.6507C23.6762 15.7005 24.4978 16.8652 25.5636 17.392C26.9879 18.0961 28.4785 18.2925 30.0537 17.9822C30.0593 17.9811 30.0519 19.0551 30.0457 19.0561C28.3209 19.3531 26.6657 19.1133 25.0963 18.3375C24.3517 17.9695 23.7082 17.362 23.1217 16.5307C22.6563 15.871 22.2449 15.1047 21.7811 14.0886C21.6528 13.8076 20.9434 12.1798 20.749 11.7709C20.3131 10.8541 19.9614 10.3356 19.6384 10.1408C19.3185 9.94774 18.9435 9.86429 18.4697 9.87024C18.0815 9.87512 17.7506 9.92167 16.9623 10.0641C16.85 10.0844 16.7922 10.0948 16.7253 10.1066C16.13 10.212 15.7354 10.2632 15.3289 10.2734C14.7988 10.2868 14.3263 10.2193 13.8876 10.0484C13.1274 9.7911 12.6228 9.3172 11.9538 8.40197C11.93 8.36951 11.5224 7.8016 11.3989 7.63679C10.9345 7.01749 10.5329 6.60232 10.0304 6.26885C9.41 5.85719 8.66071 5.60206 7.70401 5.51644C5.08024 5.40115 2.53145 6.45399 0.067871 8.67661C0.0518571 8.69106 0.067871 7.28803 0.0724717 7.28429Z" fill="#4BCEB4"/>
<g filter="url(#filter0_d_1213_15143)">
<path d="M10.6649 9.96094C13.0803 9.96094 15.1206 11.567 15.7761 13.7696L19.9227 13.7695V11.4844H22.7938V13.7695H24.9617V16.875L15.7583 16.8751C15.0842 19.0474 13.0588 20.625 10.6649 20.625C7.72006 20.625 5.33282 18.2378 5.33282 15.293C5.33282 12.3482 7.72006 9.96094 10.6649 9.96094ZM10.7527 13.3594C9.66867 13.3594 8.78986 14.2382 8.78986 15.3223C8.78986 16.4063 9.66867 17.2852 10.7527 17.2852C11.8368 17.2852 12.7156 16.4063 12.7156 15.3223C12.7156 14.2382 11.8368 13.3594 10.7527 13.3594Z" fill="black"/>
</g>
<path d="M10.6649 9.96094C13.0803 9.96094 15.1206 11.567 15.7761 13.7696L19.9227 13.7695V11.4844H22.7938V13.7695H24.9617V16.875L15.7583 16.8751C15.0842 19.0474 13.0588 20.625 10.6649 20.625C7.72006 20.625 5.33282 18.2378 5.33282 15.293C5.33282 12.3482 7.72006 9.96094 10.6649 9.96094ZM10.7527 13.3594C9.66867 13.3594 8.78986 14.2382 8.78986 15.3223C8.78986 16.4063 9.66867 17.2852 10.7527 17.2852C11.8368 17.2852 12.7156 16.4063 12.7156 15.3223C12.7156 14.2382 11.8368 13.3594 10.7527 13.3594Z" fill="#EBF3EE"/>
<path d="M19.9196 13.7695V14.0625H15.773C15.1175 11.86 13.0772 10.2539 10.6617 10.2539C7.76593 10.2539 5.40929 12.5624 5.33169 15.4395C5.33037 15.3908 5.32971 15.342 5.32971 15.293C5.32971 12.3482 7.71694 9.96094 10.6617 9.96094C13.0772 9.96094 15.1175 11.567 15.773 13.7695H19.9196ZM19.9196 11.7773V11.4844H22.7906V11.7773H19.9196ZM22.7906 13.7695H24.9586V14.0625H22.7906V13.7695Z" fill="white"/>
</g>
<defs>
<filter id="filter0_d_1213_15143" x="-8.66718" y="-2.03906" width="47.6289" height="38.6641" filterUnits="userSpaceOnUse" color-interpolation-filters="sRGB">
<feFlood flood-opacity="0" result="BackgroundImageFix"/>
<feColorMatrix in="SourceAlpha" type="matrix" values="0 0 0 0 0 0 0 0 0 0 0 0 0 0 0 0 0 0 127 0" result="hardAlpha"/>
<feOffset dy="2"/>
<feGaussianBlur stdDeviation="7"/>
<feColorMatrix type="matrix" values="0 0 0 0 0 0 0 0 0 0 0 0 0 0 0 0 0 0 0.3 0"/>
<feBlend mode="normal" in2="BackgroundImageFix" result="effect1_dropShadow_1213_15143"/>
<feBlend mode="normal" in="SourceGraphic" in2="effect1_dropShadow_1213_15143" result="shape"/>
</filter>
</defs>
</svg>
