<svg width="185" height="39" fill="none" xmlns="http://www.w3.org/2000/svg">
<path fill-rule="evenodd" clip-rule="evenodd" d="M26.826 12.234C26.534 5.813 21.718.997 15.296.851H1.872C.995.851.703 1.143.703 2.02v35.608c0 .73.292 1.167 1.168 1.167h4.67c.73 0 1.167-.438 1.167-1.167V25.514L8 25.66h7.297c3.502-.146 6.567-1.46 8.756-4.232 2.189-2.627 2.918-5.837 2.773-9.194zm-8.61 5.692c-1.022 1.313-2.482 2.043-4.233 2.043H7.708V6.543h5.983c2.92 0 5.254 1.605 5.984 4.524.583 2.48.146 4.816-1.46 6.859zM57.326 37.043a3753.81 3753.81 0 01-16.053-35.17c-.292-.73-.73-.876-1.46-.876-.729 0-1.02.438-1.167.876l-8.318 17.95-.292.73-.438 1.021c-3.356 7.297-6.42 14.01-7.15 15.47-.438 1.02-.146 1.75 1.167 1.75h3.94c1.168 0 1.606-.292 2.043-1.313l.438-.876.146-.438c.584-1.313 1.168-2.626 1.605-3.94.146-.438.438-.73 1.022-.73H47.403c.437 0 .73.146 1.021.584.438 1.314 1.022 2.481 1.605 3.795v.291l.584 1.46c.292.875.876 1.313 1.897 1.313h3.94c1.022-.146 1.46-.73.876-1.897zM34.56 25.806c1.751-3.94 3.503-7.88 5.254-11.675 1.751 3.94 3.502 7.88 5.4 11.675H34.56zM77.464 1.727c-2.773 4.086-5.546 8.026-8.319 12.112-.145-.146-1.021-1.605-2.335-3.502-2.043-2.919-3.94-5.837-5.983-8.61-.146-.292-.584-.73-1.021-.73-1.898 0-3.649-.146-5.546 0-.73 0-1.167.73-.876 1.46 0 .145 3.357 5.107 6.713 10.069 1.898 2.773 3.795 5.546 5.108 7.589.292.292.292.73.292 1.167v16.199c0 1.021.292 1.313 1.313 1.313h4.087c1.167 0 1.459-.292 1.459-1.459V21.428c0-.584.146-1.167.438-1.605 3.94-5.692 7.734-11.237 11.675-16.929.291-.438.583-.875.291-1.313-.291-.584-.73-.584-1.313-.584h-4.67c-.584-.146-1.021.146-1.313.73zM182.828 28.433c-1.168-1.168-2.773-1.751-4.378-1.751-3.357 0-6.13 2.627-6.13 6.129 0 3.356 2.773 6.13 6.13 6.13 3.356 0 6.129-2.628 6.129-5.984 0-1.897-.584-3.503-1.751-4.524zm-4.524 9.632c-1.46 0-2.773-.584-3.795-1.606-1.021-1.021-1.605-2.48-1.459-3.794 0-2.919 2.481-5.254 5.546-5.254 2.918 0 5.399 2.481 5.253 5.4-.146 2.919-2.481 5.254-5.545 5.254z" fill="#C4C4C4"></path><path fill-rule="evenodd" clip-rule="evenodd" d="M180.06 33.978l-.583-.875s.146 0 .146-.146c.729-.292 1.021-.876 1.021-1.46-.146-.73-.584-1.167-1.313-1.167h-2.919v5.254h.73v-2.19c1.021-.291 1.605 0 2.189.876.146.146.146.292.292.438.146.146.292.292.292.438.291.438.583.73 1.167.438-.438-.584-.73-1.022-1.022-1.606zm-.875-1.313h-2.043V31.06H179.039c.438 0 .876.292.876.875 0 .292-.292.584-.73.73zM169.112 36.751c-2.189-4.086-4.378-8.172-6.567-12.112a8.367 8.367 0 00-.584-1.022c.292-.146.584-.292.73-.438 5.545-2.627 7.88-7.88 6.859-13.426C168.528 4.5 164.004.851 158.459.851h-14.886c-.875 0-1.313.292-1.313 1.314v35.17c0 1.021.292 1.313 1.313 1.313h3.94c1.314 0 1.46-.146 1.46-1.459V24.785c0-.584.146-.73.729-.73h4.379c.583 0 .875.146 1.167.73 2.043 4.378 4.232 8.756 6.421 13.134.146.438.438.875.876.875h5.691c.584 0 1.022-.583.876-1.167.292-.438.146-.584 0-.876zm-8.464-19.117c-.73.584-1.752.875-2.773.875h-8.464V6.397h8.026c2.773 0 4.816 1.459 5.546 4.232.729 2.627-.292 5.4-2.335 7.005zM95.122 6.397V17.05h12.696c1.022 0 1.314.292 1.314 1.313v2.92c0 .875-.292 1.313-1.314 1.313H94.976v10.653h15.177c1.168 0 1.46.292 1.46 1.46v2.772c0 1.021-.292 1.313-1.314 1.313H89.285c-.73 0-1.022-.292-1.168-.875V2.456c.146-1.313.438-1.605 1.751-1.605H110.3c1.314 0 1.46.292 1.46 1.605v2.627c0 1.022-.292 1.314-1.314 1.314H95.122zM115.553 19.823V2.165c0-1.168.292-1.314 1.313-1.314h20.723c1.021 0 1.313.292 1.313 1.314v3.064c0 1.022-.292 1.168-1.313 1.168h-14.302c-1.021 0-1.021 0-1.021 1.021v8.902c0 .584.146.73.729.73h11.821c1.46 0 1.605.146 1.605 1.605v2.773c0 .876-.291 1.168-1.167 1.168h-12.259c-.437 0-.729.145-.729.73v9.339c0 .584.146.73.729.73h14.594c1.313 0 1.459.146 1.459 1.46v2.772c0 1.021-.292 1.313-1.167 1.313h-20.869c-1.167 0-1.459-.146-1.459-1.46V19.824z" fill="#C4C4C4"></path>
</svg>