<svg width="50" height="51" viewBox="0 0 50 51" fill="none" xmlns="http://www.w3.org/2000/svg">
<path fill-rule="evenodd" clip-rule="evenodd" d="M49.5293 25.4385C49.5293 39.0229 38.517 50.0352 24.9326 50.0352C11.3483 50.0352 0.335938 39.0229 0.335938 25.4385C0.335938 11.8541 11.3483 0.841797 24.9326 0.841797C38.517 0.841797 49.5293 11.8541 49.5293 25.4385ZM18.4871 23.0271C16.9457 28.1104 5.99199 25.7491 5.99199 25.7491C5.99199 25.7491 11.1409 27.6512 16.6014 26.4214C23.636 24.8636 21.5043 16.9927 17.1097 16.4843C16.2406 16.386 8.33687 16.4188 8.33687 16.4188V17.2714H10.4194V25.372H12.7807V17.0091H14.9944C14.9944 17.0091 19.9957 18.0421 18.4871 23.0271ZM10.4194 32.5706V27.5529V27.5037H12.7479V32.6854C12.7479 33.4725 13.5186 33.5545 13.5186 33.5545H15.0272V34.4727H8.23849V33.6364H9.43553C10.403 33.6364 10.4194 32.5706 10.4194 32.5706ZM19.1102 34.5219H19.0938L19.1102 34.5875V34.5219ZM25.9317 34.5219H19.1102V33.5381H21.0124C22.193 33.5381 22.1438 32.4558 22.1438 32.4558C22.1438 32.4558 22.3078 18.4521 22.3078 17.8126C22.3078 17.1731 21.8815 17.2222 21.8815 17.2222H20.668V16.3532H24.4723L31.425 30.7504L38.4104 16.2548H42.6575V17.255H41.2636C40.6733 17.255 40.6569 17.583 40.6569 17.583V32.751C40.6569 33.4889 41.3292 33.4233 41.3292 33.4233H42.9198V34.3743H36.0819L36.0983 33.5709C36.0983 33.5709 36.3279 33.5381 37.3774 33.5381C38.4268 33.5381 38.2465 32.505 38.2465 32.505L38.4104 20.0099L30.9494 34.4891L23.3245 19.7311V32.3738C23.3245 33.1117 23.964 33.4725 23.964 33.4725H25.9317V34.5219Z" fill="#C4C4C4"/>
</svg>
