<svg width="53" height="36" viewBox="0 0 53 36" fill="none" xmlns="http://www.w3.org/2000/svg">
<path fill-rule="evenodd" clip-rule="evenodd" d="M10.4611 20.757C11.3667 19.8515 12.5948 19.3428 13.8754 19.3428H20.6354C21.916 19.3428 23.1442 19.8515 24.0497 20.757C24.9552 21.6626 25.4639 22.8907 25.4639 24.1713V26.1027C25.4639 26.6361 25.0316 27.0685 24.4982 27.0685C23.9649 27.0685 23.5325 26.6361 23.5325 26.1027V24.1713C23.5325 23.403 23.2273 22.6661 22.684 22.1227C22.1407 21.5794 21.4038 21.2742 20.6354 21.2742H13.8754C13.1071 21.2742 12.3702 21.5794 11.8268 22.1227C11.2835 22.6661 10.9783 23.403 10.9783 24.1713V26.1027C10.9783 26.6361 10.5459 27.0685 10.0126 27.0685C9.47924 27.0685 9.04688 26.6361 9.04688 26.1027V24.1713C9.04688 22.8907 9.5556 21.6626 10.4611 20.757Z" fill="white"/>
<path fill-rule="evenodd" clip-rule="evenodd" d="M17.2543 9.68533C15.6543 9.68533 14.3572 10.9824 14.3572 12.5825C14.3572 14.1825 15.6543 15.4796 17.2543 15.4796C18.8544 15.4796 20.1515 14.1825 20.1515 12.5825C20.1515 10.9824 18.8544 9.68533 17.2543 9.68533ZM12.4258 12.5825C12.4258 9.91572 14.5876 7.75391 17.2543 7.75391C19.9211 7.75391 22.0829 9.91572 22.0829 12.5825C22.0829 15.2492 19.9211 17.411 17.2543 17.411C14.5876 17.411 12.4258 15.2492 12.4258 12.5825Z" fill="white"/>
<rect x="1.5" y="2.10645" width="50" height="31.9024" rx="3.5" stroke="#EA5045" stroke-width="3"/>
<path d="M32.3164 12.8867H45.8896" stroke="#EA5045" stroke-linecap="round"/>
<path d="M32.3164 17.4111H45.8896" stroke="#EA5045" stroke-linecap="round"/>
<path d="M32.3164 22.582H38.7798" stroke="#EA5045" stroke-linecap="round"/>
</svg>
