<svg width="38" height="39" viewBox="0 0 38 39" fill="none" xmlns="http://www.w3.org/2000/svg">
<path fill-rule="evenodd" clip-rule="evenodd" d="M2.31874 25.2631C3.8034 23.7784 5.81704 22.9443 7.91667 22.9443H19C21.0996 22.9443 23.1133 23.7784 24.5979 25.2631C26.0826 26.7477 26.9167 28.7614 26.9167 30.861V34.0277C26.9167 34.9021 26.2078 35.611 25.3333 35.611C24.4589 35.611 23.75 34.9021 23.75 34.0277V30.861C23.75 29.6012 23.2496 28.393 22.3588 27.5022C21.468 26.6114 20.2598 26.111 19 26.111H7.91667C6.65689 26.111 5.44871 26.6114 4.55791 27.5022C3.66711 28.393 3.16667 29.6012 3.16667 30.861V34.0277C3.16667 34.9021 2.45778 35.611 1.58333 35.611C0.708882 35.611 0 34.9021 0 34.0277V30.861C0 28.7614 0.834075 26.7477 2.31874 25.2631Z" fill="#EA5045"/>
<path fill-rule="evenodd" clip-rule="evenodd" d="M13.4596 7.111C10.8363 7.111 8.70964 9.23765 8.70964 11.861C8.70964 14.4844 10.8363 16.611 13.4596 16.611C16.083 16.611 18.2096 14.4844 18.2096 11.861C18.2096 9.23765 16.083 7.111 13.4596 7.111ZM5.54297 11.861C5.54297 7.48875 9.08738 3.94434 13.4596 3.94434C17.8319 3.94434 21.3763 7.48875 21.3763 11.861C21.3763 16.2333 17.8319 19.7777 13.4596 19.7777C9.08738 19.7777 5.54297 16.2333 5.54297 11.861Z" fill="#EA5045"/>
<path fill-rule="evenodd" clip-rule="evenodd" d="M37.5349 13.9081C38.1533 14.5264 38.1533 15.5289 37.5349 16.1473L31.2016 22.4806C30.5833 23.0989 29.5808 23.0989 28.9624 22.4806L25.7958 19.3139C25.1774 18.6956 25.1774 17.6931 25.7958 17.0747C26.4141 16.4564 27.4166 16.4564 28.035 17.0747L30.082 19.1218L35.2958 13.9081C35.9141 13.2898 36.9166 13.2898 37.5349 13.9081Z" fill="white"/>
</svg>
