<svg width="70" height="41" viewBox="0 0 70 41" fill="none" xmlns="http://www.w3.org/2000/svg">
<circle cx="17.2923" cy="14.1429" r="12.1829" stroke="#EA5045" stroke-width="3"/>
<path d="M57.536 38.2896C57.536 32.5108 53.0316 27.8262 47.475 27.8262C41.9185 27.8262 37.4141 32.5108 37.4141 38.2896" stroke="#EA5045" stroke-width="2"/>
<path d="M2 39.0938H68" stroke="#EA5045" stroke-width="3" stroke-linecap="round"/>
<path d="M16.3617 20.7773V19.2444C15.5492 19.174 14.7367 18.9086 14.2167 18.5403L14 18.3886L14.5958 16.7203L14.9642 16.9694C15.5221 17.3432 16.2371 17.5544 16.9304 17.5544C17.7863 17.5544 18.3658 17.1048 18.3658 16.4332C18.3658 15.8211 17.9379 15.3986 16.8871 14.9707C15.4896 14.4236 14.195 13.6923 14.195 12.0565C14.195 10.724 15.0725 9.69484 16.4592 9.35901V7.77734H18.0842V9.25068C18.7504 9.31026 19.3354 9.49443 19.8608 9.80318L20.1154 9.94943L19.4925 11.5961L19.1458 11.3957C18.9021 11.2548 18.3333 10.9298 17.4288 10.9298C16.5133 10.9298 16.1883 11.4173 16.1883 11.8723C16.1883 12.3598 16.4267 12.6794 17.8296 13.259C19.0104 13.7411 20.3646 14.5265 20.3646 16.3248C20.3646 17.7007 19.4275 18.8057 17.9975 19.1578V20.7773H16.3617Z" fill="white"/>
</svg>
