<svg id="Слой_1" data-name="Слой 1" xmlns="http://www.w3.org/2000/svg" xmlns:xlink="http://www.w3.org/1999/xlink" viewBox="0 0 488 185"><defs><style>.cls-1{fill:#0040ef;}.cls-2{fill:none;}.cls-3{fill:url(#Безымянный_градиент_18);}.cls-4{fill:url(#Безымянный_градиент_12);}.cls-5{fill:url(#Безымянный_градиент_14);}.cls-6{fill:url(#Безымянный_градиент_10);}.cls-7{fill:url(#Безымянный_градиент_5);}.cls-8{fill:url(#Безымянный_градиент_15);}.cls-9{fill:url(#Безымянный_градиент_16);}.cls-10{fill:url(#Безымянный_градиент_17);}</style><linearGradient id="Безымянный_градиент_18" x1="242.21113" y1="55.24246" x2="320.61496" y2="144.77914" gradientUnits="userSpaceOnUse"><stop offset="0" stop-color="#123af2"/><stop offset="1" stop-color="#0077f6"/></linearGradient><linearGradient id="Безымянный_градиент_12" x1="127.89209" y1="66.15469" x2="219.32326" y2="154.05984" gradientUnits="userSpaceOnUse"><stop offset="0.49283" stop-color="#0040ef"/><stop offset="1" stop-color="#8719e8"/></linearGradient><linearGradient id="Безымянный_градиент_14" x1="196.04439" y1="54.24095" x2="195.76185" y2="5.3154" gradientUnits="userSpaceOnUse"><stop offset="0" stop-color="#0040ef"/><stop offset="0.7531" stop-color="#8719e8"/></linearGradient><linearGradient id="Безымянный_градиент_10" x1="398.76401" y1="39.37288" x2="463.13415" y2="192.24041" gradientUnits="userSpaceOnUse"><stop offset="0" stop-color="#0077f6"/><stop offset="1" stop-color="#123af2"/></linearGradient><linearGradient id="Безымянный_градиент_5" x1="349.20888" y1="68.31507" x2="371.63077" y2="137.53982" gradientUnits="userSpaceOnUse"><stop offset="0" stop-color="#0040ef"/><stop offset="0.83217" stop-color="#8719e8"/></linearGradient><linearGradient id="Безымянный_градиент_15" x1="121.50692" y1="150.43998" x2="27.26587" y2="78.41626" gradientUnits="userSpaceOnUse"><stop offset="0" stop-color="#0077f6"/><stop offset="0.5824" stop-color="#123af2"/></linearGradient><linearGradient id="Безымянный_градиент_16" x1="59.61783" y1="46.85007" x2="2.25352" y2="138.87969" gradientUnits="userSpaceOnUse"><stop offset="0" stop-color="#0040ef"/><stop offset="0.90941" stop-color="#8719e8"/></linearGradient><linearGradient id="Безымянный_градиент_17" x1="133.00361" y1="73.11199" x2="101.23375" y2="4.88" gradientUnits="userSpaceOnUse"><stop offset="0.50208" stop-color="#0040ef"/><stop offset="0.90941" stop-color="#8719e8"/></linearGradient></defs><title>400</title><path class="cls-1" d="M208.07356,171.28178q-16.79706-10.61508-26.30186-30.747-9.50981-20.1264-9.50881-48.03428,0-27.90537,9.50881-48.03528,9.50381-20.1264,26.30186-30.747,16.791-10.61658,38.27986-10.61959,21.48581,0,38.27785,10.61959,16.79406,10.62109,26.30186,30.747,9.50682,20.1309,9.50982,48.03528,0,27.90988-9.50982,48.03428-9.50981,20.13091-26.30186,30.747-16.79706,10.62109-38.27785,10.61959Q224.86762,181.90137,208.07356,171.28178Zm63.1-36.79715q9.01056-13.58051,9.01257-41.98413,0-28.39862-9.01257-41.98413-9.01957-13.58051-24.82015-13.584-15.561,0-24.57353,13.584-9.01959,13.585-9.01458,41.98413,0,28.40162,9.01458,41.98413,9.01056,13.585,24.57353,13.583Q262.155,148.06765,271.17357,134.48463Z"/><path class="cls-2" d="M280.17189,92.72c.00012-.07422.00219-.145.00219-.21948q0-28.39855-9.01257-41.98413-9.01959-13.58056-24.82019-13.584a32.54071,32.54071,0,0,0-4.48425.314A106.47861,106.47861,0,0,1,280.17189,92.72Z"/><path class="cls-3" d="M310.921,44.46533q-9.50976-20.12658-26.30182-30.74707Q267.82212,3.10181,246.34132,3.09863q-21.48577,0-38.27985,10.61963a65.56894,65.56894,0,0,0-6.64312,4.81861,105.8634,105.8634,0,0,1,40.43872,18.70947,32.54071,32.54071,0,0,1,4.48425-.314q15.80163,0,24.82019,13.584,9.01053,13.585,9.01257,41.98413c0,.07446-.00207.14526-.00219.21948a106.55521,106.55521,0,0,1-12.10834,86.10767,66.86634,66.86634,0,0,0,16.55566-7.5459q16.79408-10.615,26.30182-30.74707,9.50684-20.12622,9.50983-48.03418Q320.43086,64.59521,310.921,44.46533Z"/><path class="cls-4" d="M172.26289,91.375c-.00262.37622-.01208.74707-.01208,1.12549q0,27.90966,9.50878,48.03418,9.50382,20.131,26.30188,30.74707a67.93275,67.93275,0,0,0,28.35584,10.01562L174.64656,81.20361Z"/><path class="cls-2" d="M220.00929,72.5l-5.61859-1.40771a126.65322,126.65322,0,0,0-1.62537,21.4082q0,28.40148,9.01453,41.98413,9.01062,13.585,24.57355,13.583,15.80163,0,24.82019-13.583,9.01053-13.58057,9.01257-41.98413,0-28.39855-9.01257-41.98413-9.01961-13.58056-24.82019-13.584-15.561,0-24.57355,13.584a44.83192,44.83192,0,0,0-5.39368,11.95337l3.9032,8.8291C220.19166,71.69238,220.103,72.09985,220.00929,72.5Z"/><path class="cls-1" d="M216.38618,62.46973,198.2118,21.35791a75.45856,75.45856,0,0,0-16.44012,23.10742,91.48547,91.48547,0,0,0-5.9801,16.95606l38.59912,9.6709A73.53488,73.53488,0,0,1,216.38618,62.46973Z"/><path class="cls-5" d="M216.38618,62.46973,198.2118,21.35791a75.45856,75.45856,0,0,0-16.44012,23.10742,91.48547,91.48547,0,0,0-5.9801,16.95606l38.59912,9.6709A73.53488,73.53488,0,0,1,216.38618,62.46973Z"/><path class="cls-1" d="M375.63062,171.28178q-16.79706-10.61508-26.30187-30.747-9.50981-20.1264-9.5078-48.03428,0-27.90537,9.5078-48.03528,9.50381-20.1264,26.30187-30.747,16.791-10.61658,38.27985-10.61959,21.4858,0,38.27886,10.61959,16.79255,10.62109,26.30186,30.747Q487.9965,64.59612,488,92.5005q0,27.90988-9.50881,48.03428-9.50982,20.13091-26.30186,30.747-16.79706,10.62109-38.27886,10.61959Q392.42467,181.90137,375.63062,171.28178Zm63.1-36.79715q9.01208-13.58051,9.01358-41.98413,0-28.39862-9.01358-41.98413-9.01808-13.58051-24.82015-13.584-15.55945,0-24.57353,13.584-9.01809,13.585-9.01458,41.98413,0,28.40162,9.01458,41.98413,9.01206,13.585,24.57353,13.583Q429.712,148.06765,438.73062,134.48463Z"/><path class="cls-2" d="M413.94719,148.06665q15.77519-.01575,24.78345-13.582,6.564-9.89136,8.34033-27.66016A153.46474,153.46474,0,0,1,413.94719,148.06665Z"/><path class="cls-6" d="M478.4912,44.46533a77.95339,77.95339,0,0,0-12.78742-19.39209q.21434,4.06311.21881,8.17969A152.12435,152.12435,0,0,1,447.071,106.82446q-1.78373,17.755-8.34033,27.66016-9.00751,13.56921-24.78345,13.582a152.9765,152.9765,0,0,1-36.95611,24.0415q16.29794,9.7848,36.91937,9.79322,21.48586,0,38.27887-10.61963,16.7926-10.615,26.30188-30.74707Q487.99648,120.40845,488,92.50049,488,64.59521,478.4912,44.46533Z"/><path class="cls-7" d="M380.32241,92.50049c0-.74634.01288-1.47144.02222-2.20215L350.65975,41.77051q-.68124,1.32678-1.331,2.69482Q339.819,64.59595,339.821,92.50049q0,27.90966,9.50781,48.03418a76.687,76.687,0,0,0,14.43481,21.13891l20.22888-38.98632Q380.32714,110.60193,380.32241,92.50049Z"/><path class="cls-1" d="M123.48271,6.062H81.49858L65.81511,27.16333A81.60985,81.60985,0,0,1,94.64269,45.74048Z"/><path class="cls-1" d="M132.12633,110.03442v-32.352H114.42a81.49384,81.49384,0,0,1-21.31433,85.01734V178.938h39.02069V142.634h28.15405V110.03442Z"/><path class="cls-8" d="M118.61192,103.4873A81.41786,81.41786,0,0,0,114.42,77.68237H94.34075v32.352H47.911L94.64269,45.74048A81.60985,81.60985,0,0,0,65.81511,27.16333L0,115.7146V142.634H93.10564v20.06568A81.3027,81.3027,0,0,0,118.61192,103.4873Z"/><polygon class="cls-1" points="46.689 52.897 0 115.715 0 142.634 16.606 142.634 65.723 48.996 46.689 52.897"/><polygon class="cls-9" points="46.689 52.897 0 115.715 0 142.634 16.606 142.634 65.723 48.996 46.689 52.897"/><polygon class="cls-1" points="123.483 6.062 89.429 6.062 97.031 42.455 123.483 6.062"/><polygon class="cls-10" points="123.483 6.062 89.429 6.062 97.031 42.455 123.483 6.062"/></svg>