<svg width="4466" height="2443" viewBox="0 0 4466 2443" fill="none" xmlns="http://www.w3.org/2000/svg"><g filter="url(#filter0_f)"><ellipse cx="2005.2" cy="654.88" rx="93.208" ry="92.832" transform="rotate(-10.275 2005.2 654.88)" fill="url(#paint0_linear)"/></g><g filter="url(#filter1_f)"><ellipse cx="1844.01" cy="877.876" rx="222.653" ry="172.155" transform="rotate(-73.57 1844.01 877.876)" fill="url(#paint1_linear)"/></g><path opacity=".4" d="M4385.01 1460L2973.39 966.461l-145.41-116.709-59.47 77.014-137.96-46.926s-26.51 47.236-42.84 53.729c-16.33 6.493-95.56-114.84-103.6-108.071-8.03 6.77-75.76 47.562-75.76 47.562l-65.72-30.969-122.76 123.358-73.78-41.368-54.35 113.939-289.63-231.366L188.003 1419" stroke="#28DFE8" stroke-width="2" stroke-miterlimit="10"/><path opacity=".26" d="M4388.01 1421L2906.43 728.006l-229.67 240.547-334.03-402.856-23.42 58.221-84.48-107.517-122.41 335.236-138.19-120.472L184.001 955" stroke="#E2B72B" stroke-width="2" stroke-miterlimit="10"/><path opacity=".5" d="M4388.01 1327L2917.19 616.414l-98.11 98.993-72.02-34.789-154.18 98.581-157.54-203.097-65.3 86.379-252-91.043-143.91 256.843-75.75-36.284L186.004 1511" stroke="#EA596E" stroke-width="2" stroke-miterlimit="10"/><path d="M2143.59 561.602c-.72-2.647-3.09-4.318-4.5-4.655 2.3 1.011 4.56-.753 4.65-4.496-.28 2.526 1.8 4.574 4.51 4.656-3.04.779-4.95 2.93-4.66 4.495zm33.09 32.547c-.72-2.648-3.08-4.318-4.5-4.655 2.31 1.011 4.56-.753 4.66-4.496-.29 2.526 1.79 4.574 4.5 4.655-3 .78-4.91 2.897-4.66 4.496zm64.13 76.195c-.72-2.647-3.09-4.318-4.5-4.655 2.3 1.011 4.56-.753 4.65-4.495-.28 2.526 1.8 4.573 4.51 4.655-3 .78-4.91 2.931-4.66 4.495z" fill="#C9F4F4"/><path opacity=".5" d="M2194.6 699.323c-.33-1.15-1.36-1.896-1.98-2.045 1.03.434 1.98-.347 2.04-1.975-.12 1.107.8 2.024 1.98 2.045-1.32.324-2.17 1.28-2.04 1.975z" fill="#C9F4F4"/><path d="M2105.78 683.724c-.72-2.647-3.09-4.318-4.5-4.655 2.3 1.011 4.55-.753 4.65-4.496-.28 2.527 1.8 4.574 4.51 4.656-3 .78-4.91 2.896-4.66 4.495zm-16.09-179.615c-1.81-1.627-4.41-1.707-5.63-1.277 2.22-.378 2.99-2.791 1.27-5.63 1.04 2.029 3.57 2.524 5.63 1.277-1.87 2.083-2.26 4.572-1.27 5.63zm-8.29 71.489c-.72-2.647-3.09-4.318-4.51-4.655 2.31 1.011 4.56-.753 4.66-4.496-.29 2.527 1.8 4.574 4.5 4.656-2.99.745-4.9 2.896-4.65 4.495zm-65.42-77.708c-.72-2.647-3.09-4.318-4.51-4.655 2.31 1.011 4.56-.753 4.66-4.496-.29 2.527 1.8 4.574 4.5 4.656-3.03.779-4.94 2.895-4.65 4.495zm-18.01 116.563c-.72-2.647-3.09-4.318-4.51-4.655 2.31 1.011 4.56-.753 4.66-4.496-.29 2.527 1.8 4.574 4.5 4.656-3 .78-4.91 2.896-4.65 4.495z" fill="#C9F4F4"/><circle cx="1930.18" cy="658.091" transform="rotate(-105 1930.18 658.091)" fill="url(#paint2_linear)" r="72"/><circle cx="1831.59" cy="752.81" transform="rotate(-105 1831.59 752.81)" fill="url(#paint3_linear)" r="20.073"/><path d="M2867.33 576.214c.72 1.313 2.39 1.791 3.7 1.074 1.32-.716 45.79-26.624 45.07-27.878-.77-1.373-46.44 22.386-47.75 23.103-1.26.716-1.74 2.387-1.02 3.701z" fill="url(#paint4_linear)"/><path d="M2867.39 576.214c.66 1.134 2.09 1.552 3.22.955 1.14-.597 1.56-2.089.96-3.224-.66-1.134-2.09-1.552-3.22-.955-1.2.657-1.62 2.09-.96 3.224z" fill="url(#paint5_linear)"/><path opacity=".167" d="M2901.86 499.139c-.72-1.431-24.4 8.881-27.07 10.214-2.67 1.334-4.26 3.546-3.58 4.977.72 1.432 3.45 1.497 6.12.163 2.7-1.334 25.24-13.955 24.53-15.354z" fill="#fff"/><path opacity=".333" d="M2897.59 501.253c-.68-1.399-20.13 6.831-22.77 8.133-2.63 1.301-4.19 3.513-3.51 4.912.68 1.399 3.38 1.464 6.02.162 2.63-1.301 20.98-11.808 20.26-13.207z" fill="#fff"/><path opacity=".5" d="M2893.33 503.368c-.68-1.399-15.91 4.782-18.47 6.05-2.61 1.302-4.14 3.449-3.45 4.815.68 1.366 3.35 1.464 5.92.163 2.57-1.269 16.69-9.662 16-11.028z" fill="#fff"/><path opacity=".667" d="M2889.07 505.482c-.68-1.366-11.64 2.733-14.21 4.001-2.54 1.269-4.07 3.384-3.42 4.75.68 1.366 3.29 1.431 5.82.163 2.57-1.302 12.49-7.58 11.81-8.914z" fill="#fff"/><path opacity=".833" d="M2884.81 507.597c-.65-1.334-7.42.683-9.92 1.919-2.51 1.236-4 3.318-3.35 4.652.65 1.333 3.22 1.398 5.72.162 2.51-1.236 8.2-5.4 7.55-6.733z" fill="#fff"/><path d="M2880.55 509.712c-.65-1.302-3.19-1.367-5.63-.163-2.47 1.236-3.97 3.285-3.32 4.587.65 1.301 3.19 1.366 5.63.162 2.44-1.203 3.97-3.285 3.32-4.586z" fill="#fff"/><path opacity=".167" d="M2947.2 563.37c-.45-.935-15.98 5.83-17.72 6.699-1.74.87-2.8 2.32-2.35 3.254.45.934 2.26.966 4 .096 1.77-.837 16.52-9.115 16.07-10.049z" fill="#fff"/><path opacity=".333" d="M2944.4 564.754c-.45-.902-13.21 4.478-14.92 5.315-1.74.87-2.77 2.287-2.28 3.221.45.902 2.22.967 3.96.097 1.71-.838 13.69-7.698 13.24-8.633z" fill="#fff"/><path opacity=".5" d="M2941.63 566.14c-.45-.902-10.41 3.124-12.11 3.962-1.71.837-2.71 2.254-2.26 3.156.45.902 2.19.934 3.9.097 1.67-.805 10.89-6.313 10.47-7.215z" fill="#fff"/><path opacity=".667" d="M2938.82 567.525c-.45-.902-7.63 1.771-9.3 2.609-1.68.837-2.68 2.222-2.23 3.092.45.902 2.16.934 3.84.097 1.64-.806 8.15-4.896 7.69-5.798z" fill="#fff"/><path opacity=".833" d="M2936.02 568.909c-.42-.869-4.86.451-6.5 1.257-1.65.805-2.61 2.19-2.19 3.06.41.869 2.12.934 3.76.096 1.65-.805 5.38-3.543 4.93-4.413z" fill="#fff"/><path d="M2933.22 570.295c-.42-.87-2.09-.902-3.7-.097-1.61.805-2.58 2.158-2.16 2.996.42.869 2.09.901 3.7.096 1.61-.805 2.61-2.126 2.16-2.995z" fill="#fff"/><path d="M2929.14 508.634c.3.597 1.01.776 1.61.478.6-.299 20-11.581 19.64-12.178-.3-.597-20.24 9.79-20.77 10.089-.6.298-.78 1.014-.48 1.611z" fill="url(#paint6_linear)"/><path d="M2929.14 508.634c.3.478.89.657 1.37.418.48-.299.66-.895.42-1.373-.3-.478-.9-.657-1.37-.418-.48.239-.66.836-.42 1.373z" fill="url(#paint7_linear)"/><path d="M2519 876.5c21.5 206.5-105 228.87-195 210.41-30-6.15-63.49-24-72-62-15-67.001 72-93.001 106-42.001 15.87 23.801 18.43 54.501 0 86.001-40.72 69.62-186 114-295 100-180-23.12-301-234.001-148-437.501" stroke="#CAC4AE" stroke-width="2"/><path d="M2191.13 799.086l-3.97-4.973-8.76 3.511 2.49 7.047 5.95 1.179 4.29-6.764zm25.05-20.448l-4.17 1.319.24 6.538 5.14.104 2.16-3.578-3.37-4.383zm-20.29 14.027l-2.67.827.16 4.162 3.29.098 1.36-2.285-2.14-2.802zm-9.77-9.688l-2.67.891.15 4.163 3.3.033 1.37-2.285-2.15-2.802zm-15.46 22.267l-2.66.826.16 4.162 3.29.1 1.36-2.285-2.15-2.803zm63-31.519l-2.66.826.15 4.162 3.29.098 1.37-2.284-2.15-2.802z" fill="#FCA13D"/><path d="M2242.83 743.661l-2.67.892.09 4.155 3.3.033 1.43-2.278-2.15-2.802z" fill="#825325"/><path d="M2240.16 744.556l2.55 2.123-2.46 2.034-.09-4.157z" fill="#F9DA3E"/><path opacity=".5" d="M2216.18 778.637l-4.17 1.319 3.91 1.81 1.47 4.831 2.16-3.578-3.37-4.382zm17.48-4.912l-2.66.826 2.31 1.241 1.13 3.019 1.37-2.285-2.15-2.801zm-37.77 18.94l-2.67.827.16 4.162 3.29.098 1.36-2.285-2.14-2.802zm-4.77 6.413l-3.97-4.979-2.46 3.285.68 6.067 1.46 2.399 4.29-6.772zm-5-16.101l-2.67.891 2.63.684.82 3.511 1.37-2.285-2.15-2.801zm-15.46 22.267l-2.66.825 3.08 1.459.37 2.803 1.36-2.284-2.15-2.803z" fill="#693300"/><path d="M2022.95 748.922s19.09-6.82 20.47-7.755c1.37-.965 4.77-3.146 4.77-3.146s1.62-.28 2.18-.809c.56-.53.69-1.9.69-1.9s.53 1.37 2.99 1.775c2.47.405.69-.965 3.69 0 2.99.966 5.58 3.956 6.67 4.08 1.09.125 2.87-.685 2.87-.685s-1.09 2.71-.81 3.675c.28.966-.4 1.495-.4 1.495s-.69-.124-1.5.966c-.81 1.09-1.62 1.619-1.9 2.304-.29.686-1.5 0-1.5 0s-3.81.81-2.59 2.585c1.22 1.776 2.71 1.9 4.49 1.776 1.78-.125 4.09-1.09 4.24-1.62.13-.529.41-.965.82-1.09.4-.124 1.62.405 2.18-.124.53-.53 2.46-3.551 2.46-3.551s1.63-3.675 1.91-4.36c.28-.686.81-1.371.81-1.371s.68 2.18 1.62 3.146c.97.965 3.15-1.775 3.15-1.775s-.4-3.271-1.22-4.361c-.81-1.09-1.77-2.305-1.77-2.865 0-.561-.97-1.776-1.38-2.056-.4-.28-1.37-.405-1.49-.529-.13-.125-2.06-1.495-2.72-2.18-.68-.686-2.46-2.181-3.27-2.586-.82-.404-4.25-3.55-4.25-3.55s-3.15-2.305-5.74-3.395c-2.59-1.09-3.68-1.09-4.49-1.215-.81-.124-3.56 0-5.34 0-1.77 0-3.68.281-3.8 0-.13-.28-2.31-.965-3-.81-.68.125-20.34 4.361-20.34 4.361l1.5 25.57z" fill="#F76C26"/><path d="M2006.48 655.954s1.84-26.131-11.11-36.004c-10.61-8.098-28.2-9.002-39.93-3.738-11.2 5.046-20.91 21.522-20.91 21.522s-3.3 11.586-1.65 18.22c1.65 6.634 3.87 12.147 3.87 12.147s-3.87-3.302-8.3 0c-4.43 3.301-2.21 7.194-1.65 8.284.56 1.091.56 2.772.56 2.772s-4.99 6.074-7.21 11.587c-2.21 5.512-1.65 6.634 0 7.724 1.66 1.09 1.66 0 1.66 0s-2.22 14.358-6.09 23.764c-3.87 9.375-8.86 16.569-4.99 35.35 3.87 18.781 11.08 36.44 11.08 36.44s-5.5 16.04-3.28 22.114c2.21 6.073 4.43 9.935 6.65 13.268 2.21 3.301 2.77 5.513 3.3 8.285.53 2.772 2.22 2.772 3.87 1.09 1.65-1.651 2.78 6.073 3.31 9.375.53 3.301 1.65 9.374 4.43 5.512 2.77-3.862 2.21-17.13 2.77-23.764.57-6.634 1.1-8.285 1.1-10.496 0-2.211-1.1-1.651 0-3.862 1.09-2.211 2.21-3.301 2.21-4.983 0-1.651.56-1.09 2.78 6.073 2.21 7.195 9.95 27.066 3.87 33.7-6.09 6.634-23.25 16.569-27.11 19.871-3.87 3.301-7.74 7.817-10.52 10.558-2.78 2.741-1.09 1.651-6.08 4.423-4.99 2.772-9.95 0-9.39 6.073.56 6.073 4.43 7.724 8.3 12.707 3.86 4.984 5.52 8.846 6.08 9.936.56 1.09 2.21 2.772 2.21 2.772l-4.99 4.423s-.56 2.772-2.21 6.634c-1.66 3.862-3.87 2.772-6.09 3.301-2.21.561-3.86 3.862-3.3 8.845.56 4.984 1.09 8.846 0 9.936-1.09 1.09-2.78 1.651-1.66 3.862 1.13 2.211.57 2.772 0 4.983-.56 2.212-2.77 5.513 1.66 9.936 4.43 4.422 7.73 13.797 12.16 16.009 4.43 2.211 13.3 2.211 13.83-4.984.53-7.194-2.22-19.341-2.22-20.431 0-1.09-1.65-3.862 1.09-3.862 2.75 0 2.22.56 3.31-2.772 1.09-3.302 3.31-7.195 3.31-7.195s30.41-20.992 37.62-26.505c7.21-5.513 17.72-15.479 24.34-36.44 6.61-20.961 15.5-43.635 18.81-47.497 3.31-3.862 6.08-13.798 6.08-13.798l7.21-6.073-6.58-26.505s6.64-9.936 6.64-14.919c0-4.983-1.09-7.195-1.65-8.285l-.56-1.09s-1.09-5.513 0-9.375.56-5.512.56-7.194v-1.651l-3.87-24.294-5.52-12.707-6.09-8.285s1.1-2.772-.56-5.512c-1.65-2.741-4.43-7.195-4.43-7.195s1.09-8.285 3.87-11.586c2.78-3.302 1.65-4.984-.56-3.862-2.22 1.09 3.87-3.862 3.87-3.862s-4.99-1.651-5.52-1.651c-.53 0 4.99-4.983 5.52-6.634.53-1.713-3.9-4.485-3.9-4.485z" fill="#211B2A"/><path d="M1920.18 696.847c1.09 0 .56 1.09 3.31-3.862 2.74-4.952 6.08-9.375 8.3-11.057 2.21-1.651 1.65-3.301 2.77-3.862 1.13-.561 1.1 0 3.31 0 2.22 0 4.43-1.651 2.22-2.211-2.22-.561-4.99-1.09-7.21 1.09-2.22 2.211-6.65 7.194-9.39 11.057-2.75 3.862-3.31 5.512-3.31 7.194v1.651zm10.52-24.324s2.77-1.651 3.3-2.772c.53-1.122-.56-2.772-1.65-2.212-1.09.561-5.52 2.212-4.99 3.862.56 1.682 3.34 1.122 3.34 1.122zm10.51-22.083s-7.21-9.936-5.52-11.586c1.68-1.651 9.39-11.587 9.95-12.147.56-.561 9.39-8.846 14.94-10.496 5.56-1.651 5.53-1.651 5.53-1.651s-6.65 1.651-7.74 4.983c-1.09 3.333-3.34 5.482-3.34 5.482s-9.95 1.651-11.6 7.724c-1.66 6.074-1.1 15.479-1.1 15.479s-2.21 3.863 1.66 6.074 6.08 1.09 6.64 2.211c.56 1.121 1.66 0 1.66 0l-1.66-1.09-3.87-1.651s3.31 0 2.22-1.09c-1.09-1.09-2.22-1.09-2.22-1.09s-1.65-3.862-.56-4.422c1.09-.561 1.09-2.772 1.09-2.772l-2.21.56s.56-2.211 4.43-2.772c3.87-.56 4.43-1.09 6.08 2.772 1.66 3.862 1.09 7.724 0 8.846l-2.21 2.211 2.77 4.423.57-5.513 12.16.56s14.39.561 19.38 1.651c4.99 1.09 10.51 2.772 11.07 4.983.56 2.212-5.52 2.212-12.16 2.772-6.65.561-14.39 2.212-22.12 4.984-7.74 2.772-10.52 4.422-17.73 2.772-7.2-1.651-4.99-4.984-6.08-8.285-1.09-3.302-1.09-4.423-3.31-5.513l-2.21-1.09s0-3.862 2.21-4.983c2.16-1.246 3.28-2.336 3.28-2.336z" fill="#CAC4AE"/><path d="M1945.64 660.936s2.78 8.846 8.3 8.846c5.52 0 4.99-3.862 15.5-5.513 10.52-1.651 14.39 0 15.51-2.212 1.09-2.211-5.52-4.422-13.29-1.65-7.74 2.772-12.73 6.634-16.04 7.194-3.3.561-9.98-6.665-9.98-6.665zm-1.68 4.952s-1.66 1.651 0 2.212c1.65.56 1.09-2.212 1.65-2.212h-1.65zm47.04-2.18a2.773 2.773 0 100-5.544 2.77 2.77 0 00-2.77 2.772 2.77 2.77 0 002.77 2.772z" fill="#F76C26"/><path d="M1956.15 632.75s2.22 4.983 1.66 7.724c-.56 2.74-1.66 3.301-2.78 0-1.12-3.302 0-7.724 0-7.724h1.12zm4.4 14.918s1.66 3.301 6.65 4.423c4.99 1.09 17.72 1.65 23.8 2.211 6.09.561 14.39 2.772 14.39 2.772v2.211s-13.3-4.422-21.03-3.862c-7.74.561-18.82-1.65-22.12-3.862-3.34-2.242-1.69-3.893-1.69-3.893zm8.86-33.139s-6.64 3.301-9.39 5.513c-2.77 2.211-2.21 3.862-2.21 3.862s3.3.56 3.87 2.772c.56 2.211.56 8.285.56 8.285s0-6.634 2.21-9.936c2.22-3.301 5.52-7.724 6.09-7.724.56 0 2.77-1.09 0 2.772-2.78 3.862-1.66 11.057-1.1 12.707.57 1.651 1.1 2.212 1.1 2.212s-2.22-9.936 2.21-13.798 7.74-4.422 9.39-4.422c1.66 0 6.71-.841 11.7 3.208 4.31 3.488 7.8 7.163 7.8 7.163s-6.55-10.901-17.47-12.458c-5.62-.81-8.67 1.526-9.2 1.526-.53 0-.16-1.526-.16-1.526l-5.4-.156zm-15.47 60.765c0 .561 6.64 3.862 6.64 3.862s12.73-4.422 18.26-6.073c5.52-1.651 6.08-2.211 6.08-2.211s-7.74-.561-15.51 1.65c-7.73 2.212-15.47 2.772-15.47 2.772zm12.73 3.862s1.09 2.772-1.09 2.772h-3.87l1.09 3.302s2.78.56 4.43-1.651c1.65-2.211 2.21-4.423 2.21-4.423h-2.77zm-11.08 1.651c-.56 0-7.74-1.09-9.95 0-2.22 1.09-4.43 1.651-5.52 1.651h-4.43s1.65-1.09 5.52-2.212c3.87-1.09 6.08-1.09 8.3-1.09h6.08v1.651zm-21.59 1.651s-9.39 7.194-10.51 14.358c-1.09 7.194-4.99 19.341-8.3 30.367-3.31 11.025-2.78 17.13-2.78 24.293 0 7.164 2.31 21.74 2.31 21.74l5.74 17.255.81-8.628s-7.2-6.073-7.2-24.854.56-25.415 5.52-37.001c4.96-11.586 6.64-18.22 8.86-24.854 2.21-6.634 7.21-11.586 7.21-11.586l-1.66-1.09zm35.41 3.893l11.08 12.708s-3.87-7.195-6.09-9.936c-2.21-2.772-4.99-2.772-4.99-2.772zm11.08 3.301c-.56 0 4.43 5.513 4.43 5.513v-1.651l-4.43-3.862zm-2.78-4.422l6.09 6.073v-1.65l-6.09-4.423zm-6.08-4.423s10.51 4.983 13.29 7.724c2.78 2.741 7.21 6.634 7.21 6.634h1.65s-10.51-10.496-16.04-12.707c-5.55-2.18-6.11-1.651-6.11-1.651zm22.15 17.13s.56 2.772 0 3.301c-.56.53-1.09 1.091 0 0 1.09-1.09 1.09-1.65 1.09-2.211 0-.529-1.09-1.09-1.09-1.09zm3.87-17.13c-.56.561-4.43 2.772-4.43 3.302 0 .529 3.87 3.862 6.08 7.194 2.22 3.302 1.66 6.074 2.22 3.862.56-2.211.56-9.935 1.65-11.586 1.09-1.651 0-2.772 0-2.772h-5.52z" fill="#CAC4AE"/><path d="M2007.6 702.92s3.87-1.65 5.52-1.09c1.66.561 1.66 2.212 1.66 2.772 0 .561-1.66 5.513-1.66 5.513s3.87 0 4.43-3.302c.56-3.301.56-7.724-1.65-7.724-2.22 0-1.65.561-3.31 1.09-1.65.53-4.43.561-4.99.561-.56 0 0 2.18 0 2.18z" fill="#211B2A"/><path d="M2020.89 766.987s-3.31 8.285-3.31 10.496c0 2.211 0 4.983 1.66 1.09 1.65-3.862 3.87-5.513 3.87-7.724 0-2.211-2.22-3.862-2.22-3.862zm2.18 6.634s-1.65 6.634-2.77 8.845c-1.13 2.212-1.09 2.212-1.09 2.212s4.99-7.195 4.99-8.846c0-1.681-1.13-2.211-1.13-2.211z" fill="#F76C26"/><path d="M1950.6 855.347l-3.87 13.798s.56-.561-1.09-2.212c-1.65-1.65-2.78-1.65-2.22-.56.57 1.09 1.1 4.423 1.1 4.423l-3.87-1.091 1.09 3.302-3.31-2.211 3.31 7.194-7.74-7.194-.56 7.194s-1.65 0-3.31 1.09c-1.65 1.09-1.09 1.651-2.21 2.212-1.09.56-1.65 0-1.65 1.09s1.65 2.211 0 1.65c-1.66-.56-2.22-2.211-2.22-1.65v1.65s-1.65-2.211-2.21-2.772c-.57-.56-1.66-3.301-1.66-3.301s-.56 0-1.09 2.211c-.56 2.212-1.09 1.651-1.09 3.862 0 2.212-1.66 1.651-1.66 1.651v2.772c0 .561-1.09-2.211-1.09-3.301 0-1.09-1.09-2.772-1.09-.561s1.09 2.772 0 3.862c-1.09 1.09-1.09 1.09-1.65 2.772-.56 1.651-.56 2.772-1.09 3.301-.57.561-.57-.56-1.66 0-1.09.561-1.09.561-2.21 0-1.1-.56-1.1-.56-2.22-1.09-1.09-.56-1.09-1.65-1.09-.56 0 1.09-1.65 2.211-1.65 2.211s-2.78-2.772-1.66-4.423c1.09-1.65 3.31-3.862 7.21-4.422 3.87-.561 7.21-3.302 8.3-4.984 1.09-1.65 4.99-6.073 7.74-8.284 2.74-2.212 19.37-13.268 19.37-13.268l7.74-6.074-.69 1.713zm-21.03 55.813c1.09-1.09 2.22-3.862 3.87-6.073 1.65-2.212 3.31-5.513 4.43-2.772 1.12 2.741 0 6.634-3.31 8.845-3.3 2.212-4.43 2.212-4.99 2.212h-3.87s2.22 2.772 4.43 7.724c2.22 4.983 1.1 4.422 1.1 4.422s-1.66-1.65-2.78-1.09c-1.09.561-.56 1.09-1.65 1.09-1.1 0-1.1.561-2.22 0-1.09-.56-1.09-.56-1.09 0 0 .561-1.09-.56 0 1.651 1.09 2.211 2.21 7.724 2.78 7.724.56 0 .56 2.772.56 2.772l-12.17-12.147 5.52 10.496-3.87-.56-.56 3.862-6.64-3.302 2.21 6.634s-3.31 1.651-6.08 0c-2.78-1.65-5.52-3.862-4.43-6.634 1.09-2.772.56-2.772 3.87-3.301 3.3-.529 4.99-1.651 5.52-3.862.56-2.211 0-4.983 1.65-6.634 1.66-1.651 3.31-3.302 4.43-4.423 1.09-1.09 2.22-4.422 3.87-6.073 1.65-1.651 5.52-3.862 7.21-2.772 1.68 1.09 2.21 2.211 2.21 2.211zm-27.64 37.001s.56 2.772 1.09 3.302c.53.529 0 1.09 0 1.09s-.56 0-1.65-2.212c-1.09-2.211.56-2.18.56-2.18zm-3.24 2.523s-.1 1.9 1.03 3.551c1.12 1.65 1.09 0 1.09 0l3.3 2.772s1.1-1.09 0-2.212l-3.3-3.301c-.53-.53 0-.561 0-.561l-2.12-.249zm.46 9.063v3.333l3.87-1.122-2.21-1.09-1.66-1.121zm1.66 4.423s-1.09 1.09 0 1.651c1.09.56 1.09-.561 1.09-1.09v-1.651l-1.09 1.09zm21.59-144.703s3.3-5.512 3.87-6.073c.56-.561 2.21-4.983 1.09-6.634-1.09-1.651.56-7.724.56-7.724s0 11.057 1.65 8.845c1.66-2.211 5.52-6.073 5.52-6.073s-.56 2.211-.56 3.862c0 1.651 1.66 1.651 2.22 1.651.56 0 .56 1.09 0 1.09s-2.22 3.862-2.22 3.862h1.1l-.57 1.65s1.66 1.651 1.1 1.651c-.57 0-.57 1.09 1.09.561 1.65-.561 0 .56.56 1.65.56 1.091-1.09 3.302 0 1.651s1.65-2.211 1.65-2.211.56 1.651 2.22 1.09c1.65-.561.56-.561 0-1.651-.56-1.09-.56-.56-1.66-2.211-1.09-1.651-1.09-1.651-1.65-1.651-.56 0-1.09 1.09-.56 0s.56-2.211 2.21-2.211c1.66 0 3.31-1.09 2.78-1.09-.53 0-1.65-1.09-1.65-1.09s1.09.56 1.09-.561-.56-2.772-1.65-2.772c-1.1 0-3.31-2.772.56-1.651 3.87 1.09 6.64 2.212 4.99-1.09-1.65-3.301-3.87-8.845-8.3-11.056-4.43-2.212-10.51.56-12.73 4.983-2.21 4.423-4.43 10.496-3.87 14.919.56 4.422 1.16 8.284 1.16 8.284z" fill="#CAC4AE"/><path d="M1928.48 821.679s0-.561 1.09 0c1.09.56 4.43 3.301 4.43 3.301s-1.09-3.301-2.77-4.983c-1.66-1.651-2.78 0-2.78 0v1.682h.03zm2.22 17.13c1.22 0 2.21-1.367 2.21-3.053 0-1.685-.99-3.052-2.21-3.052-1.23 0-2.22 1.367-2.22 3.052 0 1.686.99 3.053 2.22 3.053zm-7.21-46.407l4.99-4.423s-4.43 6.073-4.99 7.724c-.56 1.651 7.21-8.845 11.07-7.724 3.87 1.121 12.17 7.195 12.17 7.195l-4.43-5.513 7.21 5.513s-.56-6.074-4.99-7.195c-4.43-1.09-11.61-1.09-11.61-1.09s-2.78-2.211 3.31-2.211c6.08 0 12.17 2.772 12.17 2.772s-3.31-4.423-6.65-4.984c-3.31-.56-7.74 0-7.74 0s-.56-1.09 4.99-2.211c5.56-1.121 8.86 1.09 8.86 1.09s-2.77-3.301-5.52-3.301c-2.77 0-2.21-1.091-2.21-1.091l4.99-1.65s5.52 2.211 8.86 3.301l3.31 1.09s-4.99-4.422-7.21-6.634c-2.22-2.211-1.09-3.862 2.78-1.09 3.87 2.772 4.43 2.772 4.43 2.772s-1.66-6.634-7.21-11.057c-5.52-4.422-4.99-5.512-9.95-3.301-4.96 2.211-11.61 7.195-11.61 7.195s3.87-8.285 9.95-9.936c6.09-1.651 12.73-2.211 17.16.561s5 1.09 1.66-1.651-7.24-5.575-7.24-5.575 7.74 2.211 9.39 4.423c1.65 2.211 0-1.09-3.87-4.423s-5.52-4.423-4.43-4.423c1.09 0 8.86 3.302 8.86 3.302s0-4.423-2.78-6.634c-2.77-2.212-6.08-2.772-6.64-4.984-.56-2.211-.53-3.83-2.72-6.042-2.18-2.211-3.86-3.301-4.99-3.862l-3.3-1.651s4.43-2.211 7.2-1.65c2.78.56 6.65 4.422 10.52 5.512 3.87 1.091 5.52.561 5.52.561s-4.43-3.862-7.21-6.073c-2.77-2.212-7.2-3.862-7.74-4.423-.56-.561-3.3-1.651-1.09-1.651 2.22 0 3.87 1.09 7.21 1.09 3.31 0 6.08-1.65 6.65-2.211.56-.561.56-1.09-2.78-2.211-3.34-1.122-5.52-1.651-7.74-1.651-2.21 0-3.31 1.09-3.31 1.09s4.43-2.772 5-4.423c.56-1.65-1.1-2.211 1.65-2.211 2.78 0 3.31 1.651 4.43 0 1.12-1.651 0 0 0-3.862s.56-6.073 1.09-6.634c.53-.561-2.21-4.423-7.74-1.651-5.52 2.772-10.51 6.634-12.16 10.496-1.66 3.862-2.22 6.634-2.22 7.195 0 .561-.56 2.211-.56 2.211l6.58-6.104s-7.2 7.724-8.3 10.496c-1.09 2.772 0 1.651.57 1.09.56-.561 9.39-8.285 9.39-8.285s-8.86 9.375-9.96 13.798c-1.09 4.422-1.09 6.634-1.09 6.073 0-.56 3.87-4.983 3.87-4.423 0 .561-5.52 13.269-7.74 16.57-2.21 3.301-4.43 7.724-3.3 7.724 1.09 0 1.09 1.09 0 2.211-1.1 1.09-3.87 6.634-2.78 8.846 1.09 2.211 3.31 1.09 3.31 1.09s-1.09 1.651-2.78 7.194c-1.65 5.513-2.21 8.285-.56 8.285s3.31-5.513 8.3-4.983c4.99.561 8.86 1.09 6.08 1.651-2.78.56-6.08-1.09-9.39 2.772-3.31 3.862-6.08 9.374-6.08 9.374v2.772h1.09v.063z" fill="#CAC4AE"/><path d="M1929.04 750.417c.56 0 4.43-4.983 8.86-5.512 4.43-.561 6.65-1.09 6.65-1.09s-3.31-.561-3.31-1.09c0-.53 1.09-2.212 1.09-2.212s.56 0-3.87 2.212c-4.43 2.211-8.86 5.512-8.86 5.512l-.56 2.18zm6.62-1.65s-5 3.301-4.43 4.422c.56 1.122 2.77.561 2.21.561s2.22-2.772 2.22-2.772v-2.211zm1.12 4.952s-4.43 3.301-4.99 4.422c-.56 1.122-1.09 3.302 0 2.212 1.09-1.09 4.43-4.423 6.08-5.513 1.65-1.09 1.09-1.09 1.09-1.09h-2.18v-.031zm12.42 168.653s27.67-6.696 38.09-34.883c10.42-28.186 23.59-48.057 20.03-63.381-3.56-15.324-5.49 4.921-3.28 9.593 2.19 4.641-13.44 33.949-13.44 33.949s3.9 16.195-15.17 33.575c-17.78 16.195-1.34 5.668-8.17 10.122s-18.06 11.025-18.06 11.025zm6.8 5.794l-24.87 15.074 19.97-14.95 4.9-.124zm56.56-208.863s5.93 11.836 6.55 17.13c.63 5.295-11.85 9.033-11.85 9.033s9.17-5.233 7.17-11.524c-3.74-11.836-1.87-14.639-1.87-14.639z" fill="#F76C26"/><path d="M1947.2 897.954l-5.12-3.488 1.38-1.994c.28-.436.65-.685 1.06-.778.4-.094.81-.031 1.18.249.28.187.47.436.56.747.1.312.1.592-.03.873l.03.031c.25-.312.57-.467.94-.53.37-.062.72.031 1.06.281.44.311.72.685.75 1.152.06.467-.09.965-.44 1.464l-1.37 1.993zm-2.37-2.865l.56-.81c.19-.28.28-.561.28-.81-.03-.249-.15-.436-.37-.623a.875.875 0 00-.66-.156c-.22.063-.4.219-.56.468l-.65.934 1.4.997zm2.9.56c.44-.623.37-1.121-.16-1.495-.53-.373-1.03-.218-1.46.436l-.66.935 1.59 1.09.69-.966zm3.71-2.74l-4.3-2.959-.81 1.152-.78-.529 2.06-3.021.78.529-.82 1.153 4.31 2.958-.44.717zm1.78-3.364c-.72.093-1.5-.093-2.34-.561-.84-.467-1.43-1.027-1.71-1.681-.29-.655-.25-1.309.09-1.932a2.01 2.01 0 011.28-1.027c.56-.156 1.12-.094 1.75.155l-.44.779c-.38-.125-.72-.156-1.03-.062-.31.093-.56.28-.72.592-.22.373-.22.778.03 1.214.22.436.66.81 1.25 1.153.59.342 1.16.498 1.62.467.47-.031.85-.249 1.03-.623.16-.312.22-.592.16-.903-.06-.312-.25-.561-.53-.81l.43-.779c.54.405.88.841 1.03 1.371a2.18 2.18 0 01-.21 1.588c-.44.592-.97.966-1.69 1.059zm.31-5.202l-.84-.405 1.16-2.335.84.404-1.16 2.336zm3.59-6.135l-.69 1.993 1.47 1.028-.34.997-5.65-4.111.38-1.091 6.98.25-.34 1.027-1.81-.093zm-1.5 1.464l.53-1.526-2.96-.156v.031l2.43 1.651zm-1.84-4.485l.31-.935 6.09 2.087-.31.935-6.09-2.087zm4-4.423c.5-.187 1.12-.156 1.81.062.68.218 1.18.561 1.49.997.32.436.38.903.22 1.432-.19.623-.59.966-1.18 1.028v.031l2.15.686-.31.934-5.87-1.869.28-.903.75.249v-.031c-.22-.187-.34-.436-.4-.716-.07-.281-.07-.561.03-.841.18-.53.53-.903 1.03-1.059zm2.46 1.619c-.19-.28-.53-.467-.93-.623-.44-.124-.82-.155-1.13-.062a.891.891 0 00-.62.623c-.1.312-.03.592.15.872.19.281.53.467.94.623.44.125.81.156 1.12.062a.901.901 0 00.63-.623c.09-.311.03-.591-.16-.872zm-4.55-3.208l.21-.934 2.53.592v-.031c-.5-.374-.68-.904-.53-1.558.13-.467.34-.809.72-.996.37-.218.81-.249 1.34-.125l2.9.685-.22.966-2.68-.654c-.31-.062-.59-.062-.81.062a.921.921 0 00-.44.623c-.06.311-.03.561.13.81.15.249.4.405.75.467l2.59.623-.22.965-6.27-1.495zm6.95-3.768c-.28.187-.62.28-1.03.218-.4-.031-.71-.187-.93-.436-.22-.249-.31-.592-.31-1.028l.03-.903-.35-.031c-.25-.031-.43 0-.59.124-.15.094-.22.25-.25.468a.58.58 0 00.13.467c.09.124.25.218.43.28l-.06.716c-.44-.062-.75-.218-1-.529-.25-.28-.34-.654-.31-1.059.03-.436.22-.748.53-.997.31-.218.69-.311 1.16-.28l3.18.343-.1.747-.75-.093v.031c.25.124.41.28.54.498.12.218.15.436.15.654-.03.343-.19.623-.47.81zm-.53-1.744c-.15-.187-.37-.281-.65-.312l-.35-.031v.779c0 .436.19.685.57.716.18.031.34-.031.46-.124.13-.094.19-.25.22-.405a.833.833 0 00-.25-.623z" fill="#CAC4AE"/><path d="M2015.37 748.237l2.49-2.772-2.49 10.995v-8.223z" fill="#F76C26"/><path d="M2021.7 749.545s19.1-6.82 20.47-7.755c1.37-.965 4.77-3.145 4.77-3.145s1.62-.281 2.19-.81c.56-.53.68-1.9.68-1.9s.53 1.37 3 1.775c2.46.405.68-.965 3.68 0 2.99.966 5.58 3.956 6.67 4.08 1.1.125 2.88-.685 2.88-.685s-1.1 2.71-.82 3.675c.28.966-.4 1.495-.4 1.495s-.69-.124-1.5.966c-.81 1.09-1.62 1.619-1.9 2.304-.28.686-1.5 0-1.5 0s-3.81.81-2.59 2.586c1.22 1.775 2.72 1.899 4.49 1.775 1.78-.125 4.09-1.09 4.25-1.62.12-.529.4-.965.81-1.09.4-.124 1.62.405 2.18-.124.53-.53 2.47-3.551 2.47-3.551s1.62-3.675 1.9-4.36c.28-.686.81-1.371.81-1.371s.69 2.18 1.62 3.146c.97.965 3.15-1.775 3.15-1.775s-.4-3.271-1.21-4.361c-.81-1.09-1.78-2.305-1.78-2.865 0-.561-.97-1.775-1.37-2.056-.41-.28-1.38-.405-1.5-.529-.13-.125-2.06-1.495-2.72-2.18-.68-.686-2.46-2.181-3.27-2.586-.81-.404-4.24-3.55-4.24-3.55s-3.16-2.305-5.75-3.395c-2.58-1.09-3.68-1.09-4.49-1.215-.81-.124-3.55 0-5.33 0-1.78 0-3.68.281-3.81 0-.12-.28-2.31-.965-2.99-.809-.69.124-20.35 4.36-20.35 4.36l1.5 25.57z" fill="#211B2A"/><path d="M2043.54 720.424s-1.09-2.585-2.99-.81c-1.91 1.776-1.78 6.821 0 10.216 1.77 3.395 3.96 6.946 5.17 7.911 1.22.966 1.63 1.09 2.88 1.215 1.24.124 1.02-2.18 1.02-2.18s-3.61 1.899-5.8-4.517c-2.18-6.416-2.87-8.845-2.31-10.62.53-1.775 2.03-1.215 2.03-1.215z" fill="#CAC4AE"/><path d="M2049.69 732.82s2.18-.966 3.4-1.495c1.21-.53-.69-2.18-1.78-1.37-1.09.809-1.62 2.865-1.62 2.865zm4.9 3.271l.96-1.527h2.03l-2.99 1.527z" stroke="#F76C26" stroke-miterlimit="10"/><path d="M2052.4 723.819s4.59 3.301 5.4 5.762c.81 2.46 1.15 5.139 1.96 6.509.82 1.371 2.44 3.395 1.35 4.423-1.06 1.028-3.53 1.838-4.22.747-.68-1.09-3.27-3.799-3.4-4.485-.12-.685-1.9.686-4.65-.685-2.71-1.37-3.55-2.46-3.68-4.765-.12-2.305.13-4.236 0-4.89-.12-.654.97-3.146 3.28-2.585 2.31.561 3.96-.031 3.96-.031z" fill="#211B2A"/><path d="M2043.54 723.694c-.12-.28-1.62 3.8 0 3.271 1.62-.53 2.18-2.99 3-1.62.81 1.371.81 3.395 0 4.361-.82.965-1.1 1.37-.13 2.46.97 1.09.81.81 2.19 1.215 1.37.405 1.9 0 2.99.405 1.09.405 1.5-1.09 1.9 0 .41 1.09.97 2.304 1.1 2.99.12.685 1.49 2.46 2.3 3.145.82.686 3.56-.965 3.56-.965s1.22 1.526 0 2.055c-1.22.53-3.56.25-4.37-.84-.81-1.091-2.59-3.395-2.59-3.395s-.68.155-1.9 0c-1.22-.156-1.47-.966-4.06-1.433-2.62-.467-4.52-2.523-5.61-4.703-1.09-2.18-1.22-4.236-1.09-4.641.12-.405 2.71-2.305 2.71-2.305z" fill="#CAC4AE"/><path d="M2057.8 729.581s3.21-1.682 3.21-.592c0 1.09-2.99 4.08.53 2.866 3.53-1.215 6.96-1.091 5.74.28-1.21 1.37-.68 2.585.28 2.46.97-.124 3.69 1.495 3.69 1.495l1.37-.685s.12 1.775 0 2.99c-.13 1.215.12 1.215 0 1.215-.13 0-.69-.53-2.31-1.215s-2.31.125-1.62 1.215c.68 1.09.12.685-.28 2.18-.41 1.495.12 2.46 0 2.865-.13.405-.28.966-.53 1.215-.29.28.96-1.09-.29 0a22.019 22.019 0 00-2.18 2.305s.13 1.09.13 1.37c0 .281.12.81-1.91 1.776-2.06.965-5.05 1.993-5.05 1.993s-.66.031-.94-1.184c-.28-1.214-.59-1.619.88-2.118 1.46-.467 3.21-.467 3.08-.467-.12 0 .57-.872 1.19-1.588.59-.717 1.15-1.121 1.84-1.682.69-.53.47-2.025.84-3.177.38-1.183.66-2.118.66-2.118s-.81 2.18-2.87.81-2.19-1.37-2.19-1.37 1.22-.312 0-2.336c-1.21-2.025-2.59-5.389-2.59-5.389l-.68-3.114zm14.79 11.399c-.69.125-1.63 2.99-2.87 5.046-1.22 2.056-3 2.99-3 2.99s-.4 1.215.97 1.62 2.31-1.62 3.56-4.485c1.21-2.866 1.34-5.171 1.34-5.171zm3.15 1.495h2.18l1.09.685s-1.31 1.994-2.21 1.9c-.91-.124-2.06-1.931-2.06-1.931l1-.654z" fill="#CAC4AE"/><path d="M2069.59 731.294s-.4 1.215-1.62 1.495c-1.22.28.81-1.495.81-1.495h.81zm-24.43-8.845c.85-.281 1.75-.468 2.66-.561.43-.031.9-.062 1.34-.062.46 0 .9.031 1.34.062.9.093 1.78.311 2.65.623.84.28 1.69.654 2.47 1.121.78.467 1.52.934 2.27 1.433.75.498 1.5.965 2.25 1.464 1.5.996 2.96 2.024 4.4 3.114v.031c-1.53-.934-3.03-1.931-4.56-2.896l-2.24-1.495c-.75-.498-1.5-.997-2.22-1.526-.37-.249-.75-.499-1.15-.685-.19-.094-.41-.187-.63-.281-.09-.031-.22-.093-.31-.124-.09-.032-.22-.063-.31-.094-.44-.124-.87-.249-1.31-.311-.44-.094-.87-.125-1.34-.156a19.119 19.119 0 00-5.31.343zm-2.31 14.296s-16.9 8.16-19.09 9.125c-2.18.966-1.09 2.056-1.09 2.056s16.5-6.541 18.97-6.946c2.46-.404 3.55-2.055 3.55-2.055l-2.34-2.18z" fill="#CAC4AE"/><path d="M2044.79 736.744l1.25-.685s.78.872 1.87.934c1.09.063 1.5-.654 1.09.032-.4.685-.53.404-1.5.809-.96.405-.68.125-1.21 0-.53-.124-1.5-1.09-1.5-1.09z" fill="#211B2A"/><path d="M1974.81 621.194s8.74 6.541 13.42 13.704c4.68 7.164 6.64 19.902 6.64 19.902l8.8 1.807s-3.9-18.625-9.83-23.92c-5.93-5.295-19.03-11.493-19.03-11.493zm6.4.717s13.32 5.544 16.03 9.343c2.75 3.8 5.15 7.88 5.15 7.88s-.5-5.917-5.71-11.337c-5.18-5.357-15.47-5.886-15.47-5.886z" fill="#786EDF"/><path d="M1981.36 631.161s5.84 9.686 6.09 12.614c.25 2.928.28 5.824.28 5.824s1.74-2.429.59-7.381-6.96-11.057-6.96-11.057zm-58.65 333.258s4.68 12.77 0 16.507c-4.68 3.738-10.92 3.738-10.92 3.738s6.55-1.558 7.8-5.295c1.25-3.738 3.12-14.95 3.12-14.95z" fill="#F76C26"/><path d="M2081.07 764.246l60.25-7.631L2162 693.95l-8.7-1.432-17.44 56.871-54.79 9.78v5.077z" fill="#211B2A"/><path d="M2134.8 749.016l17.75-55.408 6.55.343-19.59 57.962-4.71-2.897z" fill="#CAC4AE"/><path d="M2130.05 750.822l-50.41 7.257 1.43 3.987 55.88-8.347-6.9-2.897z" fill="#786EDF"/><path d="M2152.64 693.452l-13.1 58.554 19.65-58.554h-6.55z" fill="#F76C26"/><defs><linearGradient id="paint0_linear" x1="2005.2" y1="562.048" x2="2103.06" y2="715.981" gradientUnits="userSpaceOnUse"><stop stop-color="#722C79"/><stop offset="1" stop-color="#230446"/></linearGradient><linearGradient id="paint1_linear" x1="1844.01" y1="705.721" x2="2003.08" y2="1028.05" gradientUnits="userSpaceOnUse"><stop stop-color="#230446"/><stop offset=".839" stop-color="#76265D"/></linearGradient><linearGradient id="paint2_linear" x1="1930.18" y1="586.091" x2="1930.18" y2="730.091" gradientUnits="userSpaceOnUse"><stop stop-color="#230446"/><stop offset="1" stop-color="#7F1BE8"/></linearGradient><linearGradient id="paint3_linear" x1="1832.68" y1="748.356" x2="1833.86" y2="778.697" gradientUnits="userSpaceOnUse"><stop stop-color="#230446"/><stop offset="1" stop-color="#7F1BE8"/></linearGradient><linearGradient id="paint4_linear" x1="2867.31" y1="575.903" x2="2916.07" y2="549.066" gradientUnits="userSpaceOnUse"><stop stop-color="#9E38D2"/><stop offset="1" stop-color="#9E38D2" stop-opacity=".1"/></linearGradient><linearGradient id="paint5_linear" x1="2868.79" y1="577.029" x2="2870.1" y2="572.486" gradientUnits="userSpaceOnUse"><stop stop-color="#FBF25E"/><stop offset=".535" stop-color="#FCF6A6" stop-opacity=".518"/><stop offset="1" stop-color="#FEFAE8" stop-opacity=".1"/></linearGradient><linearGradient id="paint6_linear" x1="2929.14" y1="508.318" x2="2950.4" y2="496.614" gradientUnits="userSpaceOnUse"><stop stop-color="#9E38D2"/><stop offset="1" stop-color="#9E38D2" stop-opacity=".1"/></linearGradient><linearGradient id="paint7_linear" x1="2929.78" y1="508.808" x2="2930.35" y2="506.827" gradientUnits="userSpaceOnUse"><stop stop-color="#FBF25E"/><stop offset=".535" stop-color="#FCF6A6" stop-opacity=".518"/><stop offset="1" stop-color="#FEFAE8" stop-opacity=".1"/></linearGradient><filter id="filter0_f" x="1851.93" y="501.91" width="306.545" height="305.939" filterUnits="userSpaceOnUse" color-interpolation-filters="sRGB"><feFlood flood-opacity="0" result="BackgroundImageFix"/><feBlend in="SourceGraphic" in2="BackgroundImageFix" result="shape"/><feGaussianBlur stdDeviation="22.5" result="effect1_foregroundBlur"/></filter><filter id="filter1_f" x="1520.9" y="520.622" width="646.203" height="714.508" filterUnits="userSpaceOnUse" color-interpolation-filters="sRGB"><feFlood flood-opacity="0" result="BackgroundImageFix"/><feBlend in="SourceGraphic" in2="BackgroundImageFix" result="shape"/><feGaussianBlur stdDeviation="47.5" result="effect1_foregroundBlur"/></filter></defs></svg>