<svg width="265" height="373" viewBox="0 0 265 373" fill="none" xmlns="http://www.w3.org/2000/svg">
<g clip-path="url(#clip0_1314_20730)">
<path d="M139.052 136.013C139.052 136.013 119.959 129.192 118.586 128.257C117.213 127.292 113.813 125.112 113.813 125.112C113.813 125.112 112.19 124.831 111.629 124.302C111.067 123.773 110.942 122.402 110.942 122.402C110.942 122.402 110.412 123.773 107.947 124.177C105.483 124.582 107.261 123.212 104.266 124.177C101.271 125.143 98.6814 128.133 97.5895 128.257C96.4976 128.382 94.7192 127.572 94.7192 127.572C94.7192 127.572 95.8112 130.282 95.5304 131.247C95.2496 132.213 95.936 132.742 95.936 132.742C95.936 132.742 96.6223 132.618 97.4335 133.708C98.2447 134.798 99.0558 135.328 99.3366 136.013C99.6174 136.698 100.834 136.013 100.834 136.013C100.834 136.013 104.64 136.823 103.424 138.598C102.207 140.373 100.709 140.498 98.931 140.373C97.1527 140.249 94.844 139.283 94.688 138.754C94.5632 138.224 94.2825 137.788 93.8769 137.663C93.4713 137.539 92.2546 138.068 91.693 137.539C91.1626 137.009 89.2283 133.988 89.2283 133.988C89.2283 133.988 87.606 130.313 87.3252 129.628C87.0444 128.943 86.514 128.257 86.514 128.257C86.514 128.257 85.8277 130.438 84.8917 131.403C83.9246 132.369 81.7407 129.628 81.7407 129.628C81.7407 129.628 82.1462 126.358 82.9574 125.268C83.7686 124.177 84.7357 122.963 84.7357 122.402C84.7357 121.841 85.7029 120.627 86.1084 120.346C86.514 120.066 87.4812 119.942 87.606 119.817C87.7308 119.692 89.6651 118.322 90.3202 117.637C91.0066 116.952 92.7849 115.457 93.5961 115.052C94.4072 114.647 97.8391 111.501 97.8391 111.501C97.8391 111.501 100.99 109.196 103.58 108.106C106.169 107.016 107.261 107.016 108.072 106.892C108.883 106.767 111.629 106.892 113.407 106.892C115.185 106.892 117.089 107.172 117.213 106.892C117.338 106.611 119.522 105.926 120.208 106.082C120.895 106.206 140.55 110.442 140.55 110.442L139.052 136.013Z" fill="#F76C26"/>
<path d="M155.524 43.0442C155.524 43.0442 153.683 16.913 166.63 7.03987C177.238 -1.058 194.834 -1.96122 206.564 3.30239C217.765 8.34798 227.467 24.824 227.467 24.824C227.467 24.824 230.774 36.4102 229.121 43.0442C227.467 49.6782 225.252 55.191 225.252 55.191C225.252 55.191 229.121 51.8896 233.551 55.191C237.981 58.4924 235.766 62.3856 235.205 63.4757C234.643 64.5658 234.643 66.2477 234.643 66.2477C234.643 66.2477 239.635 72.3211 241.85 77.8339C244.065 83.3466 243.503 84.4679 241.85 85.558C240.196 86.6481 240.196 85.558 240.196 85.558C240.196 85.558 242.411 99.9161 246.28 109.322C250.149 118.697 255.14 125.892 251.272 144.672C247.403 163.453 240.196 181.113 240.196 181.113C240.196 181.113 245.687 197.153 243.472 203.226C241.257 209.3 239.042 213.162 236.827 216.494C234.612 219.796 234.05 222.007 233.52 224.779C232.989 227.551 231.305 227.551 229.651 225.869C227.998 224.218 226.875 231.942 226.344 235.244C225.814 238.545 224.691 244.619 221.914 240.757C219.137 236.895 219.699 223.627 219.137 216.993C218.576 210.359 218.045 208.708 218.045 206.496C218.045 204.285 219.137 204.846 218.045 202.634C216.953 200.423 215.83 199.333 215.83 197.651C215.83 196 215.269 196.561 213.054 203.724C210.839 210.919 203.101 230.79 209.185 237.424C215.269 244.058 232.428 253.994 236.296 257.295C240.165 260.596 244.034 265.113 246.81 267.853C249.587 270.594 247.902 269.504 252.894 272.276C257.886 275.048 262.846 272.276 262.285 278.349C261.723 284.423 257.855 286.074 253.986 291.057C250.117 296.04 248.464 299.902 247.902 300.992C247.341 302.082 245.687 303.764 245.687 303.764L250.679 308.187C250.679 308.187 251.241 310.959 252.894 314.821C254.548 318.683 256.763 317.593 258.978 318.122C261.193 318.683 262.846 321.984 262.285 326.968C261.723 331.951 261.193 335.813 262.285 336.903C263.377 337.993 265.062 338.554 263.938 340.765C262.815 342.977 263.377 343.537 263.938 345.749C264.5 347.96 266.715 351.261 262.285 355.684C257.855 360.107 254.548 369.482 250.117 371.693C245.687 373.904 236.827 373.904 236.296 366.71C235.766 359.515 238.512 347.368 238.512 346.278C238.512 345.188 240.165 342.416 237.42 342.416C234.674 342.416 235.205 342.977 234.113 339.644C233.021 336.343 230.806 332.449 230.806 332.449C230.806 332.449 200.387 311.457 193.18 305.944C185.973 300.432 175.459 290.465 168.845 269.504C162.231 248.543 153.34 225.869 150.033 222.007C146.726 218.145 143.949 208.209 143.949 208.209L136.742 202.136L143.325 175.631C143.325 175.631 136.68 165.696 136.68 160.712C136.68 155.729 137.772 153.518 138.333 152.428C138.895 151.338 138.895 151.338 138.895 151.338C138.895 151.338 139.987 145.825 138.895 141.963C137.803 138.101 138.333 136.45 138.333 134.768C138.333 133.086 138.333 133.117 138.333 133.117L142.202 108.824L147.724 96.1164L153.808 87.8316C153.808 87.8316 152.716 85.0597 154.369 82.3188C156.023 79.578 158.799 75.1242 158.799 75.1242C158.799 75.1242 157.708 66.8395 154.931 63.538C152.154 60.2366 153.277 58.5547 155.492 59.676C157.707 60.7661 151.624 55.8139 151.624 55.8139C151.624 55.8139 156.616 54.1632 157.146 54.1632C157.676 54.1632 152.154 49.1799 151.624 47.5292C151.093 45.8162 155.524 43.0442 155.524 43.0442Z" fill="#211B2A"/>
<path d="M241.82 83.9372C240.728 83.9372 241.259 85.0273 238.513 80.0752C235.768 75.123 232.43 70.7003 230.214 69.0185C227.999 67.3677 228.561 65.717 227.438 65.1564C226.315 64.5958 226.346 65.1564 224.131 65.1564C221.916 65.1564 219.701 63.5057 221.916 62.9451C224.131 62.3844 226.907 61.855 229.123 64.0352C231.338 66.2465 235.768 71.2298 238.513 75.0919C241.259 78.9539 241.82 80.6046 241.82 82.2865C241.82 83.9684 241.82 83.9372 241.82 83.9372Z" fill="#CAC4AE"/>
<path d="M231.306 59.6129C231.306 59.6129 228.53 57.9621 227.999 56.8409C227.469 55.7197 228.561 54.0689 229.653 54.6296C230.745 55.1902 235.175 56.8409 234.645 58.4916C234.083 60.1735 231.306 59.6129 231.306 59.6129Z" fill="#CAC4AE"/>
<path d="M220.792 37.5302C220.792 37.5302 227.999 27.5947 226.314 25.944C224.629 24.2933 216.923 14.3578 216.362 13.7972C215.8 13.2366 206.971 4.95183 201.418 3.30111C195.864 1.65039 195.896 1.65039 195.896 1.65039C195.896 1.65039 202.541 3.30111 203.633 6.63369C204.725 9.96627 206.971 12.1153 206.971 12.1153C206.971 12.1153 216.923 13.766 218.577 19.8394C220.23 25.9128 219.669 35.3188 219.669 35.3188C219.669 35.3188 221.884 39.1809 218.015 41.3922C214.147 43.6035 211.932 42.4823 211.37 43.6035C210.808 44.7248 209.717 43.6035 209.717 43.6035L211.37 42.5135L215.239 40.8627C215.239 40.8627 211.932 40.8627 213.024 39.7726C214.115 38.6825 215.239 38.6825 215.239 38.6825C215.239 38.6825 216.892 34.8205 215.8 34.2599C214.708 33.6992 214.708 31.4879 214.708 31.4879L216.923 32.0485C216.923 32.0485 216.362 29.8372 212.493 29.2766C208.625 28.7159 208.063 28.1865 206.409 32.0485C204.756 35.9106 205.318 39.7726 206.409 40.8939C207.501 41.984 208.625 43.1052 208.625 43.1052L205.848 47.5279L205.286 42.0151L193.119 42.5757C193.119 42.5757 178.736 43.1364 173.745 44.2265C168.753 45.3166 163.231 46.9984 162.669 49.2098C162.108 51.4211 168.191 51.4211 174.837 51.9817C181.482 52.5423 189.219 54.1931 196.956 56.965C204.694 59.737 207.47 61.3877 214.677 59.737C221.884 58.0863 219.669 54.7537 220.761 51.4522C221.853 48.1508 221.853 47.0296 224.068 45.9395C226.283 44.8494 226.283 44.8494 226.283 44.8494C226.283 44.8494 226.283 40.9873 224.068 39.8661C221.915 38.6202 220.792 37.5302 220.792 37.5302Z" fill="#CAC4AE"/>
<path d="M216.362 48.0266C216.362 48.0266 213.586 56.8719 208.064 56.8719C202.541 56.8719 203.072 53.0099 192.558 51.3591C182.044 49.7084 178.175 51.3591 177.052 49.1478C175.96 46.9365 182.574 44.7251 190.343 47.4971C198.08 50.2691 203.072 54.1311 206.379 54.6917C209.686 55.2524 216.362 48.0266 216.362 48.0266Z" fill="#F76C26"/>
<path d="M218.046 52.9785C218.046 52.9785 219.7 54.6292 218.046 55.1899C216.393 55.7505 216.954 52.9785 216.393 52.9785C215.831 52.9785 218.046 52.9785 218.046 52.9785Z" fill="#F76C26"/>
<path d="M171 50.7983C169.466 50.7983 168.223 49.5573 168.223 48.0264C168.223 46.4954 169.466 45.2544 171 45.2544C172.533 45.2544 173.776 46.4954 173.776 48.0264C173.776 49.5573 172.533 50.7983 171 50.7983Z" fill="#F76C26"/>
<path d="M205.848 19.8398C205.848 19.8398 203.633 24.8231 204.195 27.564C204.756 30.3048 205.848 30.8654 206.972 27.564C208.095 24.2625 206.972 19.8398 206.972 19.8398H205.848Z" fill="#CAC4AE"/>
<path d="M201.449 34.7583C201.449 34.7583 199.795 38.0597 194.804 39.181C189.812 40.2711 177.083 40.8317 170.999 41.3923C164.915 41.9529 156.617 44.1643 156.617 44.1643V46.3756C156.617 46.3756 169.907 41.9529 177.644 42.5136C185.382 43.0742 196.457 40.8628 199.764 38.6515C203.102 36.409 201.449 34.7583 201.449 34.7583Z" fill="#CAC4AE"/>
<path d="M192.589 1.61937C192.589 1.61937 199.234 4.9208 201.98 7.13214C204.756 9.34348 204.195 10.9942 204.195 10.9942C204.195 10.9942 200.888 11.5548 200.326 13.7662C199.764 15.9775 199.764 22.0509 199.764 22.0509C199.764 22.0509 199.764 15.4169 197.549 12.1154C195.334 8.81401 192.027 4.39133 191.466 4.39133C190.904 4.39133 188.689 3.30123 191.466 7.16329C194.242 11.0253 193.119 18.22 192.558 19.8707C191.996 21.5214 191.466 22.082 191.466 22.082C191.466 22.082 193.681 12.1466 189.251 8.28453C184.82 4.42248 181.513 3.86185 179.86 3.86185C178.206 3.86185 173.152 3.02092 168.16 7.06985C163.855 10.5582 160.361 14.2333 160.361 14.2333C160.361 14.2333 166.912 3.33238 177.832 1.7751C183.448 0.965311 186.505 3.30123 187.035 3.30123C187.566 3.30123 187.191 1.7751 187.191 1.7751L192.589 1.61937Z" fill="#CAC4AE"/>
<path d="M208.063 62.3846C208.063 62.9452 201.418 66.2466 201.418 66.2466C201.418 66.2466 188.689 61.824 183.167 60.1732C177.645 58.5225 177.083 57.9619 177.083 57.9619C177.083 57.9619 184.821 57.4013 192.589 59.6126C200.326 61.824 208.063 62.3846 208.063 62.3846Z" fill="#CAC4AE"/>
<path d="M195.334 66.2466C195.334 66.2466 194.242 69.0186 196.426 69.0186C198.61 69.0186 200.295 69.0186 200.295 69.0186L199.203 72.32C199.203 72.32 196.426 72.8806 194.773 70.6693C193.119 68.4579 192.558 66.2466 192.558 66.2466H195.334Z" fill="#CAC4AE"/>
<path d="M206.41 67.8973C206.971 67.8973 214.147 66.8072 216.362 67.8973C218.577 68.9874 220.792 69.548 221.884 69.548C222.976 69.548 226.314 69.548 226.314 69.548C226.314 69.548 224.661 68.4579 220.792 67.3367C216.924 66.2466 214.709 66.2466 212.494 66.2466C210.278 66.2466 206.41 66.2466 206.41 66.2466V67.8973Z" fill="#CAC4AE"/>
<path d="M227.999 69.5479C227.999 69.5479 237.39 76.7425 238.513 83.906C239.605 91.1006 243.505 103.247 246.812 114.273C250.119 125.299 249.589 131.403 249.589 138.567C249.589 145.73 247.28 160.306 247.28 160.306L241.54 177.561L240.728 168.934C240.728 168.934 247.935 162.86 247.935 144.079C247.935 125.299 247.374 118.664 242.413 107.078C237.453 95.4922 235.768 88.8581 233.553 82.2241C231.338 75.5901 226.346 70.6379 226.346 70.6379L227.999 69.5479Z" fill="#CAC4AE"/>
<path d="M192.589 73.4414L181.513 86.1488C181.513 86.1488 185.382 78.9542 187.597 76.2134C189.812 73.4414 192.589 73.4414 192.589 73.4414Z" fill="#CAC4AE"/>
<path d="M181.514 76.7427C182.075 76.7427 177.083 82.2554 177.083 82.2554V80.6047L181.514 76.7427Z" fill="#CAC4AE"/>
<path d="M184.29 72.3203L178.206 78.3937V76.743L184.29 72.3203Z" fill="#CAC4AE"/>
<path d="M190.374 67.8974C190.374 67.8974 179.86 72.8807 177.083 75.6215C174.307 78.3623 169.877 82.2555 169.877 82.2555H168.223C168.223 82.2555 178.737 71.7595 184.259 69.5481C189.812 67.3679 190.374 67.8974 190.374 67.8974Z" fill="#CAC4AE"/>
<path d="M168.223 85.0273C168.223 85.0273 167.662 87.7993 168.223 88.3288C168.785 88.8583 169.315 89.4189 168.223 88.3288C167.131 87.2387 167.131 86.6781 167.131 86.1174C167.131 85.588 168.223 85.0273 168.223 85.0273Z" fill="#CAC4AE"/>
<path d="M164.354 67.8975C164.916 68.4581 168.784 70.6694 168.784 71.1989C168.784 71.7284 164.916 75.061 162.7 78.3935C160.485 81.695 161.047 84.4669 160.485 82.2556C159.924 80.0443 159.924 72.3201 158.832 70.6694C157.74 69.0187 158.832 67.8975 158.832 67.8975H164.354V67.8975Z" fill="#CAC4AE"/>
<path d="M154.402 90.0106C154.402 90.0106 150.533 88.3599 148.88 88.9205C147.226 89.4811 147.226 91.1318 147.226 91.6925C147.226 92.2531 148.88 97.2052 148.88 97.2052C148.88 97.2052 145.011 97.2052 144.449 93.9038C143.888 90.6024 143.888 86.1797 146.103 86.1797C148.318 86.1797 147.757 86.7403 149.41 87.2698C151.064 87.7993 153.84 87.8304 154.402 87.8304C154.963 87.8304 154.402 90.0106 154.402 90.0106Z" fill="#211B2A"/>
<path d="M141.111 154.077C141.111 154.077 144.418 162.362 144.418 164.573C144.418 166.785 144.418 169.557 142.764 165.663C141.111 161.801 138.896 160.151 138.896 157.939C138.896 155.728 141.111 154.077 141.111 154.077Z" fill="#F76C26"/>
<path d="M138.927 160.711C138.927 160.711 140.581 167.345 141.704 169.557C142.827 171.768 142.796 171.768 142.796 171.768C142.796 171.768 137.804 164.573 137.804 162.923C137.804 161.241 138.927 160.711 138.927 160.711Z" fill="#F76C26"/>
<path d="M211.401 242.438L215.27 256.235C215.27 256.235 214.708 255.674 216.362 254.024C218.015 252.373 219.139 252.373 218.577 253.463C218.015 254.553 217.485 257.886 217.485 257.886L221.354 256.796L220.262 260.097L223.569 257.886L220.262 265.08L227.999 257.886L228.561 265.08C228.561 265.08 230.214 265.08 231.868 266.171C233.521 267.261 232.96 267.821 234.083 268.382C235.175 268.943 235.736 268.382 235.736 269.472C235.736 270.562 234.083 271.683 235.736 271.123C237.39 270.562 237.951 268.911 237.951 269.472C237.951 270.033 237.951 271.123 237.951 271.123C237.951 271.123 239.605 268.911 240.166 268.351C240.728 267.79 241.82 265.049 241.82 265.049C241.82 265.049 242.381 265.049 242.912 267.261C243.473 269.472 244.004 268.911 244.004 271.123C244.004 273.334 245.657 272.773 245.657 272.773C245.657 272.773 245.657 274.985 245.657 275.545C245.657 276.106 246.749 273.334 246.749 272.244C246.749 271.154 247.841 269.472 247.841 271.683C247.841 273.895 246.749 274.455 247.841 275.545C248.933 276.636 248.933 276.636 249.495 278.317C250.056 279.968 250.056 281.089 250.587 281.619C251.148 282.179 251.148 281.058 252.24 281.619C253.332 282.179 253.332 282.179 254.455 281.619C255.547 281.058 255.547 281.058 256.67 280.529C257.762 279.968 257.762 278.878 257.762 279.968C257.762 281.058 259.416 282.179 259.416 282.179C259.416 282.179 262.193 279.407 261.069 277.757C259.977 276.106 257.762 273.895 253.863 273.334C249.994 272.773 246.656 270.033 245.564 268.351C244.472 266.7 240.572 262.277 237.827 260.066C235.081 257.855 218.452 246.798 218.452 246.798L210.715 240.725L211.401 242.438Z" fill="#CAC4AE"/>
<path d="M232.429 298.251C231.337 297.16 230.214 294.389 228.56 292.177C226.907 289.966 225.253 286.664 224.13 289.405C223.007 292.146 224.13 296.039 227.437 298.251C230.744 300.462 231.868 300.462 232.429 300.462C232.991 300.462 236.298 300.462 236.298 300.462C236.298 300.462 234.083 303.234 231.868 308.186C229.652 313.169 230.776 312.609 230.776 312.609C230.776 312.609 232.429 310.958 233.552 311.519C234.644 312.079 234.114 312.609 235.206 312.609C236.298 312.609 236.298 313.169 237.421 312.609C238.513 312.048 238.513 312.048 238.513 312.609C238.513 313.169 239.605 312.048 238.513 314.259C237.421 316.471 236.298 321.984 235.736 321.984C235.175 321.984 235.175 324.755 235.175 324.755L247.342 312.609L241.82 323.105L245.688 322.544L246.25 326.406L252.895 323.105L250.68 329.739C250.68 329.739 253.987 331.389 256.764 329.739C259.541 328.088 262.286 325.877 261.194 323.105C260.102 320.333 260.633 320.333 257.325 319.803C254.018 319.274 252.334 318.153 251.803 315.941C251.242 313.73 251.803 310.958 250.15 309.307C248.496 307.657 246.843 306.006 245.72 304.885C244.628 303.794 243.505 300.462 241.851 298.811C240.198 297.16 236.329 294.949 234.644 296.039C232.959 297.129 232.429 298.251 232.429 298.251Z" fill="#CAC4AE"/>
<path d="M260.071 335.251C260.071 335.251 259.51 338.023 258.979 338.553C258.449 339.082 258.979 339.643 258.979 339.643C258.979 339.643 259.541 339.643 260.633 337.432C261.725 335.22 260.071 335.251 260.071 335.251Z" fill="#CAC4AE"/>
<path d="M263.315 337.774C263.315 337.774 263.409 339.674 262.286 341.325C261.163 342.976 261.194 341.325 261.194 341.325L257.887 344.097C257.887 344.097 256.795 343.007 257.887 341.886C258.979 340.796 260.664 339.114 261.194 338.584C261.724 338.055 261.194 338.024 261.194 338.024L263.315 337.774Z" fill="#CAC4AE"/>
<path d="M262.848 346.837V350.17L258.979 349.049L261.194 347.959L262.848 346.837Z" fill="#CAC4AE"/>
<path d="M261.194 351.26C261.194 351.26 262.286 352.351 261.194 352.911C260.102 353.472 260.102 352.351 260.102 351.821C260.102 351.292 260.102 350.17 260.102 350.17L261.194 351.26Z" fill="#CAC4AE"/>
<path d="M239.605 206.558C239.605 206.558 236.298 201.045 235.736 200.484C235.175 199.924 233.521 195.501 234.644 193.85C235.736 192.2 234.083 186.126 234.083 186.126C234.083 186.126 234.083 197.183 232.429 194.972C230.776 192.76 226.907 188.898 226.907 188.898C226.907 188.898 227.469 191.109 227.469 192.76C227.469 194.411 225.815 194.411 225.254 194.411C224.692 194.411 224.692 195.501 225.254 195.501C225.815 195.501 227.469 199.363 227.469 199.363H226.377L226.938 201.014C226.938 201.014 225.285 202.664 225.846 202.664C226.408 202.664 226.408 203.755 224.755 203.225C223.101 202.664 224.755 203.786 224.193 204.876C223.631 205.966 225.285 208.177 224.193 206.527C223.101 204.876 222.539 204.315 222.539 204.315C222.539 204.315 221.978 205.966 220.324 205.405C218.671 204.845 219.763 204.845 220.324 203.755C220.886 202.664 220.886 203.194 221.978 201.543C223.07 199.893 223.07 199.893 223.631 199.893C224.193 199.893 224.723 200.983 224.193 199.893C223.663 198.802 223.631 197.681 221.978 197.681C220.324 197.681 218.671 196.591 219.201 196.591C219.732 196.591 220.855 195.501 220.855 195.501C220.855 195.501 219.763 196.062 219.763 194.94C219.763 193.819 220.324 192.168 221.416 192.168C222.508 192.168 224.723 189.396 220.855 190.518C216.986 191.608 214.209 192.729 215.863 189.428C217.516 186.126 219.732 180.582 224.162 178.371C228.592 176.16 234.676 178.932 236.891 183.354C239.106 187.777 241.321 193.85 240.759 198.273C240.198 202.696 239.605 206.558 239.605 206.558Z" fill="#CAC4AE"/>
<path d="M233.522 208.769C233.522 208.769 233.522 208.208 232.43 208.769C231.338 209.33 227.999 212.07 227.999 212.07C227.999 212.07 229.091 208.769 230.776 207.087C232.43 205.436 233.553 207.087 233.553 207.087V208.769H233.522Z" fill="#CAC4AE"/>
<path d="M231.306 225.899C230.083 225.899 229.091 224.532 229.091 222.847C229.091 221.161 230.083 219.794 231.306 219.794C232.53 219.794 233.521 221.161 233.521 222.847C233.521 224.532 232.53 225.899 231.306 225.899Z" fill="#CAC4AE"/>
<path d="M238.513 179.492L233.521 175.069C233.521 175.069 237.951 181.143 238.513 182.793C239.074 184.444 231.306 173.948 227.437 175.069C223.568 176.191 215.27 182.264 215.27 182.264L219.7 176.751L212.493 182.264C212.493 182.264 213.055 176.191 217.485 175.069C221.915 173.979 229.091 173.979 229.091 173.979C229.091 173.979 231.867 171.768 225.784 171.768C219.7 171.768 213.616 174.54 213.616 174.54C213.616 174.54 216.923 170.117 220.261 169.557C223.568 168.996 227.999 169.557 227.999 169.557C227.999 169.557 228.56 168.466 223.007 167.345C217.454 166.224 214.147 168.435 214.147 168.435C214.147 168.435 216.923 165.134 219.669 165.134C222.445 165.134 221.884 164.044 221.884 164.044L216.892 162.393C216.892 162.393 211.37 164.604 208.032 165.695C204.725 166.785 204.725 166.785 204.725 166.785C204.725 166.785 209.716 162.362 211.931 160.151C214.147 157.939 213.023 156.289 209.155 159.06C205.286 161.832 204.725 161.832 204.725 161.832C204.725 161.832 206.378 155.198 211.931 150.776C217.454 146.353 216.923 145.263 221.884 147.474C226.844 149.686 233.49 154.669 233.49 154.669C233.49 154.669 229.621 146.384 223.537 144.734C217.454 143.083 210.808 142.522 206.378 145.294C201.948 148.066 201.386 146.384 204.725 143.643C208.063 140.903 211.963 138.068 211.963 138.068C211.963 138.068 204.225 140.28 202.572 142.491C200.918 144.702 202.572 141.401 206.44 138.068C210.309 134.736 211.963 133.646 210.871 133.646C209.779 133.646 202.01 136.947 202.01 136.947C202.01 136.947 202.01 132.524 204.787 130.313C207.564 128.102 210.871 127.541 211.432 125.33C211.994 123.118 211.963 121.499 214.147 119.288C216.33 117.076 218.015 115.986 219.138 115.425C220.261 114.865 222.445 113.775 222.445 113.775C222.445 113.775 218.015 111.563 215.238 112.124C212.462 112.685 208.593 116.547 204.725 117.637C200.856 118.727 199.202 118.197 199.202 118.197C199.202 118.197 203.633 114.335 206.409 112.124C209.186 109.913 213.616 108.262 214.147 107.701C214.708 107.141 217.454 106.051 215.238 106.051C213.023 106.051 211.37 107.141 208.032 107.141C204.725 107.141 201.948 105.49 201.386 104.929C200.825 104.369 200.825 103.839 204.163 102.718C207.501 101.597 209.685 101.067 211.9 101.067C214.115 101.067 215.207 102.157 215.207 102.157C215.207 102.157 210.777 99.3855 210.216 97.7348C209.654 96.084 211.307 95.5234 208.562 95.5234C205.785 95.5234 205.255 97.1741 204.132 95.5234C203.009 93.8727 204.132 95.5234 204.132 91.6614C204.132 87.7993 203.57 85.588 203.04 85.0274C202.509 84.4667 205.255 80.6047 210.777 83.3766C216.299 86.1486 221.291 90.0106 222.944 93.8727C224.598 97.7348 225.16 100.507 225.16 101.067C225.16 101.628 225.721 103.279 225.721 103.279L219.138 97.1741C219.138 97.1741 226.345 104.898 227.437 107.67C228.529 110.442 227.437 109.321 226.876 108.76C226.314 108.2 217.485 100.476 217.485 100.476C217.485 100.476 226.345 109.85 227.437 114.273C228.529 118.696 228.529 120.907 228.529 120.346C228.529 119.786 224.66 115.363 224.66 115.924C224.66 116.484 230.183 129.192 232.398 132.493C234.613 135.795 236.828 140.217 235.705 140.217C234.613 140.217 234.613 141.307 235.705 142.429C236.797 143.519 239.573 149.063 238.481 151.274C237.389 153.485 235.174 152.364 235.174 152.364C235.174 152.364 236.266 154.015 237.951 159.559C239.604 165.072 240.166 167.844 238.513 167.844C236.859 167.844 235.206 162.331 230.214 162.86C225.222 163.421 221.353 163.95 224.13 164.511C226.907 165.072 230.214 163.421 233.521 167.283C236.828 171.145 239.604 176.658 239.604 176.658V179.43H238.513V179.492Z" fill="#CAC4AE"/>
<path d="M232.96 137.508C232.398 137.508 228.53 132.525 224.1 131.995C219.669 131.434 217.454 130.905 217.454 130.905C217.454 130.905 220.761 130.344 220.761 129.815C220.761 129.285 219.669 127.604 219.669 127.604C219.669 127.604 219.108 127.604 223.538 129.815C227.968 132.026 232.398 135.328 232.398 135.328L232.96 137.508Z" fill="#F76C26"/>
<path d="M226.345 135.857C226.345 135.857 231.337 139.158 230.775 140.28C230.214 141.401 227.999 140.84 228.56 140.84C229.122 140.84 226.345 138.068 226.345 138.068V135.857V135.857Z" fill="#F76C26"/>
<path d="M225.223 140.809C225.223 140.809 229.653 144.111 230.214 145.232C230.776 146.353 231.306 148.533 230.214 147.443C229.122 146.353 225.784 143.02 224.131 141.93C222.477 140.84 223.039 140.84 223.039 140.84H225.223V140.809Z" fill="#F76C26"/>
<path d="M212.806 309.463C212.806 309.463 185.133 302.767 174.712 274.58C164.292 246.393 151.126 226.522 154.683 211.198C158.239 195.875 160.174 216.119 157.959 220.791C155.775 225.432 171.405 254.74 171.405 254.74C171.405 254.74 167.505 270.936 186.568 288.315C204.351 304.511 187.909 293.983 194.742 298.437C201.574 302.891 212.806 309.463 212.806 309.463Z" fill="#F76C26"/>
<path d="M206.004 315.256L230.869 330.33L210.902 315.38L206.004 315.256Z" fill="#F76C26"/>
<path d="M149.441 106.394C149.441 106.394 143.514 118.229 142.89 123.524C142.266 128.818 154.745 132.556 154.745 132.556C154.745 132.556 145.573 127.323 147.569 121.032C151.313 109.197 149.441 106.394 149.441 106.394Z" fill="#F76C26"/>
<path d="M146.634 135.328L144.138 132.556L146.634 143.55V135.328Z" fill="#F76C26"/>
<path d="M140.3 136.636C140.3 136.636 121.207 129.815 119.834 128.881C118.461 127.915 115.061 125.735 115.061 125.735C115.061 125.735 113.438 125.455 112.877 124.925C112.315 124.396 112.19 123.025 112.19 123.025C112.19 123.025 111.66 124.396 109.195 124.8C106.731 125.205 108.509 123.835 105.514 124.8C102.519 125.766 99.9295 128.756 98.8375 128.881C97.7456 129.005 95.9673 128.195 95.9673 128.195C95.9673 128.195 97.0592 130.905 96.7784 131.871C96.4976 132.836 97.184 133.366 97.184 133.366C97.184 133.366 97.8704 133.241 98.6816 134.331C99.4927 135.421 100.304 135.951 100.585 136.636C100.865 137.321 102.082 136.636 102.082 136.636C102.082 136.636 105.888 137.446 104.672 139.221C103.455 140.996 101.957 141.121 100.179 140.996C98.4008 140.872 96.0921 139.906 95.9361 139.377C95.8113 138.847 95.5305 138.411 95.1249 138.287C94.7193 138.162 93.5026 138.691 92.941 138.162C92.4106 137.632 90.4763 134.611 90.4763 134.611C90.4763 134.611 88.854 130.936 88.5732 130.251C88.2925 129.566 87.7621 128.881 87.7621 128.881C87.7621 128.881 87.0757 131.061 86.1398 132.026C85.1726 132.992 82.9887 130.251 82.9887 130.251C82.9887 130.251 83.3943 126.981 84.2054 125.891C85.0166 124.8 85.9838 123.586 85.9838 123.025C85.9838 122.465 86.9509 121.25 87.3565 120.97C87.7621 120.689 88.7292 120.565 88.854 120.44C88.9788 120.316 90.9131 118.945 91.5683 118.26C92.2546 117.575 94.033 116.08 94.8441 115.675C95.6553 115.27 99.0871 112.124 99.0871 112.124C99.0871 112.124 102.238 109.819 104.828 108.729C107.417 107.639 108.509 107.639 109.32 107.515C110.131 107.39 112.877 107.515 114.655 107.515C116.433 107.515 118.337 107.795 118.461 107.515C118.586 107.234 120.77 106.549 121.456 106.705C122.143 106.829 141.798 111.065 141.798 111.065L140.3 136.636Z" fill="#211B2A"/>
<path d="M118.461 107.514C118.461 107.514 119.553 104.929 121.456 106.705C123.359 108.48 123.234 113.526 121.456 116.92C119.678 120.315 117.494 123.866 116.277 124.831C115.06 125.797 114.655 125.922 113.407 126.046C112.159 126.171 112.377 123.866 112.377 123.866C112.377 123.866 115.996 125.766 118.18 119.35C120.364 112.934 121.05 110.504 120.489 108.729C119.958 106.954 118.461 107.514 118.461 107.514Z" fill="#CAC4AE"/>
<path d="M112.315 119.91C112.315 119.91 110.132 118.945 108.915 118.415C107.698 117.886 109.601 116.235 110.693 117.045C111.785 117.855 112.315 119.91 112.315 119.91Z" stroke="#F76C26" stroke-miterlimit="10"/>
<path d="M107.417 123.181L106.45 121.655H104.422L107.417 123.181Z" stroke="#F76C26" stroke-miterlimit="10"/>
<path d="M109.601 110.909C109.601 110.909 105.015 114.211 104.204 116.671C103.392 119.132 103.049 121.81 102.238 123.181C101.427 124.551 99.8046 126.575 100.897 127.603C101.957 128.631 104.422 129.441 105.108 128.351C105.795 127.261 108.384 124.551 108.509 123.866C108.634 123.181 110.412 124.551 113.158 123.181C115.872 121.81 116.714 120.72 116.839 118.415C116.964 116.111 116.714 114.18 116.839 113.525C116.964 112.871 115.872 110.38 113.563 110.94C111.254 111.501 109.601 110.909 109.601 110.909Z" fill="#211B2A"/>
<path d="M118.461 110.785C118.586 110.505 120.084 114.585 118.461 114.055C116.839 113.526 116.277 111.065 115.466 112.436C114.655 113.806 114.655 115.83 115.466 116.796C116.277 117.761 116.558 118.166 115.591 119.256C114.624 120.347 114.78 120.066 113.407 120.471C112.034 120.876 111.504 120.471 110.412 120.876C109.32 121.281 108.915 119.786 108.509 120.876C108.103 121.966 107.542 123.181 107.417 123.866C107.292 124.551 105.92 126.326 105.108 127.012C104.297 127.697 101.552 126.046 101.552 126.046C101.552 126.046 100.335 127.572 101.552 128.102C102.768 128.631 105.108 128.351 105.92 127.261C106.731 126.171 108.509 123.866 108.509 123.866C108.509 123.866 109.195 124.022 110.412 123.866C111.629 123.71 111.878 122.9 114.468 122.433C117.089 121.966 118.992 119.91 120.084 117.73C121.176 115.55 121.3 113.494 121.176 113.09C121.051 112.685 118.461 110.785 118.461 110.785Z" fill="#CAC4AE"/>
<path d="M104.203 116.671C104.203 116.671 100.99 114.989 100.99 116.079C100.99 117.17 103.985 120.16 100.459 118.945C96.9341 117.73 93.5022 117.855 94.719 119.225C95.9357 120.596 95.4053 121.81 94.4382 121.686C93.471 121.561 90.7568 123.181 90.7568 123.181L89.384 122.495C89.384 122.495 89.2592 124.271 89.384 125.485C89.5088 126.7 89.2592 126.7 89.384 126.7C89.5088 126.7 90.0704 126.171 91.6927 125.485C93.315 124.8 94.0014 125.61 93.315 126.7C92.6287 127.79 93.1902 127.385 93.5958 128.88C94.0014 130.375 93.471 131.341 93.5958 131.746C93.7206 132.151 93.8766 132.711 94.1262 132.96C94.407 133.241 93.159 131.87 94.407 132.96C95.6237 134.05 96.5909 135.265 96.5909 135.265C96.5909 135.265 96.4661 136.355 96.4661 136.636C96.4661 136.916 96.3413 137.445 98.3692 138.411C100.428 139.376 103.423 140.404 103.423 140.404C103.423 140.404 104.079 140.435 104.359 139.221C104.64 138.006 104.952 137.601 103.486 137.103C102.019 136.636 100.272 136.636 100.397 136.636C100.522 136.636 99.8355 135.763 99.2116 135.047C98.6188 134.331 98.0572 133.926 97.3708 133.365C96.6845 132.836 96.9029 131.341 96.5285 130.188C96.1541 129.005 95.8733 128.071 95.8733 128.071C95.8733 128.071 96.6845 130.251 98.7436 128.88C100.803 127.51 100.927 127.51 100.927 127.51C100.927 127.51 99.7107 127.198 100.927 125.174C102.144 123.15 103.517 119.786 103.517 119.786L104.203 116.671Z" fill="#CAC4AE"/>
<path d="M89.4156 128.071C90.102 128.195 91.038 131.061 92.2859 133.116C93.5026 135.172 95.281 136.106 95.281 136.106C95.281 136.106 95.6865 137.321 94.3138 137.726C92.9411 138.131 92.0051 136.106 90.7572 133.241C89.5404 130.376 89.4156 128.071 89.4156 128.071Z" fill="#CAC4AE"/>
<path d="M86.2643 129.565C85.8588 129.565 84.0804 129.565 84.0804 129.565L82.9885 130.251C82.9885 130.251 84.2988 132.244 85.2036 132.151C86.1084 132.026 87.2627 130.219 87.2627 130.219L86.2643 129.565Z" fill="#CAC4AE"/>
<path d="M92.4107 118.384C92.4107 118.384 92.8163 119.599 94.0331 119.879C95.2498 120.16 93.2219 118.384 93.2219 118.384H92.4107Z" fill="#CAC4AE"/>
<path d="M116.839 109.539C115.997 109.259 115.092 109.072 114.187 108.978C113.75 108.947 113.282 108.916 112.845 108.916C112.377 108.916 111.941 108.947 111.504 108.978C110.599 109.072 109.726 109.29 108.852 109.601C108.01 109.882 107.167 110.255 106.387 110.722C105.607 111.19 104.859 111.657 104.11 112.155C103.361 112.653 102.612 113.121 101.864 113.619C100.366 114.616 98.8997 115.643 97.4646 116.734V116.765C98.9933 115.83 100.491 114.834 102.02 113.868L104.266 112.373C105.015 111.875 105.763 111.377 106.481 110.847C106.855 110.598 107.23 110.349 107.635 110.162C107.823 110.068 108.041 109.975 108.259 109.882C108.353 109.85 108.478 109.788 108.571 109.757C108.665 109.726 108.79 109.695 108.883 109.664C109.32 109.539 109.757 109.414 110.194 109.352C110.63 109.259 111.067 109.227 111.535 109.196C113.282 109.072 115.061 109.165 116.839 109.539Z" fill="#CAC4AE"/>
<path d="M119.148 123.835C119.148 123.835 136.058 131.995 138.242 132.961C140.425 133.926 139.333 135.016 139.333 135.016C139.333 135.016 122.829 128.476 120.365 128.071C117.9 127.666 116.808 126.015 116.808 126.015L119.148 123.835Z" fill="#CAC4AE"/>
<path d="M117.214 123.835L115.966 123.149C115.966 123.149 115.186 124.021 114.094 124.084C113.002 124.146 112.597 123.43 113.002 124.115C113.408 124.8 113.532 124.52 114.5 124.925C115.467 125.33 115.186 125.049 115.716 124.925C116.247 124.8 117.214 123.835 117.214 123.835Z" fill="#211B2A"/>
<path d="M187.191 8.28467C187.191 8.28467 178.456 14.8252 173.776 21.9887C169.096 29.1522 167.131 41.8908 167.131 41.8908L158.333 43.6972C158.333 43.6972 162.233 25.0722 168.16 19.7774C174.088 14.4826 187.191 8.28467 187.191 8.28467Z" fill="#786EDF"/>
<path d="M180.796 9.00098C180.796 9.00098 167.474 14.5449 164.76 18.3447C162.014 22.1444 159.612 26.2245 159.612 26.2245C159.612 26.2245 160.111 20.3068 165.321 14.8875C170.5 9.53045 180.796 9.00098 180.796 9.00098Z" fill="#786EDF"/>
<path d="M180.64 18.2515C180.64 18.2515 174.806 27.9378 174.556 30.8654C174.306 33.7931 174.275 36.6897 174.275 36.6897C174.275 36.6897 172.528 34.2603 173.682 29.3082C174.837 24.356 180.64 18.2515 180.64 18.2515Z" fill="#F76C26"/>
<path d="M239.292 351.509C239.292 351.509 234.613 364.279 239.292 368.016C243.972 371.754 250.212 371.754 250.212 371.754C250.212 371.754 243.66 370.197 242.412 366.459C241.164 362.722 239.292 351.509 239.292 351.509Z" fill="#F76C26"/>
<path d="M80.9287 151.336L20.6844 143.706L-0.000186604 81.0406L8.7042 79.6079L26.1442 136.48L80.9287 146.26V151.336Z" fill="#211B2A"/>
<path d="M27.2051 136.106L9.45313 80.6982L2.90144 81.0408L22.4941 139.003L27.2051 136.106Z" fill="#CAC4AE"/>
<path d="M31.9475 137.913L82.3643 145.17L80.9291 149.156L25.0526 140.809L31.9475 137.913Z" fill="#786EDF"/>
<path d="M9.35952 80.5425L22.4629 139.096L2.80783 80.5425H9.35952Z" fill="#F76C26"/>
<path d="M207.555 277.5C203.155 269.9 200.388 252 199.555 244C200.888 248 204.055 257.7 206.055 264.5C208.555 273 217.055 279.5 218.555 285C219.755 289.4 218.055 288.833 217.055 288C215.721 287.667 211.955 285.1 207.555 277.5Z" fill="#CAC4AE"/>
</g>
<defs>
<clipPath id="clip0_1314_20730">
<rect width="265" height="373" fill="white" transform="matrix(-1 0 0 1 265 0)"/>
</clipPath>
</defs>
</svg>
