<svg xmlns="http://www.w3.org/2000/svg" width="4466" height="2443" viewBox="0 0 4466 2443" fill="none"><g filter="url(#filter0_f)"><ellipse cx="2005.2" cy="654.88" rx="93.208" ry="92.832" transform="rotate(-10.275 2005.2 654.88)" fill="url(#paint0_linear)"/></g><g filter="url(#filter1_f)"><ellipse cx="1844.01" cy="877.876" rx="222.653" ry="172.155" transform="rotate(-73.57 1844.01 877.876)" fill="url(#paint1_linear)"/></g><path opacity=".4" d="M4385.01 1460L2973.39 966.461l-145.41-116.709-59.47 77.014-137.96-46.926s-26.51 47.236-42.84 53.729c-16.33 6.493-95.56-114.84-103.6-108.071-8.03 6.77-75.76 47.562-75.76 47.562l-65.72-30.969-122.76 123.358-73.78-41.368-54.35 113.939-289.63-231.366L188.003 1419" stroke="#28DFE8" stroke-width="2" stroke-miterlimit="10"/><path opacity=".26" d="M4388.01 1421L2906.43 728.006l-229.67 240.547-334.03-402.856-23.42 58.221-84.48-107.517-122.41 335.236-138.19-120.472L184.001 955" stroke="#E2B72B" stroke-width="2" stroke-miterlimit="10"/><path opacity=".5" d="M4388.01 1327L2917.19 616.414l-98.11 98.993-72.02-34.789-154.18 98.581-157.54-203.097-65.3 86.379-252-91.043-143.91 256.843-75.75-36.284L186.004 1511" stroke="#EA596E" stroke-width="2" stroke-miterlimit="10"/><path d="M2143.59 561.602c-.72-2.647-3.09-4.318-4.5-4.655 2.3 1.011 4.56-.753 4.65-4.496-.28 2.526 1.8 4.574 4.51 4.656-3.04.779-4.95 2.93-4.66 4.495zm33.09 32.547c-.72-2.648-3.08-4.318-4.5-4.655 2.31 1.011 4.56-.753 4.66-4.496-.29 2.526 1.79 4.574 4.5 4.655-3 .78-4.91 2.897-4.66 4.496zm64.13 76.195c-.72-2.647-3.09-4.318-4.5-4.655 2.3 1.011 4.56-.753 4.65-4.495-.28 2.526 1.8 4.573 4.51 4.655-3 .78-4.91 2.931-4.66 4.495z" fill="#C9F4F4"/><path opacity=".5" d="M2194.6 699.323c-.33-1.15-1.36-1.896-1.98-2.045 1.03.434 1.98-.347 2.04-1.975-.12 1.107.8 2.024 1.98 2.045-1.32.324-2.17 1.28-2.04 1.975z" fill="#C9F4F4"/><path d="M2105.78 683.724c-.72-2.647-3.09-4.318-4.5-4.655 2.3 1.011 4.55-.753 4.65-4.496-.28 2.527 1.8 4.574 4.51 4.656-3 .78-4.91 2.896-4.66 4.495zm-16.09-179.615c-1.81-1.627-4.41-1.707-5.63-1.277 2.22-.378 2.99-2.791 1.27-5.63 1.04 2.029 3.57 2.524 5.63 1.277-1.87 2.083-2.26 4.572-1.27 5.63zm-8.29 71.489c-.72-2.647-3.09-4.318-4.51-4.655 2.31 1.011 4.56-.753 4.66-4.496-.29 2.527 1.8 4.574 4.5 4.656-2.99.745-4.9 2.896-4.65 4.495zm-65.42-77.708c-.72-2.647-3.09-4.318-4.51-4.655 2.31 1.011 4.56-.753 4.66-4.496-.29 2.527 1.8 4.574 4.5 4.656-3.03.779-4.94 2.895-4.65 4.495zm-18.01 116.563c-.72-2.647-3.09-4.318-4.51-4.655 2.31 1.011 4.56-.753 4.66-4.496-.29 2.527 1.8 4.574 4.5 4.656-3 .78-4.91 2.896-4.65 4.495z" fill="#C9F4F4"/><circle cx="1930.18" cy="658.091" transform="rotate(-105 1930.18 658.091)" fill="url(#paint2_linear)" r="72"/><circle cx="1831.59" cy="752.81" transform="rotate(-105 1831.59 752.81)" fill="url(#paint3_linear)" r="20.073"/><path d="M2867.33 576.214c.72 1.313 2.39 1.791 3.7 1.074 1.32-.716 45.79-26.624 45.07-27.878-.77-1.373-46.44 22.386-47.75 23.103-1.26.716-1.74 2.387-1.02 3.701z" fill="url(#paint4_linear)"/><path d="M2867.39 576.214c.66 1.134 2.09 1.552 3.22.955 1.14-.597 1.56-2.089.96-3.224-.66-1.134-2.09-1.552-3.22-.955-1.2.657-1.62 2.09-.96 3.224z" fill="url(#paint5_linear)"/><path opacity=".167" d="M2901.86 499.139c-.72-1.431-24.4 8.881-27.07 10.214-2.67 1.334-4.26 3.546-3.58 4.977.72 1.432 3.45 1.497 6.12.163 2.7-1.334 25.24-13.955 24.53-15.354z" fill="#fff"/><path opacity=".333" d="M2897.59 501.253c-.68-1.399-20.13 6.831-22.77 8.133-2.63 1.301-4.19 3.513-3.51 4.912.68 1.399 3.38 1.464 6.02.162 2.63-1.301 20.98-11.808 20.26-13.207z" fill="#fff"/><path opacity=".5" d="M2893.33 503.368c-.68-1.399-15.91 4.782-18.47 6.05-2.61 1.302-4.14 3.449-3.45 4.815.68 1.366 3.35 1.464 5.92.163 2.57-1.269 16.69-9.662 16-11.028z" fill="#fff"/><path opacity=".667" d="M2889.07 505.482c-.68-1.366-11.64 2.733-14.21 4.001-2.54 1.269-4.07 3.384-3.42 4.75.68 1.366 3.29 1.431 5.82.163 2.57-1.302 12.49-7.58 11.81-8.914z" fill="#fff"/><path opacity=".833" d="M2884.81 507.597c-.65-1.334-7.42.683-9.92 1.919-2.51 1.236-4 3.318-3.35 4.652.65 1.333 3.22 1.398 5.72.162 2.51-1.236 8.2-5.4 7.55-6.733z" fill="#fff"/><path d="M2880.55 509.712c-.65-1.302-3.19-1.367-5.63-.163-2.47 1.236-3.97 3.285-3.32 4.587.65 1.301 3.19 1.366 5.63.162 2.44-1.203 3.97-3.285 3.32-4.586z" fill="#fff"/><path opacity=".167" d="M2947.2 563.37c-.45-.935-15.98 5.83-17.72 6.699-1.74.87-2.8 2.32-2.35 3.254.45.934 2.26.966 4 .096 1.77-.837 16.52-9.115 16.07-10.049z" fill="#fff"/><path opacity=".333" d="M2944.4 564.754c-.45-.902-13.21 4.478-14.92 5.315-1.74.87-2.77 2.287-2.28 3.221.45.902 2.22.967 3.96.097 1.71-.838 13.69-7.698 13.24-8.633z" fill="#fff"/><path opacity=".5" d="M2941.63 566.14c-.45-.902-10.41 3.124-12.11 3.962-1.71.837-2.71 2.254-2.26 3.156.45.902 2.19.934 3.9.097 1.67-.805 10.89-6.313 10.47-7.215z" fill="#fff"/><path opacity=".667" d="M2938.82 567.525c-.45-.902-7.63 1.771-9.3 2.609-1.68.837-2.68 2.222-2.23 3.092.45.902 2.16.934 3.84.097 1.64-.806 8.15-4.896 7.69-5.798z" fill="#fff"/><path opacity=".833" d="M2936.02 568.909c-.42-.869-4.86.451-6.5 1.257-1.65.805-2.61 2.19-2.19 3.06.41.869 2.12.934 3.76.096 1.65-.805 5.38-3.543 4.93-4.413z" fill="#fff"/><path d="M2933.22 570.295c-.42-.87-2.09-.902-3.7-.097-1.61.805-2.58 2.158-2.16 2.996.42.869 2.09.901 3.7.096 1.61-.805 2.61-2.126 2.16-2.995z" fill="#fff"/><path d="M2929.14 508.634c.3.597 1.01.776 1.61.478.6-.299 20-11.581 19.64-12.178-.3-.597-20.24 9.79-20.77 10.089-.6.298-.78 1.014-.48 1.611z" fill="url(#paint6_linear)"/><path d="M2929.14 508.634c.3.478.89.657 1.37.418.48-.299.66-.895.42-1.373-.3-.478-.9-.657-1.37-.418-.48.239-.66.836-.42 1.373z" fill="url(#paint7_linear)"/><path d="M2519 876.5c21.5 206.5-105 228.87-195 210.41-30-6.15-63.49-24-72-62-15-67.001 72-93.001 106-42.001 15.87 23.801 18.43 54.501 0 86.001-40.72 69.62-186 114-295 100-180-23.12-301-234.001-148-437.501" stroke="#CAC4AE" stroke-width="2"/><path d="M2191.13 799.086l-3.97-4.973-8.76 3.511 2.49 7.047 5.95 1.179 4.29-6.764zm25.05-20.448l-4.17 1.319.24 6.538 5.14.104 2.16-3.578-3.37-4.383zm-20.29 14.027l-2.67.827.16 4.162 3.29.098 1.36-2.285-2.14-2.802zm-9.77-9.688l-2.67.891.15 4.163 3.3.033 1.37-2.285-2.15-2.802zm-15.46 22.267l-2.66.826.16 4.162 3.29.1 1.36-2.285-2.15-2.803zm63-31.519l-2.66.826.15 4.162 3.29.098 1.37-2.284-2.15-2.802z" fill="#FCA13D"/><path d="M2242.83 743.661l-2.67.892.09 4.155 3.3.033 1.43-2.278-2.15-2.802z" fill="#825325"/><path d="M2240.16 744.556l2.55 2.123-2.46 2.034-.09-4.157z" fill="#F9DA3E"/><path opacity=".5" d="M2216.18 778.637l-4.17 1.319 3.91 1.81 1.47 4.831 2.16-3.578-3.37-4.382zm17.48-4.912l-2.66.826 2.31 1.241 1.13 3.019 1.37-2.285-2.15-2.801zm-37.77 18.94l-2.67.827.16 4.162 3.29.098 1.36-2.285-2.14-2.802zm-4.77 6.413l-3.97-4.979-2.46 3.285.68 6.067 1.46 2.399 4.29-6.772zm-5-16.101l-2.67.891 2.63.684.82 3.511 1.37-2.285-2.15-2.801zm-15.46 22.267l-2.66.825 3.08 1.459.37 2.803 1.36-2.284-2.15-2.803z" fill="#693300"/><defs><linearGradient id="paint0_linear" x1="2005.2" y1="562.048" x2="2103.06" y2="715.981" gradientUnits="userSpaceOnUse"><stop stop-color="#722C79"/><stop offset="1" stop-color="#230446"/></linearGradient><linearGradient id="paint1_linear" x1="1844.01" y1="705.721" x2="2003.08" y2="1028.05" gradientUnits="userSpaceOnUse"><stop stop-color="#230446"/><stop offset=".839" stop-color="#76265D"/></linearGradient><linearGradient id="paint2_linear" x1="1930.18" y1="586.091" x2="1930.18" y2="730.091" gradientUnits="userSpaceOnUse"><stop stop-color="#230446"/><stop offset="1" stop-color="#7F1BE8"/></linearGradient><linearGradient id="paint3_linear" x1="1832.68" y1="748.356" x2="1833.86" y2="778.697" gradientUnits="userSpaceOnUse"><stop stop-color="#230446"/><stop offset="1" stop-color="#7F1BE8"/></linearGradient><linearGradient id="paint4_linear" x1="2867.31" y1="575.903" x2="2916.07" y2="549.066" gradientUnits="userSpaceOnUse"><stop stop-color="#9E38D2"/><stop offset="1" stop-color="#9E38D2" stop-opacity=".1"/></linearGradient><linearGradient id="paint5_linear" x1="2868.79" y1="577.029" x2="2870.1" y2="572.486" gradientUnits="userSpaceOnUse"><stop stop-color="#FBF25E"/><stop offset=".535" stop-color="#FCF6A6" stop-opacity=".518"/><stop offset="1" stop-color="#FEFAE8" stop-opacity=".1"/></linearGradient><linearGradient id="paint6_linear" x1="2929.14" y1="508.318" x2="2950.4" y2="496.614" gradientUnits="userSpaceOnUse"><stop stop-color="#9E38D2"/><stop offset="1" stop-color="#9E38D2" stop-opacity=".1"/></linearGradient><linearGradient id="paint7_linear" x1="2929.78" y1="508.808" x2="2930.35" y2="506.827" gradientUnits="userSpaceOnUse"><stop stop-color="#FBF25E"/><stop offset=".535" stop-color="#FCF6A6" stop-opacity=".518"/><stop offset="1" stop-color="#FEFAE8" stop-opacity=".1"/></linearGradient><filter id="filter0_f" x="1851.93" y="501.91" width="306.545" height="305.939" filterUnits="userSpaceOnUse" color-interpolation-filters="sRGB"><feFlood flood-opacity="0" result="BackgroundImageFix"/><feBlend in="SourceGraphic" in2="BackgroundImageFix" result="shape"/><feGaussianBlur stdDeviation="22.5" result="effect1_foregroundBlur"/></filter><filter id="filter1_f" x="1520.9" y="520.622" width="646.203" height="714.508" filterUnits="userSpaceOnUse" color-interpolation-filters="sRGB"><feFlood flood-opacity="0" result="BackgroundImageFix"/><feBlend in="SourceGraphic" in2="BackgroundImageFix" result="shape"/><feGaussianBlur stdDeviation="47.5" result="effect1_foregroundBlur"/></filter></defs></svg>